<svg id="_50" data-name="50" xmlns="http://www.w3.org/2000/svg" viewBox="0 0 512 512"><defs><style>.cls-1{fill:#6c7ed5;}.cls-2{fill:#b5b3ff;}.cls-3{fill:#ea792e;}.cls-4{fill:#f39e22;}.cls-5{fill:#f9c744;}.cls-6{fill:#dd5e26;}.cls-7{fill:#fff;}.cls-8{fill:#ffccd7;}.cls-9{fill:#fbd9a3;}.cls-10{fill:#fad98f;}.cls-11{fill:#faefdc;}</style></defs><title>50-soccer-icons</title><circle class="cls-1" cx="256" cy="256" r="256"/><path class="cls-2" d="M256.22,450.89c-6.16,0-12.41-.3-18.58-.88l-.27,0a5,5,0,0,1,1-10l.2,0a186.18,186.18,0,0,0,28.8.5,5,5,0,0,1,.6,10C264.06,450.77,260.12,450.89,256.22,450.89Zm55.35-8.28a5,5,0,0,1-1.46-9.78,183.83,183.83,0,0,0,27-10.66,5,5,0,1,1,4.39,9A194.58,194.58,0,0,1,313,442.39,5,5,0,0,1,311.57,442.61Zm-117.34-2a4.87,4.87,0,0,1-1.62-.27,195.16,195.16,0,0,1-28.05-12.17,5,5,0,1,1,4.7-8.83,183.8,183.8,0,0,0,26.6,11.54,5,5,0,0,1-1.63,9.73Zm182.58-33.1a5,5,0,0,1-3.19-8.86,185.58,185.58,0,0,0,20.87-20.14,5,5,0,0,1,7.49,6.63,196.15,196.15,0,0,1-22,21.23A4.94,4.94,0,0,1,376.81,407.49Zm-246.55-4.2A5,5,0,0,1,127,402a196.11,196.11,0,0,1-21.24-22,5,5,0,1,1,7.71-6.36,187.38,187.38,0,0,0,20.16,20.86,5,5,0,0,1-3.32,8.74Zm293.43-53.12a5,5,0,0,1-4.41-7.35,185,185,0,0,0,11.56-26.6,5,5,0,1,1,9.45,3.25,193,193,0,0,1-12.18,28A5,5,0,0,1,423.69,350.17ZM85.38,344.36a5,5,0,0,1-4.5-2.8,195.76,195.76,0,0,1-11.25-28.44,5,5,0,1,1,9.56-2.93,184.88,184.88,0,0,0,10.67,27,5,5,0,0,1-2.29,6.69A4.88,4.88,0,0,1,85.38,344.36ZM445,279.23l-.48,0a5,5,0,0,1-4.5-5.45l0-.38c.55-5.82.83-11.75.83-17.6,0-3.79-.12-7.61-.35-11.37a5,5,0,1,1,10-.61c.24,4,.37,8,.37,12,0,6.16-.3,12.41-.88,18.58l0,.34A5,5,0,0,1,445,279.23Zm-378.54-6.5a5,5,0,0,1-5-4.7c-.24-3.92-.36-7.89-.36-11.81,0-6.14.3-12.38.88-18.54,0-.08,0-.17,0-.26a5,5,0,1,1,9.95,1l-5-.51,5,.56c-.57,5.94-.85,11.87-.85,17.72,0,3.72.12,7.49.34,11.2a5,5,0,0,1-4.69,5.3Zm371.08-67.54a5,5,0,0,1-4.78-3.53,185,185,0,0,0-10.7-27,5,5,0,0,1,9-4.41,195.1,195.1,0,0,1,11.28,28.43A5,5,0,0,1,439,205,5.06,5.06,0,0,1,437.54,205.19ZM76.38,199.31a4.83,4.83,0,0,1-1.62-.27,5,5,0,0,1-3.11-6.35,195.11,195.11,0,0,1,12.16-28.05,5,5,0,0,1,8.83,4.69,185.34,185.34,0,0,0-11.53,26.6A5,5,0,0,1,76.38,199.31Zm326-59.31a5,5,0,0,1-3.86-1.81,185.66,185.66,0,0,0-20.17-20.85,5,5,0,0,1,6.62-7.49,196.9,196.9,0,0,1,21.26,22,5,5,0,0,1-.67,7A4.92,4.92,0,0,1,402.33,140Zm-288.68-4.67a5,5,0,0,1-3.74-8.32,196.93,196.93,0,0,1,22-21.25,5,5,0,0,1,6.37,7.71,186.54,186.54,0,0,0-20.85,20.17A5,5,0,0,1,113.65,135.33ZM344.94,93.19a5,5,0,0,1-2.34-.58A184.34,184.34,0,0,0,316,81.08a5,5,0,0,1,3.23-9.46,193.59,193.59,0,0,1,28.06,12.15,5,5,0,0,1-2.34,9.42ZM172.57,90.41a5,5,0,0,1-2.21-9.49A195.81,195.81,0,0,1,198.8,69.66a5,5,0,0,1,2.94,9.56,185,185,0,0,0-27,10.68A4.91,4.91,0,0,1,172.57,90.41ZM274,72l-.43,0-.17,0a187.05,187.05,0,0,0-28.89-.48,5,5,0,0,1-.61-10,196.5,196.5,0,0,1,30.48.51,5,5,0,0,1,4.56,5.43A5,5,0,0,1,274,72Z"/><path class="cls-3" d="M186.83,239.71V211.29c-7.64.64-23.28.79-30.69,1.69-26,2.75-28.42,33.23-26.65,53.93,4.07,34.77,47.17,38.93,75,37.88l-.45-14.65c-16.81-1-36.08-2.9-49.17-14.15-7.57-7.08-5.43-18.48-4.41-27.43l0-.1a13.07,13.07,0,0,1,13.18-9.63Z"/><path class="cls-4" d="M382.51,266.92c-4.07,34.75-47.17,38.93-75,37.87l.45-14.66c16.8-1,36.07-2.89,49.16-14.14,7.58-7.08,5.43-18.48,4.42-27.43a.17.17,0,0,1,0-.1,13.09,13.09,0,0,0-13.18-9.63l-23.14.88V211.29c3.12.26,7.59.44,12.28.63,6.78.26,14,.53,18.4,1.07,15.47,1.63,22.58,13.06,25.44,26.41C383.26,248.51,383.23,258.52,382.51,266.92Z"/><path class="cls-5" d="M381.3,239.4a37.61,37.61,0,0,1-43.84-27.48c6.78.26,14,.53,18.4,1.07C371.33,214.62,378.44,226.05,381.3,239.4Z"/><path class="cls-4" d="M130.71,239.4a37.61,37.61,0,0,0,43.84-27.48c-6.78.26-14,.53-18.4,1.07C140.68,214.62,133.57,226.05,130.71,239.4Z"/><path class="cls-3" d="M289.82,332.06V349a13.59,13.59,0,0,1-13.59,13.59H235.77A13.59,13.59,0,0,1,222.18,349V332.06Z"/><path class="cls-4" d="M289.82,332.06V349a13.59,13.59,0,0,1-13.59,13.59H256V332.06Z"/><rect class="cls-4" x="238.71" y="362.59" width="34.59" height="38.15"/><rect class="cls-5" x="256" y="362.59" width="17.29" height="38.15"/><path class="cls-6" d="M313,424.89v43.65H199V424.89a24.15,24.15,0,0,1,24.15-24.15h65.66A24.15,24.15,0,0,1,313,424.89Z"/><path class="cls-3" d="M313,424.89v43.65H256v-67.8h32.83A24.15,24.15,0,0,1,313,424.89Z"/><rect class="cls-4" x="190.96" y="457.15" width="130.09" height="22.77" rx="6.28"/><path class="cls-5" d="M321.05,463.43v10.21a6.29,6.29,0,0,1-6.29,6.29H256V457.15h58.76A6.29,6.29,0,0,1,321.05,463.43Z"/><rect class="cls-7" x="294.73" y="425.73" width="10.92" height="10.92" rx="3.23"/><rect class="cls-8" x="206.36" y="425.73" width="10.92" height="10.92" rx="3.23"/><rect class="cls-9" x="225.95" y="416.5" width="60.1" height="29.38" rx="6.16"/><path class="cls-7" d="M256,416.5h23.89a6.16,6.16,0,0,1,6.16,6.16v17a6.16,6.16,0,0,1-6.16,6.16H256a0,0,0,0,1,0,0V416.5A0,0,0,0,1,256,416.5Z"/><path class="cls-4" d="M325.18,194.38v86.31a57.77,57.77,0,0,1-57.78,57.77H244.6a57.76,57.76,0,0,1-57.77-57.77V194.38a11.09,11.09,0,0,1,11.1-11.1H314.08A11.09,11.09,0,0,1,325.18,194.38Z"/><path class="cls-5" d="M325.18,194.38v63a57.78,57.78,0,0,1-57.78,57.77H244.6a57.77,57.77,0,0,1-57.77-57.77v-63a11.09,11.09,0,0,1,11.1-11.1H314.08A11.09,11.09,0,0,1,325.18,194.38Z"/><path class="cls-5" d="M325.18,194.38v86.31a57.77,57.77,0,0,1-57.78,57.77H256V183.28h58.08A11.09,11.09,0,0,1,325.18,194.38Z"/><path class="cls-10" d="M325.18,194.38v63a57.78,57.78,0,0,1-57.78,57.77H256V183.28h58.08A11.09,11.09,0,0,1,325.18,194.38Z"/><rect class="cls-11" x="289.82" y="205.77" width="23.16" height="69.88" rx="11.58"/><rect class="cls-4" x="177.28" y="169.49" width="157.44" height="27.56" rx="7.6"/><path class="cls-5" d="M334.72,177.1v12.35a7.61,7.61,0,0,1-7.6,7.61H256V169.49h71.12A7.61,7.61,0,0,1,334.72,177.1Z"/><rect class="cls-10" x="262.32" y="169.49" width="62.85" height="15.78" rx="7.89"/><polygon class="cls-3" points="297.46 169.49 214.55 169.49 234.55 115.48 277.46 115.48 297.46 169.49"/><polygon class="cls-4" points="297.46 169.49 255.97 169.49 255.97 115.48 277.46 115.48 297.46 169.49"/><path class="cls-4" d="M319.9,76.67A63.91,63.91,0,0,1,256,140.58h0a63.91,63.91,0,0,1,0-127.82h0A63.9,63.9,0,0,1,319.9,76.67Z"/><path class="cls-5" d="M319.9,76.67A63.91,63.91,0,0,1,256,140.58h0V12.76h0A63.9,63.9,0,0,1,319.9,76.67Z"/><path class="cls-6" d="M318.56,89.79a64.21,64.21,0,0,0-13.44-54h0a64.27,64.27,0,0,0-21.29-16.67h0a64.31,64.31,0,0,0-55.66,0h0a64.08,64.08,0,0,0-21.36,16.76h0a64.13,64.13,0,0,0-13.34,54h0a63.63,63.63,0,0,0,7.66,19.54h0A64.25,64.25,0,0,0,247.61,140v0a63.81,63.81,0,0,0,17,0v0A64.24,64.24,0,0,0,311,109.24h0a63.39,63.39,0,0,0,7.57-19.45ZM297.75,34.92A59,59,0,0,1,303,41l-9.17,22.67a6.06,6.06,0,0,0-.32,1.08,3,3,0,0,0-.72.11l-10.54,3.28a3.28,3.28,0,0,0-.6.28,5.9,5.9,0,0,0-.75-.66L259.51,52.18a6.45,6.45,0,0,0-.87-.52c.13-.45.13-13.9,0-14.35a4.88,4.88,0,0,0,.87-.52L279.32,22.4A59,59,0,0,1,297.75,34.92Zm-83.5,0A59,59,0,0,1,232.68,22.4L240.45,28h0l12,8.74a5.23,5.23,0,0,0,.84.51c-.14.5-.14,13.87,0,14.37-.14-.08-23.17,16.65-23,16.75a2.5,2.5,0,0,0-.55-.25l-10.49-3.43a2.46,2.46,0,0,0-.84-.13,5.89,5.89,0,0,0-.29-.9l-9.22-22.66A58.31,58.31,0,0,1,214.25,34.92Zm-16.5,51.37,18.7-15.77a6.54,6.54,0,0,0,.74-.75c.42.19,11.12,3.76,11.5,3.71,0,.49,8.54,26.83,8.85,27.11a2.69,2.69,0,0,0-.36.39l-4.78,6.31a2.51,2.51,0,0,0-.4.78,6,6,0,0,0-.85,0l-24.46,1.13A58.33,58.33,0,0,1,197.75,86.29ZM256,135.71a59.39,59.39,0,0,1-10.36-.92L237,111.9a5.85,5.85,0,0,0-.52-1,2.4,2.4,0,0,0,.27-.28l4.78-6.31a2.72,2.72,0,0,0,.35-.65,5.14,5.14,0,0,0,.88.07h26.46a6.2,6.2,0,0,0,1-.07,2.39,2.39,0,0,0,.28.52l4.53,6.48a2.6,2.6,0,0,0,.44.49c-.58,1.12-8.16,21.84-8.88,23.64A59.68,59.68,0,0,1,256,135.71ZM305.41,109,281,108a5.86,5.86,0,0,0-1.19.08c.33.24-4.83-7-4.82-7a2.65,2.65,0,0,0-.45-.49c.1.22,9-27.16,8.81-27.09.54,0,11.11-3.35,11.61-3.6a5.11,5.11,0,0,0,.62.61l18.73,15.74A58.41,58.41,0,0,1,305.41,109Z"/><path class="cls-3" d="M319.84,74.06c-1.11-33.92-30-61.58-63.86-61.3v90.95c.31,0,14.41.09,14.2-.08s4.81,7,4.82,7a2.6,2.6,0,0,0,.44.49c-.58,1.12-8.16,21.85-8.88,23.64a59.82,59.82,0,0,1-10.58,1v4.87a64.09,64.09,0,0,0,55-31.34h0A63.71,63.71,0,0,0,319.84,74.06ZM259.51,52.18a6.45,6.45,0,0,0-.87-.52c.13-.45.13-13.89,0-14.34a6.45,6.45,0,0,0,.87-.52l19.8-14.4A59.23,59.23,0,0,1,303,41l-9.18,22.67a6.27,6.27,0,0,0-.31,1.08,3,3,0,0,0-.72.11l-10.54,3.28a3,3,0,0,0-.6.28,6.73,6.73,0,0,0-.75-.65ZM305.41,109,281,108a5.66,5.66,0,0,0-1.17.08c0-.2-4.85-7-4.85-7a3,3,0,0,0-.44-.49c.1.23,9-27.15,8.81-27.09.54,0,11.1-3.35,11.61-3.59a6,6,0,0,0,.62.61l18.73,15.73A58.45,58.45,0,0,1,305.41,109Z"/><circle class="cls-10" cx="279.29" cy="42.86" r="13.5"/></svg>