<svg id="_50" data-name="50" xmlns="http://www.w3.org/2000/svg" viewBox="0 0 512 512"><defs><style>.cls-1{fill:#f39e22;}.cls-2{fill:#f9f2f9;}.cls-3{fill:#fff;}.cls-4{fill:#334353;}.cls-5{fill:#3e4e60;}.cls-6{fill:#3f5d77;}</style></defs><title>50-soccer-icons</title><circle class="cls-1" cx="256" cy="256" r="256"/><path class="cls-2" d="M472.85,262.33l-6.32-11a23.89,23.89,0,0,0-32.66-8.75L404.7,259.44l32.93-122.9a15.81,15.81,0,0,0-11.16-19.34l-8.1-2.17A15.82,15.82,0,0,0,399,126.2l5.83-21.76a15.82,15.82,0,0,0-11.17-19.35l-8.09-2.17a15.83,15.83,0,0,0-19.35,11.17l-5.55,20.71a15.82,15.82,0,0,0-11.17-19.34l-8.1-2.17a15.82,15.82,0,0,0-19.35,11.16L315,130.93a15.82,15.82,0,0,0-11.17-19.35l-8.09-2.17a15.82,15.82,0,0,0-19.35,11.17L238.45,262.1A55,55,0,0,0,244,304c.31.54.64,1.1,1,1.62a54.82,54.82,0,0,0,32.5,24.07l65.88,17.65a51.68,51.68,0,0,0,39.21-5.16v-.08L464.11,295A23.87,23.87,0,0,0,472.85,262.33Z"/><rect class="cls-3" x="405.02" y="137.48" width="18.43" height="101.47" rx="9.22" transform="translate(62.83 -100.8) rotate(15)"/><rect class="cls-3" x="429.1" y="266.66" width="18.43" height="65.12" rx="9.22" transform="matrix(0.5, 0.87, -0.87, 0.5, 478.29, -229.98)"/><rect class="cls-3" x="327.8" y="116.79" width="18.43" height="101.47" rx="9.22" transform="translate(54.84 -81.52) rotate(15)"/><rect class="cls-3" x="283.73" y="126.84" width="18.43" height="101.47" rx="9.22" transform="translate(55.94 -69.77) rotate(15)"/><rect class="cls-3" x="371.69" y="107.43" width="18.43" height="101.47" rx="9.22" transform="translate(53.92 -93.2) rotate(15)"/><rect class="cls-3" x="315" y="238.3" width="81.84" height="90.11" rx="20.86" transform="translate(85.46 -82.46) rotate(15)"/><path class="cls-4" d="M380.64,227.15l.44-1.64,26-97.14a15.81,15.81,0,0,1,19.34-11.17h0L418.36,115A15.81,15.81,0,0,0,399,126.2L370.38,233.07S379.44,231.62,380.64,227.15Z"/><path class="cls-4" d="M302.81,208.78l.44-1.64,26.92-100.5a15.8,15.8,0,0,1,19.35-11.17h0l-8.1-2.17a15.81,15.81,0,0,0-19.34,11.17L292.54,214.7S301.61,213.25,302.81,208.78Z"/><path class="cls-4" d="M344.29,208.39l.44-1.64,29.6-110.49a15.81,15.81,0,0,1,19.35-11.17h0l-8.1-2.16a15.79,15.79,0,0,0-19.34,11.16L334,214.31S343.09,212.86,344.29,208.39Z"/><path class="cls-5" d="M433.87,242.59l-29.18,16.85L400,276.9l40.33-23.29a23.82,23.82,0,0,1,32.53,8.72l-6.34-11A23.92,23.92,0,0,0,433.87,242.59Z"/><path class="cls-5" d="M277.4,329.55a54.77,54.77,0,0,1-31.9-23.18l-.26-.37c-.11-.18-.24-.34-.35-.51l0,0A55,55,0,0,1,238.41,262l37.92-141.5a15.79,15.79,0,0,1,19.34-11.17l8.1,2.17h0a15.8,15.8,0,0,0-19.35,11.17l-35.3,131.77c-.05.14-.09.27-.13.41-4.64,16.06,2.5,37.66,15.79,48.67,7.27,6,12.07,14.49,12.52,23.92Z"/><path class="cls-4" d="M385,366.32l-11.82,44.1A12.39,12.39,0,0,1,358,419.18L228.76,384.55A12.39,12.39,0,0,1,220,369.38l11.81-44.1A12.38,12.38,0,0,1,247,316.52L376.2,351.15A12.38,12.38,0,0,1,385,366.32Z"/><path class="cls-5" d="M385,366.32l-11.82,44.1A12.39,12.39,0,0,1,358,419.18l-64.6-17.31,18.23-68,64.6,17.31A12.38,12.38,0,0,1,385,366.32Z"/><path class="cls-6" d="M289.58,216l-11-6.34A23.89,23.89,0,0,0,246,218.45l-16.83,29.16L196.19,124.72a15.83,15.83,0,0,0-19.34-11.18l-8.1,2.17a15.82,15.82,0,0,0-11.17,19.35l-5.83-21.76a15.83,15.83,0,0,0-19.35-11.17l-8.09,2.17a15.83,15.83,0,0,0-11.17,19.35l5.55,20.7a15.84,15.84,0,0,0-19.35-11.16l-8.1,2.18A15.8,15.8,0,0,0,80.07,154.7l7.09,26.48A15.82,15.82,0,0,0,67.81,170l-8.09,2.16a15.83,15.83,0,0,0-11.17,19.35L86.47,333a55,55,0,0,0,25.72,33.49c.52.32,1.09.64,1.65.92A54.81,54.81,0,0,0,154,372l65.88-17.65a51.68,51.68,0,0,0,31.37-24.08l0-.06,47.1-81.56A23.88,23.88,0,0,0,289.58,216Z"/><path class="cls-5" d="M196.19,124.72l32.92,122.87v0l10.35,38.63a18.5,18.5,0,0,1-18.28,23.29L88,306.67l-8.66-.19-30.8-115a15.83,15.83,0,0,1,11.17-19.35L67.81,170a15.82,15.82,0,0,1,19.35,11.17L80.07,154.7a15.8,15.8,0,0,1,11.17-19.33l8.1-2.18a15.84,15.84,0,0,1,19.35,11.16l-5.55-20.7a15.83,15.83,0,0,1,11.17-19.35l8.09-2.17a15.83,15.83,0,0,1,19.35,11.17l5.83,21.76a15.82,15.82,0,0,1,11.17-19.35l8.1-2.17A15.83,15.83,0,0,1,196.19,124.72Z"/><path class="cls-4" d="M192.14,231.68,191.7,230l-26-97.14a15.79,15.79,0,0,1,11.17-19.34h0l-8.1,2.17a15.8,15.8,0,0,0-11.17,19.34l28.64,106.87S193.33,236.15,192.14,231.68Z"/><path class="cls-4" d="M115.54,254.69l-.44-1.64L88.18,152.55a15.78,15.78,0,0,1,11.16-19.34h0l-8.09,2.17a15.78,15.78,0,0,0-11.17,19.34L109.62,265S116.74,259.16,115.54,254.69Z"/><path class="cls-4" d="M151.27,233.61l-.44-1.64-29.6-110.49a15.79,15.79,0,0,1,11.17-19.34h0l-8.1,2.17a15.8,15.8,0,0,0-11.17,19.34l32.22,120.22S152.47,238.08,151.27,233.61Z"/><path class="cls-5" d="M246,218.44l-16.84,29.18,4.68,17.46,23.28-40.33A23.82,23.82,0,0,1,289.6,216l-11-6.34A23.92,23.92,0,0,0,246,218.44Z"/><path class="cls-5" d="M153.92,372a54.8,54.8,0,0,1-39.21-4.13l-.41-.2c-.19-.09-.38-.16-.56-.26v0A55,55,0,0,1,86.39,333L48.47,191.47a15.81,15.81,0,0,1,11.17-19.34l8.1-2.17h0A15.79,15.79,0,0,0,56.57,189.3L91.88,321.08c0,.14.06.28.1.42,4,16.22,21,31.36,38,34.25,9.31,1.58,17.7,6.51,22.8,14.45Z"/><path class="cls-4" d="M66.35,170.4a15.8,15.8,0,0,0-9.78,18.9L88,306.67l-8.66-.19-30.8-115a15.83,15.83,0,0,1,11.17-19.35Z"/><path class="cls-4" d="M265.46,350.05l11.82,44.09a12.4,12.4,0,0,1-8.76,15.18L139.3,443.94a12.39,12.39,0,0,1-15.17-8.76l-11.82-44.1a12.38,12.38,0,0,1,8.76-15.17l129.22-34.62A12.38,12.38,0,0,1,265.46,350.05Z"/><path class="cls-5" d="M265.46,350.05l11.82,44.09a12.4,12.4,0,0,1-8.76,15.18l-64.6,17.31-18.23-68,64.6-17.31A12.38,12.38,0,0,1,265.46,350.05Z"/></svg>