<svg id="_50" data-name="50" xmlns="http://www.w3.org/2000/svg" viewBox="0 0 512 512"><defs><style>.cls-1{fill:#29a3fb;}.cls-2{fill:#f39e22;}.cls-3{fill:#f9c744;}.cls-4{fill:#fad98f;}.cls-5{fill:#f4e6f4;}.cls-6{fill:#fff;}.cls-7{fill:#ea792e;}</style></defs><title>50-soccer-icons</title><circle class="cls-1" cx="256" cy="256" r="256"/><path class="cls-2" d="M384.69,83.36V279.19A114.86,114.86,0,0,1,269.83,394.05H242.17A114.86,114.86,0,0,1,127.31,279.19V83.36A22,22,0,0,1,162.24,65.5l16.51,11.91a22,22,0,0,0,25.81,0l38.53-27.84a22.07,22.07,0,0,1,25.82,0l38.53,27.84a22,22,0,0,0,25.81,0L349.76,65.5A22,22,0,0,1,384.69,83.36Z"/><path class="cls-3" d="M384.69,83.36V279.19A114.86,114.86,0,0,1,269.83,394.05H256V45.4a21.93,21.93,0,0,1,12.91,4.17l38.53,27.84a22,22,0,0,0,25.81,0L349.76,65.5A22,22,0,0,1,384.69,83.36Z"/><path class="cls-3" d="M342.94,133.41v132.3a77.6,77.6,0,0,1-77.6,77.6H246.66a77.6,77.6,0,0,1-77.6-77.6V133.41a14.89,14.89,0,0,1,23.61-12.07l11.13,8a14.89,14.89,0,0,0,17.44,0l26-18.8a14.86,14.86,0,0,1,17.42,0l26.05,18.8a14.89,14.89,0,0,0,17.44,0l11.13-8A14.89,14.89,0,0,1,342.94,133.41Z"/><path class="cls-4" d="M342.94,133.41v132.3a77.6,77.6,0,0,1-77.6,77.6H256V107.77a14.76,14.76,0,0,1,8.71,2.82l26.05,18.8a14.89,14.89,0,0,0,17.44,0l11.13-8A14.89,14.89,0,0,1,342.94,133.41Z"/><path class="cls-5" d="M309.12,107.21l-9.64,7L274.92,96.46a32.27,32.27,0,0,0-37.86,0l-24.54,17.71-9.64-7c-21-15.52-51.48.16-51.26,26.21V265.71a95.15,95.15,0,0,0,95,95h18.68a95.15,95.15,0,0,0,95-95V133.42C360.59,107.39,330.14,91.67,309.12,107.21ZM343,265.71a77.62,77.62,0,0,1-77.61,77.6H246.66a77.62,77.62,0,0,1-77.61-77.6V133.42A14.92,14.92,0,0,1,184,118.49a14.73,14.73,0,0,1,8.67,2.85l11.14,8a14.88,14.88,0,0,0,17.44,0l26-18.8a14.89,14.89,0,0,1,17.44,0l26,18.8a14.88,14.88,0,0,0,17.44,0l11.14-8a14.73,14.73,0,0,1,8.67-2.85A14.92,14.92,0,0,1,343,133.42Z"/><path class="cls-6" d="M360.38,133.42V265.71a95.15,95.15,0,0,1-95,95H256V343.31h9.34A77.62,77.62,0,0,0,343,265.71V133.42A14.92,14.92,0,0,0,328,118.49a14.73,14.73,0,0,0-8.67,2.85l-11.14,8a14.88,14.88,0,0,1-17.44,0l-26-18.8a14.89,14.89,0,0,0-8.72-2.82V90.33a32.07,32.07,0,0,1,18.92,6.13l24.56,17.72,9.64-7C330.14,91.67,360.59,107.39,360.38,133.42Z"/><rect class="cls-4" x="360.38" y="133.42" width="24.31" height="145.78" rx="12.16"/><path class="cls-2" d="M319.9,255.89A63.91,63.91,0,0,1,256,319.8h0A63.91,63.91,0,0,1,256,192h0A63.9,63.9,0,0,1,319.9,255.89Z"/><path class="cls-3" d="M319.9,255.89A63.91,63.91,0,0,1,256,319.8h0V192h0A63.9,63.9,0,0,1,319.9,255.89Z"/><path class="cls-7" d="M318.55,269a64.17,64.17,0,0,0-13.43-54h0a64.21,64.21,0,0,0-21.3-16.67h0a64.27,64.27,0,0,0-55.66,0h0a64.18,64.18,0,0,0-21.36,16.75h0a64.17,64.17,0,0,0-13.35,54h0a63.38,63.38,0,0,0,7.66,19.54h0a64.21,64.21,0,0,0,46.49,30.6v0a63.81,63.81,0,0,0,17,0v0A64.26,64.26,0,0,0,311,288.46h0A63.64,63.64,0,0,0,318.55,269Zm-20.8-54.87a59,59,0,0,1,5.27,6.05l-9.18,22.67a6,6,0,0,0-.31,1.08,2.57,2.57,0,0,0-.72.11l-10.54,3.28a3,3,0,0,0-.6.28,5.9,5.9,0,0,0-.75-.66L259.51,231.4a6.45,6.45,0,0,0-.87-.52c.13-.45.13-13.9,0-14.35a5.56,5.56,0,0,0,.87-.52l19.8-14.39A58.93,58.93,0,0,1,297.75,214.14Zm-83.5,0a58.89,58.89,0,0,1,18.43-12.52l7.77,5.64h0l12,8.74a5.23,5.23,0,0,0,.84.51c-.14.5-.14,13.87,0,14.37-.14-.08-23.17,16.65-23,16.75a3,3,0,0,0-.55-.25L219.26,244a2.46,2.46,0,0,0-.84-.13,6.39,6.39,0,0,0-.29-.91l-9.22-22.65A58.31,58.31,0,0,1,214.25,214.14Zm-16.51,51.37,18.71-15.77a7.48,7.48,0,0,0,.74-.75c.42.19,11.12,3.76,11.5,3.71,0,.49,8.54,26.83,8.84,27.11a2.63,2.63,0,0,0-.35.39l-4.79,6.31a2.72,2.72,0,0,0-.39.78,6.13,6.13,0,0,0-.86,0l-24.45,1.13A58.5,58.5,0,0,1,197.74,265.51ZM256,314.93a59.22,59.22,0,0,1-10.36-.92L237,291.12a5.85,5.85,0,0,0-.52-1,2.33,2.33,0,0,0,.26-.28l4.78-6.31a2.41,2.41,0,0,0,.35-.65,5.26,5.26,0,0,0,.89.07h26.46a6,6,0,0,0,.95-.07,3,3,0,0,0,.29.52l4.53,6.48a3,3,0,0,0,.44.49c-.58,1.12-8.16,21.84-8.88,23.64A59.68,59.68,0,0,1,256,314.93Zm49.41-26.71-24.45-1a5.86,5.86,0,0,0-1.19.08c.33.24-4.83-7-4.83-7a2.6,2.6,0,0,0-.44-.49c.1.22,9-27.16,8.81-27.09.54,0,11.1-3.35,11.61-3.6a5.11,5.11,0,0,0,.62.61l18.73,15.74A58.41,58.41,0,0,1,305.41,288.22Z"/><path class="cls-2" d="M319.84,253.28c-1.11-33.93-30-61.58-63.86-61.3v91c.3,0,14.4.09,14.2-.08s4.81,7,4.82,7a2.6,2.6,0,0,0,.44.49c-.58,1.12-8.16,21.85-8.88,23.64a59.9,59.9,0,0,1-10.58.95v4.87a64.11,64.11,0,0,0,55-31.34h0A63.79,63.79,0,0,0,319.84,253.28ZM259.51,231.4a6.45,6.45,0,0,0-.87-.52c.13-.45.13-13.89,0-14.34a6.45,6.45,0,0,0,.87-.52l19.8-14.4A59.23,59.23,0,0,1,303,220.19l-9.18,22.67a6.27,6.27,0,0,0-.31,1.08,3,3,0,0,0-.72.11l-10.54,3.28a3,3,0,0,0-.6.28,6.73,6.73,0,0,0-.75-.65Zm45.9,56.83L281,287.18a5.66,5.66,0,0,0-1.17.08c0-.2-4.85-7-4.85-7a3,3,0,0,0-.44-.49c.1.23,9-27.15,8.81-27.09.54,0,11.1-3.35,11.61-3.59a6,6,0,0,0,.62.61l18.73,15.73A58.45,58.45,0,0,1,305.41,288.23Z"/><path class="cls-2" d="M274.11,155.75l-8,5.84a3.43,3.43,0,0,0-1.25,3.83l3.07,9.46a1.19,1.19,0,0,1-1.83,1.33l-8-5.84a3.42,3.42,0,0,0-4,0l-8,5.84a1.19,1.19,0,0,1-1.83-1.33l3.07-9.46a3.43,3.43,0,0,0-1.25-3.83l-8-5.84a1.2,1.2,0,0,1,.7-2.17h9.94a3.42,3.42,0,0,0,3.26-2.37l3.07-9.45a1.2,1.2,0,0,1,2.28,0l3.07,9.45a3.42,3.42,0,0,0,3.26,2.37h9.94A1.2,1.2,0,0,1,274.11,155.75Z"/><path class="cls-7" d="M274.11,155.75l-8,5.84a3.43,3.43,0,0,0-1.25,3.83l3.07,9.46a1.19,1.19,0,0,1-1.83,1.33l-8-5.84a3.41,3.41,0,0,0-2-.66V140.94a1.17,1.17,0,0,1,1.14.82l3.07,9.45a3.42,3.42,0,0,0,3.26,2.37h9.94A1.2,1.2,0,0,1,274.11,155.75Z"/><path class="cls-2" d="M325.46,167.56l-8,5.84a3.44,3.44,0,0,0-1.25,3.84l3.07,9.45a1.19,1.19,0,0,1-1.83,1.33l-8-5.84a3.46,3.46,0,0,0-4,0l-8,5.84a1.19,1.19,0,0,1-1.83-1.33l3.07-9.45a3.44,3.44,0,0,0-1.25-3.84l-8-5.84a1.2,1.2,0,0,1,.7-2.16h9.94a3.44,3.44,0,0,0,3.27-2.37l3.07-9.46a1.16,1.16,0,0,1,1.13-.82,1.17,1.17,0,0,1,1.14.82l3.07,9.46a3.43,3.43,0,0,0,3.26,2.37h9.94A1.19,1.19,0,0,1,325.46,167.56Z"/><path class="cls-7" d="M325.46,167.56l-8,5.84a3.44,3.44,0,0,0-1.25,3.84l3.07,9.45a1.19,1.19,0,0,1-1.83,1.33l-8-5.84a3.4,3.4,0,0,0-2-.65V152.75a1.17,1.17,0,0,1,1.14.82l3.07,9.46a3.43,3.43,0,0,0,3.26,2.37h9.94A1.19,1.19,0,0,1,325.46,167.56Z"/><path class="cls-2" d="M222.76,167.56l-8,5.84a3.44,3.44,0,0,0-1.25,3.84l3.07,9.45a1.19,1.19,0,0,1-1.83,1.33l-8-5.84a3.46,3.46,0,0,0-4,0l-8,5.84a1.19,1.19,0,0,1-1.83-1.33l3.07-9.45a3.44,3.44,0,0,0-1.25-3.84l-8-5.84a1.19,1.19,0,0,1,.7-2.16h9.94a3.43,3.43,0,0,0,3.26-2.37l3.07-9.46a1.17,1.17,0,0,1,1.14-.82,1.16,1.16,0,0,1,1.13.82l3.07,9.46a3.44,3.44,0,0,0,3.27,2.37h9.94A1.2,1.2,0,0,1,222.76,167.56Z"/><path class="cls-7" d="M222.76,167.56l-8,5.84a3.44,3.44,0,0,0-1.25,3.84l3.07,9.45a1.19,1.19,0,0,1-1.83,1.33l-8-5.84a3.4,3.4,0,0,0-2-.65V152.75a1.16,1.16,0,0,1,1.13.82l3.07,9.46a3.44,3.44,0,0,0,3.27,2.37h9.94A1.2,1.2,0,0,1,222.76,167.56Z"/><path class="cls-4" d="M324.53,469a4.21,4.21,0,0,1-3-7.18l97.59-97.59a71.34,71.34,0,0,0,21-50.79V149.25a4.21,4.21,0,1,1,8.41,0V313.46a79.69,79.69,0,0,1-23.5,56.74L327.5,467.79A4.2,4.2,0,0,1,324.53,469Z"/><path class="cls-3" d="M390.48,389.82h-4.27a14.34,14.34,0,0,1-13.72-18.51l9.8-32.32a6.33,6.33,0,0,1,12.11,0l9.81,32.32A14.35,14.35,0,0,1,390.48,389.82Z"/><path class="cls-3" d="M452.45,280.7l-2.56-2.56a12.15,12.15,0,0,1,2.87-19.31L478,245.33a5.36,5.36,0,0,1,7.26,7.26l-13.49,25.25A12.16,12.16,0,0,1,452.45,280.7Z"/><path class="cls-3" d="M452.31,209.44,450,207.17A10.79,10.79,0,0,1,452.58,190l22.4-12a4.76,4.76,0,0,1,6.44,6.44l-12,22.4A10.79,10.79,0,0,1,452.31,209.44Z"/><path class="cls-3" d="M446,165.54h-3.21a10.79,10.79,0,0,1-10.32-13.92l7.37-24.3a4.76,4.76,0,0,1,9.11,0l7.37,24.3A10.79,10.79,0,0,1,446,165.54Z"/><path class="cls-3" d="M438.66,242.83l-2.56,2.56a12.16,12.16,0,0,1-19.32-2.86l-13.49-25.25a5.37,5.37,0,0,1,7.26-7.26l25.24,13.5A12.15,12.15,0,0,1,438.66,242.83Z"/><path class="cls-3" d="M436.45,321l-3.13,2a12.43,12.43,0,0,1-18.62-7.18l-7.81-28.2a5.48,5.48,0,0,1,8.86-5.62l22.16,19.11A12.43,12.43,0,0,1,436.45,321Z"/><path class="cls-3" d="M369.45,432.9v-4.27A14.34,14.34,0,0,1,388,414.9l32.32,9.8a6.33,6.33,0,0,1,0,12.12L388,446.62A14.34,14.34,0,0,1,369.45,432.9Z"/><path class="cls-3" d="M436.39,367l-1.33-3.75a13.37,13.37,0,0,1,12-17.81L478.48,344a5.9,5.9,0,0,1,3.76,10.64l-25.33,18.66A13.36,13.36,0,0,1,436.39,367Z"/><path class="cls-3" d="M187.47,469a4.21,4.21,0,0,0,3-7.18L92.86,364.25a71.34,71.34,0,0,1-21-50.79V149.25a4.21,4.21,0,1,0-8.41,0V313.46a79.69,79.69,0,0,0,23.5,56.74l97.59,97.59A4.2,4.2,0,0,0,187.47,469Z"/><path class="cls-2" d="M121.52,389.82h4.27a14.34,14.34,0,0,0,13.72-18.51L129.71,339a6.33,6.33,0,0,0-12.11,0l-9.81,32.32A14.35,14.35,0,0,0,121.52,389.82Z"/><path class="cls-2" d="M59.55,280.7l2.56-2.56a12.15,12.15,0,0,0-2.87-19.31L34,245.33a5.36,5.36,0,0,0-7.26,7.26l13.49,25.25A12.16,12.16,0,0,0,59.55,280.7Z"/><path class="cls-2" d="M59.69,209.44,62,207.17A10.79,10.79,0,0,0,59.42,190l-22.4-12a4.76,4.76,0,0,0-6.44,6.44l12,22.4A10.79,10.79,0,0,0,59.69,209.44Z"/><path class="cls-2" d="M66,165.54h3.21a10.79,10.79,0,0,0,10.32-13.92l-7.37-24.3a4.76,4.76,0,0,0-9.11,0l-7.37,24.3A10.79,10.79,0,0,0,66,165.54Z"/><path class="cls-2" d="M73.34,242.83l2.56,2.56a12.16,12.16,0,0,0,19.32-2.86l13.49-25.25a5.37,5.37,0,0,0-7.26-7.26l-25.24,13.5A12.15,12.15,0,0,0,73.34,242.83Z"/><path class="cls-2" d="M75.55,321l3.13,2a12.43,12.43,0,0,0,18.62-7.18l7.81-28.2A5.48,5.48,0,0,0,96.25,282L74.09,301.13A12.43,12.43,0,0,0,75.55,321Z"/><path class="cls-2" d="M142.55,432.9v-4.27a14.34,14.34,0,0,0-18.5-13.73l-32.32,9.8a6.33,6.33,0,0,0,0,12.12l32.32,9.8A14.34,14.34,0,0,0,142.55,432.9Z"/><path class="cls-2" d="M75.61,367l1.33-3.75A13.37,13.37,0,0,0,65,345.4L33.52,344a5.9,5.9,0,0,0-3.76,10.64l25.33,18.66A13.36,13.36,0,0,0,75.61,367Z"/></svg>