<svg id="_50" data-name="50" xmlns="http://www.w3.org/2000/svg" viewBox="0 0 512 512"><defs><style>.cls-1{fill:#7ed0fc;}.cls-2{fill:#6052a3;}.cls-3{fill:#7063ce;}.cls-4{fill:#dd5e26;}.cls-5{fill:#ea792e;}.cls-6{fill:#f9c744;}.cls-7{fill:#9b5b42;}.cls-8{fill:#8e4e3f;}.cls-9{fill:#723e33;}.cls-10{fill:#442a21;}.cls-11{fill:#334353;}.cls-12{fill:#543029;}.cls-13{fill:#f5b890;}.cls-14{fill:#d48d77;}.cls-15{fill:#c17e62;}.cls-16{fill:#b26e2b;}.cls-17{fill:#eea47d;}.cls-18{fill:#dd8c29;}.cls-19{fill:#f39e22;}.cls-20{fill:#fff;}.cls-21{fill:#ffccd7;}.cls-22{fill:#fbd9a3;}.cls-23{fill:#fad98f;}.cls-24{fill:#faefdc;}.cls-25{fill:#cde6f6;}</style></defs><title>50-soccer-icons</title><circle class="cls-1" cx="256" cy="256" r="256"/><path class="cls-2" d="M303.2,478.22v30q-9.87,1.72-20,2.68Q271.25,512,259,512a257.46,257.46,0,0,1-39.81-3.08v-30.7Z"/><path class="cls-3" d="M283.19,478.22v32.65Q271.25,512,259,512a257.46,257.46,0,0,1-39.81-3.08v-30.7Z"/><path class="cls-4" d="M303.19,478.22v-79.1a31.25,31.25,0,0,0-31.26-31.26H250.44a31.26,31.26,0,0,0-31.26,31.26v79.1Z"/><path class="cls-5" d="M219.18,478.22v-79.1a31.26,31.26,0,0,1,31.26-31.26h1.48a31.26,31.26,0,0,1,31.27,31.26v79.1Z"/><path class="cls-6" d="M280.81,420.19l-4.49,3.32a5.9,5.9,0,0,1-7,0l-4.48-3.32a5.88,5.88,0,0,1-2.39-4.73V401.54a3.84,3.84,0,0,1,3.84-3.84h13.05a3.84,3.84,0,0,1,3.84,3.84v13.92A5.87,5.87,0,0,1,280.81,420.19Z"/><path class="cls-4" d="M357.94,296.84c0,22.49-4.65,47.51-11.07,59.49-7.8,14.58-37,34.79-42.79,38.69a11.48,11.48,0,0,1-15.92-3.08A11.92,11.92,0,0,1,287.1,390a11.46,11.46,0,0,1,4.14-14c12.07-8.16,31.67-23.5,35.43-30.52,4-7.53,8.35-28.89,8.35-48.67A11.48,11.48,0,0,1,351,286.28h0A11.47,11.47,0,0,1,357.94,296.84Z"/><path class="cls-5" d="M351.87,290.76c0,22.49-4.66,47.52-11.07,59.49C333,364.83,303.77,385,298,388.94A11.4,11.4,0,0,1,287.1,390a11.46,11.46,0,0,1,4.14-14c12.07-8.16,31.67-23.5,35.43-30.52,4-7.53,8.35-28.89,8.35-48.67A11.48,11.48,0,0,1,351,286.28h0A11.49,11.49,0,0,1,351.87,290.76Z"/><path class="cls-7" d="M330.82,295.24a11,11,0,0,0,7.8,3.23h14.54a11.7,11.7,0,0,0,8-3.17,2.54,2.54,0,0,0,.29-.28,11.69,11.69,0,0,0,3.45-8.31v-21.6a3.38,3.38,0,0,0-3.37-3.37h-1.79a3.37,3.37,0,0,0-3.37,3.37V255.3a3.37,3.37,0,0,0-3.37-3.36h-1.79a3.36,3.36,0,0,0-3.36,3.36V250a3.38,3.38,0,0,0-3.37-3.37h-1.79a3.38,3.38,0,0,0-3.37,3.37v4.8a3.37,3.37,0,0,0-3.37-3.36h-1.79a3.38,3.38,0,0,0-3.37,3.36V277l-5.07-5.08a5.1,5.1,0,0,0-7.21,0l-1.91,1.91a5.08,5.08,0,0,0,0,7.21l14.2,14.21Z"/><path class="cls-8" d="M337.56,271.66V254.8a3.36,3.36,0,0,0-3.36-3.37H336a3.37,3.37,0,0,1,3.37,3.37v18.64S337.56,272.64,337.56,271.66Z"/><path class="cls-8" d="M354.61,272.17V255.31a3.37,3.37,0,0,0-3.37-3.37H353a3.37,3.37,0,0,1,3.37,3.37V274S354.61,273.16,354.61,272.17Z"/><path class="cls-8" d="M346.09,269.8V250a3.37,3.37,0,0,0-3.37-3.37h1.79a3.37,3.37,0,0,1,3.37,3.37v21.6S346.09,270.79,346.09,269.8Z"/><path class="cls-8" d="M325.75,271.9l5.08,5.08v3.86l-7-7a5.08,5.08,0,0,0-7.18,0l1.92-1.91A5.1,5.1,0,0,1,325.75,271.9Z"/><path class="cls-8" d="M353.18,298.45a11.65,11.65,0,0,0,7.85-3l.08-.07.1-.08h0a11.72,11.72,0,0,0,3.74-8.59v-21.6a3.37,3.37,0,0,0-3.37-3.37h-1.79a3.37,3.37,0,0,1,3.37,3.37v19.54a10.72,10.72,0,0,1-5.93,9.15,7.1,7.1,0,0,0-3.9,4.24Z"/><path class="cls-4" d="M160.06,296.84c0,22.49,4.65,47.51,11.07,59.49,7.8,14.58,37,34.79,42.79,38.69a11.48,11.48,0,0,0,15.92-3.08A11.92,11.92,0,0,0,230.9,390a11.46,11.46,0,0,0-4.14-14c-12.07-8.16-31.67-23.5-35.43-30.52-4-7.53-8.35-28.89-8.35-48.67a11.48,11.48,0,0,0-15.93-10.56h0A11.47,11.47,0,0,0,160.06,296.84Z"/><path class="cls-5" d="M166.13,290.76c0,22.49,4.66,47.52,11.07,59.49,7.81,14.58,37,34.79,42.81,38.69A11.4,11.4,0,0,0,230.9,390a11.46,11.46,0,0,0-4.14-14c-12.07-8.16-31.67-23.5-35.43-30.52-4-7.53-8.35-28.89-8.35-48.67a11.48,11.48,0,0,0-15.93-10.56h0A11.49,11.49,0,0,0,166.13,290.76Z"/><path class="cls-7" d="M187.17,295.23,201.37,281a5.08,5.08,0,0,0,0-7.21l-1.91-1.91a5.1,5.1,0,0,0-7.21,0L187.18,277V254.79a3.38,3.38,0,0,0-3.37-3.36H182a3.37,3.37,0,0,0-3.37,3.36V250a3.38,3.38,0,0,0-3.37-3.37h-1.79a3.38,3.38,0,0,0-3.37,3.37v5.31a3.36,3.36,0,0,0-3.36-3.36H165a3.37,3.37,0,0,0-3.37,3.36v9.81a3.37,3.37,0,0,0-3.37-3.37h-1.79a3.38,3.38,0,0,0-3.37,3.37v21.6a11.69,11.69,0,0,0,3.45,8.31,2.54,2.54,0,0,0,.29.28,11.7,11.7,0,0,0,8,3.17h14.54a11,11,0,0,0,7.8-3.23Z"/><path class="cls-8" d="M180.44,271.66V254.8a3.36,3.36,0,0,1,3.36-3.37H182a3.37,3.37,0,0,0-3.37,3.37v18.64S180.44,272.64,180.44,271.66Z"/><path class="cls-8" d="M163.39,272.17V255.31a3.37,3.37,0,0,1,3.37-3.37H165a3.37,3.37,0,0,0-3.37,3.37V274S163.39,273.16,163.39,272.17Z"/><path class="cls-8" d="M171.91,269.8V250a3.37,3.37,0,0,1,3.37-3.37h-1.79a3.37,3.37,0,0,0-3.37,3.37v21.6S171.91,270.79,171.91,269.8Z"/><path class="cls-8" d="M192.25,271.9,187.17,277v3.86l7-7a5.08,5.08,0,0,1,7.18,0l-1.92-1.91A5.1,5.1,0,0,0,192.25,271.9Z"/><path class="cls-8" d="M164.82,298.45a11.65,11.65,0,0,1-7.85-3l-.08-.07-.1-.08h0a11.72,11.72,0,0,1-3.74-8.59v-21.6a3.37,3.37,0,0,1,3.37-3.37h1.79a3.37,3.37,0,0,0-3.37,3.37v19.54a10.72,10.72,0,0,0,5.93,9.15,7.1,7.1,0,0,1,3.9,4.24Z"/><path class="cls-7" d="M247.31,354.73v15.08a13.88,13.88,0,0,0,27.76,0V354.73Z"/><path class="cls-8" d="M275.07,354.73v15.08a13.86,13.86,0,0,1-6.83,11.95V365.65a41.1,41.1,0,0,1-20.93,2.8V354.73Z"/><path class="cls-8" d="M304.14,287.91H311a0,0,0,0,1,0,0v21.54a0,0,0,0,1,0,0h-6.88a10.77,10.77,0,0,1-10.77-10.77v0A10.77,10.77,0,0,1,304.14,287.91Z" transform="translate(604.4 597.37) rotate(-180)"/><path class="cls-9" d="M298,294.06h7.23a0,0,0,0,1,0,0v9.24a0,0,0,0,1,0,0H298a4.62,4.62,0,0,1-4.62-4.62v0A4.62,4.62,0,0,1,298,294.06Z" transform="translate(598.6 597.37) rotate(180)"/><path class="cls-8" d="M208.68,287.91h3a0,0,0,0,1,0,0v21.54a0,0,0,0,1,0,0h-3a10.77,10.77,0,0,1-10.77-10.77v0A10.77,10.77,0,0,1,208.68,287.91Z"/><path class="cls-9" d="M208.33,294.06h3.36a0,0,0,0,1,0,0v9.24a0,0,0,0,1,0,0h-3.36a4.62,4.62,0,0,1-4.62-4.62v0a4.62,4.62,0,0,1,4.62-4.62Z"/><path class="cls-10" d="M219.63,287.91v6.95a15.94,15.94,0,0,1-15.94-15.94V246.54h15.94Z"/><path class="cls-8" d="M211.7,263.94v56.73a40.83,40.83,0,0,0,31.68,39.81,41.28,41.28,0,0,0,9.16,1,40.84,40.84,0,0,0,40.84-40.84V263.94A22.39,22.39,0,0,0,271,241.56H234.07a22.38,22.38,0,0,0-22.37,22.38Z"/><path class="cls-7" d="M211.7,263.94v56.73a40.83,40.83,0,0,0,31.68,39.81,40.85,40.85,0,0,0,31.69-39.81V299a57.43,57.43,0,0,0-47.24-56.52A22.38,22.38,0,0,0,211.7,263.94Z"/><rect class="cls-8" x="234.8" y="301.54" width="20.71" height="12.38" rx="6.19"/><rect class="cls-8" x="242.09" y="241.56" width="10.44" height="64.18"/><rect class="cls-11" x="257.96" y="277.32" width="11.32" height="21.19" rx="5.66" transform="translate(527.24 575.83) rotate(-180)"/><rect class="cls-11" x="225.35" y="277.32" width="11.32" height="21.19" rx="5.66" transform="translate(462.01 575.83) rotate(180)"/><path class="cls-9" d="M251.06,336.74A17.8,17.8,0,0,0,268.83,319a3.36,3.36,0,1,0-6.71,0A11.07,11.07,0,0,1,251.06,330a3.36,3.36,0,0,0,0,6.72Z"/><path class="cls-10" d="M293.37,309.45h6.89a10.61,10.61,0,0,0,3.44-.57v2.87a10.35,10.35,0,0,1-10.35,10.35Z"/><path class="cls-10" d="M293.37,287.89h6.89a10.38,10.38,0,0,1,3.26.56h.18V260.27A23.68,23.68,0,0,0,280,236.6H252.54v5.91a14,14,0,0,0,14,14h0a8.55,8.55,0,0,1,8.56,8.55v5a17.82,17.82,0,0,0,17.82,17.82l.48,0Z"/><rect class="cls-12" x="199.53" y="236.6" width="78.61" height="19.89" rx="9.94"/><path class="cls-4" d="M139.75,435.5v48.64q-10.29-5.25-20-11.38A257.21,257.21,0,0,1,59.68,420.3,31.21,31.21,0,0,1,87,404.23h21.48A31.26,31.26,0,0,1,139.75,435.5Z"/><path class="cls-5" d="M119.74,435.5v37.26A257.21,257.21,0,0,1,59.68,420.3,31.21,31.21,0,0,1,87,404.23h1.48A31.26,31.26,0,0,1,119.74,435.5Z"/><path class="cls-6" d="M117.36,456.56l-4.49,3.32a5.88,5.88,0,0,1-7,0l-4.49-3.32A5.86,5.86,0,0,1,99,451.84V437.91a3.84,3.84,0,0,1,3.85-3.84h13a3.84,3.84,0,0,1,3.84,3.84v13.93A5.85,5.85,0,0,1,117.36,456.56Z"/><path class="cls-13" d="M83.86,391.1v15.08a13.88,13.88,0,1,0,27.76,0V391.1Z"/><path class="cls-14" d="M111.62,391.1v15.08a13.87,13.87,0,0,1-6.83,12V402a40.58,40.58,0,0,1-15.7,3.13,42.83,42.83,0,0,1-5.23-.32V391.1Z"/><path class="cls-14" d="M140.7,324.29h6.88a0,0,0,0,1,0,0v21.54a0,0,0,0,1,0,0H140.7a10.77,10.77,0,0,1-10.77-10.77v0A10.77,10.77,0,0,1,140.7,324.29Z" transform="translate(277.51 670.11) rotate(180)"/><path class="cls-15" d="M134.55,330.43h7.23a0,0,0,0,1,0,0v9.24a0,0,0,0,1,0,0h-7.23a4.62,4.62,0,0,1-4.62-4.62v0A4.62,4.62,0,0,1,134.55,330.43Z" transform="translate(271.71 670.11) rotate(180)"/><path class="cls-14" d="M45.23,324.29h3a0,0,0,0,1,0,0v21.54a0,0,0,0,1,0,0h-3a10.77,10.77,0,0,1-10.77-10.77v0a10.77,10.77,0,0,1,10.77-10.77Z"/><path class="cls-15" d="M44.89,330.43h3.36a0,0,0,0,1,0,0v9.24a0,0,0,0,1,0,0H44.89a4.62,4.62,0,0,1-4.62-4.62v0a4.62,4.62,0,0,1,4.62-4.62Z"/><path class="cls-16" d="M56.18,324.29v6.94A15.93,15.93,0,0,1,40.25,315.3V282.91H56.18Z"/><path class="cls-14" d="M48.25,300.31v56.74a40.83,40.83,0,0,0,31.68,39.8,41.28,41.28,0,0,0,9.16,1,40.84,40.84,0,0,0,40.84-40.83V300.31a22.39,22.39,0,0,0-22.39-22.38H70.63a21.91,21.91,0,0,0-6.25.9A22.36,22.36,0,0,0,48.25,300.31Z"/><path class="cls-13" d="M48.25,300.31v56.74a40.83,40.83,0,0,0,31.68,39.8,40.84,40.84,0,0,0,31.69-39.8V335.34a57.42,57.42,0,0,0-47.24-56.51A22.36,22.36,0,0,0,48.25,300.31Z"/><rect class="cls-17" x="71.35" y="337.91" width="20.71" height="12.38" rx="6.19" transform="translate(163.41 688.2) rotate(180)"/><rect class="cls-17" x="78.64" y="277.93" width="10.44" height="64.18" transform="translate(167.73 620.04) rotate(-180)"/><rect class="cls-11" x="94.51" y="313.69" width="11.32" height="21.19" rx="5.66" transform="translate(200.34 648.57) rotate(180)"/><rect class="cls-11" x="61.9" y="313.69" width="11.32" height="21.19" rx="5.66" transform="translate(135.12 648.57) rotate(-180)"/><path class="cls-15" d="M87.61,373.11a17.8,17.8,0,0,0,17.78-17.78,3.36,3.36,0,0,0-6.72,0,11.07,11.07,0,0,1-11.06,11.06,3.36,3.36,0,1,0,0,6.72Z"/><path class="cls-16" d="M129.93,345.83h6.88a10.88,10.88,0,0,0,3.44-.57v2.87a10.34,10.34,0,0,1-10.34,10.34Z"/><path class="cls-16" d="M129.93,324.26h6.88a10.62,10.62,0,0,1,3.26.56h.18V296.65A23.68,23.68,0,0,0,116.57,273H89.09v5.91a14,14,0,0,0,14,14h0a8.56,8.56,0,0,1,8.56,8.56v5a17.82,17.82,0,0,0,17.82,17.82l.49,0Z"/><rect class="cls-18" x="36.08" y="272.97" width="78.61" height="19.89" rx="9.94"/><path class="cls-4" d="M436.13,404.23H414.64a31.26,31.26,0,0,0-31.26,31.27v42.6a256.33,256.33,0,0,0,43.28-31.28q6.85-6.15,13.26-12.75,3.25-3.35,6.37-6.82,6.12-6.79,11.76-14A31.1,31.1,0,0,0,436.13,404.23Z"/><path class="cls-5" d="M446.29,427.25q-3.12,3.47-6.37,6.82-6.39,6.6-13.26,12.75a256.33,256.33,0,0,1-43.28,31.28V435.5a31.26,31.26,0,0,1,31.26-31.27h1.48A31.28,31.28,0,0,1,446.29,427.25Z"/><path class="cls-6" d="M439.92,434.07q-6.39,6.6-13.26,12.75v-8.91a3.84,3.84,0,0,1,3.84-3.84Z"/><path class="cls-13" d="M411.51,391.1v15.08a13.88,13.88,0,1,0,27.76,0V391.1Z"/><path class="cls-14" d="M439.27,391.1v15.08a13.89,13.89,0,0,1-6.83,12V402a40.61,40.61,0,0,1-15.7,3.13,42.83,42.83,0,0,1-5.23-.32V391.1Z"/><path class="cls-14" d="M468.34,324.29h6.88a0,0,0,0,1,0,0v21.54a0,0,0,0,1,0,0h-6.88a10.77,10.77,0,0,1-10.77-10.77v0A10.77,10.77,0,0,1,468.34,324.29Z" transform="translate(932.8 670.11) rotate(180)"/><path class="cls-15" d="M462.2,330.43h7.23a0,0,0,0,1,0,0v9.24a0,0,0,0,1,0,0H462.2a4.62,4.62,0,0,1-4.62-4.62v0A4.62,4.62,0,0,1,462.2,330.43Z" transform="translate(927 670.11) rotate(180)"/><path class="cls-14" d="M372.88,324.29h3a0,0,0,0,1,0,0v21.54a0,0,0,0,1,0,0h-3a10.77,10.77,0,0,1-10.77-10.77v0A10.77,10.77,0,0,1,372.88,324.29Z"/><path class="cls-15" d="M372.53,330.43h3.36a0,0,0,0,1,0,0v9.24a0,0,0,0,1,0,0h-3.36a4.62,4.62,0,0,1-4.62-4.62v0A4.62,4.62,0,0,1,372.53,330.43Z"/><path class="cls-14" d="M375.9,300.31v56.74a40.83,40.83,0,0,0,31.68,39.8,41.28,41.28,0,0,0,9.16,1,40.84,40.84,0,0,0,40.84-40.83V300.31a22.39,22.39,0,0,0-22.39-22.38H398.27a21.84,21.84,0,0,0-6.24.9A22.36,22.36,0,0,0,375.9,300.31Z"/><path class="cls-13" d="M375.9,300.31v56.74a40.83,40.83,0,0,0,31.68,39.8,40.84,40.84,0,0,0,31.69-39.8V335.34A57.42,57.42,0,0,0,392,278.83,22.36,22.36,0,0,0,375.9,300.31Z"/><rect class="cls-17" x="399" y="337.91" width="20.71" height="12.38" rx="6.19" transform="translate(818.7 688.2) rotate(180)"/><path class="cls-17" d="M406.29,300.59h10.44a0,0,0,0,1,0,0v36.3a5.22,5.22,0,0,1-5.22,5.22h0a5.22,5.22,0,0,1-5.22-5.22v-36.3A0,0,0,0,1,406.29,300.59Z" transform="translate(823.03 642.7) rotate(-180)"/><rect class="cls-11" x="422.16" y="313.69" width="11.32" height="21.19" rx="5.66" transform="translate(855.64 648.57) rotate(180)"/><rect class="cls-11" x="389.55" y="313.69" width="11.32" height="21.19" rx="5.66" transform="translate(790.41 648.57) rotate(-180)"/><path class="cls-15" d="M415.26,373.11A17.79,17.79,0,0,0,433,355.33a3.36,3.36,0,0,0-6.71,0,11.07,11.07,0,0,1-11.06,11.06,3.36,3.36,0,0,0,0,6.72Z"/><path class="cls-5" d="M223.36,112.29V98.88c-3.6.3-11,.37-14.48.8-12.27,1.29-13.41,15.68-12.57,25.45,1.92,16.4,22.25,18.37,35.39,17.87l-.21-6.92c-7.93-.47-17-1.36-23.2-6.67-3.57-3.34-2.56-8.72-2.08-12.94v0a6.17,6.17,0,0,1,6.22-4.54Z"/><path class="cls-19" d="M315.69,125.13c-1.91,16.4-22.25,18.37-35.39,17.87l.21-6.92c7.93-.47,17-1.36,23.2-6.67,3.57-3.34,2.56-8.72,2.08-12.94,0,0,0,0,0,0a6.18,6.18,0,0,0-6.22-4.55l-10.92.42V98.88c1.48.12,3.58.21,5.8.3,3.2.12,6.61.25,8.68.5,7.3.77,10.66,6.16,12,12.46A45.16,45.16,0,0,1,315.69,125.13Z"/><path class="cls-6" d="M315.12,112.14a17.73,17.73,0,0,1-20.68-13c3.2.12,6.61.25,8.68.5C310.42,100.45,313.78,105.84,315.12,112.14Z"/><path class="cls-19" d="M196.88,112.14a17.75,17.75,0,0,0,20.69-13c-3.2.12-6.62.25-8.68.5C201.59,100.45,198.23,105.84,196.88,112.14Z"/><path class="cls-5" d="M272,155.87v8a6.41,6.41,0,0,1-6.41,6.41H246.46a6.42,6.42,0,0,1-6.42-6.41v-8Z"/><path class="cls-19" d="M272,155.87v8a6.41,6.41,0,0,1-6.41,6.41H256v-14.4Z"/><rect class="cls-19" x="247.84" y="170.27" width="16.32" height="18"/><rect class="cls-6" x="256" y="170.27" width="8.16" height="18"/><path class="cls-4" d="M282.89,199.67v20.59H229.11V199.67a11.4,11.4,0,0,1,11.4-11.4h31A11.4,11.4,0,0,1,282.89,199.67Z"/><path class="cls-5" d="M282.89,199.67v20.59H256v-32h15.49A11.4,11.4,0,0,1,282.89,199.67Z"/><rect class="cls-19" x="225.31" y="214.89" width="61.38" height="10.75" rx="2.96"/><path class="cls-6" d="M286.69,217.85v4.82a3,3,0,0,1-3,3H256V214.89h27.73A3,3,0,0,1,286.69,217.85Z"/><rect class="cls-20" x="274.27" y="200.06" width="5.15" height="5.15" rx="1.53"/><rect class="cls-21" x="232.58" y="200.06" width="5.15" height="5.15" rx="1.53"/><rect class="cls-22" x="241.82" y="195.71" width="28.36" height="13.86" rx="2.91"/><path class="cls-20" d="M256,195.71h11.27a2.91,2.91,0,0,1,2.91,2.91v8a2.91,2.91,0,0,1-2.91,2.91H256a0,0,0,0,1,0,0V195.71A0,0,0,0,1,256,195.71Z"/><path class="cls-19" d="M288.64,90.9v40.73a27.26,27.26,0,0,1-27.26,27.26H250.62a27.27,27.27,0,0,1-27.26-27.26V90.9a5.25,5.25,0,0,1,5.24-5.24h54.8A5.24,5.24,0,0,1,288.64,90.9Z"/><path class="cls-6" d="M288.64,90.9v29.75a27.26,27.26,0,0,1-27.26,27.26H250.62a27.27,27.27,0,0,1-27.26-27.26V90.9a5.25,5.25,0,0,1,5.24-5.24h54.8A5.24,5.24,0,0,1,288.64,90.9Z"/><path class="cls-6" d="M288.64,90.9v40.73a27.26,27.26,0,0,1-27.26,27.26H256V85.66h27.4A5.24,5.24,0,0,1,288.64,90.9Z"/><path class="cls-23" d="M288.64,90.9v29.75a27.26,27.26,0,0,1-27.26,27.26H256V85.66h27.4A5.24,5.24,0,0,1,288.64,90.9Z"/><rect class="cls-24" x="271.96" y="96.27" width="10.93" height="32.97" rx="5.46"/><rect class="cls-19" x="218.86" y="79.16" width="74.29" height="13.01" rx="3.59"/><path class="cls-6" d="M293.14,82.75v5.83a3.58,3.58,0,0,1-3.58,3.58H256v-13h33.56A3.58,3.58,0,0,1,293.14,82.75Z"/><rect class="cls-23" x="258.98" y="79.16" width="29.66" height="7.45" rx="3.72"/><polygon class="cls-5" points="275.56 79.16 236.44 79.16 245.88 53.67 266.13 53.67 275.56 79.16"/><polygon class="cls-19" points="275.56 79.16 255.99 79.16 255.99 53.67 266.13 53.67 275.56 79.16"/><path class="cls-19" d="M286.15,35.36A30.15,30.15,0,0,1,256,65.51h0A30.16,30.16,0,0,1,256,5.2h0A30.15,30.15,0,0,1,286.15,35.36Z"/><path class="cls-6" d="M286.15,35.36A30.15,30.15,0,0,1,256,65.51h0V5.2h0A30.15,30.15,0,0,1,286.15,35.36Z"/><path class="cls-4" d="M285.52,41.55a30.3,30.3,0,0,0-6.34-25.48h0a30.3,30.3,0,0,0-10.05-7.86h0a30.37,30.37,0,0,0-26.26,0h0a30.29,30.29,0,0,0-10.08,7.9h0a30.25,30.25,0,0,0-6.3,25.49h0a29.9,29.9,0,0,0,3.61,9.22h0A30.3,30.3,0,0,0,252,65.25h0a29.58,29.58,0,0,0,8,0h0A30.34,30.34,0,0,0,282,50.73h0a30.12,30.12,0,0,0,3.58-9.18ZM275.7,15.66a29,29,0,0,1,2.49,2.85l-4.33,10.7a2.46,2.46,0,0,0-.15.51,1.33,1.33,0,0,0-.34.05l-5,1.55a1.51,1.51,0,0,0-.29.13,2.67,2.67,0,0,0-.35-.31l-10.1-7.34a3.38,3.38,0,0,0-.41-.24c.06-.21.06-6.56,0-6.77a2.5,2.5,0,0,0,.41-.25L267,9.75A27.85,27.85,0,0,1,275.7,15.66Zm-39.4,0A27.68,27.68,0,0,1,245,9.75l3.66,2.66h0l5.68,4.12a2.36,2.36,0,0,0,.4.24c-.07.24-.07,6.55,0,6.78-.06,0-10.93,7.86-10.87,7.91a1,1,0,0,0-.26-.12l-5-1.62a1.06,1.06,0,0,0-.39-.06,3.59,3.59,0,0,0-.14-.43l-4.35-10.69A28.65,28.65,0,0,1,236.3,15.66ZM228.51,39.9l8.83-7.44a3,3,0,0,0,.35-.36c.2.09,5.25,1.78,5.42,1.75,0,.24,4,12.67,4.18,12.8a1,1,0,0,0-.17.18l-2.26,3a1.62,1.62,0,0,0-.19.37,2.61,2.61,0,0,0-.4,0l-11.53.54A27.54,27.54,0,0,1,228.51,39.9ZM256,63.22a27.37,27.37,0,0,1-4.89-.44L247,52a2.73,2.73,0,0,0-.25-.48l.13-.14,2.25-3a1.05,1.05,0,0,0,.17-.31,3,3,0,0,0,.42,0h12.48a3.19,3.19,0,0,0,.45,0,1.57,1.57,0,0,0,.14.25L265,51.38a1.14,1.14,0,0,0,.2.23c-.27.53-3.85,10.31-4.19,11.16A28.29,28.29,0,0,1,256,63.22Zm23.32-12.61-11.54-.49a2.59,2.59,0,0,0-.56,0c.15.11-2.28-3.3-2.28-3.31a1.15,1.15,0,0,0-.21-.23c0,.1,4.24-12.82,4.16-12.79.25,0,5.24-1.58,5.48-1.69a2.65,2.65,0,0,0,.29.29l8.83,7.42A27.56,27.56,0,0,1,279.32,50.61Z"/><path class="cls-5" d="M286.12,34.13A30.22,30.22,0,0,0,256,5.2V48.12c.15,0,6.8,0,6.7,0s2.27,3.28,2.28,3.3a1.14,1.14,0,0,0,.2.23c-.27.53-3.85,10.31-4.19,11.16a28.49,28.49,0,0,1-5,.45v2.29a30.23,30.23,0,0,0,25.95-14.78h0A30.05,30.05,0,0,0,286.12,34.13ZM257.66,23.8a3.38,3.38,0,0,0-.41-.24c.06-.22.06-6.56,0-6.77a2.5,2.5,0,0,0,.41-.25L267,9.75a28.08,28.08,0,0,1,11.19,8.76l-4.33,10.7a2.46,2.46,0,0,0-.15.51,1.33,1.33,0,0,0-.34.05l-5,1.55a1.28,1.28,0,0,0-.29.13,2.67,2.67,0,0,0-.35-.31Zm21.66,26.82-11.54-.5a2.5,2.5,0,0,0-.55,0c0-.09-2.29-3.3-2.29-3.31a1.15,1.15,0,0,0-.21-.23c0,.1,4.24-12.81,4.16-12.79.25,0,5.24-1.58,5.48-1.69a2.65,2.65,0,0,0,.29.29l8.84,7.42A27.84,27.84,0,0,1,279.32,50.62Z"/><circle class="cls-23" cx="266.99" cy="19.41" r="6.37"/><path class="cls-25" d="M154.92,133.58H123.44a6.65,6.65,0,1,1,0-13.3h31.48a6.65,6.65,0,1,1,0,13.3Z"/><path class="cls-25" d="M388.56,133.58H357.08a6.65,6.65,0,1,1,0-13.3h31.48a6.65,6.65,0,0,1,0,13.3Z"/><path class="cls-25" d="M141.21,199.86a6.65,6.65,0,0,1-3.33-12.41l24.6-14.2a6.65,6.65,0,1,1,6.65,11.52L144.53,199A6.57,6.57,0,0,1,141.21,199.86Z"/><path class="cls-25" d="M341,84.52a6.65,6.65,0,0,1-3.34-12.41L367.47,54.9a6.65,6.65,0,1,1,6.65,11.51L344.31,83.62A6.55,6.55,0,0,1,341,84.52Z"/><path class="cls-25" d="M171,84.52a6.64,6.64,0,0,1-3.31-.89L137.88,66.41a6.65,6.65,0,1,1,6.65-11.51l29.81,17.21A6.65,6.65,0,0,1,171,84.52Z"/><path class="cls-25" d="M370.79,199.86a6.57,6.57,0,0,1-3.32-.89l-24.6-14.2a6.65,6.65,0,1,1,6.65-11.52l24.6,14.2a6.65,6.65,0,0,1-3.33,12.41Z"/></svg>