<svg id="_50" data-name="50" xmlns="http://www.w3.org/2000/svg" viewBox="0 0 512 512"><defs><style>.cls-1{fill:#4fcae8;}.cls-2{fill:#cde6f6;}.cls-3{fill:#f5b890;}.cls-4{fill:#d48d77;}.cls-5{fill:#e9465e;}.cls-6{fill:#ee6781;}.cls-7{fill:#c0405c;}.cls-8{fill:#334353;}.cls-9{fill:#3e4e60;}.cls-10{fill:#3f5d77;}.cls-11{fill:#fff;}.cls-12{fill:#ffd4c7;}.cls-13{fill:#faefdc;}.cls-14{fill:#f3c3b1;}</style></defs><title>50-soccer-icons</title><circle class="cls-1" cx="256" cy="256" r="256"/><path class="cls-2" d="M274.71,466.74a5,5,0,0,1-.45-10,201.48,201.48,0,0,0,29.37-4.85,5,5,0,1,1,2.35,9.72,210.55,210.55,0,0,1-30.82,5.09ZM229,465.83c-.21,0-.43,0-.65,0a211.94,211.94,0,0,1-30.6-6.33,5,5,0,0,1,2.75-9.62,200.39,200.39,0,0,0,29.14,6,5,5,0,0,1-.64,10Zm118.75-19.7a5,5,0,0,1-2.23-9.48,200.87,200.87,0,0,0,25.61-15.19,5,5,0,0,1,5.72,8.21A212.76,212.76,0,0,1,350,445.6,5,5,0,0,1,347.77,446.13Zm-190.9-3.85a4.94,4.94,0,0,1-2.4-.62,211.89,211.89,0,0,1-26.21-17,5,5,0,1,1,6.05-8,202.78,202.78,0,0,0,25,16.18,5,5,0,0,1-2.4,9.39ZM408.4,400.45a5,5,0,0,1-3.69-8.37,204.29,204.29,0,0,0,18.44-23.37,5,5,0,1,1,8.28,5.59,212.57,212.57,0,0,1-19.34,24.53A5,5,0,0,1,408.4,400.45ZM98.13,394.23a5,5,0,0,1-3.82-1.77A213.27,213.27,0,0,1,76,367.17a5,5,0,0,1,8.51-5.26A202,202,0,0,0,102,386a5,5,0,0,1-3.82,8.23Zm350.39-58.18a5,5,0,0,1-4.66-6.82,200.1,200.1,0,0,0,8.72-28.45,5,5,0,1,1,9.75,2.21,210.72,210.72,0,0,1-9.15,29.88A5,5,0,0,1,448.52,336.05ZM60.61,328.23a5,5,0,0,1-4.72-3.37A211.23,211.23,0,0,1,48,294.64a5,5,0,1,1,9.83-1.82,200.72,200.72,0,0,0,7.56,28.78,5,5,0,0,1-3.1,6.36A5.16,5.16,0,0,1,60.61,328.23Zm402-66.76a5,5,0,0,1-5-5V256a204,204,0,0,0-2.17-29.66,5,5,0,1,1,9.89-1.46A212.84,212.84,0,0,1,467.57,256v.47A5,5,0,0,1,462.57,261.47Zm-413-8.32h-.19A5,5,0,0,1,44.58,248,213.46,213.46,0,0,1,48,216.91a5,5,0,0,1,9.83,1.84,203.14,203.14,0,0,0-3.29,29.58A5,5,0,0,1,49.58,253.15Zm399.1-66.77a5,5,0,0,1-4.66-3.2,202.28,202.28,0,0,0-12.79-26.89,5,5,0,1,1,8.68-4.95,210.12,210.12,0,0,1,13.43,28.23,5,5,0,0,1-4.66,6.81ZM66.29,179.12a5,5,0,0,1-2-.41,5,5,0,0,1-2.61-6.58,212.13,212.13,0,0,1,14.48-27.66,5,5,0,1,1,8.49,5.28A201.29,201.29,0,0,0,70.88,176.1,5,5,0,0,1,66.29,179.12Zm342.39-57.27a5,5,0,0,1-3.7-1.63,203,203,0,0,0-21.62-20.47A5,5,0,1,1,389.69,92a214,214,0,0,1,22.68,21.47,5,5,0,0,1-3.69,8.37Zm-300-5.66a5,5,0,0,1-3.56-8.51A213.78,213.78,0,0,1,128.6,87.07a5,5,0,0,1,6,8,204.67,204.67,0,0,0-22.38,19.64A5,5,0,0,1,108.68,116.19ZM348.15,76.07a5,5,0,0,1-2.23-.53,202,202,0,0,0-27.54-11.28,5,5,0,1,1,3.09-9.51A210.54,210.54,0,0,1,350.39,66.6a5,5,0,0,1-2.24,9.47ZM170.91,72.71a5,5,0,0,1-2.06-9.56,210.58,210.58,0,0,1,29.37-10.73A5,5,0,1,1,200.94,62a202.61,202.61,0,0,0-28,10.22A4.88,4.88,0,0,1,170.91,72.71ZM275.16,55.3a3.62,3.62,0,0,1-.46,0,205.5,205.5,0,0,0-29.77-.55,5,5,0,0,1-.54-10,217.1,217.1,0,0,1,31.23.58,5,5,0,0,1-.46,10Z"/><path class="cls-3" d="M103.06,300.69a65.26,65.26,0,0,0,19.11,46.12L183,407.68A69.22,69.22,0,0,0,229.85,428c.78,0,1.61,0,2.39,0a69.43,69.43,0,0,0,49.24-20.39l90.38-90.38a20,20,0,0,0,0-28.2l-7.48-7.48a20,20,0,0,0-28.2,0l41-41a20,20,0,0,0,0-28.19l-7.48-7.48a20,20,0,0,0-28.19,0l22.23-22.24a20,20,0,0,0,0-28.19L356.28,147a20,20,0,0,0-28.19,0L308,167.11a20,20,0,0,0,0-28.19l-7.48-7.48a20,20,0,0,0-28.2,0l-92.85,92.85v-42.5a30.13,30.13,0,0,0-30.17-30.17h-16a30.13,30.13,0,0,0-30.17,30.17V300.65Z"/><path class="cls-4" d="M230,230.21l1.51-1.52,69-69a19.94,19.94,0,0,0,0-28.19h0l7.48,7.48a19.94,19.94,0,0,1,0,28.19l-78,78S225.82,234.34,230,230.21Z"/><path class="cls-4" d="M299.14,303.69l1.52-1.51,69-69.05a19.92,19.92,0,0,0,0-28.19h0l7.48,7.48a19.92,19.92,0,0,1,0,28.19l-78,78S295,307.82,299.14,303.69Z"/><path class="cls-4" d="M273.39,258.1l1.52-1.51,81.38-81.38a19.94,19.94,0,0,0,0-28.19h0l7.48,7.48a19.94,19.94,0,0,1,0,28.19l-90.38,90.37S269.26,262.23,273.39,258.1Z"/><path class="cls-4" d="M179.48,181.78V224.3l-16.14,16.13V181.65a30.05,30.05,0,0,0-30.05-30.05h16A30.18,30.18,0,0,1,179.48,181.78Z"/><path class="cls-4" d="M183.17,407.68a69.13,69.13,0,0,0,45.46,20.24c.2,0,.39,0,.58,0s.52.06.78.07V428a69.33,69.33,0,0,0,51.6-20.3L372,317.3a19.94,19.94,0,0,0,0-28.2l-7.48-7.48h0a19.94,19.94,0,0,1,0,28.2l-81.37,81.37-.38.4c-14.62,15.2-42.73,21-63.15,13.45-11.17-4.14-23.46-4-34,1.42Z"/><path class="cls-5" d="M361.91,223.57,333,322.22a23.2,23.2,0,0,1-22.27,16.67H203.7a23.18,23.18,0,0,1-22.25-16.67l-28.9-98.65a14.37,14.37,0,0,1,13.82-18.45,15.56,15.56,0,0,0,15.56-15.56V162a28.31,28.31,0,0,1,8.29-20L211,121.23a34.45,34.45,0,0,1,24.39-10.11h43.71a34.47,34.47,0,0,1,24.39,10.11L324.24,142a28.27,28.27,0,0,1,8.29,20v27.55a15.57,15.57,0,0,0,15.56,15.56A14.4,14.4,0,0,1,361.91,223.57Z"/><path class="cls-6" d="M361.91,223.57,333,322.22a23.2,23.2,0,0,1-22.27,16.67H255.58V111.12h23.51a34.47,34.47,0,0,1,24.39,10.11L324.24,142a28.27,28.27,0,0,1,8.29,20v27.55a15.57,15.57,0,0,0,15.56,15.56A14.4,14.4,0,0,1,361.91,223.57Z"/><path class="cls-7" d="M307.71,297.71a4.23,4.23,0,0,1-4.23,4.24H211a4.24,4.24,0,1,1,0-8.48h92.49A4.24,4.24,0,0,1,307.71,297.71Z"/><path class="cls-7" d="M307.71,317.1a4.24,4.24,0,0,1-4.23,4.23H211a4.24,4.24,0,1,1,0-8.47h92.49A4.23,4.23,0,0,1,307.71,317.1Z"/><path class="cls-5" d="M307.71,297.71a4.23,4.23,0,0,1-4.23,4.24h-47.9v-8.48h47.9A4.24,4.24,0,0,1,307.71,297.71Z"/><path class="cls-5" d="M307.71,317.1a4.24,4.24,0,0,1-4.23,4.23h-47.9v-8.47h47.9A4.23,4.23,0,0,1,307.71,317.1Z"/><path class="cls-8" d="M272.33,92v19.14h-33.5V92a10,10,0,0,1,10-10H262.3A10,10,0,0,1,272.33,92Z"/><path class="cls-9" d="M272.33,92v.83a10.26,10.26,0,0,1-10.25,10.26h-13a10.27,10.27,0,0,1-10.26-10.26V92a10,10,0,0,1,10-10H262.3A10,10,0,0,1,272.33,92Z"/><path class="cls-8" d="M334.87,131.38,324.24,142l-20.76-20.76,4.56-4.57,6-6.06a8.67,8.67,0,0,1,12.25,0l8.3,8.3.23.23A8.69,8.69,0,0,1,334.87,131.38Z"/><path class="cls-9" d="M334.64,118.9a14.64,14.64,0,0,1-4,7.63,9,9,0,0,1-12.7,0L308,116.66l6-6.06a8.67,8.67,0,0,1,12.25,0Z"/><path class="cls-8" d="M211,121.23,190.22,142l-10.61-10.61a8.65,8.65,0,0,1,0-12.25l8.53-8.53a8.64,8.64,0,0,1,12.23,0l6,6.06Z"/><path class="cls-9" d="M206.42,116.66l-9.85,9.87a9,9,0,0,1-12.7,0,14.57,14.57,0,0,1-4-7.62l8.31-8.31a8.64,8.64,0,0,1,12.23,0Z"/><path class="cls-8" d="M203.7,338.89H310.77a0,0,0,0,1,0,0v0a20.39,20.39,0,0,1-20.39,20.39H224.09a20.39,20.39,0,0,1-20.39-20.39v0A0,0,0,0,1,203.7,338.89Z"/><path class="cls-8" d="M324.85,213.51a67.62,67.62,0,0,1-67.61,67.61l-1.66,0a67.61,67.61,0,0,1,0-135.18l1.66,0A67.62,67.62,0,0,1,324.85,213.51Z"/><path class="cls-9" d="M324.85,213.51a67.62,67.62,0,0,1-67.61,67.61l-1.66,0V145.92l1.66,0A67.62,67.62,0,0,1,324.85,213.51Z"/><path class="cls-9" d="M311.9,194.81v37.4a9.73,9.73,0,0,1-9.73,9.73H212.31a9.74,9.74,0,0,1-9.75-9.73v-37.4a9.74,9.74,0,0,1,9.75-9.73h89.86A9.73,9.73,0,0,1,311.9,194.81Z"/><path class="cls-10" d="M311.9,194.81v37.4a9.73,9.73,0,0,1-9.73,9.73H255.58V185.08h46.59A9.73,9.73,0,0,1,311.9,194.81Z"/><path class="cls-11" d="M204.37,220.85c-1.2-1.69-1.8-4.13-1.8-7.35s.6-5.64,1.8-7.32a6.64,6.64,0,0,1,10.41,0q1.8,2.52,1.8,7.32t-1.8,7.33a6.62,6.62,0,0,1-10.41,0Zm7.91-1.94a13,13,0,0,0,.84-5.41,12.81,12.81,0,0,0-.84-5.41,3,3,0,0,0-5.4,0,17.61,17.61,0,0,0,0,10.81,3,3,0,0,0,5.4,0Z"/><path class="cls-11" d="M220.73,220.85c-1.2-1.69-1.8-4.13-1.8-7.35s.6-5.64,1.8-7.32a6.64,6.64,0,0,1,10.41,0q1.8,2.52,1.8,7.32t-1.8,7.33a6.62,6.62,0,0,1-10.41,0Zm7.9-1.94a12.78,12.78,0,0,0,.85-5.41,12.62,12.62,0,0,0-.85-5.41,3,3,0,0,0-5.39,0,17.61,17.61,0,0,0,0,10.81,3,3,0,0,0,5.39,0Z"/><path class="cls-11" d="M236.05,213a2,2,0,0,1-.57-1.45,2,2,0,1,1,4,0,2,2,0,0,1-.57,1.45,2.06,2.06,0,0,1-2.89,0Zm0,9.71a2.15,2.15,0,0,1,0-2.92,2.09,2.09,0,0,1,2.89,0,2.15,2.15,0,0,1,0,2.92,2.06,2.06,0,0,1-2.89,0Z"/><path class="cls-11" d="M243.85,220.85c-1.2-1.69-1.8-4.13-1.8-7.35s.6-5.64,1.8-7.32a6.64,6.64,0,0,1,10.41,0q1.8,2.52,1.8,7.32t-1.8,7.33a6.62,6.62,0,0,1-10.41,0Zm7.9-1.94a12.78,12.78,0,0,0,.85-5.41,12.62,12.62,0,0,0-.85-5.41,3,3,0,0,0-5.39,0,17.61,17.61,0,0,0,0,10.81,3,3,0,0,0,5.39,0Z"/><path class="cls-11" d="M260.21,220.85c-1.2-1.69-1.8-4.13-1.8-7.35s.6-5.64,1.8-7.32a6.64,6.64,0,0,1,10.41,0q1.8,2.52,1.8,7.32t-1.8,7.33a6.62,6.62,0,0,1-10.41,0Zm7.9-1.94a12.94,12.94,0,0,0,.85-5.41,12.78,12.78,0,0,0-.85-5.41,3,3,0,0,0-5.4,0,17.81,17.81,0,0,0,0,10.81,3,3,0,0,0,5.4,0Z"/><path class="cls-11" d="M275.53,213a2,2,0,0,1-.57-1.45,2,2,0,1,1,4,0,2,2,0,0,1-.57,1.45,2,2,0,0,1-1.45.59A1.93,1.93,0,0,1,275.53,213Zm0,9.71a2.15,2.15,0,0,1,0-2.92,1.92,1.92,0,0,1,1.44-.58,1.94,1.94,0,0,1,1.45.58,2.15,2.15,0,0,1,0,2.92,2,2,0,0,1-1.45.59A1.93,1.93,0,0,1,275.53,222.7Z"/><path class="cls-11" d="M283.32,220.85c-1.19-1.69-1.79-4.13-1.79-7.35s.6-5.64,1.79-7.32a6.65,6.65,0,0,1,10.42,0q1.8,2.52,1.8,7.32t-1.8,7.33a6.63,6.63,0,0,1-10.42,0Zm7.91-1.94a12.94,12.94,0,0,0,.85-5.41,12.78,12.78,0,0,0-.85-5.41,3,3,0,0,0-5.4,0,17.81,17.81,0,0,0,0,10.81,3,3,0,0,0,5.4,0Z"/><path class="cls-11" d="M299.68,220.85c-1.2-1.69-1.8-4.13-1.8-7.35s.6-5.64,1.8-7.32a6.65,6.65,0,0,1,10.42,0q1.8,2.52,1.8,7.32t-1.8,7.33a6.63,6.63,0,0,1-10.42,0Zm7.91-1.94a13,13,0,0,0,.84-5.41,12.81,12.81,0,0,0-.84-5.41,3,3,0,0,0-5.4,0,17.81,17.81,0,0,0,0,10.81,3,3,0,0,0,5.4,0Z"/><path class="cls-4" d="M200.39,166.15v9.62a32.06,32.06,0,0,1-28.45,31.83l-17.4,2a21.25,21.25,0,0,1-21.23-21.27v-36.7h52.54a14.51,14.51,0,0,1,14.41,12.7A13.83,13.83,0,0,1,200.39,166.15Z"/><path class="cls-3" d="M200.26,164.32a32,32,0,0,1-28.32,29l-17.4,2a21.21,21.21,0,0,1-15-6.23,21.52,21.52,0,0,1-6.57-15V151.62h52.89a14.56,14.56,0,0,1,14.41,12.7Z"/><path class="cls-12" d="M195.66,155.46a25.49,25.49,0,0,1-22.28,21.11l-13.86,1.58a16.85,16.85,0,0,1-12-4.94c-.36-.36-.7-.73-1-1.12a16.83,16.83,0,0,1-4-10.85v-9.62h43.26A14.42,14.42,0,0,1,195.66,155.46Z"/><path class="cls-13" d="M153.87,151.62c0,9.37-3.05,17.37-7.32,20.47a16.83,16.83,0,0,1-4-10.85v-9.62Z"/><path class="cls-4" d="M365.6,154.47l-45.3,35.42A15.12,15.12,0,0,1,299,187.28l-6.87-8.83L287,171.83a15.09,15.09,0,0,1,2.59-21.24l48.68-38.07a15.55,15.55,0,0,1,2.67-1.64,15,15,0,0,1,20.29,7l8.72,18A15.19,15.19,0,0,1,365.6,154.47Z"/><path class="cls-3" d="M344.73,157.72l-22.62,17.74a28.07,28.07,0,0,1-30,3L287,171.83a15.09,15.09,0,0,1,2.59-21.24l48.68-38.07a15.55,15.55,0,0,1,2.67-1.64l9.95,20.64A21.45,21.45,0,0,1,344.73,157.72Z"/><path class="cls-4" d="M408.1,311.25l-33.58,26.23a15.12,15.12,0,0,1-21.28-2.61L346.37,326l-5.18-6.62a15.09,15.09,0,0,1,2.59-21.24l37-28.88a15.24,15.24,0,0,1,23,5.36l8.72,18A15.19,15.19,0,0,1,408.1,311.25Z"/><path class="cls-3" d="M387.23,314.5l-10.9,8.55a28.07,28.07,0,0,1-30,3l-5.18-6.62a15.09,15.09,0,0,1,2.59-21.24l37-28.88a15.09,15.09,0,0,1,2.68-1.65l9.95,20.65A21.46,21.46,0,0,1,387.23,314.5Z"/><path class="cls-4" d="M407.69,248.25l-45.31,35.42a15.12,15.12,0,0,1-21.27-2.61l-6.88-8.83-5.17-6.63a15.1,15.1,0,0,1,2.58-21.24l48.69-38.06a15.21,15.21,0,0,1,22.95,5.36l8.73,18A15.21,15.21,0,0,1,407.69,248.25Z"/><path class="cls-3" d="M386.81,251.5l-22.62,17.73a28.06,28.06,0,0,1-30,3l-5.17-6.63a15.1,15.1,0,0,1,2.58-21.24l48.69-38.06a15,15,0,0,1,2.67-1.65L393,225.3A21.46,21.46,0,0,1,386.81,251.5Z"/><path class="cls-4" d="M405,187,336.84,240.3a15.12,15.12,0,0,1-21.27-2.61l-6.87-8.83-5.18-6.63A15.09,15.09,0,0,1,306.1,201l71.57-56a14.69,14.69,0,0,1,2.68-1.64,15,15,0,0,1,20.28,7l8.72,18A15.19,15.19,0,0,1,405,187Z"/><path class="cls-3" d="M384.16,190.23l-45.51,35.63a28,28,0,0,1-29.95,3l-5.18-6.63A15.09,15.09,0,0,1,306.1,201l71.57-56a14.69,14.69,0,0,1,2.68-1.64L390.3,164A21.47,21.47,0,0,1,384.16,190.23Z"/><path class="cls-14" d="M329.45,174.35l-7.64,6a18.34,18.34,0,0,1-21.46.8,18.15,18.15,0,0,1-4.32-4,18.37,18.37,0,0,1,3.2-25.78l7.64-5.95a7.5,7.5,0,0,1,10.52,1.31l13.36,17.15a7.49,7.49,0,0,1-1.3,10.52Z"/><path class="cls-12" d="M322.1,175.46a28,28,0,0,1-21.75,5.64,18.15,18.15,0,0,1-4.32-4,18.37,18.37,0,0,1,3.2-25.78l7.64-5.95a7.5,7.5,0,0,1,10.52,1.31l13.36,17.15a7.56,7.56,0,0,1,1.53,3.66Z"/><path class="cls-13" d="M331.64,171.6c-4.21-.95-9.74-5-14.41-11s-7.25-12.34-7.15-16.66a7.49,7.49,0,0,1,7.31,2.76l13.36,17.15a7.48,7.48,0,0,1,.89,7.77Z"/><path class="cls-14" d="M347,224l-7.64,5.95a18.37,18.37,0,1,1-22.57-29l7.63-5.95a7.49,7.49,0,0,1,10.52,1.3l13.37,17.16A7.51,7.51,0,0,1,347,224Z"/><path class="cls-12" d="M338.65,225.86a28.07,28.07,0,0,1-18.92,5.95,18.36,18.36,0,0,1-3-30.87l7.63-5.95a7.49,7.49,0,0,1,10.52,1.3l13.37,17.16a7.48,7.48,0,0,1,1.52,3.68Z"/><path class="cls-13" d="M349.15,221.21c-4.21-1-9.74-5-14.41-11s-7.25-12.35-7.14-16.66a7.48,7.48,0,0,1,7.3,2.75l13.36,17.16a7.45,7.45,0,0,1,.89,7.76Z"/><path class="cls-14" d="M372.67,267.24,365,273.18a18.3,18.3,0,0,1-13.56,3.74,18.52,18.52,0,0,1-5.78-1.72,18.07,18.07,0,0,1-6.44-5.22,18.37,18.37,0,0,1,3.21-25.78l7.63-5.95a7.5,7.5,0,0,1,10.52,1.31L374,256.72a7.47,7.47,0,0,1-1.31,10.52Z"/><path class="cls-12" d="M364.2,269.24a28.06,28.06,0,0,1-18.5,6,18.07,18.07,0,0,1-6.44-5.22,18.37,18.37,0,0,1,3.21-25.78l7.63-5.95a7.5,7.5,0,0,1,10.52,1.31L374,256.72a7.49,7.49,0,0,1,1.53,3.65Z"/><path class="cls-13" d="M374.86,264.48c-4.2-1-9.73-5-14.4-11s-7.25-12.34-7.15-16.66a7.47,7.47,0,0,1,7.3,2.76L374,256.72a7.48,7.48,0,0,1,.88,7.76Z"/><path class="cls-14" d="M384.08,321.66l-7.63,5.94a18.32,18.32,0,0,1-13.56,3.74,18.38,18.38,0,0,1-9-32.73l7.63-5.94A7.49,7.49,0,0,1,372,294l13.36,17.16a7.34,7.34,0,0,1,1.52,3.61A7.49,7.49,0,0,1,384.08,321.66Z"/><path class="cls-12" d="M376.32,323.05a28.07,28.07,0,0,1-20.66,5.79,18.57,18.57,0,0,1-5-4.44,18.37,18.37,0,0,1,3.2-25.79l7.63-5.94A7.49,7.49,0,0,1,372,294l13.36,17.16a7.34,7.34,0,0,1,1.52,3.61Z"/><path class="cls-13" d="M386.27,318.89c-4.21-.95-9.74-5-14.41-11s-7.25-12.34-7.15-16.66A7.46,7.46,0,0,1,372,294l13.37,17.16a7.45,7.45,0,0,1,.89,7.76Z"/></svg>