<svg id="_50" data-name="50" xmlns="http://www.w3.org/2000/svg" viewBox="0 0 512 512"><defs><style>.cls-1{fill:#53b976;}.cls-2{fill:#f9c744;}.cls-3{fill:#fbcb74;}.cls-4{fill:#f5b890;}.cls-5{fill:#d48d77;}.cls-6{fill:#fad98f;}.cls-7{fill:#334353;}.cls-8{fill:#7063ce;}.cls-9{fill:#6052a3;}.cls-10{fill:#c17e62;}.cls-11{fill:#eea47d;}.cls-12{fill:#3e4e60;}.cls-13{fill:#3f5d77;}.cls-14{fill:#ebd9ea;}.cls-15{fill:#fff;}.cls-16{fill:#c2aacf;}.cls-17{fill:#dd5e26;}.cls-18{fill:#daab42;}.cls-19{fill:#ea792e;}</style></defs><title>50-soccer-icons</title><circle class="cls-1" cx="256" cy="256" r="256"/><path class="cls-2" d="M336.29,235.83c24.18,33,42.28,47.8,59.13,47.8,28.92-.62,36.4-35.93,43.64-66.72l-9-2.07-17.48-4c-2.91,12.67-6.08,25.84-10,35.18a44.76,44.76,0,0,1-3.19,6.37,6.36,6.36,0,0,1-8.61,2.14c-5.47-3.2-15.75-11.78-32.55-34.74l-12.15,8.89Z"/><path class="cls-3" d="M346.08,228.67c19.5,30.1,34.39,43.64,48.27,43.64,22.43-.57,29.89-29.27,35.7-57.47l-17.48-4c-2.91,12.67-6.08,25.84-10,35.18a44.76,44.76,0,0,1-3.19,6.37,6.36,6.36,0,0,1-8.61,2.14c-5.47-3.2-15.75-11.78-32.55-34.74Z"/><path class="cls-4" d="M409.43,213.58a13.06,13.06,0,0,0,3.83,9.24l12.2,12.2a13.89,13.89,0,0,0,9.38,4.08h.48a13.88,13.88,0,0,0,9.86-4.08l18.12-18.11a4,4,0,0,0,0-5.65l-1.5-1.5a4,4,0,0,0-5.65,0l8.22-8.22a4,4,0,0,0,0-5.66l-1.5-1.49a4,4,0,0,0-5.65,0l4.46-4.46a4,4,0,0,0,0-5.65l-1.5-1.5a4,4,0,0,0-5.65,0l-4,4a4,4,0,0,0,0-5.65l-1.5-1.5a4,4,0,0,0-5.65,0l-18.61,18.61v-8.52a6,6,0,0,0-6.05-6.05h-3.2a6,6,0,0,0-6.05,6.05v23.82Z"/><path class="cls-5" d="M434.86,199.45l.3-.3L449,185.31a4,4,0,0,0,0-5.65h0l1.5,1.5a4,4,0,0,1,0,5.65l-15.64,15.64S434,200.28,434.86,199.45Z"/><path class="cls-5" d="M448.73,214.18l.3-.3L462.87,200a4,4,0,0,0,0-5.65h0l1.49,1.5a4,4,0,0,1,0,5.65l-15.64,15.64S447.9,215,448.73,214.18Z"/><path class="cls-5" d="M443.56,205l.31-.3,16.31-16.31a4,4,0,0,0,0-5.65h0l1.5,1.5a4,4,0,0,1,0,5.65L443.56,208S442.74,205.87,443.56,205Z"/><path class="cls-5" d="M424.74,189.75v8.52l-3.23,3.23V189.72a6,6,0,0,0-6-6h3.21A6,6,0,0,1,424.74,189.75Z"/><path class="cls-5" d="M425.48,235a13.85,13.85,0,0,0,9.11,4h.12l.16,0v0A13.9,13.9,0,0,0,445.21,235l18.11-18.12a4,4,0,0,0,0-5.64l-1.5-1.5h0a4,4,0,0,1,0,5.65l-16.31,16.3-.07.08c-2.93,3.05-8.57,4.22-12.66,2.7a8.44,8.44,0,0,0-6.82.28Z"/><path class="cls-2" d="M368.91,378.1V243.26a37.08,37.08,0,0,0-37.08-37.09H306.35a37.08,37.08,0,0,0-37.08,37.09V378.1Z"/><path class="cls-6" d="M293,243.26a37.08,37.08,0,0,1,37.08-37.09h1.75a37.08,37.08,0,0,1,37.08,37.09V378.1H293.27Z"/><path class="cls-7" d="M288.25,298.59h0a4.76,4.76,0,0,1,4.76,4.76v40.91a0,0,0,0,1,0,0h-9.52a0,0,0,0,1,0,0V303.35A4.76,4.76,0,0,1,288.25,298.59Z"/><path class="cls-7" d="M349.93,298.59h0a4.76,4.76,0,0,1,4.76,4.76v40.91a0,0,0,0,1,0,0h-9.52a0,0,0,0,1,0,0V303.35A4.76,4.76,0,0,1,349.93,298.59Z"/><path class="cls-7" d="M305.81,228.29l8.67,8.67a6.42,6.42,0,0,0,9.08,0l8.69-8.68a11.27,11.27,0,0,1,8-3.31h4.69a3.83,3.83,0,0,0,2.71-6.54l-12.08-12.07H302.63l-12.05,12a3.83,3.83,0,0,0,2.67,6.54l4.68,0A11.31,11.31,0,0,1,305.81,228.29Z"/><path class="cls-8" d="M368.91,382.14V344.26H269.27v37.88h0V511.66q12-.62,23.73-2.32,7.19-1,14.23-2.47V398.17H331V500.85a253.45,253.45,0,0,0,38-15V382.14Z"/><path class="cls-9" d="M293,344.26V509.34q-11.7,1.7-23.73,2.32V344.26Z"/><path class="cls-2" d="M197.43,307.4c27.11,0,38.36-5.6,52.79-13.34,17.58-9.41,36-40.7,40.68-47.66A13.81,13.81,0,1,0,268,230.93c-9.84,14.54-22.37,34.25-30.83,38.78-9.08,4.86-15.9,10.06-39.75,10.06A13.84,13.84,0,0,0,184.7,299h0A13.82,13.82,0,0,0,197.43,307.4Z"/><path class="cls-3" d="M190.1,300.08c27.11,0,38.36-5.61,52.8-13.34,17.57-9.42,36-40.71,40.67-47.68a13.71,13.71,0,0,0,2.37-7.71,14,14,0,0,0-1.1-5.41,13.81,13.81,0,0,0-16.83,5c-9.84,14.54-22.37,34.25-30.83,38.78-9.08,4.86-15.9,10.06-39.75,10.06A13.84,13.84,0,0,0,184.7,299h0A13.82,13.82,0,0,0,190.1,300.08Z"/><path class="cls-4" d="M195.48,274.72,178.36,257.6a6.13,6.13,0,0,0-8.69,0l-2.3,2.3a6.13,6.13,0,0,0,0,8.69l6.12,6.12H146.74a4.08,4.08,0,0,0-4.06,4.06v2.16a4.07,4.07,0,0,0,4.06,4.06H141a4.07,4.07,0,0,0-4.06,4.06v2.16a4.07,4.07,0,0,0,4.06,4.06h6.41a4.06,4.06,0,0,0-4.06,4.06v2.15a4.06,4.06,0,0,0,4.06,4.06h11.81a4.08,4.08,0,0,0-4.06,4.07v2.15a4.06,4.06,0,0,0,4.06,4.06h26a14.15,14.15,0,0,0,10-4.15l.34-.35a14.13,14.13,0,0,0,3.81-9.68V284.11a13.31,13.31,0,0,0-3.89-9.4Z"/><path class="cls-5" d="M167.07,282.84H146.74a4.06,4.06,0,0,1-4.06-4.06h0v2.15a4.06,4.06,0,0,0,4.06,4.06h22.48S168.26,282.84,167.07,282.84Z"/><path class="cls-5" d="M167.69,303.39H147.36a4.06,4.06,0,0,1-4.06-4.06h0v2.15a4.06,4.06,0,0,0,4.06,4.06h22.48S168.88,303.39,167.69,303.39Z"/><path class="cls-5" d="M164.83,293.11H141a4.06,4.06,0,0,1-4.06-4.06h0v2.16a4.06,4.06,0,0,0,4.06,4.06h26S166,293.11,164.83,293.11Z"/><path class="cls-5" d="M167.36,268.59l6.13,6.13h4.65l-8.47-8.47a6.13,6.13,0,0,1,0-8.66l-2.31,2.31A6.14,6.14,0,0,0,167.36,268.59Z"/><path class="cls-5" d="M199.37,301.66a14.12,14.12,0,0,1-3.63,9.47.73.73,0,0,0-.08.09.58.58,0,0,0-.1.12h0a14.14,14.14,0,0,1-10.36,4.51h-26a4.06,4.06,0,0,1-4.06-4.06v-2.16h0a4.05,4.05,0,0,0,4.06,4.06h23.55c4.3.08,9.18-3.13,11-7.16a8.58,8.58,0,0,1,5.11-4.7Z"/><path class="cls-4" d="M335.55,190.61v17.88a16.46,16.46,0,1,1-32.92,0V190.61Z"/><path class="cls-5" d="M302.63,190.61v17.88a16.44,16.44,0,0,0,8.1,14.18V203.56a48.26,48.26,0,0,0,18.62,3.71,50.46,50.46,0,0,0,6.2-.39V190.61Z"/><path class="cls-5" d="M272.75,111.36h8.16a0,0,0,0,1,0,0v25.55a0,0,0,0,1,0,0h-8.16A12.77,12.77,0,0,1,260,124.13v0A12.77,12.77,0,0,1,272.75,111.36Z"/><path class="cls-10" d="M272.34,118.65h8.58a0,0,0,0,1,0,0v11a0,0,0,0,1,0,0h-8.58a5.48,5.48,0,0,1-5.48-5.48v0A5.48,5.48,0,0,1,272.34,118.65Z"/><path class="cls-5" d="M390.56,111.36h3.58a0,0,0,0,1,0,0v25.55a0,0,0,0,1,0,0h-3.58a12.77,12.77,0,0,1-12.77-12.77v0A12.77,12.77,0,0,1,390.56,111.36Z" transform="translate(771.93 248.26) rotate(-180)"/><path class="cls-10" d="M383.27,118.65h4a0,0,0,0,1,0,0v11a0,0,0,0,1,0,0h-4a5.48,5.48,0,0,1-5.48-5.48v0A5.48,5.48,0,0,1,383.27,118.65Z" transform="translate(765.05 248.26) rotate(-180)"/><path class="cls-5" d="M377.79,82.93v67.28a48.44,48.44,0,0,1-96.88,0V82.93a26.55,26.55,0,0,1,26.56-26.54h43.78a26.52,26.52,0,0,1,26.54,26.54Z"/><path class="cls-4" d="M377.79,82.93v67.28a48.43,48.43,0,0,1-37.58,47.21,48.44,48.44,0,0,1-37.58-47.21V124.47a68.1,68.1,0,0,1,56-67A26.54,26.54,0,0,1,377.79,82.93Z"/><rect class="cls-11" x="325.83" y="127.51" width="24.56" height="14.69" rx="7.34"/><rect class="cls-7" x="320.85" y="156.59" width="19.06" height="11.4" rx="5.7" transform="translate(492.67 -168.09) rotate(90)"/><rect class="cls-11" x="329.35" y="56.38" width="12.39" height="76.11"/><rect class="cls-7" x="309.5" y="98.79" width="13.42" height="25.13" rx="6.71"/><rect class="cls-7" x="348.18" y="98.79" width="13.42" height="25.13" rx="6.71"/><path class="cls-12" d="M280.92,136.91h-8.17a12.77,12.77,0,0,1-4.07-.68v3.4a12.26,12.26,0,0,0,12.26,12.27Z"/><path class="cls-12" d="M280.92,111.33h-8.17a12.72,12.72,0,0,0-3.87.66h-.2V78.58A28.08,28.08,0,0,1,296.76,50.5h32.59v7a16.57,16.57,0,0,1-16.57,16.57h0a10.15,10.15,0,0,0-10.15,10.15v6a21.13,21.13,0,0,1-21.14,21.14l-.57,0Z"/><path class="cls-13" d="M383.46,63.8h0a6.31,6.31,0,0,0,6.31,6.32h0a6.34,6.34,0,0,0,4.1-1.51l7.54-6.44a4.14,4.14,0,0,1,6.82,3.15v8.9a22.56,22.56,0,0,1-22.56,22.56h0a19.54,19.54,0,0,1-13.81-5.72l-8-8a30.63,30.63,0,0,0-21.66-9H307.8A11.79,11.79,0,0,1,296,62.29h0A11.79,11.79,0,0,1,307.8,50.5h62.35A13.3,13.3,0,0,1,383.46,63.8Z"/><path class="cls-14" d="M46.15,281.51H195.62a6.54,6.54,0,1,0,0-13.07H46.15a6.54,6.54,0,1,0,0,13.07Z"/><path class="cls-15" d="M46.15,281.51H195.62a6.53,6.53,0,0,0,6.54-6.53H39.62a6.52,6.52,0,0,0,6.53,6.53Z"/><path class="cls-16" d="M39.62,289.72a6.52,6.52,0,0,0,6.53-6.54V266.77a6.54,6.54,0,0,0-13.07,0v16.41A6.54,6.54,0,0,0,39.62,289.72Z"/><path class="cls-14" d="M39.62,289.72a6.52,6.52,0,0,0,6.53-6.54V275H33.08v8.2A6.54,6.54,0,0,0,39.62,289.72Z"/><path class="cls-17" d="M59.84,387.13h77.38c0-11.12-.7-35.87-1.48-39.68-.6-3-4.37-5.26-8.81-5.26H56.4A301.58,301.58,0,0,1,59.84,387.13Z"/><path class="cls-18" d="M59.84,387.13h41.55c0-11.12-.71-35.87-1.48-39.68-.61-3-4.37-5.26-8.82-5.26H56.4A301.58,301.58,0,0,1,59.84,387.13Z"/><path class="cls-19" d="M56.52,342.22H127s-1.09-5.09-2-20.83c-.74-12.16-1.39-12.46-1.39-39.88H46.15c0,27.42.66,27.72,1.4,39.88.26,4.23.52,7.7.78,10.5C48.86,337.8,52.37,342.22,56.52,342.22Z"/><path class="cls-2" d="M92.08,342.22H127s-1.09-5.09-2-20.83c-.74-12.16-1.39-12.46-1.39-39.88H81.71c0,27.42.66,27.72,1.4,39.88.25,4.23.52,7.7.77,10.5C84.42,337.8,87.93,342.22,92.08,342.22Z"/></svg>