<svg id="_50" data-name="50" xmlns="http://www.w3.org/2000/svg" viewBox="0 0 512 512"><defs><style>.cls-1{fill:#e9465e;}.cls-2{fill:#f4829b;}.cls-3{fill:#3e4e60;}.cls-4{fill:#f9f2f9;}.cls-5{fill:#9175a7;}.cls-6{fill:#fff;}.cls-7{fill:#ee6781;}.cls-8{fill:#c2aacf;}.cls-9{fill:#f4e6f4;}.cls-10{fill:#c1b7d3;}.cls-11{fill:#746087;}.cls-12{fill:#3f6c8e;}</style></defs><title>50-soccer-icons</title><circle class="cls-1" cx="256" cy="256" r="256"/><path class="cls-2" d="M183.23,331.85H200a0,0,0,0,1,0,0v8.37a8.37,8.37,0,0,1-8.37,8.37h0a8.37,8.37,0,0,1-8.37-8.37v-8.37a0,0,0,0,1,0,0Z" transform="translate(161.74 -49.1) rotate(25)"/><path class="cls-2" d="M213.73,350.29h16.74a0,0,0,0,1,0,0v8.37a8.37,8.37,0,0,1-8.37,8.37h0a8.37,8.37,0,0,1-8.37-8.37v-8.37A0,0,0,0,1,213.73,350.29Z" transform="translate(172.38 -60.26) rotate(25)"/><path class="cls-2" d="M242.28,367.54H259a0,0,0,0,1,0,0v8.37a8.37,8.37,0,0,1-8.37,8.37h0a8.37,8.37,0,0,1-8.37-8.37v-8.37A0,0,0,0,1,242.28,367.54Z" transform="translate(182.35 -70.71) rotate(25)"/><path class="cls-2" d="M341.52,416.75h16.74a0,0,0,0,1,0,0v8.37a8.37,8.37,0,0,1-8.37,8.37h0a8.37,8.37,0,0,1-8.37-8.37v-8.37A0,0,0,0,1,341.52,416.75Z" transform="translate(212.45 -108.04) rotate(25)"/><path class="cls-2" d="M364.74,427.58h16.74a0,0,0,0,1,0,0v8.37a8.37,8.37,0,0,1-8.37,8.37h0a8.37,8.37,0,0,1-8.37-8.37v-8.37A0,0,0,0,1,364.74,427.58Z" transform="translate(219.2 -116.84) rotate(25)"/><path class="cls-3" d="M510.46,227.78l-75.59,139.8L400.78,354.9a31.75,31.75,0,0,1-17.87-16.69l-13.25-29.35a108.11,108.11,0,0,0,20.88-38.67l51.53-190A255.19,255.19,0,0,1,510.46,227.78Z"/><path class="cls-4" d="M418.66,419.72A26.06,26.06,0,0,1,384,432.25l-38.36-18a17.34,17.34,0,0,1-8.69-9.11,22,22,0,0,0-18.27-13.51,154.26,154.26,0,0,1-50.93-13.86l-80.27-48.7a24.21,24.21,0,0,1-9.37-31c8.87-15,30.58-18.56,44.63-8.52a72.11,72.11,0,0,0,29.84,12c18.44,3.64,81.38,1.94,101,2.54A35.58,35.58,0,0,1,382.71,322a84,84,0,0,0,12.84,17.53c9.61,9.87,22.07,19.21,36.6,18.11a9.59,9.59,0,0,1,9.2,13.65l-6.87,14.67Z"/><path class="cls-5" d="M418.66,419.72A26.06,26.06,0,0,1,384,432.25l-38.36-18a17.34,17.34,0,0,1-8.69-9.11,22,22,0,0,0-18.27-13.51,154.26,154.26,0,0,1-50.93-13.86l-80.27-48.7a24.21,24.21,0,0,1-9.37-31,146.14,146.14,0,0,0,39.8,34.37l52.22,30.71q11.89,7,24.44,12.79l64.15,29.67a152.42,152.42,0,0,0,59.92,14.05Z"/><path class="cls-6" d="M441.35,371.24l-6.87,14.67c-27.22-3.15-49.81-3.07-72.06-21.8a151.58,151.58,0,0,0-67.3-31.89c-52.89-10.09-62-10.47-105.13-44.91a32.36,32.36,0,0,1,32.77,2.3,72.11,72.11,0,0,0,29.84,12,182.84,182.84,0,0,0,27.06,2.16l74,.38A35.58,35.58,0,0,1,382.71,322a84,84,0,0,0,12.84,17.53c9.61,9.88,22.07,19.21,36.6,18.11A9.59,9.59,0,0,1,441.35,371.24Z"/><path class="cls-2" d="M441.35,371.24,422,368.14a44.49,44.49,0,0,1-22.2-10.39c-18.75-15.38-30.81-30.09-40-52.76h0a35.54,35.54,0,0,1,22.83,17,84,84,0,0,0,12.84,17.53,82.16,82.16,0,0,0,15.38,12.58,36.08,36.08,0,0,0,21.22,5.53A9.59,9.59,0,0,1,441.35,371.24Z"/><path class="cls-7" d="M425,406.24h0l-42.62-16.7a30,30,0,0,0-17.24-1.38L335,394.68,314.11,385l39.41-14.19A46.23,46.23,0,0,1,377.91,369l59.16,11.44-2.59,5.52Z"/><path class="cls-2" d="M437.07,380.39l-2.59,5.52c-25.11-2.91-46.27-3.06-66.86-17.77a46.31,46.31,0,0,1,10.29.81Z"/><path class="cls-5" d="M296.07,329.57a7.47,7.47,0,1,1,.32-.79A5.94,5.94,0,0,1,296.07,329.57Z"/><path class="cls-8" d="M296.39,328.78a7.6,7.6,0,0,1-2.27-.65,7.52,7.52,0,0,1-3.93-9.18,7.49,7.49,0,0,1,6.2,9.83Z"/><path class="cls-5" d="M313.56,329.67A7.5,7.5,0,1,1,307.68,319a7.91,7.91,0,0,1,2.27.65,7.51,7.51,0,0,1,3.93,9.18C313.79,329.14,313.68,329.4,313.56,329.67Z"/><path class="cls-8" d="M313.88,328.87a6.86,6.86,0,0,1-2.26-.65,7.5,7.5,0,0,1-3.94-9.18,7.91,7.91,0,0,1,2.27.65A7.51,7.51,0,0,1,313.88,328.87Z"/><path class="cls-5" d="M330.66,329.75A7.47,7.47,0,1,1,331,329,5.94,5.94,0,0,1,330.66,329.75Z"/><path class="cls-8" d="M331,329a7.19,7.19,0,0,1-2.26-.65,7.51,7.51,0,0,1-3.94-9.18A7.49,7.49,0,0,1,331,329Z"/><path class="cls-5" d="M348.24,329.84a7.5,7.5,0,1,1-5.88-10.62,7.6,7.6,0,0,1,2.27.65,7.5,7.5,0,0,1,3.92,9.18A7.61,7.61,0,0,1,348.24,329.84Z"/><path class="cls-8" d="M348.55,329.05a7.85,7.85,0,0,1-2.26-.65,7.51,7.51,0,0,1-3.93-9.18,7.6,7.6,0,0,1,2.27.65A7.5,7.5,0,0,1,348.55,329.05Z"/><path class="cls-9" d="M287.88,329.4a3.32,3.32,0,0,1-1.9-2.69l-2.17-22.62a3.32,3.32,0,1,1,6.6-.63l2.17,22.62a3.32,3.32,0,0,1-3,3.62A3.43,3.43,0,0,1,287.88,329.4Z"/><path class="cls-9" d="M305.37,329.49a3.3,3.3,0,0,1-1.9-2.69l-2.17-22.61a3.32,3.32,0,0,1,6.6-.64l2.17,22.62a3.31,3.31,0,0,1-4.7,3.32Z"/><path class="cls-9" d="M322.47,329.58a3.32,3.32,0,0,1-1.9-2.69l-2.17-22.62a3.32,3.32,0,0,1,6.61-.63l2.17,22.62a3.33,3.33,0,0,1-3,3.62A3.43,3.43,0,0,1,322.47,329.58Z"/><path class="cls-9" d="M340,329.67a3.32,3.32,0,0,1-1.9-2.69L336,304.36a3.32,3.32,0,0,1,6.61-.63l2.17,22.62a3.33,3.33,0,0,1-4.71,3.32Z"/><path class="cls-9" d="M341.37,301.61a2.9,2.9,0,0,1-3.38,1.23h0c-.41-.14-9.92-3.38-12.71-11.09-3-8.24-1.2-15.91,4.14-17.85S341.05,276.72,344,285c2.79,7.71-2.44,16.29-2.67,16.65Zm-10-22.25c-1.56.56-2.62,5-.66,10.41a10.23,10.23,0,0,0,3.36,4.37,2.91,2.91,0,0,0,4.69-1.69,10.32,10.32,0,0,0-.21-5.51C336.62,281.53,333,278.79,331.4,279.36Z"/><path class="cls-9" d="M342.61,305a2.9,2.9,0,0,1-1.23-3.38h0c.14-.41,3.38-9.92,11.09-12.71,8.24-3,15.91-1.2,17.85,4.14s-2.82,11.63-11.06,14.61c-7.71,2.8-16.29-2.44-16.65-2.66Zm22.25-10c-.56-1.56-5-2.62-10.42-.66a10.35,10.35,0,0,0-4.37,3.36,2.92,2.92,0,0,0,1.7,4.69,10.32,10.32,0,0,0,5.51-.21C362.69,300.25,365.43,296.59,364.86,295Z"/><circle class="cls-10" cx="161.29" cy="165.55" r="98.9"/><path class="cls-9" d="M237.31,102.29a98.71,98.71,0,0,0-76-35.64q-4.57,0-9,.4a99.48,99.48,0,0,0-15,23.25h0A98.88,98.88,0,0,0,227,230.68q4.56,0,9-.41a98.59,98.59,0,0,0,22-44.4,100,100,0,0,0,2.08-20.32A98.45,98.45,0,0,0,237.31,102.29Z"/><path class="cls-11" d="M161.29,74.17a91.38,91.38,0,1,1-64.62,26.77,90.77,90.77,0,0,1,64.62-26.77Zm0-7.52a98.9,98.9,0,1,0,98.9,98.9,98.9,98.9,0,0,0-98.9-98.9Z"/><path class="cls-8" d="M260.11,161.73A98.82,98.82,0,0,0,152.25,67.06a95.37,95.37,0,0,0-6.54,8.43C233.79,61.39,288,167.32,225.4,230.66c2.51-2.53,7.17-.07,10.67-.38A98.76,98.76,0,0,0,260.11,161.73Z"/><path class="cls-11" d="M119.35,160.65a4.33,4.33,0,0,1-1.32-.21l-16.23-5.31a4.23,4.23,0,1,1,2.63-8l16.23,5.31a4.23,4.23,0,0,1-1.31,8.25Z"/><path class="cls-8" d="M161.26,130.12a4.23,4.23,0,0,1-4.23-4.23V105.61a4.23,4.23,0,0,1,8.46,0v20.28A4.23,4.23,0,0,1,161.26,130.12Z"/><path class="cls-8" d="M203.21,160.58a4.23,4.23,0,0,1-1.26-8.27l16.3-5.08a4.23,4.23,0,0,1,2.52,8.08l-16.3,5.08A4.23,4.23,0,0,1,203.21,160.58Z"/><path class="cls-8" d="M194.17,219.92a4.22,4.22,0,0,1-3.47-1.8l-7-10a4.23,4.23,0,0,1,6.93-4.85l7,10a4.22,4.22,0,0,1-3.46,6.65Z"/><path class="cls-11" d="M128.13,219.73a4.23,4.23,0,0,1-3.37-6.78l7.4-9.77a4.23,4.23,0,1,1,6.74,5.1l-7.4,9.77A4.21,4.21,0,0,1,128.13,219.73Z"/><path class="cls-3" d="M148.31,263.61a98.94,98.94,0,0,1-71.95-47.35l46.47-2.15a9.24,9.24,0,0,1,9.07,6Z"/><path class="cls-3" d="M100.08,156,64.51,186a99.14,99.14,0,0,1,20.65-83.61l17.52,43.07A9.24,9.24,0,0,1,100.08,156Z"/><path class="cls-3" d="M260.19,165.55a100,100,0,0,1-2.08,20.32l-35.63-29.94a9.25,9.25,0,0,1-2.62-10.54l17.45-43.1A98.45,98.45,0,0,1,260.19,165.55Z"/><path class="cls-12" d="M260.19,165.55a100,100,0,0,1-2.08,20.32l-35.63-29.94a9.25,9.25,0,0,1-2.62-10.54l17.45-43.1A98.45,98.45,0,0,1,260.19,165.55Z"/><path class="cls-3" d="M155.86,127.65l-33.14,24.08a9.24,9.24,0,0,0-3.35,10.33L132,201a9.24,9.24,0,0,0,8.79,6.38h41a9.22,9.22,0,0,0,8.78-6.38l12.66-38.95a9.23,9.23,0,0,0-3.36-10.33l-33.13-24.08A9.25,9.25,0,0,0,155.86,127.65Z"/><path class="cls-12" d="M203.21,162.06,190.55,201a9.22,9.22,0,0,1-8.78,6.38H163.29a98.76,98.76,0,0,1-34-60.43l26.57-19.31a9.25,9.25,0,0,1,10.86,0l33.13,24.08A9.23,9.23,0,0,1,203.21,162.06Z"/><path class="cls-3" d="M246.4,216a99.2,99.2,0,0,1-71.78,47.6l15-40.21,1.25-3.37a9.25,9.25,0,0,1,9.06-6Z"/><path class="cls-12" d="M246.4,216a98.76,98.76,0,0,1-10.33,14.31q-4.47.4-9,.41a98.7,98.7,0,0,1-37.43-7.33l1.25-3.37a9.25,9.25,0,0,1,9-6Z"/><path class="cls-3" d="M204.36,76.5l-37.64,27.34a9.21,9.21,0,0,1-10.86,0L137.22,90.31h0l-19-13.8a98.24,98.24,0,0,1,34-9.45q4.47-.4,9-.4A98.37,98.37,0,0,1,204.36,76.5Z"/><path class="cls-12" d="M204.36,76.5l-37.64,27.34a9.23,9.23,0,0,1-10.86,0L137.22,90.31h0a99.48,99.48,0,0,1,15-23.25q4.47-.4,9-.4A98.37,98.37,0,0,1,204.36,76.5Z"/><circle class="cls-6" cx="198.98" cy="113.87" r="20.22"/><path class="cls-2" d="M315.79,186.46a4,4,0,0,1-3.41-4.57A93.32,93.32,0,0,0,233.67,76.14a4,4,0,1,1,1.17-8,101.41,101.41,0,0,1,85.53,114.9A4,4,0,0,1,315.79,186.46Z"/><path class="cls-2" d="M319.19,244.08a4,4,0,0,1-1.71-.68,4,4,0,0,1-1-5.62A116.72,116.72,0,0,0,287.07,75.53a4,4,0,1,1,4.6-6.63,124.8,124.8,0,0,1,31.42,173.48A4,4,0,0,1,319.19,244.08Z"/><rect class="cls-2" x="123.81" y="267.31" width="8.97" height="70.56" rx="4.48" transform="translate(251.54 -2.09) rotate(45)"/><rect class="cls-2" x="137.26" y="307.14" width="8.97" height="70.56" rx="4.48" transform="translate(190.2 -25) rotate(30)"/></svg>