<svg id="_50" data-name="50" xmlns="http://www.w3.org/2000/svg" viewBox="0 0 512 512"><defs><style>.cls-1{fill:#6c7ed5;}.cls-2{fill:#6052a3;}.cls-3{fill:#7063ce;}.cls-4{fill:#dd5e26;}.cls-5{fill:#ea792e;}.cls-6{fill:#f9c744;}.cls-7{fill:#9b5b42;}.cls-8{fill:#8e4e3f;}.cls-9{fill:#723e33;}.cls-10{fill:#442a21;}.cls-11{fill:#334353;}.cls-12{fill:#543029;}.cls-13{fill:#f5b890;}.cls-14{fill:#d48d77;}.cls-15{fill:#c17e62;}.cls-16{fill:#eea47d;}.cls-17{fill:#f4829b;}.cls-18{fill:#f9f2f9;}.cls-19{fill:#9175a7;}.cls-20{fill:#fff;}.cls-21{fill:#c2aacf;}.cls-22{fill:#c0405c;}.cls-23{fill:#b5b3ff;}</style></defs><title>50-soccer-icons</title><circle class="cls-1" cx="256" cy="256" r="256"/><path class="cls-2" d="M203.47,483.5v23.1q-8.55-1.77-16.88-4.12a253.77,253.77,0,0,1-48.07-19Z"/><path class="cls-3" d="M186.59,483.5v19a253.77,253.77,0,0,1-48.07-19Z"/><path class="cls-4" d="M203.47,416.76v66.73h-65c-2-1-4-2.08-5.92-3.16V416.76A26.38,26.38,0,0,1,159,390.37h18.13A26.39,26.39,0,0,1,203.47,416.76Z"/><path class="cls-5" d="M186.59,416.76v66.73H138.5c-2-1-4-2.08-5.92-3.16V416.76A26.38,26.38,0,0,1,159,390.37h1.24A26.39,26.39,0,0,1,186.59,416.76Z"/><path class="cls-6" d="M184.58,434.53l-3.79,2.8a5,5,0,0,1-5.89,0l-3.79-2.8a4.93,4.93,0,0,1-2-4V418.8a3.25,3.25,0,0,1,3.24-3.25h11a3.25,3.25,0,0,1,3.24,3.25v11.74A5,5,0,0,1,184.58,434.53Z"/><path class="cls-4" d="M249.66,330.45c0,19-3.92,40.09-9.34,50.19C233.74,393,209.08,410,204.21,413.29a9.66,9.66,0,0,1-13.42-2.59,9.86,9.86,0,0,1-.9-1.65,9.67,9.67,0,0,1,3.49-11.78c10.18-6.89,26.72-19.83,29.9-25.76,3.4-6.35,7.05-24.37,7.05-41.06a9.67,9.67,0,0,1,13.43-8.91h0A9.67,9.67,0,0,1,249.66,330.45Z"/><path class="cls-5" d="M244.54,325.32c0,19-3.93,40.09-9.35,50.2-6.58,12.3-31.24,29.35-36.11,32.64a9.65,9.65,0,0,1-9.19.89,9.67,9.67,0,0,1,3.49-11.78c10.18-6.89,26.72-19.83,29.9-25.76,3.4-6.35,7.05-24.37,7.05-41.06a9.67,9.67,0,0,1,13.43-8.91h0A9.67,9.67,0,0,1,244.54,325.32Z"/><path class="cls-7" d="M226.78,329.1a9.34,9.34,0,0,0,6.58,2.72h12.27a9.81,9.81,0,0,0,6.77-2.67,2.73,2.73,0,0,0,.25-.23,9.93,9.93,0,0,0,2.91-7V303.67a2.85,2.85,0,0,0-2.85-2.84h-1.5a2.85,2.85,0,0,0-2.85,2.84V295.4a2.84,2.84,0,0,0-2.84-2.84H244a2.84,2.84,0,0,0-2.84,2.84v-4.48a2.85,2.85,0,0,0-2.84-2.85h-1.51a2.85,2.85,0,0,0-2.84,2.85V295a2.85,2.85,0,0,0-2.85-2.84h-1.51a2.85,2.85,0,0,0-2.84,2.84v18.72l-4.28-4.28a4.31,4.31,0,0,0-6.09,0L214.8,311a4.3,4.3,0,0,0,0,6.08l12,12Z"/><path class="cls-8" d="M232.47,309.2V295a2.84,2.84,0,0,0-2.84-2.84h1.5A2.85,2.85,0,0,1,234,295v15.74S232.47,310,232.47,309.2Z"/><path class="cls-8" d="M246.85,309.63V295.4a2.84,2.84,0,0,0-2.84-2.84h1.51a2.84,2.84,0,0,1,2.84,2.84v15.74S246.85,310.46,246.85,309.63Z"/><path class="cls-8" d="M239.66,307.63V290.92a2.85,2.85,0,0,0-2.84-2.85h1.51a2.85,2.85,0,0,1,2.84,2.85v18.22S239.66,308.46,239.66,307.63Z"/><path class="cls-8" d="M222.5,309.41l4.28,4.28V317L220.86,311a4.29,4.29,0,0,0-6.06,0l1.61-1.61A4.31,4.31,0,0,1,222.5,309.41Z"/><path class="cls-8" d="M245.65,331.81a9.88,9.88,0,0,0,6.62-2.54l.06-.06.09-.07h0a9.88,9.88,0,0,0,3.16-7.25V303.66a2.84,2.84,0,0,0-2.84-2.84h-1.51a2.84,2.84,0,0,1,2.84,2.84v16.49a9.06,9.06,0,0,1-5,7.72,6,6,0,0,0-3.29,3.58Z"/><path class="cls-4" d="M82.69,330.45c0,19,3.92,40.09,9.34,50.19C98.62,393,123.27,410,128.14,413.29a9.68,9.68,0,0,0,13.43-2.59,10.57,10.57,0,0,0,.89-1.65A9.67,9.67,0,0,0,139,397.27c-10.18-6.89-26.72-19.83-29.89-25.76-3.41-6.35-7-24.37-7-41.06a9.68,9.68,0,0,0-13.44-8.91h0A9.67,9.67,0,0,0,82.69,330.45Z"/><path class="cls-5" d="M87.82,325.32c0,19,3.92,40.09,9.34,50.2,6.58,12.3,31.24,29.35,36.11,32.64a9.65,9.65,0,0,0,9.19.89A9.67,9.67,0,0,0,139,397.27c-10.18-6.89-26.72-19.83-29.89-25.76-3.41-6.35-7-24.37-7-41.06a9.68,9.68,0,0,0-13.44-8.91h0A9.66,9.66,0,0,0,87.82,325.32Z"/><path class="cls-7" d="M105.57,329.09l12-12a4.3,4.3,0,0,0,0-6.08l-1.61-1.61a4.3,4.3,0,0,0-6.08,0l-4.29,4.28V295a2.84,2.84,0,0,0-2.84-2.84h-1.51A2.84,2.84,0,0,0,98.38,295v-4.05a2.86,2.86,0,0,0-2.85-2.85H94a2.86,2.86,0,0,0-2.85,2.85v4.48a2.84,2.84,0,0,0-2.84-2.84H86.83A2.84,2.84,0,0,0,84,295.4v8.27a2.84,2.84,0,0,0-2.84-2.84H79.64a2.84,2.84,0,0,0-2.84,2.84V321.9a9.93,9.93,0,0,0,2.9,7l.25.23a9.83,9.83,0,0,0,6.77,2.67H99a9.31,9.31,0,0,0,6.58-2.72Z"/><path class="cls-8" d="M99.88,309.2V295a2.85,2.85,0,0,1,2.85-2.84h-1.51A2.84,2.84,0,0,0,98.38,295v15.74S99.88,310,99.88,309.2Z"/><path class="cls-8" d="M85.5,309.63V295.4a2.84,2.84,0,0,1,2.84-2.84H86.83A2.84,2.84,0,0,0,84,295.4v15.74S85.5,310.46,85.5,309.63Z"/><path class="cls-8" d="M92.69,307.63V290.92a2.85,2.85,0,0,1,2.84-2.85H94a2.86,2.86,0,0,0-2.85,2.85v18.22S92.69,308.46,92.69,307.63Z"/><path class="cls-8" d="M109.86,309.41l-4.29,4.28V317l5.92-5.93a4.29,4.29,0,0,1,6.06,0l-1.61-1.61A4.3,4.3,0,0,0,109.86,309.41Z"/><path class="cls-8" d="M86.71,331.81a9.88,9.88,0,0,1-6.63-2.54l-.06-.06-.08-.07h0a9.88,9.88,0,0,1-3.16-7.25V303.66a2.85,2.85,0,0,1,2.85-2.84h1.5a2.84,2.84,0,0,0-2.84,2.84v16.49a9.06,9.06,0,0,0,5,7.72,6,6,0,0,1,3.29,3.58Z"/><path class="cls-7" d="M156.31,379.3V392a11.72,11.72,0,0,0,23.43,0V379.3Z"/><path class="cls-8" d="M179.74,379.3V392A11.71,11.71,0,0,1,174,402.11v-13.6a34.31,34.31,0,0,1-13.25,2.64,37.57,37.57,0,0,1-4.41-.27V379.3Z"/><path class="cls-8" d="M204.27,322.92h5.81a0,0,0,0,1,0,0v18.18a0,0,0,0,1,0,0h-5.81a9.09,9.09,0,0,1-9.09-9.09v0A9.09,9.09,0,0,1,204.27,322.92Z" transform="translate(405.26 664.01) rotate(-180)"/><path class="cls-9" d="M199.08,328.1h6.1a0,0,0,0,1,0,0v7.8a0,0,0,0,1,0,0h-6.1a3.9,3.9,0,0,1-3.9-3.9v0A3.9,3.9,0,0,1,199.08,328.1Z" transform="translate(400.36 664.01) rotate(180)"/><path class="cls-8" d="M123.72,322.92h2.54a0,0,0,0,1,0,0v18.18a0,0,0,0,1,0,0h-2.54a9.09,9.09,0,0,1-9.09-9.09v0A9.09,9.09,0,0,1,123.72,322.92Z"/><path class="cls-9" d="M123.42,328.1h2.84a0,0,0,0,1,0,0v7.8a0,0,0,0,1,0,0h-2.84a3.9,3.9,0,0,1-3.9-3.9v0a3.9,3.9,0,0,1,3.9-3.9Z"/><path class="cls-10" d="M133,322.92v5.86a13.45,13.45,0,0,1-13.44-13.45V288H133Z"/><path class="cls-8" d="M126.26,302.69v47.87A34.49,34.49,0,0,0,153,384.15a35.06,35.06,0,0,0,7.72.86,34.45,34.45,0,0,0,34.46-34.45V302.69a18.88,18.88,0,0,0-18.89-18.88H145.14a18.39,18.39,0,0,0-5.27.75A18.87,18.87,0,0,0,126.26,302.69Z"/><path class="cls-7" d="M126.26,302.69v47.87A34.49,34.49,0,0,0,153,384.15a34.48,34.48,0,0,0,26.74-33.59V332.24a48.45,48.45,0,0,0-39.87-47.68A18.87,18.87,0,0,0,126.26,302.69Z"/><rect class="cls-8" x="145.75" y="334.41" width="17.47" height="10.45" rx="5.22"/><rect class="cls-8" x="151.91" y="283.8" width="8.81" height="54.15"/><rect class="cls-11" x="165.3" y="305.97" width="9.55" height="17.88" rx="4.77" transform="translate(340.15 629.83) rotate(180)"/><rect class="cls-11" x="137.78" y="305.97" width="9.55" height="17.88" rx="4.77" transform="translate(285.11 629.83) rotate(-180)"/><path class="cls-9" d="M159.47,364.11a15,15,0,0,0,15-15,2.83,2.83,0,1,0-5.66,0,9.35,9.35,0,0,1-9.34,9.33,2.83,2.83,0,0,0,0,5.66Z"/><path class="cls-10" d="M195.18,341.09H201a9,9,0,0,0,2.9-.48V343a8.73,8.73,0,0,1-8.73,8.73Z"/><path class="cls-10" d="M195.18,322.89H201a8.92,8.92,0,0,1,2.75.48h.15V299.59a20,20,0,0,0-20-20H160.72v5a11.79,11.79,0,0,0,11.79,11.79h0a7.23,7.23,0,0,1,7.23,7.22v4.24a15,15,0,0,0,15,15l.41,0Z"/><rect class="cls-12" x="115.99" y="279.62" width="66.33" height="16.78" rx="8.39"/><path class="cls-2" d="M328,483.5h45.51A253.66,253.66,0,0,1,328,501.74Z"/><path class="cls-3" d="M373.48,483.5A253.66,253.66,0,0,1,328,501.74V483.5Z"/><path class="cls-4" d="M398.85,416.76v51.71Q390.63,474,382,478.9q-4.19,2.39-8.47,4.59H328V416.76a26.38,26.38,0,0,1,26.38-26.39h18.13A26.39,26.39,0,0,1,398.85,416.76Z"/><path class="cls-5" d="M382,416.76V478.9q-4.19,2.39-8.47,4.59H328V416.76a26.38,26.38,0,0,1,26.38-26.39h1.25A26.39,26.39,0,0,1,382,416.76Z"/><path class="cls-6" d="M380,434.53l-3.79,2.8a5,5,0,0,1-5.89,0l-3.79-2.8a5,5,0,0,1-2-4V418.8a3.25,3.25,0,0,1,3.24-3.25h11A3.25,3.25,0,0,1,382,418.8v11.74A5,5,0,0,1,380,434.53Z"/><path class="cls-4" d="M445.05,330.45c0,19-3.93,40.09-9.35,50.19C429.12,393,404.46,410,399.59,413.29a9.66,9.66,0,0,1-13.42-2.59,9.86,9.86,0,0,1-.9-1.65,9.68,9.68,0,0,1,3.49-11.78c10.18-6.89,26.73-19.83,29.9-25.76,3.4-6.35,7-24.37,7-41.06a9.67,9.67,0,0,1,13.43-8.91h0A9.68,9.68,0,0,1,445.05,330.45Z"/><path class="cls-5" d="M439.92,325.32c0,19-3.93,40.09-9.34,50.2-6.59,12.3-31.25,29.35-36.12,32.64a9.65,9.65,0,0,1-9.19.89,9.68,9.68,0,0,1,3.49-11.78c10.18-6.89,26.73-19.83,29.9-25.76,3.4-6.35,7-24.37,7-41.06a9.67,9.67,0,0,1,13.43-8.91h0A9.67,9.67,0,0,1,439.92,325.32Z"/><path class="cls-13" d="M422.16,329.1a9.34,9.34,0,0,0,6.58,2.72H441a9.81,9.81,0,0,0,6.77-2.67,2.73,2.73,0,0,0,.25-.23,9.93,9.93,0,0,0,2.91-7V303.67a2.85,2.85,0,0,0-2.85-2.84h-1.5a2.85,2.85,0,0,0-2.85,2.84V295.4a2.84,2.84,0,0,0-2.84-2.84h-1.51a2.84,2.84,0,0,0-2.84,2.84v-4.48a2.85,2.85,0,0,0-2.84-2.85H432.2a2.85,2.85,0,0,0-2.84,2.85V295a2.85,2.85,0,0,0-2.85-2.84H425a2.85,2.85,0,0,0-2.85,2.84v18.72l-4.28-4.28a4.31,4.31,0,0,0-6.09,0L410.18,311a4.3,4.3,0,0,0,0,6.08l12,12Z"/><path class="cls-14" d="M427.85,309.2V295a2.84,2.84,0,0,0-2.84-2.84h1.51a2.84,2.84,0,0,1,2.84,2.84v15.74S427.85,310,427.85,309.2Z"/><path class="cls-14" d="M442.23,309.63V295.4a2.84,2.84,0,0,0-2.84-2.84h1.51a2.84,2.84,0,0,1,2.84,2.84v15.74S442.23,310.46,442.23,309.63Z"/><path class="cls-14" d="M435,307.63V290.92a2.85,2.85,0,0,0-2.84-2.85h1.51a2.85,2.85,0,0,1,2.84,2.85v18.22S435,308.46,435,307.63Z"/><path class="cls-14" d="M417.88,309.41l4.28,4.28V317L416.24,311a4.29,4.29,0,0,0-6.06,0l1.61-1.61A4.31,4.31,0,0,1,417.88,309.41Z"/><path class="cls-14" d="M441,331.81a9.88,9.88,0,0,0,6.62-2.54l.06-.06.09-.07h0a9.88,9.88,0,0,0,3.16-7.25V303.66a2.84,2.84,0,0,0-2.84-2.84H446.6a2.84,2.84,0,0,1,2.84,2.84v16.49a9.06,9.06,0,0,1-5,7.72,6,6,0,0,0-3.29,3.58Z"/><path class="cls-4" d="M278.07,330.45c0,19,3.93,40.09,9.34,50.19C294,393,318.65,410,323.52,413.29A9.68,9.68,0,0,0,337,410.7a9.8,9.8,0,0,0,.89-1.65,9.67,9.67,0,0,0-3.49-11.78c-10.18-6.89-26.72-19.83-29.89-25.76-3.41-6.35-7-24.37-7-41.06A9.68,9.68,0,0,0,284,321.54h0A9.67,9.67,0,0,0,278.07,330.45Z"/><path class="cls-5" d="M283.2,325.32c0,19,3.92,40.09,9.34,50.2,6.59,12.3,31.24,29.35,36.12,32.64a9.63,9.63,0,0,0,9.18.89,9.67,9.67,0,0,0-3.49-11.78c-10.18-6.89-26.72-19.83-29.89-25.76-3.41-6.35-7-24.37-7-41.06A9.68,9.68,0,0,0,284,321.54h0A9.66,9.66,0,0,0,283.2,325.32Z"/><path class="cls-13" d="M301,329.09l12-12a4.3,4.3,0,0,0,0-6.08l-1.61-1.61a4.3,4.3,0,0,0-6.08,0L301,313.69V295a2.84,2.84,0,0,0-2.84-2.84H296.6a2.84,2.84,0,0,0-2.84,2.84v-4.05a2.86,2.86,0,0,0-2.84-2.85h-1.51a2.86,2.86,0,0,0-2.85,2.85v4.48a2.84,2.84,0,0,0-2.84-2.84h-1.51a2.84,2.84,0,0,0-2.84,2.84v8.27a2.84,2.84,0,0,0-2.84-2.84H275a2.84,2.84,0,0,0-2.84,2.84V321.9a9.89,9.89,0,0,0,2.91,7,2.61,2.61,0,0,0,.24.23,9.83,9.83,0,0,0,6.77,2.67h12.28A9.3,9.3,0,0,0,301,329.1Z"/><path class="cls-14" d="M295.26,309.2V295a2.85,2.85,0,0,1,2.85-2.84H296.6a2.84,2.84,0,0,0-2.84,2.84v15.74S295.26,310,295.26,309.2Z"/><path class="cls-14" d="M280.88,309.63V295.4a2.84,2.84,0,0,1,2.84-2.84h-1.51a2.84,2.84,0,0,0-2.84,2.84v15.74S280.88,310.46,280.88,309.63Z"/><path class="cls-14" d="M288.07,307.63V290.92a2.85,2.85,0,0,1,2.84-2.85h-1.5a2.86,2.86,0,0,0-2.85,2.85v18.22S288.07,308.46,288.07,307.63Z"/><path class="cls-14" d="M305.24,309.41,301,313.69V317l5.93-5.93a4.28,4.28,0,0,1,6.05,0l-1.61-1.61A4.3,4.3,0,0,0,305.24,309.41Z"/><path class="cls-14" d="M282.09,331.81a9.88,9.88,0,0,1-6.63-2.54l-.06-.06-.08-.07h0a9.87,9.87,0,0,1-3.15-7.25V303.66a2.84,2.84,0,0,1,2.84-2.84h1.51a2.85,2.85,0,0,0-2.85,2.84v16.49a9.06,9.06,0,0,0,5,7.72,6,6,0,0,1,3.29,3.58Z"/><path class="cls-13" d="M351.69,379.3V392a11.72,11.72,0,0,0,23.43,0V379.3Z"/><path class="cls-14" d="M375.12,379.3V392a11.71,11.71,0,0,1-5.77,10.09v-13.6a34.31,34.31,0,0,1-13.25,2.64,37.7,37.7,0,0,1-4.41-.27V379.3Z"/><path class="cls-14" d="M399.65,322.92h5.81a0,0,0,0,1,0,0v18.18a0,0,0,0,1,0,0h-5.81a9.09,9.09,0,0,1-9.09-9.09v0A9.09,9.09,0,0,1,399.65,322.92Z" transform="translate(796.02 664.01) rotate(-180)"/><path class="cls-15" d="M394.46,328.1h6.1a0,0,0,0,1,0,0v7.8a0,0,0,0,1,0,0h-6.1a3.9,3.9,0,0,1-3.9-3.9v0a3.9,3.9,0,0,1,3.9-3.9Z" transform="translate(791.13 664.01) rotate(180)"/><path class="cls-14" d="M319.1,322.92h2.54a0,0,0,0,1,0,0v18.18a0,0,0,0,1,0,0H319.1A9.09,9.09,0,0,1,310,332v0A9.09,9.09,0,0,1,319.1,322.92Z"/><path class="cls-15" d="M318.81,328.1h2.84a0,0,0,0,1,0,0v7.8a0,0,0,0,1,0,0h-2.84a3.9,3.9,0,0,1-3.9-3.9v0A3.9,3.9,0,0,1,318.81,328.1Z"/><path class="cls-14" d="M321.64,302.69v47.87a34.49,34.49,0,0,0,26.74,33.59,35.06,35.06,0,0,0,7.72.86,34.46,34.46,0,0,0,34.47-34.45V302.69a18.89,18.89,0,0,0-18.9-18.88H340.52a18.39,18.39,0,0,0-5.27.75A18.87,18.87,0,0,0,321.64,302.69Z"/><path class="cls-13" d="M321.64,302.69v47.87a34.49,34.49,0,0,0,26.74,33.59,34.48,34.48,0,0,0,26.74-33.59V332.24a48.45,48.45,0,0,0-39.87-47.68A18.87,18.87,0,0,0,321.64,302.69Z"/><rect class="cls-16" x="341.13" y="334.41" width="17.47" height="10.45" rx="5.22" transform="translate(699.74 679.27) rotate(180)"/><path class="cls-16" d="M347.29,306.14h8.81a0,0,0,0,1,0,0v27.41A4.41,4.41,0,0,1,351.7,338h0a4.41,4.41,0,0,1-4.41-4.41V306.14A0,0,0,0,1,347.29,306.14Z" transform="translate(703.39 644.09) rotate(180)"/><rect class="cls-11" x="360.68" y="305.97" width="9.55" height="17.88" rx="4.77" transform="translate(730.91 629.83) rotate(-180)"/><rect class="cls-11" x="333.16" y="305.97" width="9.55" height="17.88" rx="4.77" transform="translate(675.87 629.83) rotate(-180)"/><path class="cls-15" d="M354.85,364.11a15,15,0,0,0,15-15,2.84,2.84,0,1,0-5.67,0,9.35,9.35,0,0,1-9.34,9.33,2.83,2.83,0,0,0,0,5.66Z"/><path class="cls-2" d="M225.07,196.62l-14.94,4A11.54,11.54,0,0,1,196,192.48l-12.57-46.91a11.51,11.51,0,0,1,8.14-14.11l14.95-4Z"/><path class="cls-3" d="M220.66,180.15l-26.07,7-11.14-41.57a11.51,11.51,0,0,1,8.14-14.11l14.95-4Z"/><path class="cls-5" d="M165.28,132.55l-46,12.33a12.49,12.49,0,0,1-14.35-6.37,13.3,13.3,0,0,1-1-2.47,12.51,12.51,0,0,1,8.84-15.3l46-12.32a12.49,12.49,0,1,1,6.47,24.13Z"/><path class="cls-4" d="M165.28,132.55l-46,12.33a12.49,12.49,0,0,1-14.35-6.37l69.6-18.65a12.49,12.49,0,0,1-9.25,12.69Z"/><path class="cls-7" d="M187.93,148.88,157,131a12.49,12.49,0,0,1-5.65-14.65,12.7,12.7,0,0,1,1.08-2.42,12.49,12.49,0,0,1,17.06-4.57l31,17.89a12.49,12.49,0,1,1-12.49,21.64Z"/><path class="cls-8" d="M187.93,148.88,157,131a12.49,12.49,0,0,1-5.65-14.65l52.15,30.1a12.49,12.49,0,0,1-15.52,2.44Z"/><path class="cls-17" d="M77.23,93.08a2.32,2.32,0,0,1,1.51-2.91l2.22-.7,1.4,4.42-2.21.7A2.32,2.32,0,0,1,77.23,93.08Z"/><path class="cls-17" d="M79.2,102.77a2.31,2.31,0,0,1,1.51-2.91l2.21-.7,1.4,4.42-2.21.71A2.32,2.32,0,0,1,79.2,102.77Z"/><path class="cls-17" d="M81,111.84a2.33,2.33,0,0,1,1.51-2.91l2.22-.7,1.4,4.42-2.21.7A2.32,2.32,0,0,1,81,111.84Z"/><path class="cls-17" d="M89.62,141.35a2.33,2.33,0,0,1,1.51-2.92l2.21-.7,1.41,4.43-2.22.7A2.32,2.32,0,0,1,89.62,141.35Z"/><path class="cls-17" d="M91.77,148.12a2.31,2.31,0,0,1,1.51-2.91l2.21-.71,1.41,4.43-2.22.7A2.31,2.31,0,0,1,91.77,148.12Z"/><path class="cls-18" d="M119.6,144.73a5.58,5.58,0,0,1-3.88,5.83l-9.87,3.11A7.23,7.23,0,0,1,96.78,149l-3.53-11.2a4.84,4.84,0,0,1,.23-3.49,6.11,6.11,0,0,0-.67-6.27,42.59,42.59,0,0,1-6.74-13L80.94,89.46a6.72,6.72,0,0,1,4.57-7.73c4.72-1,9.53,2.75,10.12,7.51a20.05,20.05,0,0,0,3.16,8.34c2.46,4,12.63,14.64,17.2,19.69a5.62,5.62,0,0,1,1.42,3.25Z"/><path class="cls-19" d="M105.85,153.67A7.23,7.23,0,0,1,96.78,149l-3.53-11.2a4.84,4.84,0,0,1,.23-3.49,6.11,6.11,0,0,0-.67-6.27,42.59,42.59,0,0,1-6.74-13L80.94,89.46a6.72,6.72,0,0,1,4.57-7.73A40.4,40.4,0,0,0,86,96.31l3.53,16.43c.54,2.49,1.2,5,2,7.39l6,18.67a42,42,0,0,0,3.43,7.86A42.67,42.67,0,0,0,105.85,153.67Z"/><path class="cls-20" d="M115.72,150.55c-2.44-3.38-5.15-6.6-7-10.33a21.35,21.35,0,0,1-2.12-8.47c-1.43-22.7-16.44-24.9-16.7-49.63a9,9,0,0,1,5.68,7.12,20.05,20.05,0,0,0,3.16,8.34c2.7,4.4,13.67,15.67,17.19,19.72a5.57,5.57,0,0,1,1.43,3.25l2.19,24.17A5.58,5.58,0,0,1,115.72,150.55Z"/><path class="cls-21" d="M113,116.1c4.15,1.51,8,.62,9-2.08s-1.41-5.86-5.56-7.37a9.1,9.1,0,0,0-6,.21l0,0a9,9,0,0,0,4-4.43c1.51-4.15.62-8-2.07-9S106.51,94.8,105,99c-1,2.86.12,6,.84,7.48a3.62,3.62,0,0,0-.22.32l-4.27,7.39a2.78,2.78,0,0,0,4.81,2.78l2.6-4.52A8.86,8.86,0,0,0,113,116.1Zm-5.36-13.36a5.25,5.25,0,0,1,.11-2.78c1-2.73,2.84-4.1,3.63-3.82,1.48.7,1.09,5.85-1.38,7.45A1.46,1.46,0,0,1,107.64,102.74Zm4.16,8.91a1.47,1.47,0,0,1,.86-2.36,5.25,5.25,0,0,1,2.78.11c2.72,1,4.1,2.84,3.81,3.62C118.56,114.5,113.41,114.12,111.8,111.65Z"/><path class="cls-3" d="M172.18,142l14.41-25a5.56,5.56,0,0,1,7.58-2l3.53,2c9.54,5.51,13.21,18,7.69,27.49h0c-5.51,9.55-18.11,12.59-27.65,7.08l-3.53-2A5.56,5.56,0,0,1,172.18,142Z"/><path class="cls-5" d="M180.81,205.34,157,246.58a12.49,12.49,0,0,1-14.65,5.65,12.9,12.9,0,0,1-2.41-1.08,12.48,12.48,0,0,1-4.58-17.06l23.81-41.24a12.49,12.49,0,1,1,21.64,12.49Z"/><path class="cls-4" d="M180.81,205.34,157,246.58a12.49,12.49,0,0,1-14.65,5.65l36-62.4a12.5,12.5,0,0,1,2.43,15.51Z"/><path class="cls-7" d="M208.37,200.87l-34.56,9.26a12.49,12.49,0,0,1-14.35-6.37,12,12,0,0,1-1-2.47,12.5,12.5,0,0,1,8.83-15.3l34.56-9.26a12.5,12.5,0,1,1,6.47,24.14Z"/><path class="cls-8" d="M208.37,200.87l-34.56,9.26a12.49,12.49,0,0,1-14.35-6.37l58.16-15.58a12.49,12.49,0,0,1-9.25,12.69Z"/><path class="cls-17" d="M90.64,239.69a2.32,2.32,0,0,1-1-3.13l1.07-2.06,4.12,2.14-1.07,2.06A2.32,2.32,0,0,1,90.64,239.69Z"/><path class="cls-17" d="M98.88,245.16a2.32,2.32,0,0,1-1-3.13L99,240l4.12,2.13L102,244.16A2.32,2.32,0,0,1,98.88,245.16Z"/><path class="cls-17" d="M106.59,250.27a2.33,2.33,0,0,1-1-3.13l1.07-2.06,4.12,2.14-1.06,2.06A2.33,2.33,0,0,1,106.59,250.27Z"/><path class="cls-17" d="M133.53,265.06a2.32,2.32,0,0,1-1-3.13l1.06-2.06,4.13,2.14-1.07,2.06A2.32,2.32,0,0,1,133.53,265.06Z"/><path class="cls-17" d="M139.84,268.33a2.32,2.32,0,0,1-1-3.13l1.07-2.06,4.13,2.14L143,267.34A2.32,2.32,0,0,1,139.84,268.33Z"/><path class="cls-18" d="M157.12,246.25a5.59,5.59,0,0,1,1.38,6.87l-4.78,9.18a7.22,7.22,0,0,1-9.75,3.07L133.55,260a4.8,4.8,0,0,1-2.3-2.63,6.11,6.11,0,0,0-4.91-3.95,43,43,0,0,1-14-4.44L90.7,234.51a6.73,6.73,0,0,1-2.24-8.7c2.64-4.05,8.7-4.79,12.47-1.84a20,20,0,0,0,8.14,3.66c4.57,1.11,19.27,1.42,26.08,1.77a5.61,5.61,0,0,1,3.3,1.28Z"/><path class="cls-19" d="M153.72,262.3a7.22,7.22,0,0,1-9.75,3.07L133.55,260a4.8,4.8,0,0,1-2.3-2.63,6.11,6.11,0,0,0-4.91-3.95,43,43,0,0,1-14-4.44L90.7,234.51a6.73,6.73,0,0,1-2.24-8.7,40.8,40.8,0,0,0,10.64,10l14.12,9.12a76.25,76.25,0,0,0,6.62,3.82l17.44,9a42,42,0,0,0,8,3.14A43.15,43.15,0,0,0,153.72,262.3Z"/><path class="cls-20" d="M158.5,253.12c-4.12-.67-8.32-1-12.23-2.4a21.4,21.4,0,0,1-7.49-4.48c-17-15-29.23-6-46.9-23.29a8.94,8.94,0,0,1,9.05,1,20,20,0,0,0,8.13,3.66c5,1.2,20.75,1.41,26.1,1.79a5.62,5.62,0,0,1,3.32,1.29l18.64,15.54A5.6,5.6,0,0,1,158.5,253.12Z"/><path class="cls-21" d="M132.21,230.68c4-1.87,6.11-5.24,4.9-7.84s-5.15-3.15-9.15-1.28a9,9,0,0,0-4.06,4.37h-.05a9,9,0,0,0-.31-6c-1.86-4-5.23-6.11-7.83-4.9s-3.15,5.15-1.28,9.15c1.29,2.77,4.31,4.14,5.89,4.7a1.8,1.8,0,0,0,.07.38l2.21,8.24a2.74,2.74,0,0,0,1.29,1.69,2.81,2.81,0,0,0,2.1.28,2.77,2.77,0,0,0,2-3.4l-1.34-5A8.83,8.83,0,0,0,132.21,230.68ZM119,225a5.26,5.26,0,0,1-1.89-2.05c-1.22-2.63-.89-4.9-.13-5.26,1.54-.55,4.91,3.36,4.3,6.24A1.47,1.47,0,0,1,119,225Zm9.24,3.36a1.47,1.47,0,0,1-1.06-2.28,5.21,5.21,0,0,1,2-1.88c2.63-1.23,4.91-.9,5.26-.14C135,225.62,131.1,229,128.21,228.38Z"/><path class="cls-2" d="M203.09,210l-3.93,1.05a5.54,5.54,0,0,1-6.79-3.91L184.9,179.3a5.55,5.55,0,0,1,3.93-6.79l3.93-1.06A20.53,20.53,0,0,1,216,181.39a18.65,18.65,0,0,1,1.6,4.06,19.63,19.63,0,0,1-2.21,15.2A20.6,20.6,0,0,1,203.09,210Z"/><path class="cls-3" d="M216,181.39,187.51,189l-2.61-9.74a5.55,5.55,0,0,1,3.93-6.79l3.93-1.06A20.53,20.53,0,0,1,216,181.39Z"/><path class="cls-4" d="M282.88,131.26c-27.43-10.64-41-20.46-44.18-32.15-4.95-20.2,18.17-32,38.2-42.72L280,62.26l6,11.39c-8.26,4.38-16.81,9-22.56,13.48a32.53,32.53,0,0,0-3.83,3.4,4.57,4.57,0,0,0,.11,6.38c3.24,3.2,11.11,8.74,30.18,16.13L286,123.13Z"/><path class="cls-5" d="M286,123.13c-24.53-7.93-36.7-15.75-39.28-25.39C243,82.06,261.52,71.55,280,62.26l6,11.39c-8.26,4.38-16.81,9-22.56,13.48a32.53,32.53,0,0,0-3.83,3.4,4.57,4.57,0,0,0,.11,6.38c3.24,3.2,11.11,8.74,30.18,16.13Z"/><path class="cls-7" d="M284.73,76.33l16.54-4.43a4.34,4.34,0,0,0,3.07-5.32l-.59-2.22a4.35,4.35,0,0,0-5.33-3.08l-5.91,1.59L302,46.49a2.87,2.87,0,0,0-1.05-3.92l-1.32-.77a2.89,2.89,0,0,0-3.93,1.05l2.05-3.54a2.87,2.87,0,0,0-1.05-3.92l-1.32-.77a2.87,2.87,0,0,0-3.92,1.05l-2.27,3.93a2.89,2.89,0,0,0-1.05-3.93l-1.32-.76A2.87,2.87,0,0,0,282.87,36l-4.18,7.24a2.87,2.87,0,0,0-1.05-3.92l-1.32-.76a2.86,2.86,0,0,0-3.92,1l-9.21,15.94a10,10,0,0,0-1,7.61l.09.33a10,10,0,0,0,4.58,5.76l10.74,6.2a9.44,9.44,0,0,0,7.13.94Z"/><path class="cls-8" d="M289.8,56.06l.16-.26,7-12.18a2.86,2.86,0,0,1,3.92-1h0l-1.32-.77a2.88,2.88,0,0,0-3.92,1.05l-7.95,13.77S289.38,56.79,289.8,56.06Z"/><path class="cls-8" d="M277,49.18l.16-.27,7-12.18a2.87,2.87,0,0,1,3.92-1h0l-1.32-.76a2.86,2.86,0,0,0-3.92,1l-7.95,13.76S276.58,49.91,277,49.18Z"/><path class="cls-8" d="M284.3,51.06l.16-.27,8.29-14.35a2.86,2.86,0,0,1,3.92-1h0l-1.32-.76a2.87,2.87,0,0,0-3.92,1.05l-9.21,15.95S283.88,51.79,284.3,51.06Z"/><path class="cls-8" d="M298.42,61.28l-5.91,1.59-1.64,2.84L299,63.52a4.32,4.32,0,0,1,5.3,3.06l-.59-2.23A4.36,4.36,0,0,0,298.42,61.28Z"/><path class="cls-8" d="M266.86,69.19a9.9,9.9,0,0,1-4.51-5.57l0-.08s0-.07,0-.11h0a10,10,0,0,1,.9-7.94l9.2-15.94a2.89,2.89,0,0,1,3.93-1l1.31.76h0a2.88,2.88,0,0,0-3.92,1.05l-8.29,14.36,0,.07a9.13,9.13,0,0,0,.49,9.28,6.09,6.09,0,0,1,1.07,4.79Z"/><path class="cls-4" d="M225.07,196.62l65.13-17.45A26.64,26.64,0,0,0,309,146.53l-4.74-17.69A26.64,26.64,0,0,0,271.66,110l-65.12,17.45Z"/><path class="cls-5" d="M206.54,127.45,271.66,110a26.64,26.64,0,0,1,32.64,18.84l.33,1.22a26.65,26.65,0,0,1-18.85,32.64l-65.12,17.45Z"/><path class="cls-6" d="M267.91,165.39l-3.72-3a5,5,0,0,1-1.54-5.75l1.74-4.42a5,5,0,0,1,3.37-3l11.46-3.07a3.27,3.27,0,0,1,4,2.31l2.88,10.75a3.28,3.28,0,0,1-2.32,4l-11.46,3.07A5,5,0,0,1,267.91,165.39Z"/><path class="cls-4" d="M299.72,159.46a8.57,8.57,0,0,1,4.8,11.35c-9.39,22-18.36,33.18-28.82,36-20.2,4.94-32-18.18-42.72-38.21l5.87-3.11,11.39-6c4.39,8.26,9,16.81,13.48,22.57a33.3,33.3,0,0,0,3.41,3.83,4.57,4.57,0,0,0,6.39-.14c2.91-2.95,7.72-9.69,14.09-25.09a5.57,5.57,0,0,1,7.15-3.08l5,1.93Z"/><path class="cls-5" d="M294.77,157.54a5.56,5.56,0,0,1,3.24,7c-7.36,21.13-14.73,31.78-23.67,34.17-15.69,3.78-26.2-14.75-35.49-33.25l11.39-6c4.39,8.26,9,16.81,13.48,22.57a33.3,33.3,0,0,0,3.41,3.83,4.57,4.57,0,0,0,6.39-.14c2.91-2.95,7.73-9.7,14.1-25.11a5.56,5.56,0,0,1,7.15-3.05Z"/><path class="cls-7" d="M252.93,160.76l-4.44-16.54a4.34,4.34,0,0,0-5.32-3.07l-2.22.6a4.33,4.33,0,0,0-3.07,5.32l1.58,5.91-16.38-9.45a2.87,2.87,0,0,0-3.92,1.05l-.77,1.32a2.88,2.88,0,0,0,1.06,3.92l-3.55-2a2.87,2.87,0,0,0-3.92,1l-.76,1.32a2.88,2.88,0,0,0,1.05,3.93l3.92,2.26a2.87,2.87,0,0,0-3.92,1l-.77,1.32a2.87,2.87,0,0,0,1.06,3.92l7.23,4.18a2.88,2.88,0,0,0-3.92,1l-.76,1.32a2.89,2.89,0,0,0,1,3.93l15.94,9.2a10,10,0,0,0,7.61,1l.33-.09a10,10,0,0,0,5.76-4.58l6.2-10.74a9.44,9.44,0,0,0,.94-7.13Z"/><path class="cls-8" d="M232.66,155.69l-.27-.16-12.18-7a2.86,2.86,0,0,1-1.05-3.92h0l-.76,1.32a2.86,2.86,0,0,0,1,3.92l13.76,8S233.38,156.11,232.66,155.69Z"/><path class="cls-8" d="M225.77,168.49l-.27-.15-12.18-7a2.89,2.89,0,0,1-1-3.93h0l-.76,1.32a2.87,2.87,0,0,0,1.05,3.93l13.77,7.94S226.5,168.91,225.77,168.49Z"/><path class="cls-8" d="M227.65,161.19l-.27-.16L213,152.75a2.87,2.87,0,0,1-1.05-3.93h0l-.77,1.32a2.88,2.88,0,0,0,1.06,3.93l15.94,9.2S228.38,161.61,227.65,161.19Z"/><path class="cls-8" d="M237.87,147.07l1.59,5.91,2.84,1.65-2.19-8.18a4.33,4.33,0,0,1,3.06-5.3l-2.22.6A4.35,4.35,0,0,0,237.87,147.07Z"/><path class="cls-8" d="M245.78,178.64a9.94,9.94,0,0,1-5.57,4.51l-.08,0-.1,0h0a10,10,0,0,1-7.94-.91l-15.94-9.2a2.87,2.87,0,0,1-1-3.92l.76-1.32h0a2.87,2.87,0,0,0,1.05,3.92l14.36,8.29.07,0a9.17,9.17,0,0,0,9.29-.48,6,6,0,0,1,4.78-1.07Z"/><path class="cls-7" d="M314.42,123.36,302,126.69a11.83,11.83,0,0,0,6.12,22.86l12.41-3.33Z"/><path class="cls-8" d="M320.54,146.22l-12.41,3.33a11.83,11.83,0,0,1-11.35-3L310.05,143a35.23,35.23,0,0,1-6.93-16.61l11.3-3Z"/><path class="cls-8" d="M374.34,147h5.87a0,0,0,0,1,0,0v18.36a0,0,0,0,1,0,0h-5.87a9.18,9.18,0,0,1-9.18-9.18v0A9.18,9.18,0,0,1,374.34,147Z" transform="translate(318.26 556.6) rotate(-105)"/><path class="cls-9" d="M370.93,149.87h6.16a0,0,0,0,1,0,0v7.88a0,0,0,0,1,0,0h-6.16a3.94,3.94,0,0,1-3.94-3.94v0A3.94,3.94,0,0,1,370.93,149.87Z" transform="translate(319.77 552.98) rotate(-105)"/><path class="cls-8" d="M354.5,66.82h2.57a0,0,0,0,1,0,0V85.18a0,0,0,0,1,0,0H354.5A9.18,9.18,0,0,1,345.32,76v0A9.18,9.18,0,0,1,354.5,66.82Z" transform="matrix(0.26, 0.97, -0.97, 0.26, 333.71, -282.9)"/><path class="cls-9" d="M352.37,74.45h2.87a0,0,0,0,1,0,0v7.88a0,0,0,0,1,0,0h-2.87a3.94,3.94,0,0,1-3.94-3.94v0a3.94,3.94,0,0,1,3.94-3.94Z" transform="translate(336.49 -281.75) rotate(75)"/><path class="cls-10" d="M363.33,85.83l-5.72,1.53a13.58,13.58,0,0,1,9.61-16.63l26.66-7.15L397.4,76.7Z"/><path class="cls-8" d="M381.32,74,334.61,86.52a34.82,34.82,0,0,0,18,67.26l46.71-12.51a19.09,19.09,0,0,0,13.49-23.38L404.68,87.5a18.52,18.52,0,0,0-2.11-5A19.07,19.07,0,0,0,381.32,74Z"/><path class="cls-7" d="M381.32,74,334.61,86.52a34.83,34.83,0,0,0-25.79,34.88,34.83,34.83,0,0,0,39.77,17.31l17.87-4.79a48.94,48.94,0,0,0,36.11-51.37A19.07,19.07,0,0,0,381.32,74Z"/><rect class="cls-8" x="347.37" y="102.39" width="10.56" height="17.65" rx="5.28" transform="translate(-16.77 95.06) rotate(-15)"/><rect class="cls-8" x="353.83" y="101.03" width="54.71" height="8.9" transform="translate(-14.31 102.25) rotate(-15)"/><rect class="cls-11" x="368.21" y="113.02" width="9.65" height="18.07" rx="4.82" transform="translate(351.69 513.97) rotate(-105)"/><rect class="cls-11" x="361.02" y="86.16" width="9.65" height="18.07" rx="4.82" transform="translate(368.57 473.21) rotate(-105)"/><path class="cls-10" d="M361.87,151.3l1.51,5.67a9.28,9.28,0,0,0,1.23,2.71l-2.36.63a8.82,8.82,0,0,1-10.8-6.23Z"/><path class="cls-10" d="M379.62,146.55l1.52,5.66a9,9,0,0,1,.26,2.81l0,.15L404.64,149a20.19,20.19,0,0,0,14.27-24.72l-6.06-22.63L408,102.91a11.91,11.91,0,0,0-8.43,14.59h0a7.28,7.28,0,0,1-5.16,8.93l-4.13,1.11a15.18,15.18,0,0,0-10.74,18.61l.08.4Z"/><path class="cls-12" d="M391.86,59.89h0a4.87,4.87,0,0,1-6-3.45h0a4.84,4.84,0,0,1,.31-3.35l3.29-6.92a3.2,3.2,0,0,0-3.71-4.46l-6.64,1.78a17.41,17.41,0,0,0-12.32,21.34h0a15.05,15.05,0,0,0,7,9.16l7.57,4.37a23.69,23.69,0,0,1,11,14.37l6.87,25.66a9.11,9.11,0,0,0,11.16,6.44h0a9.1,9.1,0,0,0,6.44-11.15L404.45,67.16A10.28,10.28,0,0,0,391.86,59.89Z"/><path class="cls-11" d="M338.57,131.85a7.49,7.49,0,0,1-1.07.07,17.61,17.61,0,0,1-3.87-.49,9.36,9.36,0,0,1-7.35-6.93c-1.1-4.12.35-7.53,2.61-10.2a21.07,21.07,0,0,1,4-3.6,3.43,3.43,0,0,1,.33-.24,4.73,4.73,0,0,1,7.25,2.67l3,11.22A6,6,0,0,1,338.57,131.85Z"/><path class="cls-22" d="M333.63,131.43a9.36,9.36,0,0,1-7.35-6.93c-1.1-4.12.35-7.53,2.61-10.2a9.39,9.39,0,0,1,7.34,6.94A10.84,10.84,0,0,1,333.63,131.43Z"/><path class="cls-23" d="M328.29,244.9a1.94,1.94,0,0,1-.31-2.71,44.53,44.53,0,0,0-7.22-62.5,1.93,1.93,0,1,1,2.4-3A48.4,48.4,0,0,1,331,244.58,1.93,1.93,0,0,1,328.29,244.9Z"/><path class="cls-23" d="M315.92,269.5a1.84,1.84,0,0,1-.55-.68,1.93,1.93,0,0,1,.93-2.57,55.71,55.71,0,0,0,26.67-74,1.92,1.92,0,1,1,3.48-1.64,59.57,59.57,0,0,1-28.52,79.17A1.92,1.92,0,0,1,315.92,269.5Z"/></svg>