<svg id="_50" data-name="50" xmlns="http://www.w3.org/2000/svg" viewBox="0 0 512 512"><defs><style>.cls-1{fill:#4fcae8;}.cls-2{fill:#f9c744;}.cls-3{fill:#fbcb74;}.cls-4{fill:#f5b890;}.cls-5{fill:#d48d77;}.cls-6{fill:#fad98f;}.cls-7{fill:#334353;}.cls-8{fill:#7063ce;}.cls-9{fill:#6052a3;}.cls-10{fill:#c17e62;}.cls-11{fill:#eea47d;}.cls-12{fill:#3e4e60;}.cls-13{fill:#3f5d77;}.cls-14{fill:#ebd9ea;}.cls-15{fill:#fff;}.cls-16{fill:#c2aacf;}.cls-17{fill:#dd5e26;}.cls-18{fill:#daab42;}.cls-19{fill:#ea792e;}</style></defs><title>50-soccer-icons</title><circle class="cls-1" cx="256" cy="256" r="256"/><path class="cls-2" d="M309.74,347.82c-6.26,40.46-3.9,63.7,8,75.61,20.89,20,51.15.34,78.05-16.32l-4.91-7.83-9.53-15.2c-11,6.9-22.57,14-31.94,17.81a44.93,44.93,0,0,1-6.76,2.25,6.35,6.35,0,0,1-7.6-4.57c-1.61-6.13-2.81-19.47,1.55-47.58l-14.88-2.31Z"/><path class="cls-3" d="M321.73,349.68c-7.5,35.08-6.54,55.17,3.27,65,16.27,15.46,41.83.44,65.89-15.39l-9.53-15.2c-11,6.9-22.57,14-31.94,17.81a44.93,44.93,0,0,1-6.76,2.25,6.35,6.35,0,0,1-7.6-4.57c-1.61-6.13-2.81-19.47,1.55-47.58Z"/><path class="cls-4" d="M377.19,383.8a13.09,13.09,0,0,0-3.82,9.25V410.3a13.88,13.88,0,0,0,3.75,9.52l.33.34a13.92,13.92,0,0,0,9.87,4.09h25.61a4,4,0,0,0,4-4v-2.12a4,4,0,0,0-4-4h11.63a4,4,0,0,0,4-4V408a4,4,0,0,0-4-4h6.3a4,4,0,0,0,4-4v-2.12a4,4,0,0,0-4-4h-5.7a4,4,0,0,0,4-4V387.8a4,4,0,0,0-4-4H398.85l6-6a6,6,0,0,0,0-8.55L402.61,367a6,6,0,0,0-8.55,0l-16.85,16.85Z"/><path class="cls-5" d="M405.16,391.8h20a4,4,0,0,0,4-4h0v2.12a4,4,0,0,1-4,4H403.05S404,391.8,405.16,391.8Z"/><path class="cls-5" d="M404.56,412h20a4,4,0,0,0,4-4h0v2.12a4,4,0,0,1-4,4H402.44S403.39,412,404.56,412Z"/><path class="cls-5" d="M407.37,401.91h23.49a4,4,0,0,0,4-4h0V400a4,4,0,0,1-4,4H405.25S406.2,401.91,407.37,401.91Z"/><path class="cls-5" d="M404.88,377.78l-6,6h-4.57l8.33-8.33a6,6,0,0,0,0-8.52l2.27,2.27A6,6,0,0,1,404.88,377.78Z"/><path class="cls-5" d="M373.39,410.32a13.85,13.85,0,0,0,3.57,9.31l.08.09a1,1,0,0,0,.1.11h0a13.9,13.9,0,0,0,10.19,4.43H413a4,4,0,0,0,4-4v-2.12h0a4,4,0,0,1-4,4H389.78c-4.23.08-9-3.08-10.86-7a8.42,8.42,0,0,0-5-4.62Z"/><path class="cls-2" d="M340.76,369.05V497.63q-10.11,3.56-20.6,6.26h-79V369.05A37.07,37.07,0,0,1,278.2,332h25.48A37.07,37.07,0,0,1,340.76,369.05Z"/><path class="cls-6" d="M340.76,369.05V497.63q-10.11,3.56-20.6,6.26h-55l-.27-134.84A37.07,37.07,0,0,1,301.93,332h1.75A37.07,37.07,0,0,1,340.76,369.05Z"/><path class="cls-7" d="M260.1,424.38h0a4.76,4.76,0,0,1,4.76,4.76v40.91a0,0,0,0,1,0,0h-9.52a0,0,0,0,1,0,0V429.14a4.76,4.76,0,0,1,4.76-4.76Z"/><path class="cls-7" d="M321.78,424.38h0a4.76,4.76,0,0,1,4.76,4.76v40.91a0,0,0,0,1,0,0H317a0,0,0,0,1,0,0V429.14A4.76,4.76,0,0,1,321.78,424.38Z"/><path class="cls-7" d="M277.66,354.08l8.67,8.67a6.42,6.42,0,0,0,9.08,0l8.69-8.68a11.27,11.27,0,0,1,8-3.31h4.69a3.83,3.83,0,0,0,2.71-6.53L307.4,332.15H274.48l-12.05,12a3.83,3.83,0,0,0,2.67,6.54l4.68,0A11.31,11.31,0,0,1,277.66,354.08Z"/><path class="cls-8" d="M340.76,470.05v27.58a255.09,255.09,0,0,1-75.91,14.22q-4.41.15-8.85.15-7.5,0-14.88-.43V470.05Z"/><path class="cls-9" d="M264.85,470.05v41.8q-4.41.15-8.85.15-7.5,0-14.88-.43V470.05Z"/><path class="cls-2" d="M184.65,226.2c0,27.11,4.78,60.72,12.52,75.16,9.41,17.57,35.4,49.94,42.36,54.65A13.81,13.81,0,1,0,255,333.12c-14.54-9.84-28.95-36.34-33.48-44.81-4.86-9.07-9.24-38.26-9.24-62.11a13.84,13.84,0,0,0-19.2-12.73h0A13.83,13.83,0,0,0,184.65,226.2Z"/><path class="cls-3" d="M192,218.87c0,27.12,4.78,60.73,12.51,75.16,9.41,17.57,35.41,50,42.37,54.65A13.8,13.8,0,0,0,260,350a13.81,13.81,0,0,0-5-16.83c-14.54-9.84-28.95-36.34-33.48-44.81-4.86-9.07-9.24-38.26-9.24-62.11a13.84,13.84,0,0,0-19.2-12.73h0A13.85,13.85,0,0,0,192,218.87Z"/><path class="cls-4" d="M217.34,224.26l17.12-17.13a6.14,6.14,0,0,0,0-8.69l-2.31-2.3a6.14,6.14,0,0,0-8.69,0l-6.12,6.12V175.51a4.06,4.06,0,0,0-4.06-4.06h-2.15a4.08,4.08,0,0,0-4.07,4.06v-5.79a4.06,4.06,0,0,0-4.06-4.06h-2.15a4.07,4.07,0,0,0-4.06,4.06v6.41a4.06,4.06,0,0,0-4.06-4.06h-2.16a4.06,4.06,0,0,0-4.06,4.06V188a4.06,4.06,0,0,0-4.06-4.06h-2.16a4.07,4.07,0,0,0-4.06,4.06v26a14.11,14.11,0,0,0,4.16,10c.11.12.23.23.35.34a14.06,14.06,0,0,0,9.67,3.81H208a13.26,13.26,0,0,0,9.39-3.89Z"/><path class="cls-5" d="M209.22,195.84V175.52a4.06,4.06,0,0,1,4.06-4.06h-2.16a4.06,4.06,0,0,0-4.06,4.06V198S209.22,197,209.22,195.84Z"/><path class="cls-5" d="M188.67,196.46V176.13a4.06,4.06,0,0,1,4.06-4.06h-2.16a4.06,4.06,0,0,0-4.06,4.06v22.49S188.67,197.65,188.67,196.46Z"/><path class="cls-5" d="M198.94,193.6V169.72a4.06,4.06,0,0,1,4.06-4.06h-2.15a4.06,4.06,0,0,0-4.06,4.06v26S198.94,194.79,198.94,193.6Z"/><path class="cls-5" d="M223.46,196.14l-6.12,6.12v4.65l8.46-8.47a6.13,6.13,0,0,1,8.66,0l-2.3-2.3A6.16,6.16,0,0,0,223.46,196.14Z"/><path class="cls-5" d="M190.39,228.14a14,14,0,0,1-9.46-3.63l-.09-.08-.12-.1h0a14.14,14.14,0,0,1-4.5-10.36v-26a4.06,4.06,0,0,1,4.06-4.06h2.15a4.06,4.06,0,0,0-4.06,4.06v23.55c-.09,4.3,3.12,9.19,7.16,11a8.56,8.56,0,0,1,4.7,5.11Z"/><path class="cls-4" d="M307.4,316.4v17.88a16.46,16.46,0,1,1-32.92,0V316.4Z"/><path class="cls-5" d="M274.48,316.4v17.88a16.44,16.44,0,0,0,8.1,14.18V329.35a48.26,48.26,0,0,0,18.62,3.71,50.46,50.46,0,0,0,6.2-.39V316.4Z"/><path class="cls-5" d="M244.6,237.15h8.16a0,0,0,0,1,0,0V262.7a0,0,0,0,1,0,0H244.6a12.77,12.77,0,0,1-12.77-12.77v0a12.77,12.77,0,0,1,12.77-12.77Z"/><path class="cls-10" d="M244.19,244.44h8.58a0,0,0,0,1,0,0v11a0,0,0,0,1,0,0h-8.58a5.48,5.48,0,0,1-5.48-5.48v0a5.48,5.48,0,0,1,5.48-5.48Z"/><path class="cls-5" d="M362.41,237.15H366a0,0,0,0,1,0,0V262.7a0,0,0,0,1,0,0h-3.58a12.77,12.77,0,0,1-12.77-12.77v0A12.77,12.77,0,0,1,362.41,237.15Z" transform="translate(715.63 499.85) rotate(-180)"/><path class="cls-10" d="M355.12,244.44h4a0,0,0,0,1,0,0v11a0,0,0,0,1,0,0h-4a5.48,5.48,0,0,1-5.48-5.48v0A5.48,5.48,0,0,1,355.12,244.44Z" transform="translate(708.75 499.85) rotate(-180)"/><path class="cls-5" d="M349.64,208.72V276a48.44,48.44,0,0,1-96.88,0V208.72a26.55,26.55,0,0,1,26.56-26.54H323.1a26,26,0,0,1,7.41,1.06A26.52,26.52,0,0,1,349.64,208.72Z"/><path class="cls-4" d="M349.64,208.72V276a48.43,48.43,0,0,1-37.58,47.2A48.43,48.43,0,0,1,274.48,276V250.26a68.09,68.09,0,0,1,56-67A26.52,26.52,0,0,1,349.64,208.72Z"/><rect class="cls-11" x="297.68" y="253.31" width="24.56" height="14.69" rx="7.34"/><rect class="cls-7" x="292.7" y="282.38" width="19.06" height="11.4" rx="5.7" transform="translate(590.31 -14.15) rotate(90)"/><rect class="cls-11" x="301.2" y="182.18" width="12.39" height="76.11"/><rect class="cls-7" x="281.35" y="224.58" width="13.42" height="25.13" rx="6.71"/><rect class="cls-7" x="320.03" y="224.58" width="13.42" height="25.13" rx="6.71"/><path class="cls-12" d="M252.77,262.7H244.6a12.77,12.77,0,0,1-4.07-.68v3.41a12.26,12.26,0,0,0,12.26,12.26Z"/><path class="cls-12" d="M252.77,237.12H244.6a12.77,12.77,0,0,0-3.87.66h-.2V204.37a28.08,28.08,0,0,1,28.08-28.08H301.2v7a16.57,16.57,0,0,1-16.57,16.58h0A10.14,10.14,0,0,0,274.48,210V216a21.13,21.13,0,0,1-21.14,21.14l-.57,0Z"/><path class="cls-13" d="M355.31,189.59h0a6.31,6.31,0,0,0,6.31,6.32h0a6.34,6.34,0,0,0,4.1-1.51l7.54-6.44a4.14,4.14,0,0,1,6.82,3.15V200a22.56,22.56,0,0,1-22.56,22.56h0a19.49,19.49,0,0,1-13.81-5.72l-8-8a30.62,30.62,0,0,0-21.66-9h-34.4a11.8,11.8,0,0,1-11.8-11.8h0a11.79,11.79,0,0,1,11.8-11.79H342A13.31,13.31,0,0,1,355.31,189.59Z"/><path class="cls-14" d="M205.25,58.94V208.41a6.54,6.54,0,1,0,13.07,0V58.94a6.54,6.54,0,1,0-13.07,0Z"/><path class="cls-15" d="M205.25,58.94V208.41a6.54,6.54,0,0,0,6.54,6.54V52.41a6.52,6.52,0,0,0-6.54,6.53Z"/><path class="cls-16" d="M197,52.41a6.54,6.54,0,0,0,6.54,6.53H220a6.54,6.54,0,1,0,0-13.07H203.58A6.54,6.54,0,0,0,197,52.41Z"/><path class="cls-14" d="M197,52.41a6.54,6.54,0,0,0,6.54,6.53h8.21V45.87h-8.21A6.54,6.54,0,0,0,197,52.41Z"/><path class="cls-17" d="M99.64,72.63V150c11.11,0,35.86-.7,39.67-1.48,3-.6,5.26-4.37,5.26-8.81V69.18A300.67,300.67,0,0,1,99.64,72.63Z"/><path class="cls-18" d="M99.64,72.63v41.55c11.11,0,35.86-.71,39.67-1.48,3-.61,5.26-4.37,5.26-8.82V69.18A300.67,300.67,0,0,1,99.64,72.63Z"/><path class="cls-19" d="M144.54,69.31v70.46s5.09-1.09,20.84-2.05c12.15-.74,12.45-1.39,39.87-1.39V58.94c-27.42,0-27.72.66-39.87,1.4-4.24.25-7.71.52-10.51.78C149,61.65,144.54,65.16,144.54,69.31Z"/><path class="cls-2" d="M144.54,104.87v34.9s5.09-1.09,20.84-2.05c12.15-.74,12.45-1.39,39.87-1.39V94.5c-27.42,0-27.72.66-39.87,1.4-4.24.25-7.71.52-10.51.77C149,97.21,144.54,100.72,144.54,104.87Z"/></svg>