<svg id="_50" data-name="50" xmlns="http://www.w3.org/2000/svg" viewBox="0 0 512 512"><defs><style>.cls-1{fill:#efb732;}.cls-2{fill:#53b976;}.cls-3{fill:#c3ead0;}.cls-4{fill:#c1b7d3;}.cls-5{fill:#f4e6f4;}.cls-6{fill:#746087;}.cls-7{fill:#c2aacf;}.cls-8{fill:#3e4e60;}.cls-9{fill:#3f6c8e;}.cls-10{fill:#fff;}.cls-11{fill:#a583bb;}.cls-12{fill:#decee5;}</style></defs><title>50-soccer-icons</title><circle class="cls-1" cx="256" cy="256" r="256"/><path class="cls-2" d="M507.89,301.92C486.25,421.39,381.7,512,256,512S25.75,421.39,4.11,301.92Z"/><path class="cls-3" d="M91.4,452.07q6.18,5.19,12.69,10H407.91q6.51-4.8,12.69-10Zm399-93.1H21.56q2.22,5.07,4.66,10H76.86l-30,34.76q3,4.18,6.1,8.25l37.06-43H421.48l37.31,43.29q3.13-4.06,6.1-8.24l-30.21-35h51.1Q488.23,364,490.44,359Z"/><circle class="cls-4" cx="172.86" cy="388.83" r="45.48"/><path class="cls-5" d="M207.82,359.74a45.38,45.38,0,0,0-35-16.39c-1.4,0-2.79.06-4.15.18a45.38,45.38,0,0,0-6.91,10.7h0a45.47,45.47,0,0,0,41.3,64.55c1.4,0,2.78-.06,4.15-.18a45.46,45.46,0,0,0,.57-58.86Z"/><path class="cls-6" d="M172.86,346.81a42,42,0,1,1-29.71,12.31,41.75,41.75,0,0,1,29.71-12.31m0-3.46a45.49,45.49,0,1,0,45.49,45.48,45.48,45.48,0,0,0-45.49-45.48Z"/><path class="cls-7" d="M218.31,387.07a45.45,45.45,0,0,0-49.61-43.53,43.57,43.57,0,0,0-3,3.88c40.51-6.49,65.44,42.22,36.65,71.36,1.15-1.17,3.29,0,4.9-.18A45.43,45.43,0,0,0,218.31,387.07Z"/><path class="cls-6" d="M153.57,386.58a1.8,1.8,0,0,1-.6-.1L145.5,384a1.95,1.95,0,0,1,1.21-3.7l7.47,2.44a1.95,1.95,0,0,1-.61,3.8Z"/><path class="cls-7" d="M172.85,372.54a1.94,1.94,0,0,1-1.94-2v-9.32a1.95,1.95,0,1,1,3.89,0v9.32A2,2,0,0,1,172.85,372.54Z"/><path class="cls-7" d="M192.14,386.55a1.95,1.95,0,0,1-.58-3.81l7.5-2.33a1.94,1.94,0,1,1,1.16,3.71l-7.5,2.34A2,2,0,0,1,192.14,386.55Z"/><path class="cls-7" d="M188,413.84a1.94,1.94,0,0,1-1.59-.83l-3.23-4.62a1.95,1.95,0,0,1,3.19-2.23l3.23,4.62a2,2,0,0,1-1.6,3.06Z"/><path class="cls-6" d="M157.61,413.75a1.9,1.9,0,0,1-1.17-.4,1.94,1.94,0,0,1-.38-2.72l3.41-4.49a1.95,1.95,0,1,1,3.1,2.35l-3.4,4.49A2,2,0,0,1,157.61,413.75Z"/><path class="cls-8" d="M166.89,433.93a45.52,45.52,0,0,1-33.09-21.78l21.37-1a4.27,4.27,0,0,1,4.18,2.75Z"/><path class="cls-8" d="M144.71,384.46l-16.35,13.79a45.54,45.54,0,0,1,9.49-38.45l8.06,19.81A4.26,4.26,0,0,1,144.71,384.46Z"/><path class="cls-8" d="M218.35,388.83a45.52,45.52,0,0,1-1,9.34L201,384.41a4.26,4.26,0,0,1-1.2-4.85l8-19.82A45.29,45.29,0,0,1,218.35,388.83Z"/><path class="cls-9" d="M218.35,388.83a45.52,45.52,0,0,1-1,9.34L201,384.41a4.26,4.26,0,0,1-1.2-4.85l8-19.82A45.29,45.29,0,0,1,218.35,388.83Z"/><path class="cls-8" d="M170.36,371.4l-15.23,11.08a4.25,4.25,0,0,0-1.55,4.75l5.82,17.91a4.26,4.26,0,0,0,4,2.94h18.83a4.25,4.25,0,0,0,4-2.94l5.82-17.91a4.24,4.24,0,0,0-1.54-4.75L175.36,371.4A4.26,4.26,0,0,0,170.36,371.4Z"/><path class="cls-9" d="M192.14,387.23l-5.82,17.91a4.24,4.24,0,0,1-4,2.93h-8.5a45.41,45.41,0,0,1-15.63-27.79l12.22-8.88a4.25,4.25,0,0,1,5,0l15.24,11.08A4.24,4.24,0,0,1,192.14,387.23Z"/><path class="cls-8" d="M212,412a45.62,45.62,0,0,1-33,21.89l6.9-18.5.57-1.55a4.27,4.27,0,0,1,4.17-2.76Z"/><path class="cls-9" d="M212,412a45.27,45.27,0,0,1-4.75,6.58c-1.37.12-2.75.18-4.15.18a45.2,45.2,0,0,1-17.21-3.37l.57-1.55a4.28,4.28,0,0,1,4.17-2.76Z"/><path class="cls-8" d="M192.67,347.88l-17.31,12.57a4.23,4.23,0,0,1-5,0l-8.56-6.22h0l-8.74-6.35a45.24,45.24,0,0,1,15.65-4.35c1.36-.12,2.75-.18,4.15-.18A45.2,45.2,0,0,1,192.67,347.88Z"/><path class="cls-9" d="M192.67,347.88l-17.31,12.57a4.23,4.23,0,0,1-5,0l-8.57-6.22h0a45.38,45.38,0,0,1,6.91-10.7c1.36-.12,2.75-.18,4.15-.18A45.2,45.2,0,0,1,192.67,347.88Z"/><circle class="cls-10" cx="190.2" cy="365.06" r="9.3"/><path class="cls-5" d="M413.3,201.92a1.5,1.5,0,0,0,0-3h-6.55v-17h5.12a1.5,1.5,0,0,0,0-3h-5.12v-17h6.55a1.5,1.5,0,0,0,0-3h-6.55V146.34a1.5,1.5,0,0,0-3,0v12.58h-9v-.54a1.5,1.5,0,1,0-3,0v.54H378v-17H387v9.91a1.5,1.5,0,0,0,3,0v-9.91h21.83a1.5,1.5,0,0,0,0-3H390v-5.24a1.5,1.5,0,0,0-3,0v5.24H378v-5.24a1.5,1.5,0,0,0-3,0v5.24h-9.05v-5.24a1.5,1.5,0,0,0-3,0v5.24h-9.05v-5.24a1.5,1.5,0,0,0-3,0v5.24h-9v-5.24a1.5,1.5,0,0,0-3,0v5.24H329.8v-5.24a1.5,1.5,0,0,0-3,0v5.24h-9.05v-5.24a1.5,1.5,0,0,0-3,0v5.24H305.7v-5.24a1.5,1.5,0,0,0-3,0v5.24h-9.05v-5.24a1.5,1.5,0,0,0-3,0v5.24h-9v-5.24a1.5,1.5,0,0,0-3,0v5.24h-9.05v-5.24a1.5,1.5,0,0,0-3,0v5.24H257.5v-5.24a1.5,1.5,0,0,0-3,0v5.24h-9.05v-5.24a1.5,1.5,0,0,0-3,0v5.24h-9v-5.24a1.5,1.5,0,0,0-3,0v5.24h-9.05v-5.24a1.5,1.5,0,0,0-3,0v5.24h-9v-5.24a1.5,1.5,0,0,0-3,0v5.24h-9.05v-5.24a1.5,1.5,0,0,0-3,0v5.24H185.2v-5.24a1.5,1.5,0,0,0-3,0v5.24h-9v-5.24a1.5,1.5,0,0,0-3,0v5.24h-9v-5.24a1.5,1.5,0,0,0-3,0v5.24h-9.05v-5.24a1.5,1.5,0,0,0-3,0v5.24H137v-5.24a1.5,1.5,0,0,0-3,0v5.24h-9v-5.24a1.5,1.5,0,0,0-3,0v5.24H98.87a1.5,1.5,0,0,0,0,3H122v10a1.5,1.5,0,0,0,3,0v-10h9v17H120.47v-.54a1.5,1.5,0,0,0-3,0v.54h-9V146.34a1.5,1.5,0,0,0-3,0v12.58H98.87a1.5,1.5,0,1,0,0,3h6.55v17H98.87a1.5,1.5,0,1,0,0,3h6.55v17H98.87a1.5,1.5,0,1,0,0,3h6.55v17H98.87a1.5,1.5,0,1,0,0,3h6.55v17H98.87a1.5,1.5,0,1,0,0,3h6.55v17H98.87a1.5,1.5,0,0,0,0,3h6.55v17H98.87a1.5,1.5,0,0,0,0,3h6.55v17H98.87a1.5,1.5,0,0,0,0,3h6.55v17H98.87a1.5,1.5,0,0,0,0,3h6.55v12.57a1.5,1.5,0,0,0,3,0V321.92h9.16a2.15,2.15,0,1,0,2.89-2.94V301.92h9v6.25a1.5,1.5,0,0,0,3,0v-6.25h5.86a1.5,1.5,0,0,0,0-3h-5.86v-17h25.6v10.79a1.5,1.5,0,0,0,3,0V281.92h9v10.79a1.5,1.5,0,0,0,3,0V281.92h9v10.79a1.5,1.5,0,0,0,3,0V281.92h9.05v10.79a1.5,1.5,0,0,0,3,0V281.92h9.05v10.79a1.5,1.5,0,0,0,3,0V281.92h9v10.79a1.5,1.5,0,0,0,3,0V281.92h9.05v10.79a1.5,1.5,0,0,0,3,0V281.92h9v10.79a1.5,1.5,0,0,0,3,0V281.92h9.05v10.79a1.5,1.5,0,1,0,3,0V281.92h9.05v10.79a1.5,1.5,0,0,0,3,0V281.92h9.05v10.79a1.5,1.5,0,0,0,3,0V281.92h9v10.79a1.5,1.5,0,0,0,3,0V281.92h9.05v10.79a1.5,1.5,0,0,0,3,0V281.92h9.05v10.79a1.5,1.5,0,1,0,3,0V281.92h9.05v10.79a1.5,1.5,0,0,0,3,0V281.92h9.05v10.79a1.5,1.5,0,0,0,3,0V281.92h9v10.79a1.5,1.5,0,0,0,3,0V281.92h25.77v17H373.8a1.5,1.5,0,0,0,0,3h5.86v6.25a1.5,1.5,0,0,0,3,0v-6.25h9V319a2.1,2.1,0,1,0,2.88,2.94h9.16v12.57a1.5,1.5,0,0,0,3,0V321.92h6.55a1.5,1.5,0,0,0,0-3h-6.55v-17h6.55a1.5,1.5,0,0,0,0-3h-6.55v-17h6.55a1.5,1.5,0,0,0,0-3h-6.55v-17h6.55a1.5,1.5,0,0,0,0-3h-6.55v-17h6.55a1.5,1.5,0,0,0,0-3h-6.55v-17h6.55a1.5,1.5,0,0,0,0-3h-6.55v-17Zm-9.55-3h-9v-17h9Zm-21.09,60v-17h9v17Zm9,3v17h-9v-17Zm-271.24-3v-17h9v17Zm9,3v17h-9v-17Zm18.05-75.29a1.5,1.5,0,0,0,1.5-1.5v-3.21h9.05v17h-25.6v-17h13.55v3.21A1.5,1.5,0,0,0,147.56,186.63Zm216.88,0a1.5,1.5,0,0,0,1.5-1.5v-3.23h13.72v17H353.89v-17h9.05v3.23A1.5,1.5,0,0,0,364.44,186.65ZM185.2,201.92h9.05v17H185.2Zm-3,17h-9v-17h9Zm15.05-17h9.05v17h-9.05Zm12.05,0h9v17h-9Zm12,0h9.05v17h-9.05Zm12.05,0h9v17h-9Zm12,0h9.05v17h-9.05Zm12.05,0h9.05v17H257.5Zm12.05,0h9.05v17h-9.05Zm12.05,0h9v17h-9Zm12,0h9.05v17h-9.05Zm12.05,0h9.05v17H305.7Zm12.05,0h9.05v17h-9.05Zm12.05,0h9.05v17H329.8Zm12.05,0h9v17h-9Zm0-3v-17h9v17Zm-3,0H329.8v-17h9.05Zm-12.05,0h-9.05v-17h9.05Zm-12.05,0H305.7v-17h9.05Zm-12.05,0h-9.05v-17h9.05Zm-12.05,0h-9v-17h9Zm-12,0h-9.05v-17h9.05Zm-12.05,0H257.5v-17h9.05Zm-12.05,0h-9.05v-17h9.05Zm-12.05,0h-9v-17h9Zm-12,0h-9.05v-17h9.05Zm-12.05,0h-9v-17h9Zm-12,0h-9.05v-17h9.05Zm-12.05,0H185.2v-17h9.05Zm-12.05,0h-9v-17h9Zm-12,0h-9v-17h9Zm0,3v17h-9v-17Zm-12,17h-25.6v-17h25.6Zm0,3v17h-25.6v-17Zm3,0h9v17h-9Zm12,0h9v17h-9Zm12,0h9.05v17H185.2Zm12.05,0h9.05v17h-9.05Zm12.05,0h9v17h-9Zm12,0h9.05v17h-9.05Zm12.05,0h9v17h-9Zm12,0h9.05v17h-9.05Zm12.05,0h9.05v17H257.5Zm12.05,0h9.05v17h-9.05Zm12.05,0h9v17h-9Zm12,0h9.05v17h-9.05Zm12.05,0h9.05v17H305.7Zm12.05,0h9.05v17h-9.05Zm12.05,0h9.05v17H329.8Zm12.05,0h9v17h-9Zm12,0h25.77v17H353.89Zm0-3v-17h25.77v17Zm0-40v-17h9.05v17Zm-3,0h-9v-17h9Zm-12,0H329.8v-17h9.05Zm-12.05,0h-9.05v-17h9.05Zm-12.05,0H305.7v-17h9.05Zm-12.05,0h-9.05v-17h9.05Zm-12.05,0h-9v-17h9Zm-12,0h-9.05v-17h9.05Zm-12.05,0H257.5v-17h9.05Zm-12.05,0h-9.05v-17h9.05Zm-12.05,0h-9v-17h9Zm-12,0h-9.05v-17h9.05Zm-12.05,0h-9v-17h9Zm-12,0h-9.05v-17h9.05Zm-12.05,0H185.2v-17h9.05Zm-12.05,0h-9v-17h9Zm-12,0h-9v-17h9Zm-12,0h-9.05v-17h9.05Zm-28.6,20h-9v-17h9Zm0,3v17h-9v-17Zm0,20v17h-9v-17Zm3,20h25.6v17h-25.6Zm28.6,0h9v17h-9Zm12,0h9v17h-9Zm12,0h9.05v17H185.2Zm12.05,0h9.05v17h-9.05Zm12.05,0h9v17h-9Zm12,0h9.05v17h-9.05Zm12.05,0h9v17h-9Zm12,0h9.05v17h-9.05Zm12.05,0h9.05v17H257.5Zm12.05,0h9.05v17h-9.05Zm12.05,0h9v17h-9Zm12,0h9.05v17h-9.05Zm12.05,0h9.05v17H305.7Zm12.05,0h9.05v17h-9.05Zm12.05,0h9.05v17H329.8Zm12.05,0h9v17h-9Zm12,0h25.77v17H353.89Zm28.77-3v-17h9v17Zm0-20v-17h9v17Zm0-20v-17h9v17Zm21.09-37v17h-9v-17Zm-12,0v17h-9v-7.59a1.5,1.5,0,1,0-3,0v7.59H365.94v-17H375V164a1.5,1.5,0,0,0,3,0v-2.07Zm-16.72-20v17h-9.05v-17Zm-12.05,0v17h-9.05v-17Zm-12.05,0v17h-9v-17Zm-12,0v17H329.8v-17Zm-12.05,0v17h-9.05v-17Zm-12.05,0v17H305.7v-17Zm-12.05,0v17h-9.05v-17Zm-12.05,0v17h-9v-17Zm-12,0v17h-9.05v-17Zm-12.05,0v17H257.5v-17Zm-12.05,0v17h-9.05v-17Zm-12.05,0v17h-9v-17Zm-12,0v17h-9.05v-17Zm-12.05,0v17h-9v-17Zm-12,0v17h-9.05v-17Zm-12.05,0v17H185.2v-17Zm-12.05,0v17h-9v-17Zm-12,0v17h-9v-17Zm-12,0v17h-9.05v-17Zm-21.1,0h9.05v17H137Zm-3,20V164a1.5,1.5,0,1,0,3,0v-2.06h9.05v17H132.51v-7.59a1.5,1.5,0,0,0-3,0v7.59h-9v-17Zm-25.59,0h9v17h-9Zm0,20h9v17h-9Zm0,20h9v17h-9Zm0,20h9v17h-9Zm0,20h9v17h-9Zm0,20h9v17h-9Zm0,20h9v17h-9Zm9,37h-9v-17h9Zm12-20h-9v-17h9Zm3-20v-17h25.6v17Zm28.6,0v-17h9v17Zm12,0v-17h9v17Zm12,0v-17h9.05v17Zm12.05,0v-17h9.05v17Zm12.05,0v-17h9v17Zm12,0v-17h9.05v17Zm12.05,0v-17h9v17Zm12,0v-17h9.05v17Zm12.05,0v-17h9.05v17Zm12.05,0v-17h9.05v17Zm12.05,0v-17h9v17Zm12,0v-17h9.05v17Zm12.05,0v-17h9.05v17Zm12.05,0v-17h9.05v17Zm12.05,0v-17h9.05v17Zm12.05,0v-17h9v17Zm12,0v-17h25.77v17Zm28.77,20v-17h9v17Zm21.09,20h-9v-17h9Zm0-20h-9v-17h9Zm0-20h-9v-17h9Zm0-20h-9v-17h9Zm0-20h-9v-17h9Zm0-20h-9v-17h9Z"/><path class="cls-11" d="M424.71,361.81a6.53,6.53,0,0,1-.73.57,6,6,0,0,1-7.75-.95l-53.72-58.67a6,6,0,0,1-1.57-4.05v-99a55.68,55.68,0,0,1,16.42-39.64l4.72-4.72L412.51,125a6,6,0,1,1,8.49,8.48l-35.16,35.15a43.8,43.8,0,0,0-12.9,31.16v96.64l52.14,56.95A6,6,0,0,1,424.71,361.81Z"/><path class="cls-11" d="M372.94,298.71a6,6,0,0,1-6,6H145.06a6,6,0,0,1-6-6,5.88,5.88,0,0,1,.81-3,6,6,0,0,1,5.19-3H366.94a6,6,0,0,1,5.19,3A5.88,5.88,0,0,1,372.94,298.71Z"/><path class="cls-7" d="M424.71,361.81a6.53,6.53,0,0,1-.73.57L370.5,304a6.47,6.47,0,0,1-1.7-4.36V193.13a59.84,59.84,0,0,1,13.28-37.75L412.51,125a6,6,0,1,1,8.49,8.48l-35.16,35.15a43.8,43.8,0,0,0-12.9,31.16v96.64l52.14,56.95A6,6,0,0,1,424.71,361.81Z"/><path class="cls-11" d="M87.29,361.81a6.53,6.53,0,0,0,.73.57,6,6,0,0,0,7.75-.95l53.72-58.67a6,6,0,0,0,1.57-4.05v-99a55.68,55.68,0,0,0-16.42-39.64l-4.72-4.72L99.49,125A6,6,0,0,0,91,133.43l35.16,35.15a43.8,43.8,0,0,1,12.9,31.16v96.64L86.92,353.33A6,6,0,0,0,87.29,361.81Z"/><path class="cls-7" d="M87.29,361.81a6.53,6.53,0,0,0,.73.57L141.5,304a6.47,6.47,0,0,0,1.7-4.36V193.13a59.84,59.84,0,0,0-13.28-37.75L99.49,125A6,6,0,0,0,91,133.43l35.16,35.15a43.8,43.8,0,0,1,12.9,31.16v96.64L86.92,353.33A6,6,0,0,0,87.29,361.81Z"/><path class="cls-7" d="M372.13,295.71a6,6,0,0,1-5.19,3H145.06a6,6,0,0,1-5.19-3,6,6,0,0,1,5.19-3H366.94A6,6,0,0,1,372.13,295.71Z"/><path class="cls-11" d="M432.3,143V354.58a9.5,9.5,0,0,1-8.07,9.39,9.73,9.73,0,0,1-1.43.11,9.5,9.5,0,0,1-9.5-9.5V143a9.35,9.35,0,0,0-9.34-9.34H108A9.35,9.35,0,0,0,98.7,143V354.58a9.5,9.5,0,0,1-9.5,9.5,9.73,9.73,0,0,1-1.43-.11,9.5,9.5,0,0,1-8.07-9.39V143A28.37,28.37,0,0,1,108,114.68H404A28.37,28.37,0,0,1,432.3,143Z"/><path class="cls-7" d="M432.3,143V354.58a9.5,9.5,0,0,1-8.07,9.39,9.92,9.92,0,0,1-2.37-6.46V134.44a9.86,9.86,0,0,0-9.85-9.85H100a9.86,9.86,0,0,0-9.85,9.85V357.51A9.92,9.92,0,0,1,87.77,364a9.5,9.5,0,0,1-8.07-9.39V143A28.37,28.37,0,0,1,108,114.68H404A28.37,28.37,0,0,1,432.3,143Z"/><rect class="cls-12" x="218.13" y="114.68" width="175.67" height="9.91" rx="4.95"/><rect class="cls-12" x="421.86" y="159.47" width="10.44" height="152.78" rx="5.22"/><rect class="cls-12" x="79.7" y="159.47" width="10.44" height="152.78" rx="5.22"/></svg>