<svg id="_50" data-name="50" xmlns="http://www.w3.org/2000/svg" viewBox="0 0 512 512"><defs><style>.cls-1{fill:#e9465e;}.cls-2{fill:#6052a3;}.cls-3{fill:#7063ce;}.cls-4{fill:#22a8b9;}.cls-5{fill:#4fcae8;}.cls-6{fill:#3e4e60;}.cls-7{fill:#3f5d77;}.cls-8{fill:#cde6f6;}.cls-9{fill:#9b5b42;}.cls-10{fill:#8e4e3f;}.cls-11{fill:#723e33;}.cls-12{fill:#442a21;}.cls-13{fill:#334353;}.cls-14{fill:#543029;}.cls-15{fill:#b5b3ff;}.cls-16{fill:#f5b890;}.cls-17{fill:#d48d77;}.cls-18{fill:#c17e62;}.cls-19{fill:#eea47d;}.cls-20{fill:#c1b7d3;}.cls-21{fill:#f4e6f4;}.cls-22{fill:#746087;}.cls-23{fill:#c2aacf;}.cls-24{fill:#3f6c8e;}.cls-25{fill:#fff;}</style></defs><title>50-soccer-icons</title><circle class="cls-1" cx="256" cy="256" r="256"/><path class="cls-2" d="M314.84,331.07v33H268.57c-35,0-66.62-14.26-84.6-38.16l9.52-7.16,16.86-12.67c11.6,15.42,33.9,25,58.22,25Z"/><path class="cls-3" d="M314.84,331.07v22.2H275.16c-33.18,0-63.33-12.82-81.67-34.52l16.86-12.67c11.6,15.42,33.9,25,58.22,25Z"/><path class="cls-4" d="M214,303.67v33h46.27c35,0,66.62-14.26,84.6-38.16l-9.52-7.16-16.86-12.67c-11.6,15.42-33.9,25-58.22,25Z"/><path class="cls-5" d="M214,303.67v22.2h39.68c33.18,0,63.33-12.82,81.67-34.52l-16.86-12.67c-11.6,15.42-33.9,25-58.22,25Z"/><path class="cls-6" d="M411.22,434.14v25.44a254.95,254.95,0,0,1-121,50.14V434.14Z"/><path class="cls-7" d="M382.42,434.14v44.51a254.2,254.2,0,0,1-92.16,31.07V434.14Z"/><path class="cls-4" d="M411.21,434.14V320.26a45,45,0,0,0-45-45H335.26a45,45,0,0,0-45,45V434.14Z"/><path class="cls-5" d="M290.25,434.14V320.26a45,45,0,0,1,45-45h2.13a45,45,0,0,1,45,45V434.14Z"/><path class="cls-8" d="M379,350.59l-6.46,4.77a8.46,8.46,0,0,1-10.06,0L356,350.59a8.46,8.46,0,0,1-3.43-6.81v-20a5.52,5.52,0,0,1,5.53-5.53h18.78a5.52,5.52,0,0,1,5.53,5.53v20A8.46,8.46,0,0,1,379,350.59Z"/><path class="cls-4" d="M399.11,302.6a14.52,14.52,0,0,1,20.69-2.81c31.7,24.91,46,44.42,46,62.7-.76,35.11-43.62,44.2-81,53l-2.51-10.94-4.87-21.22c15.39-3.54,31.37-7.38,42.71-12.13a56.38,56.38,0,0,0,7.73-3.87,7.72,7.72,0,0,0,2.6-10.46c-3.52-6-12.41-16.83-34.8-34a9.41,9.41,0,0,1-1.88-13l5.3-7.25Z"/><path class="cls-5" d="M393.81,309.85a9.39,9.39,0,0,1,12.85-2.24c31.27,21.25,45.43,37.94,45.43,53.58-.69,27.24-35.53,36.29-69.77,43.35l-4.87-21.22c15.39-3.54,31.37-7.38,42.71-12.13a56.38,56.38,0,0,0,7.73-3.87,7.72,7.72,0,0,0,2.6-10.46c-3.52-6-12.41-16.83-34.8-34a9.41,9.41,0,0,1-1.88-13Z"/><path class="cls-9" d="M420.05,394.9l-.3-.5a16.89,16.89,0,0,0-10-7.35l-20.25-5.35a15.94,15.94,0,0,0-12,1.62v0a34.05,34.05,0,0,0-15.22,18.71l-1.67,5a10.14,10.14,0,0,0,2.81,10.75,9.65,9.65,0,0,0,1.66,1.23,10.19,10.19,0,0,0,2.69,1.12l-.26,1-2.9,11A4.86,4.86,0,0,0,368,438l2.49.66a4.86,4.86,0,0,0,5.93-3.45l-1.15,4.33a4.86,4.86,0,0,0,3.46,5.93l2.48.66a4.87,4.87,0,0,0,5.93-3.45l1.34-5a4.85,4.85,0,0,0,3.45,5.93l2.49.66a4.87,4.87,0,0,0,5.93-3.45l1.61-6.12a4.86,4.86,0,0,0,3.45,5.93l2.49.66a4.86,4.86,0,0,0,5.93-3.46l8-30.06A17,17,0,0,0,420.05,394.9Z"/><path class="cls-10" d="M378.15,418.63l-.13.51-4.08,15.44A4.85,4.85,0,0,1,368,438h0l2.49.66a4.85,4.85,0,0,0,5.93-3.45l4.87-18.44S378.52,417.26,378.15,418.63Z"/><path class="cls-10" d="M402.08,424.19l-.14.5-4.08,15.45a4.85,4.85,0,0,1-5.93,3.45h0l2.49.65a4.85,4.85,0,0,0,5.93-3.45l4.87-18.43S402.44,422.81,402.08,424.19Z"/><path class="cls-10" d="M389.34,424.35l-.14.51-4.54,17.2a4.85,4.85,0,0,1-5.93,3.45h0l2.49.65a4.85,4.85,0,0,0,5.93-3.45l5.33-20.19S389.7,423,389.34,424.35Z"/><path class="cls-10" d="M419.91,394.67a16.85,16.85,0,0,1,1.88,13.11l-7.94,30.06a4.85,4.85,0,0,1-5.93,3.45l-2.49-.66h0a4.85,4.85,0,0,0,5.93-3.45l6.23-23.1a67.65,67.65,0,0,0,2.32-19.41Z"/><path class="cls-10" d="M371.83,404.57l-4.11,15.6a10.19,10.19,0,0,1-2.69-1.12l2.46-8.59A10.5,10.5,0,0,1,371.83,404.57Z"/><path class="cls-9" d="M330.75,256.34V278a20,20,0,1,0,40,0v-21.7Z"/><path class="cls-10" d="M370.72,256.34V278a20,20,0,0,1-9.84,17.22v-23.2a58.58,58.58,0,0,1-22.6,4.51,62.13,62.13,0,0,1-7.53-.47V256.34Z"/><path class="cls-10" d="M412.59,160.13h9.91a0,0,0,0,1,0,0v31a0,0,0,0,1,0,0h-9.91a15.51,15.51,0,0,1-15.51-15.51v0A15.51,15.51,0,0,1,412.59,160.13Z" transform="translate(819.57 351.27) rotate(-180)"/><path class="cls-11" d="M403.73,169h10.41a0,0,0,0,1,0,0v13.31a0,0,0,0,1,0,0H403.73a6.65,6.65,0,0,1-6.65-6.65v0A6.65,6.65,0,0,1,403.73,169Z" transform="translate(811.22 351.27) rotate(180)"/><path class="cls-10" d="M275.13,160.13h4.34a0,0,0,0,1,0,0v31a0,0,0,0,1,0,0h-4.34a15.51,15.51,0,0,1-15.51-15.51v0A15.51,15.51,0,0,1,275.13,160.13Z"/><path class="cls-11" d="M274.63,169h4.84a0,0,0,0,1,0,0v13.31a0,0,0,0,1,0,0h-4.84a6.65,6.65,0,0,1-6.65-6.65v0A6.65,6.65,0,0,1,274.63,169Z"/><path class="cls-12" d="M290.89,160.13v10A22.94,22.94,0,0,1,268,147.19V100.56h22.94Z"/><path class="cls-10" d="M279.47,125.61V207.3a58.81,58.81,0,0,0,117.61,0V125.61a32.23,32.23,0,0,0-32.23-32.22H311.69a31.46,31.46,0,0,0-9,1.29A32.2,32.2,0,0,0,279.47,125.61Z"/><path class="cls-9" d="M279.47,125.61V207.3a58.8,58.8,0,0,0,45.63,57.31,58.8,58.8,0,0,0,45.62-57.31V176.05a82.67,82.67,0,0,0-68-81.37A32.2,32.2,0,0,0,279.47,125.61Z"/><rect class="cls-10" x="312.73" y="179.74" width="29.82" height="17.83" rx="8.92"/><rect class="cls-10" x="323.24" y="93.39" width="15.04" height="92.4"/><rect class="cls-13" x="346.09" y="144.87" width="16.29" height="30.51" rx="8.15" transform="translate(708.47 320.26) rotate(180)"/><rect class="cls-13" x="299.13" y="144.87" width="16.29" height="30.51" rx="8.15" transform="translate(614.56 320.26) rotate(180)"/><path class="cls-11" d="M336.15,230.43a25.62,25.62,0,0,0,25.59-25.59,4.84,4.84,0,1,0-9.67,0,15.94,15.94,0,0,1-15.92,15.92,4.84,4.84,0,1,0,0,9.67Z"/><path class="cls-12" d="M397.08,191.14H407a15.34,15.34,0,0,0,4.95-.82v4.14a14.89,14.89,0,0,1-14.89,14.89Z"/><path class="cls-12" d="M397.08,160.09H407a15.25,15.25,0,0,1,4.7.81h.25V120.33a34.09,34.09,0,0,0-34.09-34.09H338.28v8.52a20.12,20.12,0,0,0,20.12,20.12h0a12.33,12.33,0,0,1,12.32,12.32v7.23a25.66,25.66,0,0,0,25.66,25.66l.7,0Z"/><rect class="cls-14" x="261.95" y="86.24" width="113.19" height="28.64" rx="14.32"/><path class="cls-6" d="M221.74,434.14v75.58a254.95,254.95,0,0,1-121-50.14V434.14Z"/><path class="cls-7" d="M221.74,434.14v75.58a254.2,254.2,0,0,1-92.16-31.07V434.14Z"/><path class="cls-2" d="M100.79,434.14V320.26a45,45,0,0,1,45-45h30.94a45,45,0,0,1,45,45V434.14Z"/><path class="cls-3" d="M221.75,434.14V320.26a45,45,0,0,0-45-45h-2.13a45,45,0,0,0-45,45V434.14Z"/><path class="cls-15" d="M133,350.59l6.46,4.77a8.46,8.46,0,0,0,10.06,0l6.46-4.77a8.46,8.46,0,0,0,3.43-6.81v-20a5.52,5.52,0,0,0-5.53-5.53H135.12a5.52,5.52,0,0,0-5.53,5.53v20A8.46,8.46,0,0,0,133,350.59Z"/><path class="cls-2" d="M112.89,302.6a14.52,14.52,0,0,0-20.69-2.81c-31.7,24.91-46,44.42-46,62.7.76,35.11,43.62,44.2,81,53l2.51-10.94,4.87-21.22c-15.39-3.54-31.37-7.38-42.71-12.13a56.38,56.38,0,0,1-7.73-3.87,7.72,7.72,0,0,1-2.6-10.46c3.52-6,12.41-16.83,34.8-34a9.41,9.41,0,0,0,1.88-13l-5.3-7.25Z"/><path class="cls-3" d="M118.19,309.85a9.39,9.39,0,0,0-12.85-2.24c-31.27,21.25-45.43,37.94-45.43,53.58.69,27.24,35.53,36.29,69.77,43.35l4.87-21.22c-15.39-3.54-31.37-7.38-42.71-12.13a56.38,56.38,0,0,1-7.73-3.87,7.72,7.72,0,0,1-2.6-10.46c3.52-6,12.41-16.83,34.8-34a9.41,9.41,0,0,0,1.88-13Z"/><path class="cls-16" d="M90.21,407.75l8,30.06a4.86,4.86,0,0,0,5.93,3.46l2.49-.66a4.86,4.86,0,0,0,3.45-5.93l1.61,6.12a4.87,4.87,0,0,0,5.93,3.45l2.49-.66a4.85,4.85,0,0,0,3.45-5.93l1.34,5a4.87,4.87,0,0,0,5.93,3.45l2.48-.66a4.86,4.86,0,0,0,3.46-5.93l-1.15-4.33a4.86,4.86,0,0,0,5.93,3.45L144,438a4.86,4.86,0,0,0,3.45-5.93l-2.9-11-.26-1a10.19,10.19,0,0,0,2.69-1.12,9.65,9.65,0,0,0,1.66-1.23,10.14,10.14,0,0,0,2.81-10.75l-1.67-5a34.05,34.05,0,0,0-15.22-18.71v0a15.94,15.94,0,0,0-12-1.62l-20.25,5.35a16.89,16.89,0,0,0-10,7.35l-.3.5A17,17,0,0,0,90.21,407.75Z"/><path class="cls-17" d="M133.85,418.63l.13.51,4.08,15.44A4.85,4.85,0,0,0,144,438h0l-2.49.66a4.85,4.85,0,0,1-5.93-3.45L130.7,416.8S133.48,417.26,133.85,418.63Z"/><path class="cls-17" d="M109.92,424.19l.14.5,4.08,15.45a4.85,4.85,0,0,0,5.93,3.45h0l-2.49.65a4.85,4.85,0,0,1-5.93-3.45l-4.87-18.43S109.56,422.81,109.92,424.19Z"/><path class="cls-17" d="M122.66,424.35l.14.51,4.54,17.2a4.85,4.85,0,0,0,5.93,3.45h0l-2.49.65a4.85,4.85,0,0,1-5.93-3.45l-5.33-20.19S122.3,423,122.66,424.35Z"/><path class="cls-17" d="M92.09,394.67a16.85,16.85,0,0,0-1.88,13.11l7.94,30.06a4.85,4.85,0,0,0,5.93,3.45l2.49-.66h0a4.85,4.85,0,0,1-5.93-3.45l-6.23-23.1a67.65,67.65,0,0,1-2.32-19.41Z"/><path class="cls-17" d="M140.17,404.57l4.11,15.6a10.19,10.19,0,0,0,2.69-1.12l-2.46-8.59A10.5,10.5,0,0,0,140.17,404.57Z"/><path class="cls-16" d="M181.25,256.34V278a20,20,0,1,1-40,0v-21.7Z"/><path class="cls-17" d="M141.28,256.34V278a20,20,0,0,0,9.84,17.22v-23.2a58.58,58.58,0,0,0,22.6,4.51,62.13,62.13,0,0,0,7.53-.47V256.34Z"/><path class="cls-17" d="M105,160.13h9.91a0,0,0,0,1,0,0v31a0,0,0,0,1,0,0H105A15.51,15.51,0,0,1,89.5,175.64v0A15.51,15.51,0,0,1,105,160.13Z"/><path class="cls-18" d="M104.51,169h10.41a0,0,0,0,1,0,0v13.31a0,0,0,0,1,0,0H104.51a6.65,6.65,0,0,1-6.65-6.65v0a6.65,6.65,0,0,1,6.65-6.65Z"/><path class="cls-17" d="M248,160.13h4.34a0,0,0,0,1,0,0v31a0,0,0,0,1,0,0H248a15.51,15.51,0,0,1-15.51-15.51v0A15.51,15.51,0,0,1,248,160.13Z" transform="translate(484.9 351.27) rotate(180)"/><path class="cls-18" d="M239.18,169H244a0,0,0,0,1,0,0v13.31a0,0,0,0,1,0,0h-4.84a6.65,6.65,0,0,1-6.65-6.65v0a6.65,6.65,0,0,1,6.65-6.65Z" transform="translate(476.55 351.27) rotate(180)"/><path class="cls-17" d="M232.53,125.61V207.3a58.81,58.81,0,0,1-117.61,0V125.61a32.23,32.23,0,0,1,32.23-32.22h53.16a31.46,31.46,0,0,1,9,1.29A32.2,32.2,0,0,1,232.53,125.61Z"/><path class="cls-16" d="M232.53,125.61V207.3a58.8,58.8,0,0,1-45.63,57.31,58.8,58.8,0,0,1-45.62-57.31V176.05a82.67,82.67,0,0,1,68-81.37A32.2,32.2,0,0,1,232.53,125.61Z"/><rect class="cls-19" x="169.45" y="179.74" width="29.82" height="17.83" rx="8.92"/><path class="cls-19" d="M181.24,129.19h0a7.52,7.52,0,0,1,7.52,7.52V185.8a0,0,0,0,1,0,0h-15a0,0,0,0,1,0,0V136.71a7.52,7.52,0,0,1,7.52-7.52Z"/><rect class="cls-13" x="149.62" y="144.87" width="16.29" height="30.51" rx="8.15"/><rect class="cls-13" x="196.58" y="144.87" width="16.29" height="30.51" rx="8.15"/><path class="cls-18" d="M175.85,230.43a25.62,25.62,0,0,1-25.59-25.59,4.84,4.84,0,1,1,9.67,0,15.94,15.94,0,0,0,15.92,15.92,4.84,4.84,0,1,1,0,9.67Z"/><path class="cls-17" d="M400.86,272,393,284.65a3.91,3.91,0,0,1-5.41,1.25l-2.46-1.54-1.85-1.15a3.91,3.91,0,0,1-1.26-5.4l8.47-13.6a4.48,4.48,0,0,1,.51-.64,3.9,3.9,0,0,1,5.56-.09l3.73,3.61A4,4,0,0,1,400.86,272Z"/><path class="cls-16" d="M396.06,274.64,392.13,281a7.28,7.28,0,0,1-7,3.39l-1.85-1.15a3.91,3.91,0,0,1-1.26-5.4l8.47-13.6a4.48,4.48,0,0,1,.51-.64l4.26,4.15A5.56,5.56,0,0,1,396.06,274.64Z"/><path class="cls-17" d="M428.91,300.36l-5.85,9.37a3.92,3.92,0,0,1-5.41,1.26l-2.46-1.54-1.85-1.15a3.92,3.92,0,0,1-1.26-5.41l6.43-10.32a4,4,0,0,1,6.07-.73l3.73,3.62A3.94,3.94,0,0,1,428.91,300.36Z"/><path class="cls-16" d="M424.11,303l-1.89,3.05a7.28,7.28,0,0,1-7,3.39l-1.85-1.15a3.92,3.92,0,0,1-1.26-5.41l6.43-10.32a3.9,3.9,0,0,1,.51-.63l4.26,4.14A5.57,5.57,0,0,1,424.11,303Z"/><path class="cls-17" d="M421.76,287.37,413.87,300a3.92,3.92,0,0,1-5.41,1.25L406,299.74l-1.85-1.15a3.91,3.91,0,0,1-1.26-5.4l8.47-13.6a4.48,4.48,0,0,1,.51-.64,3.89,3.89,0,0,1,5.56-.09l3.73,3.61A3.94,3.94,0,0,1,421.76,287.37Z"/><path class="cls-16" d="M417,290,413,296.35a7.28,7.28,0,0,1-7,3.39l-1.85-1.15a3.91,3.91,0,0,1-1.26-5.4l8.47-13.6a4.48,4.48,0,0,1,.51-.64l4.26,4.15A5.56,5.56,0,0,1,417,290Z"/><path class="cls-17" d="M413.35,276.41l-11.87,19a3.92,3.92,0,0,1-5.41,1.26l-2.46-1.54L391.76,294a3.91,3.91,0,0,1-1.26-5.4l12.46-20a3.38,3.38,0,0,1,.5-.63,3.9,3.9,0,0,1,5.56-.1l3.73,3.62A3.94,3.94,0,0,1,413.35,276.41Z"/><path class="cls-16" d="M408.55,279.05l-7.91,12.73a7.29,7.29,0,0,1-7,3.39L391.76,294a3.91,3.91,0,0,1-1.26-5.4l12.46-20a3.38,3.38,0,0,1,.5-.63l4.26,4.14A5.56,5.56,0,0,1,408.55,279.05Z"/><path class="cls-10" d="M110,272l7.88,12.65a3.91,3.91,0,0,0,5.41,1.25l2.46-1.54,1.85-1.15a3.91,3.91,0,0,0,1.26-5.4l-8.47-13.6a4.48,4.48,0,0,0-.51-.64,3.9,3.9,0,0,0-5.56-.09l-3.73,3.61A4,4,0,0,0,110,272Z"/><path class="cls-9" d="M114.78,274.64l3.93,6.33a7.28,7.28,0,0,0,7,3.39l1.85-1.15a3.91,3.91,0,0,0,1.26-5.4l-8.47-13.6a4.48,4.48,0,0,0-.51-.64l-4.26,4.15A5.56,5.56,0,0,0,114.78,274.64Z"/><path class="cls-10" d="M81.93,300.36l5.85,9.37A3.93,3.93,0,0,0,93.2,311l2.45-1.54,1.85-1.15a3.92,3.92,0,0,0,1.26-5.41l-6.43-10.32a4,4,0,0,0-6.07-.73l-3.73,3.62A3.94,3.94,0,0,0,81.93,300.36Z"/><path class="cls-9" d="M86.73,303l1.89,3.05a7.28,7.28,0,0,0,7,3.39l1.85-1.15a3.92,3.92,0,0,0,1.26-5.41l-6.43-10.32a3.9,3.9,0,0,0-.51-.63l-4.26,4.14A5.57,5.57,0,0,0,86.73,303Z"/><path class="cls-10" d="M89.09,287.37,97,300a3.92,3.92,0,0,0,5.41,1.25l2.46-1.54,1.85-1.15a3.91,3.91,0,0,0,1.26-5.4l-8.47-13.6A4.48,4.48,0,0,0,99,279a3.89,3.89,0,0,0-5.56-.09l-3.73,3.61A3.94,3.94,0,0,0,89.09,287.37Z"/><path class="cls-9" d="M93.88,290l3.93,6.33a7.28,7.28,0,0,0,7,3.39l1.85-1.15a3.91,3.91,0,0,0,1.26-5.4l-8.47-13.6A4.48,4.48,0,0,0,99,279l-4.26,4.15A5.56,5.56,0,0,0,93.88,290Z"/><path class="cls-10" d="M97.49,276.41l11.87,19a3.92,3.92,0,0,0,5.41,1.26l2.46-1.54,1.85-1.16a3.91,3.91,0,0,0,1.26-5.4l-12.46-20a3.38,3.38,0,0,0-.5-.63,3.9,3.9,0,0,0-5.56-.1l-3.73,3.62A3.94,3.94,0,0,0,97.49,276.41Z"/><path class="cls-9" d="M102.29,279.05l7.91,12.73a7.29,7.29,0,0,0,7,3.39l1.85-1.16a3.91,3.91,0,0,0,1.26-5.4l-12.46-20a3.38,3.38,0,0,0-.5-.63l-4.26,4.14A5.56,5.56,0,0,0,102.29,279.05Z"/><path class="cls-20" d="M321.69,457.7A65.5,65.5,0,0,1,301.58,505q-1.95,1.89-4.11,3.66l-2.73.43a258.1,258.1,0,0,1-80.21-.43C172.77,475,188,404.35,242.77,393.32,284,386.44,320.75,414.55,321.69,457.7Z"/><path class="cls-21" d="M319,476.35c-.05.19-.11.38-.17.57a62.59,62.59,0,0,1-13.15,23.77,67.81,67.81,0,0,1-7.08.26c-51.94-.66-82.9-60.06-52.92-103.08,1.31-1.89,2.75-3.75,4.3-5.57l0,0a65.37,65.37,0,0,1,30.67,4.54l1.08.46a68.47,68.47,0,0,1,26.83,21.19A65,65,0,0,1,316,430.78c.1.21.19.42.28.63A67.39,67.39,0,0,1,319,476.35Z"/><path class="cls-22" d="M321.58,455.54a67.31,67.31,0,0,0-2.85-16.68l-.29-.95a67.32,67.32,0,0,0-9.86-19.45,68.11,68.11,0,0,0-33.3-23.64l-.13,0A68.51,68.51,0,0,0,256,392q-3.08,0-6,.3a65.45,65.45,0,0,0-7.15,1h0c-33.94,6.73-54.25,38.1-52.28,69.17A64.07,64.07,0,0,0,213,507.35l1.54,1.3c2.11.35,4.22.67,6.35,1l1.86.25,2.76.34c-34.2-19.55-40.62-67.69-12.42-95.41,16.23-16.92,41.77-21.68,63.25-14.3l.36.13a56.71,56.71,0,0,1,22.23,14.17,59.77,59.77,0,0,1,17.4,48.8,61.94,61.94,0,0,1-5.43,20c-.15.32-.3.64-.46.95A59,59,0,0,1,299,500.61a58.29,58.29,0,0,1-12.52,9.59l2-.25q3.12-.39,6.23-.87l2.73-.43q2.16-1.77,4.11-3.66a63.76,63.76,0,0,0,19.8-40.78l.06-.74c0-.05,0-.1,0-.14A65.37,65.37,0,0,0,321.58,455.54Z"/><path class="cls-23" d="M321.64,455.15a60.8,60.8,0,0,0-5.37-23.74c-.09-.21-.18-.42-.28-.63a65,65,0,0,0-7.41-12.32,68.49,68.49,0,0,0-24-19.87c-.92-.47-1.86-.91-2.8-1.32l-1.08-.46-1.33-.55a66.32,66.32,0,0,0-29.34-4h0l0,0c-.49.57-1,1.15-1.44,1.73s-1,1.2-1.42,1.82-.82,1.1-1.21,1.67l-.25.35h0a61.31,61.31,0,0,1,30.66,2.61l.36.13c1.11.41,2.2.84,3.27,1.31,23.94,10.44,38.61,36,36.36,61.66a58.28,58.28,0,0,1-5.43,20c-.15.32-.3.63-.46.95A63.48,63.48,0,0,1,298.59,501a2.24,2.24,0,0,1,.42-.34c1.72-1.1,4.51.27,6.66.08a65.22,65.22,0,0,0,13.15-23.77c.06-.19.12-.38.17-.57a65.2,65.2,0,0,0,2.39-12.14A63.75,63.75,0,0,0,321.64,455.15Z"/><path class="cls-22" d="M228.14,454.44a3,3,0,0,1-.88-.14l-10.78-3.53a2.81,2.81,0,1,1,1.75-5.34L229,449A2.82,2.82,0,0,1,228.14,454.44Z"/><path class="cls-23" d="M256,434.16a2.81,2.81,0,0,1-2.81-2.81V417.88a2.81,2.81,0,0,1,5.62,0v13.47A2.81,2.81,0,0,1,256,434.16Z"/><path class="cls-23" d="M283.84,454.39a2.81,2.81,0,0,1-.83-5.49l10.83-3.37a2.81,2.81,0,0,1,1.67,5.36l-10.83,3.37A2.72,2.72,0,0,1,283.84,454.39Z"/><path class="cls-23" d="M277.84,493.81a2.82,2.82,0,0,1-2.31-1.2L270.87,486a2.81,2.81,0,0,1,4.61-3.22l4.66,6.66A2.83,2.83,0,0,1,277.84,493.81Z"/><path class="cls-22" d="M234,493.68a2.83,2.83,0,0,1-2.24-4.5l4.92-6.49a2.81,2.81,0,1,1,4.48,3.39l-4.92,6.49A2.79,2.79,0,0,1,234,493.68Z"/><path class="cls-6" d="M243.17,511.68a258.11,258.11,0,0,1-28.64-3,65.92,65.92,0,0,1-14.95-17.27L230.45,490a6.15,6.15,0,0,1,6,4Z"/><path class="cls-6" d="M215.34,451.38,191.71,471.3c-4.32-19.37,1.38-41.12,13.72-55.54l11.64,28.61A6.16,6.16,0,0,1,215.34,451.38Z"/><path class="cls-6" d="M321.69,457.69a66.69,66.69,0,0,1-1.38,13.5l-23.67-19.88a6.17,6.17,0,0,1-1.74-7l11.59-28.63A65.42,65.42,0,0,1,321.69,457.69Z"/><path class="cls-24" d="M321.69,457.69a66.69,66.69,0,0,1-1.38,13.5l-23.67-19.88a6.17,6.17,0,0,1-1.74-7l11.59-28.63A65.42,65.42,0,0,1,321.69,457.69Z"/><path class="cls-6" d="M252.39,432.52l-22,16a6.14,6.14,0,0,0-2.23,6.86l8.41,25.88a6.13,6.13,0,0,0,5.83,4.24H269.6a6.15,6.15,0,0,0,5.84-4.24l8.4-25.88a6.13,6.13,0,0,0-2.23-6.86l-22-16A6.14,6.14,0,0,0,252.39,432.52Z"/><path class="cls-24" d="M283.84,455.38l-8.4,25.87a6.15,6.15,0,0,1-5.84,4.24H257.32a65.62,65.62,0,0,1-22.58-40.15l17.65-12.82a6.14,6.14,0,0,1,7.21,0l22,16A6.14,6.14,0,0,1,283.84,455.38Z"/><path class="cls-6" d="M312.53,491.18a66.17,66.17,0,0,1-15.06,17.47,255.08,255.08,0,0,1-28.47,3l5.81-15.59.83-2.24a6.15,6.15,0,0,1,6-4Z"/><path class="cls-24" d="M312.53,491.18a64.45,64.45,0,0,1-6.86,9.5,66.15,66.15,0,0,1-30.86-4.59l.83-2.24a6.15,6.15,0,0,1,6-4Z"/><path class="cls-6" d="M284.61,398.54l-25,18.17a6.14,6.14,0,0,1-7.21,0l-12.38-9h0l-12.62-9.17C244.69,389.84,267.47,389.92,284.61,398.54Z"/><path class="cls-24" d="M284.61,398.54l-.06,0L280,401.92,259.6,416.71a6.14,6.14,0,0,1-7.21,0l-12.38-9a66,66,0,0,1,5.64-9.84l.25-.35c.39-.57.8-1.12,1.21-1.67s.93-1.22,1.42-1.82.95-1.16,1.44-1.73l0,0a66.32,66.32,0,0,1,29.34,4Q282.05,397.28,284.61,398.54Z"/><path class="cls-25" d="M294.46,423.36A13.43,13.43,0,0,0,281,409.93c-17.81.71-17.81,26.16,0,26.86A13.43,13.43,0,0,0,294.46,423.36Z"/></svg>