<svg id="_50" data-name="50" xmlns="http://www.w3.org/2000/svg" viewBox="0 0 512 512"><defs><style>.cls-1{fill:#53b976;}.cls-2{fill:#9acdae;}.cls-3{fill:#c1b7d3;}.cls-4{fill:#f4e6f4;}.cls-5{fill:#746087;}.cls-6{fill:#c2aacf;}.cls-7{fill:#3e4e60;}.cls-8{fill:#3f6c8e;}.cls-9{fill:#fff;}</style></defs><title>50-soccer-icons</title><circle class="cls-1" cx="256" cy="256" r="256"/><path class="cls-2" d="M274.4,463.33a5,5,0,0,1-.45-10,198.89,198.89,0,0,0,28.87-4.76,5,5,0,0,1,2.36,9.72,209.22,209.22,0,0,1-30.33,5Zm-44.93-.9a4.82,4.82,0,0,1-.65,0,207.7,207.7,0,0,1-30.1-6.22,5,5,0,1,1,2.74-9.62,197.9,197.9,0,0,0,28.65,5.92,5,5,0,0,1-.64,10Zm116.78-19.37a5,5,0,0,1-2.23-9.48,199,199,0,0,0,25.18-14.93,5,5,0,0,1,5.72,8.21,207.84,207.84,0,0,1-26.45,15.67A5,5,0,0,1,346.25,443.06Zm-187.74-3.78a5,5,0,0,1-2.4-.62A209.9,209.9,0,0,1,130.33,422a5,5,0,0,1,6-8,199.18,199.18,0,0,0,24.55,15.91,5,5,0,0,1-2.41,9.39Zm247.36-41.14a5,5,0,0,1-3.68-8.38,199.48,199.48,0,0,0,18.12-23,5,5,0,0,1,8.28,5.6,209.35,209.35,0,0,1-19,24.13A5,5,0,0,1,405.87,398.14ZM100.75,392a5,5,0,0,1-3.83-1.77,209.34,209.34,0,0,1-18-24.88,5,5,0,1,1,8.5-5.26,200.17,200.17,0,0,0,17.19,23.69,5,5,0,0,1-.59,7A4.93,4.93,0,0,1,100.75,392Zm344.58-57.21a4.86,4.86,0,0,1-1.82-.35,5,5,0,0,1-2.84-6.47,196.72,196.72,0,0,0,8.57-28,5,5,0,0,1,9.76,2.21,209.07,209.07,0,0,1-9,29.39A5,5,0,0,1,445.33,334.81ZM63.85,327.12a5,5,0,0,1-4.73-3.37A208.83,208.83,0,0,1,51.31,294a5,5,0,0,1,9.84-1.81,198.53,198.53,0,0,0,7.43,28.29,5,5,0,0,1-3.1,6.36A5.16,5.16,0,0,1,63.85,327.12Zm395.3-65.66h0a5,5,0,0,1-5-5V256A201.54,201.54,0,0,0,452,226.81a5,5,0,0,1,9.89-1.46A210.27,210.27,0,0,1,464.15,256v.48A5,5,0,0,1,459.15,261.46ZM53,253.28h-.19A5,5,0,0,1,48,248.09a208,208,0,0,1,3.4-30.55,5,5,0,0,1,9.83,1.84A199.05,199.05,0,0,0,58,248.46,5,5,0,0,1,53,253.28Zm392.49-65.67a5,5,0,0,1-4.66-3.19A197.92,197.92,0,0,0,428.25,158a5,5,0,0,1,8.69-5,208.11,208.11,0,0,1,13.21,27.77,5,5,0,0,1-4.66,6.81ZM69.43,180.48a5.16,5.16,0,0,1-2-.41,5,5,0,0,1-2.61-6.58,208.48,208.48,0,0,1,14.25-27.22,5,5,0,0,1,8.49,5.28A198.86,198.86,0,0,0,74,177.46,5,5,0,0,1,69.43,180.48Zm336.72-56.32a5,5,0,0,1-3.7-1.63,199,199,0,0,0-21.25-20.12,5,5,0,0,1,6.32-7.75,209.24,209.24,0,0,1,22.32,21.13,5,5,0,0,1-3.69,8.37Zm-295-5.57a5,5,0,0,1-3.56-8.51,209.84,209.84,0,0,1,23.1-20.27,5,5,0,1,1,6,8,200.81,200.81,0,0,0-22,19.31A5,5,0,0,1,111.12,118.59Zm235.5-39.45a5,5,0,0,1-2.23-.53,197.72,197.72,0,0,0-27.07-11.09A5,5,0,1,1,320.41,58a208,208,0,0,1,28.45,11.65,5,5,0,0,1-2.24,9.48Zm-174.3-3.31a5,5,0,0,1-2.06-9.56,208,208,0,0,1,28.89-10.56,5,5,0,0,1,2.73,9.62,196.72,196.72,0,0,0-27.5,10.06A5,5,0,0,1,172.32,75.83ZM274.85,58.71a3.7,3.7,0,0,1-.47,0,202.64,202.64,0,0,0-29.26-.55,5,5,0,1,1-.54-10,212.8,212.8,0,0,1,30.72.57,5,5,0,0,1-.45,10Z"/><circle class="cls-3" cx="256" cy="256" r="157.71"/><path class="cls-4" d="M377.23,155.11A157.42,157.42,0,0,0,256,98.29q-7.29,0-14.41.64a158,158,0,0,0-24,37.07h0A157.64,157.64,0,0,0,360.84,359.85q7.29,0,14.41-.64a159.43,159.43,0,0,0,16.47-22.82,157.2,157.2,0,0,0,18.67-48A159.23,159.23,0,0,0,413.71,256,157.1,157.1,0,0,0,377.23,155.11Z"/><path class="cls-5" d="M256,110.29A145.68,145.68,0,1,1,153,153a144.79,144.79,0,0,1,103-42.67m0-12A157.71,157.71,0,1,0,413.71,256,157.71,157.71,0,0,0,256,98.29Z"/><path class="cls-6" d="M413.59,249.9a156.83,156.83,0,0,0-16.28-64c-28.57-58-91.33-93.15-155.73-87a156.29,156.29,0,0,0-10.43,13.45C371.62,89.9,458.06,258.81,358.24,359.83c4-4.05,11.42-.11,17-.62A157.49,157.49,0,0,0,413.59,249.9Z"/><path class="cls-5" d="M189.12,248.18a7,7,0,0,1-2.1-.33l-25.88-8.47a6.74,6.74,0,1,1,4.19-12.82L191.22,235a6.74,6.74,0,0,1-2.1,13.15Z"/><path class="cls-6" d="M256,199.5a6.75,6.75,0,0,1-6.74-6.75V160.41a6.75,6.75,0,0,1,13.49,0v32.34A6.75,6.75,0,0,1,256,199.5Z"/><path class="cls-6" d="M322.85,248.07a6.74,6.74,0,0,1-2-13.18l26-8.1a6.74,6.74,0,0,1,4,12.88l-26,8.1A6.93,6.93,0,0,1,322.85,248.07Z"/><path class="cls-6" d="M308.43,342.7a6.75,6.75,0,0,1-5.54-2.88l-11.18-16a6.74,6.74,0,0,1,11.05-7.73l11.19,16a6.75,6.75,0,0,1-5.52,10.61Z"/><path class="cls-5" d="M203.12,342.4a6.75,6.75,0,0,1-5.37-10.82L209.55,316a6.74,6.74,0,1,1,10.75,8.14l-11.79,15.58A6.77,6.77,0,0,1,203.12,342.4Z"/><path class="cls-7" d="M235.3,412.36a157.78,157.78,0,0,1-114.74-75.5l74.11-3.43A14.76,14.76,0,0,1,209.14,343Z"/><path class="cls-7" d="M158.4,240.83l-56.72,47.82A158,158,0,0,1,134.6,155.33l28,68.68A14.74,14.74,0,0,1,158.4,240.83Z"/><path class="cls-7" d="M413.71,256a159.23,159.23,0,0,1-3.32,32.39l-56.81-47.72a14.75,14.75,0,0,1-4.18-16.82l27.83-68.74A157.1,157.1,0,0,1,413.71,256Z"/><path class="cls-8" d="M413.71,256a159.23,159.23,0,0,1-3.32,32.39l-56.81-47.72a14.75,14.75,0,0,1-4.18-16.82l27.83-68.74A157.1,157.1,0,0,1,413.71,256Z"/><path class="cls-7" d="M247.34,195.57,194.5,234a14.74,14.74,0,0,0-5.35,16.47l20.18,62.11a14.73,14.73,0,0,0,14,10.18h65.3a14.73,14.73,0,0,0,14-10.18l20.18-62.11A14.74,14.74,0,0,0,317.5,234l-52.84-38.39A14.74,14.74,0,0,0,247.34,195.57Z"/><path class="cls-8" d="M322.85,250.43l-20.18,62.11a14.73,14.73,0,0,1-14,10.18H259.18A157.52,157.52,0,0,1,205,226.35l42.37-30.78a14.74,14.74,0,0,1,17.32,0L317.5,234A14.74,14.74,0,0,1,322.85,250.43Z"/><path class="cls-7" d="M391.72,336.39a159.43,159.43,0,0,1-16.47,22.82,157.41,157.41,0,0,1-98,53.08l23.9-64.12,2-5.38a14.74,14.74,0,0,1,14.44-9.57Z"/><path class="cls-8" d="M391.72,336.39a159.43,159.43,0,0,1-16.47,22.82q-7.12.65-14.41.64a157.41,157.41,0,0,1-59.69-11.68l2-5.38a14.74,14.74,0,0,1,14.43-9.57Z"/><path class="cls-7" d="M324.68,114l-60,43.61a14.74,14.74,0,0,1-17.32,0L217.63,136h0l-30.31-22a156.78,156.78,0,0,1,54.27-15.06q7.11-.65,14.41-.64A157.09,157.09,0,0,1,324.68,114Z"/><path class="cls-8" d="M324.68,114l-60,43.61a14.72,14.72,0,0,1-17.32,0L217.63,136h0a158,158,0,0,1,24-37.07q7.11-.65,14.41-.64A157.09,157.09,0,0,1,324.68,114Z"/><circle class="cls-9" cx="316.1" cy="173.59" r="32.24"/></svg>