<svg id="_50" data-name="50" xmlns="http://www.w3.org/2000/svg" viewBox="0 0 512 512"><defs><style>.cls-1{fill:#6c7ed5;}.cls-2{fill:#ea792e;}.cls-3{fill:#f39e22;}.cls-4{fill:#f9c744;}.cls-5{fill:#f4e6f4;}.cls-6{fill:#fff;}.cls-7{fill:#c1b7d3;}.cls-8{fill:#746087;}.cls-9{fill:#c2aacf;}.cls-10{fill:#3e4e60;}.cls-11{fill:#3f6c8e;}</style></defs><title>50-soccer-icons</title><circle class="cls-1" cx="256" cy="256" r="256"/><path class="cls-2" d="M454,311.42v.45a17.56,17.56,0,0,1-17.56,17.56h-164a17.57,17.57,0,0,1-17.56-17.56v-.45a17.57,17.57,0,0,1,17.56-17.57h17.51l10.4-60.93,6.46-37.79,3.23-18.9,6.45-37.78L325,88.63A33.33,33.33,0,0,1,335.3,69.48a28.51,28.51,0,0,1,19.16-7.54c14.43,0,26.81,11.22,29.46,26.69l8.51,49.82,6.45,37.78,3.23,18.9,6.46,37.79L419,293.85h17.51A17.57,17.57,0,0,1,454,311.42Z"/><path class="cls-3" d="M454,311.42v.45a17.56,17.56,0,0,1-17.56,17.56h-82V61.94c14.43,0,26.81,11.22,29.46,26.69L419,293.85h17.51A17.57,17.57,0,0,1,454,311.42Z"/><path class="cls-4" d="M354.46,293.85h72.39a9.85,9.85,0,0,1,9.85,9.85v0a9.85,9.85,0,0,1-9.85,9.85H354.46a0,0,0,0,1,0,0v-19.7a0,0,0,0,1,0,0Z"/><path class="cls-3" d="M272.21,293.85H344.6a9.85,9.85,0,0,1,9.85,9.85v0a9.85,9.85,0,0,1-9.85,9.85H272.21a0,0,0,0,1,0,0v-19.7A0,0,0,0,1,272.21,293.85Z" transform="translate(626.67 607.41) rotate(180)"/><path class="cls-3" d="M383.92,88.63a43.92,43.92,0,0,1-58.93,0A33.33,33.33,0,0,1,335.3,69.48a28.51,28.51,0,0,1,19.16-7.54C368.89,61.94,381.27,73.16,383.92,88.63Z"/><path class="cls-4" d="M383.92,88.63A43.78,43.78,0,0,1,354.46,100v-38C368.89,61.94,381.27,73.16,383.92,88.63Z"/><polygon class="cls-5" points="398.88 176.23 310.03 176.23 316.48 138.45 392.43 138.45 398.88 176.23"/><polygon class="cls-5" points="408.57 232.92 300.34 232.92 306.8 195.13 402.11 195.13 408.57 232.92"/><polygon class="cls-6" points="398.88 176.23 354.45 176.23 354.45 138.45 392.43 138.45 398.88 176.23"/><polygon class="cls-6" points="408.57 232.92 354.45 232.92 354.45 195.13 402.11 195.13 408.57 232.92"/><circle class="cls-7" cx="161.86" cy="350.02" r="76.83"/><path class="cls-5" d="M220.92,300.88a76.67,76.67,0,0,0-59.06-27.69c-2.36,0-4.71.11-7,.32a76.68,76.68,0,0,0-11.68,18.06h0a76.8,76.8,0,0,0,69.77,109q3.54,0,7-.31a77.42,77.42,0,0,0,8-11.12,76.39,76.39,0,0,0,9.09-23.38A77.35,77.35,0,0,0,238.69,350,76.47,76.47,0,0,0,220.92,300.88Z"/><path class="cls-8" d="M161.86,279a71,71,0,1,1-50.19,20.79A70.53,70.53,0,0,1,161.86,279m0-5.85A76.83,76.83,0,1,0,238.69,350a76.82,76.82,0,0,0-76.83-76.83Z"/><path class="cls-9" d="M238.63,347.05a76.78,76.78,0,0,0-83.79-73.54,76.41,76.41,0,0,0-5.08,6.55c68.43-10.95,110.53,71.33,61.91,120.54,2-2,5.56-.05,8.29-.3A76.77,76.77,0,0,0,238.63,347.05Z"/><path class="cls-8" d="M129.28,346.21a3.34,3.34,0,0,1-1-.16l-12.61-4.13a3.28,3.28,0,0,1,2-6.24l12.62,4.12a3.29,3.29,0,0,1-1,6.41Z"/><path class="cls-9" d="M161.85,322.5a3.29,3.29,0,0,1-3.29-3.29V303.46a3.29,3.29,0,1,1,6.57,0v15.75A3.28,3.28,0,0,1,161.85,322.5Z"/><path class="cls-9" d="M194.43,346.16a3.28,3.28,0,0,1-1-6.42l12.67-3.95a3.29,3.29,0,0,1,1.95,6.28L195.41,346A3.38,3.38,0,0,1,194.43,346.16Z"/><path class="cls-9" d="M187.4,392.25a3.26,3.26,0,0,1-2.69-1.4l-5.45-7.79a3.28,3.28,0,0,1,5.38-3.76l5.45,7.79a3.28,3.28,0,0,1-2.69,5.16Z"/><path class="cls-8" d="M136.11,392.11a3.29,3.29,0,0,1-2.62-5.27l5.75-7.59a3.29,3.29,0,1,1,5.24,4l-5.75,7.58A3.28,3.28,0,0,1,136.11,392.11Z"/><path class="cls-10" d="M151.78,426.19a76.84,76.84,0,0,1-55.89-36.78l36.1-1.67a7.17,7.17,0,0,1,7,4.64Z"/><path class="cls-10" d="M114.32,342.63l-27.63,23.3a77,77,0,0,1,16-64.95l13.61,33.46A7.17,7.17,0,0,1,114.32,342.63Z"/><path class="cls-10" d="M238.69,350a77.35,77.35,0,0,1-1.62,15.78L209.4,342.55a7.19,7.19,0,0,1-2-8.19l13.56-33.48A76.47,76.47,0,0,1,238.69,350Z"/><path class="cls-11" d="M238.69,350a77.35,77.35,0,0,1-1.62,15.78L209.4,342.55a7.19,7.19,0,0,1-2-8.19l13.56-33.48A76.47,76.47,0,0,1,238.69,350Z"/><path class="cls-10" d="M157.64,320.58l-25.73,18.7a7.18,7.18,0,0,0-2.61,8l9.83,30.25a7.18,7.18,0,0,0,6.83,5h31.81a7.18,7.18,0,0,0,6.83-5l9.83-30.25a7.18,7.18,0,0,0-2.61-8l-25.74-18.7A7.17,7.17,0,0,0,157.64,320.58Z"/><path class="cls-11" d="M194.43,347.31l-9.83,30.25a7.18,7.18,0,0,1-6.83,5H163.42A76.67,76.67,0,0,1,137,335.58l20.64-15a7.16,7.16,0,0,1,8.43,0l25.74,18.7A7.18,7.18,0,0,1,194.43,347.31Z"/><path class="cls-10" d="M228,389.18a77.1,77.1,0,0,1-55.76,37l11.64-31.24,1-2.62a7.17,7.17,0,0,1,7-4.66Z"/><path class="cls-11" d="M228,389.18a77.42,77.42,0,0,1-8,11.12q-3.47.31-7,.31a76.62,76.62,0,0,1-29.08-5.69l1-2.62a7.17,7.17,0,0,1,7-4.66Z"/><path class="cls-10" d="M195.32,280.84l-29.24,21.25a7.21,7.21,0,0,1-8.44,0l-14.47-10.52h0l-14.76-10.73a76.36,76.36,0,0,1,26.44-7.33c2.3-.21,4.65-.32,7-.32A76.54,76.54,0,0,1,195.32,280.84Z"/><path class="cls-11" d="M195.32,280.84l-29.24,21.25a7.17,7.17,0,0,1-8.43,0l-14.48-10.52h0a76.68,76.68,0,0,1,11.68-18.06c2.3-.21,4.65-.32,7-.32A76.54,76.54,0,0,1,195.32,280.84Z"/><circle class="cls-6" cx="191.14" cy="309.87" r="15.71"/><path class="cls-5" d="M284.1,49.84a5,5,0,0,0-6.34-3.12c-30.46,10.34-47.83,21.77-54.65,36-7.07,14.7-1.61,29.78,3.68,44.36,3.59,9.93,7.31,20.2,7.31,30.55,0,18.67-16,33.82-47.48,45-25.77,9.17-57.32,13.92-81.84,16.37L104,204.75A6.12,6.12,0,0,0,94.54,200L62.2,221.12a6.12,6.12,0,0,0,.58,10.58l34.49,17.44a6.12,6.12,0,0,0,8.86-5.8L105.34,229c25.17-2.5,57.79-7.4,84.63-16.95,35.92-12.78,54.13-31.1,54.13-54.45,0-12.11-4-23.21-7.91-34-5-13.79-9.31-25.71-4.07-36.62,5.51-11.45,21.49-21.54,48.86-30.84A5,5,0,0,0,284.1,49.84Z"/></svg>