<svg id="_50" data-name="50" xmlns="http://www.w3.org/2000/svg" viewBox="0 0 512 512"><defs><style>.cls-1{fill:#f39e22;}.cls-2{fill:#fbd9a3;}.cls-3{fill:#faefdc;}.cls-4{fill:#50755c;}.cls-5{fill:#528f66;}.cls-6{fill:#53b976;}.cls-7{fill:#78c795;}.cls-8{fill:#ea7589;}.cls-9{fill:#4fcae8;}</style></defs><title>50-soccer-icons</title><circle class="cls-1" cx="256" cy="256" r="256"/><path class="cls-2" d="M79.15,104.54h353.7a24,24,0,0,1,24,24v254.9a24,24,0,0,1-24,24H79.15a24,24,0,0,1-24-24V128.55A24,24,0,0,1,79.15,104.54Z"/><path class="cls-3" d="M79.15,104.54h353.7a24,24,0,0,1,24,24V256H55.15V128.55A24,24,0,0,1,79.15,104.54Z"/><path class="cls-4" d="M101.56,127H410.44a24,24,0,0,1,24,24V361a24,24,0,0,1-24,24H101.56a24,24,0,0,1-24-24V151A24,24,0,0,1,101.56,127Z"/><path class="cls-5" d="M101.56,127H410.44a24,24,0,0,1,24,24V256H77.56V151A24,24,0,0,1,101.56,127Z"/><path class="cls-6" d="M97.17,165.4V346.6A18.87,18.87,0,0,0,116,365.45H396a18.88,18.88,0,0,0,18.85-18.86V165.4A18.87,18.87,0,0,0,396,146.55H116A18.87,18.87,0,0,0,97.17,165.4Zm5.6,129V217.61h31.54a3.88,3.88,0,0,1,3.87,3.87v69a3.88,3.88,0,0,1-3.87,3.87ZM116,359.85a13.26,13.26,0,0,1-13.24-13.25V331.48a31.34,31.34,0,0,1,28.36,28.37Zm293.22-13.26A13.27,13.27,0,0,1,396,359.85H380.87a31.34,31.34,0,0,1,28.36-28.37Zm0-129v76.78H377.69a3.88,3.88,0,0,1-3.87-3.87v-69a3.88,3.88,0,0,1,3.87-3.87ZM396,152.15a13.26,13.26,0,0,1,13.24,13.25v15.12a31.34,31.34,0,0,1-28.36-28.37Zm-20.74,0a37,37,0,0,0,34,34V212H377.69a9.48,9.48,0,0,0-9.47,9.47v69a9.48,9.48,0,0,0,9.47,9.47h31.54v25.88a37,37,0,0,0-34,34H258.8V292.06a36.17,36.17,0,0,0,0-72.12V152.15Zm-122,93.79a10.44,10.44,0,0,0,0,20.12v20.38a30.57,30.57,0,0,1,0-60.88Zm5.6,20.12a10.44,10.44,0,0,0,0-20.12V225.56a30.57,30.57,0,0,1,0,60.88Zm-5.6-113.91v67.79a36.17,36.17,0,0,0,0,72.12v67.79H136.75a37,37,0,0,0-34-34V300h31.54a9.48,9.48,0,0,0,9.47-9.47v-69a9.48,9.48,0,0,0-9.47-9.47H102.77V186.13a37,37,0,0,0,34-34Zm-122.07,0a31.34,31.34,0,0,1-28.36,28.37V165.4A13.26,13.26,0,0,1,116,152.15Z"/><path class="cls-7" d="M97.17,165.4V256h5.6V217.62h31.55a3.85,3.85,0,0,1,3.85,3.86V256h5.6V221.48a9.47,9.47,0,0,0-9.45-9.47H102.77V186.13a36.93,36.93,0,0,0,34-34H253.2V220A36.21,36.21,0,0,0,219.82,256h5.61a30.61,30.61,0,0,1,27.77-30.44v20.38A10.44,10.44,0,0,0,245.55,256h20.9a10.44,10.44,0,0,0-7.65-10.06V225.56A30.61,30.61,0,0,1,286.57,256h5.61A36.21,36.21,0,0,0,258.8,220v-67.8H375.25a36.93,36.93,0,0,0,34,34V212H377.68a9.47,9.47,0,0,0-9.45,9.47V256h5.6V221.48a3.85,3.85,0,0,1,3.85-3.86h31.55V256h5.6V165.4A18.86,18.86,0,0,0,396,146.55H116A18.86,18.86,0,0,0,97.17,165.4ZM396,152.15a13.26,13.26,0,0,1,13.24,13.25v15.12a31.34,31.34,0,0,1-28.36-28.37Zm-264.86,0a31.34,31.34,0,0,1-28.36,28.37V165.4A13.26,13.26,0,0,1,116,152.15Z"/><path class="cls-8" d="M314.05,346l20.11-14.69a4.33,4.33,0,0,0-.8-7.45l-22.78-10.07a4.32,4.32,0,0,0-6.05,4.42l.78,7.28c-28.33.14-48.83-8.39-64.16-26.61-13.86-16.47-24.33-41.77-32.51-78.8a19.88,19.88,0,1,0-9.8,2c8.56,38.79,19.73,65.52,34.66,83.27,17.59,20.9,40.85,30.56,72.89,30.15l.81,7.5A4.32,4.32,0,0,0,314.05,346Z"/><path class="cls-8" d="M364.92,326.66l8-8a6,6,0,1,0-8.43-8.42l-8,8-8-8a6,6,0,1,0-8.42,8.42l8,8-8,8a6,6,0,1,0,8.42,8.42l8-8,8,8a6,6,0,1,0,8.43-8.42Z"/><path class="cls-9" d="M348.11,230.21l-10.84-22.43a4.32,4.32,0,0,0-7.46-.55l-14,20.6a4.32,4.32,0,0,0,3.26,6.74l7.3.54c-4.95,27.9-17,46.53-37.7,58.34-18.69,10.67-45.47,16.43-83.36,17.82a19.9,19.9,0,1,0,.17,10c39.7-1.45,68-7.63,88.15-19.13,23.72-13.54,37.4-34.69,42.76-66.28l7.52.55A4.32,4.32,0,0,0,348.11,230.21Z"/><path class="cls-9" d="M335.93,161.34a19.88,19.88,0,1,0,19.88,19.88A19.88,19.88,0,0,0,335.93,161.34Zm0,30.56a10.69,10.69,0,1,1,10.69-10.68A10.69,10.69,0,0,1,335.93,191.9Z"/></svg>