<svg id="_50" data-name="50" xmlns="http://www.w3.org/2000/svg" viewBox="0 0 512 512"><defs><style>.cls-1{fill:#7063ce;}.cls-2{fill:#7d73ff;}.cls-3{fill:#c1b7d3;}.cls-4{fill:#f4e6f4;}.cls-5{fill:#746087;}.cls-6{fill:#c2aacf;}.cls-7{fill:#3e4e60;}.cls-8{fill:#3f6c8e;}.cls-9{fill:#fff;}.cls-10{fill:#c17e62;}.cls-11{fill:#a26d5a;}.cls-12{fill:#9175a7;}.cls-13{fill:#eea47d;}.cls-14{fill:#d48d77;}</style></defs><title>50-soccer-icons</title><circle class="cls-1" cx="256" cy="256" r="256"/><path class="cls-2" d="M256,455.35h-.32a5,5,0,1,1,0-10h.37a191.09,191.09,0,0,0,29.27-2.25,5,5,0,0,1,1.53,9.88A201,201,0,0,1,256,455.35ZM210.33,450a4.74,4.74,0,0,1-1.17-.14,199.05,199.05,0,0,1-29.74-9.7,5,5,0,0,1,3.85-9.24,188.86,188.86,0,0,0,28.23,9.22,5,5,0,0,1-1.17,9.86Zm119.76-9.22a5,5,0,0,1-1.91-9.63,190.5,190.5,0,0,0,26.49-13.46,5,5,0,0,1,5.22,8.53A200.23,200.23,0,0,1,332,440.36,5.16,5.16,0,0,1,330.09,440.74ZM141.55,418.1a5,5,0,0,1-2.94-1,201,201,0,0,1-23.75-20.35,5,5,0,1,1,7.08-7.06,191.3,191.3,0,0,0,22.56,19.33,5,5,0,0,1-2.95,9Zm251.64-19.43a5,5,0,0,1-3.53-8.54A191.42,191.42,0,0,0,409,367.58a5,5,0,0,1,8.08,5.9,201.81,201.81,0,0,1-20.36,23.73A5,5,0,0,1,393.19,398.67Zm-303-36.3A5,5,0,0,1,85.88,360a199.68,199.68,0,0,1-14.2-27.88,5,5,0,1,1,9.25-3.82,188.88,188.88,0,0,0,13.48,26.48,5,5,0,0,1-1.66,6.87A4.94,4.94,0,0,1,90.15,362.37Zm345.31-26.62a5.06,5.06,0,0,1-1.93-.38,5,5,0,0,1-2.69-6.54,188.13,188.13,0,0,0,9.23-28.23,5,5,0,1,1,9.72,2.35,198.24,198.24,0,0,1-9.72,29.73A5,5,0,0,1,435.46,335.75ZM64,291.19A5,5,0,0,1,59,287a202.35,202.35,0,0,1-2.38-31v-.21a5,5,0,0,1,10,0V256a191.21,191.21,0,0,0,2.27,29.42,5,5,0,0,1-4.17,5.71A5.32,5.32,0,0,1,64,291.19Zm386.38-29.77h0a5,5,0,0,1-5-5V256a191.32,191.32,0,0,0-2.3-29.62,5,5,0,0,1,9.88-1.55A201.34,201.34,0,0,1,455.35,256v.44A5,5,0,0,1,450.35,261.42ZM67,215.43a4.68,4.68,0,0,1-1.17-.14,5,5,0,0,1-3.7-6,200.55,200.55,0,0,1,9.69-29.74,5,5,0,0,1,9.24,3.84,188.13,188.13,0,0,0-9.2,28.24A5,5,0,0,1,67,215.43Zm368.6-28.81a5,5,0,0,1-4.62-3.08,189.46,189.46,0,0,0-13.51-26.47,5,5,0,1,1,8.52-5.24,199.8,199.8,0,0,1,14.22,27.88,5,5,0,0,1-4.61,6.91Zm-336.79-40a5,5,0,0,1-4-7.95,201.7,201.7,0,0,1,20.34-23.75A5,5,0,0,1,122.2,122a191.22,191.22,0,0,0-19.32,22.56A5,5,0,0,1,98.83,146.64Zm294.62-23a5,5,0,0,1-3.54-1.47,190.44,190.44,0,0,0-22.58-19.3,5,5,0,1,1,5.89-8.09A200.83,200.83,0,0,1,397,115.05a5,5,0,0,1-3.53,8.54ZM154.55,95.2a5,5,0,0,1-2.62-9.27,198.06,198.06,0,0,1,27.88-14.2A5,5,0,1,1,183.63,81a188.4,188.4,0,0,0-26.48,13.49A4.94,4.94,0,0,1,154.55,95.2ZM330.46,81.42a5,5,0,0,1-1.92-.38,188.06,188.06,0,0,0-28.24-9.18,5,5,0,1,1,2.33-9.73,199.43,199.43,0,0,1,29.75,9.67,5,5,0,0,1-1.92,9.62ZM225.7,69a5,5,0,0,1-.76-9.94A202.3,202.3,0,0,1,256,56.65h.1a5,5,0,0,1,0,10H256a192.51,192.51,0,0,0-29.52,2.28A5.12,5.12,0,0,1,225.7,69Z"/><circle class="cls-3" cx="255.99" cy="253.47" r="143.38"/><path class="cls-4" d="M366.21,161.75A143.1,143.1,0,0,0,256,110.09c-4.41,0-8.79.19-13.09.59a143.1,143.1,0,0,0-21.79,33.7h0a143.34,143.34,0,0,0,130.2,203.5q6.62,0,13.1-.59a144.88,144.88,0,0,0,15-20.75,143.45,143.45,0,0,0-13.17-164.8Z"/><path class="cls-5" d="M256,121a132.47,132.47,0,1,1-93.67,38.8A131.63,131.63,0,0,1,256,121m0-10.91A143.38,143.38,0,1,0,399.38,253.47,143.38,143.38,0,0,0,256,110.09Z"/><path class="cls-6" d="M399.26,247.92a142.51,142.51,0,0,0-14.8-58.18c-26-52.75-83-84.68-141.58-79.06a142.53,142.53,0,0,0-9.48,12.23c127.71-20.45,206.29,133.12,115.54,225,3.64-3.68,10.39-.1,15.47-.56A143.22,143.22,0,0,0,399.26,247.92Z"/><path class="cls-5" d="M195.19,246.36a6.39,6.39,0,0,1-1.91-.3l-23.53-7.7a6.13,6.13,0,0,1,3.81-11.66l23.54,7.7a6.13,6.13,0,0,1-1.91,12Z"/><path class="cls-6" d="M256,202.1a6.12,6.12,0,0,1-6.13-6.13v-29.4a6.13,6.13,0,1,1,12.26,0V196A6.12,6.12,0,0,1,256,202.1Z"/><path class="cls-6" d="M316.77,246.26a6.13,6.13,0,0,1-1.83-12l23.64-7.36a6.13,6.13,0,1,1,3.64,11.71L318.59,246A6.1,6.1,0,0,1,316.77,246.26Z"/><path class="cls-6" d="M303.66,332.29a6.1,6.1,0,0,1-5-2.62l-10.17-14.54a6.13,6.13,0,1,1,10.05-7l10.17,14.54a6.14,6.14,0,0,1-5,9.65Z"/><path class="cls-5" d="M207.92,332a6.12,6.12,0,0,1-4.88-9.83L213.76,308a6.13,6.13,0,0,1,9.78,7.4l-10.72,14.16A6.11,6.11,0,0,1,207.92,332Z"/><path class="cls-7" d="M237.17,395.62A143.46,143.46,0,0,1,132.86,327l67.37-3.12a13.42,13.42,0,0,1,13.16,8.66Z"/><path class="cls-7" d="M167.26,239.68l-51.57,43.48A143.63,143.63,0,0,1,145.63,162L171,224.39A13.38,13.38,0,0,1,167.26,239.68Z"/><path class="cls-7" d="M399.38,253.47a144.29,144.29,0,0,1-3,29.45l-51.64-43.39a13.4,13.4,0,0,1-3.8-15.29l25.3-62.49A142.87,142.87,0,0,1,399.38,253.47Z"/><path class="cls-8" d="M399.38,253.47a144.29,144.29,0,0,1-3,29.45l-51.64-43.39a13.4,13.4,0,0,1-3.8-15.29l25.3-62.49A142.87,142.87,0,0,1,399.38,253.47Z"/><path class="cls-7" d="M248.12,198.53l-48,34.9a13.4,13.4,0,0,0-4.87,15l18.35,56.46a13.39,13.39,0,0,0,12.74,9.26h59.37a13.4,13.4,0,0,0,12.74-9.26l18.35-56.46a13.4,13.4,0,0,0-4.87-15l-48-34.9A13.4,13.4,0,0,0,248.12,198.53Z"/><path class="cls-8" d="M316.77,248.41l-18.35,56.46a13.39,13.39,0,0,1-12.74,9.26H258.89a143.22,143.22,0,0,1-49.29-87.62l38.52-28a13.4,13.4,0,0,1,15.75,0l48,34.9A13.41,13.41,0,0,1,316.77,248.41Z"/><path class="cls-7" d="M379.38,326.55a144.88,144.88,0,0,1-15,20.75,143.18,143.18,0,0,1-89.1,48.26L297,337.26l1.83-4.88A13.4,13.4,0,0,1,312,323.67Z"/><path class="cls-8" d="M379.38,326.55a144.88,144.88,0,0,1-15,20.75q-6.48.58-13.1.59A143,143,0,0,1,297,337.26l1.83-4.88a13.38,13.38,0,0,1,13.12-8.7Z"/><path class="cls-7" d="M318.43,124.36,263.87,164a13.4,13.4,0,0,1-15.75,0l-27-19.62h0l-27.56-20a142.49,142.49,0,0,1,49.35-13.68c4.3-.4,8.68-.59,13.09-.59A142.76,142.76,0,0,1,318.43,124.36Z"/><path class="cls-8" d="M318.43,124.36,263.87,164a13.39,13.39,0,0,1-15.75,0l-27-19.62h0a143.1,143.1,0,0,1,21.79-33.7c4.3-.4,8.68-.59,13.09-.59A142.76,142.76,0,0,1,318.43,124.36Z"/><circle class="cls-9" cx="310.63" cy="178.54" r="29.31"/><path class="cls-10" d="M393.4,366.25a8.43,8.43,0,0,1-.66.71l-.25.25c-6.81,6.83-12.71,13.39-18,19.66-38.32,45.3-45.38,75.06-138.76,75.06-55.23,0-64.4,6.59-76,31.33-3.64-1.48-7.23-3-10.78-4.68a255,255,0,0,1-49.58-30.12q-6.4-4.95-12.48-10.31l48.34-48.33c63.75-63.74,84.9-50.57,96.35-50.57,6,0,14.93-5.47,22.17-10.73,6.69-4.84,11.9-9.5,11.9-9.5,3.62-3.62,7-5.55,9.92-6.19,8-1.74,13,6,12.09,14.83a22.42,22.42,0,0,1-6.56,13.62c-5.72,5.71-48.38,31-48.38,31h63.94c23.36,0,43.27-52.06,65.49-52.06,11.61,0,17.15,2.93,19.79,5.73a8,8,0,0,1,2.42,5L381.76,344h0l-.08.09-.31.38-.08.1L373,354.48h.31c1.91.13,12.07.92,17.81,3.69C394.78,360,396.63,362.53,393.4,366.25Z"/><path class="cls-11" d="M390.44,364.93l-1.31-.53h-.06c-.73-.29-1.45-.56-2.14-.82l-.26-.1h0c-2.07-.75-3.84-1.32-5-1.7-5.74-1.95-13.28-1.14-13.28-1.14l4.7-5.85v0l.21-.26,7.72-9.6.07-.1.18-.23.08-.1.31-.38c-.59-.47-1.33-1.08-2.2-1.65l0,0h0a12.18,12.18,0,0,0-2-1.09,9.35,9.35,0,0,0-3.65-.75c-22.21,0-45.86,56.55-69.22,56.55H240.61s12.23-7.25,24.48-14.86H232.68s42.66-25.26,48.38-31a22.42,22.42,0,0,0,6.56-13.62c-3.75-.85-8.61.74-14.09,6.22,0,0-22.62,20.23-34.07,20.23s-32.6-13.17-96.34,50.56L99.33,458.46a255,255,0,0,0,49.58,30.12c3.55,1.65,7.14,3.2,10.78,4.68,11.63-24.74,20.8-31.33,76-31.33,93.38,0,100.44-29.76,138.76-75.06,5.3-6.27,11.2-12.83,18-19.66l.25-.25a8.43,8.43,0,0,0,.66-.71C392.42,365.78,391.43,365.34,390.44,364.93Z"/><path class="cls-12" d="M391.14,358.18c-.86,1.07-1.75,2.19-2.67,3.38l-1.52,2h0l0,0q-8.28,10.69-15.7,19.79c-52,63.69-75.41,71.07-118.15,71.07-82.45,0-92,5.24-104.17,34.16,3.55,1.65,7.14,3.2,10.78,4.68,11.63-24.74,20.8-31.33,76-31.33,93.38,0,100.44-29.76,138.76-75.06,5.3-6.27,11.2-12.83,18-19.66l.25-.25a8.43,8.43,0,0,0,.66-.71C396.63,362.53,394.78,360,391.14,358.18Z"/><path class="cls-12" d="M384.32,340.91,381.77,344h0l-.39.47-.08.1-8.22,9.92-8.25,9.95-26.52,32c-12.11,12.11-24.25,26-43.37,26,0,0,31.63-14.34,45.19-33.68,5.41-7.71,13.53-18.13,21.36-27.87v0l.42-.51c5.49-6.83,10.79-13.28,14.85-18.19l.39-.48h0l.26-.32c1.8-2.17,3.33-4,4.49-5.39A8,8,0,0,1,384.32,340.91Z"/><path class="cls-13" d="M274.54,335.31l-5.2,5.2a9.65,9.65,0,0,1-13.65,0l-1.78-1.78-.2-.21c6.69-4.84,11.9-9.5,11.9-9.5,3.62-3.62,7-5.55,9.92-6.19A9.65,9.65,0,0,1,274.54,335.31Z"/><path class="cls-14" d="M382.07,344.27a9.65,9.65,0,0,0-13.65,0l-5.2,5.19c-3.77,3.77-4.65,10.47,1.62,15Z"/><path class="cls-6" d="M381.77,344a9.57,9.57,0,0,0-4.63-2.37l-15.65,19.18a8.21,8.21,0,0,0,3.35,3.62Z"/><path class="cls-14" d="M392.49,367.21c-6.81,6.83-12.71,13.39-18,19.66l-.21-.2-1.78-1.78a4.61,4.61,0,0,1-.37-.4q-.31-.35-.6-.72l-.29-.42a9.66,9.66,0,0,1,1.26-12.11l5.19-5.2a9.66,9.66,0,0,1,9-2.58h0l.28.07a9.74,9.74,0,0,1,2.16.86h0l.14.08a8.73,8.73,0,0,1,.94.6l.2.16.34.26.22.2.36.34Z"/><path class="cls-6" d="M392.49,367.21c-6.81,6.83-12.71,13.39-18,19.66l-.21-.2-1.78-1.78a4.61,4.61,0,0,1-.37-.4q-.31-.35-.6-.72l-.29-.42q7.44-9.11,15.7-19.79h0l0,0a9.37,9.37,0,0,1,2.12.84h.05l.15.08a10.61,10.61,0,0,1,.94.6l.2.16.34.26.22.2.36.34Z"/></svg>