<svg id="_50" data-name="50" xmlns="http://www.w3.org/2000/svg" viewBox="0 0 512 512"><defs><style>.cls-1{fill:#53b976;}.cls-2{fill:#f4e6f4;}.cls-3{fill:#a583bb;}.cls-4{fill:#c2aacf;}.cls-5{fill:#decee5;}.cls-6{fill:#dd5e26;}.cls-7{fill:#ea792e;}.cls-8{fill:#f9c744;}.cls-9{fill:#3e4e60;}.cls-10{fill:#334353;}.cls-11{fill:#9b5b42;}.cls-12{fill:#8e4e3f;}.cls-13{fill:#723e33;}.cls-14{fill:#442a21;}.cls-15{fill:#543029;}.cls-16{fill:#c1b7d3;}.cls-17{fill:#746087;}.cls-18{fill:#3f6c8e;}.cls-19{fill:#fff;}</style></defs><title>50-soccer-icons</title><circle class="cls-1" cx="256" cy="256" r="256"/><path class="cls-2" d="M511.37,274.05q.28-4.08.44-8.19H495V219.48h14.39c-.39-2.75-.82-5.48-1.31-8.19H495V164.9h.29q-3.82-10.07-8.48-19.71v11.52H462.14V142.43a4.1,4.1,0,0,0-8.19,0v14.28H429.26V142.43a4.1,4.1,0,0,0-8.19,0v14.28H396.38V142.43a4.1,4.1,0,0,0-8.19,0v14.28H363.5V142.43a4.1,4.1,0,0,0-8.19,0v14.28H330.62V142.43a4.1,4.1,0,0,0-8.19,0v14.28H297.74V142.43a4.09,4.09,0,0,0-8.18,0v14.28h-24.7V142.43a4.1,4.1,0,0,0-8.19,0v14.28H232V142.43a4.09,4.09,0,0,0-8.18,0v14.28H199.1V142.43a4.09,4.09,0,0,0-8.18,0v14.28h-63a4.1,4.1,0,0,0,0,8.19h63v27.28a4.09,4.09,0,0,0,8.18,0V164.9h24.7v46.39h-37v-1.45a4.1,4.1,0,1,0-8.19,0v1.45H154V177a4.1,4.1,0,1,0-8.19,0v34.32H127.92a4.1,4.1,0,0,0,0,8.19h17.86v46.38H127.92a4.1,4.1,0,0,0,0,8.19h17.86v46.39H127.92a4.1,4.1,0,0,0,0,8.19h17.86V375H127.92a4.1,4.1,0,0,0,0,8.19h17.86v46.39H127.92a4.1,4.1,0,0,0,0,8.19h17.86v46.38h-6q8.65,4.43,17.69,8.19h21.17v7.75c2.71.87,5.44,1.68,8.19,2.45v-10.2h24.69v15.8q4.07.72,8.18,1.3v-17.1h69.84v17.47q4.11-.54,8.18-1.21V492.35h24.69v10.94q4.13-1.1,8.19-2.34v-8.6h23.9q9-3.77,17.7-8.19H363.5V437.78h24.69v37.48q4.15-2.49,8.19-5.16V437.78h24.69v13.9q4.17-3.53,8.19-7.23v-6.67h7q4-4,7.89-8.19H429.26V383.2H454v35.12q4.24-5.15,8.19-10.51V383.2H478.2q2.34-4.05,4.51-8.19H462.14V328.63h24.69V366.8l.25-.52q4.32-9,7.94-18.44V328.63h6.52q1.21-4.06,2.28-8.19H495V274.05ZM178.66,484.16H154V437.78h24.69Zm0-54.57H154V383.2h24.69Zm0-54.58H154V328.63h24.69Zm0-54.57H154V274.05h24.69Zm0-54.58H154V219.48h24.69ZM232,164.9h24.69v46.39H232ZM211.54,484.16H186.85V437.78h24.69Zm0-54.57H186.85V383.2h24.69Zm0-54.58H186.85V328.63h24.69Zm0-54.57H186.85V274.05h24.69Zm4.09-79.37a4.09,4.09,0,0,0-4.09,4.09v20.7H186.85V219.48h37v5.63a4.09,4.09,0,0,0,8.18,0v-5.63h24.69v46.38h-37v-20.7A4.09,4.09,0,0,0,215.63,241.07Zm73.93,243.09H219.72V437.78h69.84Zm0-54.57H219.72V383.2h69.84Zm0-54.58H219.72V328.63h69.84Zm0-54.57H219.72V274.05h37v8.77a4.1,4.1,0,1,0,8.19,0v-8.77h24.7Zm0-54.58h-24.7V219.48h24.7Zm0-54.57h-24.7V164.9h24.7Zm32.87,272.87H297.74V437.78h24.69Zm0-54.57H297.74V383.2h24.69Zm0-54.58H297.74V328.63h24.69Zm0-54.57H297.74V274.05h24.69Zm0-54.58H297.74V219.48h24.69Zm0-54.57H297.74V164.9h24.69Zm32.88,272.87H330.62V437.78h24.69Zm0-54.57H330.62V383.2h24.69Zm0-54.58H330.62V328.63h24.69Zm0-54.57H330.62V274.05h24.69Zm0-54.58H330.62V219.48h24.69Zm0-54.57H330.62V164.9h24.69Zm32.88,218.3H363.5V383.2h24.69Zm0-54.58H363.5V328.63h24.69Zm0-54.57H363.5V274.05h24.69Zm0-54.58H363.5V219.48h24.69Zm0-54.57H363.5V164.9h24.69Zm32.88,218.3H396.38V383.2h24.69Zm0-54.58H396.38V328.63h24.69Zm0-54.57H396.38V274.05h24.69Zm0-54.58H396.38V219.48h24.69Zm0-54.57H396.38V164.9h24.69ZM454,375H429.26V328.63H454Zm0-54.57H429.26V274.05H454Zm0-54.58H429.26V219.48H454Zm0-54.57H429.26V164.9H454Zm32.88,109.15H462.14V274.05h24.69Zm0-54.58H462.14V219.48h24.69Zm0-54.57H462.14V164.9h24.69Z"/><path class="cls-3" d="M270.34,322.69V511.6c-4.74.27-9.53.4-14.34.4q-3.57,0-7.11-.1c-3.78-.1-7.55-.29-11.29-.55V322.69a119.53,119.53,0,0,0-35.2-85l-74.5-74.47-21.45-21.44a15.83,15.83,0,0,1-1.87-2.25,16.37,16.37,0,0,1,24.08-21.77c.33.27.65.57,1,.88l23.82,23.82,59.22,59.21,12.88,12.88A152,152,0,0,1,270.34,322.69Z"/><path class="cls-4" d="M248.89,304.65V511.9c-3.78-.1-7.55-.29-11.29-.55V322.69a119.53,119.53,0,0,0-35.2-85l-74.5-74.47-21.45-21.44a15.83,15.83,0,0,1-1.87-2.25,16.37,16.37,0,0,1,24.08-21.77c.33.27.65.57,1,.88l23.82,23.82,59.22,59.21A163.33,163.33,0,0,1,248.89,304.65Z"/><path class="cls-3" d="M485.47,142.43H152.94a25.51,25.51,0,0,0-25,20.76,24.53,24.53,0,0,0-.45,4.72v309.5a249.81,249.81,0,0,1-23.35-15.35,254.07,254.07,0,0,1-28.49-24.43V167.91a77.4,77.4,0,0,1,77.33-77.33H451.37q2.34,2.74,4.57,5.55a255.33,255.33,0,0,1,29.53,46.3Z"/><path class="cls-4" d="M471.4,117.62H131a22.06,22.06,0,0,0-2.31.11,26.86,26.86,0,0,0-24.08,21.77,25.77,25.77,0,0,0-.48,5V462.06a254.07,254.07,0,0,1-28.49-24.43V167.91a77.4,77.4,0,0,1,77.33-77.33H451.37q2.34,2.74,4.57,5.55A252,252,0,0,1,471.4,117.62Z"/><path class="cls-5" d="M471.4,117.62h-4.53a13.53,13.53,0,0,1-10.93-21.49A252,252,0,0,1,471.4,117.62Z"/><path class="cls-5" d="M104.1,227.05v235a254.07,254.07,0,0,1-28.49-24.43V227.05a14.25,14.25,0,0,1,28.49,0Z"/><path class="cls-6" d="M487.08,366.28Q482,377,475.91,387.12a257,257,0,0,1-45.85,56.6L374.14,387.8a35.38,35.38,0,0,1,0-50l1.19-1.19.65-.64,15.36-15.37a35.38,35.38,0,0,1,50,0Z"/><path class="cls-7" d="M475.91,387.12a257,257,0,0,1-45.85,56.6L374.14,387.8a35.38,35.38,0,0,1,0-50l1.19-1.19.65-.64a35.41,35.41,0,0,1,49.4.64Z"/><path class="cls-8" d="M440.32,355.34l-.94,6.25a6.65,6.65,0,0,1-5.59,5.58l-6.24.94a6.66,6.66,0,0,1-5.7-1.87L410.71,355.1a4.35,4.35,0,0,1,0-6.15l10.44-10.44a4.35,4.35,0,0,1,6.15,0l11.14,11.14A6.66,6.66,0,0,1,440.32,355.34Z"/><path class="cls-6" d="M403.33,194.89c18,18,34.3,41.75,38.75,56.47,5.42,17.91-1.79,57.47-3.28,65.21a13,13,0,0,1-15.2,10.27,12.67,12.67,0,0,1-2.41-.71,13,13,0,0,1-7.86-14.48c3.12-16.19,6.53-44.16,3.92-52.78-2.79-9.26-16.43-29.81-32.26-45.64a13,13,0,0,1,4.29-21.2h0A13,13,0,0,1,403.33,194.89Z"/><path class="cls-7" d="M393.6,194.88c18,18,34.31,41.76,38.75,56.48,5.42,17.91-1.79,57.47-3.29,65.22a12.9,12.9,0,0,1-7.87,9.55,13,13,0,0,1-7.86-14.48c3.12-16.19,6.53-44.16,3.92-52.78-2.79-9.26-16.43-29.81-32.26-45.64a13,13,0,0,1,4.29-21.2h0A12.85,12.85,0,0,1,393.6,194.88Z"/><path class="cls-9" d="M380.35,215.31a12.51,12.51,0,0,0,8.82-3.65L400.81,200a13.22,13.22,0,0,0,3.89-8.95c0-.15,0-.31,0-.45a13.28,13.28,0,0,0-3.9-9.42L383.52,163.9a3.83,3.83,0,0,0-5.39,0l-1.43,1.43a3.84,3.84,0,0,0,0,5.4l-7.84-7.85a3.84,3.84,0,0,0-5.4,0L362,164.31a3.83,3.83,0,0,0,0,5.39l-4.25-4.25a3.83,3.83,0,0,0-5.39,0L351,166.88a3.81,3.81,0,0,0,0,5.39l3.84,3.85a3.81,3.81,0,0,0-5.39,0L348,177.55a3.81,3.81,0,0,0,0,5.39l17.76,17.76h-8.13a5.77,5.77,0,0,0-5.77,5.77v3.06a5.77,5.77,0,0,0,5.77,5.77h22.74Z"/><path class="cls-10" d="M366.87,191l-.29-.29-13.21-13.2a3.81,3.81,0,0,0-5.39,0h0l1.43-1.43a3.81,3.81,0,0,1,5.39,0L369.73,191S367.66,191.83,366.87,191Z"/><path class="cls-10" d="M380.92,177.81l-.29-.29-13.2-13.21a3.83,3.83,0,0,0-5.39,0h0l1.43-1.43a3.83,3.83,0,0,1,5.39,0l14.92,14.93S381.71,178.6,380.92,177.81Z"/><path class="cls-10" d="M372.2,182.73l-.29-.29-15.56-15.56a3.81,3.81,0,0,0-5.39,0h0l1.43-1.43a3.81,3.81,0,0,1,5.39,0l17.28,17.28S373,183.52,372.2,182.73Z"/><path class="cls-10" d="M357.61,200.7h8.13l3.08,3.08H357.58a5.74,5.74,0,0,0-5.74,5.75v-3.06A5.77,5.77,0,0,1,357.61,200.7Z"/><path class="cls-10" d="M400.81,200a13.22,13.22,0,0,0,3.87-8.7s0-.07,0-.11,0-.09,0-.14h0a13.31,13.31,0,0,0-3.88-9.87l-17.29-17.28a3.81,3.81,0,0,0-5.39,0l-1.43,1.43h0a3.81,3.81,0,0,1,5.39,0l15.57,15.56.07.08c2.91,2.79,4,8.17,2.57,12.07a8,8,0,0,0,.28,6.52Z"/><path class="cls-6" d="M245,353.26c18,18,41.75,34.3,56.47,38.75,17.91,5.42,57.47-1.79,65.22-3.29a13,13,0,0,0,10.27-15.19,13.79,13.79,0,0,0-.71-2.42,13,13,0,0,0-14.49-7.86c-16.19,3.13-44.15,6.54-52.78,3.93-9.26-2.8-29.81-16.43-45.64-32.26a13,13,0,0,0-21.19,4.29h0A13,13,0,0,0,245,353.26Z"/><path class="cls-7" d="M245,343.53c18,18,41.75,34.3,56.47,38.75,17.91,5.42,57.47-1.79,65.22-3.29a12.88,12.88,0,0,0,6.7-3.55,13.13,13.13,0,0,0,2.86-4.33,13,13,0,0,0-14.49-7.86c-16.19,3.13-44.15,6.54-52.78,3.93-9.26-2.8-29.81-16.43-45.64-32.26a13,13,0,0,0-21.19,4.29h0A12.83,12.83,0,0,0,245,343.53Z"/><path class="cls-9" d="M265.37,330.27V307.54a5.76,5.76,0,0,0-5.77-5.77h-3.06a5.76,5.76,0,0,0-5.77,5.77v8.12L233,297.91a3.81,3.81,0,0,0-5.39,0l-1.43,1.43a3.83,3.83,0,0,0,0,5.39l-3.84-3.85a3.84,3.84,0,0,0-5.4,0l-1.43,1.44a3.83,3.83,0,0,0,0,5.39l4.26,4.25a3.82,3.82,0,0,0-5.4,0L213,313.39a3.83,3.83,0,0,0,0,5.39l7.85,7.85a3.81,3.81,0,0,0-5.39,0L214,328.06a3.81,3.81,0,0,0,0,5.39l17.28,17.29a13.28,13.28,0,0,0,9.42,3.9h.45a13.26,13.26,0,0,0,9-3.89l11.64-11.64a12.51,12.51,0,0,0,3.65-8.82Z"/><path class="cls-10" d="M241.12,316.8l-.29-.29L227.62,303.3a3.81,3.81,0,0,1,0-5.39h0l-1.43,1.43a3.81,3.81,0,0,0,0,5.39l14.93,14.93S241.91,317.59,241.12,316.8Z"/><path class="cls-10" d="M227.88,330.85l-.29-.29-13.2-13.21a3.81,3.81,0,0,1,0-5.39h0L213,313.39a3.82,3.82,0,0,0,0,5.4l14.92,14.92S228.67,331.64,227.88,330.85Z"/><path class="cls-10" d="M232.81,322.13l-.29-.29L217,306.28a3.81,3.81,0,0,1,0-5.39h0l-1.43,1.43a3.81,3.81,0,0,0,0,5.39L232.81,325S233.6,322.92,232.81,322.13Z"/><path class="cls-10" d="M250.77,307.53v8.13l3.08,3.09V307.51a5.76,5.76,0,0,1,5.75-5.75h-3.06A5.77,5.77,0,0,0,250.77,307.53Z"/><path class="cls-10" d="M250.06,350.74a13.22,13.22,0,0,1-8.69,3.87h-.27a13.24,13.24,0,0,1-9.86-3.89L214,333.45a3.81,3.81,0,0,1,0-5.39l1.43-1.43h0a3.81,3.81,0,0,0,0,5.39L231,347.58l.07.08c2.8,2.91,8.17,4,12.08,2.57a8.07,8.07,0,0,1,6.51.27Z"/><path class="cls-11" d="M361.12,329.76l12.06,12.07a15.71,15.71,0,0,0,22.22-22.22l-12.06-12.07Z"/><path class="cls-12" d="M383.34,307.54l12.06,12.07a15.67,15.67,0,0,1,4.1,15l-12.89-12.9a46,46,0,0,1-10.06,15.07,48.13,48.13,0,0,1-4.45,3.93l-11-11Z"/><path class="cls-12" d="M362.4,228.78h7.79a0,0,0,0,1,0,0v24.38a0,0,0,0,1,0,0H362.4A12.19,12.19,0,0,1,350.21,241v0a12.19,12.19,0,0,1,12.19-12.19Z" transform="translate(785.29 156.67) rotate(135)"/><path class="cls-13" d="M356.4,238.06h8.18a0,0,0,0,1,0,0v10.46a0,0,0,0,1,0,0H356.4a5.23,5.23,0,0,1-5.23-5.23v0A5.23,5.23,0,0,1,356.4,238.06Z" transform="translate(782.97 162.28) rotate(135)"/><path class="cls-12" d="M286.64,306.73H290a0,0,0,0,1,0,0v24.38a0,0,0,0,1,0,0h-3.41a12.19,12.19,0,0,1-12.19-12.19v0A12.19,12.19,0,0,1,286.64,306.73Z" transform="translate(-142.84 292.99) rotate(-45)"/><path class="cls-13" d="M285.28,311.37h3.81a0,0,0,0,1,0,0v10.46a0,0,0,0,1,0,0h-3.81a5.23,5.23,0,0,1-5.23-5.23v0a5.23,5.23,0,0,1,5.23-5.23Z" transform="translate(-140.52 293.95) rotate(-45)"/><path class="cls-14" d="M285.49,298.44l5.56,5.56a18,18,0,0,1-25.5,0l-25.92-25.92,12.75-12.75Z"/><path class="cls-12" d="M260,285.6,305.36,331a46.22,46.22,0,0,0,57.22,6.49,46.7,46.7,0,0,0,8.15-6.5,46.23,46.23,0,0,0,0-65.37l-45.4-45.4a25.34,25.34,0,0,0-35.83,0L260,249.78a24.89,24.89,0,0,0-4.29,5.72A25.31,25.31,0,0,0,260,285.6Z"/><path class="cls-11" d="M260,285.6,305.36,331a46.22,46.22,0,0,0,57.22,6.49,46.23,46.23,0,0,0-6.5-57.21l-17.37-17.37a65,65,0,0,0-83-7.42A25.31,25.31,0,0,0,260,285.6Z"/><rect class="cls-12" x="310.06" y="286.86" width="23.44" height="14.02" rx="7.01" transform="translate(-113.55 313.6) rotate(-45)"/><rect class="cls-12" x="290.32" y="228.55" width="11.82" height="72.64" transform="translate(-100.52 287.05) rotate(-45)"/><rect class="cls-10" x="314.29" y="251.24" width="12.81" height="23.99" rx="6.4" transform="translate(733.6 222.6) rotate(135)"/><rect class="cls-10" x="328.67" y="303.72" width="16.08" height="21.57" rx="8.04" transform="translate(797.18 298.8) rotate(135)"/><rect class="cls-10" x="288.19" y="277.34" width="12.81" height="23.99" rx="6.4" transform="translate(707.5 285.61) rotate(135)"/><path class="cls-14" d="M361.75,256.66l5.51-5.51a12.3,12.3,0,0,0,2.3-3.21l2.29,2.3a11.7,11.7,0,0,1,0,16.55Z"/><path class="cls-14" d="M344.49,239.4l5.51-5.51a12.29,12.29,0,0,1,3.06-2.17l.15-.13L330.65,209a26.79,26.79,0,0,0-37.9,0l-22,22,4.73,4.74a15.83,15.83,0,0,0,22.37,0h0a9.67,9.67,0,0,1,13.7,0l4,4a20.18,20.18,0,0,0,28.52,0l.41-.37Z"/><rect class="cls-15" x="223.26" y="238.7" width="88.97" height="22.51" rx="11.25" transform="translate(-98.33 262.54) rotate(-45)"/><circle class="cls-16" cx="157.02" cy="372.99" r="61.32"/><path class="cls-2" d="M204.16,333.77A61.22,61.22,0,0,0,157,311.67c-1.89,0-3.76.08-5.6.25a61.52,61.52,0,0,0-9.32,14.42h0a61.29,61.29,0,0,0,55.69,87c1.89,0,3.75-.08,5.6-.25a61.7,61.7,0,0,0,6.4-8.87,60.94,60.94,0,0,0,7.26-18.66,61.39,61.39,0,0,0-12.89-51.82Z"/><path class="cls-17" d="M157,316.34A56.64,56.64,0,1,1,117,332.93,56.31,56.31,0,0,1,157,316.34m0-4.67A61.33,61.33,0,1,0,218.35,373,61.32,61.32,0,0,0,157,311.67Z"/><path class="cls-4" d="M218.3,370.62a61.3,61.3,0,0,0-66.88-58.7,62,62,0,0,0-4.06,5.23c54.62-8.74,88.23,56.94,49.42,96.22,1.55-1.58,4.44-.05,6.61-.25A61.22,61.22,0,0,0,218.3,370.62Z"/><path class="cls-17" d="M131,370a2.6,2.6,0,0,1-.82-.13l-10.06-3.29a2.62,2.62,0,1,1,1.63-5l10.06,3.29A2.62,2.62,0,0,1,131,370Z"/><path class="cls-4" d="M157,351a2.62,2.62,0,0,1-2.62-2.62V335.83a2.62,2.62,0,1,1,5.24,0V348.4A2.62,2.62,0,0,1,157,351Z"/><path class="cls-4" d="M183,369.91a2.62,2.62,0,0,1-.77-5.13l10.1-3.14a2.62,2.62,0,1,1,1.56,5l-10.11,3.15A2.59,2.59,0,0,1,183,369.91Z"/><path class="cls-4" d="M177.41,406.7a2.63,2.63,0,0,1-2.15-1.11l-4.35-6.22a2.62,2.62,0,0,1,4.29-3l4.35,6.22a2.61,2.61,0,0,1-2.14,4.12Z"/><path class="cls-17" d="M136.46,406.59a2.63,2.63,0,0,1-2.09-4.21l4.59-6.06a2.62,2.62,0,0,1,4.18,3.17l-4.58,6.06A2.63,2.63,0,0,1,136.46,406.59Z"/><path class="cls-9" d="M149,433.79a61.34,61.34,0,0,1-44.61-29.36l28.81-1.33a5.75,5.75,0,0,1,5.63,3.7Z"/><path class="cls-9" d="M119.07,367.1,97,385.69a61.41,61.41,0,0,1,12.8-51.84l10.87,26.71A5.74,5.74,0,0,1,119.07,367.1Z"/><path class="cls-9" d="M218.35,373a61.55,61.55,0,0,1-1.3,12.6L195,367a5.73,5.73,0,0,1-1.62-6.54l10.82-26.72A61.06,61.06,0,0,1,218.35,373Z"/><path class="cls-18" d="M218.35,373a61.55,61.55,0,0,1-1.3,12.6L195,367a5.73,5.73,0,0,1-1.62-6.54l10.82-26.72A61.06,61.06,0,0,1,218.35,373Z"/><path class="cls-9" d="M153.65,349.5l-20.54,14.92a5.73,5.73,0,0,0-2.08,6.41L138.88,395a5.72,5.72,0,0,0,5.45,4h25.39a5.74,5.74,0,0,0,5.45-4L183,370.83a5.75,5.75,0,0,0-2.09-6.41L160.39,349.5A5.73,5.73,0,0,0,153.65,349.5Z"/><path class="cls-18" d="M183,370.83,175.17,395a5.74,5.74,0,0,1-5.45,4H158.26a61.29,61.29,0,0,1-21.08-37.48l16.48-12a5.72,5.72,0,0,1,6.73,0l20.54,14.92A5.73,5.73,0,0,1,183,370.83Z"/><path class="cls-9" d="M209.79,404.25a61.47,61.47,0,0,1-44.5,29.51l9.29-24.93.78-2.09A5.73,5.73,0,0,1,181,403Z"/><path class="cls-18" d="M209.79,404.25a61.7,61.7,0,0,1-6.4,8.87c-1.85.17-3.71.25-5.6.25a61.15,61.15,0,0,1-23.21-4.54l.78-2.09A5.74,5.74,0,0,1,181,403Z"/><path class="cls-9" d="M183.73,317.78l-23.34,17a5.73,5.73,0,0,1-6.74,0l-11.55-8.39h0l-11.78-8.56a60.9,60.9,0,0,1,21.1-5.86c1.84-.17,3.71-.25,5.6-.25A61,61,0,0,1,183.73,317.78Z"/><path class="cls-18" d="M183.73,317.78l-23.34,17a5.72,5.72,0,0,1-6.73,0l-11.56-8.39h0a61.52,61.52,0,0,1,9.32-14.42c1.84-.17,3.71-.25,5.6-.25A61,61,0,0,1,183.73,317.78Z"/><circle class="cls-19" cx="180.39" cy="340.95" r="12.54"/></svg>