<svg id="_50" data-name="50" xmlns="http://www.w3.org/2000/svg" viewBox="0 0 512 512"><defs><style>.cls-1{fill:#6c7ed5;}.cls-2{fill:#b5b3ff;}.cls-3{fill:#c1b7d3;}.cls-4{fill:#f4e6f4;}.cls-5{fill:#746087;}.cls-6{fill:#c2aacf;}.cls-7{fill:#3e4e60;}.cls-8{fill:#3f6c8e;}.cls-9{fill:#fff;}.cls-10{fill:#e9465e;}.cls-11{fill:#ee6781;}.cls-12{fill:#c0405c;}.cls-13{fill:#334353;}.cls-14{fill:#3f5d77;}</style></defs><title>50-soccer-icons</title><circle class="cls-1" cx="256" cy="256" r="256"/><path class="cls-2" d="M256,442.32a188.25,188.25,0,0,1-19.76-1,5,5,0,1,1,1-9.94,180.41,180.41,0,0,0,29.5.66,5,5,0,0,1,.6,10C263.62,442.21,259.79,442.32,256,442.32Zm55.74-8.73a5,5,0,0,1-1.53-9.76,175.6,175.6,0,0,0,27.21-11.39,5,5,0,1,1,4.63,8.86,186.14,186.14,0,0,1-28.77,12.05A5.15,5.15,0,0,1,311.74,433.59ZM192.53,430.9a5.13,5.13,0,0,1-1.75-.31,186.34,186.34,0,0,1-28.17-13.33,5,5,0,0,1,5-8.65,176.26,176.26,0,0,0,26.65,12.61,5,5,0,0,1-1.75,9.68ZM377.09,396a5,5,0,0,1-3.35-8.72A177.93,177.93,0,0,0,394,365.78a5,5,0,1,1,7.82,6.23,188,188,0,0,1-21.39,22.68A4.94,4.94,0,0,1,377.09,396ZM129,390.4a5,5,0,0,1-3.5-1.43,187.5,187.5,0,0,1-20.35-23.62,5,5,0,0,1,8.09-5.87,178.14,178.14,0,0,0,19.27,22.35A5,5,0,0,1,129,390.4Zm292.55-55.3a5,5,0,0,1-4.56-7,175,175,0,0,0,9.76-27.84,5,5,0,1,1,9.68,2.5,185,185,0,0,1-10.31,29.43A5,5,0,0,1,421.53,335.1ZM87.29,327.58a5,5,0,0,1-4.65-3.17,186.32,186.32,0,0,1-9-29.87,5,5,0,1,1,9.79-2.06,175.33,175.33,0,0,0,8.48,28.26,5,5,0,0,1-2.81,6.49A4.93,4.93,0,0,1,87.29,327.58Zm350-66.18a5,5,0,0,1-5-5V256a177.91,177.91,0,0,0-2.44-29.4,5,5,0,0,1,9.86-1.66A188.23,188.23,0,0,1,442.32,256v.4A5,5,0,0,1,437.32,261.4ZM74.85,253.22h-.22a5,5,0,0,1-4.78-5.2,187.41,187.41,0,0,1,3.9-30.93,5,5,0,1,1,9.78,2.08,177.23,177.23,0,0,0-3.69,29.27A5,5,0,0,1,74.85,253.22Zm346.85-66a5,5,0,0,1-4.57-3,176.65,176.65,0,0,0-14.24-25.85,5,5,0,1,1,8.33-5.54,186.06,186.06,0,0,1,15,27.31,5,5,0,0,1-4.56,7Zm-328.08-7A5,5,0,0,1,89.15,173a187.47,187.47,0,0,1,16.18-26.64,5,5,0,0,1,8.09,5.89A175.79,175.79,0,0,0,98.1,177.46,5,5,0,0,1,93.62,180.23Zm283.73-54A5,5,0,0,1,374,125a176.78,176.78,0,0,0-23.48-17.86,5,5,0,0,1,5.37-8.44,187.54,187.54,0,0,1,24.81,18.87,5,5,0,0,1-3.35,8.71Zm-236.83-5.06a5,5,0,0,1-3.19-8.85,185.78,185.78,0,0,1,25.6-17.8,5,5,0,1,1,5,8.66,177.08,177.08,0,0,0-24.23,16.84A5,5,0,0,1,140.52,121.21ZM312.1,88.53a4.87,4.87,0,0,1-1.54-.25,176.17,176.17,0,0,0-28.72-6.72,5,5,0,1,1,1.45-9.89,184.37,184.37,0,0,1,30.36,7.1,5,5,0,0,1-1.55,9.76ZM207.33,86.29A5,5,0,0,1,206,76.47a184.88,184.88,0,0,1,30.63-5.79,5,5,0,1,1,1,9.94,176.56,176.56,0,0,0-29,5.48A4.82,4.82,0,0,1,207.33,86.29Z"/><circle class="cls-3" cx="215.72" cy="215.96" r="157.71"/><path class="cls-4" d="M337,115.08A157.38,157.38,0,0,0,215.72,58.25q-7.29,0-14.41.65a157.59,157.59,0,0,0-24,37.07h0A157.66,157.66,0,0,0,320.56,319.82q7.29,0,14.41-.65a158.87,158.87,0,0,0,16.47-22.82,157.24,157.24,0,0,0,18.67-48,159.32,159.32,0,0,0,3.32-32.4A157.07,157.07,0,0,0,337,115.08Z"/><path class="cls-5" d="M215.72,70.25a145.7,145.7,0,1,1-103,42.68,144.76,144.76,0,0,1,103-42.68m0-12A157.72,157.72,0,1,0,373.43,216,157.71,157.71,0,0,0,215.72,58.25Z"/><path class="cls-6" d="M373.31,209.86a156.83,156.83,0,0,0-16.28-64c-28.57-58-91.33-93.14-155.73-87a156.29,156.29,0,0,0-10.43,13.45C331.34,49.86,417.78,218.78,318,319.79c4-4,11.42-.11,17-.62A157.48,157.48,0,0,0,373.31,209.86Z"/><path class="cls-5" d="M148.84,208.15a6.69,6.69,0,0,1-2.1-.34l-25.89-8.47a6.75,6.75,0,0,1,4.2-12.82L150.94,195a6.75,6.75,0,0,1-2.1,13.16Z"/><path class="cls-6" d="M215.68,159.46a6.74,6.74,0,0,1-6.74-6.74V120.38a6.75,6.75,0,1,1,13.49,0v32.34A6.75,6.75,0,0,1,215.68,159.46Z"/><path class="cls-6" d="M282.57,208a6.75,6.75,0,0,1-2-13.19l26-8.1a6.74,6.74,0,0,1,4,12.88l-26,8.1A6.62,6.62,0,0,1,282.57,208Z"/><path class="cls-6" d="M268.15,302.66a6.75,6.75,0,0,1-5.54-2.88l-11.18-16a6.74,6.74,0,0,1,11.05-7.73l11.19,16a6.75,6.75,0,0,1-5.52,10.61Z"/><path class="cls-5" d="M162.84,302.36a6.75,6.75,0,0,1-5.37-10.82L169.27,276A6.75,6.75,0,0,1,180,284.11l-11.79,15.58A6.76,6.76,0,0,1,162.84,302.36Z"/><path class="cls-7" d="M195,372.33A157.79,157.79,0,0,1,80.28,296.82l74.11-3.43a14.73,14.73,0,0,1,14.46,9.53Z"/><path class="cls-7" d="M118.11,200.8,61.4,248.62A158,158,0,0,1,94.32,115.29l28,68.69A14.74,14.74,0,0,1,118.11,200.8Z"/><path class="cls-7" d="M373.43,216a159.32,159.32,0,0,1-3.32,32.4L313.3,200.63a14.73,14.73,0,0,1-4.18-16.81L337,115.08A157.07,157.07,0,0,1,373.43,216Z"/><path class="cls-8" d="M373.43,216a159.32,159.32,0,0,1-3.32,32.4L313.3,200.63a14.73,14.73,0,0,1-4.18-16.81L337,115.08A157.07,157.07,0,0,1,373.43,216Z"/><path class="cls-7" d="M207.06,155.53l-52.84,38.39a14.74,14.74,0,0,0-5.35,16.47l20.18,62.12a14.73,14.73,0,0,0,14,10.18h65.3a14.73,14.73,0,0,0,14-10.18l20.18-62.12a14.74,14.74,0,0,0-5.35-16.47l-52.84-38.39A14.74,14.74,0,0,0,207.06,155.53Z"/><path class="cls-8" d="M282.57,210.4l-20.18,62.1a14.73,14.73,0,0,1-14,10.18H218.9a157.52,157.52,0,0,1-54.21-96.37l42.37-30.78a14.74,14.74,0,0,1,17.32,0l52.84,38.39A14.75,14.75,0,0,1,282.57,210.4Z"/><path class="cls-7" d="M351.44,296.35A158.17,158.17,0,0,1,237,372.26l23.9-64.13,2-5.37a14.73,14.73,0,0,1,14.44-9.57Z"/><path class="cls-8" d="M351.44,296.35A158.87,158.87,0,0,1,335,319.17q-7.12.65-14.41.65a157.42,157.42,0,0,1-59.69-11.69l2-5.37a14.74,14.74,0,0,1,14.43-9.57Z"/><path class="cls-7" d="M284.4,74l-60,43.61a14.74,14.74,0,0,1-17.32,0L177.35,96h0L147,74A156.77,156.77,0,0,1,201.31,58.9q7.11-.65,14.41-.65A157.09,157.09,0,0,1,284.4,74Z"/><path class="cls-8" d="M284.4,74l-60,43.61a14.72,14.72,0,0,1-17.32,0L177.35,96h0a157.59,157.59,0,0,1,24-37.07q7.11-.65,14.41-.65A157.09,157.09,0,0,1,284.4,74Z"/><circle class="cls-9" cx="275.82" cy="133.55" r="32.24"/><path class="cls-10" d="M423.94,328.77l-28,95.5a22.45,22.45,0,0,1-21.55,16.14H270.8a22.45,22.45,0,0,1-21.55-16.14l-28-95.5a13.91,13.91,0,0,1,13.38-17.85,15.07,15.07,0,0,0,15.06-15.06V269.19a27.37,27.37,0,0,1,8-19.38l20.1-20.1a33.36,33.36,0,0,1,23.61-9.78h42.31a33.36,33.36,0,0,1,23.61,9.78l20.1,20.1a27.4,27.4,0,0,1,8,19.38v26.67a15.07,15.07,0,0,0,15.07,15.06A13.93,13.93,0,0,1,423.94,328.77Z"/><path class="cls-11" d="M423.94,328.77l-28,95.5a22.45,22.45,0,0,1-21.55,16.14H321V219.93h22.76a33.36,33.36,0,0,1,23.61,9.78l20.1,20.1a27.4,27.4,0,0,1,8,19.38v26.67a15.07,15.07,0,0,0,15.07,15.06A13.93,13.93,0,0,1,423.94,328.77Z"/><path class="cls-12" d="M371.48,400.55a4.1,4.1,0,0,1-4.1,4.1H277.85a4.1,4.1,0,0,1,0-8.2h89.53A4.1,4.1,0,0,1,371.48,400.55Z"/><path class="cls-12" d="M371.48,419.31a4.11,4.11,0,0,1-4.1,4.1H277.85a4.1,4.1,0,0,1,0-8.2h89.53A4.1,4.1,0,0,1,371.48,419.31Z"/><path class="cls-10" d="M371.48,400.55a4.1,4.1,0,0,1-4.1,4.1H321v-8.2h46.37A4.1,4.1,0,0,1,371.48,400.55Z"/><path class="cls-10" d="M371.48,419.31a4.11,4.11,0,0,1-4.1,4.1H321v-8.2h46.37A4.1,4.1,0,0,1,371.48,419.31Z"/><path class="cls-13" d="M337.22,201.4v18.53H304.8V201.4a9.73,9.73,0,0,1,9.72-9.73h13A9.71,9.71,0,0,1,337.22,201.4Z"/><path class="cls-7" d="M337.22,201.4v.8a9.92,9.92,0,0,1-9.92,9.94H314.73a9.94,9.94,0,0,1-9.93-9.94v-.8a9.73,9.73,0,0,1,9.72-9.73h13A9.71,9.71,0,0,1,337.22,201.4Z"/><path class="cls-13" d="M397.76,239.54l-10.28,10.27-20.1-20.1,4.41-4.42,5.86-5.87a8.4,8.4,0,0,1,11.85,0l8,8,.22.22A8.4,8.4,0,0,1,397.76,239.54Z"/><path class="cls-7" d="M397.54,227.46a14.21,14.21,0,0,1-3.91,7.38,8.7,8.7,0,0,1-12.29,0l-9.55-9.55,5.86-5.87a8.4,8.4,0,0,1,11.85,0Z"/><path class="cls-13" d="M277.85,229.71l-20.1,20.1-10.28-10.27a8.38,8.38,0,0,1,0-11.86l8.26-8.26a8.39,8.39,0,0,1,11.84,0l5.86,5.87Z"/><path class="cls-7" d="M273.43,225.29l-9.53,9.55a8.72,8.72,0,0,1-12.3,0,14.16,14.16,0,0,1-3.92-7.37l8-8.05a8.39,8.39,0,0,1,11.84,0Z"/><path class="cls-13" d="M270.79,440.41H374.43a0,0,0,0,1,0,0v0a19.74,19.74,0,0,1-19.74,19.74H290.53a19.74,19.74,0,0,1-19.74-19.74v0A0,0,0,0,1,270.79,440.41Z"/><path class="cls-13" d="M388.06,319a65.44,65.44,0,0,1-65.44,65.45c-.54,0-1.08,0-1.61,0a65.44,65.44,0,0,1,0-130.84c.53,0,1.07,0,1.61,0A65.45,65.45,0,0,1,388.06,319Z"/><path class="cls-7" d="M388.06,319a65.44,65.44,0,0,1-65.44,65.45c-.54,0-1.08,0-1.61,0V253.62c.53,0,1.07,0,1.61,0A65.45,65.45,0,0,1,388.06,319Z"/><path class="cls-7" d="M375.53,300.94v36.2a9.42,9.42,0,0,1-9.42,9.42h-87a9.43,9.43,0,0,1-9.43-9.42v-36.2a9.43,9.43,0,0,1,9.43-9.42h87A9.42,9.42,0,0,1,375.53,300.94Z"/><path class="cls-14" d="M375.53,300.94v36.2a9.42,9.42,0,0,1-9.42,9.42H321v-55h45.1A9.42,9.42,0,0,1,375.53,300.94Z"/><path class="cls-9" d="M271.44,326.14q-1.74-2.44-1.74-7.11t1.74-7.09a6.43,6.43,0,0,1,10.08,0q1.74,2.44,1.74,7.09c0,3.1-.58,5.46-1.74,7.1a6.42,6.42,0,0,1-10.08,0Zm7.65-1.87a17.15,17.15,0,0,0,0-10.48,2.91,2.91,0,0,0-5.22,0,17.12,17.12,0,0,0,0,10.47,2.89,2.89,0,0,0,5.22,0Z"/><path class="cls-9" d="M287.28,326.14q-1.75-2.44-1.75-7.11t1.75-7.09a6.43,6.43,0,0,1,10.08,0q1.74,2.44,1.74,7.09c0,3.1-.58,5.46-1.74,7.1a6.42,6.42,0,0,1-10.08,0Zm7.65-1.87a12.58,12.58,0,0,0,.82-5.24,12.45,12.45,0,0,0-.82-5.24,2.92,2.92,0,0,0-5.23,0,17.32,17.32,0,0,0,0,10.47,2.9,2.9,0,0,0,5.23,0Z"/><path class="cls-9" d="M302.11,318.54a2,2,0,0,1-.56-1.41,1.91,1.91,0,0,1,.56-1.4,2.06,2.06,0,0,1,2.8,0,1.94,1.94,0,0,1,.55,1.4,2,2,0,0,1-.55,1.41,2,2,0,0,1-2.8,0Zm0,9.4a2.07,2.07,0,0,1,0-2.83,2,2,0,0,1,2.8,0,2.1,2.1,0,0,1,0,2.83,2,2,0,0,1-2.8,0Z"/><path class="cls-9" d="M309.65,326.14q-1.74-2.44-1.74-7.11t1.74-7.09a6.44,6.44,0,0,1,10.09,0q1.74,2.44,1.74,7.09c0,3.1-.58,5.46-1.74,7.1a6.43,6.43,0,0,1-10.09,0Zm7.66-1.87a12.58,12.58,0,0,0,.82-5.24,12.45,12.45,0,0,0-.82-5.24,2.92,2.92,0,0,0-5.23,0,17.12,17.12,0,0,0,0,10.47,2.9,2.9,0,0,0,5.23,0Z"/><path class="cls-9" d="M325.49,326.14q-1.74-2.44-1.74-7.11t1.74-7.09a6.43,6.43,0,0,1,10.08,0q1.74,2.44,1.74,7.09c0,3.1-.58,5.46-1.74,7.1a6.42,6.42,0,0,1-10.08,0Zm7.65-1.87a17.15,17.15,0,0,0,0-10.48,2.91,2.91,0,0,0-5.22,0,17.12,17.12,0,0,0,0,10.47,2.89,2.89,0,0,0,5.22,0Z"/><path class="cls-9" d="M340.32,318.54a1.94,1.94,0,0,1-.55-1.41,2,2,0,1,1,3.9,0,1.94,1.94,0,0,1-.55,1.41,2,2,0,0,1-2.8,0Zm0,9.4a2.1,2.1,0,0,1,0-2.83,2,2,0,0,1,2.8,0,2.1,2.1,0,0,1,0,2.83,2,2,0,0,1-2.8,0Z"/><path class="cls-9" d="M347.87,326.14q-1.74-2.44-1.74-7.11t1.74-7.09a6.43,6.43,0,0,1,10.08,0q1.74,2.44,1.74,7.09c0,3.1-.58,5.46-1.74,7.1a6.42,6.42,0,0,1-10.08,0Zm7.65-1.87a17.15,17.15,0,0,0,0-10.48,2.91,2.91,0,0,0-5.22,0,17.12,17.12,0,0,0,0,10.47,2.89,2.89,0,0,0,5.22,0Z"/><path class="cls-9" d="M363.7,326.14Q362,323.7,362,319t1.74-7.09a6.44,6.44,0,0,1,10.09,0q1.74,2.44,1.74,7.09c0,3.1-.58,5.46-1.74,7.1a6.43,6.43,0,0,1-10.09,0Zm7.66-1.87a12.58,12.58,0,0,0,.82-5.24,12.45,12.45,0,0,0-.82-5.24,2.92,2.92,0,0,0-5.23,0,17.12,17.12,0,0,0,0,10.47,2.9,2.9,0,0,0,5.23,0Z"/></svg>