<svg id="_50" data-name="50" xmlns="http://www.w3.org/2000/svg" viewBox="0 0 512 512"><defs><style>.cls-1{fill:#e9465e;}.cls-2{fill:#c1b7d3;}.cls-3{fill:#f4e6f4;}.cls-4{fill:#746087;}.cls-5{fill:#c2aacf;}.cls-6{fill:#3e4e60;}.cls-7{fill:#3f6c8e;}.cls-8{fill:#fff;}.cls-9{fill:#a583bb;}.cls-10{fill:#decee5;}.cls-11{fill:#ff9fb4;}</style></defs><title>50-soccer-icons</title><circle class="cls-1" cx="256" cy="256" r="256"/><circle class="cls-2" cx="184.75" cy="225.91" r="96.1"/><path class="cls-3" d="M258.62,164.44a95.92,95.92,0,0,0-73.87-34.63c-2.95,0-5.89.13-8.77.4a96,96,0,0,0-14.61,22.58h0a96.07,96.07,0,0,0,87.27,136.39c3,0,5.88-.13,8.77-.4a96.08,96.08,0,0,0,1.21-124.35Z"/><path class="cls-4" d="M184.75,137.12a88.79,88.79,0,1,1-62.78,26,88.18,88.18,0,0,1,62.78-26m0-7.31a96.1,96.1,0,1,0,96.1,96.1,96.1,96.1,0,0,0-96.1-96.1Z"/><path class="cls-5" d="M280.78,222.19a96,96,0,0,0-104.81-92,95.48,95.48,0,0,0-6.36,8.2c85.59-13.71,138.26,89.21,77.44,150.76,2.44-2.46,7-.06,10.36-.37A96,96,0,0,0,280.78,222.19Z"/><path class="cls-4" d="M144,221.15a4.13,4.13,0,0,1-1.28-.21L127,215.78a4.11,4.11,0,1,1,2.56-7.81l15.77,5.16a4.11,4.11,0,0,1-1.28,8Z"/><path class="cls-5" d="M184.73,191.48a4.11,4.11,0,0,1-4.11-4.11v-19.7a4.11,4.11,0,0,1,8.22,0v19.7A4.11,4.11,0,0,1,184.73,191.48Z"/><path class="cls-5" d="M225.48,221.08a4.11,4.11,0,0,1-1.22-8l15.84-4.93a4.11,4.11,0,1,1,2.45,7.85l-15.84,4.93A4,4,0,0,1,225.48,221.08Z"/><path class="cls-5" d="M216.7,278.74a4.11,4.11,0,0,1-3.37-1.76l-6.82-9.74a4.11,4.11,0,1,1,6.74-4.71l6.81,9.74a4.12,4.12,0,0,1-3.36,6.47Z"/><path class="cls-4" d="M152.54,278.55a4.11,4.11,0,0,1-3.28-6.59l7.19-9.49a4.11,4.11,0,1,1,6.55,5l-7.18,9.49A4.1,4.1,0,0,1,152.54,278.55Z"/><path class="cls-6" d="M172.14,321.18a96.12,96.12,0,0,1-69.91-46l45.15-2.09a9,9,0,0,1,8.82,5.8Z"/><path class="cls-6" d="M125.28,216.67,90.72,245.81a96.72,96.72,0,0,1-2.06-19.9,95.67,95.67,0,0,1,22.12-61.34l17,41.85A9,9,0,0,1,125.28,216.67Z"/><path class="cls-6" d="M280.85,225.91a96.56,96.56,0,0,1-2,19.74l-34.61-29.09a9,9,0,0,1-2.55-10.24l17-41.88A95.7,95.7,0,0,1,280.85,225.91Z"/><path class="cls-7" d="M280.85,225.91a96.56,96.56,0,0,1-2,19.74l-34.61-29.09a9,9,0,0,1-2.55-10.24l17-41.88A95.7,95.7,0,0,1,280.85,225.91Z"/><path class="cls-6" d="M179.48,189.09l-32.2,23.39a9,9,0,0,0-3.26,10l12.3,37.85a9,9,0,0,0,8.54,6.2h39.79a9,9,0,0,0,8.54-6.2l12.3-37.85a9,9,0,0,0-3.27-10L190,189.09A9,9,0,0,0,179.48,189.09Z"/><path class="cls-7" d="M225.48,222.52l-12.29,37.84a9,9,0,0,1-8.54,6.2h-18a95.94,95.94,0,0,1-33-58.72l25.82-18.75a9,9,0,0,1,10.55,0l32.19,23.39A9,9,0,0,1,225.48,222.52Z"/><path class="cls-6" d="M267.45,274.89a96.45,96.45,0,0,1-69.75,46.25l14.57-39.07,1.22-3.28a9,9,0,0,1,8.8-5.83Z"/><path class="cls-7" d="M267.45,274.89a95.76,95.76,0,0,1-10,13.9c-2.89.27-5.82.4-8.77.4a95.84,95.84,0,0,1-36.37-7.12l1.22-3.28a9,9,0,0,1,8.79-5.83Z"/><path class="cls-6" d="M226.6,139.38,190,166a9,9,0,0,1-10.55,0L161.37,152.8h0l-18.46-13.41A95.3,95.3,0,0,1,176,130.21c2.88-.27,5.82-.4,8.77-.4A95.71,95.71,0,0,1,226.6,139.38Z"/><path class="cls-7" d="M226.6,139.38,190,166a9,9,0,0,1-10.55,0L161.37,152.8h0A96,96,0,0,1,176,130.21c2.88-.27,5.82-.4,8.77-.4A95.71,95.71,0,0,1,226.6,139.38Z"/><path class="cls-8" d="M432.26,116.91l-242.54,9.37h-1.6a127.56,127.56,0,0,0-61.64,16c-6.5,3.3-12.15,9.29-17.2,14.47a68.8,68.8,0,0,0-12.76,18c-5.31,10.3-10.15,21.35-11.69,32.91-2.06,13.24-.27,30.15,4,43.72l2.07,6.72c6.9,20.5,21.85,37.87,39.2,50.46C163,332.37,323.72,451.38,359.54,477.67A3.5,3.5,0,0,0,363.7,472l-86.58-63.87,9.77-51.88,87.48,41.09a3.5,3.5,0,0,0,3-6.34l-89.12-41.86,8.7-46.23,63.53,22.37a3.5,3.5,0,0,0,2.32-6.61L298.24,296l8.41-44.68,54.16,12.88a3.5,3.5,0,0,0,1.62-6.81l-54.48-13,8.23-43.73,45,5.53a3.5,3.5,0,1,0,.85-6.94l-44.56-5.48,6.71-35.63,47,1.38a3.5,3.5,0,0,0,.2-7L325.5,151.2l4.39-23.33,102.64-4C437.12,123.63,436.89,116.83,432.26,116.91ZM188.13,133.28h1.67L223,132l-3.53,16.09-56.61-1.66,2.51-10.93A120,120,0,0,1,188.13,133.28ZM99.49,260.51l-.37-.13c-3.45-9.46-6.43-19.77-7.49-29.71L133,245.22l-6.43,28Zm-8.44-37.92a68.35,68.35,0,0,1,2.38-22l47.21,11.22-6.09,26.51-43.48-15.3C91.07,222.89,91.05,222.74,91.05,222.59Zm48.57,25,53.83,18.95-7.58,34.58L133,276.27Zm1.58-6.87,6.25-27.23,54.79,13L195,259.62ZM149,206.64l5.92-25.77,55.81,6.86-7,31.92ZM156.5,174l4.74-20.62,56.67,1.66-5.66,25.81Zm-.8-27.79-20.42-.6a120.69,120.69,0,0,1,22.48-8.39ZM114.27,161.7c2.62-2.61,6.89-7.24,9.82-9.4l30,.88-4.58,20-40.77-5A62.53,62.53,0,0,1,114.27,161.7ZM99,185.57c1.2-2.39,4.22-8.78,5.53-11a3.44,3.44,0,0,0,.72.17L148,180l-5.75,25-46.71-11.1A80.22,80.22,0,0,1,99,185.57Zm5.23,84.91L125,280.2l-2.9,12.64A107.35,107.35,0,0,1,104.24,270.48Zm29.9,32.36c-2.1-1.48-4.14-3.06-6.13-4.7l3.42-14.89,52.9,24.85-6,27.2C174.56,332.53,136.77,304.51,134.14,302.84ZM270.87,403.55l-86.34-63.7,6.29-28.7,89.53,42.05Zm10.82-57.45-89.33-42,7.75-35.29,90.14,31.74Zm9.87-52.47L201.62,262l7.43-33.87,90.79,21.58Zm9.57-50.83-90.58-21.53,7.17-32.69,91.5,11.25Zm9.39-49.86-91.29-11.22,5.8-26.46L317.1,158ZM318.41,151l-91.85-2.7,3.64-16.58,92.52-3.57Z"/><path class="cls-9" d="M496.44,167.92H439a25.5,25.5,0,0,0-25.49,25.48V457.86a257.17,257.17,0,0,1-23.35,16.24,253.46,253.46,0,0,1-28.49,15.16V193.4A77.4,77.4,0,0,1,439,116.07h31.46a256,256,0,0,1,26,51.85Z"/><path class="cls-5" d="M485.82,143.11H417a22.06,22.06,0,0,0-2.31.11A26.86,26.86,0,0,0,390.59,165a25.77,25.77,0,0,0-.48,5V474.1a253.46,253.46,0,0,1-28.49,15.16V193.4A77.4,77.4,0,0,1,439,116.07h31.46A256,256,0,0,1,485.82,143.11Z"/><path class="cls-10" d="M390.11,252.54V474.1a253.46,253.46,0,0,1-28.49,15.16V252.54a14.25,14.25,0,0,1,28.49,0Z"/><path class="cls-11" d="M137.67,101.51a2.84,2.84,0,0,0,4-.37,65.54,65.54,0,0,1,92.19-8.44,2.84,2.84,0,0,0,3.63-4.36A71.21,71.21,0,0,0,137.3,97.52,2.84,2.84,0,0,0,137.67,101.51Z"/><path class="cls-11" d="M106,126.75a2.83,2.83,0,0,0,4.57-1.53,82,82,0,0,1,98.6-60.73A2.83,2.83,0,0,0,210.44,59,87.65,87.65,0,0,0,105,123.91,2.84,2.84,0,0,0,106,126.75Z"/><path class="cls-11" d="M130.75,336.58h0a2.82,2.82,0,0,1,1.59,3.5L122,369.26A2.83,2.83,0,0,1,118.2,371h0a2.84,2.84,0,0,1-1.59-3.5L127,338.3A2.83,2.83,0,0,1,130.75,336.58Z"/><path class="cls-11" d="M105.74,336.36h0a2.81,2.81,0,0,1,0,3.84L84.22,362.47a2.84,2.84,0,0,1-4.15,0h0a2.84,2.84,0,0,1,0-3.85l21.52-22.26A2.81,2.81,0,0,1,105.74,336.36Z"/></svg>