<svg id="_50" data-name="50" xmlns="http://www.w3.org/2000/svg" viewBox="0 0 512 512"><defs><style>.cls-1{fill:#29a3fb;}.cls-2{fill:#3f5d77;}.cls-3{fill:#3f6c8e;}.cls-4{fill:#c0405c;}.cls-5{fill:#e9465e;}.cls-6{fill:#f5b890;}.cls-7{fill:#d48d77;}.cls-8{fill:#c17e62;}.cls-9{fill:#daab42;}.cls-10{fill:#eea47d;}.cls-11{fill:#334353;}.cls-12{fill:#f9c744;}.cls-13{fill:#ebd9ea;}.cls-14{fill:#fff;}.cls-15{fill:#c2aacf;}.cls-16{fill:#c1b7d3;}.cls-17{fill:#f4e6f4;}.cls-18{fill:#746087;}.cls-19{fill:#3e4e60;}</style></defs><title>50-soccer-icons</title><circle class="cls-1" cx="256" cy="256" r="256"/><path class="cls-2" d="M377.09,481.6q-10.86,5.85-22.32,10.64a254.23,254.23,0,0,1-75,18.67V481.6Z"/><path class="cls-3" d="M354.77,481.6v10.64a254.23,254.23,0,0,1-75,18.67V481.6Z"/><path class="cls-4" d="M176,354.83c18.62,18.62,43.2,35.49,58.43,40.1,18.54,5.6,59.48-1.86,67.49-3.4A13.43,13.43,0,0,0,312.5,375.8a13.62,13.62,0,0,0-.73-2.5,13.43,13.43,0,0,0-15-8.13c-16.75,3.23-45.7,6.76-54.63,4.06-9.57-2.89-30.84-17-47.22-33.38A13.45,13.45,0,0,0,173,340.29h0A13.45,13.45,0,0,0,176,354.83Z"/><path class="cls-5" d="M175.94,344.76c18.63,18.63,43.21,35.5,58.44,40.1,18.54,5.61,59.48-1.85,67.5-3.41a13.37,13.37,0,0,0,9.89-8.15,13.43,13.43,0,0,0-15-8.13c-16.75,3.23-45.7,6.76-54.63,4.06-9.57-2.89-30.84-17-47.22-33.38A13.45,13.45,0,0,0,173,340.29h0A13.51,13.51,0,0,0,175.94,344.76Z"/><path class="cls-6" d="M197.06,331V307.51a6,6,0,0,0-6-6h-3.16a6,6,0,0,0-6,6v8.41l-18.38-18.38a4,4,0,0,0-5.58,0L156.52,299a4,4,0,0,0,0,5.58l-4-4a4,4,0,0,0-5.58,0l-1.48,1.48a4,4,0,0,0,0,5.58l4.4,4.4a4,4,0,0,0-5.58,0l-1.48,1.48a4,4,0,0,0,0,5.58l8.12,8.12a4,4,0,0,0-5.58,0l-1.48,1.48a4,4,0,0,0,0,5.58l17.89,17.89a13.73,13.73,0,0,0,9.74,4H172a13.67,13.67,0,0,0,9.27-4l12.05-12.05a13,13,0,0,0,3.78-9.13Z"/><path class="cls-7" d="M172,317.09l-.3-.3L158,303.13a4,4,0,0,1,0-5.58h0L156.52,299a4,4,0,0,0,0,5.58L172,320.05S172.78,317.91,172,317.09Z"/><path class="cls-7" d="M158.27,331.63l-.3-.3-13.66-13.66a4,4,0,0,1,0-5.58h0l-1.48,1.48a4,4,0,0,0,0,5.58l15.44,15.44S159.09,332.45,158.27,331.63Z"/><path class="cls-7" d="M163.37,322.61l-.3-.3L147,306.21a4,4,0,0,1,0-5.58h0l-1.48,1.48a4,4,0,0,0,0,5.58l17.89,17.88S164.18,323.43,163.37,322.61Z"/><path class="cls-7" d="M182,307.5v8.42l3.19,3.19V307.48a6,6,0,0,1,5.95-6h-3.17A6,6,0,0,0,182,307.5Z"/><path class="cls-7" d="M181.22,352.22a13.65,13.65,0,0,1-9,4H172a13.72,13.72,0,0,1-10.22-4l-17.88-17.88a4,4,0,0,1,0-5.58l1.48-1.48h0a4,4,0,0,0,0,5.58l16.1,16.1.08.08c2.89,3,8.45,4.16,12.5,2.66a8.3,8.3,0,0,1,6.73.28Z"/><path class="cls-4" d="M378.2,389v92c-.36.21-.73.4-1.09.6H279.8V389a36.62,36.62,0,0,1,36.62-36.62h25.17A36.61,36.61,0,0,1,378.2,389Z"/><path class="cls-5" d="M279.8,481.59V389a36.62,36.62,0,0,1,36.62-36.62h1.73A36.62,36.62,0,0,1,354.77,389v92.64Z"/><path class="cls-4" d="M442.33,269.15c0,26.34-5.45,55.65-13,69.68-9.14,17.07-43.36,40.74-50.12,45.32a13.43,13.43,0,0,1-18.64-3.61,13,13,0,0,1-1.24-2.28,13.41,13.41,0,0,1,4.84-16.35c14.13-9.56,37.1-27.53,41.5-35.76,4.72-8.81,9.78-33.83,9.78-57a13.42,13.42,0,0,1,13.43-13.42,13.6,13.6,0,0,1,5.23,1h0A13.45,13.45,0,0,1,442.33,269.15Z"/><path class="cls-5" d="M435.21,262c0,26.35-5.45,55.66-13,69.68-9.14,17.07-43.36,40.75-50.13,45.32a13.39,13.39,0,0,1-12.75,1.23,13.41,13.41,0,0,1,4.84-16.35c14.13-9.56,37.1-27.53,41.5-35.76,4.72-8.81,9.78-33.83,9.78-57a13.42,13.42,0,0,1,13.43-13.42,13.6,13.6,0,0,1,5.23,1h0A13.45,13.45,0,0,1,435.21,262Z"/><path class="cls-6" d="M410.57,267.28a12.92,12.92,0,0,0,9.12,3.78h17a13.73,13.73,0,0,0,9.4-3.71c.12-.1.23-.22.34-.33a13.73,13.73,0,0,0,4-9.74V232a4,4,0,0,0-3.95-3.94h-2.09a4,4,0,0,0-4,3.94V220.5a3.94,3.94,0,0,0-3.94-3.94h-2.1a3.94,3.94,0,0,0-3.94,3.94v-6.22a4,4,0,0,0-4-3.95H424.5a4,4,0,0,0-3.95,3.95v5.62a3.94,3.94,0,0,0-3.94-3.94h-2.1a3.94,3.94,0,0,0-3.94,3.94v26l-5.95-5.95a6,6,0,0,0-8.45,0l-2.23,2.24a6,6,0,0,0,0,8.45l16.63,16.63Z"/><path class="cls-7" d="M418.46,239.65V219.91a4,4,0,0,0-3.95-3.95h2.1a3.94,3.94,0,0,1,3.94,3.95v21.84S418.46,240.81,418.46,239.65Z"/><path class="cls-7" d="M438.43,240.25V220.51a4,4,0,0,0-3.95-3.95h2.1a3.94,3.94,0,0,1,3.94,3.95v21.84S438.43,241.41,438.43,240.25Z"/><path class="cls-7" d="M428.44,237.48v-23.2a3.94,3.94,0,0,0-3.94-3.95h2.09a4,4,0,0,1,4,3.95v25.29S428.44,238.63,428.44,237.48Z"/><path class="cls-7" d="M404.62,239.94l5.95,5.95v4.52l-8.23-8.23a6,6,0,0,0-8.41,0l2.24-2.24A6,6,0,0,1,404.62,239.94Z"/><path class="cls-7" d="M436.75,271a13.74,13.74,0,0,0,9.2-3.53l.08-.08.12-.1h0a13.67,13.67,0,0,0,4.38-10.06V232a3.94,3.94,0,0,0-3.94-3.95h-2.09a4,4,0,0,1,3.94,3.95v22.88c.09,4.18-3,8.92-6.95,10.72a8.34,8.34,0,0,0-4.57,5Z"/><path class="cls-6" d="M312.74,337v17.66a16.26,16.26,0,0,0,32.52,0V337Z"/><path class="cls-7" d="M345.26,337v17.66a16.23,16.23,0,0,1-8,14V349.75a47.66,47.66,0,0,1-18.39,3.66,49.46,49.46,0,0,1-6.13-.38V337Z"/><path class="cls-7" d="M379.32,258.69h8.06a0,0,0,0,1,0,0v25.23a0,0,0,0,1,0,0h-8.06a12.61,12.61,0,0,1-12.61-12.61v0A12.61,12.61,0,0,1,379.32,258.69Z" transform="translate(754.08 542.62) rotate(-180)"/><path class="cls-8" d="M372.11,265.9h8.47a0,0,0,0,1,0,0v10.83a0,0,0,0,1,0,0h-8.47a5.41,5.41,0,0,1-5.41-5.41v0A5.41,5.41,0,0,1,372.11,265.9Z" transform="translate(747.29 542.62) rotate(180)"/><path class="cls-7" d="M267.5,258.69H271a0,0,0,0,1,0,0v25.23a0,0,0,0,1,0,0H267.5a12.61,12.61,0,0,1-12.61-12.61v0A12.61,12.61,0,0,1,267.5,258.69Z"/><path class="cls-8" d="M267.1,265.9H271a0,0,0,0,1,0,0v10.83a0,0,0,0,1,0,0H267.1a5.41,5.41,0,0,1-5.41-5.41v0A5.41,5.41,0,0,1,267.1,265.9Z"/><path class="cls-9" d="M280.32,258.69v8.14a18.67,18.67,0,0,1-18.66-18.66V210.24h18.66Z"/><path class="cls-7" d="M271,230.62v66.45a47.84,47.84,0,0,0,95.68,0V230.62a26.22,26.22,0,0,0-26.23-26.21H297.24a25.93,25.93,0,0,0-7.31,1A26.21,26.21,0,0,0,271,230.62Z"/><path class="cls-6" d="M271,230.62v66.45a47.85,47.85,0,0,0,37.12,46.62,47.85,47.85,0,0,0,37.11-46.62V271.64a67.25,67.25,0,0,0-55.33-66.19A26.21,26.21,0,0,0,271,230.62Z"/><rect class="cls-10" x="298.09" y="274.65" width="24.26" height="14.5" rx="7.25"/><rect class="cls-10" x="306.63" y="204.4" width="12.23" height="75.17"/><rect class="cls-11" x="325.22" y="246.28" width="13.25" height="24.82" rx="6.63" transform="translate(663.7 517.39) rotate(180)"/><rect class="cls-11" x="287.02" y="246.28" width="13.25" height="24.82" rx="6.63" transform="translate(587.3 517.39) rotate(-180)"/><path class="cls-8" d="M317.14,315.88A20.84,20.84,0,0,0,338,295.06a3.94,3.94,0,0,0-7.87,0A13,13,0,0,1,317.14,308a3.94,3.94,0,1,0,0,7.87Z"/><path class="cls-9" d="M366.7,283.92h8.06a12.8,12.8,0,0,0,4-.66v3.36a12.11,12.11,0,0,1-12.11,12.11Z"/><path class="cls-9" d="M366.7,258.67h8.06a12.46,12.46,0,0,1,3.83.65h.2v-33a27.74,27.74,0,0,0-27.73-27.73H318.87v6.93a16.36,16.36,0,0,0,16.37,16.36h0a10,10,0,0,1,10,10v5.88a20.88,20.88,0,0,0,20.87,20.88l.57,0Z"/><rect class="cls-12" x="256.78" y="198.59" width="92.08" height="23.29" rx="11.65"/><path class="cls-13" d="M77.27,135.69l103.93,180a8.43,8.43,0,0,1-14.59,8.43l-103.93-180a8.43,8.43,0,1,1,14.59-8.43Z"/><path class="cls-14" d="M77.27,135.69l103.93,180a8.42,8.42,0,0,1-3.08,11.51L65.76,132.61a8.41,8.41,0,0,1,11.51,3.08Z"/><path class="cls-15" d="M82.22,123.11a8.4,8.4,0,0,1-3.08,11.5L60.81,145.19a8.42,8.42,0,1,1-8.42-14.59L70.71,120A8.43,8.43,0,0,1,82.22,123.11Z"/><path class="cls-13" d="M82.22,123.11a8.4,8.4,0,0,1-3.08,11.5L70,139.9l-8.43-14.59L70.71,120A8.43,8.43,0,0,1,82.22,123.11Z"/><path class="cls-4" d="M204,82.9C176.58,98.73,172,96.27,172,96.27L217.42,175c2.86,5,7.79,7.71,11.55,6.45,4.76-1.6,12.5-5,24.91-12.18Z"/><path class="cls-5" d="M127.15,222.08c70.27-40.57,90.33-47,90.33-47L172.07,96.4c-2.68-4.64-9.87-5.71-16.82-2.5-12.73,5.89-36.69,17.95-78,41.79Z"/><circle class="cls-16" cx="153.06" cy="149.11" r="36.34"/><path class="cls-17" d="M181,125.86a36.27,36.27,0,0,0-27.93-13.1c-1.12,0-2.23,0-3.32.15a36.36,36.36,0,0,0-5.53,8.54h0a36.33,36.33,0,0,0,33,51.58c1.12,0,2.22,0,3.32-.15a36.59,36.59,0,0,0,3.79-5.26A36.35,36.35,0,0,0,181,125.86Z"/><path class="cls-18" d="M153.06,115.53a33.56,33.56,0,1,1-23.75,9.83,33.35,33.35,0,0,1,23.75-9.83m0-2.77a36.35,36.35,0,1,0,36.34,36.35,36.35,36.35,0,0,0-36.34-36.35Z"/><path class="cls-15" d="M189.37,147.7a36.32,36.32,0,0,0-39.64-34.79,37.71,37.71,0,0,0-2.4,3.1c32.37-5.18,52.29,33.75,29.29,57,.92-.94,2.63,0,3.92-.15A36.33,36.33,0,0,0,189.37,147.7Z"/><path class="cls-18" d="M137.64,147.31a1.61,1.61,0,0,1-.48-.08l-6-1.95a1.56,1.56,0,0,1,1-3l6,2a1.56,1.56,0,0,1-.49,3Z"/><path class="cls-15" d="M153.05,136.09a1.56,1.56,0,0,1-1.56-1.56v-7.45a1.56,1.56,0,0,1,3.11,0v7.45A1.55,1.55,0,0,1,153.05,136.09Z"/><path class="cls-15" d="M168.46,147.28a1.56,1.56,0,0,1-.46-3l6-1.86a1.55,1.55,0,1,1,.92,3l-6,1.87A1.47,1.47,0,0,1,168.46,147.28Z"/><path class="cls-15" d="M165.14,169.09a1.56,1.56,0,0,1-1.28-.67l-2.57-3.68a1.55,1.55,0,1,1,2.54-1.78l2.58,3.68a1.57,1.57,0,0,1-.38,2.17A1.54,1.54,0,0,1,165.14,169.09Z"/><path class="cls-18" d="M140.87,169a1.56,1.56,0,0,1-1.24-2.5l2.72-3.59a1.56,1.56,0,1,1,2.48,1.88l-2.72,3.59A1.56,1.56,0,0,1,140.87,169Z"/><path class="cls-19" d="M148.29,185.14a36.31,36.31,0,0,1-26.44-17.4l17.07-.79a3.4,3.4,0,0,1,3.34,2.2Z"/><path class="cls-19" d="M130.56,145.61l-13.07,11a36.54,36.54,0,0,1-.78-7.52,36.16,36.16,0,0,1,8.37-23.2l6.44,15.83A3.39,3.39,0,0,1,130.56,145.61Z"/><path class="cls-19" d="M189.4,149.11a36,36,0,0,1-.77,7.46l-13.09-11a3.4,3.4,0,0,1-1-3.87L181,125.86A36.2,36.2,0,0,1,189.4,149.11Z"/><path class="cls-3" d="M189.4,149.11a36,36,0,0,1-.77,7.46l-13.09-11a3.4,3.4,0,0,1-1-3.87L181,125.86A36.2,36.2,0,0,1,189.4,149.11Z"/><path class="cls-19" d="M151.06,135.18,138.88,144a3.39,3.39,0,0,0-1.23,3.79l4.65,14.32a3.4,3.4,0,0,0,3.23,2.34h15.05a3.39,3.39,0,0,0,3.23-2.34l4.65-14.32a3.38,3.38,0,0,0-1.23-3.79l-12.18-8.85A3.41,3.41,0,0,0,151.06,135.18Z"/><path class="cls-3" d="M168.46,147.82l-4.65,14.32a3.39,3.39,0,0,1-3.23,2.34h-6.79a36.23,36.23,0,0,1-12.49-22.21l9.76-7.09a3.41,3.41,0,0,1,4,0L167.23,144A3.38,3.38,0,0,1,168.46,147.82Z"/><path class="cls-19" d="M184.33,167.63A36.4,36.4,0,0,1,158,185.13l5.51-14.78.46-1.24a3.41,3.41,0,0,1,3.33-2.21Z"/><path class="cls-3" d="M184.33,167.63a36.59,36.59,0,0,1-3.79,5.26c-1.1.1-2.2.15-3.32.15a36.4,36.4,0,0,1-13.76-2.69l.46-1.24a3.41,3.41,0,0,1,3.33-2.21Z"/><path class="cls-19" d="M168.88,116.38l-13.83,10.05a3.38,3.38,0,0,1-4,0l-6.85-5h0l-7-5.07a36.29,36.29,0,0,1,12.51-3.47c1.09-.1,2.2-.15,3.32-.15A36.14,36.14,0,0,1,168.88,116.38Z"/><path class="cls-3" d="M168.88,116.38l-13.83,10.05a3.38,3.38,0,0,1-4,0l-6.85-5h0a36.36,36.36,0,0,1,5.53-8.54c1.09-.1,2.2-.15,3.32-.15A36.14,36.14,0,0,1,168.88,116.38Z"/><circle class="cls-14" cx="166.91" cy="130.12" r="7.43"/><path class="cls-4" d="M378.27,96.32,368.82,196.6h-99.9L259.47,96.32a21.88,21.88,0,0,1,21.78-23.94h75.23A21.88,21.88,0,0,1,378.27,96.32Z"/><path class="cls-5" d="M336.38,96.32,326.93,196.6h-58L259.47,96.32a21.88,21.88,0,0,1,21.78-23.94H314.6A21.87,21.87,0,0,1,336.38,96.32Z"/><rect class="cls-4" x="235.49" y="196.6" width="166.76" height="27.27" rx="13.63"/><rect class="cls-5" x="256.78" y="196.6" width="120" height="19.36" rx="9.68"/><path class="cls-5" d="M266.48,294.7h17.25a3.49,3.49,0,0,0,2.77-1.37l6.41-8.41a3.48,3.48,0,0,0-2.77-5.59H272.88a3.44,3.44,0,0,0-2.76,1.37l-6.41,8.41A3.48,3.48,0,0,0,266.48,294.7Z"/><path class="cls-5" d="M342.94,294.7H360.2a3.47,3.47,0,0,0,2.76-1.37l6.41-8.41a3.48,3.48,0,0,0-2.76-5.59H349.35a3.46,3.46,0,0,0-2.77,1.37l-6.41,8.41A3.48,3.48,0,0,0,342.94,294.7Z"/></svg>