<svg id="_50" data-name="50" xmlns="http://www.w3.org/2000/svg" viewBox="0 0 512 512"><defs><style>.cls-1{fill:#4fcae8;}.cls-2{fill:#53b976;}.cls-3{fill:#9acdae;}.cls-4{fill:#c3ead0;}.cls-5{fill:#c1b7d3;}.cls-6{fill:#f4e6f4;}.cls-7{fill:#746087;}.cls-8{fill:#c2aacf;}.cls-9{fill:#3e4e60;}.cls-10{fill:#3f6c8e;}.cls-11{fill:#fff;}</style></defs><title>50-soccer-icons</title><circle class="cls-1" cx="256" cy="256" r="256"/><path class="cls-2" d="M512,256c0,141.38-114.62,256-256,256S0,397.38,0,256q0-11.64,1-23H511Q512,244.36,512,256Z"/><path class="cls-3" d="M251.36,306.87a84.85,84.85,0,0,0-60.42-25H1.29Q2.55,294.43,5,306.63H65.57q-.34,3.48-.35,7c0,28.33,15.87,54.61,44.71,74a149.27,149.27,0,0,0,19,10.81c24.11,11.51,52.7,17.7,82.6,17.7,33.65,0,65.75-7.91,91.62-22.39L386,476.57a251,251,0,0,0,21.13-13.93Zm-39.8,84.47a180.72,180.72,0,0,1-42.92-5c-16.74-4.08-32-10.59-44.87-19.24C102,352.4,90,333.43,90,313.61a48.12,48.12,0,0,1,.52-7h100.4a60.23,60.23,0,0,1,42.89,17.77l19.75,19.75,31.25,31.26C263.79,385.76,238.34,391.34,211.56,391.34Z"/><path class="cls-4" d="M273.87,329.38q-9.66,7.68-20.29,14.77L233.83,324.4a60.23,60.23,0,0,0-42.89-17.77H90.54a48.12,48.12,0,0,0-.52,7c0,19.82,12,38.79,33.75,53.45,12.85,8.65,28.13,15.16,44.87,19.24q-19.19,6.87-39.68,12.13a149.27,149.27,0,0,1-19-10.81c-28.84-19.4-44.71-45.68-44.71-74q0-3.5.35-7H5q-2.44-12.19-3.72-24.79H190.94a84.85,84.85,0,0,1,60.42,25Z"/><circle class="cls-5" cx="393.53" cy="277.45" r="83.38"/><path class="cls-6" d="M457.61,224.11a83.17,83.17,0,0,0-64.08-30c-2.57,0-5.11.12-7.62.34A83.42,83.42,0,0,0,373.24,214h0A83.35,83.35,0,0,0,449,332.35q3.85,0,7.62-.34a83.38,83.38,0,0,0,1-107.9Z"/><path class="cls-7" d="M393.53,200.42A77,77,0,1,1,339.06,223a76.53,76.53,0,0,1,54.47-22.56m0-6.35a83.38,83.38,0,1,0,83.37,83.38,83.38,83.38,0,0,0-83.37-83.38Z"/><path class="cls-8" d="M476.84,274.22a83.34,83.34,0,0,0-90.94-79.8,82.73,82.73,0,0,0-5.51,7.11c74.26-11.89,120,77.4,67.19,130.81,2.11-2.14,6-.06,9-.33A83.31,83.31,0,0,0,476.84,274.22Z"/><path class="cls-7" d="M358.17,273.31a3.57,3.57,0,0,1-1.11-.17l-13.68-4.48a3.57,3.57,0,0,1,2.21-6.78l13.69,4.48a3.56,3.56,0,0,1-1.11,6.95Z"/><path class="cls-8" d="M393.51,247.58a3.57,3.57,0,0,1-3.57-3.57v-17.1a3.57,3.57,0,0,1,7.13,0V244A3.56,3.56,0,0,1,393.51,247.58Z"/><path class="cls-8" d="M428.87,273.26a3.56,3.56,0,0,1-1.06-7L441.55,262a3.57,3.57,0,0,1,2.12,6.81l-13.74,4.27A3.61,3.61,0,0,1,428.87,273.26Z"/><path class="cls-8" d="M421.24,323.28a3.56,3.56,0,0,1-2.92-1.52l-5.92-8.45a3.57,3.57,0,1,1,5.85-4.09l5.91,8.45a3.56,3.56,0,0,1-2.92,5.61Z"/><path class="cls-7" d="M365.57,323.12a3.56,3.56,0,0,1-2.84-5.72l6.24-8.23a3.57,3.57,0,0,1,5.69,4.3l-6.24,8.24A3.58,3.58,0,0,1,365.57,323.12Z"/><path class="cls-9" d="M382.58,360.11a83.42,83.42,0,0,1-60.65-39.92l39.17-1.81a7.8,7.8,0,0,1,7.65,5Z"/><path class="cls-9" d="M341.93,269.43l-30,25.28a83.87,83.87,0,0,1-1.79-17.26,83,83,0,0,1,19.2-53.22l14.77,36.31A7.79,7.79,0,0,1,341.93,269.43Z"/><path class="cls-9" d="M476.9,277.45a84,84,0,0,1-1.76,17.12l-30-25.23a7.81,7.81,0,0,1-2.21-8.89l14.71-36.34A83,83,0,0,1,476.9,277.45Z"/><path class="cls-10" d="M476.9,277.45a84,84,0,0,1-1.76,17.12l-30-25.23a7.81,7.81,0,0,1-2.21-8.89l14.71-36.34A83,83,0,0,1,476.9,277.45Z"/><path class="cls-9" d="M389,245.5,361,265.79a7.78,7.78,0,0,0-2.83,8.71l10.67,32.84a7.78,7.78,0,0,0,7.4,5.38h34.53a7.79,7.79,0,0,0,7.41-5.38l10.67-32.84a7.8,7.8,0,0,0-2.83-8.71L398.11,245.5A7.81,7.81,0,0,0,389,245.5Z"/><path class="cls-10" d="M428.87,274.5,418.2,307.34a7.78,7.78,0,0,1-7.41,5.38H395.21a83.22,83.22,0,0,1-28.66-51L389,245.5a7.81,7.81,0,0,1,9.16,0L426,265.79A7.8,7.8,0,0,1,428.87,274.5Z"/><path class="cls-9" d="M465.27,320a83.55,83.55,0,0,1-60.51,40.12l12.64-33.9,1.06-2.84a7.8,7.8,0,0,1,7.63-5.06Z"/><path class="cls-10" d="M465.27,320a83.58,83.58,0,0,1-8.7,12.06q-3.76.35-7.62.34a83.18,83.18,0,0,1-31.55-6.18l1.06-2.84a7.8,7.8,0,0,1,7.63-5.06Z"/><path class="cls-9" d="M429.84,202.37l-31.73,23.06a7.81,7.81,0,0,1-9.16,0L373.24,214h0l-16-11.64a82.91,82.91,0,0,1,28.69-8c2.51-.22,5-.34,7.62-.34A83,83,0,0,1,429.84,202.37Z"/><path class="cls-10" d="M429.84,202.37l-31.73,23.06a7.81,7.81,0,0,1-9.16,0L373.24,214h0a83.42,83.42,0,0,1,12.67-19.6c2.51-.22,5-.34,7.62-.34A83,83,0,0,1,429.84,202.37Z"/><circle class="cls-11" cx="425.3" cy="233.88" r="17.04"/></svg>