<svg id="_50" data-name="50" xmlns="http://www.w3.org/2000/svg" viewBox="0 0 512 512"><defs><style>.cls-1{fill:#6c7ed5;}.cls-2{fill:#b5b3ff;}.cls-3{fill:#ea792e;}.cls-4{fill:#f39e22;}.cls-5{fill:#f9c744;}.cls-6{fill:#dd5e26;}.cls-7{fill:#fad98f;}.cls-8{fill:#faefdc;}.cls-9{fill:#c1b7d3;}.cls-10{fill:#f4e6f4;}.cls-11{fill:#746087;}.cls-12{fill:#c2aacf;}.cls-13{fill:#3e4e60;}.cls-14{fill:#3f6c8e;}.cls-15{fill:#fff;}.cls-16{fill:#decee5;}.cls-17{fill:#f9f2f9;}</style></defs><title>50-soccer-icons</title><circle class="cls-1" cx="256" cy="256" r="256"/><path class="cls-2" d="M233.89,463l-.54,0a207.54,207.54,0,0,1-30.23-5.57,5,5,0,1,1,2.53-9.67A196.16,196.16,0,0,0,234.43,453a5,5,0,0,1-.54,10Zm44.94-.09a5,5,0,0,1-.55-10A199.27,199.27,0,0,0,307,447.52a5,5,0,1,1,2.57,9.66,208.35,208.35,0,0,1-30.21,5.67ZM162.44,441.37a5,5,0,0,1-2.3-.56A209.06,209.06,0,0,1,134,424.66a5,5,0,1,1,5.86-8.1,198.55,198.55,0,0,0,24.89,15.37,5,5,0,0,1-2.31,9.44ZM350.22,441a5,5,0,0,1-2.33-9.43,198.61,198.61,0,0,0,24.85-15.48,5,5,0,0,1,5.9,8.08,208.26,208.26,0,0,1-26.11,16.25A4.94,4.94,0,0,1,350.22,441ZM103.65,395.39a5,5,0,0,1-3.75-1.69,209,209,0,0,1-18.59-24.47,5,5,0,1,1,8.38-5.45,199.1,199.1,0,0,0,17.71,23.3,5,5,0,0,1-3.75,8.31Zm305.2-.57a5,5,0,0,1-3.76-8.29,199.87,199.87,0,0,0,17.61-23.37,5,5,0,1,1,8.4,5.42,210.65,210.65,0,0,1-18.49,24.54A5,5,0,0,1,408.85,394.82ZM65.35,331.31A5,5,0,0,1,60.66,328a205.91,205.91,0,0,1-8.46-29.55,5,5,0,0,1,9.79-2A195.4,195.4,0,0,0,70,324.58a5,5,0,0,1-4.69,6.73Zm381.55-.67a4.87,4.87,0,0,1-1.71-.31,5,5,0,0,1-3-6.41,196.19,196.19,0,0,0,8-28.15,5,5,0,1,1,9.8,2,208,208,0,0,1-8.36,29.58A5,5,0,0,1,446.9,330.64Zm-394-72.91H52.8a5,5,0,0,1-4.93-5.07A209.77,209.77,0,0,1,50.6,222a5,5,0,1,1,9.87,1.62,199.6,199.6,0,0,0-2.6,29.14A5,5,0,0,1,52.88,257.73ZM459.11,257a5,5,0,0,1-5-4.9v-.42a199.24,199.24,0,0,0-2.77-29.14,5,5,0,1,1,9.86-1.68,209.53,209.53,0,0,1,2.91,30.59v.46a5,5,0,0,1-4.9,5.09ZM67.71,184.58a5,5,0,0,1-4.63-6.88,209.11,209.11,0,0,1,13.65-27.53,5,5,0,1,1,8.6,5.09,200,200,0,0,0-13,26.2A5,5,0,0,1,67.71,184.58Zm376.13-1.09a5,5,0,0,1-4.62-3.1,198,198,0,0,0-13.15-26.15,5,5,0,1,1,8.57-5.14,207.71,207.71,0,0,1,13.82,27.48,5,5,0,0,1-4.62,6.91ZM108,121.79a5,5,0,0,1-3.64-8.42,210.14,210.14,0,0,1,22.65-20.78,5,5,0,0,1,6.2,7.84,202,202,0,0,0-21.57,19.79A5,5,0,0,1,108,121.79Zm295.08-.88a5,5,0,0,1-3.62-1.55,198.89,198.89,0,0,0-21.69-19.65A5,5,0,0,1,384,91.82a209.14,209.14,0,0,1,22.78,20.64,5,5,0,0,1-3.62,8.45ZM168.29,77.71a5,5,0,0,1-2.16-9.51A207.42,207.42,0,0,1,194.78,57a5,5,0,1,1,2.93,9.56,197.63,197.63,0,0,0-27.26,10.65A4.91,4.91,0,0,1,168.29,77.71Zm174.33-.51a5.08,5.08,0,0,1-2.13-.48,198.51,198.51,0,0,0-27.31-10.5,5,5,0,1,1,2.88-9.57,206.88,206.88,0,0,1,28.7,11,5,5,0,0,1-2.14,9.53ZM240.41,58.44a5,5,0,0,1-.38-10c3.78-.29,7.62-.48,11.42-.56,6.46-.14,12.92,0,19.31.46a5,5,0,0,1-.7,10c-6.08-.43-12.24-.58-18.39-.44-3.62.08-7.28.26-10.88.53Z"/><path class="cls-3" d="M151.57,192.38V172.84c-5.25.45-16,.55-21.09,1.17-17.88,1.88-19.53,22.83-18.32,37.07,2.8,23.89,32.43,26.75,51.57,26L163.41,227c-11.55-.69-24.79-2-33.79-9.73-5.2-4.86-3.73-12.7-3-18.85l0-.07a9,9,0,0,1,9.06-6.61Z"/><path class="cls-4" d="M286.07,211.08c-2.79,23.89-32.42,26.76-51.56,26l.31-10.07c11.55-.69,24.79-2,33.79-9.73,5.21-4.86,3.74-12.7,3-18.85a.14.14,0,0,1,0-.07,9,9,0,0,0-9.06-6.62l-15.91.61V172.84c2.15.18,5.22.31,8.45.43,4.66.18,9.63.37,12.64.74,10.63,1.12,15.53,9,17.49,18.15A66.49,66.49,0,0,1,286.07,211.08Z"/><path class="cls-5" d="M285.24,192.16a25.5,25.5,0,0,1-5.13.51,25.81,25.81,0,0,1-25-19.4c4.66.18,9.63.37,12.64.74C278.38,175.13,283.28,183,285.24,192.16Z"/><path class="cls-4" d="M113,192.16a25.5,25.5,0,0,0,5.13.51,25.81,25.81,0,0,0,25-19.4c-4.66.18-9.63.37-12.64.74C119.86,175.13,115,183,113,192.16Z"/><path class="cls-3" d="M222.36,255.85V267.5a9.34,9.34,0,0,1-9.34,9.34H185.21a9.34,9.34,0,0,1-9.34-9.34V255.85Z"/><path class="cls-4" d="M222.36,255.85V267.5a9.34,9.34,0,0,1-9.34,9.34h-13.9v-21Z"/><rect class="cls-4" x="187.23" y="276.84" width="23.77" height="26.22"/><rect class="cls-5" x="199.12" y="276.84" width="11.89" height="26.22"/><path class="cls-6" d="M238.28,319.66v30H160v-30a16.6,16.6,0,0,1,16.6-16.6h45.13A16.6,16.6,0,0,1,238.28,319.66Z"/><path class="cls-3" d="M238.28,319.66v30H199.12v-46.6h22.56A16.6,16.6,0,0,1,238.28,319.66Z"/><rect class="cls-4" x="154.41" y="341.83" width="89.41" height="15.65" rx="4.32"/><path class="cls-5" d="M243.82,346.15v7a4.31,4.31,0,0,1-4.31,4.31H199.12V341.83h40.39A4.31,4.31,0,0,1,243.82,346.15Z"/><path class="cls-4" d="M246.66,161.22v59.32A39.71,39.71,0,0,1,207,260.25H191.28a39.71,39.71,0,0,1-39.71-39.71V161.22a7.63,7.63,0,0,1,7.63-7.63H239A7.62,7.62,0,0,1,246.66,161.22Z"/><path class="cls-5" d="M246.66,161.22v43.33A39.71,39.71,0,0,1,207,244.26H191.28a39.71,39.71,0,0,1-39.71-39.71V161.22a7.63,7.63,0,0,1,7.63-7.63H239A7.62,7.62,0,0,1,246.66,161.22Z"/><path class="cls-5" d="M246.66,161.22v59.32A39.71,39.71,0,0,1,207,260.25h-7.83V153.59H239A7.62,7.62,0,0,1,246.66,161.22Z"/><path class="cls-7" d="M246.66,161.22v43.33A39.71,39.71,0,0,1,207,244.26h-7.83V153.59H239A7.62,7.62,0,0,1,246.66,161.22Z"/><rect class="cls-8" x="222.36" y="169.05" width="15.92" height="48.03" rx="7.96"/><rect class="cls-4" x="145.01" y="144.12" width="108.21" height="18.94" rx="5.23"/><path class="cls-5" d="M253.22,149.34v8.49a5.23,5.23,0,0,1-5.22,5.23H199.12V144.12H248A5.22,5.22,0,0,1,253.22,149.34Z"/><rect class="cls-7" x="203.46" y="144.12" width="43.2" height="10.84" rx="5.42"/><polygon class="cls-3" points="227.61 144.11 170.63 144.11 184.37 106.99 213.87 106.99 227.61 144.11"/><polygon class="cls-4" points="227.61 144.11 199.1 144.11 199.1 106.99 213.87 106.99 227.61 144.11"/><path class="cls-4" d="M243,80.31a43.93,43.93,0,0,1-43.92,43.93h0a43.93,43.93,0,0,1,0-87.85h0A43.92,43.92,0,0,1,243,80.31Z"/><path class="cls-5" d="M243,80.31a43.93,43.93,0,0,1-43.92,43.93h0V36.39h0A43.92,43.92,0,0,1,243,80.31Z"/><path class="cls-6" d="M242.11,89.34a44.09,44.09,0,0,0-9.23-37.12h0a44.11,44.11,0,0,0-14.64-11.46h0a44.18,44.18,0,0,0-38.25,0h0a44,44,0,0,0-14.68,11.52h0a44.06,44.06,0,0,0-9.17,37.13h0a43.45,43.45,0,0,0,5.26,13.43h0a44.13,44.13,0,0,0,31.95,21h0a43.58,43.58,0,0,0,11.69,0h0a44.14,44.14,0,0,0,31.87-21.14h0a43.46,43.46,0,0,0,5.21-13.37Zm-14.3-37.72a39.61,39.61,0,0,1,3.63,4.16l-6.31,15.58a3.27,3.27,0,0,0-.21.74,2.09,2.09,0,0,0-.5.08l-7.24,2.25a2.68,2.68,0,0,0-.42.19,4.54,4.54,0,0,0-.52-.45L201.53,63.48a4.54,4.54,0,0,0-.6-.36c.09-.3.09-9.55,0-9.85a4.54,4.54,0,0,0,.6-.36L215.14,43A40.25,40.25,0,0,1,227.81,51.62Zm-57.39,0A40.25,40.25,0,0,1,183.09,43l5.34,3.87h0l8.27,6a5,5,0,0,0,.58.35c-.09.34-.09,9.53,0,9.87-.09-.05-15.92,11.45-15.83,11.52a2.22,2.22,0,0,0-.38-.18l-7.21-2.36a1.87,1.87,0,0,0-.57-.08,5.1,5.1,0,0,0-.2-.63l-6.34-15.57A41.59,41.59,0,0,1,170.42,51.62ZM159.08,86.93l12.85-10.84a3.58,3.58,0,0,0,.51-.52c.29.13,7.65,2.59,7.91,2.55,0,.34,5.87,18.45,6.08,18.64a1.54,1.54,0,0,0-.25.26l-3.29,4.34a2,2,0,0,0-.27.54,3.84,3.84,0,0,0-.59,0l-16.8.78A40.05,40.05,0,0,1,159.08,86.93Zm40,34a41.1,41.1,0,0,1-7.13-.64l-5.93-15.73a4.26,4.26,0,0,0-.35-.71l.18-.19,3.28-4.34a2.16,2.16,0,0,0,.25-.44,3.94,3.94,0,0,0,.6.05h18.19a3.68,3.68,0,0,0,.66-.06,1.55,1.55,0,0,0,.19.36l3.12,4.46a1.9,1.9,0,0,0,.3.33c-.4.77-5.61,15-6.1,16.25A40.76,40.76,0,0,1,199.12,120.9Zm34-18.36-16.81-.72a3.73,3.73,0,0,0-.82.06c.23.16-3.31-4.81-3.31-4.83a1.64,1.64,0,0,0-.31-.33c.07.15,6.18-18.67,6.06-18.63.37,0,7.63-2.3,8-2.47a4.16,4.16,0,0,0,.42.42l12.88,10.82A40.25,40.25,0,0,1,233.08,102.54Z"/><path class="cls-3" d="M243,78.52c-.76-23.32-20.63-42.32-43.9-42.13V98.9c.21,0,9.9.06,9.76-.06s3.31,4.79,3.32,4.82a1.6,1.6,0,0,0,.3.33c-.4.77-5.61,15-6.1,16.25a40.89,40.89,0,0,1-7.28.65v3.35a44.07,44.07,0,0,0,37.81-21.54h0A43.76,43.76,0,0,0,243,78.52Zm-41.47-15a4.54,4.54,0,0,0-.6-.36c.09-.31.09-9.54,0-9.85a4.54,4.54,0,0,0,.6-.36L215.14,43a40.74,40.74,0,0,1,16.3,12.77l-6.31,15.58a4.15,4.15,0,0,0-.22.74,2.09,2.09,0,0,0-.49.08l-7.25,2.25a2.57,2.57,0,0,0-.41.19,4.23,4.23,0,0,0-.51-.44Zm31.55,39.06-16.81-.72a3.55,3.55,0,0,0-.8.06c0-.14-3.33-4.81-3.33-4.83a2.5,2.5,0,0,0-.31-.34c.07.16,6.18-18.66,6.06-18.62.37,0,7.63-2.3,8-2.46a5.75,5.75,0,0,0,.43.42l12.87,10.81A40.25,40.25,0,0,1,233.08,102.54Z"/><circle class="cls-7" cx="215.12" cy="57.08" r="9.28"/><circle class="cls-9" cx="307.83" cy="310.93" r="64.69"/><path class="cls-10" d="M357.55,269.55a64.54,64.54,0,0,0-49.72-23.31c-2,0-4,.09-5.91.27a64.39,64.39,0,0,0-9.83,15.2h0a64.66,64.66,0,0,0,58.74,91.81q3,0,5.91-.26a65.68,65.68,0,0,0,6.76-9.36,64.73,64.73,0,0,0-5.95-74.36Z"/><path class="cls-11" d="M307.83,251.16a59.77,59.77,0,1,1-42.27,17.51,59.38,59.38,0,0,1,42.27-17.51m0-4.92a64.7,64.7,0,1,0,64.69,64.69,64.69,64.69,0,0,0-64.69-64.69Z"/><path class="cls-12" d="M372.47,308.43a64.66,64.66,0,0,0-70.56-61.92,64,64,0,0,0-4.28,5.52c57.62-9.23,93.08,60.06,52.14,101.49,1.64-1.66,4.68,0,7-.25A64.61,64.61,0,0,0,372.47,308.43Z"/><path class="cls-11" d="M280.39,307.73a2.92,2.92,0,0,1-.86-.14l-10.62-3.48a2.76,2.76,0,0,1,1.73-5.25l10.61,3.47a2.77,2.77,0,0,1-.86,5.4Z"/><path class="cls-12" d="M307.81,287.76a2.76,2.76,0,0,1-2.76-2.77V271.72a2.77,2.77,0,0,1,5.53,0V285A2.77,2.77,0,0,1,307.81,287.76Z"/><path class="cls-12" d="M335.25,307.68a2.77,2.77,0,0,1-.82-5.41L345.09,299a2.76,2.76,0,0,1,1.64,5.28l-10.66,3.33A2.91,2.91,0,0,1,335.25,307.68Z"/><path class="cls-12" d="M329.33,346.5a2.78,2.78,0,0,1-2.27-1.19l-4.59-6.55a2.77,2.77,0,0,1,4.54-3.18l4.59,6.56a2.78,2.78,0,0,1-.68,3.86A2.84,2.84,0,0,1,329.33,346.5Z"/><path class="cls-11" d="M286.14,346.37a2.77,2.77,0,0,1-2.21-4.44l4.84-6.39a2.77,2.77,0,0,1,4.42,3.34l-4.84,6.39A2.78,2.78,0,0,1,286.14,346.37Z"/><path class="cls-13" d="M299.34,375.07a64.74,64.74,0,0,1-47.07-31l30.4-1.41a6,6,0,0,1,5.93,3.91Z"/><path class="cls-13" d="M267.79,304.71l-23.26,19.62A64.83,64.83,0,0,1,258,269.64l11.46,28.17A6,6,0,0,1,267.79,304.71Z"/><path class="cls-13" d="M372.52,310.93a64.63,64.63,0,0,1-1.37,13.29l-23.3-19.58a6,6,0,0,1-1.71-6.89l11.41-28.2A64.4,64.4,0,0,1,372.52,310.93Z"/><path class="cls-14" d="M372.52,310.93a64.63,64.63,0,0,1-1.37,13.29l-23.3-19.58a6,6,0,0,1-1.71-6.89l11.41-28.2A64.4,64.4,0,0,1,372.52,310.93Z"/><path class="cls-13" d="M304.27,286.14,282.6,301.89a6,6,0,0,0-2.19,6.76l8.27,25.48a6,6,0,0,0,5.75,4.17h26.79a6,6,0,0,0,5.75-4.17l8.28-25.48a6,6,0,0,0-2.2-6.76l-21.67-15.75A6.08,6.08,0,0,0,304.27,286.14Z"/><path class="cls-14" d="M335.25,308.65,327,334.12a6,6,0,0,1-5.75,4.18H309.13a64.62,64.62,0,0,1-22.23-39.53l17.38-12.63a6,6,0,0,1,7.1,0l21.67,15.75A6,6,0,0,1,335.25,308.65Z"/><path class="cls-13" d="M363.5,343.91a65.68,65.68,0,0,1-6.76,9.36A64.53,64.53,0,0,1,316.54,375l9.81-26.3.82-2.21a6.05,6.05,0,0,1,5.92-3.92Z"/><path class="cls-14" d="M363.5,343.91a65.68,65.68,0,0,1-6.76,9.36q-2.92.25-5.91.26a64.5,64.5,0,0,1-24.48-4.79l.82-2.21a6.05,6.05,0,0,1,5.92-3.92Z"/><path class="cls-13" d="M336,252.68l-24.62,17.89a6,6,0,0,1-7.11,0l-12.18-8.85h0l-12.43-9a64.33,64.33,0,0,1,22.26-6.17c1.94-.18,3.92-.27,5.91-.27A64.41,64.41,0,0,1,336,252.68Z"/><path class="cls-14" d="M336,252.68l-24.62,17.89a6,6,0,0,1-7.1,0l-12.19-8.85h0a64.39,64.39,0,0,1,9.83-15.2c1.94-.18,3.92-.27,5.91-.27A64.41,64.41,0,0,1,336,252.68Z"/><circle class="cls-15" cx="332.48" cy="277.13" r="13.22"/><path class="cls-10" d="M418.68,335.22l4.88,4.88,1,1H470.7a3.88,3.88,0,0,0,2.21-7.07l-12.13-8.44a5,5,0,0,1,0-8.15L472.91,309a3.88,3.88,0,0,0-2.21-7.07H395.92a10.56,10.56,0,0,0-7.47,3.09Z"/><path class="cls-16" d="M437.68,415.71a11.13,11.13,0,0,0,3.26-7.88V371.39a33.67,33.67,0,0,0-9.83-23.74l-6.58-6.58-1-1-4.88-4.88L388.45,305a10.54,10.54,0,0,0-3.09,7.47v50.93Z"/><path class="cls-10" d="M39.09,309l12.13,8.44a5,5,0,0,1,0,8.15L39.09,334a3.88,3.88,0,0,0,2.21,7.07H87.47l1-1,4.88-4.88L123.55,305a10.56,10.56,0,0,0-7.47-3.09H41.3A3.88,3.88,0,0,0,39.09,309Z"/><path class="cls-16" d="M74.32,415.71l52.32-52.32V312.46a10.54,10.54,0,0,0-3.09-7.47L93.32,335.22l-4.88,4.88-1,1-6.58,6.58a33.67,33.67,0,0,0-9.83,23.74v36.44A11.13,11.13,0,0,0,74.32,415.71Z"/><path class="cls-15" d="M71.06,407.83V371.39a33.44,33.44,0,0,1,3-13.91H437.92a33.44,33.44,0,0,1,3,13.91v36.44A11.13,11.13,0,0,1,429.79,419H82.21a11.13,11.13,0,0,1-11.15-11.15Z"/><path class="cls-17" d="M71.06,407.83V371.39a33.44,33.44,0,0,1,3-13.91H256V419H82.21a11.13,11.13,0,0,1-11.15-11.15Z"/><path class="cls-4" d="M272.88,385.07l-7.49,5.45a3.17,3.17,0,0,0-1.17,3.57l2.86,8.81a1.11,1.11,0,0,1-1.71,1.25l-7.49-5.45a3.2,3.2,0,0,0-3.76,0l-7.49,5.45a1.11,1.11,0,0,1-1.71-1.25l2.86-8.81a3.17,3.17,0,0,0-1.17-3.57l-7.49-5.45a1.11,1.11,0,0,1,.66-2H249a3.2,3.2,0,0,0,3-2.21l2.86-8.81a1.11,1.11,0,0,1,2.12,0l2.86,8.81a3.2,3.2,0,0,0,3,2.21h9.26A1.11,1.11,0,0,1,272.88,385.07Z"/><path class="cls-5" d="M272.88,385.07l-7.49,5.45a3.17,3.17,0,0,0-1.17,3.57l2.86,8.81a1.11,1.11,0,0,1-1.71,1.25l-7.49-5.45a3.17,3.17,0,0,0-1.88-.61V371.27a1.1,1.1,0,0,1,1.06.77l2.86,8.81a3.2,3.2,0,0,0,3,2.21h9.26A1.11,1.11,0,0,1,272.88,385.07Z"/><path class="cls-4" d="M169.32,385.07l-7.5,5.45a3.18,3.18,0,0,0-1.16,3.57l2.86,8.81a1.11,1.11,0,0,1-1.71,1.25l-7.49-5.45a3.2,3.2,0,0,0-3.76,0l-7.5,5.45a1.11,1.11,0,0,1-1.71-1.25l2.86-8.81a3.18,3.18,0,0,0-1.16-3.57l-7.49-5.45a1.11,1.11,0,0,1,.65-2h9.27a3.2,3.2,0,0,0,3-2.21l2.86-8.81a1.1,1.1,0,0,1,1.06-.77,1.09,1.09,0,0,1,1.05.77l2.87,8.81a3.18,3.18,0,0,0,3,2.21h9.26A1.11,1.11,0,0,1,169.32,385.07Z"/><path class="cls-5" d="M169.32,385.07l-7.5,5.45a3.18,3.18,0,0,0-1.16,3.57l2.86,8.81a1.11,1.11,0,0,1-1.71,1.25l-7.49-5.45a3.17,3.17,0,0,0-1.88-.61V371.27a1.09,1.09,0,0,1,1.05.77l2.87,8.81a3.18,3.18,0,0,0,3,2.21h9.26A1.11,1.11,0,0,1,169.32,385.07Z"/><path class="cls-4" d="M376.44,385.07,369,390.52a3.18,3.18,0,0,0-1.16,3.57l2.86,8.81a1.11,1.11,0,0,1-1.71,1.25l-7.5-5.45a3.2,3.2,0,0,0-3.76,0l-7.49,5.45a1.11,1.11,0,0,1-1.71-1.25l2.86-8.81a3.18,3.18,0,0,0-1.16-3.57l-7.5-5.45a1.11,1.11,0,0,1,.66-2h9.26a3.18,3.18,0,0,0,3-2.21l2.87-8.81a1.09,1.09,0,0,1,1.05-.77,1.1,1.1,0,0,1,1.06.77l2.86,8.81a3.2,3.2,0,0,0,3,2.21h9.27A1.11,1.11,0,0,1,376.44,385.07Z"/><path class="cls-5" d="M376.44,385.07,369,390.52a3.18,3.18,0,0,0-1.16,3.57l2.86,8.81a1.11,1.11,0,0,1-1.71,1.25l-7.5-5.45a3.15,3.15,0,0,0-1.88-.61V371.27a1.1,1.1,0,0,1,1.06.77l2.86,8.81a3.2,3.2,0,0,0,3,2.21h9.27A1.11,1.11,0,0,1,376.44,385.07Z"/></svg>