<svg id="_50" data-name="50" xmlns="http://www.w3.org/2000/svg" viewBox="0 0 512 512"><defs><style>.cls-1{fill:#53b976;}.cls-2{fill:#c1b7d3;}.cls-3{fill:#f4e6f4;}.cls-4{fill:#746087;}.cls-5{fill:#c2aacf;}.cls-6{fill:#3e4e60;}.cls-7{fill:#3f6c8e;}.cls-8{fill:#fff;}.cls-9{fill:#3f5d77;}.cls-10{fill:#e9465e;}.cls-11{fill:#c0405c;}.cls-12{fill:#9b5b42;}.cls-13{fill:#8e4e3f;}.cls-14{fill:#ea7589;}.cls-15{fill:#723e33;}.cls-16{fill:#442a21;}.cls-17{fill:#334353;}.cls-18{fill:#543029;}</style></defs><title>50-soccer-icons</title><circle class="cls-1" cx="256" cy="256" r="256"/><circle class="cls-2" cx="164.48" cy="107.68" r="43.37"/><path class="cls-3" d="M197.81,79.94a43.29,43.29,0,0,0-33.33-15.63q-2,0-4,.18a43.54,43.54,0,0,0-6.6,10.19h0a43.35,43.35,0,0,0,39.39,61.55q2,0,4-.18a45.22,45.22,0,0,0,4.53-6.27,43.42,43.42,0,0,0-4-49.85Z"/><path class="cls-4" d="M164.48,67.61a40.07,40.07,0,1,1-28.34,11.74,39.8,39.8,0,0,1,28.34-11.74m0-3.3a43.37,43.37,0,1,0,43.36,43.37,43.37,43.37,0,0,0-43.36-43.37Z"/><path class="cls-5" d="M207.81,106a43.36,43.36,0,0,0-47.3-41.51,44.59,44.59,0,0,0-2.87,3.7c38.63-6.18,62.4,40.26,35,68,1.1-1.11,3.14,0,4.68-.17A43.28,43.28,0,0,0,207.81,106Z"/><path class="cls-4" d="M146.09,105.53a2,2,0,0,1-.58-.09l-7.12-2.33a1.85,1.85,0,1,1,1.15-3.52l7.12,2.32a1.86,1.86,0,0,1-.57,3.62Z"/><path class="cls-5" d="M164.47,92.14a1.85,1.85,0,0,1-1.86-1.85V81.4a1.86,1.86,0,1,1,3.71,0v8.89A1.85,1.85,0,0,1,164.47,92.14Z"/><path class="cls-5" d="M182.86,105.5a1.85,1.85,0,0,1-.55-3.62l7.15-2.23a1.85,1.85,0,1,1,1.1,3.54l-7.15,2.23A2.09,2.09,0,0,1,182.86,105.5Z"/><path class="cls-5" d="M178.89,131.52a1.84,1.84,0,0,1-1.52-.79l-3.07-4.4a1.85,1.85,0,1,1,3-2.12l3.08,4.39a1.85,1.85,0,0,1-1.52,2.92Z"/><path class="cls-4" d="M149.94,131.44a1.81,1.81,0,0,1-1.12-.38,1.85,1.85,0,0,1-.36-2.6l3.24-4.28a1.86,1.86,0,1,1,3,2.24l-3.24,4.28A1.87,1.87,0,0,1,149.94,131.44Z"/><path class="cls-6" d="M158.78,150.68a43.43,43.43,0,0,1-31.55-20.76l20.38-.95a4.06,4.06,0,0,1,4,2.62Z"/><path class="cls-6" d="M137.64,103.51,122,116.66a43.48,43.48,0,0,1,9-36.66l7.69,18.89A4.05,4.05,0,0,1,137.64,103.51Z"/><path class="cls-6" d="M207.84,107.68a43.58,43.58,0,0,1-.91,8.91l-15.62-13.13a4,4,0,0,1-1.15-4.62l7.65-18.9A43.16,43.16,0,0,1,207.84,107.68Z"/><path class="cls-7" d="M207.84,107.68a43.58,43.58,0,0,1-.91,8.91l-15.62-13.13a4,4,0,0,1-1.15-4.62l7.65-18.9A43.16,43.16,0,0,1,207.84,107.68Z"/><path class="cls-6" d="M162.09,91.06l-14.52,10.56a4.06,4.06,0,0,0-1.48,4.53l5.55,17.08a4.06,4.06,0,0,0,3.86,2.8h18a4,4,0,0,0,3.85-2.8l5.55-17.08a4.05,4.05,0,0,0-1.47-4.53L166.86,91.06A4.07,4.07,0,0,0,162.09,91.06Z"/><path class="cls-7" d="M182.86,106.15l-5.55,17.08a4,4,0,0,1-3.85,2.8h-8.11a43.26,43.26,0,0,1-14.9-26.5l11.65-8.47a4.05,4.05,0,0,1,4.76,0l14.53,10.56A4.05,4.05,0,0,1,182.86,106.15Z"/><path class="cls-6" d="M201.8,129.79a45.22,45.22,0,0,1-4.53,6.27,43.34,43.34,0,0,1-27,14.6L176.89,133l.55-1.48a4,4,0,0,1,4-2.63Z"/><path class="cls-7" d="M201.8,129.79a45.22,45.22,0,0,1-4.53,6.27q-2,.18-4,.18A43.33,43.33,0,0,1,176.89,133l.55-1.48a4,4,0,0,1,4-2.63Z"/><path class="cls-6" d="M183.36,68.63l-16.5,12a4.07,4.07,0,0,1-4.77,0l-8.17-5.93h0l-8.33-6.05a43.09,43.09,0,0,1,14.93-4.14q1.95-.18,4-.18A43.12,43.12,0,0,1,183.36,68.63Z"/><path class="cls-7" d="M183.36,68.63l-16.5,12a4,4,0,0,1-4.76,0l-8.18-5.93h0a43.54,43.54,0,0,1,6.6-10.19q1.95-.18,4-.18A43.12,43.12,0,0,1,183.36,68.63Z"/><circle class="cls-8" cx="181" cy="85.02" r="8.87"/><path class="cls-8" d="M227,99.24a2.19,2.19,0,0,1-2.57-1.71A50.4,50.4,0,0,0,165.22,58a2.18,2.18,0,1,1-.85-4.27,54.77,54.77,0,0,1,64.33,43A2.17,2.17,0,0,1,227,99.24Z"/><path class="cls-8" d="M239.15,127.94a2.08,2.08,0,0,1-1,0,2.19,2.19,0,0,1-1.54-2.68A63,63,0,0,0,192.28,48a2.18,2.18,0,0,1,1.14-4.21,67.42,67.42,0,0,1,47.41,82.59A2.15,2.15,0,0,1,239.15,127.94Z"/><path class="cls-9" d="M394.19,355.64l9.81,17a14.62,14.62,0,0,1-5.35,20l-53.36,30.81a14.63,14.63,0,0,1-20-5.35l-9.81-17Z"/><path class="cls-7" d="M375.46,366.45l17.12,29.66-47.29,27.3a14.63,14.63,0,0,1-20-5.35l-9.81-17Z"/><path class="cls-10" d="M334.89,469.38l-8.81,32.91h0q-6.87,1.95-13.89,3.52-10.28,2.31-20.87,3.77l13-48.4a15.84,15.84,0,1,1,30.61,8.2Z"/><path class="cls-11" d="M334.89,469.38l-8.81,32.91h0q-6.87,1.95-13.89,3.52l14.64-54.64a15.85,15.85,0,0,1,8.07,18.21Z"/><path class="cls-12" d="M347.87,416.83l-11.74,43.84a15.85,15.85,0,0,1-30.62-8.21l11.75-43.84a15.85,15.85,0,0,1,19.41-11.21,16.35,16.35,0,0,1,3.13,1.2,15.86,15.86,0,0,1,8.07,18.22Z"/><path class="cls-13" d="M347.87,416.83l-11.74,43.84A15.85,15.85,0,0,1,320,472.4l19.77-73.79a15.86,15.86,0,0,1,8.07,18.22Z"/><path class="cls-7" d="M344.62,438.39l-35.33-9.47a7,7,0,0,1-5-8.61l1.34-5c3.62-13.51,17.65-22.08,31.16-18.46h0c13.51,3.62,21.37,18.05,17.76,31.56l-1.34,5A7,7,0,0,1,344.62,438.39Z"/><path class="cls-10" d="M455.33,416.64q-4.35,5.4-9,10.55-7.36,8.19-15.41,15.72l-19.73-5.28a15.83,15.83,0,0,1-10-22.54A15.87,15.87,0,0,1,419.41,407Z"/><path class="cls-11" d="M455.33,416.64q-4.35,5.4-9,10.55l-45.14-12.1A15.87,15.87,0,0,1,419.41,407Z"/><path class="cls-12" d="M404.87,374.71,427.57,414a15.85,15.85,0,0,1-3.09,19.67,15.47,15.47,0,0,1-2.71,2,15.86,15.86,0,0,1-21.65-5.8l-22.69-39.31a15.84,15.84,0,0,1,5.79-21.65,15.51,15.51,0,0,1,3.07-1.37,15.84,15.84,0,0,1,18.58,7.17Z"/><path class="cls-13" d="M404.87,374.71,427.57,414a15.85,15.85,0,0,1-3.09,19.67l-38.19-66.15a15.84,15.84,0,0,1,18.58,7.17Z"/><path class="cls-9" d="M417.81,378.17l2.58,4.48a7,7,0,0,1-2.57,9.61l-31.67,18.29a7,7,0,0,1-9.61-2.58L374,403.49a26,26,0,0,1,4.53-31.78,24.11,24.11,0,0,1,4.45-3.3,24.92,24.92,0,0,1,19.35-2.28A26.2,26.2,0,0,1,417.81,378.17Z"/><path class="cls-7" d="M378.49,371.71l18.73,32.44-11.07,6.4a7,7,0,0,1-9.61-2.58L374,403.49A26,26,0,0,1,378.49,371.71Z"/><path class="cls-11" d="M293.63,305.59c-4,37.1-11.6,57-24.9,64.7-23.12,12.69-45.13-11.78-64.89-32.8l6.17-5.74,12-11.13c8.08,8.68,16.58,17.63,23.93,23.22a42,42,0,0,0,5.42,3.58,5.8,5.8,0,0,0,7.78-2.24c2.86-5,7.06-16.48,9.86-42.27l13.65,1.48Z"/><path class="cls-10" d="M282.63,304.39c-1.67,32.66-7.26,50.14-18.22,56.47-18,9.78-37-9.49-54.4-29.11l12-11.13c8.08,8.68,16.58,17.63,23.93,23.22a42,42,0,0,0,5.42,3.58,5.8,5.8,0,0,0,7.78-2.24c2.86-5,7.06-16.48,9.86-42.27Z"/><path class="cls-12" d="M225.71,321.36l-10.86-18.82a5.5,5.5,0,0,0-7.53-2L204.79,302a5.51,5.51,0,0,0-2,7.53l3.88,6.72L183.48,310a3.66,3.66,0,0,0-4.47,2.58l-.5,1.87a3.66,3.66,0,0,0,2.58,4.46l-5-1.34a3.64,3.64,0,0,0-4.46,2.57l-.5,1.87a3.65,3.65,0,0,0,2.58,4.46l5.55,1.49a3.64,3.64,0,0,0-4.46,2.57l-.5,1.87a3.64,3.64,0,0,0,2.57,4.46l10.24,2.75a3.64,3.64,0,0,0-4.46,2.57l-.5,1.87a3.64,3.64,0,0,0,2.57,4.46l22.57,6a12.71,12.71,0,0,0,9.65-1.27l.37-.23a12.62,12.62,0,0,0,5.55-7.5l4.08-15.19a12,12,0,0,0-1.19-9Z"/><path class="cls-13" d="M199.21,321.79l-.38-.1-17.24-4.62a3.64,3.64,0,0,1-2.57-4.46h0l-.5,1.87a3.64,3.64,0,0,0,2.57,4.46l19.48,5.22S200.24,322.07,199.21,321.79Z"/><path class="cls-13" d="M195,339.75l-.38-.11L177.36,335a3.65,3.65,0,0,1-2.58-4.47h0l-.5,1.87a3.64,3.64,0,0,0,2.58,4.46l19.48,5.22S196,340,195,339.75Z"/><path class="cls-13" d="M194.88,330.18l-.38-.1-20.31-5.45a3.64,3.64,0,0,1-2.58-4.46h0l-.5,1.87a3.64,3.64,0,0,0,2.58,4.46l22.55,6.05S195.91,330.45,194.88,330.18Z"/><path class="cls-13" d="M202.77,309.52l3.88,6.73,4,1.08L205.31,308a5.49,5.49,0,0,1,2-7.5L204.79,302A5.5,5.5,0,0,0,202.77,309.52Z"/><path class="cls-13" d="M222.82,345.61a12.61,12.61,0,0,1-5.34,7.35l-.09.06-.12.08h0a12.69,12.69,0,0,1-10,1.5l-22.55-6.05a3.64,3.64,0,0,1-2.58-4.46l.5-1.87h0a3.65,3.65,0,0,0,2.58,4.47l20.31,5.44.1,0c3.7,1.07,8.68-.58,11.22-3.65a7.68,7.68,0,0,1,5.52-2.88Z"/><path class="cls-11" d="M394.19,355.64l-42.77-74.07a33.8,33.8,0,0,0-46.18-12.38L285.11,280.8A33.82,33.82,0,0,0,272.74,327l42.77,74.07Z"/><path class="cls-10" d="M315.51,401.06,272.74,327a33.82,33.82,0,0,1,12.37-46.19l1.39-.8a33.82,33.82,0,0,1,46.19,12.38l42.77,74.07Z"/><path class="cls-14" d="M341.85,313.4l-2.41,5.53a6.37,6.37,0,0,1-6.54,3.78l-6-.68a6.37,6.37,0,0,1-4.79-3.14l-7.53-13a4.16,4.16,0,0,1,1.52-5.67l12.22-7.06a4.17,4.17,0,0,1,5.68,1.52l7.52,13A6.38,6.38,0,0,1,341.85,313.4Z"/><path class="cls-11" d="M329,279.15a10.92,10.92,0,0,1,2-15.56c24.24-18.16,41.18-24.77,54.45-21.21,25.33,7.37,23.59,40.23,22.7,69.07l-8.43-.31-16.34-.59c.43-11.85.75-24.19-.5-33.34a42.23,42.23,0,0,0-1.3-6.37,5.91,5.91,0,0,0-7.09-3.91c-5.06,1.38-14.63,5.73-31.41,18.63a7.07,7.07,0,0,1-9.82-1.16L329,279.15Z"/><path class="cls-10" d="M333.19,284.4a7.08,7.08,0,0,1,.9-9.79c21.48-18.53,36.33-25.55,47.68-22.51,19.62,5.8,19.42,32.83,17.88,59l-16.34-.59c.43-11.85.75-24.19-.5-33.34a42.23,42.23,0,0,0-1.3-6.37,5.83,5.83,0,0,0-7.09-3.91c-5.06,1.38-14.63,5.73-31.41,18.63a7.07,7.07,0,0,1-9.82-1.16Z"/><path class="cls-12" d="M381.2,307.4l-5.62,21a5.5,5.5,0,0,0,3.9,6.75l2.82.76a5.52,5.52,0,0,0,6.75-3.9l2-7.5,12,20.78a3.65,3.65,0,0,0,5,1.33l1.67-1a3.64,3.64,0,0,0,1.33-5l2.6,4.49a3.66,3.66,0,0,0,5,1.34l1.67-1a3.66,3.66,0,0,0,1.34-5l-2.88-5a3.65,3.65,0,0,0,5,1.33l1.67-1a3.65,3.65,0,0,0,1.34-5l-5.3-9.18a3.64,3.64,0,0,0,5,1.33l1.68-1a3.64,3.64,0,0,0,1.33-5l-11.68-20.23A12.64,12.64,0,0,0,410,291l-.43-.1a12.6,12.6,0,0,0-9.22,1.37l-13.63,7.87a11.93,11.93,0,0,0-5.55,7.24Z"/><path class="cls-13" d="M400.25,325.83l.2.34,8.92,15.45a3.65,3.65,0,0,1-1.33,5h0l1.67-1a3.66,3.66,0,0,0,1.34-5L401,323.19S399.72,324.9,400.25,325.83Z"/><path class="cls-13" d="M415.94,316.13l.2.34,8.92,15.45a3.65,3.65,0,0,1-1.33,5h0l1.67-1a3.63,3.63,0,0,0,1.33-5l-10.08-17.47S415.41,315.21,415.94,316.13Z"/><path class="cls-13" d="M409.24,323l.2.34L420,341.51a3.65,3.65,0,0,1-1.33,5h0l1.67-1a3.64,3.64,0,0,0,1.34-5L410,320.32S408.71,322,409.24,323Z"/><path class="cls-13" d="M389.05,332l2-7.51L389,320.87l-2.78,10.38a5.48,5.48,0,0,1-6.72,3.88l2.82.76A5.51,5.51,0,0,0,389.05,332Z"/><path class="cls-13" d="M400.39,292.29a12.59,12.59,0,0,1,9-1.42l.11,0,.14,0h0a12.67,12.67,0,0,1,8.14,6l11.68,20.22a3.64,3.64,0,0,1-1.33,5l-1.68,1h0a3.65,3.65,0,0,0,1.34-5l-10.52-18.21,0-.09a11.64,11.64,0,0,0-10.52-5.36,7.71,7.71,0,0,1-5.94-1.86Z"/><path class="cls-12" d="M275.08,270.21l8.15,14.12a15,15,0,1,0,26-15l-8.15-14.12Z"/><path class="cls-13" d="M301.08,255.2l8.15,14.12a15,15,0,0,1,.07,14.89l-8.72-15.09a43.84,43.84,0,0,1-13,11.42,46.86,46.86,0,0,1-5.07,2.52l-7.42-12.85Z"/><path class="cls-13" d="M298.28,176.39h7.44a0,0,0,0,1,0,0v23.29a0,0,0,0,1,0,0h-7.44A11.65,11.65,0,0,1,286.64,188v0A11.65,11.65,0,0,1,298.28,176.39Z" transform="translate(646.7 202.78) rotate(150)"/><path class="cls-15" d="M292.06,184.6h7.82a0,0,0,0,1,0,0v10a0,0,0,0,1,0,0h-7.82a5,5,0,0,1-5-5v0a5,5,0,0,1,5-5Z" transform="translate(642.42 207.07) rotate(150)"/><path class="cls-13" d="M209.16,229.05h3.26a0,0,0,0,1,0,0v23.29a0,0,0,0,1,0,0h-3.26a11.65,11.65,0,0,1-11.65-11.65v0a11.65,11.65,0,0,1,11.65-11.65Z" transform="translate(-92.89 134.73) rotate(-30)"/><path class="cls-15" d="M208.36,234.13H212a0,0,0,0,1,0,0v10a0,0,0,0,1,0,0h-3.64a5,5,0,0,1-5-5v0a5,5,0,0,1,5-5Z" transform="translate(-91.74 135.88) rotate(-30)"/><path class="cls-16" d="M213,222.6l3.75,6.5a17.23,17.23,0,0,1-23.54-6.31l-17.51-30.32,14.93-8.62Z"/><path class="cls-13" d="M192.63,204.43l30.68,53.14a44.17,44.17,0,0,0,76.5-44.17l-30.68-53.13a24.2,24.2,0,0,0-33.06-8.86l-34.58,20a24.19,24.19,0,0,0-8.86,33.05Z"/><path class="cls-12" d="M192.63,204.43l30.68,53.14a44.15,44.15,0,0,0,51.2,20.14,44.15,44.15,0,0,0,8.15-54.41L270.93,203a62.1,62.1,0,0,0-74.81-27.38A24.2,24.2,0,0,0,192.63,204.43Z"/><rect class="cls-13" x="236.45" y="220.66" width="22.4" height="13.39" rx="6.7" transform="translate(-80.5 154.28) rotate(-30)"/><rect class="cls-13" x="225.59" y="159.57" width="11.3" height="69.4" transform="translate(-66.15 141.65) rotate(-30)"/><rect class="cls-17" x="243.34" y="183.77" width="12.24" height="22.92" rx="6.12" transform="translate(563.11 239.57) rotate(150)"/><rect class="cls-17" x="212.8" y="201.4" width="12.24" height="22.92" rx="6.12" transform="translate(514.93 287.75) rotate(150)"/><path class="cls-16" d="M293.74,202.89l6.45-3.72a11.92,11.92,0,0,0,2.91-2.39l1.55,2.69a11.17,11.17,0,0,1-4.09,15.27Z"/><path class="cls-16" d="M282.08,182.7l6.45-3.73a11.48,11.48,0,0,1,3.36-1.24l.16-.08-15.24-26.4a25.6,25.6,0,0,0-35-9.37L216.1,156.74l3.2,5.54a15.1,15.1,0,0,0,20.64,5.53h0a9.25,9.25,0,0,1,12.64,3.39l2.72,4.7A19.28,19.28,0,0,0,281.63,183l.46-.24Z"/><path class="cls-18" d="M175.17,193.53h0a5.89,5.89,0,0,1-2.16,8h0a5.84,5.84,0,0,1-4,.69l-9.09-1.68a3.86,3.86,0,0,0-4,5.72l4.15,7.19a21,21,0,0,0,28.73,7.7h0a18.18,18.18,0,0,0,8.48-11.06L200,199.94a28.54,28.54,0,0,1,13.3-17.34l27.77-16a11,11,0,0,0,4-15h0a11,11,0,0,0-15-4l-50.34,29.07A12.4,12.4,0,0,0,175.17,193.53Z"/><rect class="cls-17" x="253.08" y="240.25" width="14.57" height="18.27" rx="7.28" transform="translate(-89.81 163.59) rotate(-30)"/></svg>