<svg id="_50" data-name="50" xmlns="http://www.w3.org/2000/svg" viewBox="0 0 512 512"><defs><style>.cls-1{fill:#f39e22;}.cls-2{fill:#f9c744;}.cls-3{fill:#f4e6f4;}.cls-4{fill:#fff;}.cls-5{fill:#528f66;}.cls-6{fill:#53b976;}</style></defs><title>50-soccer-icons</title><circle class="cls-1" cx="256" cy="256" r="256"/><circle class="cls-2" cx="256" cy="256" r="201.07"/><path class="cls-3" d="M396.15,92.36V419.64a22.21,22.21,0,0,1-22.21,22.21H138.06a22.21,22.21,0,0,1-22.21-22.21V92.36a22.21,22.21,0,0,1,22.21-22.21H373.94A22.21,22.21,0,0,1,396.15,92.36Z"/><path class="cls-4" d="M396.15,92.36V419.64a22.21,22.21,0,0,1-22.21,22.21H256V70.15H373.94A22.21,22.21,0,0,1,396.15,92.36Z"/><path class="cls-5" d="M375.42,113.09V398.91a22.22,22.22,0,0,1-22.22,22.21H158.8a22.22,22.22,0,0,1-22.22-22.21V113.09A22.22,22.22,0,0,1,158.8,90.88H353.2A22.22,22.22,0,0,1,375.42,113.09Z"/><path class="cls-6" d="M375.42,113.09V398.91a22.22,22.22,0,0,1-22.22,22.21H256V90.88h97.2A22.22,22.22,0,0,1,375.42,113.09Z"/><path class="cls-3" d="M339.84,109H172.16a17.46,17.46,0,0,0-17.44,17.43V385.53A17.46,17.46,0,0,0,172.17,403H339.84a17.46,17.46,0,0,0,17.44-17.43V126.46A17.46,17.46,0,0,0,339.84,109Zm-119.36,5.18h71V143.4A3.57,3.57,0,0,1,288,147h-63.9a3.57,3.57,0,0,1-3.57-3.57Zm-60.57,12.25a12.26,12.26,0,0,1,12.25-12.25h14a29,29,0,0,1-26.24,26.24Zm12.26,271.33a12.27,12.27,0,0,1-12.26-12.26v-14a29,29,0,0,1,26.24,26.24Zm119.35,0h-71V368.6a3.57,3.57,0,0,1,3.57-3.57H288a3.57,3.57,0,0,1,3.57,3.57Zm60.57-12.25a12.26,12.26,0,0,1-12.25,12.25h-14a29,29,0,0,1,26.24-26.24Zm0-19.19a34.18,34.18,0,0,0-31.44,31.44H296.71V368.6a8.77,8.77,0,0,0-8.76-8.76h-63.9a8.77,8.77,0,0,0-8.76,8.76v29.19H191.35a34.18,34.18,0,0,0-31.44-31.44V258.59h62.73a33.46,33.46,0,0,0,66.72,0h62.73ZM265.31,253.41a9.66,9.66,0,0,0-18.62,0H227.83a28.29,28.29,0,0,1,56.34,0Zm-18.62,5.18a9.66,9.66,0,0,0,18.62,0h18.86a28.29,28.29,0,0,1-56.34,0Zm105.4-5.18H289.36a33.46,33.46,0,0,0-66.72,0H159.91V145.65a34.18,34.18,0,0,0,31.44-31.44h23.94V143.4a8.77,8.77,0,0,0,8.76,8.76H288a8.77,8.77,0,0,0,8.76-8.76V114.21h23.94a34.18,34.18,0,0,0,31.44,31.44Zm0-113a29,29,0,0,1-26.24-26.24h14a12.26,12.26,0,0,1,12.25,12.25Z"/><path class="cls-4" d="M339.84,109H256v5.18h35.52V143.4a3.57,3.57,0,0,1-3.58,3.57H256v5.18h31.94a8.77,8.77,0,0,0,8.76-8.75V114.21h23.95a34.17,34.17,0,0,0,31.44,31.44V253.41H289.36A33.52,33.52,0,0,0,256,222.52v5.19a28.34,28.34,0,0,1,28.17,25.7H265.31a9.67,9.67,0,0,0-9.31-7.08v19.34a9.67,9.67,0,0,0,9.31-7.08h18.86A28.34,28.34,0,0,1,256,284.29v5.19a33.52,33.52,0,0,0,33.36-30.89h62.73V366.35a34.17,34.17,0,0,0-31.44,31.44H296.7V368.6a8.77,8.77,0,0,0-8.76-8.75H256V365h31.94a3.57,3.57,0,0,1,3.58,3.57v29.19H256V403h83.84a17.45,17.45,0,0,0,17.44-17.43V126.46A17.45,17.45,0,0,0,339.84,109Zm12.25,276.51a12.26,12.26,0,0,1-12.25,12.25h-14a29,29,0,0,1,26.25-26.24Zm0-245.09a29,29,0,0,1-26.25-26.24h14a12.26,12.26,0,0,1,12.25,12.25Z"/></svg>