<svg id="_50" data-name="50" xmlns="http://www.w3.org/2000/svg" viewBox="0 0 512 512"><defs><style>.cls-1{fill:#e9465e;}.cls-2{fill:#fff;}.cls-3{fill:#f4829b;}.cls-4{fill:#c2aacf;}.cls-5{fill:#decee5;}.cls-6{fill:#a583bb;}.cls-7{fill:#f4e6f4;}.cls-8{fill:#ebd9ea;}.cls-9{fill:#3f5d77;}.cls-10{fill:#3e4e60;}</style></defs><title>50-soccer-icons</title><circle class="cls-1" cx="256" cy="256" r="256"/><path class="cls-2" d="M391.24,181.64a2.5,2.5,0,0,1-2.5-2.5V93.06a2.5,2.5,0,0,1,5,0v86.08A2.5,2.5,0,0,1,391.24,181.64Z"/><path class="cls-3" d="M398.74,95.27v32.78a4.72,4.72,0,0,0,6.32,4.43l45.13-16.39a4.71,4.71,0,0,0,0-8.86L405.06,90.84A4.72,4.72,0,0,0,398.74,95.27Z"/><path class="cls-2" d="M256,169.64a2.5,2.5,0,0,1-2.5-2.5V81.06a2.5,2.5,0,0,1,5,0v86.08A2.5,2.5,0,0,1,256,169.64Z"/><path class="cls-3" d="M263.5,83.27v32.78a4.72,4.72,0,0,0,6.32,4.43L315,104.09a4.71,4.71,0,0,0,0-8.86L269.82,78.84A4.72,4.72,0,0,0,263.5,83.27Z"/><path class="cls-2" d="M120.76,181.64a2.5,2.5,0,0,1-2.5-2.5V93.06a2.5,2.5,0,0,1,5,0v86.08A2.5,2.5,0,0,1,120.76,181.64Z"/><path class="cls-3" d="M128.26,95.27v32.78a4.72,4.72,0,0,0,6.32,4.43l45.13-16.39a4.71,4.71,0,0,0,0-8.86L134.58,90.84A4.72,4.72,0,0,0,128.26,95.27Z"/><path class="cls-4" d="M429.24,210.5l-25.32,172c-3.38,23-25.67,40.13-52.06,40.13H160.14c-26.39,0-48.68-17.18-52.06-40.13l-25.32-172Z"/><path class="cls-5" d="M429.24,210.5l-25.32,172c-3.38,23-25.67,40.13-52.06,40.13H256V210.5Z"/><path class="cls-6" d="M429.24,210.5l-8.09,54.95c0,6.6-12.09,12.68-32.52,17.6C358.53,290.3,310.33,295,256,295s-102.53-4.69-132.63-11.94c-20.43-4.92-32.52-11-32.52-17.6L82.76,210.5Z"/><path class="cls-4" d="M429.24,210.5l-8.09,54.95c0,6.6-12.09,12.68-32.52,17.6C358.53,290.3,310.33,295,256,295V210.5Z"/><path class="cls-6" d="M415.51,303.74l-2.29,15.55c0,6.28-11.51,12.07-31,16.75-28.65,6.9-74.54,11.37-126.26,11.37S158.39,342.94,129.74,336c-19.45-4.68-31-10.47-31-16.75l-2.29-15.55c1.61,5.83,13,11.19,31.24,15.58,29.11,7,75.73,11.55,128.27,11.55s99.16-4.54,128.27-11.55C402.53,314.93,413.9,309.57,415.51,303.74Z"/><path class="cls-4" d="M415.51,303.74l-2.29,15.55c0,6.28-11.51,12.07-31,16.75-28.65,6.9-74.54,11.37-126.26,11.37V330.87c52.54,0,99.16-4.54,128.27-11.55C402.53,314.93,413.9,309.57,415.51,303.74Z"/><path class="cls-6" d="M96.28,302.3l.21,1.44A5.12,5.12,0,0,1,96.28,302.3Z"/><path class="cls-6" d="M415.72,302.3a5.12,5.12,0,0,1-.21,1.44Z"/><path class="cls-7" d="M429.24,210.5c0,6.92-12.68,13.3-34.12,18.46C363.56,236.56,313,241.48,256,241.48S148.44,236.56,116.88,229c-21.44-5.16-34.12-11.54-34.12-18.46,0-17.11,77.56-31,173.24-31S429.24,193.39,429.24,210.5Z"/><path class="cls-2" d="M429.24,210.5c0,6.92-12.68,13.3-34.12,18.46C363.56,236.56,313,241.48,256,241.48v-62C351.68,179.52,429.24,193.39,429.24,210.5Z"/><ellipse class="cls-5" cx="256" cy="228.96" rx="139.12" ry="12.52"/><path class="cls-8" d="M395.12,229C363.56,236.56,313,241.48,256,241.48v-25C313,216.44,363.56,221.36,395.12,229Z"/><path class="cls-5" d="M415.72,302.3a5.12,5.12,0,0,1-.21,1.44Z"/><path class="cls-6" d="M297.19,390.72V427a14.11,14.11,0,0,1-14.11,14.11H228.92A14.11,14.11,0,0,1,214.81,427V390.72A27.22,27.22,0,0,1,242,363.5H270A27.22,27.22,0,0,1,297.19,390.72Z"/><path class="cls-4" d="M297.19,390.72V427a14.11,14.11,0,0,1-14.11,14.11H256V363.5h14A27.22,27.22,0,0,1,297.19,390.72Z"/><path class="cls-9" d="M285.37,394.05v25.87A10.06,10.06,0,0,1,275.31,430H236.69a10.06,10.06,0,0,1-10.06-10.06V394.05A19.41,19.41,0,0,1,246,374.64H266A19.41,19.41,0,0,1,285.37,394.05Z"/><path class="cls-10" d="M285.37,394.05v25.87A10.06,10.06,0,0,1,275.31,430H256V374.64h10A19.41,19.41,0,0,1,285.37,394.05Z"/><path class="cls-4" d="M307,450.73a9.62,9.62,0,0,1-9.62,9.62H214.59a9.62,9.62,0,1,1,0-19.23h82.82a9.61,9.61,0,0,1,9.62,9.61Z"/><path class="cls-5" d="M307,450.73a9.62,9.62,0,0,1-9.62,9.62H256V441.12h41.41a9.61,9.61,0,0,1,9.62,9.61Z"/></svg>