<svg id="_50" data-name="50" xmlns="http://www.w3.org/2000/svg" viewBox="0 0 512 512"><defs><style>.cls-1{fill:#6c7ed5;}.cls-2{fill:#f9c744;}.cls-3{fill:#fbcb74;}.cls-4{fill:#f5b890;}.cls-5{fill:#d48d77;}.cls-6{fill:#fad98f;}.cls-7{fill:#334353;}.cls-8{fill:#7063ce;}.cls-9{fill:#6052a3;}.cls-10{fill:#c17e62;}.cls-11{fill:#eea47d;}.cls-12{fill:#3e4e60;}.cls-13{fill:#3f5d77;}.cls-14{fill:#ebd9ea;}.cls-15{fill:#fff;}.cls-16{fill:#c2aacf;}.cls-17{fill:#dd5e26;}.cls-18{fill:#daab42;}.cls-19{fill:#ea792e;}</style></defs><title>50-soccer-icons</title><circle class="cls-1" cx="256" cy="256" r="256"/><path class="cls-2" d="M352.53,312.35c-6.26,40.45-3.9,63.7,8,75.61,20.89,20,51.15.34,78-16.32l-4.91-7.83-9.53-15.2c-11,6.9-22.57,14-31.94,17.81a46.11,46.11,0,0,1-6.76,2.25,6.35,6.35,0,0,1-7.6-4.57c-1.61-6.13-2.81-19.47,1.55-47.58l-14.88-2.31Z"/><path class="cls-3" d="M364.52,314.21c-7.5,35.08-6.54,55.17,3.27,65,16.27,15.47,41.83.45,65.89-15.38l-9.53-15.2c-11,6.9-22.57,14-31.94,17.81a46.11,46.11,0,0,1-6.76,2.25,6.35,6.35,0,0,1-7.6-4.57c-1.61-6.13-2.81-19.47,1.55-47.58Z"/><path class="cls-4" d="M420,348.33a13.07,13.07,0,0,0-3.82,9.24v17.26a13.83,13.83,0,0,0,3.75,9.51c.1.12.22.24.33.35a13.92,13.92,0,0,0,9.87,4.09h25.61a4,4,0,0,0,4-4v-2.12a4,4,0,0,0-4-4h11.63a4,4,0,0,0,4-4v-2.12a4,4,0,0,0-4-4h6.3a4,4,0,0,0,4-4v-2.12a4,4,0,0,0-4-4H468a4,4,0,0,0,4-4v-2.12a4,4,0,0,0-4-4H441.64l6-6a6,6,0,0,0,0-8.55l-2.26-2.27a6,6,0,0,0-8.55,0L420,348.34Z"/><path class="cls-5" d="M448,356.32h20a4,4,0,0,0,4-4h0v2.12a4,4,0,0,1-4,4H445.83S446.78,356.32,448,356.32Z"/><path class="cls-5" d="M447.35,376.54h20a4,4,0,0,0,4-4h0v2.12a4,4,0,0,1-4,4H445.23S446.18,376.54,447.35,376.54Z"/><path class="cls-5" d="M450.16,366.43h23.49a4,4,0,0,0,4-4h0v2.12a4,4,0,0,1-4,4H448S449,366.43,450.16,366.43Z"/><path class="cls-5" d="M447.67,342.31l-6,6h-4.57L445.4,340a6,6,0,0,0,0-8.52l2.27,2.27A6,6,0,0,1,447.67,342.31Z"/><path class="cls-5" d="M416.18,374.85a13.85,13.85,0,0,0,3.57,9.31l.08.08.1.12h0a13.9,13.9,0,0,0,10.19,4.43h25.61a4,4,0,0,0,4-4v-2.12h0a4,4,0,0,1-4,4H432.57c-4.23.09-9-3.07-10.86-7a8.39,8.39,0,0,0-5-4.62Z"/><path class="cls-2" d="M388.53,466.27V331.43a37.07,37.07,0,0,0-37.08-37.08H326a37.07,37.07,0,0,0-37.08,37.08V466.27Z"/><path class="cls-6" d="M312.61,331.43a37.08,37.08,0,0,1,37.09-37.08h1.75a37.07,37.07,0,0,1,37.08,37.08V466.27H312.88Z"/><path class="cls-7" d="M307.87,386.76h0a4.76,4.76,0,0,1,4.76,4.76v40.91a0,0,0,0,1,0,0h-9.52a0,0,0,0,1,0,0V391.52A4.76,4.76,0,0,1,307.87,386.76Z"/><path class="cls-7" d="M369.55,386.76h0a4.76,4.76,0,0,1,4.76,4.76v40.91a0,0,0,0,1,0,0h-9.52a0,0,0,0,1,0,0V391.52A4.76,4.76,0,0,1,369.55,386.76Z"/><path class="cls-7" d="M325.43,316.46l8.67,8.67a6.42,6.42,0,0,0,9.08,0l8.68-8.68a11.31,11.31,0,0,1,8-3.31h4.69a3.83,3.83,0,0,0,2.71-6.53l-12.08-12.08H322.25L310.2,306.58a3.82,3.82,0,0,0,2.67,6.53l4.68,0A11.31,11.31,0,0,1,325.43,316.46Z"/><path class="cls-8" d="M388.53,432.43v42.64a255.71,255.71,0,0,1-38,18.89v-7.61H326.85v15.72q-7,2-14.23,3.64-11.67,2.64-23.73,4.19V432.43Z"/><path class="cls-9" d="M312.62,432.43v73.28q-11.67,2.64-23.73,4.19V432.43Z"/><path class="cls-2" d="M167.86,282.2c19.17,19.17,46.32,39.55,62,44.29,19.08,5.77,60.36,10.28,68.6,8.69A13.81,13.81,0,0,0,309.39,319a14.15,14.15,0,0,0-.75-2.57,13.81,13.81,0,0,0-15.43-8.37c-17.24,3.32-46.17-5.23-55.36-8-9.85-3-33.59-20.52-50.45-37.38a13.83,13.83,0,0,0-22.58,4.57h0A13.85,13.85,0,0,0,167.86,282.2Z"/><path class="cls-3" d="M167.86,271.83c19.17,19.18,46.32,39.56,62,44.3,19.08,5.77,60.36,10.28,68.61,8.69a13.84,13.84,0,0,0,10.18-8.39,13.81,13.81,0,0,0-15.43-8.37c-17.24,3.32-46.17-5.23-55.36-8-9.85-3-33.59-20.52-50.45-37.38a13.83,13.83,0,0,0-22.58,4.57h0A13.75,13.75,0,0,0,167.86,271.83Z"/><path class="cls-4" d="M189.6,257.71V233.5a6.15,6.15,0,0,0-6.15-6.15h-3.26a6.14,6.14,0,0,0-6.14,6.15v8.65l-18.91-18.91a4.08,4.08,0,0,0-5.75,0l-1.52,1.52a4.08,4.08,0,0,0,0,5.75l-4.1-4.1a4.07,4.07,0,0,0-5.74,0l-1.52,1.53a4,4,0,0,0,0,5.74l4.53,4.53a4.08,4.08,0,0,0-5.75,0l-1.52,1.52a4.08,4.08,0,0,0,0,5.75l8.35,8.35a4.07,4.07,0,0,0-5.74,0l-1.52,1.53a4,4,0,0,0,0,5.74l18.41,18.41a14.13,14.13,0,0,0,10,4.15h.48a14.1,14.1,0,0,0,9.54-4.15l12.4-12.4a13.27,13.27,0,0,0,3.89-9.39Z"/><path class="cls-5" d="M163.76,243.36l-.3-.31L149.39,229a4.08,4.08,0,0,1,0-5.75h0l-1.52,1.53a4,4,0,0,0,0,5.74l15.89,15.9S164.61,244.2,163.76,243.36Z"/><path class="cls-5" d="M149.67,258.33l-.31-.31L135.3,244a4.06,4.06,0,0,1,0-5.75h0l-1.53,1.53a4.07,4.07,0,0,0,0,5.74l15.9,15.9S150.51,259.17,149.67,258.33Z"/><path class="cls-5" d="M154.91,249l-.3-.31L138,232.16a4.06,4.06,0,0,1,0-5.75h0l-1.52,1.53a4,4,0,0,0,0,5.74l18.4,18.41S155.76,249.88,154.91,249Z"/><path class="cls-5" d="M174.05,233.49v8.67l3.28,3.28v-12a6.12,6.12,0,0,1,6.12-6.12h-3.26A6.14,6.14,0,0,0,174.05,233.49Z"/><path class="cls-5" d="M173.29,279.51a14,14,0,0,1-9.26,4.12h-.12l-.15,0v0a14.12,14.12,0,0,1-10.51-4.13L134.83,261.1a4.07,4.07,0,0,1,0-5.74l1.53-1.53h0a4.06,4.06,0,0,0,0,5.75l16.57,16.57.08.08c3,3.1,8.7,4.29,12.87,2.74a8.58,8.58,0,0,1,6.93.29Z"/><path class="cls-4" d="M355.17,278.78v17.88a16.46,16.46,0,1,1-32.92,0V278.78Z"/><path class="cls-5" d="M322.25,278.78v17.88a16.44,16.44,0,0,0,8.1,14.18V291.73a48.8,48.8,0,0,0,24.82,3.32V278.78Z"/><path class="cls-5" d="M292.37,199.53h8.16a0,0,0,0,1,0,0v25.55a0,0,0,0,1,0,0h-8.16a12.77,12.77,0,0,1-12.77-12.77v0A12.77,12.77,0,0,1,292.37,199.53Z"/><path class="cls-10" d="M292,206.82h8.58a0,0,0,0,1,0,0v11a0,0,0,0,1,0,0H292a5.48,5.48,0,0,1-5.48-5.48v0A5.48,5.48,0,0,1,292,206.82Z"/><path class="cls-5" d="M410.18,199.53h3.58a0,0,0,0,1,0,0v25.55a0,0,0,0,1,0,0h-3.58a12.77,12.77,0,0,1-12.77-12.77v0a12.77,12.77,0,0,1,12.77-12.77Z" transform="translate(811.16 424.61) rotate(180)"/><path class="cls-10" d="M402.89,206.82h4a0,0,0,0,1,0,0v11a0,0,0,0,1,0,0h-4a5.48,5.48,0,0,1-5.48-5.48v0a5.48,5.48,0,0,1,5.48-5.48Z" transform="translate(804.28 424.61) rotate(-180)"/><path class="cls-5" d="M397.41,171.1v67.29a48.46,48.46,0,0,1-37.58,47.21A49.25,49.25,0,0,1,349,286.81a48.43,48.43,0,0,1-48.44-48.42V171.1a26.55,26.55,0,0,1,26.55-26.54h43.79a26,26,0,0,1,7.41,1.06A26.53,26.53,0,0,1,397.41,171.1Z"/><path class="cls-4" d="M397.41,171.1v67.29a48.46,48.46,0,0,1-37.58,47.21,48.44,48.44,0,0,1-37.58-47.21V212.64a68.09,68.09,0,0,1,56-67A26.53,26.53,0,0,1,397.41,171.1Z"/><rect class="cls-11" x="345.45" y="215.69" width="24.56" height="14.69" rx="7.34"/><rect class="cls-7" x="340.47" y="244.77" width="19.06" height="11.4" rx="5.7" transform="translate(600.46 -99.53) rotate(90)"/><rect class="cls-11" x="348.97" y="144.56" width="12.39" height="76.11"/><rect class="cls-7" x="329.11" y="186.96" width="13.42" height="25.13" rx="6.71"/><rect class="cls-7" x="367.79" y="186.96" width="13.42" height="25.13" rx="6.71"/><path class="cls-12" d="M300.54,225.08h-8.17a12.56,12.56,0,0,1-4.08-.68v3.41a12.27,12.27,0,0,0,12.27,12.26Z"/><path class="cls-12" d="M300.54,199.5h-8.17a12.72,12.72,0,0,0-3.87.66l-.21,0V166.75a28.09,28.09,0,0,1,28.09-28.08H349v7a16.57,16.57,0,0,1-16.57,16.57h0a10.14,10.14,0,0,0-10.15,10.15v6a21.14,21.14,0,0,1-21.14,21.13l-.57,0Z"/><path class="cls-13" d="M403.08,152h0a6.31,6.31,0,0,0,6.31,6.31h0a6.36,6.36,0,0,0,4.1-1.51l7.54-6.44a4.14,4.14,0,0,1,6.82,3.15v8.9A22.56,22.56,0,0,1,405.29,185h0a19.53,19.53,0,0,1-13.81-5.71l-8-8a30.67,30.67,0,0,0-21.66-9H327.41a11.79,11.79,0,0,1-11.79-11.79h0a11.79,11.79,0,0,1,11.79-11.8h62.36A13.31,13.31,0,0,1,403.08,152Z"/><path class="cls-14" d="M79.12,134.79,184.81,240.47a6.54,6.54,0,0,1-9.25,9.25L69.87,144a6.54,6.54,0,1,1,9.25-9.24Z"/><path class="cls-15" d="M79.12,134.79,184.81,240.47a6.55,6.55,0,0,1,0,9.25L69.87,134.79a6.53,6.53,0,0,1,9.25,0Z"/><path class="cls-16" d="M80.3,124.36a6.54,6.54,0,0,1,0,9.24L68.69,145.21A6.53,6.53,0,1,1,59.45,136l11.61-11.61A6.54,6.54,0,0,1,80.3,124.36Z"/><path class="cls-14" d="M80.3,124.36a6.54,6.54,0,0,1,0,9.24l-5.81,5.81-9.24-9.25,5.81-5.8A6.54,6.54,0,0,1,80.3,124.36Z"/><path class="cls-17" d="M163.47,69.78l54.72,54.72c-7.86,7.86-25.85,24.86-29.1,27-2.56,1.7-6.81.62-10-2.52L129.27,99.12A300.72,300.72,0,0,0,163.47,69.78Z"/><path class="cls-18" d="M163.47,69.78l29.38,29.38C185,107,167,124,163.75,126.17c-2.56,1.7-6.81.62-9.95-2.52L129.27,99.12A300.72,300.72,0,0,0,163.47,69.78Z"/><path class="cls-19" d="M129.38,99.19,179.2,149s-4.37,2.82-16.19,13.28c-9.11,8.08-9.78,7.82-29.18,27.21L79.12,134.79c19.39-19.4,20.06-19.14,29.18-27.21,3.17-2.82,5.82-5.08,8-6.88C120.84,96.89,126.44,96.25,129.38,99.19Z"/><path class="cls-2" d="M154.52,124.33,179.2,149s-4.37,2.82-16.19,13.28c-9.11,8.08-9.78,7.82-29.18,27.21l-29.57-29.57c19.39-19.39,20.06-19.14,29.18-27.21,3.18-2.82,5.82-5.08,8-6.88C146,122,151.59,121.4,154.52,124.33Z"/></svg>