<svg id="_50" data-name="50" xmlns="http://www.w3.org/2000/svg" viewBox="0 0 512 512"><defs><style>.cls-1{fill:#7ed0fc;}.cls-2{fill:#53b976;}.cls-3{fill:#c3ead0;}.cls-4{fill:#f4e6f4;}.cls-5{fill:#a583bb;}.cls-6{fill:#c2aacf;}.cls-7{fill:#decee5;}.cls-8{fill:#3f5d77;}.cls-9{fill:#3f6c8e;}.cls-10{fill:#ea792e;}.cls-11{fill:#dd5e26;}.cls-12{fill:#f5b890;}.cls-13{fill:#d48d77;}.cls-14{fill:#f4829b;}.cls-15{fill:#f9f2f9;}.cls-16{fill:#9175a7;}.cls-17{fill:#fff;}.cls-18{fill:#c1b7d3;}.cls-19{fill:#f9c744;}.cls-20{fill:#c17e62;}.cls-21{fill:#b26e2b;}.cls-22{fill:#eea47d;}.cls-23{fill:#334353;}.cls-24{fill:#dd8c29;}.cls-25{fill:#746087;}.cls-26{fill:#3e4e60;}.cls-27{fill:#7d73ff;}.cls-28{fill:#7063ce;}</style></defs><title>50-soccer-icons</title><circle class="cls-1" cx="256" cy="256" r="256"/><path class="cls-2" d="M507.89,301.92C486.25,421.39,381.7,512,256,512S25.75,421.39,4.11,301.92Z"/><path class="cls-3" d="M91.4,452.07q6.18,5.19,12.69,10H407.91q6.51-4.8,12.69-10Zm399-93.1H21.56q2.22,5.07,4.66,10H76.86l-30,34.76q3,4.18,6.1,8.25l37.06-43H421.48l37.31,43.29q3.13-4.06,6.1-8.24l-30.21-35h51.1Q488.23,364,490.44,359Z"/><path class="cls-4" d="M413.3,201.92a1.5,1.5,0,0,0,0-3h-6.55v-17h5.12a1.5,1.5,0,0,0,0-3h-5.12v-17h6.55a1.5,1.5,0,0,0,0-3h-6.55V146.34a1.5,1.5,0,0,0-3,0v12.58h-9v-.54a1.5,1.5,0,1,0-3,0v.54H378v-17H387v9.91a1.5,1.5,0,0,0,3,0v-9.91h21.83a1.5,1.5,0,0,0,0-3H390v-5.24a1.5,1.5,0,0,0-3,0v5.24H378v-5.24a1.5,1.5,0,0,0-3,0v5.24h-9.05v-5.24a1.5,1.5,0,0,0-3,0v5.24h-9.05v-5.24a1.5,1.5,0,0,0-3,0v5.24h-9v-5.24a1.5,1.5,0,0,0-3,0v5.24H329.8v-5.24a1.5,1.5,0,0,0-3,0v5.24h-9.05v-5.24a1.5,1.5,0,0,0-3,0v5.24H305.7v-5.24a1.5,1.5,0,0,0-3,0v5.24h-9.05v-5.24a1.5,1.5,0,0,0-3,0v5.24h-9v-5.24a1.5,1.5,0,0,0-3,0v5.24h-9.05v-5.24a1.5,1.5,0,0,0-3,0v5.24H257.5v-5.24a1.5,1.5,0,0,0-3,0v5.24h-9.05v-5.24a1.5,1.5,0,0,0-3,0v5.24h-9v-5.24a1.5,1.5,0,0,0-3,0v5.24h-9.05v-5.24a1.5,1.5,0,0,0-3,0v5.24h-9v-5.24a1.5,1.5,0,0,0-3,0v5.24h-9.05v-5.24a1.5,1.5,0,0,0-3,0v5.24H185.2v-5.24a1.5,1.5,0,0,0-3,0v5.24h-9v-5.24a1.5,1.5,0,0,0-3,0v5.24h-9v-5.24a1.5,1.5,0,0,0-3,0v5.24h-9.05v-5.24a1.5,1.5,0,0,0-3,0v5.24H137v-5.24a1.5,1.5,0,0,0-3,0v5.24h-9v-5.24a1.5,1.5,0,0,0-3,0v5.24H98.87a1.5,1.5,0,0,0,0,3H122v10a1.5,1.5,0,0,0,3,0v-10h9v17H120.47v-.54a1.5,1.5,0,0,0-3,0v.54h-9V146.34a1.5,1.5,0,0,0-3,0v12.58H98.87a1.5,1.5,0,1,0,0,3h6.55v17H98.87a1.5,1.5,0,1,0,0,3h6.55v17H98.87a1.5,1.5,0,1,0,0,3h6.55v17H98.87a1.5,1.5,0,1,0,0,3h6.55v17H98.87a1.5,1.5,0,1,0,0,3h6.55v17H98.87a1.5,1.5,0,0,0,0,3h6.55v17H98.87a1.5,1.5,0,0,0,0,3h6.55v17H98.87a1.5,1.5,0,0,0,0,3h6.55v17H98.87a1.5,1.5,0,0,0,0,3h6.55v12.57a1.5,1.5,0,0,0,3,0V321.92h9.16a2.15,2.15,0,1,0,2.89-2.94V301.92h9v6.25a1.5,1.5,0,0,0,3,0v-6.25h5.86a1.5,1.5,0,0,0,0-3h-5.86v-17h25.6v10.79a1.5,1.5,0,0,0,3,0V281.92h9v10.79a1.5,1.5,0,0,0,3,0V281.92h9v10.79a1.5,1.5,0,0,0,3,0V281.92h9.05v10.79a1.5,1.5,0,0,0,3,0V281.92h9.05v10.79a1.5,1.5,0,0,0,3,0V281.92h9v10.79a1.5,1.5,0,0,0,3,0V281.92h9.05v10.79a1.5,1.5,0,0,0,3,0V281.92h9v10.79a1.5,1.5,0,0,0,3,0V281.92h9.05v10.79a1.5,1.5,0,1,0,3,0V281.92h9.05v10.79a1.5,1.5,0,0,0,3,0V281.92h9.05v10.79a1.5,1.5,0,0,0,3,0V281.92h9v10.79a1.5,1.5,0,0,0,3,0V281.92h9.05v10.79a1.5,1.5,0,0,0,3,0V281.92h9.05v10.79a1.5,1.5,0,1,0,3,0V281.92h9.05v10.79a1.5,1.5,0,0,0,3,0V281.92h9.05v10.79a1.5,1.5,0,0,0,3,0V281.92h9v10.79a1.5,1.5,0,0,0,3,0V281.92h25.77v17H373.8a1.5,1.5,0,0,0,0,3h5.86v6.25a1.5,1.5,0,0,0,3,0v-6.25h9V319a2.1,2.1,0,1,0,2.88,2.94h9.16v12.57a1.5,1.5,0,0,0,3,0V321.92h6.55a1.5,1.5,0,0,0,0-3h-6.55v-17h6.55a1.5,1.5,0,0,0,0-3h-6.55v-17h6.55a1.5,1.5,0,0,0,0-3h-6.55v-17h6.55a1.5,1.5,0,0,0,0-3h-6.55v-17h6.55a1.5,1.5,0,0,0,0-3h-6.55v-17h6.55a1.5,1.5,0,0,0,0-3h-6.55v-17Zm-9.55-3h-9v-17h9Zm-21.09,60v-17h9v17Zm9,3v17h-9v-17Zm-271.24-3v-17h9v17Zm9,3v17h-9v-17Zm18.05-75.29a1.5,1.5,0,0,0,1.5-1.5v-3.21h9.05v17h-25.6v-17h13.55v3.21A1.5,1.5,0,0,0,147.56,186.63Zm216.88,0a1.5,1.5,0,0,0,1.5-1.5v-3.23h13.72v17H353.89v-17h9.05v3.23A1.5,1.5,0,0,0,364.44,186.65ZM185.2,201.92h9.05v17H185.2Zm-3,17h-9v-17h9Zm15.05-17h9.05v17h-9.05Zm12.05,0h9v17h-9Zm12,0h9.05v17h-9.05Zm12.05,0h9v17h-9Zm12,0h9.05v17h-9.05Zm12.05,0h9.05v17H257.5Zm12.05,0h9.05v17h-9.05Zm12.05,0h9v17h-9Zm12,0h9.05v17h-9.05Zm12.05,0h9.05v17H305.7Zm12.05,0h9.05v17h-9.05Zm12.05,0h9.05v17H329.8Zm12.05,0h9v17h-9Zm0-3v-17h9v17Zm-3,0H329.8v-17h9.05Zm-12.05,0h-9.05v-17h9.05Zm-12.05,0H305.7v-17h9.05Zm-12.05,0h-9.05v-17h9.05Zm-12.05,0h-9v-17h9Zm-12,0h-9.05v-17h9.05Zm-12.05,0H257.5v-17h9.05Zm-12.05,0h-9.05v-17h9.05Zm-12.05,0h-9v-17h9Zm-12,0h-9.05v-17h9.05Zm-12.05,0h-9v-17h9Zm-12,0h-9.05v-17h9.05Zm-12.05,0H185.2v-17h9.05Zm-12.05,0h-9v-17h9Zm-12,0h-9v-17h9Zm0,3v17h-9v-17Zm-12,17h-25.6v-17h25.6Zm0,3v17h-25.6v-17Zm3,0h9v17h-9Zm12,0h9v17h-9Zm12,0h9.05v17H185.2Zm12.05,0h9.05v17h-9.05Zm12.05,0h9v17h-9Zm12,0h9.05v17h-9.05Zm12.05,0h9v17h-9Zm12,0h9.05v17h-9.05Zm12.05,0h9.05v17H257.5Zm12.05,0h9.05v17h-9.05Zm12.05,0h9v17h-9Zm12,0h9.05v17h-9.05Zm12.05,0h9.05v17H305.7Zm12.05,0h9.05v17h-9.05Zm12.05,0h9.05v17H329.8Zm12.05,0h9v17h-9Zm12,0h25.77v17H353.89Zm0-3v-17h25.77v17Zm0-40v-17h9.05v17Zm-3,0h-9v-17h9Zm-12,0H329.8v-17h9.05Zm-12.05,0h-9.05v-17h9.05Zm-12.05,0H305.7v-17h9.05Zm-12.05,0h-9.05v-17h9.05Zm-12.05,0h-9v-17h9Zm-12,0h-9.05v-17h9.05Zm-12.05,0H257.5v-17h9.05Zm-12.05,0h-9.05v-17h9.05Zm-12.05,0h-9v-17h9Zm-12,0h-9.05v-17h9.05Zm-12.05,0h-9v-17h9Zm-12,0h-9.05v-17h9.05Zm-12.05,0H185.2v-17h9.05Zm-12.05,0h-9v-17h9Zm-12,0h-9v-17h9Zm-12,0h-9.05v-17h9.05Zm-28.6,20h-9v-17h9Zm0,3v17h-9v-17Zm0,20v17h-9v-17Zm3,20h25.6v17h-25.6Zm28.6,0h9v17h-9Zm12,0h9v17h-9Zm12,0h9.05v17H185.2Zm12.05,0h9.05v17h-9.05Zm12.05,0h9v17h-9Zm12,0h9.05v17h-9.05Zm12.05,0h9v17h-9Zm12,0h9.05v17h-9.05Zm12.05,0h9.05v17H257.5Zm12.05,0h9.05v17h-9.05Zm12.05,0h9v17h-9Zm12,0h9.05v17h-9.05Zm12.05,0h9.05v17H305.7Zm12.05,0h9.05v17h-9.05Zm12.05,0h9.05v17H329.8Zm12.05,0h9v17h-9Zm12,0h25.77v17H353.89Zm28.77-3v-17h9v17Zm0-20v-17h9v17Zm0-20v-17h9v17Zm21.09-37v17h-9v-17Zm-12,0v17h-9v-7.59a1.5,1.5,0,1,0-3,0v7.59H365.94v-17H375V164a1.5,1.5,0,0,0,3,0v-2.07Zm-16.72-20v17h-9.05v-17Zm-12.05,0v17h-9.05v-17Zm-12.05,0v17h-9v-17Zm-12,0v17H329.8v-17Zm-12.05,0v17h-9.05v-17Zm-12.05,0v17H305.7v-17Zm-12.05,0v17h-9.05v-17Zm-12.05,0v17h-9v-17Zm-12,0v17h-9.05v-17Zm-12.05,0v17H257.5v-17Zm-12.05,0v17h-9.05v-17Zm-12.05,0v17h-9v-17Zm-12,0v17h-9.05v-17Zm-12.05,0v17h-9v-17Zm-12,0v17h-9.05v-17Zm-12.05,0v17H185.2v-17Zm-12.05,0v17h-9v-17Zm-12,0v17h-9v-17Zm-12,0v17h-9.05v-17Zm-21.1,0h9.05v17H137Zm-3,20V164a1.5,1.5,0,1,0,3,0v-2.06h9.05v17H132.51v-7.59a1.5,1.5,0,0,0-3,0v7.59h-9v-17Zm-25.59,0h9v17h-9Zm0,20h9v17h-9Zm0,20h9v17h-9Zm0,20h9v17h-9Zm0,20h9v17h-9Zm0,20h9v17h-9Zm0,20h9v17h-9Zm9,37h-9v-17h9Zm12-20h-9v-17h9Zm3-20v-17h25.6v17Zm28.6,0v-17h9v17Zm12,0v-17h9v17Zm12,0v-17h9.05v17Zm12.05,0v-17h9.05v17Zm12.05,0v-17h9v17Zm12,0v-17h9.05v17Zm12.05,0v-17h9v17Zm12,0v-17h9.05v17Zm12.05,0v-17h9.05v17Zm12.05,0v-17h9.05v17Zm12.05,0v-17h9v17Zm12,0v-17h9.05v17Zm12.05,0v-17h9.05v17Zm12.05,0v-17h9.05v17Zm12.05,0v-17h9.05v17Zm12.05,0v-17h9v17Zm12,0v-17h25.77v17Zm28.77,20v-17h9v17Zm21.09,20h-9v-17h9Zm0-20h-9v-17h9Zm0-20h-9v-17h9Zm0-20h-9v-17h9Zm0-20h-9v-17h9Zm0-20h-9v-17h9Z"/><path class="cls-5" d="M424.71,361.81a6.53,6.53,0,0,1-.73.57,6,6,0,0,1-7.75-.95l-53.72-58.67a6,6,0,0,1-1.57-4.05v-99a55.68,55.68,0,0,1,16.42-39.64l4.72-4.72L412.51,125a6,6,0,1,1,8.49,8.48l-35.16,35.15a43.8,43.8,0,0,0-12.9,31.16v96.64l52.14,56.95A6,6,0,0,1,424.71,361.81Z"/><path class="cls-5" d="M372.94,298.71a6,6,0,0,1-6,6H145.06a6,6,0,0,1-6-6,5.88,5.88,0,0,1,.81-3,6,6,0,0,1,5.19-3H366.94a6,6,0,0,1,5.19,3A5.88,5.88,0,0,1,372.94,298.71Z"/><path class="cls-6" d="M424.71,361.81a6.53,6.53,0,0,1-.73.57L370.5,304a6.47,6.47,0,0,1-1.7-4.36V193.13a59.84,59.84,0,0,1,13.28-37.75L412.51,125a6,6,0,1,1,8.49,8.48l-35.16,35.15a43.8,43.8,0,0,0-12.9,31.16v96.64l52.14,56.95A6,6,0,0,1,424.71,361.81Z"/><path class="cls-5" d="M87.29,361.81a6.53,6.53,0,0,0,.73.57,6,6,0,0,0,7.75-.95l53.72-58.67a6,6,0,0,0,1.57-4.05v-99a55.68,55.68,0,0,0-16.42-39.64l-4.72-4.72L99.49,125A6,6,0,0,0,91,133.43l35.16,35.15a43.8,43.8,0,0,1,12.9,31.16v96.64L86.92,353.33A6,6,0,0,0,87.29,361.81Z"/><path class="cls-6" d="M87.29,361.81a6.53,6.53,0,0,0,.73.57L141.5,304a6.47,6.47,0,0,0,1.7-4.36V193.13a59.84,59.84,0,0,0-13.28-37.75L99.49,125A6,6,0,0,0,91,133.43l35.16,35.15a43.8,43.8,0,0,1,12.9,31.16v96.64L86.92,353.33A6,6,0,0,0,87.29,361.81Z"/><path class="cls-6" d="M372.13,295.71a6,6,0,0,1-5.19,3H145.06a6,6,0,0,1-5.19-3,6,6,0,0,1,5.19-3H366.94A6,6,0,0,1,372.13,295.71Z"/><path class="cls-5" d="M432.3,143V354.58a9.5,9.5,0,0,1-8.07,9.39,9.73,9.73,0,0,1-1.43.11,9.5,9.5,0,0,1-9.5-9.5V143a9.35,9.35,0,0,0-9.34-9.34H108A9.35,9.35,0,0,0,98.7,143V354.58a9.5,9.5,0,0,1-9.5,9.5,9.73,9.73,0,0,1-1.43-.11,9.5,9.5,0,0,1-8.07-9.39V143A28.37,28.37,0,0,1,108,114.68H404A28.37,28.37,0,0,1,432.3,143Z"/><path class="cls-6" d="M432.3,143V354.58a9.5,9.5,0,0,1-8.07,9.39,9.92,9.92,0,0,1-2.37-6.46V134.44a9.86,9.86,0,0,0-9.85-9.85H100a9.86,9.86,0,0,0-9.85,9.85V357.51A9.92,9.92,0,0,1,87.77,364a9.5,9.5,0,0,1-8.07-9.39V143A28.37,28.37,0,0,1,108,114.68H404A28.37,28.37,0,0,1,432.3,143Z"/><rect class="cls-7" x="218.13" y="114.68" width="175.67" height="9.91" rx="4.95"/><rect class="cls-7" x="421.86" y="159.47" width="10.44" height="152.78" rx="5.22"/><rect class="cls-7" x="79.7" y="159.47" width="10.44" height="152.78" rx="5.22"/><path class="cls-8" d="M381.89,330.24v12.31a9.17,9.17,0,0,1-9.17,9.16H334.1a9.17,9.17,0,0,1-9.16-9.16V330.24Z"/><path class="cls-9" d="M368.33,330.24v21.47H334.1a9.17,9.17,0,0,1-9.16-9.16V330.24Z"/><path class="cls-10" d="M320.36,363v37.87a9.93,9.93,0,0,1-7.84,9.71,9.69,9.69,0,0,1-2.09.22,9.94,9.94,0,0,1-9.94-9.93V363a9.94,9.94,0,0,1,9.94-9.94,9.69,9.69,0,0,1,2.09.22,9.94,9.94,0,0,1,7.84,9.72Z"/><path class="cls-11" d="M320.36,363v37.87a9.93,9.93,0,0,1-7.84,9.71v-57.3a9.94,9.94,0,0,1,7.84,9.72Z"/><path class="cls-12" d="M337.56,349l-20.12,20.12A9.93,9.93,0,0,1,305,370.39a10.2,10.2,0,0,1-1.64-1.32,10,10,0,0,1,0-14.05l20.12-20.12a9.94,9.94,0,0,1,14.06,0,10.2,10.2,0,0,1,1.32,1.64A9.93,9.93,0,0,1,337.56,349Z"/><path class="cls-13" d="M337.56,349l-20.12,20.12A9.93,9.93,0,0,1,305,370.39l33.86-33.86A9.93,9.93,0,0,1,337.56,349Z"/><path class="cls-14" d="M271.92,422.5a1.85,1.85,0,0,1-1.93-1.76l-.08-1.84,3.69-.17.08,1.84A1.84,1.84,0,0,1,271.92,422.5Z"/><path class="cls-14" d="M279.77,423a1.84,1.84,0,0,1-1.93-1.76l-.09-1.85,3.69-.16.09,1.84A1.85,1.85,0,0,1,279.77,423Z"/><path class="cls-14" d="M287.11,423.44a1.85,1.85,0,0,1-1.93-1.76l-.08-1.84,3.69-.17.08,1.85A1.84,1.84,0,0,1,287.11,423.44Z"/><path class="cls-14" d="M311.54,422.92a1.84,1.84,0,0,1-1.92-1.76l-.09-1.84,3.69-.17.09,1.84A1.85,1.85,0,0,1,311.54,422.92Z"/><path class="cls-14" d="M317.19,422.67a1.86,1.86,0,0,1-1.93-1.77l-.08-1.84,3.69-.17.08,1.85A1.85,1.85,0,0,1,317.19,422.67Z"/><path class="cls-15" d="M320.31,400.58a4.44,4.44,0,0,1,3.68,4.18l.36,8.23a5.75,5.75,0,0,1-5.49,6l-9.33.41a3.9,3.9,0,0,1-2.64-.89,4.85,4.85,0,0,0-4.95-.78,33.73,33.73,0,0,1-11.37,2.5l-20.67-1.31a5.35,5.35,0,0,1-5-5.11,7,7,0,0,1,7.85-6.22,15.93,15.93,0,0,0,7.06-.71c3.59-1.06,13.85-6.69,18.67-9.16a4.39,4.39,0,0,1,2.78-.42Z"/><path class="cls-16" d="M324.35,413a5.75,5.75,0,0,1-5.49,6l-9.33.41a3.9,3.9,0,0,1-2.64-.89,4.85,4.85,0,0,0-4.95-.78,33.73,33.73,0,0,1-11.37,2.5l-20.67-1.31a5.35,5.35,0,0,1-5-5.11,32.36,32.36,0,0,0,11.29,2.66l13.35.66q3,.15,6.09,0l15.57-.76a33.26,33.26,0,0,0,6.75-1A34.15,34.15,0,0,0,324.35,413Z"/><path class="cls-17" d="M324,404.76c-3.1,1.18-6.14,2.6-9.37,3.22a17.08,17.08,0,0,1-6.94-.11c-17.73-3.58-22.51,7.5-41.57,2.61a7.13,7.13,0,0,1,6.64-2.9,16,16,0,0,0,7.06-.71c3.93-1.17,14.85-7.28,18.69-9.15a4.49,4.49,0,0,1,2.79-.43l19,3.29A4.45,4.45,0,0,1,324,404.76Z"/><path class="cls-18" d="M297,399.76c2-2.88,2.13-6,.26-7.34s-4.8-.12-6.81,2.76a7.16,7.16,0,0,0-1.06,4.62h0a7.16,7.16,0,0,0-2.58-4c-2.88-2-6-2.13-7.34-.26s-.12,4.79,2.76,6.81c2,1.39,4.61,1.14,5.92.89a2.12,2.12,0,0,0,.2.24l4.8,4.8a2.22,2.22,0,0,0,3.12,0,2.21,2.21,0,0,0,0-3.12l-2.93-2.93A7,7,0,0,0,297,399.76Zm-11.37,1.37a4.19,4.19,0,0,1-2.11-.66c-1.89-1.32-2.57-3-2.18-3.57.84-1,4.71.36,5.44,2.59A1.17,1.17,0,0,1,285.59,401.13Zm7.71-1.36a1.17,1.17,0,0,1-1.64-1.15,4.1,4.1,0,0,1,.66-2.11c1.32-1.89,3-2.57,3.57-2.18C296.88,395.17,295.53,399,293.3,399.77Z"/><path class="cls-9" d="M329,359.63l-16.21-16.21a4.4,4.4,0,0,1,0-6.24l2.29-2.29a16.18,16.18,0,0,1,22.7-.25h0a16.18,16.18,0,0,1-.25,22.7l-2.29,2.29A4.4,4.4,0,0,1,329,359.63Z"/><path class="cls-10" d="M379.48,366l26.77,26.78a9.94,9.94,0,0,1,1.33,12.42,10.66,10.66,0,0,1-1.33,1.63,9.93,9.93,0,0,1-14.05,0l-26.77-26.78a9.93,9.93,0,0,1,0-14,9.69,9.69,0,0,1,1.64-1.32,9.8,9.8,0,0,1,5.39-1.59A9.94,9.94,0,0,1,379.48,366Z"/><path class="cls-11" d="M379.48,366l26.77,26.78a9.94,9.94,0,0,1,1.33,12.42l-40.52-40.52a9.8,9.8,0,0,1,5.39-1.59A9.94,9.94,0,0,1,379.48,366Z"/><path class="cls-12" d="M381.71,344V372.4a9.94,9.94,0,0,1-7.84,9.72,10.37,10.37,0,0,1-2.09.22,9.94,9.94,0,0,1-9.94-9.94V344a9.94,9.94,0,0,1,9.94-9.94,10.37,10.37,0,0,1,2.09.22,9.94,9.94,0,0,1,7.84,9.72Z"/><path class="cls-13" d="M381.71,344V372.4a9.94,9.94,0,0,1-7.84,9.72V334.23a9.94,9.94,0,0,1,7.84,9.72Z"/><path class="cls-14" d="M387.3,442.38a1.85,1.85,0,0,1-2.61.12l-1.36-1.25,2.49-2.73,1.37,1.25A1.85,1.85,0,0,1,387.3,442.38Z"/><path class="cls-14" d="M393.2,437.17a1.84,1.84,0,0,1-2.61.12l-1.37-1.24,2.5-2.73,1.36,1.24A1.85,1.85,0,0,1,393.2,437.17Z"/><path class="cls-14" d="M398.71,432.3a1.85,1.85,0,0,1-2.61.12l-1.36-1.25,2.49-2.72,1.36,1.24A1.84,1.84,0,0,1,398.71,432.3Z"/><path class="cls-14" d="M415.62,414.66a1.85,1.85,0,0,1-2.61.11l-1.36-1.24,2.49-2.73,1.36,1.25A1.84,1.84,0,0,1,415.62,414.66Z"/><path class="cls-14" d="M419.43,410.48a1.84,1.84,0,0,1-2.61.12l-1.36-1.24,2.49-2.73,1.36,1.24A1.84,1.84,0,0,1,419.43,410.48Z"/><path class="cls-15" d="M406,392.66a4.45,4.45,0,0,1,5.56.36l6.07,5.56a5.75,5.75,0,0,1,.36,8.12l-6.31,6.89a3.91,3.91,0,0,1-2.5,1.23,4.81,4.81,0,0,0-4,2.95,34.22,34.22,0,0,1-6.28,9.81l-15.55,13.68a5.33,5.33,0,0,1-7.14-.07,7,7,0,0,1,1.15-9.95,16,16,0,0,0,4.49-5.5c1.79-3.29,5.06-14.51,6.72-19.67a4.52,4.52,0,0,1,1.67-2.27Z"/><path class="cls-16" d="M417.65,398.58a5.75,5.75,0,0,1,.36,8.12l-6.31,6.89a3.91,3.91,0,0,1-2.5,1.23,4.81,4.81,0,0,0-4,2.95,34.22,34.22,0,0,1-6.28,9.81l-15.55,13.68a5.33,5.33,0,0,1-7.14-.07,32.08,32.08,0,0,0,9.86-6.11l9.91-9a60.29,60.29,0,0,0,4.31-4.3l10.47-11.55a33.43,33.43,0,0,0,4.06-5.49A34,34,0,0,0,417.65,398.58Z"/><path class="cls-17" d="M411.58,393c-1.36,3-2.5,6.17-4.35,8.89a17.06,17.06,0,0,1-5,4.84c-15.07,10-10.61,21.22-27.55,31.23a7.15,7.15,0,0,1,2.65-6.75,15.83,15.83,0,0,0,4.49-5.49c1.95-3.6,5.35-15.64,6.75-19.68a4.44,4.44,0,0,1,1.67-2.28L406,392.66A4.44,4.44,0,0,1,411.58,393Z"/><path class="cls-18" d="M388.93,408.59c-.61-3.46-2.76-5.77-5-5.37s-3.47,3.3-2.86,6.76a7.24,7.24,0,0,0,2.51,4v0a7.25,7.25,0,0,0-4.64-1c-3.47.61-5.78,2.77-5.38,5s3.31,3.48,6.77,2.87a8,8,0,0,0,4.81-3.56,1.73,1.73,0,0,0,.32,0h6.78a2.21,2.21,0,1,0,0-4.42h-4.14A7,7,0,0,0,388.93,408.59Zm-7.07,9a4.12,4.12,0,0,1-2,1c-2.27.41-3.95-.32-4.07-1-.11-1.3,3.59-3.08,5.68-2A1.17,1.17,0,0,1,381.86,417.6Zm4.49-6.41a1.16,1.16,0,0,1-2,.34,4.06,4.06,0,0,1-1-1.95c-.4-2.27.32-4,1-4.07C385.62,405.4,387.41,409.1,386.35,411.19Z"/><path class="cls-8" d="M387.65,349.88v3.24a4.41,4.41,0,0,1-4.41,4.41H360.31a4.41,4.41,0,0,1-4.41-4.41v-3.24a16.32,16.32,0,0,1,12.43-15.83,15.08,15.08,0,0,1,3.45-.4A15.62,15.62,0,0,1,383,338.48,16.42,16.42,0,0,1,387.65,349.88Z"/><path class="cls-9" d="M368.33,334.05v23.48h-8a4.41,4.41,0,0,1-4.41-4.41v-3.24A16.32,16.32,0,0,1,368.33,334.05Z"/><path class="cls-11" d="M363.24,272.38c13.82,18.88,24.17,27.33,33.8,27.33,16.53-.36,20.81-20.54,24.95-38.15l-5.15-1.18-10-2.29c-1.67,7.24-3.48,14.77-5.71,20.11a26.26,26.26,0,0,1-1.83,3.64,3.63,3.63,0,0,1-4.92,1.22c-3.13-1.83-9-6.73-18.6-19.86l-7,5.09Z"/><path class="cls-10" d="M368.84,268.29c11.15,17.2,19.65,24.94,27.59,24.94,12.82-.32,17.08-16.73,20.41-32.85l-10-2.29c-1.67,7.24-3.48,14.77-5.71,20.11a26.26,26.26,0,0,1-1.83,3.64,3.63,3.63,0,0,1-4.92,1.22c-3.13-1.83-9-6.73-18.6-19.86Z"/><path class="cls-9" d="M405.05,259.66a7.47,7.47,0,0,0,2.19,5.28l7,7a8,8,0,0,0,5.36,2.33h.28a8,8,0,0,0,5.64-2.33l10.35-10.36a2.29,2.29,0,0,0,0-3.23l-.85-.86a2.29,2.29,0,0,0-3.23,0l4.69-4.69a2.29,2.29,0,0,0,0-3.23l-.85-.86a2.29,2.29,0,0,0-3.23,0l2.54-2.55a2.29,2.29,0,0,0,0-3.23l-.85-.86a2.29,2.29,0,0,0-3.23,0l-2.3,2.31a2.31,2.31,0,0,0,0-3.23l-.86-.86a2.29,2.29,0,0,0-3.23,0L413.8,250.91V246a3.45,3.45,0,0,0-3.45-3.46h-1.84a3.45,3.45,0,0,0-3.45,3.46v13.61Z"/><path class="cls-8" d="M419.58,251.58l.18-.17,7.91-7.91a2.29,2.29,0,0,0,0-3.23h0l.85.86a2.27,2.27,0,0,1,0,3.23l-8.94,8.94S419.11,252.06,419.58,251.58Z"/><path class="cls-8" d="M427.51,260l.18-.17,7.91-7.91a2.29,2.29,0,0,0,0-3.23h0l.85.86a2.29,2.29,0,0,1,0,3.23l-8.94,8.94S427,260.48,427.51,260Z"/><path class="cls-8" d="M424.56,254.78l.18-.17,9.32-9.33a2.29,2.29,0,0,0,0-3.23h0l.85.86a2.27,2.27,0,0,1,0,3.23l-10.35,10.35S424.09,255.25,424.56,254.78Z"/><path class="cls-8" d="M413.8,246v4.87L412,252.76V246a3.44,3.44,0,0,0-3.44-3.44h1.84A3.45,3.45,0,0,1,413.8,246Z"/><path class="cls-8" d="M414.23,271.92a7.93,7.93,0,0,0,5.2,2.31h.16a7.94,7.94,0,0,0,5.91-2.33l10.36-10.35a2.29,2.29,0,0,0,0-3.23l-.86-.86h0a2.29,2.29,0,0,1,0,3.23L425.68,270l-.05,0a7.27,7.27,0,0,1-7.23,1.54,4.82,4.82,0,0,0-3.9.17Z"/><path class="cls-11" d="M341,269c3.58,23.12,2.23,36.41-4.58,43.22-11.94,11.43-29.24.19-44.61-9.33l2.8-4.48,5.45-8.69c6.3,3.95,12.9,8,18.26,10.18a25.34,25.34,0,0,0,3.86,1.29,3.64,3.64,0,0,0,4.35-2.62c.92-3.5,1.6-11.12-.89-27.19l8.5-1.32Z"/><path class="cls-10" d="M334.1,270c4.29,20.05,3.75,31.53-1.86,37.14-9.3,8.84-23.92.26-37.67-8.79l5.45-8.69c6.3,3.95,12.9,8,18.26,10.18a25.34,25.34,0,0,0,3.86,1.29,3.64,3.64,0,0,0,4.35-2.62c.92-3.5,1.6-11.12-.89-27.19Z"/><path class="cls-9" d="M302.39,289.52l-9.63-9.63a3.46,3.46,0,0,0-4.89,0l-1.29,1.29a3.46,3.46,0,0,0,0,4.89l3.44,3.44H275a2.29,2.29,0,0,0-2.28,2.29V293a2.28,2.28,0,0,0,2.28,2.28h-3.26a2.29,2.29,0,0,0-2.28,2.29v1.21a2.29,2.29,0,0,0,2.28,2.28h3.61a2.3,2.3,0,0,0-2.29,2.29v1.21a2.29,2.29,0,0,0,2.29,2.28H282a2.28,2.28,0,0,0-2.28,2.29v1.21a2.28,2.28,0,0,0,2.28,2.28h14.64a7.91,7.91,0,0,0,5.64-2.34l.19-.19a7.92,7.92,0,0,0,2.15-5.44V294.8a7.49,7.49,0,0,0-2.19-5.29Z"/><path class="cls-8" d="M286.41,294.08H275a2.28,2.28,0,0,1-2.28-2.28h0V293a2.28,2.28,0,0,0,2.28,2.28h12.64S287.08,294.08,286.41,294.08Z"/><path class="cls-8" d="M286.76,305.64H275.33a2.28,2.28,0,0,1-2.28-2.28h0v1.21a2.28,2.28,0,0,0,2.28,2.28H288S287.43,305.64,286.76,305.64Z"/><path class="cls-8" d="M285.15,299.86H271.72a2.28,2.28,0,0,1-2.28-2.28h0v1.21a2.28,2.28,0,0,0,2.28,2.28h14.64S285.82,299.86,285.15,299.86Z"/><path class="cls-8" d="M286.58,286.07l3.44,3.44h2.62l-4.77-4.76a3.45,3.45,0,0,1,0-4.87l-1.29,1.3A3.46,3.46,0,0,0,286.58,286.07Z"/><path class="cls-8" d="M304.58,304.67a7.94,7.94,0,0,1-2.05,5.32l0,.05-.06.07h0a8,8,0,0,1-5.83,2.53H282a2.28,2.28,0,0,1-2.28-2.28v-1.21h0a2.28,2.28,0,0,0,2.28,2.28h13.25a7.28,7.28,0,0,0,6.2-4,4.84,4.84,0,0,1,2.88-2.64Z"/><path class="cls-11" d="M381.89,330.24V276.62a21.2,21.2,0,0,0-21.2-21.19H346.13a21.2,21.2,0,0,0-21.2,21.19v53.62Z"/><path class="cls-10" d="M324.93,330.24V276.62a21.2,21.2,0,0,1,21.2-21.19h1a21.2,21.2,0,0,1,21.2,21.19v53.62Z"/><path class="cls-19" d="M366.71,290.91l-3,2.24a4,4,0,0,1-4.74,0l-3-2.24a4,4,0,0,1-1.62-3.21v-9.44a2.6,2.6,0,0,1,2.61-2.6h8.84a2.6,2.6,0,0,1,2.61,2.6v9.44A4,4,0,0,1,366.71,290.91Z"/><path class="cls-12" d="M344,246.53v10.22a9.41,9.41,0,0,0,18.82,0V246.53Z"/><path class="cls-13" d="M362.82,246.53v10.22a9.39,9.39,0,0,1-4.63,8.1V253.93a27.49,27.49,0,0,1-10.64,2.12,29.55,29.55,0,0,1-3.55-.22v-9.3Z"/><path class="cls-13" d="M382.53,201.23h4.67a0,0,0,0,1,0,0v14.6a0,0,0,0,1,0,0h-4.67a7.3,7.3,0,0,1-7.3-7.3v0A7.3,7.3,0,0,1,382.53,201.23Z" transform="translate(762.43 417.06) rotate(-180)"/><path class="cls-20" d="M378.36,205.4h4.9a0,0,0,0,1,0,0v6.27a0,0,0,0,1,0,0h-4.9a3.13,3.13,0,0,1-3.13-3.13v0A3.13,3.13,0,0,1,378.36,205.4Z" transform="translate(758.5 417.06) rotate(180)"/><path class="cls-13" d="M317.81,201.23h2a0,0,0,0,1,0,0v14.6a0,0,0,0,1,0,0h-2a7.3,7.3,0,0,1-7.3-7.3v0a7.3,7.3,0,0,1,7.3-7.3Z"/><path class="cls-20" d="M317.58,205.4h2.28a0,0,0,0,1,0,0v6.27a0,0,0,0,1,0,0h-2.28a3.13,3.13,0,0,1-3.13-3.13v0A3.13,3.13,0,0,1,317.58,205.4Z"/><path class="cls-21" d="M325.23,201.23v4.71a10.81,10.81,0,0,1-10.8-10.81V173.18h10.8Z"/><path class="cls-13" d="M319.86,185v38.46a27.69,27.69,0,0,0,55.37,0V185a15.18,15.18,0,0,0-15.17-15.18H335a14.89,14.89,0,0,0-4.24.61A15.18,15.18,0,0,0,319.86,185Z"/><path class="cls-12" d="M319.86,185v38.46a27.68,27.68,0,0,0,21.48,27,27.68,27.68,0,0,0,21.48-27V208.72a38.93,38.93,0,0,0-32-38.31A15.18,15.18,0,0,0,319.86,185Z"/><rect class="cls-22" x="335.52" y="210.46" width="14.04" height="8.4" rx="4.2" transform="translate(685.08 429.32) rotate(-180)"/><rect class="cls-22" x="340.46" y="169.8" width="7.08" height="43.51" transform="translate(688.01 383.12) rotate(-180)"/><rect class="cls-23" x="351.22" y="194.04" width="7.67" height="14.37" rx="3.84" transform="translate(710.12 402.46) rotate(-180)"/><rect class="cls-23" x="329.11" y="194.04" width="7.67" height="14.37" rx="3.84" transform="translate(665.9 402.46) rotate(-180)"/><path class="cls-20" d="M346.54,234.33a12.06,12.06,0,0,0,12-12.05,2.28,2.28,0,1,0-4.55,0,7.51,7.51,0,0,1-7.5,7.5,2.28,2.28,0,1,0,0,4.55Z"/><path class="cls-21" d="M375.23,215.83h4.67a7.48,7.48,0,0,0,2.33-.38v1.94a7,7,0,0,1-7,7Z"/><path class="cls-21" d="M375.23,201.21h4.67a7.07,7.07,0,0,1,2.21.38h.12V182.49a16.06,16.06,0,0,0-16.05-16.05H347.55v4a9.47,9.47,0,0,0,9.47,9.47h0a5.8,5.8,0,0,1,5.8,5.8v3.41a12.08,12.08,0,0,0,12.08,12.08l.33,0Z"/><rect class="cls-24" x="311.61" y="166.44" width="53.29" height="13.48" rx="6.74"/><circle class="cls-18" cx="244.8" cy="405.79" r="28.83"/><path class="cls-4" d="M267,387.35a29,29,0,0,0-9.61-7.52A28.66,28.66,0,0,0,244.8,377c-.89,0-1.77,0-2.63.12a28.74,28.74,0,0,0-4.38,6.78h0A28.8,28.8,0,0,0,264,424.77q1.34,0,2.64-.12a28.82,28.82,0,0,0,.36-37.3Z"/><path class="cls-25" d="M244.8,379.16A26.63,26.63,0,1,1,226,387a26.46,26.46,0,0,1,18.83-7.8m0-2.2a28.83,28.83,0,1,0,28.83,28.83A28.83,28.83,0,0,0,244.8,377Z"/><path class="cls-6" d="M273.6,404.67a28.8,28.8,0,0,0-31.43-27.59,28.38,28.38,0,0,0-1.91,2.46c25.67-4.11,41.47,26.76,23.23,45.23.73-.74,2.09,0,3.11-.12A28.79,28.79,0,0,0,273.6,404.67Z"/><path class="cls-25" d="M232.58,404.36a1.32,1.32,0,0,1-.39-.06l-4.73-1.55a1.23,1.23,0,1,1,.77-2.34L233,402a1.23,1.23,0,0,1-.38,2.4Z"/><path class="cls-6" d="M244.79,395.46a1.23,1.23,0,0,1-1.23-1.23v-5.91a1.24,1.24,0,0,1,2.47,0v5.91A1.24,1.24,0,0,1,244.79,395.46Z"/><path class="cls-6" d="M257,404.34a1.23,1.23,0,0,1-.37-2.41l4.75-1.48a1.23,1.23,0,1,1,.74,2.35l-4.75,1.48A1.24,1.24,0,0,1,257,404.34Z"/><path class="cls-6" d="M254.38,421.64a1.24,1.24,0,0,1-1-.53l-2-2.92a1.23,1.23,0,0,1,2-1.42l2,2.93a1.22,1.22,0,0,1-.3,1.71A1.25,1.25,0,0,1,254.38,421.64Z"/><path class="cls-25" d="M235.14,421.58a1.24,1.24,0,0,1-1-2l2.16-2.84a1.23,1.23,0,0,1,2,1.48l-2.16,2.85A1.23,1.23,0,0,1,235.14,421.58Z"/><path class="cls-26" d="M241,434.37a28.82,28.82,0,0,1-21-13.8l13.54-.63a2.71,2.71,0,0,1,2.65,1.74Z"/><path class="cls-26" d="M227,403l-10.37,8.74a29.34,29.34,0,0,1-.62-6,28.74,28.74,0,0,1,6.64-18.4l5.11,12.55A2.71,2.71,0,0,1,227,403Z"/><path class="cls-26" d="M273.63,405.79a28.86,28.86,0,0,1-.61,5.92L262.64,403a2.69,2.69,0,0,1-.77-3.08L267,387.35A28.74,28.74,0,0,1,273.63,405.79Z"/><path class="cls-9" d="M273.63,405.79a28.86,28.86,0,0,1-.61,5.92L262.64,403a2.69,2.69,0,0,1-.77-3.08L267,387.35A28.74,28.74,0,0,1,273.63,405.79Z"/><path class="cls-26" d="M243.22,394.74l-9.66,7a2.7,2.7,0,0,0-1,3l3.69,11.35a2.7,2.7,0,0,0,2.56,1.86h11.94a2.69,2.69,0,0,0,2.56-1.86L257,404.77a2.7,2.7,0,0,0-1-3l-9.66-7A2.7,2.7,0,0,0,243.22,394.74Z"/><path class="cls-9" d="M257,404.77l-3.69,11.35a2.69,2.69,0,0,1-2.56,1.86h-5.39a28.79,28.79,0,0,1-9.91-17.61l7.75-5.63a2.7,2.7,0,0,1,3.16,0l9.66,7A2.7,2.7,0,0,1,257,404.77Z"/><path class="cls-26" d="M269.61,420.48a28.93,28.93,0,0,1-20.93,13.88l4.37-11.72.37-1a2.7,2.7,0,0,1,2.64-1.75Z"/><path class="cls-9" d="M269.61,420.48a28.89,28.89,0,0,1-3,4.17q-1.31.12-2.64.12a28.9,28.9,0,0,1-10.91-2.13l.37-1a2.7,2.7,0,0,1,2.64-1.75Z"/><path class="cls-26" d="M257.35,379.83l-11,8a2.67,2.67,0,0,1-3.16,0l-5.43-3.94h0l-5.54-4a28.74,28.74,0,0,1,9.92-2.75c.86-.08,1.74-.12,2.63-.12A28.66,28.66,0,0,1,257.35,379.83Z"/><path class="cls-9" d="M257.35,379.83l-11,8a2.67,2.67,0,0,1-3.16,0l-5.43-3.94h0a28.74,28.74,0,0,1,4.38-6.78c.86-.08,1.74-.12,2.63-.12A28.66,28.66,0,0,1,257.35,379.83Z"/><circle class="cls-17" cx="255.79" cy="390.73" r="5.89"/><path class="cls-17" d="M232.84,373.24a1.44,1.44,0,0,1-1.64,1.22,33.51,33.51,0,0,0-38,28.26,1.45,1.45,0,1,1-2.86-.42,36.4,36.4,0,0,1,41.25-30.71A1.45,1.45,0,0,1,232.84,373.24Z"/><path class="cls-17" d="M253.53,372a1.34,1.34,0,0,1-.25.62,1.43,1.43,0,0,1-2,.36A41.92,41.92,0,0,0,193,383.55a1.45,1.45,0,0,1-2.38-1.65,44.81,44.81,0,0,1,62.29-11.29A1.47,1.47,0,0,1,253.53,372Z"/><path class="cls-12" d="M142.49,409.16l20.12,20.12A9.94,9.94,0,0,0,175,430.6a9.24,9.24,0,0,0,1.63-1.32,9.93,9.93,0,0,0,0-14l-20.12-20.12a9.93,9.93,0,0,0-14,0,9.62,9.62,0,0,0-1.32,1.63,9.94,9.94,0,0,0,1.32,12.42Z"/><path class="cls-13" d="M142.49,409.16l20.12,20.12A9.94,9.94,0,0,0,175,430.6l-33.86-33.86a9.94,9.94,0,0,0,1.32,12.42Z"/><path class="cls-27" d="M165.65,433.32l26.77,26.78a9.92,9.92,0,0,0,12.42,1.32,9.24,9.24,0,0,0,1.63-1.32,9.93,9.93,0,0,0,0-14.05L179.7,419.27a10,10,0,0,0-14.06,0,10.2,10.2,0,0,0-1.32,1.64,9.91,9.91,0,0,0,1.33,12.41Z"/><path class="cls-28" d="M165.65,433.32l26.77,26.78a9.92,9.92,0,0,0,12.42,1.32l-40.52-40.51a9.91,9.91,0,0,0,1.33,12.41Z"/><path class="cls-14" d="M239.1,438.81a1.85,1.85,0,0,0,.12-2.61L238,434.84l-2.72,2.49,1.24,1.36A1.84,1.84,0,0,0,239.1,438.81Z"/><path class="cls-14" d="M233.89,444.71a1.84,1.84,0,0,0,.12-2.61l-1.24-1.37L230,443.22l1.24,1.37A1.86,1.86,0,0,0,233.89,444.71Z"/><path class="cls-14" d="M229,450.22a1.84,1.84,0,0,0,.12-2.61l-1.24-1.36-2.73,2.49,1.24,1.36A1.84,1.84,0,0,0,229,450.22Z"/><path class="cls-14" d="M211.38,467.13a1.85,1.85,0,0,0,.11-2.61l-1.24-1.36-2.73,2.49,1.25,1.36A1.85,1.85,0,0,0,211.38,467.13Z"/><path class="cls-14" d="M207.2,470.94a1.84,1.84,0,0,0,.12-2.61L206.08,467l-2.73,2.49,1.24,1.36A1.85,1.85,0,0,0,207.2,470.94Z"/><path class="cls-15" d="M189.38,457.53a4.45,4.45,0,0,0,.36,5.56l5.56,6.07a5.75,5.75,0,0,0,8.12.36l6.89-6.32a3.86,3.86,0,0,0,1.23-2.49,4.83,4.83,0,0,1,3-4,33.84,33.84,0,0,0,9.81-6.27L238,434.84a5.34,5.34,0,0,0-.08-7.14,7,7,0,0,0-9.95,1.15,16.07,16.07,0,0,1-5.5,4.49c-3.29,1.79-14.51,5.06-19.67,6.72a4.47,4.47,0,0,0-2.27,1.67Z"/><path class="cls-16" d="M195.3,469.16a5.75,5.75,0,0,0,8.12.36l6.89-6.32a3.86,3.86,0,0,0,1.23-2.49,4.83,4.83,0,0,1,3-4,33.84,33.84,0,0,0,9.81-6.27L238,434.84a5.34,5.34,0,0,0-.08-7.14,32.08,32.08,0,0,1-6.11,9.86l-9,9.91a60.15,60.15,0,0,1-4.3,4.3L207,462.25a32.81,32.81,0,0,1-5.49,4.05A33.41,33.41,0,0,1,195.3,469.16Z"/><path class="cls-17" d="M189.74,463.09c3-1.36,6.17-2.51,8.89-4.36a16.9,16.9,0,0,0,4.84-5c10-15.07,21.22-10.61,31.23-27.55a7.13,7.13,0,0,0-6.74,2.65,16,16,0,0,1-5.5,4.49c-3.6,2-15.64,5.35-19.68,6.74a4.49,4.49,0,0,0-2.28,1.67l-11.12,15.78A4.45,4.45,0,0,0,189.74,463.09Z"/><path class="cls-18" d="M209.7,439.59v4.14a2.21,2.21,0,0,0,4.41,0v-6.79a1.63,1.63,0,0,0,0-.31c1.1-.75,3.14-2.43,3.56-4.82.61-3.46-.62-6.37-2.87-6.76s-4.4,1.91-5,5.37a7.24,7.24,0,0,0,1,4.64l0,0a7.25,7.25,0,0,0-4-2.52c-3.46-.61-6.37.63-6.76,2.87s1.91,4.4,5.37,5A7,7,0,0,0,209.7,439.59Zm2.65-6.57c-1.06-2.09.72-5.79,2-5.68.65.12,1.38,1.8,1,4.07a4.16,4.16,0,0,1-1,2A1.17,1.17,0,0,1,212.35,433Zm-10.12,2.82c.11-.66,1.8-1.38,4.07-1a4.16,4.16,0,0,1,2,1,1.17,1.17,0,0,1-.35,2C205.82,438.92,202.12,437.13,202.23,435.84Z"/><path class="cls-9" d="M151,419.85l16.21-16.21a4.42,4.42,0,0,0,0-6.24l-2.29-2.29a16.19,16.19,0,0,0-22.7-.26h0a16.19,16.19,0,0,0,.25,22.71l2.29,2.29A4.42,4.42,0,0,0,151,419.85Z"/><path class="cls-12" d="M105.32,399.41,85.2,419.53A9.93,9.93,0,0,0,83.88,432a9.62,9.62,0,0,0,1.32,1.63,9.93,9.93,0,0,0,14,0l20.12-20.12a9.93,9.93,0,0,0,0-14,9.24,9.24,0,0,0-1.63-1.32,9.77,9.77,0,0,0-5.39-1.59A9.9,9.9,0,0,0,105.32,399.41Z"/><path class="cls-13" d="M105.32,399.41,85.2,419.53A9.93,9.93,0,0,0,83.88,432l33.86-33.86a9.77,9.77,0,0,0-5.39-1.59A9.9,9.9,0,0,0,105.32,399.41Z"/><path class="cls-27" d="M97.82,427.69a9.94,9.94,0,0,1-9.94,9.93H75.59q-5.86-5.82-11.35-12-3.42-3.86-6.67-7.85H87.88a9.91,9.91,0,0,1,9.71,7.85A9.56,9.56,0,0,1,97.82,427.69Z"/><path class="cls-28" d="M97.59,425.6H64.24q-3.42-3.86-6.67-7.85H87.88a9.91,9.91,0,0,1,9.71,7.85Z"/><path class="cls-8" d="M96.92,399.41l-2.29,2.29a4.42,4.42,0,0,0,0,6.24l16.21,16.21a4.42,4.42,0,0,0,6.24,0l2.29-2.29a16.31,16.31,0,0,0,2.41-20,14.61,14.61,0,0,0-2.16-2.71,15.63,15.63,0,0,0-11.35-4.53A16.41,16.41,0,0,0,96.92,399.41Z"/><path class="cls-8" d="M98.17,390.46v12.3a9.17,9.17,0,0,0,9.17,9.17H146a9.17,9.17,0,0,0,9.16-9.17v-12.3Z"/><path class="cls-9" d="M111.73,390.46v6.47a15,15,0,0,0,15,15H146a9.17,9.17,0,0,0,9.16-9.17v-12.3Z"/><path class="cls-28" d="M109.61,318.24C90.73,332.06,82.29,342.41,82.29,352c.36,16.53,20.54,20.81,38.14,24.95l1.18-5.15,2.3-10c-7.25-1.67-14.77-3.48-20.11-5.71a25.69,25.69,0,0,1-3.64-1.83,3.62,3.62,0,0,1-1.23-4.92c1.83-3.13,6.74-9,19.86-18.61l-5.08-6.94Z"/><path class="cls-27" d="M113.71,323.84C96.5,335,88.76,343.49,88.76,351.43c.33,12.82,16.73,17.08,32.85,20.41l2.3-10c-7.25-1.67-14.77-3.48-20.11-5.71a25.69,25.69,0,0,1-3.64-1.83,3.62,3.62,0,0,1-1.23-4.92c1.83-3.13,6.74-9,19.86-18.61Z"/><path class="cls-13" d="M138.06,306.74V317a9.41,9.41,0,0,1-9.42,9.41,9.4,9.4,0,0,1-9.4-9.41V306.74Z"/><path class="cls-28" d="M98.17,390.46V336.84a21.19,21.19,0,0,1,21.19-21.2h14.57a21.19,21.19,0,0,1,21.19,21.2v53.62Z"/><path class="cls-27" d="M155.12,390.46V336.84a21.19,21.19,0,0,0-21.19-21.2h-1a21.2,21.2,0,0,0-21.2,21.2v53.62Z"/><path class="cls-28" d="M182.77,343.77c-8,4.8-14.89,9.66-22.55,11.54a3.72,3.72,0,0,1-3.93-2.73c-.68-1.93-1-8.89-.69-13,.11-1.87.29-3.92.49-5.84a8.83,8.83,0,0,0-7.4-9.65,6.84,6.84,0,0,0-7.83,5.94c-2.26,18.86-.54,30.13,5.55,36.22,11.94,11.43,29.24.19,44.61-9.33Z"/><path class="cls-27" d="M182.77,343.77c-8,4.8-14.89,9.66-22.55,11.54a3.66,3.66,0,0,1-3.93-2.73,37.16,37.16,0,0,1-.81-9.51c0-3.08.28-6.2.61-9.31a8.81,8.81,0,0,0-5-8.91,4.46,4.46,0,0,0-3.26,3.48c-8.39,41,10.84,45.05,40.39,24.13Z"/><path class="cls-12" d="M180.39,343.62a7.47,7.47,0,0,0-2.19,5.28v9.86a8,8,0,0,0,2.15,5.44,1.8,1.8,0,0,0,.19.2,8,8,0,0,0,5.64,2.34h14.64a2.29,2.29,0,0,0,2.28-2.29v-1.21a2.28,2.28,0,0,0-2.28-2.28h6.64a2.3,2.3,0,0,0,2.29-2.29v-1.21a2.29,2.29,0,0,0-2.29-2.28h3.61a2.29,2.29,0,0,0,2.28-2.29v-1.21a2.28,2.28,0,0,0-2.28-2.28h-3.26a2.3,2.3,0,0,0,2.29-2.29V345.9a2.29,2.29,0,0,0-2.29-2.28h-15l3.44-3.45a3.45,3.45,0,0,0,0-4.88l-1.29-1.3a3.46,3.46,0,0,0-4.89,0l-9.63,9.63Z"/><path class="cls-13" d="M196.38,348.19h11.43a2.29,2.29,0,0,0,2.28-2.29h0v1.21a2.29,2.29,0,0,1-2.28,2.29H195.17S195.71,348.19,196.38,348.19Z"/><path class="cls-13" d="M196,359.74h11.43a2.29,2.29,0,0,0,2.29-2.28h0v1.21a2.29,2.29,0,0,1-2.29,2.28H194.82S195.36,359.74,196,359.74Z"/><path class="cls-13" d="M197.64,354h13.43a2.28,2.28,0,0,0,2.28-2.28h0v1.21a2.29,2.29,0,0,1-2.28,2.29H196.43S197,354,197.64,354Z"/><path class="cls-13" d="M196.21,340.17l-3.44,3.45h-2.61l4.76-4.76a3.45,3.45,0,0,0,0-4.87l1.29,1.3A3.45,3.45,0,0,1,196.21,340.17Z"/><path class="cls-13" d="M178.21,358.77a7.92,7.92,0,0,0,2,5.32l0,.05.06.07h0a8,8,0,0,0,5.83,2.53h14.64a2.28,2.28,0,0,0,2.28-2.28v-1.21h0a2.28,2.28,0,0,1-2.28,2.28H187.58a7.26,7.26,0,0,1-6.2-4,4.82,4.82,0,0,0-2.87-2.64Z"/><path class="cls-12" d="M99.94,261.44h2.88a0,0,0,0,1,0,0V276a0,0,0,0,1,0,0H99.94a7.3,7.3,0,0,1-7.3-7.3v0A7.3,7.3,0,0,1,99.94,261.44Z"/><path class="cls-12" d="M165.5,261.44h3.85a0,0,0,0,1,0,0V276a0,0,0,0,1,0,0H165.5a7.3,7.3,0,0,1-7.3-7.3v0A7.3,7.3,0,0,1,165.5,261.44Z" transform="translate(327.55 537.49) rotate(-180)"/><path class="cls-9" d="M164.21,238.1h0a3.83,3.83,0,0,0,3.83,3.83h0a3.87,3.87,0,0,0,2.49-.92l4.58-3.91a2.51,2.51,0,0,1,4.13,1.91v5.41a13.69,13.69,0,0,1-13.69,13.69h0a11.86,11.86,0,0,1-8.38-3.47l-4.86-4.86a18.56,18.56,0,0,0-13.14-5.45H118.29a7.15,7.15,0,0,1-7.15-7.15h0a7.15,7.15,0,0,1,7.15-7.16h37.84A8.08,8.08,0,0,1,164.21,238.1Z"/><path class="cls-8" d="M158.2,245.19v38.46a27.69,27.69,0,0,1-55.38,0V245.19A15.18,15.18,0,0,1,118,230h25a14.77,14.77,0,0,1,4.23.61A15.15,15.15,0,0,1,158.2,245.19Z"/><path class="cls-9" d="M158.2,245.19v38.46a27.7,27.7,0,0,1-21.48,27,27.69,27.69,0,0,1-21.48-27V268.94a38.91,38.91,0,0,1,32-38.31A15.15,15.15,0,0,1,158.2,245.19Z"/></svg>