<svg id="_50" data-name="50" xmlns="http://www.w3.org/2000/svg" viewBox="0 0 512 512"><defs><style>.cls-1{fill:#e9465e;}.cls-2{fill:#78c795;}.cls-3{fill:#3f5d77;}.cls-4{fill:#3f6c8e;}.cls-5{fill:#53b976;}.cls-6{fill:#528f66;}.cls-7{fill:#f5b890;}.cls-8{fill:#d48d77;}.cls-9{fill:#f4829b;}.cls-10{fill:#f9f2f9;}.cls-11{fill:#9175a7;}.cls-12{fill:#fff;}.cls-13{fill:#c2aacf;}.cls-14{fill:#9acdae;}.cls-15{fill:#c17e62;}.cls-16{fill:#3e4e60;}.cls-17{fill:#eea47d;}.cls-18{fill:#334353;}.cls-19{fill:#c1b7d3;}.cls-20{fill:#f4e6f4;}.cls-21{fill:#746087;}</style></defs><title>50-soccer-icons</title><circle class="cls-1" cx="256" cy="256" r="256"/><path class="cls-2" d="M471.29,394.56a256.05,256.05,0,0,1-430.58,0Z"/><path class="cls-3" d="M311.07,222.38l12.79,12.79a13.48,13.48,0,0,1,0,19.05L283.7,294.37a13.47,13.47,0,0,1-19.05,0l-12.79-12.79Z"/><path class="cls-4" d="M297,236.47l22.31,22.32L283.7,294.37a13.47,13.47,0,0,1-19.05,0l-12.79-12.79Z"/><path class="cls-5" d="M259.57,322.88v55.68A14.61,14.61,0,0,1,248,392.84a14.83,14.83,0,0,1-3.08.32,14.6,14.6,0,0,1-14.6-14.6V322.88A14.61,14.61,0,0,1,245,308.27a14.18,14.18,0,0,1,3.08.33,14.61,14.61,0,0,1,11.53,14.28Z"/><path class="cls-6" d="M259.57,322.88v55.68A14.61,14.61,0,0,1,248,392.84V308.6a14.61,14.61,0,0,1,11.53,14.28Z"/><path class="cls-7" d="M284.86,302.24l-29.58,29.58A14.59,14.59,0,0,1,237,333.76a14.17,14.17,0,0,1-2.4-1.94,14.6,14.6,0,0,1,0-20.66l29.57-29.57a14.61,14.61,0,0,1,20.66,0,14.56,14.56,0,0,1,4.28,10.33A14.57,14.57,0,0,1,284.86,302.24Z"/><path class="cls-8" d="M284.86,302.24l-29.58,29.58A14.59,14.59,0,0,1,237,333.76L286.81,284a14.61,14.61,0,0,1-1.95,18.25Z"/><path class="cls-9" d="M188.35,410.38a2.7,2.7,0,0,1-2.83-2.59l-.13-2.71,5.43-.25.12,2.71A2.72,2.72,0,0,1,188.35,410.38Z"/><path class="cls-9" d="M199.89,411.09a2.72,2.72,0,0,1-2.84-2.59l-.12-2.71,5.43-.25.12,2.72A2.71,2.71,0,0,1,199.89,411.09Z"/><path class="cls-9" d="M210.69,411.76a2.72,2.72,0,0,1-2.84-2.59l-.12-2.71,5.42-.25.13,2.72A2.71,2.71,0,0,1,210.69,411.76Z"/><path class="cls-9" d="M246.61,411a2.72,2.72,0,0,1-2.84-2.59l-.12-2.71,5.42-.24.13,2.71A2.7,2.7,0,0,1,246.61,411Z"/><path class="cls-9" d="M254.91,410.62a2.72,2.72,0,0,1-2.84-2.59l-.12-2.71,5.42-.25.13,2.71A2.72,2.72,0,0,1,254.91,410.62Z"/><path class="cls-10" d="M259.5,378.15a6.52,6.52,0,0,1,5.4,6.15l.54,12.09a8.46,8.46,0,0,1-8.08,8.81l-13.72.6a5.62,5.62,0,0,1-3.87-1.31,7.12,7.12,0,0,0-7.28-1.14A49.82,49.82,0,0,1,215.77,407l-30.39-1.93a7.86,7.86,0,0,1-7.35-7.5c.3-5.64,6-9.93,11.55-9.15A23.37,23.37,0,0,0,200,387.39c5.29-1.56,20.36-9.83,27.45-13.46a6.57,6.57,0,0,1,4.09-.62Z"/><path class="cls-11" d="M265.44,396.39a8.46,8.46,0,0,1-8.08,8.81l-13.72.6a5.62,5.62,0,0,1-3.87-1.31,7.12,7.12,0,0,0-7.28-1.14A49.82,49.82,0,0,1,215.77,407l-30.39-1.93a7.86,7.86,0,0,1-7.35-7.5,47.56,47.56,0,0,0,16.61,3.9l19.62,1a89.06,89.06,0,0,0,9,0l22.9-1.11a49.57,49.57,0,0,0,19.33-5Z"/><path class="cls-12" d="M264.9,384.3c-4.56,1.74-9,3.81-13.77,4.72a24.92,24.92,0,0,1-10.21-.16c-26.06-5.26-33.09,11-61.11,3.84a10.51,10.51,0,0,1,9.77-4.27,23.22,23.22,0,0,0,10.37-1c5.79-1.72,21.83-10.7,27.48-13.44a6.47,6.47,0,0,1,4.1-.64l28,4.84A6.53,6.53,0,0,1,264.9,384.3Z"/><path class="cls-13" d="M225.17,377c3-4.24,3.13-8.88.38-10.8s-7.05-.18-10,4.05A10.59,10.59,0,0,0,214,377h-.06a10.56,10.56,0,0,0-3.79-5.85c-4.23-3-8.87-3.13-10.8-.38s-.17,7.05,4.06,10c2.92,2,6.78,1.68,8.7,1.32a3.17,3.17,0,0,0,.3.34l7.05,7.06a3.27,3.27,0,0,0,2.3.95,3.25,3.25,0,0,0,2.29-5.54l-4.3-4.3A10.37,10.37,0,0,0,225.17,377Zm-16.72,2a6.15,6.15,0,0,1-3.1-1c-2.78-1.95-3.77-4.45-3.21-5.25,1.23-1.46,6.93.53,8,3.81A1.72,1.72,0,0,1,208.45,379Zm11.33-2a1.72,1.72,0,0,1-2.41-1.69,6.05,6.05,0,0,1,1-3.1c1.94-2.78,4.45-3.78,5.25-3.22C225.05,370.19,223.06,375.89,219.78,377Z"/><path class="cls-4" d="M272.33,318l-23.84-23.83a6.49,6.49,0,0,1,0-9.17l3.37-3.37c9.11-9.11,24.26-9.49,33.38-.37h0c9.11,9.11,8.74,24.26-.38,33.37L281.5,318A6.49,6.49,0,0,1,272.33,318Z"/><path class="cls-5" d="M350.17,267.72h55.67a14.6,14.6,0,0,1,14.28,11.53,14.16,14.16,0,0,1,.33,3.07,14.61,14.61,0,0,1-14.61,14.61H350.17a14.61,14.61,0,0,1-14.61-14.61,14.8,14.8,0,0,1,.32-3.07,14.58,14.58,0,0,1,14.29-11.53Z"/><path class="cls-6" d="M350.17,267.72h55.67a14.6,14.6,0,0,1,14.28,11.53H335.88a14.58,14.58,0,0,1,14.29-11.53Z"/><path class="cls-7" d="M325.13,236.81l29.58,29.58A14.61,14.61,0,1,1,334.05,287l-29.58-29.58a14.61,14.61,0,0,1,20.66-20.65Z"/><path class="cls-8" d="M325.13,236.81l29.58,29.58a14.62,14.62,0,0,1,1.94,18.25l-49.78-49.78a14.45,14.45,0,0,1,7.92-2.33A14.61,14.61,0,0,1,325.13,236.81Z"/><path class="cls-9" d="M437.66,338.93a2.72,2.72,0,0,1-2.59,2.84l-2.71.12-.25-5.42,2.72-.12A2.71,2.71,0,0,1,437.66,338.93Z"/><path class="cls-9" d="M438.38,327.4a2.73,2.73,0,0,1-2.59,2.83l-2.72.13-.24-5.43,2.71-.12A2.72,2.72,0,0,1,438.38,327.4Z"/><path class="cls-9" d="M439,316.6a2.7,2.7,0,0,1-2.58,2.83l-2.72.13-.24-5.43,2.71-.12A2.7,2.7,0,0,1,439,316.6Z"/><path class="cls-9" d="M438.28,280.68a2.7,2.7,0,0,1-2.59,2.83l-2.71.13-.25-5.43,2.71-.12A2.72,2.72,0,0,1,438.28,280.68Z"/><path class="cls-9" d="M437.9,272.38a2.72,2.72,0,0,1-2.59,2.84l-2.71.12-.25-5.43,2.71-.12A2.72,2.72,0,0,1,437.9,272.38Z"/><path class="cls-10" d="M405.44,267.79a6.53,6.53,0,0,1,6.14-5.41l12.1-.53a8.46,8.46,0,0,1,8.81,8.07l.6,13.73a5.63,5.63,0,0,1-1.32,3.87,7.1,7.1,0,0,0-1.13,7.27,50.37,50.37,0,0,1,3.67,16.73l-1.94,30.39a7.86,7.86,0,0,1-7.5,7.35c-5.63-.3-9.93-6-9.15-11.55a23.41,23.41,0,0,0-1-10.38c-1.56-5.28-9.83-20.35-13.47-27.44a6.58,6.58,0,0,1-.62-4.09Z"/><path class="cls-11" d="M423.68,261.85a8.46,8.46,0,0,1,8.81,8.07l.6,13.73a5.63,5.63,0,0,1-1.32,3.87,7.1,7.1,0,0,0-1.13,7.27,50.37,50.37,0,0,1,3.67,16.73l-1.94,30.39a7.86,7.86,0,0,1-7.5,7.35,47.18,47.18,0,0,0,3.9-16.61l1-19.62c.15-3,.15-6,0-8.95l-1.12-22.9a49.43,49.43,0,0,0-1.49-9.92A50.38,50.38,0,0,0,423.68,261.85Z"/><path class="cls-12" d="M411.58,262.38c1.74,4.56,3.82,9,4.73,13.78a25.1,25.1,0,0,1-.17,10.21c-5.26,26.06,11,33.09,3.84,61.1a10.48,10.48,0,0,1-4.26-9.76,23.41,23.41,0,0,0-1-10.38c-1.72-5.78-10.7-21.83-13.45-27.47a6.49,6.49,0,0,1-.63-4.11l4.84-28A6.54,6.54,0,0,1,411.58,262.38Z"/><path class="cls-13" d="M404.23,302.12c-4.23-3-8.87-3.13-10.8-.38s-.18,7.05,4.06,10a10.58,10.58,0,0,0,6.79,1.56s0,0,0,.05a10.62,10.62,0,0,0-5.86,3.8c-3,4.23-3.12,8.87-.38,10.79s7.05.18,10-4.05c2-2.93,1.67-6.79,1.31-8.71a3.17,3.17,0,0,0,.35-.29l7.05-7.06a3.24,3.24,0,0,0,0-4.58,3.23,3.23,0,0,0-4.58,0l-4.31,4.3A10.33,10.33,0,0,0,404.23,302.12Zm2,16.71a6.06,6.06,0,0,1-1,3.11c-1.94,2.77-4.44,3.77-5.25,3.21-1.46-1.24.53-6.93,3.81-8A1.72,1.72,0,0,1,406.24,318.83Zm-2-11.32a1.71,1.71,0,0,1-1.69,2.4,6.14,6.14,0,0,1-3.1-1c-2.78-1.95-3.77-4.45-3.21-5.25C397.47,302.24,403.17,304.23,404.24,307.51Z"/><path class="cls-3" d="M337.47,236.81l3.36,3.36a6.48,6.48,0,0,1,0,9.17L317,273.18a6.47,6.47,0,0,1-9.16,0l-3.37-3.36a24,24,0,0,1-3.55-29.38,22.36,22.36,0,0,1,3.18-4,23,23,0,0,1,16.68-6.65A24.15,24.15,0,0,1,337.47,236.81Z"/><path class="cls-4" d="M300.92,240.43l24.42,24.41L317,273.18a6.47,6.47,0,0,1-9.16,0l-3.37-3.36A24,24,0,0,1,300.92,240.43Z"/><path class="cls-6" d="M211.09,202.05c5.26,34,3.28,53.53-6.73,63.54-17.56,16.81-43,.28-65.59-13.72l4.13-6.58,8-12.77c9.27,5.8,19,11.74,26.84,15a39.1,39.1,0,0,0,5.69,1.89,5.34,5.34,0,0,0,6.39-3.85c1.35-5.15,2.35-16.36-1.31-40l12.5-1.94Z"/><path class="cls-5" d="M201,203.61c6.31,29.48,5.5,46.36-2.74,54.61-13.67,13-35.16.37-55.37-12.93l8-12.77c9.27,5.8,19,11.74,26.84,15a39.1,39.1,0,0,0,5.69,1.89,5.34,5.34,0,0,0,6.39-3.85c1.35-5.15,2.35-16.36-1.31-40Z"/><path class="cls-7" d="M154.39,232.29l-14.15-14.16a5.09,5.09,0,0,0-7.19,0l-1.9,1.91a5.06,5.06,0,0,0,0,7.18l5.06,5.07H114.09a3.35,3.35,0,0,0-3.35,3.35v1.78a3.35,3.35,0,0,0,3.35,3.36h-4.78a3.37,3.37,0,0,0-3.36,3.36v1.78a3.37,3.37,0,0,0,3.36,3.36h5.29a3.35,3.35,0,0,0-3.35,3.36v1.78a3.36,3.36,0,0,0,3.35,3.36h9.77a3.35,3.35,0,0,0-3.35,3.35v1.79a3.35,3.35,0,0,0,3.35,3.35H145.9a11.68,11.68,0,0,0,8.29-3.43l.28-.29a11.63,11.63,0,0,0,3.15-8v-14.5a11,11,0,0,0-3.21-7.76Z"/><path class="cls-8" d="M130.9,239H114.1a3.35,3.35,0,0,1-3.36-3.35h0v1.78a3.35,3.35,0,0,0,3.36,3.35h18.58S131.89,239,130.9,239Z"/><path class="cls-8" d="M131.41,256h-16.8a3.35,3.35,0,0,1-3.36-3.35h0v1.78a3.36,3.36,0,0,0,3.36,3.36h18.58S132.4,256,131.41,256Z"/><path class="cls-8" d="M129.05,247.5H109.31a3.36,3.36,0,0,1-3.36-3.36h0v1.78a3.35,3.35,0,0,0,3.36,3.36h21.52S130,247.5,129.05,247.5Z"/><path class="cls-8" d="M131.14,227.22l5.07,5.07h3.84l-7-7a5.08,5.08,0,0,1,0-7.16L131.14,220A5.08,5.08,0,0,0,131.14,227.22Z"/><path class="cls-8" d="M157.61,254.57a11.66,11.66,0,0,1-3,7.82l-.06.08-.09.09h0a11.71,11.71,0,0,1-8.57,3.73H124.36a3.37,3.37,0,0,1-3.36-3.36v-1.78h0a3.37,3.37,0,0,0,3.36,3.36h19.47a10.73,10.73,0,0,0,9.13-5.92,7.07,7.07,0,0,1,4.22-3.89Z"/><path class="cls-6" d="M311.06,222.38l-55.74-55.74a31.15,31.15,0,0,0-44.06,0l-15.15,15.15a31.15,31.15,0,0,0,0,44.06l55.74,55.74Z"/><path class="cls-5" d="M251.86,281.58l-55.74-55.74a31.15,31.15,0,0,1,0-44.06l1-1a31.16,31.16,0,0,1,44.07,0L297,236.47Z"/><path class="cls-14" d="M254.39,197.26l-.82,5.5a5.87,5.87,0,0,1-4.92,4.92l-5.5.83a5.88,5.88,0,0,1-5-1.65l-9.81-9.81a3.84,3.84,0,0,1,0-5.42l9.2-9.19a3.81,3.81,0,0,1,5.41,0l9.81,9.81A5.82,5.82,0,0,1,254.39,197.26Z"/><path class="cls-6" d="M224.15,167.5a10,10,0,0,1,8.69-11.5c27.74-3.34,44.33-.81,53.28,8.15,16.81,17.56.29,43-13.71,65.59l-6.59-4.13-12.77-8c5.8-9.27,11.75-19,15-26.84a38.28,38.28,0,0,0,1.89-5.69,5.36,5.36,0,0,0-3.87-6.4c-4.69-1.21-14.33-2.15-33.65.41a6.5,6.5,0,0,1-7.29-5.44l-.95-6.15Z"/><path class="cls-5" d="M225.1,173.64a6.51,6.51,0,0,1,5.21-7.39c25.7-4.9,40.79-3.66,48.45,4,13,13.67.37,35.16-12.94,55.37l-12.77-8c5.8-9.27,11.75-19,15-26.84a38.28,38.28,0,0,0,1.89-5.69,5.36,5.36,0,0,0-3.87-6.4c-4.69-1.21-14.34-2.15-33.67.41a6.49,6.49,0,0,1-7.27-5.45Z"/><path class="cls-7" d="M252.82,214.12l-14.15,14.15a5.08,5.08,0,0,0,0,7.19l1.9,1.9a5.08,5.08,0,0,0,7.19,0l5.06-5.06v22.11a3.36,3.36,0,0,0,3.36,3.36H258a3.36,3.36,0,0,0,3.36-3.36v4.79a3.35,3.35,0,0,0,3.35,3.36h1.79a3.36,3.36,0,0,0,3.35-3.36v-5.29a3.36,3.36,0,0,0,3.36,3.35H275a3.35,3.35,0,0,0,3.36-3.35v-9.77a3.35,3.35,0,0,0,3.36,3.35h1.78a3.37,3.37,0,0,0,3.36-3.35V222.61a11.69,11.69,0,0,0-3.44-8.29l-.29-.28a11.61,11.61,0,0,0-8-3.15H260.59a11,11,0,0,0-7.77,3.21Z"/><path class="cls-8" d="M259.54,237.61v16.8a3.36,3.36,0,0,1-3.36,3.36H258a3.36,3.36,0,0,0,3.36-3.36V235.83S259.54,236.62,259.54,237.61Z"/><path class="cls-8" d="M276.53,237.1v16.8a3.36,3.36,0,0,1-3.36,3.36H275a3.35,3.35,0,0,0,3.36-3.36V235.32S276.53,236.11,276.53,237.1Z"/><path class="cls-8" d="M268,239.46V259.2a3.35,3.35,0,0,1-3.36,3.36h1.79a3.35,3.35,0,0,0,3.35-3.36V237.68S268,238.48,268,239.46Z"/><path class="cls-8" d="M247.76,237.36l5.06-5.06v-3.84l-7,7a5.08,5.08,0,0,1-7.16,0l1.91,1.9A5.08,5.08,0,0,0,247.76,237.36Z"/><path class="cls-8" d="M275.1,210.9a11.62,11.62,0,0,1,7.82,3l.08.06.1.09h0a11.69,11.69,0,0,1,3.73,8.57v21.52a3.36,3.36,0,0,1-3.36,3.36h-1.78a3.36,3.36,0,0,0,3.36-3.36V224.68a10.71,10.71,0,0,0-5.92-9.13,7.06,7.06,0,0,1-3.88-4.22Z"/><path class="cls-7" d="M184.65,174.74l10.63,10.62a13.83,13.83,0,0,0,19.56-19.56l-10.62-10.63Z"/><path class="cls-8" d="M204.22,155.17l10.62,10.63A13.8,13.8,0,0,1,218.45,179L207.1,167.68A40.44,40.44,0,0,1,198.24,181a42.38,42.38,0,0,1-3.92,3.46l-9.67-9.67Z"/><path class="cls-8" d="M185.78,85.82h6.86a0,0,0,0,1,0,0v21.47a0,0,0,0,1,0,0h-6.86A10.73,10.73,0,0,1,175,96.55v0A10.73,10.73,0,0,1,185.78,85.82Z" transform="translate(382.11 34.83) rotate(135)"/><path class="cls-15" d="M180.5,94h7.21a0,0,0,0,1,0,0v9.21a0,0,0,0,1,0,0H180.5a4.61,4.61,0,0,1-4.61-4.61v0A4.61,4.61,0,0,1,180.5,94Z" transform="translate(380.06 39.76) rotate(135)"/><path class="cls-8" d="M119.06,154.46h3a0,0,0,0,1,0,0v21.47a0,0,0,0,1,0,0h-3a10.73,10.73,0,0,1-10.73-10.73v0a10.73,10.73,0,0,1,10.73-10.73Z" transform="translate(-83.07 129.84) rotate(-45)"/><path class="cls-15" d="M117.87,158.54h3.35a0,0,0,0,1,0,0v9.21a0,0,0,0,1,0,0h-3.35a4.61,4.61,0,0,1-4.61-4.61v0A4.61,4.61,0,0,1,117.87,158.54Z" transform="translate(-81.02 130.69) rotate(-45)"/><path class="cls-16" d="M118.06,147.15l4.89,4.9a15.89,15.89,0,0,1-22.46,0L77.67,129.23,88.9,118Z"/><path class="cls-8" d="M95.57,135.85l40,40a40.7,40.7,0,0,0,57.57-57.56l-40-40a22.31,22.31,0,0,0-31.55,0l-26,26a21.77,21.77,0,0,0-3.77,5A22.29,22.29,0,0,0,95.57,135.85Z"/><path class="cls-7" d="M95.57,135.85l40,40a40.69,40.69,0,0,0,50.39,5.72,40.72,40.72,0,0,0-5.72-50.38l-15.3-15.3a57.23,57.23,0,0,0-73.12-6.53A22.29,22.29,0,0,0,95.57,135.85Z"/><rect class="cls-17" x="139.69" y="136.96" width="20.64" height="12.34" rx="6.17" transform="translate(357.29 138.27) rotate(135)"/><rect class="cls-17" x="122.31" y="85.61" width="10.41" height="63.96" transform="translate(300.83 110.57) rotate(135)"/><rect class="cls-18" x="143.42" y="105.59" width="11.28" height="21.12" rx="5.64" transform="translate(336.59 92.88) rotate(135)"/><rect class="cls-18" x="120.44" y="128.57" width="11.28" height="21.12" rx="5.64" transform="translate(313.61 148.37) rotate(135)"/><path class="cls-15" d="M174.62,159.41a17.74,17.74,0,0,0,0-25,3.35,3.35,0,0,0-4.74,4.73,11,11,0,0,1,0,15.59,3.35,3.35,0,1,0,4.74,4.73Z"/><path class="cls-16" d="M185.21,110.36l4.85-4.85a10.69,10.69,0,0,0,2-2.82l2,2a10.3,10.3,0,0,1,0,14.58Z"/><path class="cls-16" d="M170,95.16l4.85-4.85a10.33,10.33,0,0,1,2.7-1.9l.12-.12L157.82,68.43a23.59,23.59,0,0,0-33.37,0L105.08,87.8,109.25,92A13.93,13.93,0,0,0,129,92h0A8.53,8.53,0,0,1,141,92l3.54,3.55a17.77,17.77,0,0,0,25.12,0l.36-.33Z"/><rect class="cls-3" x="63.26" y="94.55" width="78.35" height="19.82" rx="9.91" transform="translate(-43.86 103.03) rotate(-45)"/><circle class="cls-19" cx="329.59" cy="400.71" r="49.69"/><path class="cls-20" d="M367.78,368.93a50,50,0,0,0-16.56-13A49.46,49.46,0,0,0,329.59,351c-1.53,0-3,.06-4.54.2a49.31,49.31,0,0,0-7.55,11.68h0a49.66,49.66,0,0,0,45.12,70.52c1.53,0,3-.06,4.53-.2a49.49,49.49,0,0,0,11.07-22.31,49.8,49.8,0,0,0-10.44-42Z"/><path class="cls-21" d="M329.59,354.81a45.89,45.89,0,1,1-32.47,13.44,45.6,45.6,0,0,1,32.47-13.44m0-3.78a49.69,49.69,0,1,0,49.68,49.68A49.68,49.68,0,0,0,329.59,351Z"/><path class="cls-13" d="M379.23,398.79A49.67,49.67,0,0,0,325,351.23a47.94,47.94,0,0,0-3.28,4.24c44.25-7.09,71.48,46.13,40,78,1.26-1.28,3.59,0,5.35-.2A49.57,49.57,0,0,0,379.23,398.79Z"/><path class="cls-21" d="M308.51,398.25a2.21,2.21,0,0,1-.66-.1l-8.15-2.67a2.13,2.13,0,0,1,1.32-4l8.15,2.67a2.12,2.12,0,0,1-.66,4.14Z"/><path class="cls-13" d="M329.57,382.91a2.12,2.12,0,0,1-2.12-2.12V370.6a2.13,2.13,0,1,1,4.25,0v10.19A2.12,2.12,0,0,1,329.57,382.91Z"/><path class="cls-13" d="M350.65,398.22a2.13,2.13,0,0,1-.64-4.16l8.19-2.55a2.13,2.13,0,0,1,1.27,4.06l-8.19,2.55A2,2,0,0,1,350.65,398.22Z"/><path class="cls-13" d="M346.1,428a2.12,2.12,0,0,1-1.74-.91l-3.53-5a2.13,2.13,0,0,1,3.49-2.43l3.52,5A2.13,2.13,0,0,1,346.1,428Z"/><path class="cls-21" d="M312.93,427.93a2.1,2.1,0,0,1-1.28-.43,2.12,2.12,0,0,1-.42-3l3.72-4.91a2.12,2.12,0,0,1,3.39,2.56l-3.72,4.91A2.12,2.12,0,0,1,312.93,427.93Z"/><path class="cls-16" d="M323.06,450a49.74,49.74,0,0,1-36.14-23.79l23.34-1.08a4.65,4.65,0,0,1,4.56,3Z"/><path class="cls-16" d="M298.83,395.94,281,411a49.75,49.75,0,0,1,10.37-42l8.8,21.64A4.64,4.64,0,0,1,298.83,395.94Z"/><path class="cls-16" d="M379.27,400.71a49.81,49.81,0,0,1-1,10.21l-17.89-15a4.64,4.64,0,0,1-1.32-5.29l8.77-21.66A49.52,49.52,0,0,1,379.27,400.71Z"/><path class="cls-4" d="M379.27,400.71a49.81,49.81,0,0,1-1,10.21l-17.89-15a4.64,4.64,0,0,1-1.32-5.29l8.77-21.66A49.52,49.52,0,0,1,379.27,400.71Z"/><path class="cls-16" d="M326.86,381.68l-16.65,12.09a4.64,4.64,0,0,0-1.69,5.19l6.36,19.57a4.65,4.65,0,0,0,4.42,3.21h20.57a4.65,4.65,0,0,0,4.42-3.21L350.65,399a4.64,4.64,0,0,0-1.69-5.19l-16.65-12.09A4.61,4.61,0,0,0,326.86,381.68Z"/><path class="cls-4" d="M350.65,399l-6.36,19.57a4.64,4.64,0,0,1-4.42,3.2h-9.28a49.61,49.61,0,0,1-17.08-30.36l13.35-9.7a4.64,4.64,0,0,1,5.45,0L349,393.77A4.64,4.64,0,0,1,350.65,399Z"/><path class="cls-16" d="M372.34,426a49,49,0,0,1-5.19,7.19A49.52,49.52,0,0,1,336.28,450l7.53-20.2.63-1.69a4.65,4.65,0,0,1,4.55-3Z"/><path class="cls-4" d="M372.34,426a49,49,0,0,1-5.19,7.19c-1.49.14-3,.2-4.53.2a49.61,49.61,0,0,1-18.81-3.68l.63-1.69a4.65,4.65,0,0,1,4.55-3Z"/><path class="cls-16" d="M351.22,356l-18.91,13.74a4.61,4.61,0,0,1-5.45,0l-9.36-6.8h0L308,356a49.39,49.39,0,0,1,17.1-4.74c1.49-.14,3-.2,4.54-.2A49.46,49.46,0,0,1,351.22,356Z"/><path class="cls-4" d="M351.22,356l-18.91,13.74a4.62,4.62,0,0,1-5.45,0l-9.36-6.8h0a49.31,49.31,0,0,1,7.55-11.68c1.49-.14,3-.2,4.54-.2A49.46,49.46,0,0,1,351.22,356Z"/><circle class="cls-12" cx="348.52" cy="374.75" r="10.16"/><path class="cls-9" d="M441.59,198.22a1.92,1.92,0,0,1-1.69,2.14,44.54,44.54,0,0,0-39.09,49.3,1.93,1.93,0,0,1-3.83.44,48.4,48.4,0,0,1,42.48-53.57A1.92,1.92,0,0,1,441.59,198.22Z"/><path class="cls-9" d="M467.75,189.58a1.89,1.89,0,0,1-.11.87,1.92,1.92,0,0,1-2.46,1.16A55.71,55.71,0,0,0,394,225.1a1.92,1.92,0,1,1-3.62-1.3A59.57,59.57,0,0,1,466.49,188,1.93,1.93,0,0,1,467.75,189.58Z"/></svg>