<svg id="_50" data-name="50" xmlns="http://www.w3.org/2000/svg" viewBox="0 0 512 512"><defs><style>.cls-1{fill:#4fcae8;}.cls-2{fill:#cde6f6;}.cls-3{fill:#fff;}.cls-4{fill:#c1b7d3;}.cls-5{fill:#f4e6f4;}.cls-6{fill:#746087;}.cls-7{fill:#c2aacf;}.cls-8{fill:#3e4e60;}.cls-9{fill:#3f6c8e;}</style></defs><title>50-soccer-icons</title><circle class="cls-1" cx="256" cy="256" r="256"/><path class="cls-2" d="M175.73,455.48a2.5,2.5,0,0,1-1.44-4.54l29.33-20.6a1346.41,1346.41,0,0,1,137.92-84.91l22.33-11.95a2.5,2.5,0,1,1,2.36,4.4l-22.33,12a1342.63,1342.63,0,0,0-137.4,84.59L177.17,455A2.48,2.48,0,0,1,175.73,455.48Z"/><path class="cls-2" d="M212.82,280l-19.88,15.69q-4.77,3.77-9.52,7.58l-3.89,3.14Q148,331.95,117.86,359.53c-1.23,1.12-2.45,2.24-3.67,3.38q-21.3,19.65-41.67,40.15L57.73,417.94c-1.07-1.3-2.12-2.6-3.15-3.92L69,399.53q20.46-20.59,41.93-40.4c1.22-1.13,2.45-2.27,3.69-3.39q30.16-27.63,61.91-53.34c1.3-1.06,2.59-2.11,3.89-3.14q4.71-3.81,9.45-7.54L209.72,276a2.5,2.5,0,1,1,3.1,3.92Z"/><path class="cls-2" d="M31.66,307.4a2.48,2.48,0,0,1-1.48-.49,2.5,2.5,0,0,1-.52-3.5l20.42-27.52a1252.66,1252.66,0,0,1,106.23-125L170,136.7a2.5,2.5,0,1,1,3.59,3.48L159.9,154.33A1247.69,1247.69,0,0,0,54.09,278.87L33.67,306.39A2.49,2.49,0,0,1,31.66,307.4Z"/><path class="cls-3" d="M327,327.41a2.51,2.51,0,0,0-3.46-.76,105.25,105.25,0,0,1-55.4,16.48,94,94,0,0,0,7.66-19.3,2.5,2.5,0,1,0-4.82-1.32A89.28,89.28,0,0,1,262.52,343a106.37,106.37,0,0,1-71.11-30.85,104.73,104.73,0,0,1-8-9c-1-1.3-2.06-2.63-3-4a106.41,106.41,0,0,1-16.8-88.18,90.4,90.4,0,0,1,31.87-1.64,2.5,2.5,0,1,0,.63-5,95.53,95.53,0,0,0-31,1.15,106.28,106.28,0,0,1,52.87-63,2.5,2.5,0,0,0-2.29-4.45,111.35,111.35,0,0,0-56.17,68.75,95.07,95.07,0,0,0-70.13,96.64,76.38,76.38,0,0,0-63.32,65.09q2.09,4.24,4.33,8.41a71.36,71.36,0,0,1,59.38-68.5,94.54,94.54,0,0,0,21.12,50.55q1.57,1.92,3.29,3.78c.92,1,1.87,2,2.85,3a94.5,94.5,0,0,0,54.76,26.95,71.36,71.36,0,0,1-84,56.16q3.56,3.12,7.22,6.07,3.34.3,6.71.3a76.36,76.36,0,0,0,75-62c2.47.19,4.94.31,7.41.31a94.87,94.87,0,0,0,81.05-45.41l1.14,0a111.5,111.5,0,0,0,59.87-17.42A2.49,2.49,0,0,0,327,327.41Zm-79.2,34.95a89.78,89.78,0,0,1-70.26,26,76.27,76.27,0,0,0-.82-24,2.5,2.5,0,0,0-4.91.95,71.56,71.56,0,0,1,.75,22.54,89.47,89.47,0,0,1-52-25.54c-.93-.93-1.83-1.87-2.71-2.83q-1.71-1.86-3.27-3.79a89.48,89.48,0,0,1-19.85-47.81A71.73,71.73,0,0,1,116.12,309a2.5,2.5,0,1,0,1-4.89,76.67,76.67,0,0,0-22.76-1.21,90,90,0,0,1,63.74-90.39,111.39,111.39,0,0,0,18.4,89.85c1,1.34,2,2.67,3,4a109.26,109.26,0,0,0,8.35,9.35,111.38,111.38,0,0,0,67.15,32c1.48.15,3,.27,4.43.36A89.87,89.87,0,0,1,247.83,362.36Z"/><circle class="cls-4" cx="325.5" cy="199.35" r="108.67"/><path class="cls-5" d="M409,129.84A108.42,108.42,0,0,0,325.5,90.68c-3.34,0-6.66.15-9.92.45a108.65,108.65,0,0,0-16.52,25.54h0a108.63,108.63,0,0,0,98.68,154.23q5,0,9.93-.45A108.66,108.66,0,0,0,409,129.84Z"/><path class="cls-6" d="M325.5,99a100.39,100.39,0,1,1-71,29.41A99.78,99.78,0,0,1,325.5,99m0-8.27A108.67,108.67,0,1,0,434.17,199.35,108.67,108.67,0,0,0,325.5,90.68Z"/><path class="cls-7" d="M434.09,195.15a108.2,108.2,0,0,0-11.22-44.1c-19.68-40-62.93-64.18-107.3-59.92a107.71,107.71,0,0,0-7.19,9.27C405.17,84.91,464.72,201.29,396,270.89c2.75-2.79,7.87-.08,11.72-.43A108.56,108.56,0,0,0,434.09,195.15Z"/><path class="cls-6" d="M279.42,194a4.53,4.53,0,0,1-1.44-.24l-17.84-5.83a4.65,4.65,0,0,1,2.89-8.83l17.84,5.83a4.65,4.65,0,0,1-1.45,9.07Z"/><path class="cls-7" d="M325.48,160.42a4.65,4.65,0,0,1-4.65-4.65V133.49a4.65,4.65,0,1,1,9.29,0v22.28A4.65,4.65,0,0,1,325.48,160.42Z"/><path class="cls-7" d="M371.56,193.89a4.65,4.65,0,0,1-1.38-9.09l17.91-5.57a4.65,4.65,0,1,1,2.77,8.87L373,193.68A4.78,4.78,0,0,1,371.56,193.89Z"/><path class="cls-7" d="M361.63,259.09a4.61,4.61,0,0,1-3.81-2l-7.71-11a4.65,4.65,0,1,1,7.61-5.33l7.71,11a4.64,4.64,0,0,1-3.8,7.31Z"/><path class="cls-6" d="M289.07,258.88a4.64,4.64,0,0,1-3.7-7.45l8.13-10.74a4.65,4.65,0,0,1,7.41,5.61L292.78,257A4.65,4.65,0,0,1,289.07,258.88Z"/><path class="cls-8" d="M311.24,307.09a108.69,108.69,0,0,1-79.05-52l51.05-2.36a10.16,10.16,0,0,1,10,6.56Z"/><path class="cls-8" d="M258.25,188.9l-39.08,32.95A108.91,108.91,0,0,1,241.86,130l19.25,47.32A10.14,10.14,0,0,1,258.25,188.9Z"/><path class="cls-8" d="M434.17,199.35a109.45,109.45,0,0,1-2.29,22.32l-39.14-32.88a10.16,10.16,0,0,1-2.88-11.59L409,129.84A108.22,108.22,0,0,1,434.17,199.35Z"/><path class="cls-9" d="M434.17,199.35a109.45,109.45,0,0,1-2.29,22.32l-39.14-32.88a10.16,10.16,0,0,1-2.88-11.59L409,129.84A108.22,108.22,0,0,1,434.17,199.35Z"/><path class="cls-8" d="M319.54,157.71l-36.41,26.45a10.15,10.15,0,0,0-3.69,11.35l13.91,42.8a10.16,10.16,0,0,0,9.65,7h45a10.17,10.17,0,0,0,9.66-7l13.9-42.8a10.16,10.16,0,0,0-3.68-11.35l-36.41-26.45A10.16,10.16,0,0,0,319.54,157.71Z"/><path class="cls-9" d="M371.56,195.52l-13.9,42.79a10.16,10.16,0,0,1-9.66,7H327.7a108.47,108.47,0,0,1-37.35-66.4l29.19-21.21a10.16,10.16,0,0,1,11.93,0l36.41,26.45A10.16,10.16,0,0,1,371.56,195.52Z"/><path class="cls-8" d="M419,254.74A108.92,108.92,0,0,1,340.15,307l16.47-44.18,1.38-3.71a10.14,10.14,0,0,1,9.94-6.59Z"/><path class="cls-9" d="M419,254.74a108.8,108.8,0,0,1-11.34,15.72q-4.91.45-9.93.45a108.37,108.37,0,0,1-41.12-8.05l1.38-3.71a10.14,10.14,0,0,1,9.94-6.59Z"/><path class="cls-8" d="M372.83,101.5l-41.36,30.05a10.13,10.13,0,0,1-11.93,0l-20.48-14.87h0L278.18,101.5a108.13,108.13,0,0,1,37.4-10.37c3.26-.3,6.58-.45,9.92-.45A108.31,108.31,0,0,1,372.83,101.5Z"/><path class="cls-9" d="M372.83,101.5l-41.36,30.05a10.15,10.15,0,0,1-11.93,0l-20.48-14.87h0a108.65,108.65,0,0,1,16.52-25.54c3.26-.3,6.58-.45,9.92-.45A108.31,108.31,0,0,1,372.83,101.5Z"/><circle class="cls-3" cx="366.92" cy="142.57" r="22.21"/></svg>