<svg id="_50" data-name="50" xmlns="http://www.w3.org/2000/svg" viewBox="0 0 512 512"><defs><style>.cls-1{fill:#ea7589;}.cls-2{fill:#53b976;}.cls-3{fill:#c1b7d3;}.cls-4{fill:#f4e6f4;}.cls-5{fill:#746087;}.cls-6{fill:#c2aacf;}.cls-7{fill:#3e4e60;}.cls-8{fill:#3f6c8e;}.cls-9{fill:#fff;}.cls-10{fill:#3f5d77;}.cls-11{fill:#f9c744;}.cls-12{fill:#f39e22;}.cls-13{fill:#f5b890;}.cls-14{fill:#d48d77;}.cls-15{fill:#f4829b;}.cls-16{fill:#f9f2f9;}.cls-17{fill:#9175a7;}.cls-18{fill:#fad98f;}.cls-19{fill:#c17e62;}.cls-20{fill:#a26d5a;}.cls-21{fill:#eea47d;}.cls-22{fill:#334353;}.cls-23{fill:#4fcae8;}.cls-24{fill:#22a8b9;}.cls-25{fill:#9b5b42;}.cls-26{fill:#8e4e3f;}.cls-27{fill:#cde6f6;}.cls-28{fill:#723e33;}.cls-29{fill:#442a21;}.cls-30{fill:#543029;}</style></defs><title>50-soccer-icons</title><circle class="cls-1" cx="256" cy="256" r="256"/><path class="cls-2" d="M507.89,301.92C486.25,421.39,381.7,512,256,512S25.75,421.39,4.11,301.92Z"/><circle class="cls-3" cx="195.8" cy="429.04" r="28.83"/><path class="cls-4" d="M218,410.6a29,29,0,0,0-9.61-7.52,28.66,28.66,0,0,0-12.55-2.87c-.89,0-1.77,0-2.63.12a28.74,28.74,0,0,0-4.38,6.78h0a28.55,28.55,0,0,0-2.65,12.09A28.77,28.77,0,0,0,215,448q1.33,0,2.64-.12a28.82,28.82,0,0,0,.36-37.3Z"/><path class="cls-5" d="M195.8,402.41a26.63,26.63,0,1,1-18.83,7.8,26.46,26.46,0,0,1,18.83-7.8m0-2.2A28.83,28.83,0,1,0,224.63,429a28.83,28.83,0,0,0-28.83-28.83Z"/><path class="cls-6" d="M224.6,427.92a28.8,28.8,0,0,0-31.44-27.59c-.67.79-1.31,1.61-1.9,2.46,25.67-4.11,41.47,26.76,23.23,45.23.73-.74,2.08,0,3.11-.12A28.79,28.79,0,0,0,224.6,427.92Z"/><path class="cls-5" d="M183.58,427.61a1.32,1.32,0,0,1-.39-.06L178.46,426a1.23,1.23,0,1,1,.77-2.34l4.73,1.55a1.23,1.23,0,0,1,.79,1.55A1.24,1.24,0,0,1,183.58,427.61Z"/><path class="cls-6" d="M195.79,418.71a1.23,1.23,0,0,1-1.23-1.23v-5.91a1.24,1.24,0,0,1,2.47,0v5.91A1.24,1.24,0,0,1,195.79,418.71Z"/><path class="cls-6" d="M208,427.59a1.23,1.23,0,0,1-.37-2.41l4.75-1.48a1.24,1.24,0,0,1,1.55.81,1.23,1.23,0,0,1-.81,1.54l-4.76,1.48A1.13,1.13,0,0,1,208,427.59Z"/><path class="cls-6" d="M205.38,444.89a1.24,1.24,0,0,1-1-.53l-2-2.92a1.23,1.23,0,0,1,2-1.42l2,2.93a1.22,1.22,0,0,1-.3,1.71A1.25,1.25,0,0,1,205.38,444.89Z"/><path class="cls-5" d="M186.14,444.83a1.24,1.24,0,0,1-1-2l2.16-2.84a1.23,1.23,0,0,1,2,1.48l-2.16,2.85A1.23,1.23,0,0,1,186.14,444.83Z"/><path class="cls-7" d="M192,457.62a28.82,28.82,0,0,1-21-13.8l13.54-.63a2.7,2.7,0,0,1,2.64,1.74Z"/><path class="cls-7" d="M178,426.27,167.59,435a29.34,29.34,0,0,1-.62-6,28.74,28.74,0,0,1,6.64-18.4l5.11,12.55A2.71,2.71,0,0,1,178,426.27Z"/><path class="cls-7" d="M224.63,429A28.86,28.86,0,0,1,224,435l-10.38-8.72a2.69,2.69,0,0,1-.77-3.08L218,410.6A28.74,28.74,0,0,1,224.63,429Z"/><path class="cls-8" d="M224.63,429A28.86,28.86,0,0,1,224,435l-10.38-8.72a2.69,2.69,0,0,1-.77-3.08L218,410.6A28.74,28.74,0,0,1,224.63,429Z"/><path class="cls-7" d="M194.22,418l-9.66,7a2.7,2.7,0,0,0-1,3l3.69,11.35a2.7,2.7,0,0,0,2.56,1.87h11.94a2.71,2.71,0,0,0,2.56-1.87L208,428a2.7,2.7,0,0,0-1-3l-9.66-7A2.7,2.7,0,0,0,194.22,418Z"/><path class="cls-8" d="M208,428l-3.69,11.35a2.69,2.69,0,0,1-2.56,1.86h-5.39a28.79,28.79,0,0,1-9.91-17.61l7.75-5.63a2.7,2.7,0,0,1,3.16,0l9.66,7A2.7,2.7,0,0,1,208,428Z"/><path class="cls-7" d="M220.61,443.73a28.93,28.93,0,0,1-20.93,13.88l4.37-11.72.37-1a2.7,2.7,0,0,1,2.64-1.75Z"/><path class="cls-8" d="M220.61,443.73a28.89,28.89,0,0,1-3,4.17q-1.31.12-2.64.12a28.9,28.9,0,0,1-10.91-2.13l.37-1a2.7,2.7,0,0,1,2.64-1.75Z"/><path class="cls-7" d="M208.35,403.08l-11,8a2.67,2.67,0,0,1-3.16,0l-5.43-3.94h0l-5.54-4a28.74,28.74,0,0,1,9.92-2.75c.86-.08,1.74-.12,2.63-.12A28.66,28.66,0,0,1,208.35,403.08Z"/><path class="cls-8" d="M208.35,403.08l-11,8a2.67,2.67,0,0,1-3.16,0l-5.43-3.94h0a28.74,28.74,0,0,1,4.38-6.78c.86-.08,1.74-.12,2.63-.12A28.66,28.66,0,0,1,208.35,403.08Z"/><circle class="cls-9" cx="206.78" cy="413.98" r="5.89"/><path class="cls-9" d="M220.76,400.84a1.45,1.45,0,0,1-2,.24,33.5,33.5,0,0,0-47,5.43,1.45,1.45,0,0,1-2.27-1.8,36.4,36.4,0,0,1,51.09-5.9A1.44,1.44,0,0,1,220.76,400.84Z"/><path class="cls-9" d="M239.28,410.15a1.5,1.5,0,0,1-.52.41,1.45,1.45,0,0,1-1.93-.69,41.91,41.91,0,0,0-55.7-20.07,1.45,1.45,0,1,1-1.23-2.62,44.81,44.81,0,0,1,59.55,21.45A1.46,1.46,0,0,1,239.28,410.15Z"/><path class="cls-10" d="M397,303.56l3.65,13.64a10.53,10.53,0,0,1-7.44,12.88l-42.81,11.47a10.51,10.51,0,0,1-12.87-7.44l-3.66-13.63Z"/><path class="cls-8" d="M382,307.59l6.37,23.79-37.94,10.17a10.51,10.51,0,0,1-12.87-7.44l-3.66-13.63Z"/><path class="cls-11" d="M338.51,358.13l11.24,42a11.4,11.4,0,0,1-5.81,13.1,11,11,0,0,1-2.25.86,11.4,11.4,0,0,1-14-8.06l-11.25-42a11.4,11.4,0,0,1,8.06-14,11.09,11.09,0,0,1,2.39-.37,11.26,11.26,0,0,1,6.26,1.51A11.4,11.4,0,0,1,338.51,358.13Z"/><path class="cls-12" d="M338.51,358.13l11.24,42a11.4,11.4,0,0,1-5.81,13.1l-17-63.51a11.26,11.26,0,0,1,6.26,1.51A11.4,11.4,0,0,1,338.51,358.13Z"/><path class="cls-13" d="M353.4,337.46l-16.32,28.27a11.4,11.4,0,0,1-19.75-11.4l16.33-28.27a11.39,11.39,0,0,1,15.57-4.18,11.39,11.39,0,0,1,5.31,6.92A11.34,11.34,0,0,1,353.4,337.46Z"/><path class="cls-14" d="M353.4,337.46l-16.32,28.27a11.4,11.4,0,0,1-13.37,5.15l27.47-47.58a11.2,11.2,0,0,1,3.36,5.5A11.34,11.34,0,0,1,353.4,337.46Z"/><path class="cls-15" d="M302.49,438.48a2.11,2.11,0,0,1-2.66-1.38l-.64-2,4-1.28.64,2A2.13,2.13,0,0,1,302.49,438.48Z"/><path class="cls-15" d="M311.33,436.69a2.13,2.13,0,0,1-2.66-1.38l-.64-2,4-1.28.64,2A2.12,2.12,0,0,1,311.33,436.69Z"/><path class="cls-15" d="M319.61,435a2.11,2.11,0,0,1-2.66-1.38l-.64-2,4-1.28.64,2A2.13,2.13,0,0,1,319.61,435Z"/><path class="cls-15" d="M346.53,427.18a2.13,2.13,0,0,1-2.66-1.38l-.64-2,4-1.29.64,2A2.12,2.12,0,0,1,346.53,427.18Z"/><path class="cls-15" d="M352.71,425.21a2.12,2.12,0,0,1-2.66-1.37l-.64-2,4-1.29.64,2A2.11,2.11,0,0,1,352.71,425.21Z"/><path class="cls-16" d="M349.62,399.81a5.1,5.1,0,0,1,5.32,3.54l2.84,9a6.6,6.6,0,0,1-4.31,8.28l-10.22,3.22a4.37,4.37,0,0,1-3.18-.21,5.55,5.55,0,0,0-5.72.62,39.21,39.21,0,0,1-11.87,6.14l-23.3,4.68a6.13,6.13,0,0,1-7.06-4.17c-.91-4.31,2.52-8.7,6.86-9.23a18.43,18.43,0,0,0,7.61-2.88c3.67-2.25,13.36-11.53,18-15.7a5.11,5.11,0,0,1,3-1.29Z"/><path class="cls-17" d="M357.78,412.36a6.6,6.6,0,0,1-4.31,8.28l-10.22,3.22a4.37,4.37,0,0,1-3.18-.21,5.55,5.55,0,0,0-5.72.62,39.21,39.21,0,0,1-11.87,6.14l-23.3,4.68a6.13,6.13,0,0,1-7.06-4.17,37,37,0,0,0,13.31-.41l15-3.23q3.42-.73,6.75-1.8l17-5.47a38.45,38.45,0,0,0,7.17-3.13A38,38,0,0,0,357.78,412.36Z"/><path class="cls-9" d="M354.94,403.35c-3.09,2.23-6,4.7-9.44,6.35a19.43,19.43,0,0,1-7.73,1.94c-20.71,1.3-22.72,15-45.29,15.23a8.2,8.2,0,0,1,6.5-5.18,18.43,18.43,0,0,0,7.61-2.88c4-2.47,14.3-12.48,18-15.69a5.07,5.07,0,0,1,3-1.31l22.05-2A5.12,5.12,0,0,1,354.94,403.35Z"/><path class="cls-3" d="M323.49,405.84c1.38-3.79.57-7.33-1.89-8.22s-5.35,1.29-6.73,5.08a8.28,8.28,0,0,0,.19,5.44l0,0a8.33,8.33,0,0,0-4-3.65c-3.79-1.38-7.32-.56-8.21,1.9s1.29,5.35,5.08,6.73c2.61.95,5.45-.11,6.82-.77a3.13,3.13,0,0,0,.3.2l6.74,3.9a2.54,2.54,0,0,0,3.46-.93,2.53,2.53,0,0,0-.92-3.46l-4.12-2.38A8.09,8.09,0,0,0,323.49,405.84Zm-12.19,4.89a4.87,4.87,0,0,1-2.54-.1c-2.49-.91-3.74-2.59-3.48-3.31.63-1.35,5.33-1,6.8,1.25A1.35,1.35,0,0,1,311.3,410.73Zm8.13-3.8a1.33,1.33,0,0,1-2.15-.78,4.67,4.67,0,0,1,.1-2.54c.9-2.48,2.59-3.74,3.3-3.48C322,400.77,321.69,405.46,319.43,406.93Z"/><path class="cls-8" d="M347.13,351.83l-22.79-13.15a5.07,5.07,0,0,1-1.85-6.92l1.86-3.21c5-8.72,16.38-12.06,25.09-7h0c8.71,5,11.49,16.53,6.46,25.24L354,350A5.06,5.06,0,0,1,347.13,351.83Z"/><path class="cls-11" d="M404.93,344l37.64,21.72a11.4,11.4,0,0,1-11.4,19.75L393.53,363.7a11.4,11.4,0,0,1-4.17-15.57,10.84,10.84,0,0,1,1.42-1.95A11.36,11.36,0,0,1,404.93,344Z"/><path class="cls-12" d="M404.93,344l37.64,21.72a11.4,11.4,0,0,1,5.15,13.37l-56.94-32.87A11.36,11.36,0,0,1,404.93,344Z"/><path class="cls-13" d="M400.85,318.81l8.45,31.53a11.4,11.4,0,0,1-5.81,13.1,11.26,11.26,0,0,1-2.25.86,11.4,11.4,0,0,1-14-8.06l-8.45-31.53a11.4,11.4,0,0,1,8.06-14,11.56,11.56,0,0,1,2.38-.38,11.41,11.41,0,0,1,11.58,8.45Z"/><path class="cls-14" d="M400.85,318.81l8.45,31.53a11.4,11.4,0,0,1-5.81,13.1l-14.22-53.08a11.41,11.41,0,0,1,11.58,8.45Z"/><path class="cls-15" d="M436.28,426.24a2.11,2.11,0,0,1-2.85.91l-1.89-1,1.95-3.76,1.89,1A2.1,2.1,0,0,1,436.28,426.24Z"/><path class="cls-15" d="M441.27,418.72a2.12,2.12,0,0,1-2.86.91l-1.88-1,2-3.76,1.88,1A2.12,2.12,0,0,1,441.27,418.72Z"/><path class="cls-15" d="M445.94,411.68a2.12,2.12,0,0,1-2.86.91l-1.88-1,1.95-3.76,1.88,1A2.12,2.12,0,0,1,445.94,411.68Z"/><path class="cls-15" d="M459.44,387.1a2.12,2.12,0,0,1-2.86.91l-1.88-1,1.95-3.76,1.88,1A2.12,2.12,0,0,1,459.44,387.1Z"/><path class="cls-15" d="M462.42,381.35a2.12,2.12,0,0,1-2.86.9l-1.88-1,1.95-3.77,1.88,1A2.12,2.12,0,0,1,462.42,381.35Z"/><path class="cls-16" d="M442.26,365.57a5.11,5.11,0,0,1,6.27-1.25l8.38,4.36a6.59,6.59,0,0,1,2.81,8.89l-5,9.51a4.44,4.44,0,0,1-2.4,2.11,5.54,5.54,0,0,0-3.61,4.47,38.89,38.89,0,0,1-4.05,12.74l-13.16,19.79a6.14,6.14,0,0,1-7.94,2c-3.69-2.4-4.37-7.93-1.68-11.38a18.28,18.28,0,0,0,3.34-7.42c1-4.18,1.3-17.6,1.61-23.81a5.13,5.13,0,0,1,1.18-3Z"/><path class="cls-17" d="M456.91,368.68a6.59,6.59,0,0,1,2.81,8.89l-5,9.51a4.44,4.44,0,0,1-2.4,2.11,5.54,5.54,0,0,0-3.61,4.47,38.89,38.89,0,0,1-4.05,12.74l-13.16,19.79a6.14,6.14,0,0,1-7.94,2,37.14,37.14,0,0,0,9.12-9.71l8.32-12.88a69.6,69.6,0,0,0,3.49-6l8.19-15.92a38.83,38.83,0,0,0,4.18-15Z"/><path class="cls-9" d="M448.53,364.32c-.61,3.76-.94,7.58-2.18,11.15a19.46,19.46,0,0,1-4.1,6.84C428.53,397.87,436.8,409,421,425.11a8.19,8.19,0,0,1,.93-8.26,18.28,18.28,0,0,0,3.34-7.42c1.1-4.58,1.29-18.93,1.64-23.82a5.06,5.06,0,0,1,1.17-3l14.18-17A5.1,5.1,0,0,1,448.53,364.32Z"/><path class="cls-3" d="M428.05,388.31c-1.7-3.66-4.78-5.58-7.15-4.47s-2.87,4.69-1.16,8.35a8.25,8.25,0,0,0,4,3.7v0a8.3,8.3,0,0,0-5.44.28c-3.65,1.71-5.57,4.78-4.47,7.15s4.7,2.88,8.35,1.17c2.53-1.18,3.78-3.93,4.29-5.37l.35-.06,7.52-2a2.53,2.53,0,1,0-1.31-4.89l-4.59,1.23A8,8,0,0,0,428.05,388.31Zm-5.16,12.08a4.77,4.77,0,0,1-1.87,1.72c-2.4,1.12-4.47.82-4.8.12-.5-1.4,3.06-4.47,5.7-3.92A1.34,1.34,0,0,1,422.89,400.39ZM426,392a1.34,1.34,0,0,1-2.08,1,4.67,4.67,0,0,1-1.72-1.86c-1.12-2.4-.82-4.48-.13-4.8C423.44,385.75,426.51,389.32,426,392Z"/><path class="cls-10" d="M409.19,323.62l1,3.59a5.05,5.05,0,0,1-3.57,6.2l-25.42,6.81a5.06,5.06,0,0,1-6.19-3.58l-1-3.59a18.72,18.72,0,0,1,9.07-21.24,17.1,17.1,0,0,1,3.7-1.47,18,18,0,0,1,13.88,2A18.82,18.82,0,0,1,409.19,323.62Z"/><path class="cls-8" d="M383.08,311.81l7,26-8.89,2.38a5.06,5.06,0,0,1-6.19-3.58l-1-3.59A18.72,18.72,0,0,1,383.08,311.81Z"/><path class="cls-12" d="M333.41,247.78c10.83,24.56,13.28,39.69,7.76,49.26-9.84,16.22-32.35,8.9-52.22,2.91l1.78-5.8,3.45-11.24c8.16,2.5,16.68,5,23.26,5.86a31.14,31.14,0,0,0,4.67.28,4.17,4.17,0,0,0,4-4.19c0-4.16-1.53-12.81-9.06-29.88l9-4Z"/><path class="cls-11" d="M326.12,251c10.71,20.95,13.52,33.84,9,41.73-7.69,12.56-26.43,7.38-44.36,1.43l3.45-11.24c8.16,2.5,16.68,5,23.26,5.86a31.14,31.14,0,0,0,4.67.28,4.17,4.17,0,0,0,4-4.19c0-4.16-1.53-12.81-9.06-29.88Z"/><path class="cls-13" d="M296.77,282l-13.53-7.81a4,4,0,0,0-5.42,1.45l-1.05,1.82a4,4,0,0,0,1.45,5.42l4.84,2.79-16.67,4.47a2.62,2.62,0,0,0-1.86,3.21l.36,1.34a2.62,2.62,0,0,0,3.21,1.85l-3.61,1a2.62,2.62,0,0,0-1.85,3.21l.36,1.34a2.62,2.62,0,0,0,3.21,1.86l4-1.07a2.63,2.63,0,0,0-1.85,3.21l.36,1.34a2.61,2.61,0,0,0,3.21,1.85l7.36-2a2.63,2.63,0,0,0-1.85,3.21l.36,1.34a2.61,2.61,0,0,0,3.21,1.85l16.23-4.34a9.15,9.15,0,0,0,5.56-4.27l.15-.27a9.11,9.11,0,0,0,.76-6.67l-2.93-10.93a8.6,8.6,0,0,0-4-5.21Z"/><path class="cls-14" d="M280.41,291.83l-.27.08-12.4,3.32a2.64,2.64,0,0,1-3.21-1.85h0l.36,1.34a2.62,2.62,0,0,0,3.21,1.85l14-3.75S281.16,291.64,280.41,291.83Z"/><path class="cls-14" d="M284.23,304.54l-.27.08-12.4,3.32a2.63,2.63,0,0,1-3.21-1.86h0l.36,1.35a2.62,2.62,0,0,0,3.21,1.85l14-3.75S285,304.34,284.23,304.54Z"/><path class="cls-14" d="M280.73,298.61l-.27.08-14.61,3.91a2.61,2.61,0,0,1-3.21-1.85h0l.36,1.34a2.62,2.62,0,0,0,3.21,1.86l16.23-4.35S281.48,298.42,280.73,298.61Z"/><path class="cls-14" d="M278.22,282.91l4.84,2.79,2.9-.78-6.7-3.86a3.94,3.94,0,0,1-1.44-5.39l-1.05,1.82A4,4,0,0,0,278.22,282.91Z"/><path class="cls-14" d="M303.69,298.17a9.09,9.09,0,0,1-.68,6.51.25.25,0,0,1,0,.07.36.36,0,0,1,0,.09h0a9.1,9.1,0,0,1-5.7,4.54L281,313.73a2.63,2.63,0,0,1-3.21-1.86l-.36-1.34h0a2.62,2.62,0,0,0,3.21,1.85l14.62-3.91.07,0a8.35,8.35,0,0,0,5.68-6.3,5.52,5.52,0,0,1,2.4-3.79Z"/><path class="cls-12" d="M397,303.56l-15.93-59.43a24.31,24.31,0,0,0-29.78-17.2l-16.15,4.33a24.32,24.32,0,0,0-17.2,29.79l15.93,59.43Z"/><path class="cls-11" d="M333.85,320.48l-15.93-59.43a24.32,24.32,0,0,1,17.2-29.79l1.11-.3A24.32,24.32,0,0,1,366,248.16L382,307.59Z"/><path class="cls-18" d="M368.47,264.47l-2.7,3.39a4.58,4.58,0,0,1-5.25,1.41l-4-1.59a4.55,4.55,0,0,1-2.74-3.07l-2.81-10.46a3,3,0,0,1,2.11-3.66l9.81-2.63a3,3,0,0,1,3.66,2.11l2.8,10.47A4.57,4.57,0,0,1,368.47,264.47Z"/><path class="cls-12" d="M365.17,239.29a7.84,7.84,0,0,1,4.26-10.44c20.23-8.11,33.23-9.54,41.79-4.6,16.22,9.84,8.9,32.35,2.91,52.22l-5.8-1.78-11.24-3.46c2.5-8.16,5-16.67,5.86-23.26a29.57,29.57,0,0,0,.27-4.67,4.25,4.25,0,0,0-4.19-4c-3.77,0-11.23,1.27-25.29,7.1a5.08,5.08,0,0,1-6.61-2.63l-2-4.44Z"/><path class="cls-11" d="M367.13,243.73a5.08,5.08,0,0,1,2.45-6.63c18.37-8.88,30-11,37.32-6.77,12.55,7.68,7.38,26.43,1.43,44.36l-11.24-3.46c2.5-8.16,5-16.67,5.86-23.26a29.51,29.51,0,0,0,.27-4.66,4.19,4.19,0,0,0-4.19-4.05c-3.77,0-11.23,1.27-25.29,7.1a5.08,5.08,0,0,1-6.61-2.63Z"/><path class="cls-13" d="M396.21,268.65l-7.81,13.53a4,4,0,0,0,1.45,5.42l1.82,1a4,4,0,0,0,5.41-1.45l2.8-4.84L404.35,299a2.6,2.6,0,0,0,3.2,1.85l1.35-.36a2.61,2.61,0,0,0,1.85-3.21l1,3.61a2.63,2.63,0,0,0,3.21,1.86l1.34-.36a2.62,2.62,0,0,0,1.85-3.21l-1.07-4a2.63,2.63,0,0,0,3.21,1.86l1.35-.36a2.63,2.63,0,0,0,1.85-3.21l-2-7.37A2.61,2.61,0,0,0,424.7,288l1.34-.36a2.62,2.62,0,0,0,1.85-3.21l-4.35-16.23a9.08,9.08,0,0,0-4.26-5.55c-.09-.05-.18-.11-.27-.15a9.11,9.11,0,0,0-6.67-.77l-10.93,2.93a8.62,8.62,0,0,0-5.21,4Z"/><path class="cls-14" d="M406,285l.08.27,3.32,12.4a2.63,2.63,0,0,1-1.85,3.21h0l1.34-.36a2.61,2.61,0,0,0,1.85-3.21l-3.75-14S405.82,284.26,406,285Z"/><path class="cls-14" d="M418.72,281.18l.07.28,3.33,12.39a2.62,2.62,0,0,1-1.86,3.21h0l1.35-.36a2.63,2.63,0,0,0,1.85-3.21l-3.76-14S418.52,280.44,418.72,281.18Z"/><path class="cls-14" d="M412.79,284.68l.08.27,3.91,14.62a2.62,2.62,0,0,1-1.85,3.21h0l1.34-.36a2.62,2.62,0,0,0,1.85-3.21L413.78,283S412.59,283.94,412.79,284.68Z"/><path class="cls-14" d="M397.09,287.2l2.79-4.84-.78-2.9-3.86,6.69a4,4,0,0,1-5.4,1.45l1.83,1A4,4,0,0,0,397.09,287.2Z"/><path class="cls-14" d="M412.35,261.72a9.09,9.09,0,0,1,6.51.69l.07,0,.09,0h0a9.1,9.1,0,0,1,4.54,5.7l4.35,16.23a2.62,2.62,0,0,1-1.86,3.21l-1.34.36h0a2.61,2.61,0,0,0,1.85-3.21l-3.91-14.61,0-.07a8.35,8.35,0,0,0-6.3-5.68,5.52,5.52,0,0,1-3.79-2.4Z"/><path class="cls-13" d="M330.12,222l3,11.33A10.8,10.8,0,0,0,346.38,241,10.79,10.79,0,0,0,354,227.76l-3-11.33Z"/><path class="cls-14" d="M351,216.43l3,11.33a10.79,10.79,0,0,1-2.73,10.36L348,226a31.7,31.7,0,0,1-11.16,5.51,33.75,33.75,0,0,1-4,.81L330.12,222Z"/><path class="cls-14" d="M361.59,160.48h5.36a0,0,0,0,1,0,0v16.76a0,0,0,0,1,0,0h-5.36a8.38,8.38,0,0,1-8.38-8.38v0A8.38,8.38,0,0,1,361.59,160.48Z" transform="translate(751.6 238.76) rotate(165)"/><path class="cls-19" d="M356.89,165.84h5.63a0,0,0,0,1,0,0V173a0,0,0,0,1,0,0h-5.63a3.6,3.6,0,0,1-3.6-3.6v0A3.6,3.6,0,0,1,356.89,165.84Z" transform="translate(747.47 240.47) rotate(165)"/><path class="cls-14" d="M289.91,180.09h2.35a0,0,0,0,1,0,0v16.76a0,0,0,0,1,0,0h-2.35a8.38,8.38,0,0,1-8.38-8.38v0A8.38,8.38,0,0,1,289.91,180.09Z" transform="translate(-39 80.68) rotate(-15)"/><path class="cls-19" d="M289.57,184.29h2.62a0,0,0,0,1,0,0v7.19a0,0,0,0,1,0,0h-2.62a3.6,3.6,0,0,1-3.6-3.6v0a3.6,3.6,0,0,1,3.6-3.6Z" transform="translate(-38.78 81.22) rotate(-15)"/><path class="cls-20" d="M295.87,177.39l1.4,5.22a12.41,12.41,0,0,1-15.19-8.77l-6.52-24.33,12-3.21Z"/><path class="cls-14" d="M285.08,161,296.5,203.6a31.78,31.78,0,0,0,31.83,23.53,31,31,0,0,0,7.08-1.07,31.77,31.77,0,0,0,22.47-38.9l-11.42-42.63a17.41,17.41,0,0,0-21.33-12.31l-27.74,7.43A17.41,17.41,0,0,0,285.08,161Z"/><path class="cls-13" d="M285.08,161,296.5,203.6a31.78,31.78,0,0,0,31.83,23.53,31.77,31.77,0,0,0,15.79-36.29l-4.37-16.31a44.67,44.67,0,0,0-46.88-32.95A17.41,17.41,0,0,0,285.08,161Z"/><rect class="cls-21" x="310.98" y="182.32" width="16.11" height="9.63" rx="4.82" transform="translate(675.63 285.33) rotate(165)"/><rect class="cls-21" x="309.74" y="136.13" width="8.13" height="49.93" transform="translate(658.6 235.49) rotate(165)"/><rect class="cls-22" x="324.52" y="160.29" width="8.8" height="16.49" rx="4.4" transform="translate(690.26 246.19) rotate(165)"/><rect class="cls-22" x="300.02" y="166.85" width="8.8" height="16.49" rx="4.4" transform="translate(643.78 265.44) rotate(165)"/><path class="cls-20" d="M355.62,178.73l5.17-1.39a8.28,8.28,0,0,0,2.47-1.12l.58,2.16a8,8,0,0,1-5.69,9.85Z"/><path class="cls-20" d="M351.28,162.52l5.17-1.38a8,8,0,0,1,2.56-.24l.14,0-5.68-21.18a18.42,18.42,0,0,0-22.56-13l-20.65,5.53,1.19,4.45a10.87,10.87,0,0,0,13.32,7.68h0a6.66,6.66,0,0,1,8.15,4.71l1,3.78a13.87,13.87,0,0,0,17,9.8l.37-.08Z"/><rect class="cls-19" x="271.39" y="134.7" width="61.15" height="15.47" rx="7.74" transform="translate(-26.58 83.01) rotate(-15)"/><path class="cls-19" d="M321.73,212a2.87,2.87,0,0,1-2-4.95l12-11.33a2.87,2.87,0,0,1,4,4.16l-12,11.34A2.86,2.86,0,0,1,321.73,212Z"/><path class="cls-10" d="M203.62,252l3.66,13.64a10.51,10.51,0,0,1-7.44,12.87L157,290a10.51,10.51,0,0,1-12.88-7.43l-3.65-13.64Z"/><path class="cls-8" d="M188.59,256,195,279.82,157,290a10.51,10.51,0,0,1-12.88-7.43l-3.65-13.64Z"/><path class="cls-23" d="M141.24,320l-21.72,37.64a11.4,11.4,0,0,1-13.37,5.15,11.66,11.66,0,0,1-2.21-1,11.4,11.4,0,0,1-4.17-15.57l21.73-37.64a11.4,11.4,0,0,1,15.57-4.17,10.8,10.8,0,0,1,2,1.41A11.38,11.38,0,0,1,141.24,320Z"/><path class="cls-24" d="M141.24,320l-21.72,37.64a11.4,11.4,0,0,1-13.37,5.15L139,305.83A11.38,11.38,0,0,1,141.24,320Z"/><path class="cls-25" d="M160.05,285.89l-16.33,28.28A11.4,11.4,0,0,1,124,302.77l16.32-28.28a11.41,11.41,0,0,1,15.58-4.17,11.55,11.55,0,0,1,2,1.41,11.42,11.42,0,0,1,2.22,14.16Z"/><path class="cls-26" d="M160.05,285.89l-16.33,28.28a11.39,11.39,0,0,1-13.37,5.15l27.48-47.59a11.42,11.42,0,0,1,2.22,14.16Z"/><path class="cls-15" d="M59,351.34a2.12,2.12,0,0,1-.91-2.86l1-1.88,3.76,1.95-1,1.88A2.12,2.12,0,0,1,59,351.34Z"/><path class="cls-15" d="M66.48,356.33a2.12,2.12,0,0,1-.91-2.86l1-1.88,3.76,2-1,1.88A2.12,2.12,0,0,1,66.48,356.33Z"/><path class="cls-15" d="M73.52,361a2.11,2.11,0,0,1-.91-2.85l1-1.89,3.76,2-1,1.88A2.1,2.1,0,0,1,73.52,361Z"/><path class="cls-15" d="M98.1,374.49a2.11,2.11,0,0,1-.91-2.85l1-1.89,3.76,1.95-1,1.89A2.1,2.1,0,0,1,98.1,374.49Z"/><path class="cls-15" d="M103.85,377.48a2.12,2.12,0,0,1-.9-2.86l1-1.88,3.77,1.95-1,1.88A2.12,2.12,0,0,1,103.85,377.48Z"/><path class="cls-16" d="M119.63,357.32a5.09,5.09,0,0,1,1.25,6.27L116.52,372a6.59,6.59,0,0,1-8.89,2.81l-9.51-4.95a4.44,4.44,0,0,1-2.11-2.4,5.54,5.54,0,0,0-4.47-3.61,39.13,39.13,0,0,1-12.74-4.05L59,346.61a6.14,6.14,0,0,1-2-7.94c2.4-3.69,7.93-4.37,11.38-1.68a18.28,18.28,0,0,0,7.42,3.34c4.18,1,17.6,1.3,23.81,1.61a5.13,5.13,0,0,1,3,1.18Z"/><path class="cls-17" d="M116.52,372a6.59,6.59,0,0,1-8.89,2.81l-9.51-4.95a4.44,4.44,0,0,1-2.11-2.4,5.54,5.54,0,0,0-4.47-3.61,39.13,39.13,0,0,1-12.74-4.05L59,346.61a6.14,6.14,0,0,1-2-7.94,37.14,37.14,0,0,0,9.71,9.12l12.88,8.32a69.6,69.6,0,0,0,6,3.49l15.92,8.18a38.62,38.62,0,0,0,15,4.19Z"/><path class="cls-9" d="M120.88,363.59c-3.76-.61-7.58-.94-11.15-2.19a19.29,19.29,0,0,1-6.84-4.09c-15.56-13.72-26.67-5.46-42.8-21.25a8.19,8.19,0,0,1,8.26.93,18.28,18.28,0,0,0,7.42,3.34c4.58,1.1,18.93,1.29,23.82,1.63a5.14,5.14,0,0,1,3,1.18l17,14.18A5.1,5.1,0,0,1,120.88,363.59Z"/><path class="cls-3" d="M96.89,343.11c3.66-1.7,5.58-4.78,4.47-7.15s-4.69-2.87-8.35-1.17a8.32,8.32,0,0,0-3.7,4h0a8.3,8.3,0,0,0-.28-5.44c-1.71-3.65-4.78-5.58-7.15-4.47s-2.88,4.7-1.17,8.35c1.18,2.52,3.93,3.78,5.37,4.29a2.33,2.33,0,0,0,.06.35l2,7.52a2.53,2.53,0,0,0,3.1,1.79,2.53,2.53,0,0,0,1.79-3.1l-1.23-4.59A8.14,8.14,0,0,0,96.89,343.11ZM84.81,338a4.77,4.77,0,0,1-1.72-1.87c-1.12-2.4-.82-4.48-.12-4.8,1.4-.5,4.47,3.06,3.92,5.7A1.34,1.34,0,0,1,84.81,338ZM93.25,341a1.33,1.33,0,0,1-1-2.07,4.67,4.67,0,0,1,1.86-1.72c2.4-1.12,4.48-.82,4.8-.13C99.45,338.5,95.88,341.57,93.25,341Z"/><path class="cls-8" d="M153.77,300.27,131,287.11a5.05,5.05,0,0,1-1.85-6.91L131,277c5-8.71,16.37-12.05,25.08-7h0c8.72,5,11.5,16.53,6.47,25.24l-1.86,3.22A5.07,5.07,0,0,1,153.77,300.27Z"/><path class="cls-23" d="M211.58,292.39l37.63,21.73a11.41,11.41,0,0,1,5.16,13.37,11.93,11.93,0,0,1-1,2.2,11.42,11.42,0,0,1-15.58,4.18l-37.63-21.73A11.41,11.41,0,0,1,196,296.56a11.6,11.6,0,0,1,1.42-1.95,11.41,11.41,0,0,1,14.16-2.22Z"/><path class="cls-24" d="M211.58,292.39l37.63,21.73a11.41,11.41,0,0,1,5.16,13.37l-57-32.88a11.41,11.41,0,0,1,14.16-2.22Z"/><path class="cls-25" d="M207.5,267.24,216,298.78a11.4,11.4,0,0,1-22,5.9l-8.45-31.54a11.4,11.4,0,0,1,8.06-14,11.12,11.12,0,0,1,2.38-.38,11.44,11.44,0,0,1,11.59,8.44Z"/><path class="cls-26" d="M207.5,267.24,216,298.78a11.42,11.42,0,0,1-5.81,13.1L195.91,258.8a11.44,11.44,0,0,1,11.59,8.44Z"/><path class="cls-15" d="M242.93,374.68a2.13,2.13,0,0,1-2.86.91l-1.88-1,1.95-3.76,1.88,1A2.12,2.12,0,0,1,242.93,374.68Z"/><path class="cls-15" d="M247.91,367.16a2.12,2.12,0,0,1-2.85.91l-1.88-1,1.95-3.76,1.88,1A2.12,2.12,0,0,1,247.91,367.16Z"/><path class="cls-15" d="M252.58,360.12a2.12,2.12,0,0,1-2.86.91l-1.88-1,1.95-3.76,1.88,1A2.12,2.12,0,0,1,252.58,360.12Z"/><path class="cls-15" d="M266.08,335.54a2.12,2.12,0,0,1-2.86.91l-1.88-1,2-3.76,1.88,1A2.12,2.12,0,0,1,266.08,335.54Z"/><path class="cls-15" d="M269.06,329.78a2.11,2.11,0,0,1-2.85.91l-1.88-1,1.95-3.77,1.88,1A2.11,2.11,0,0,1,269.06,329.78Z"/><path class="cls-16" d="M248.91,314a5.09,5.09,0,0,1,6.27-1.25l8.38,4.36a6.59,6.59,0,0,1,2.8,8.89l-4.95,9.51a4.36,4.36,0,0,1-2.39,2.1,5.57,5.57,0,0,0-3.61,4.48,39.13,39.13,0,0,1-4,12.74l-13.17,19.78a6.13,6.13,0,0,1-7.93,2.05c-3.7-2.41-4.37-7.94-1.68-11.38a18.28,18.28,0,0,0,3.34-7.42c1-4.18,1.3-17.6,1.61-23.81a5.13,5.13,0,0,1,1.18-3Z"/><path class="cls-17" d="M263.56,317.12a6.59,6.59,0,0,1,2.8,8.89l-4.95,9.51a4.36,4.36,0,0,1-2.39,2.1,5.57,5.57,0,0,0-3.61,4.48,39.13,39.13,0,0,1-4,12.74l-13.17,19.78a6.13,6.13,0,0,1-7.93,2.05,36.93,36.93,0,0,0,9.11-9.71l8.32-12.88a69.87,69.87,0,0,0,3.5-6.05l8.18-15.91a38.62,38.62,0,0,0,4.19-15Z"/><path class="cls-9" d="M255.18,312.76c-.61,3.76-1,7.58-2.19,11.15a19.58,19.58,0,0,1-4.09,6.84c-13.73,15.56-5.46,26.67-21.26,42.8a8.21,8.21,0,0,1,.93-8.26,18.17,18.17,0,0,0,3.35-7.42c1.09-4.58,1.29-18.94,1.63-23.82a5.07,5.07,0,0,1,1.18-3l14.18-17A5.1,5.1,0,0,1,255.18,312.76Z"/><path class="cls-3" d="M234.7,336.75c-1.71-3.66-4.78-5.58-7.15-4.48s-2.87,4.7-1.17,8.36a8.27,8.27,0,0,0,4,3.7l0,0a8.27,8.27,0,0,0-5.43.28c-3.66,1.71-5.58,4.78-4.47,7.15s4.69,2.87,8.35,1.17c2.52-1.18,3.78-3.93,4.28-5.37l.35-.07,7.53-2a2.53,2.53,0,0,0-1.31-4.89l-4.6,1.23A8.06,8.06,0,0,0,234.7,336.75Zm-5.17,12.08a4.74,4.74,0,0,1-1.86,1.72c-2.4,1.12-4.48.81-4.8.12-.51-1.4,3.06-4.48,5.69-3.92A1.34,1.34,0,0,1,229.53,348.83Zm3.07-8.44a1.34,1.34,0,0,1-2.08,1,4.74,4.74,0,0,1-1.72-1.86c-1.12-2.4-.81-4.48-.12-4.8C230.08,334.19,233.16,337.76,232.6,340.39Z"/><path class="cls-10" d="M215.84,272.06l1,3.59a5.07,5.07,0,0,1-3.57,6.2l-25.42,6.81a5.05,5.05,0,0,1-6.19-3.59l-1-3.59a18.74,18.74,0,0,1,9.07-21.24,17.71,17.71,0,0,1,17.58.56A18.84,18.84,0,0,1,215.84,272.06Z"/><path class="cls-8" d="M189.72,260.24l7,26-8.89,2.39a5.05,5.05,0,0,1-6.19-3.59l-1-3.59A18.74,18.74,0,0,1,189.72,260.24Z"/><path class="cls-24" d="M143.07,198.5c-9.71,25-18.68,37.46-29.35,40.32-18.43,4.51-29.17-16.58-39-34.87l5.36-2.84,10.39-5.51c4,7.54,8.24,15.34,12.3,20.6a30.37,30.37,0,0,0,3.11,3.49,4.17,4.17,0,0,0,5.82-.1c2.92-3,8-10.14,14.72-27.54l9.2,3.57Z"/><path class="cls-23" d="M135.64,195.62c-7.24,22.38-14.37,33.49-23.16,35.84C98.16,234.91,88.57,218,80.1,201.11l10.39-5.51c4,7.54,8.24,15.34,12.3,20.6a30.37,30.37,0,0,0,3.11,3.49,4.17,4.17,0,0,0,5.82-.1c2.92-3,8-10.14,14.72-27.54Z"/><path class="cls-25" d="M92.94,196.81l-4-15.09A4,4,0,0,0,84,178.91l-2,.55a4,4,0,0,0-2.81,4.85l1.45,5.4-15-8.63a2.62,2.62,0,0,0-3.58,1l-.7,1.2a2.62,2.62,0,0,0,1,3.58L59.15,185a2.62,2.62,0,0,0-3.58.95l-.7,1.21a2.63,2.63,0,0,0,1,3.58l3.58,2.07a2.61,2.61,0,0,0-3.58,1l-.69,1.2a2.62,2.62,0,0,0,1,3.58l6.6,3.81a2.63,2.63,0,0,0-3.58,1l-.7,1.21a2.63,2.63,0,0,0,1,3.58l14.55,8.4a9.14,9.14,0,0,0,6.95.91c.1,0,.2,0,.3-.09a9.07,9.07,0,0,0,5.25-4.17l5.66-9.8a8.56,8.56,0,0,0,.86-6.51Z"/><path class="cls-26" d="M74.44,192.18,74.2,192l-11.12-6.42a2.62,2.62,0,0,1-1-3.58h0l-.69,1.21a2.62,2.62,0,0,0,1,3.58L75,194.08S75.1,192.56,74.44,192.18Z"/><path class="cls-26" d="M68.15,203.86l-.24-.14-11.12-6.41a2.63,2.63,0,0,1-1-3.58h0l-.69,1.2a2.63,2.63,0,0,0,1,3.58l12.56,7.25S68.82,204.25,68.15,203.86Z"/><path class="cls-26" d="M69.87,197.2l-.24-.14-13.1-7.57a2.6,2.6,0,0,1-1-3.57h0l-.7,1.2a2.63,2.63,0,0,0,1,3.58l14.55,8.4S70.54,197.58,69.87,197.2Z"/><path class="cls-26" d="M79.2,184.31l1.45,5.4,2.59,1.5-2-7.46a4,4,0,0,1,2.8-4.84l-2,.55A4,4,0,0,0,79.2,184.31Z"/><path class="cls-26" d="M86.42,213.12a9.11,9.11,0,0,1-5.09,4.12l-.07,0-.09,0h0a9.08,9.08,0,0,1-7.24-.82l-14.55-8.4a2.63,2.63,0,0,1-1-3.58l.7-1.2h0a2.62,2.62,0,0,0,1,3.58l13.11,7.56.06,0A8.37,8.37,0,0,0,81.7,214a5.52,5.52,0,0,1,4.37-1Z"/><path class="cls-24" d="M203.62,252,187.7,192.57a24.32,24.32,0,0,0-29.79-17.2l-16.15,4.32a24.32,24.32,0,0,0-17.19,29.79l15.92,59.43Z"/><path class="cls-23" d="M140.49,268.91l-15.92-59.43a24.32,24.32,0,0,1,17.19-29.79l1.12-.29a24.32,24.32,0,0,1,29.79,17.2L188.59,256Z"/><path class="cls-27" d="M175.12,212.91l-2.71,3.39a4.58,4.58,0,0,1-5.25,1.41l-4-1.59a4.58,4.58,0,0,1-2.74-3.07l-2.8-10.47a3,3,0,0,1,2.11-3.65l9.8-2.63a3,3,0,0,1,3.66,2.11L176,208.87A4.62,4.62,0,0,1,175.12,212.91Z"/><path class="cls-24" d="M172.54,186.7a7.83,7.83,0,0,1,4.27-10.43c20.22-8.11,33.22-9.55,41.78-4.61,16.22,9.84,8.9,32.35,2.91,52.22l-5.8-1.78-11.24-3.45c2.5-8.16,5-16.68,5.86-23.27a31,31,0,0,0,.28-4.66,4.24,4.24,0,0,0-4.2-4c-3.77,0-11.23,1.26-25.29,7.1a5.09,5.09,0,0,1-6.61-2.64l-2-4.44Z"/><path class="cls-23" d="M174.5,191.14a5.08,5.08,0,0,1,2.45-6.63c18.37-8.88,30-11,37.32-6.77,12.56,7.68,7.38,26.43,1.43,44.36l-11.24-3.45c2.5-8.16,5-16.68,5.86-23.27a31,31,0,0,0,.28-4.66,4.19,4.19,0,0,0-4.2-4c-3.77,0-11.23,1.26-25.29,7.1a5.09,5.09,0,0,1-6.61-2.64Z"/><path class="cls-25" d="M203.58,216.06l-7.81,13.53a4,4,0,0,0,1.45,5.42l1.82,1.05a4,4,0,0,0,5.42-1.45l2.79-4.84,4.47,16.67a2.63,2.63,0,0,0,3.21,1.86l1.34-.36a2.62,2.62,0,0,0,1.85-3.21l1,3.61a2.64,2.64,0,0,0,3.21,1.85l1.34-.36a2.63,2.63,0,0,0,1.86-3.21l-1.07-4a2.63,2.63,0,0,0,3.21,1.85l1.34-.36a2.61,2.61,0,0,0,1.85-3.21l-2-7.37a2.62,2.62,0,0,0,3.21,1.86l1.34-.36a2.63,2.63,0,0,0,1.86-3.21l-4.35-16.23a9.15,9.15,0,0,0-4.27-5.56l-.27-.15a9.11,9.11,0,0,0-6.67-.76l-10.93,2.93a8.57,8.57,0,0,0-5.21,4Z"/><path class="cls-26" d="M213.39,232.42l.07.27,3.32,12.4a2.6,2.6,0,0,1-1.85,3.2h0l1.34-.36a2.6,2.6,0,0,0,1.85-3.2l-3.75-14S213.19,231.67,213.39,232.42Z"/><path class="cls-26" d="M226.09,228.6l.08.27,3.32,12.4a2.63,2.63,0,0,1-1.85,3.21h0l1.34-.36a2.61,2.61,0,0,0,1.85-3.21l-3.75-14S225.89,227.86,226.09,228.6Z"/><path class="cls-26" d="M220.17,232.1l.07.27L224.15,247a2.61,2.61,0,0,1-1.85,3.21h0l1.34-.36a2.63,2.63,0,0,0,1.86-3.21l-4.35-16.23S220,231.35,220.17,232.1Z"/><path class="cls-26" d="M204.46,234.61l2.79-4.84-.77-2.9-3.87,6.69a3.94,3.94,0,0,1-5.39,1.45l1.82,1.05A4,4,0,0,0,204.46,234.61Z"/><path class="cls-26" d="M219.73,209.14a9.07,9.07,0,0,1,6.5.68l.07,0,.09.05h0a9.1,9.1,0,0,1,4.54,5.7l4.35,16.23a2.64,2.64,0,0,1-1.85,3.21l-1.35.36h0a2.63,2.63,0,0,0,1.86-3.21L230,217.58l0-.07a8.35,8.35,0,0,0-6.3-5.68,5.48,5.48,0,0,1-3.78-2.4Z"/><path class="cls-25" d="M136.76,170.46l3,11.33a10.8,10.8,0,0,0,20.86-5.59l-3-11.33Z"/><path class="cls-26" d="M157.63,164.87l3,11.33a10.76,10.76,0,0,1-2.73,10.36l-3.24-12.11A31.51,31.51,0,0,1,143.52,180a33.54,33.54,0,0,1-4,.8l-2.77-10.31Z"/><path class="cls-26" d="M168.24,108.91h5.36a0,0,0,0,1,0,0v16.76a0,0,0,0,1,0,0h-5.36a8.38,8.38,0,0,1-8.38-8.38v0A8.38,8.38,0,0,1,168.24,108.91Z" transform="translate(358.13 187.44) rotate(165)"/><path class="cls-28" d="M163.53,114.28h5.63a0,0,0,0,1,0,0v7.19a0,0,0,0,1,0,0h-5.63a3.6,3.6,0,0,1-3.6-3.6v0a3.6,3.6,0,0,1,3.6-3.6Z" transform="matrix(-0.97, 0.26, -0.26, -0.97, 354, 189.15)"/><path class="cls-26" d="M96.56,128.53H98.9a0,0,0,0,1,0,0v16.76a0,0,0,0,1,0,0H96.56a8.38,8.38,0,0,1-8.38-8.38v0A8.38,8.38,0,0,1,96.56,128.53Z" transform="translate(-32.25 28.88) rotate(-15)"/><path class="cls-28" d="M96.21,132.72h2.62a0,0,0,0,1,0,0v7.19a0,0,0,0,1,0,0H96.21a3.6,3.6,0,0,1-3.6-3.6v0A3.6,3.6,0,0,1,96.21,132.72Z" transform="matrix(0.97, -0.26, 0.26, 0.97, -32.02, 29.42)"/><path class="cls-29" d="M102.51,125.83l1.4,5.21a12.39,12.39,0,0,1-15.18-8.76L82.21,98l12-3.21Z"/><path class="cls-26" d="M91.72,109.41,103.15,152A31.78,31.78,0,0,0,135,175.57a32.37,32.37,0,0,0,7.09-1.07,31.78,31.78,0,0,0,22.47-38.91L153.1,93a17.41,17.41,0,0,0-21.32-12.3L104,88.09A17,17,0,0,0,99.52,90,17.4,17.4,0,0,0,91.72,109.41Z"/><path class="cls-25" d="M91.72,109.41,103.15,152A31.78,31.78,0,0,0,135,175.57a31.77,31.77,0,0,0,15.8-36.29L146.4,123A44.66,44.66,0,0,0,99.52,90,17.4,17.4,0,0,0,91.72,109.41Z"/><rect class="cls-26" x="117.62" y="130.76" width="16.11" height="9.63" rx="4.82" transform="translate(-30.81 37.15) rotate(-15)"/><rect class="cls-26" x="116.38" y="84.57" width="8.13" height="49.93" transform="translate(-24.25 34.91) rotate(-15)"/><rect class="cls-22" x="136.11" y="109.78" width="8.8" height="16.49" rx="4.4" transform="translate(306.79 195.66) rotate(165)"/><rect class="cls-22" x="111.61" y="116.35" width="8.8" height="16.49" rx="4.4" transform="translate(260.31 214.91) rotate(165)"/><path class="cls-29" d="M162.26,127.16l5.18-1.38a8.4,8.4,0,0,0,2.47-1.12l.57,2.15a8,8,0,0,1-5.69,9.86Z"/><path class="cls-29" d="M157.92,111l5.17-1.39a8.37,8.37,0,0,1,2.57-.24l.13,0-5.67-21.18a18.41,18.41,0,0,0-22.56-13l-20.65,5.53,1.19,4.44a10.87,10.87,0,0,0,13.31,7.69h0a6.66,6.66,0,0,1,8.16,4.71l1,3.77a13.86,13.86,0,0,0,17,9.81l.37-.08Z"/><path class="cls-30" d="M81.62,98.58h0a4.25,4.25,0,0,1-3,5.19h0a4.24,4.24,0,0,1-2.91-.27l-6-2.86a2.77,2.77,0,0,0-3.87,3.22l1.55,5.77a15.13,15.13,0,0,0,18.53,10.7h0a13.15,13.15,0,0,0,8-6.1l3.8-6.58a20.52,20.52,0,0,1,12.47-9.57l22.28-6a7.92,7.92,0,0,0,5.6-9.69h0a7.91,7.91,0,0,0-9.69-5.59L87.93,87.65A8.92,8.92,0,0,0,81.62,98.58Z"/><rect class="cls-22" x="125.18" y="146.68" width="10.48" height="13.14" rx="5.24" transform="translate(-35.22 38.98) rotate(-15)"/></svg>