<svg id="_50" data-name="50" xmlns="http://www.w3.org/2000/svg" viewBox="0 0 512 512"><defs><style>.cls-1{fill:#ea792e;}.cls-2{fill:#decee5;}.cls-3{fill:#f4e6f4;}.cls-4{fill:#fff;}.cls-5{fill:#a583bb;}.cls-6{fill:#9175a7;}.cls-7{fill:#c2aacf;}.cls-8{fill:#f39e22;}.cls-9{fill:#f9c744;}.cls-10{fill:#3e4e60;}.cls-11{fill:#3f5d77;}</style></defs><title>50-soccer-icons</title><circle class="cls-1" cx="256" cy="256" r="256"/><path class="cls-2" d="M448.69,129V369a14.08,14.08,0,0,1-14.09,14.08H77.4A14.08,14.08,0,0,1,63.31,369V129A14.08,14.08,0,0,1,77.4,114.94H434.6A14.08,14.08,0,0,1,448.69,129Z"/><path class="cls-3" d="M448.69,129V369a14.08,14.08,0,0,1-14.09,14.08H256V114.94H434.6A14.08,14.08,0,0,1,448.69,129Z"/><rect class="cls-4" x="416.69" y="227.63" width="32" height="121.38" rx="16"/><path class="cls-5" d="M448.69,129v60.59H256V114.94H434.6A14.08,14.08,0,0,1,448.69,129Z"/><path class="cls-6" d="M448.69,129v60.59H63.31V129A14.08,14.08,0,0,1,77.4,114.94H434.6A14.08,14.08,0,0,1,448.69,129Z"/><path class="cls-5" d="M448.69,129v60.59H256V114.94H434.6A14.08,14.08,0,0,1,448.69,129Z"/><rect class="cls-5" x="109.39" y="114.94" width="293.21" height="42.49" rx="21.25"/><path class="cls-7" d="M256,157.43H381.36a21.25,21.25,0,0,0,21.25-21.24h0a21.25,21.25,0,0,0-21.25-21.25H256Z"/><path class="cls-8" d="M281.25,147.55,270,155.69A4.78,4.78,0,0,0,268.3,161l4.28,13.18a1.66,1.66,0,0,1-2.56,1.86l-11.21-8.15a4.79,4.79,0,0,0-5.62,0L242,176.08a1.66,1.66,0,0,1-2.56-1.86L243.7,161a4.78,4.78,0,0,0-1.74-5.35l-11.21-8.14a1.67,1.67,0,0,1,1-3h13.86a4.78,4.78,0,0,0,4.55-3.3l4.28-13.18a1.66,1.66,0,0,1,3.16,0l4.28,13.18a4.78,4.78,0,0,0,4.55,3.3h13.86A1.67,1.67,0,0,1,281.25,147.55Z"/><path class="cls-9" d="M281.25,147.55,270,155.69A4.78,4.78,0,0,0,268.3,161l4.28,13.18a1.66,1.66,0,0,1-2.56,1.86l-11.21-8.15A4.74,4.74,0,0,0,256,167V126.9a1.62,1.62,0,0,1,1.58,1.15l4.28,13.18a4.78,4.78,0,0,0,4.55,3.3h13.86A1.67,1.67,0,0,1,281.25,147.55Z"/><path class="cls-8" d="M195.91,147.55l-11.21,8.14A4.78,4.78,0,0,0,183,161l4.28,13.18a1.66,1.66,0,0,1-2.56,1.86l-11.21-8.15a4.79,4.79,0,0,0-5.62,0l-11.21,8.15a1.66,1.66,0,0,1-2.56-1.86L158.36,161a4.8,4.8,0,0,0-1.74-5.35l-11.21-8.14a1.67,1.67,0,0,1,1-3h13.86a4.77,4.77,0,0,0,4.54-3.3l4.29-13.18a1.66,1.66,0,0,1,3.16,0l4.28,13.18a4.78,4.78,0,0,0,4.55,3.3h13.86A1.67,1.67,0,0,1,195.91,147.55Z"/><path class="cls-9" d="M195.91,147.55l-11.21,8.14A4.78,4.78,0,0,0,183,161l4.28,13.18a1.66,1.66,0,0,1-2.56,1.86l-11.21-8.15a4.74,4.74,0,0,0-2.81-.91V126.9a1.62,1.62,0,0,1,1.58,1.15l4.28,13.18a4.78,4.78,0,0,0,4.55,3.3h13.86A1.67,1.67,0,0,1,195.91,147.55Z"/><path class="cls-8" d="M366.59,147.55l-11.21,8.14a4.8,4.8,0,0,0-1.74,5.35l4.28,13.18a1.66,1.66,0,0,1-2.56,1.86l-11.21-8.15a4.79,4.79,0,0,0-5.62,0l-11.21,8.15a1.66,1.66,0,0,1-2.56-1.86L329,161a4.78,4.78,0,0,0-1.74-5.35l-11.21-8.14a1.67,1.67,0,0,1,1-3h13.86a4.78,4.78,0,0,0,4.55-3.3l4.28-13.18a1.66,1.66,0,0,1,3.16,0l4.29,13.18a4.77,4.77,0,0,0,4.54,3.3h13.86A1.67,1.67,0,0,1,366.59,147.55Z"/><path class="cls-9" d="M366.59,147.55l-11.21,8.14a4.8,4.8,0,0,0-1.74,5.35l4.28,13.18a1.66,1.66,0,0,1-2.56,1.86l-11.21-8.15a4.74,4.74,0,0,0-2.81-.91V126.9a1.62,1.62,0,0,1,1.58,1.15l4.29,13.18a4.77,4.77,0,0,0,4.54,3.3h13.86A1.67,1.67,0,0,1,366.59,147.55Z"/><path class="cls-10" d="M416.69,203.69V337a14.09,14.09,0,0,1-14.1,14.08H109.41A14.09,14.09,0,0,1,95.31,337V203.69a14.09,14.09,0,0,1,14.1-14.08H402.59A14.09,14.09,0,0,1,416.69,203.69Z"/><path class="cls-11" d="M416.69,203.69V337a14.09,14.09,0,0,1-14.1,14.08H256V189.61H402.59A14.09,14.09,0,0,1,416.69,203.69Z"/><path class="cls-2" d="M149.09,307.75c-12.21-15.24-12.26-59.54,0-74.83,11-17.17,42.14-17.17,53.13,0q9.18,12.87,9.18,37.34t-9.18,37.42C191.25,324.93,160.1,324.93,149.09,307.75Zm40.34-9.88c5.73-9.82,5.75-45.48,0-55.21-5-11.45-22.58-11.43-27.54.07-5.76,9.83-5.73,45.29,0,55.14C166.87,309.48,184.44,309.49,189.43,297.87Z"/><path class="cls-3" d="M372.07,313.17q0,7.45-8.45,7.46H310.13a7.37,7.37,0,0,1-7.88-7.6,10.7,10.7,0,0,1,3.24-7.6c6.83-8.09,36.83-37.43,40.75-46.38,9.12-19.06-5.06-29.41-23.09-22.24a55.48,55.48,0,0,0-10.91,6c-3,2.23-7.16,3.62-9.78,0-7-10.51,7.72-16.59,16-19.78,30.05-10.49,59.14,7.71,44.76,40.26-4.65,10.83-28.29,33.09-36.74,42.72h37.16Q372.07,306,372.07,313.17Z"/><path class="cls-2" d="M262.21,284.86a9.13,9.13,0,0,0-6.21-2.61,8.94,8.94,0,0,0-6.21,15.15A9.18,9.18,0,0,0,256,300,8.94,8.94,0,0,0,262.21,284.86Zm0-41.64a9.3,9.3,0,0,0-6.21-2.55,8.83,8.83,0,0,0-6.21,15A9.13,9.13,0,0,0,256,258.3,8.89,8.89,0,0,0,262.21,243.22Z"/><path class="cls-3" d="M262.21,284.86A8.94,8.94,0,0,1,256,300V282.25A9.13,9.13,0,0,1,262.21,284.86Z"/><path class="cls-3" d="M256,258.3V240.67a9.3,9.3,0,0,1,6.21,2.55A8.89,8.89,0,0,1,256,258.3Z"/></svg>