<svg id="_50" data-name="50" xmlns="http://www.w3.org/2000/svg" viewBox="0 0 512 512"><defs><style>.cls-1{fill:#53b976;}.cls-2{fill:#f9f2f9;}.cls-3{fill:#fff;}.cls-4{fill:#f4829b;}.cls-5{fill:#ff9fb4;}.cls-6{fill:#3e4e60;}.cls-7{fill:#c1b7d3;}.cls-8{fill:#f4e6f4;}.cls-9{fill:#746087;}.cls-10{fill:#c2aacf;}.cls-11{fill:#3f6c8e;}.cls-12{fill:#ee6781;}.cls-13{fill:#e9465e;}.cls-14{fill:#c0405c;}.cls-15{fill:#c3ead0;}</style></defs><title>50-soccer-icons</title><circle class="cls-1" cx="256" cy="256" r="256"/><path class="cls-2" d="M208,261.72l-17.78,66.4h0A37.68,37.68,0,0,0,194,356.74l24.89,43.11A40,40,0,0,0,242,418.22c.44.14.89.27,1.33.38a40.17,40.17,0,0,0,30.55-4l92.6-53.46a11.55,11.55,0,0,0,4.22-15.75l-3.06-5.29a11.55,11.55,0,0,0-15.75-4.22l17.33-10a11.54,11.54,0,0,0,4.21-15.75l-3.06-5.3a11.54,11.54,0,0,0-15.74-4.22l13.55-7.82A11.57,11.57,0,0,0,372.36,277l-3.06-5.3a11.56,11.56,0,0,0-15.75-4.22l-14.24,8.22A11.54,11.54,0,0,0,343.53,260l-3.06-5.3a11.54,11.54,0,0,0-15.74-4.21l-80.41,46.43,6.36-23.74a17.44,17.44,0,0,0-12.34-21.37l-8.94-2.39A17.42,17.42,0,0,0,208,261.72Z"/><rect class="cls-3" x="285.99" y="239.69" width="13.45" height="74.06" rx="6.73" transform="translate(199.44 668.58) rotate(-120)"/><rect class="cls-3" x="203.19" y="256.95" width="13.45" height="47.52" rx="6.73" transform="translate(340.03 606.18) rotate(-165)"/><rect class="cls-3" x="315.16" y="290.21" width="13.45" height="74.06" rx="6.73" transform="translate(199.44 769.62) rotate(-120)"/><rect class="cls-3" x="316.4" y="323.18" width="13.45" height="74.06" rx="6.73" transform="translate(172.74 820.14) rotate(-120)"/><rect class="cls-3" x="313.47" y="257.5" width="13.45" height="74.06" rx="6.73" transform="translate(225.23 719.1) rotate(-120)"/><rect class="cls-3" x="206.81" y="302.91" width="59.73" height="65.76" rx="15.23" transform="translate(64.21 708.65) rotate(-120)"/><path class="cls-4" d="M271.62,307.75l1.08-.62,63.55-36.7a11.51,11.51,0,0,0,4.22-15.74h0l3.06,5.29a11.53,11.53,0,0,1-4.22,15.75L269.38,316.1S268.7,309.44,271.62,307.75Z"/><path class="cls-4" d="M299.27,359.15l1.08-.62,65.75-38a11.51,11.51,0,0,0,4.22-15.74h0l3.06,5.29a11.53,11.53,0,0,1-4.22,15.75L297,367.5S296.35,360.84,299.27,359.15Z"/><path class="cls-4" d="M291.71,329.83l1.08-.62,72.29-41.74a11.53,11.53,0,0,0,4.22-15.74h0l3.06,5.29a11.53,11.53,0,0,1-4.22,15.75l-78.66,45.41S288.79,331.52,291.71,329.83Z"/><path class="cls-5" d="M250.68,273.15l-6.36,23.74-11.43,6.6,8.8-32.83a17.38,17.38,0,0,0-12.29-21.28l8.94,2.4A17.45,17.45,0,0,1,250.68,273.15Z"/><path class="cls-5" d="M218.94,399.87A40,40,0,0,0,241.3,418l.32.11.42.15,0,0a40.09,40.09,0,0,0,31.86-3.62l92.58-53.45a11.52,11.52,0,0,0,4.22-15.75l-3.05-5.3h0a11.53,11.53,0,0,1-4.22,15.75l-86.22,49.78-.27.16c-10.44,6.31-27,5.36-37.29-1.93a24.3,24.3,0,0,0-19.22-4.31Z"/><rect class="cls-4" x="161.5" y="331.57" width="51.4" height="115.71" rx="9.04" transform="translate(-169.63 145.77) rotate(-30)"/><path class="cls-5" d="M172.7,331l-28.85,16.66A9,9,0,0,0,140.54,360l24.4,42.27,44.51-25.7-24.4-42.27A9,9,0,0,0,172.7,331Z"/><path class="cls-6" d="M189.35,444.55l-59.41,34.3A257,257,0,0,1,57.1,417.17q-2.49-3.06-4.86-6.19l28.55-16.49L140.54,360Z"/><circle class="cls-7" cx="266.68" cy="204.94" r="113.26"/><path class="cls-8" d="M379.46,215.27a113,113,0,0,0-32.7-90.41c-2.46-2.47-5-4.8-7.64-7a113.39,113.39,0,0,0-31,6.65h0a113.22,113.22,0,0,0-40.94,186.39q3.69,3.69,7.64,7a113.78,113.78,0,0,0,19.95-3.22,112.62,112.62,0,0,0,33.85-14.89A114.12,114.12,0,0,0,346.76,285,112.79,112.79,0,0,0,379.46,215.27Z"/><path class="cls-9" d="M340.67,131a104.64,104.64,0,1,1-74-30.65,104,104,0,0,1,74,30.65m6.09-6.09a113.26,113.26,0,1,0,0,160.17,113.24,113.24,0,0,0,0-160.17Z"/><path class="cls-10" d="M349.8,281.87A112.67,112.67,0,0,0,374,241.1c15-44,.92-93.68-34.92-123.24A112.63,112.63,0,0,0,327,119.4c82.75,59.91,40.87,189.57-61.11,190.18,4.09,0,5.86,5.75,8.95,8.33A113.17,113.17,0,0,0,349.8,281.87Z"/><path class="cls-9" d="M236.68,167a4.9,4.9,0,0,1-.89-1.24l-8.85-17.44a4.84,4.84,0,1,1,8.64-4.38l8.85,17.44a4.85,4.85,0,0,1-7.75,5.62Z"/><path class="cls-10" d="M295.35,176.23a4.85,4.85,0,0,1,0-6.85L311.77,153a4.84,4.84,0,1,1,6.85,6.85L302.2,176.23A4.85,4.85,0,0,1,295.35,176.23Z"/><path class="cls-10" d="M304.65,234.86a4.84,4.84,0,0,1,5.68-7.71l17.31,9.09a4.84,4.84,0,0,1-4.51,8.57l-17.31-9.09A4.6,4.6,0,0,1,304.65,234.86Z"/><path class="cls-10" d="M249.27,275.59a4.82,4.82,0,0,1-1.34-4.27l2.44-13.8a4.84,4.84,0,0,1,9.54,1.68L257.47,273a4.85,4.85,0,0,1-8.2,2.59Z"/><path class="cls-9" d="M196,222a4.83,4.83,0,0,1,2.76-8.22l13.9-1.92a4.85,4.85,0,0,1,1.33,9.6l-13.9,1.92A4.83,4.83,0,0,1,196,222Z"/><path class="cls-6" d="M176.76,273.83a113.32,113.32,0,0,1-19.92-96.6l39.37,35.89a10.57,10.57,0,0,1,2.51,12.18Z"/><path class="cls-6" d="M224.82,147.68l-53.09-4.52a113.47,113.47,0,0,1,84.42-51l-20.69,49.06A10.59,10.59,0,0,1,224.82,147.68Z"/><path class="cls-6" d="M346.76,285a114.12,114.12,0,0,1-18.14,14.76L324,246.71a10.59,10.59,0,0,1,6.42-10.66l49-20.78A112.79,112.79,0,0,1,346.76,285Z"/><path class="cls-11" d="M346.76,285a114.12,114.12,0,0,1-18.14,14.76L324,246.71a10.59,10.59,0,0,1,6.42-10.66l49-20.78A112.79,112.79,0,0,1,346.76,285Z"/><path class="cls-6" d="M293,169.86l-46.33-7.34a10.56,10.56,0,0,0-11.08,5.65L214.27,210a10.58,10.58,0,0,0,1.94,12.28l33.17,33.16a10.56,10.56,0,0,0,12.28,2l41.79-21.29A10.58,10.58,0,0,0,309.1,225l-7.34-46.32A10.57,10.57,0,0,0,293,169.86Z"/><path class="cls-11" d="M303.45,236.06l-41.79,21.29a10.56,10.56,0,0,1-12.28-2l-15-15A113.15,113.15,0,0,1,255.82,164L293,169.86a10.57,10.57,0,0,1,8.79,8.79L309.1,225A10.6,10.6,0,0,1,303.45,236.06Z"/><path class="cls-6" d="M294.77,314.68A113.64,113.64,0,0,1,198.1,295.1l44.7-20.43,3.75-1.71a10.6,10.6,0,0,1,12.19,2.47Z"/><path class="cls-11" d="M294.77,314.68a113.78,113.78,0,0,1-19.95,3.22q-3.94-3.28-7.64-7a113.16,113.16,0,0,1-24.38-36.25l3.75-1.71a10.6,10.6,0,0,1,12.19,2.47Z"/><path class="cls-6" d="M373.66,167.7,321,159.37a10.57,10.57,0,0,1-8.79-8.79l-4.13-26.05h0L303.91,98a112.47,112.47,0,0,1,35.21,19.92c2.62,2.19,5.18,4.52,7.64,7A112.65,112.65,0,0,1,373.66,167.7Z"/><path class="cls-11" d="M373.66,167.7,321,159.37a10.58,10.58,0,0,1-8.79-8.8l-4.13-26h0a113.39,113.39,0,0,1,31-6.65c2.62,2.19,5.18,4.52,7.64,7A112.65,112.65,0,0,1,373.66,167.7Z"/><circle class="cls-3" cx="339.05" cy="193.61" r="23.15"/><path class="cls-12" d="M103.38,218.42,85.6,284.81h0a37.7,37.7,0,0,0,3.76,28.62l24.89,43.11a40,40,0,0,0,23.11,18.36c.43.15.89.27,1.32.38a40.14,40.14,0,0,0,30.56-4l92.59-53.46A11.54,11.54,0,0,0,266,302.07L263,296.78a11.54,11.54,0,0,0-15.75-4.22l17.32-10a11.53,11.53,0,0,0,4.21-15.74l-3.06-5.3a11.54,11.54,0,0,0-15.74-4.23l13.55-7.82a11.54,11.54,0,0,0,4.22-15.75l-3.06-5.29a11.54,11.54,0,0,0-15.75-4.22l-14.23,8.22a11.56,11.56,0,0,0,4.22-15.75l-3.06-5.3a11.55,11.55,0,0,0-15.75-4.21l-80.41,46.42L146,229.84a17.43,17.43,0,0,0-12.34-21.37l-8.93-2.38A17.43,17.43,0,0,0,103.38,218.42Z"/><path class="cls-13" d="M220.07,207.16l-80.4,46.42h0l-25.28,14.6a13.5,13.5,0,0,0-2.58,21.45L182,356.87l4.57,4.37,75.21-43.42A11.54,11.54,0,0,0,266,302.07L263,296.78a11.54,11.54,0,0,0-15.75-4.22l17.32-10a11.53,11.53,0,0,0,4.21-15.74l-3.06-5.3a11.54,11.54,0,0,0-15.74-4.23l13.55-7.82a11.54,11.54,0,0,0,4.22-15.75l-3.06-5.29a11.54,11.54,0,0,0-15.75-4.22l-14.23,8.22a11.56,11.56,0,0,0,4.22-15.75l-3.06-5.3A11.55,11.55,0,0,0,220.07,207.16Z"/><path class="cls-14" d="M167,264.44l1.08-.62,63.56-36.69a11.52,11.52,0,0,0,4.21-15.75h0l3.06,5.3a11.52,11.52,0,0,1-4.22,15.75L164.73,272.8S164,266.13,167,264.44Z"/><path class="cls-14" d="M194.62,315.84l1.07-.62,65.76-38a11.53,11.53,0,0,0,4.22-15.75h0l3.05,5.3a11.52,11.52,0,0,1-4.22,15.75L192.38,324.2S191.69,317.53,194.62,315.84Z"/><path class="cls-14" d="M187.06,286.53l1.07-.62,72.29-41.74a11.53,11.53,0,0,0,4.22-15.75h0l3.06,5.3a11.54,11.54,0,0,1-4.22,15.75l-78.66,45.41S184.13,288.21,187.06,286.53Z"/><path class="cls-14" d="M146,229.84l-6.36,23.75-11.43,6.6,8.8-32.83a17.38,17.38,0,0,0-12.29-21.28l9,2.39A17.45,17.45,0,0,1,146,229.84Z"/><path class="cls-13" d="M114.28,356.57a40,40,0,0,0,22.36,18.1l.32.12c.14,0,.28.1.42.15l0,0a40.09,40.09,0,0,0,31.86-3.62l92.59-53.46a11.53,11.53,0,0,0,4.22-15.74l-3.06-5.3h0a11.54,11.54,0,0,1-4.22,15.75l-86.22,49.78-.27.16c-10.44,6.3-27,5.35-37.29-1.94a24.29,24.29,0,0,0-19.22-4.3Z"/><path class="cls-14" d="M263.5,297.73a11.54,11.54,0,0,1-4.71,14.81L182,356.87l4.57,4.37,75.21-43.42A11.54,11.54,0,0,0,266,302.07Z"/><rect class="cls-14" x="56.84" y="288.27" width="51.4" height="115.71" rx="9.04" transform="translate(-162 87.64) rotate(-30)"/><path class="cls-13" d="M68,287.69,39.19,304.35a9,9,0,0,0-3.31,12.35L60.28,359l44.52-25.7L80.39,291A9,9,0,0,0,68,287.69Z"/><path class="cls-11" d="M84.69,401.24,57.1,417.17q-2.49-3.06-4.86-6.19a254.81,254.81,0,0,1-41.08-80L35.88,316.7l44.91,77.79Z"/><path class="cls-15" d="M407.08,146.88a2.82,2.82,0,0,0,1.14,3.84,65.54,65.54,0,0,1,26.36,88.75,2.84,2.84,0,0,0,5,2.7,71.22,71.22,0,0,0-28.65-96.43A2.82,2.82,0,0,0,407.08,146.88Z"/><path class="cls-15" d="M376.1,120.74a2.83,2.83,0,0,0,2.39,4.18,82,82,0,0,1,78.9,84.77,2.83,2.83,0,1,0,5.66.2,87.64,87.64,0,0,0-84.35-90.64A2.84,2.84,0,0,0,376.1,120.74Z"/></svg>