<svg id="_50" data-name="50" xmlns="http://www.w3.org/2000/svg" viewBox="0 0 512 512"><defs><style>.cls-1{fill:#e9465e;}.cls-2{fill:#efb732;}.cls-3{fill:#ee6781;}.cls-4{fill:#c0405c;}.cls-5{fill:#f4829b;}.cls-6{fill:#c17e62;}.cls-7{fill:#a26d5a;}.cls-8{fill:#d48d77;}.cls-9{fill:#eea47d;}.cls-10{fill:#f3c3b1;}.cls-11{fill:#f5b890;}.cls-12{fill:#f9c744;}.cls-13{fill:#ea792e;}.cls-14{fill:#fbcb74;}</style></defs><title>50-soccer-icons</title><circle class="cls-1" cx="256" cy="256" r="256"/><path class="cls-2" d="M512,256c0,141.38-114.62,256-256,256V0C397.38,0,512,114.62,512,256Z"/><path class="cls-1" d="M425.45,106.5V273.35a10.55,10.55,0,0,1-.49,3.2h0a10.74,10.74,0,0,1-7,7,10.62,10.62,0,0,1-3.21.49H299.91a10.55,10.55,0,0,1-3.2-.49,10.74,10.74,0,0,1-7-7h0a10.55,10.55,0,0,1-.49-3.2V106.5a10.6,10.6,0,0,1,.49-3.2,10.71,10.71,0,0,1,7-7,10.55,10.55,0,0,1,3.2-.49H414.74a10.71,10.71,0,0,1,10.71,10.71Z"/><path class="cls-3" d="M425.45,106.5V273.35a10.55,10.55,0,0,1-.49,3.2h0a10.74,10.74,0,0,1-7,7,10.72,10.72,0,0,1-7.5-10.22V106.5A10.72,10.72,0,0,1,418,96.28a10.72,10.72,0,0,1,7.5,10.22Z"/><path class="cls-4" d="M414.74,269.06H304.2V106.5a10.73,10.73,0,0,0-7.49-10.22,10.71,10.71,0,0,0-7,7,10.6,10.6,0,0,0-.49,3.2V273.35a10.55,10.55,0,0,0,.49,3.2h0a10.74,10.74,0,0,0,7,7,10.55,10.55,0,0,0,3.2.49H414.74a10.62,10.62,0,0,0,3.21-.49,10.74,10.74,0,0,0,7-7h0A10.71,10.71,0,0,0,414.74,269.06Z"/><path class="cls-5" d="M425,103.3a10.71,10.71,0,0,1-10.22,7.49H299.91a10.73,10.73,0,0,1-10.22-7.49,10.71,10.71,0,0,1,7-7,10.55,10.55,0,0,1,3.2-.49H414.74A10.7,10.7,0,0,1,425,103.3Z"/><path class="cls-6" d="M474.52,243.67c.35-6.76-5.46-12.26-12.22-12.3a5.7,5.7,0,0,1-5.78-5.64V181.1a20,20,0,0,0-20-20h-11v92.64a16.1,16.1,0,0,1-4.21,10.86l-3,3.31a3,3,0,0,1-5.18-2V198.91a9.44,9.44,0,0,0-9.44-9.44H391.88a9.43,9.43,0,0,0-9.44,9.44v28.94a45.25,45.25,0,0,1-2.83,15.74L376.13,253a53.37,53.37,0,0,0-3.32,18.51v31.78A51.78,51.78,0,0,0,388,339.87a29.34,29.34,0,0,0,11.27,7,7.53,7.53,0,0,1,5.19,7.09v24.5a15.77,15.77,0,0,0,15.76,15.76h26.32a15.77,15.77,0,0,0,15.76-15.76V374c0-13.18.59-26.4,2.9-39.37.05-.32.1-.64.14-1C468.14,309.84,473.52,262.84,474.52,243.67Z"/><path class="cls-7" d="M436.37,172.07l-.64,78.43a17.53,17.53,0,0,1-17.52,17.36h0l3-3.31a16.1,16.1,0,0,0,4.21-10.86V161.05h0A10.92,10.92,0,0,1,436.37,172.07Z"/><path class="cls-7" d="M402,339.87a51.75,51.75,0,0,1-15.17-36.61V271.47a53.13,53.13,0,0,1,3.33-18.5l3.48-9.38a45.47,45.47,0,0,0,2.82-15.74V198.91a9.43,9.43,0,0,1,8.29-9.37,8.51,8.51,0,0,0-1.14-.07H391.88a9.44,9.44,0,0,0-9.44,9.44v28.92a45.36,45.36,0,0,1-2.83,15.76L376.13,253a53.35,53.35,0,0,0-3.32,18.5v31.79A51.78,51.78,0,0,0,388,339.87a29.56,29.56,0,0,0,11.28,7,7.54,7.54,0,0,1,5.18,7.09v24.49a15.77,15.77,0,0,0,15.76,15.76h.62V365.54a24,24,0,0,0-12.46-20.83A29.27,29.27,0,0,1,402,339.87Z"/><path class="cls-8" d="M413,198.91v66.94a10.52,10.52,0,0,1-10.51-10.51V217.16l2.37-13.73a15.3,15.3,0,0,1,5.5-9.34l.86-.69A9.37,9.37,0,0,1,413,198.91Z"/><path class="cls-8" d="M474,239.59a12.28,12.28,0,0,0-8.73-7.85c-2.32-.59-5.19,0-7-2a5.6,5.6,0,0,1-1.75-4V181.1a20.06,20.06,0,0,0-7.8-15.85v59.29c0,10.21,9.19,9,12,11.38a11.44,11.44,0,0,1,4.15,8.72c-.83,17.49-12.93,67.08-17.52,94.75a97.47,97.47,0,0,0-1.29,15.91v38.95a15.79,15.79,0,0,0,16.17-15.76V374a227.66,227.66,0,0,1,3-40.33c2.82-23.87,8.2-70.87,9.2-90A11.06,11.06,0,0,0,474,239.59Z"/><path class="cls-8" d="M448,164.73,441,171.78a2.23,2.23,0,0,1-3.17,0,2.25,2.25,0,0,1,0-3.16l6.12-6.12A19.35,19.35,0,0,1,448,164.73Z"/><path class="cls-8" d="M454.74,172.85l-6.34,6.34a2.23,2.23,0,0,1-3.17,0,2.18,2.18,0,0,1-.65-1.58,2.2,2.2,0,0,1,.65-1.59l7.14-7.13A19.32,19.32,0,0,1,454.74,172.85Z"/><path class="cls-9" d="M454.73,172.86l-6,6v-6.34l3.64-3.63A19.6,19.6,0,0,1,454.73,172.86Z"/><path class="cls-8" d="M407.94,233.9a2.24,2.24,0,0,1-2.24,2.24H389.77a2.24,2.24,0,0,1-2.24-2.24,2.25,2.25,0,0,1,2.24-2.24H405.7A2.24,2.24,0,0,1,407.94,233.9Z"/><path class="cls-6" d="M396.28,231.66a45.06,45.06,0,0,1-.61,4.48h-5.9a2.24,2.24,0,0,1-2.24-2.24,2.25,2.25,0,0,1,2.24-2.24Z"/><path class="cls-9" d="M407.94,233.9a2.24,2.24,0,0,1-2.24,2.24h-3.18v-4.48h3.18A2.24,2.24,0,0,1,407.94,233.9Z"/><path class="cls-8" d="M407.94,242.52a2.25,2.25,0,0,1-.65,1.58,2.27,2.27,0,0,1-1.59.65H389.77a2.23,2.23,0,0,1-2.24-2.23,2.25,2.25,0,0,1,2.24-2.24H405.7A2.24,2.24,0,0,1,407.94,242.52Z"/><path class="cls-6" d="M389.77,240.28h4.93c-.32,1.11-.68,2.22-1.08,3.31l-.43,1.16h-3.42a2.23,2.23,0,0,1-2.24-2.23,2.25,2.25,0,0,1,2.24-2.24Z"/><path class="cls-9" d="M407.94,242.52a2.25,2.25,0,0,1-.65,1.58,2.27,2.27,0,0,1-1.59.65h-3.18v-4.47h3.18A2.24,2.24,0,0,1,407.94,242.52Z"/><path class="cls-9" d="M407.94,203.87v7.87a5.2,5.2,0,0,1-.49,2.23,5.4,5.4,0,0,1-4.93,3.19H393A5.4,5.4,0,0,1,388,214a5.2,5.2,0,0,1-.49-2.23v-7.87a10.21,10.21,0,0,1,10.2-10.21H398A10.21,10.21,0,0,1,407.94,203.87Z"/><path class="cls-8" d="M398,193.67a9.51,9.51,0,0,0-1.58,5.24v18.25H393A5.4,5.4,0,0,1,388,214a5.2,5.2,0,0,1-.49-2.23v-7.87a10.21,10.21,0,0,1,10.2-10.21Z"/><path class="cls-10" d="M407.45,214a5.4,5.4,0,0,1-4.93,3.19H393A5.4,5.4,0,0,1,388,214a23.9,23.9,0,0,1,8.42-2q.65,0,1.29,0A24,24,0,0,1,407.45,214Z"/><path class="cls-11" d="M396.44,212v5.16H393A5.4,5.4,0,0,1,388,214,23.9,23.9,0,0,1,396.44,212Z"/><path class="cls-2" d="M222.8,106.5V273.35a10.55,10.55,0,0,1-.49,3.2h0a10.74,10.74,0,0,1-7,7,10.62,10.62,0,0,1-3.21.49H97.26a10.55,10.55,0,0,1-3.2-.49,10.74,10.74,0,0,1-7-7h0a10.55,10.55,0,0,1-.49-3.2V106.5a10.6,10.6,0,0,1,.49-3.2,10.71,10.71,0,0,1,7-7,10.55,10.55,0,0,1,3.2-.49H212.09A10.71,10.71,0,0,1,222.8,106.5Z"/><path class="cls-12" d="M222.8,106.5V273.35a10.55,10.55,0,0,1-.49,3.2h0a10.74,10.74,0,0,1-7,7,10.72,10.72,0,0,1-7.5-10.22V106.5a10.72,10.72,0,0,1,7.5-10.22,10.72,10.72,0,0,1,7.5,10.22Z"/><path class="cls-13" d="M212.09,269.06H101.55V106.5a10.73,10.73,0,0,0-7.49-10.22,10.71,10.71,0,0,0-7,7,10.6,10.6,0,0,0-.49,3.2V273.35a10.55,10.55,0,0,0,.49,3.2h0a10.74,10.74,0,0,0,7,7,10.55,10.55,0,0,0,3.2.49H212.09a10.62,10.62,0,0,0,3.21-.49,10.74,10.74,0,0,0,7-7h0A10.71,10.71,0,0,0,212.09,269.06Z"/><path class="cls-14" d="M222.31,103.3a10.71,10.71,0,0,1-10.22,7.49H97.26A10.73,10.73,0,0,1,87,103.3a10.71,10.71,0,0,1,7-7,10.55,10.55,0,0,1,3.2-.49H212.09a10.7,10.7,0,0,1,10.22,7.51Z"/><path class="cls-6" d="M37.48,243.67c-.35-6.76,5.46-12.26,12.22-12.3a5.7,5.7,0,0,0,5.78-5.64V181.1a20,20,0,0,1,20.05-20h11v92.64a16.1,16.1,0,0,0,4.21,10.86l3,3.31a3,3,0,0,0,5.18-2V198.91a9.44,9.44,0,0,1,9.44-9.44h11.71a9.43,9.43,0,0,1,9.44,9.44v28.94a45.25,45.25,0,0,0,2.83,15.74l3.48,9.38a53.37,53.37,0,0,1,3.32,18.51v31.78A51.78,51.78,0,0,1,124,339.87a29.34,29.34,0,0,1-11.27,7,7.53,7.53,0,0,0-5.19,7.09v24.5A15.77,15.77,0,0,1,91.8,394.25H65.48a15.77,15.77,0,0,1-15.76-15.76V374c0-13.18-.59-26.4-2.9-39.37,0-.32-.1-.64-.14-1C43.86,309.84,38.48,262.84,37.48,243.67Z"/><path class="cls-7" d="M75.63,172.07l.64,78.43a17.53,17.53,0,0,0,17.52,17.36h0l-3-3.31a16.1,16.1,0,0,1-4.21-10.86V161.05h0A10.92,10.92,0,0,0,75.63,172.07Z"/><path class="cls-7" d="M110,339.87a51.75,51.75,0,0,0,15.17-36.61V271.47a53.13,53.13,0,0,0-3.33-18.5l-3.48-9.38a45.47,45.47,0,0,1-2.82-15.74V198.91a9.43,9.43,0,0,0-8.29-9.37,8.51,8.51,0,0,1,1.14-.07h11.71a9.44,9.44,0,0,1,9.44,9.44v28.92a45.36,45.36,0,0,0,2.83,15.76l3.48,9.38a53.35,53.35,0,0,1,3.32,18.5v31.79A51.78,51.78,0,0,1,124,339.87a29.56,29.56,0,0,1-11.28,7,7.54,7.54,0,0,0-5.18,7.09v24.49A15.77,15.77,0,0,1,91.8,394.25h-.62V365.54a24,24,0,0,1,12.46-20.83A29.27,29.27,0,0,0,110,339.87Z"/><path class="cls-8" d="M99,198.91v66.94a10.52,10.52,0,0,0,10.51-10.51V217.16l-2.37-13.73a15.3,15.3,0,0,0-5.5-9.34l-.86-.69A9.37,9.37,0,0,0,99,198.91Z"/><path class="cls-8" d="M38,239.59a12.28,12.28,0,0,1,8.73-7.85c2.32-.59,5.19,0,7-2a5.6,5.6,0,0,0,1.75-4V181.1a20.06,20.06,0,0,1,7.8-15.85v59.29c0,10.21-9.19,9-12.05,11.38a11.44,11.44,0,0,0-4.15,8.72c.83,17.49,12.93,67.08,17.52,94.75a97.47,97.47,0,0,1,1.29,15.91v38.95a15.79,15.79,0,0,1-16.17-15.76V374a227.66,227.66,0,0,0-3-40.33c-2.82-23.87-8.2-70.87-9.2-90A11.06,11.06,0,0,1,38,239.59Z"/><path class="cls-8" d="M64,164.73,71,171.78a2.23,2.23,0,0,0,3.17,0,2.25,2.25,0,0,0,0-3.16l-6.12-6.12A19.35,19.35,0,0,0,64,164.73Z"/><path class="cls-8" d="M57.26,172.85l6.34,6.34a2.23,2.23,0,0,0,3.17,0,2.18,2.18,0,0,0,.65-1.58,2.2,2.2,0,0,0-.65-1.59l-7.14-7.13A19.32,19.32,0,0,0,57.26,172.85Z"/><path class="cls-9" d="M57.27,172.86l6,6v-6.34l-3.64-3.63A19.6,19.6,0,0,0,57.27,172.86Z"/><path class="cls-8" d="M104.06,233.9a2.24,2.24,0,0,0,2.24,2.24h15.93a2.24,2.24,0,0,0,2.24-2.24,2.25,2.25,0,0,0-2.24-2.24H106.3A2.24,2.24,0,0,0,104.06,233.9Z"/><path class="cls-6" d="M115.72,231.66a45.06,45.06,0,0,0,.61,4.48h5.9a2.24,2.24,0,0,0,2.24-2.24,2.25,2.25,0,0,0-2.24-2.24Z"/><path class="cls-9" d="M104.06,233.9a2.24,2.24,0,0,0,2.24,2.24h3.18v-4.48H106.3A2.24,2.24,0,0,0,104.06,233.9Z"/><path class="cls-8" d="M104.06,242.52a2.25,2.25,0,0,0,.65,1.58,2.27,2.27,0,0,0,1.59.65h15.93a2.23,2.23,0,0,0,2.24-2.23,2.25,2.25,0,0,0-2.24-2.24H106.3A2.24,2.24,0,0,0,104.06,242.52Z"/><path class="cls-6" d="M122.23,240.28H117.3c.32,1.11.68,2.22,1.08,3.31l.43,1.16h3.42a2.23,2.23,0,0,0,2.24-2.23,2.25,2.25,0,0,0-2.24-2.24Z"/><path class="cls-9" d="M104.06,242.52a2.25,2.25,0,0,0,.65,1.58,2.27,2.27,0,0,0,1.59.65h3.18v-4.47H106.3A2.24,2.24,0,0,0,104.06,242.52Z"/><path class="cls-9" d="M104.06,203.87v7.87a5.2,5.2,0,0,0,.49,2.23,5.4,5.4,0,0,0,4.93,3.19h9.57A5.4,5.4,0,0,0,124,214a5.2,5.2,0,0,0,.49-2.23v-7.87a10.21,10.21,0,0,0-10.2-10.21H114A10.21,10.21,0,0,0,104.06,203.87Z"/><path class="cls-8" d="M114,193.67a9.51,9.51,0,0,1,1.58,5.24v18.25h3.49A5.4,5.4,0,0,0,124,214a5.2,5.2,0,0,0,.49-2.23v-7.87a10.21,10.21,0,0,0-10.2-10.21Z"/><path class="cls-10" d="M104.55,214a5.4,5.4,0,0,0,4.93,3.19h9.57A5.4,5.4,0,0,0,124,214a23.9,23.9,0,0,0-8.42-2q-.65,0-1.29,0A24,24,0,0,0,104.55,214Z"/><path class="cls-11" d="M115.56,212v5.16h3.49A5.4,5.4,0,0,0,124,214,23.9,23.9,0,0,0,115.56,212Z"/></svg>