<svg id="_50" data-name="50" xmlns="http://www.w3.org/2000/svg" viewBox="0 0 512 512"><defs><style>.cls-1{fill:#ea792e;}.cls-2{fill:#f39e22;}.cls-3{fill:#53b976;}.cls-4{fill:#78c795;}.cls-5{fill:#3f5d77;}.cls-6{fill:#3f6c8e;}.cls-7{fill:#528f66;}.cls-8{fill:#3e4e60;}.cls-9{fill:#c3ead0;}.cls-10{fill:#ebd9ea;}.cls-11{fill:#9175a7;}.cls-12{fill:#f4e6f4;}.cls-13{fill:#f0dae2;}.cls-14{fill:#c2aacf;}.cls-15{fill:#f9f2f9;}.cls-16{fill:#fff;}</style></defs><title>50-soccer-icons</title><circle class="cls-1" cx="256" cy="256" r="256"/><circle class="cls-2" cx="256" cy="256" r="203.35"/><path class="cls-3" d="M294.24,120.24v251a20.59,20.59,0,0,1-20.59,20.59H136.22a20.58,20.58,0,0,1-20.58-20.59v-251H176.1c-1.65,19.46,14.16,35,33.27,32.17,15.44-2.36,25.73-16.35,24.4-32.17Z"/><path class="cls-4" d="M294.24,120.24v251a20.59,20.59,0,0,1-20.59,20.59H204.94v-239a28.56,28.56,0,0,0,4.43-.35c15.44-2.36,25.73-16.35,24.4-32.17Z"/><path class="cls-5" d="M294.24,371.2a20.59,20.59,0,0,1-20.59,20.59H136.22a20.58,20.58,0,0,1-20.58-20.59Z"/><path class="cls-6" d="M294.24,371.2a20.59,20.59,0,0,1-20.59,20.59H204.94V371.2Z"/><path class="cls-5" d="M204.94,166.66h0c-25.1-.16-43.18-21.22-41.16-46.37h82.35C248.24,145,230.14,166.6,204.94,166.66Z"/><path class="cls-6" d="M204.94,166.66V120.29h41.17C248.24,145,230.14,166.6,204.94,166.66Z"/><path class="cls-7" d="M176.1,120.29c-1.42,17.61,11.25,32.36,28.83,32.47s30.34-15.18,28.84-32.47Z"/><path class="cls-3" d="M294.24,120.24h9.86a28,28,0,0,1,19.78,8.19l55.69,55.69a10.18,10.18,0,0,1,0,14.4L332.3,245.79a10.18,10.18,0,0,1-14.39,0l-23.35-23.35Z"/><path class="cls-5" d="M379.57,198.52,332.3,245.78a10.18,10.18,0,0,1-14.4,0l-7-7,61.66-61.66,7,7A10.19,10.19,0,0,1,379.57,198.52Z"/><path class="cls-7" d="M115.64,120.24h-9.87A28,28,0,0,0,86,128.43L30.3,184.12a10.19,10.19,0,0,0,0,14.4l47.27,47.27a10.19,10.19,0,0,0,14.4,0l23.35-23.35Z"/><path class="cls-8" d="M30.31,198.52l47.26,47.26a10.18,10.18,0,0,0,14.4,0l7-7L37.32,177.11l-7,7A10.18,10.18,0,0,0,30.31,198.52Z"/><path class="cls-9" d="M267.09,241.41,258.24,248a11.58,11.58,0,0,1-13.78,0l-8.85-6.54a11.57,11.57,0,0,1-4.7-9.32V204.62a7.58,7.58,0,0,1,7.57-7.58h25.74a7.58,7.58,0,0,1,7.58,7.58v27.47A11.58,11.58,0,0,1,267.09,241.41Z"/><path class="cls-9" d="M158.22,246.56q0,3.18-3.6,3.18h-22.8a3.26,3.26,0,0,1-2.46-.93,3.19,3.19,0,0,1-.9-2.31,4.57,4.57,0,0,1,1.38-3.24l13.68-14.7a23.68,23.68,0,0,0,3.69-5.07,10.09,10.09,0,0,0,1.17-4.59,5.6,5.6,0,0,0-1.62-4.32,6.55,6.55,0,0,0-4.62-1.5,12.66,12.66,0,0,0-4.77.93,23.86,23.86,0,0,0-4.65,2.55,7.38,7.38,0,0,1-1.2.69,2.9,2.9,0,0,1-1.2.27,2.2,2.2,0,0,1-1.77-1,3.59,3.59,0,0,1-.75-2.28,3.45,3.45,0,0,1,.33-1.56,4,4,0,0,1,1.05-1.26,20.79,20.79,0,0,1,6.18-3.33,21.45,21.45,0,0,1,7.08-1.23q6.18,0,9.87,3.12a10.43,10.43,0,0,1,3.69,8.4,15.51,15.51,0,0,1-1.56,6.87,30.45,30.45,0,0,1-5.28,7.17l-10.38,11h15.84Q158.22,243.5,158.22,246.56Z"/><path class="cls-9" d="M192.63,231.74a10.74,10.74,0,0,1,2,6.6,10.3,10.3,0,0,1-4.2,8.73q-4.2,3.15-11.64,3.15t-11.64-3.15a10.3,10.3,0,0,1-4.2-8.73,10.76,10.76,0,0,1,2-6.63,10.05,10.05,0,0,1,5.76-3.69,10.41,10.41,0,0,1-5-3.75,10.09,10.09,0,0,1-1.8-6,10,10,0,0,1,4-8.34q4-3.06,10.86-3.06T189.66,210a10,10,0,0,1,4,8.34,10.32,10.32,0,0,1-1.8,6.06A9.69,9.69,0,0,1,186.9,228,10.25,10.25,0,0,1,192.63,231.74Zm-5.25,6q0-6.42-8.58-6.42t-8.58,6.42q0,6.42,8.58,6.42T187.38,237.74ZM171.3,219.08a5.73,5.73,0,0,0,1.89,4.65,10.69,10.69,0,0,0,11.22,0,5.73,5.73,0,0,0,1.89-4.65q0-6.12-7.5-6.12T171.3,219.08Z"/><path class="cls-3" d="M364.48,399.62h10a0,0,0,0,1,0,0v5a5,5,0,0,1-5,5h0a5,5,0,0,1-5-5v-5A0,0,0,0,1,364.48,399.62Z" transform="translate(-159.25 548.39) rotate(-62.81)"/><path class="cls-3" d="M376.14,381.9h10a0,0,0,0,1,0,0v5a5,5,0,0,1-5,5h0a5,5,0,0,1-5-5v-5A0,0,0,0,1,376.14,381.9Z" transform="translate(-137.15 549.13) rotate(-62.81)"/><path class="cls-3" d="M387,365.32h10a0,0,0,0,1,0,0v5a5,5,0,0,1-5,5h0a5,5,0,0,1-5-5v-5A0,0,0,0,1,387,365.32Z" transform="translate(-116.47 549.83) rotate(-62.81)"/><path class="cls-3" d="M418.57,307.42h10a0,0,0,0,1,0,0v5a5,5,0,0,1-5,5h0a5,5,0,0,1-5-5v-5A0,0,0,0,1,418.57,307.42Z" transform="translate(-47.86 546.42) rotate(-62.81)"/><path class="cls-3" d="M425.53,293.86h10a0,0,0,0,1,0,0v5a5,5,0,0,1-5,5h0a5,5,0,0,1-5-5v-5a0,0,0,0,1,0,0Z" transform="translate(-32.01 545.25) rotate(-62.81)"/><path class="cls-10" d="M421.66,271.26a15.52,15.52,0,0,1,6.7,20.88l-11.52,22.42a10.34,10.34,0,0,1-5.6,5,13,13,0,0,0-8.43,10.57,91.61,91.61,0,0,1-9.35,30l-30.7,46.68a14.42,14.42,0,0,1-18.63,4.9c-8.71-5.6-10.38-18.59-4.1-26.73a42.84,42.84,0,0,0,7.77-17.48c2.57-10.89,2.92-48.35,3.7-60a21.2,21.2,0,0,1,11.23-16.91,49.52,49.52,0,0,0,10.71-7.26c6.08-5.5,11.9-12.7,11.56-21.37a5.71,5.71,0,0,1,8.32-5.18l8.58,4.41Z"/><path class="cls-11" d="M421.66,271.26a15.52,15.52,0,0,1,6.7,20.88l-11.52,22.42a10.34,10.34,0,0,1-5.6,5,13,13,0,0,0-8.43,10.57,91.61,91.61,0,0,1-9.35,30l-30.7,46.68a14.42,14.42,0,0,1-18.63,4.9,86.91,86.91,0,0,0,21.3-22.92l19.4-30.39q4.41-6.92,8.13-14.26l19-37.5a90.76,90.76,0,0,0,9.66-35.33Z"/><path class="cls-12" d="M393.32,256.71l8.58,4.41c-2.47,16.12-2.91,29.56-14.53,42.38a90.31,90.31,0,0,0-20.43,39.33c-7.15,31.23-7.57,36.64-29,61.54A19.29,19.29,0,0,1,340,384.93a42.84,42.84,0,0,0,7.77-17.48,109.29,109.29,0,0,0,1.87-16.05l1.83-44a21.2,21.2,0,0,1,11.23-16.91,49.52,49.52,0,0,0,10.71-7.26c6.08-5.5,11.9-12.71,11.56-21.37A5.71,5.71,0,0,1,393.32,256.71Z"/><path class="cls-4" d="M393.32,256.71l-2.26,11.42a26.56,26.56,0,0,1-6.66,13c-9.56,10.82-18.57,17.67-32.24,22.62h0a21.21,21.21,0,0,1,10.58-13.21,49.52,49.52,0,0,0,10.71-7.26,48.27,48.27,0,0,0,7.81-8.87,21.4,21.4,0,0,0,3.75-12.5A5.71,5.71,0,0,1,393.32,256.71Z"/><path class="cls-3" d="M413.78,267.22h0l-10.85,25a17.82,17.82,0,0,0-1.2,10.22L405,320.48l-6.19,12.2-7.58-23.74a27.61,27.61,0,0,1-.6-14.55l8.09-34.93,3.23,1.66Z"/><path class="cls-4" d="M398.67,259.46l3.23,1.66c-2.28,14.87-2.83,27.45-12,39.38a27.4,27.4,0,0,1,.7-6.11Z"/><path class="cls-11" d="M365.39,342.2a4.46,4.46,0,1,1-6.45,3.27,4.79,4.79,0,0,1,.44-1.34,4.47,4.47,0,0,1,5.54-2.13A4.73,4.73,0,0,1,365.39,342.2Z"/><path class="cls-13" d="M364.92,342a4.4,4.4,0,0,1-.43,1.33,4.48,4.48,0,0,1-5.55,2.14,4.79,4.79,0,0,1,.44-1.34A4.47,4.47,0,0,1,364.92,342Z"/><path class="cls-11" d="M365.82,331.81a4.46,4.46,0,1,1-6.44,3.26,4.16,4.16,0,0,1,.44-1.33,4.46,4.46,0,0,1,5.54-2.14A3.82,3.82,0,0,1,365.82,331.81Z"/><path class="cls-13" d="M365.36,331.6a4.34,4.34,0,0,1-.44,1.33,4.47,4.47,0,0,1-5.54,2.14,4.16,4.16,0,0,1,.44-1.33A4.46,4.46,0,0,1,365.36,331.6Z"/><path class="cls-11" d="M366.25,321.64a4.45,4.45,0,1,1-.47-.21A4.84,4.84,0,0,1,366.25,321.64Z"/><path class="cls-13" d="M365.78,321.43a4.31,4.31,0,0,1-.43,1.33,4.46,4.46,0,0,1-5.55,2.14,4.48,4.48,0,0,1,6-3.47Z"/><path class="cls-11" d="M366.68,311.19a4.46,4.46,0,1,1-6.44,3.27,4.37,4.37,0,0,1,.43-1.34,4.47,4.47,0,0,1,5.54-2.14A4,4,0,0,1,366.68,311.19Z"/><path class="cls-13" d="M366.21,311a4.37,4.37,0,0,1-.43,1.34,4.47,4.47,0,0,1-5.54,2.14,4.37,4.37,0,0,1,.43-1.34A4.47,4.47,0,0,1,366.21,311Z"/><path class="cls-14" d="M365.11,347.07a2,2,0,0,1-1.64,1.07l-13.5.8a2,2,0,1,1-.23-3.94l13.49-.8a2,2,0,0,1,2.09,1.86A2,2,0,0,1,365.11,347.07Z"/><path class="cls-14" d="M365.54,336.68a2,2,0,0,1-1.64,1.07l-13.5.8a2,2,0,0,1-.23-3.95l13.5-.8a2,2,0,0,1,1.87,2.88Z"/><path class="cls-14" d="M366,326.51a2,2,0,0,1-1.65,1.07l-13.49.8a2,2,0,0,1-.24-3.95l13.5-.8a2,2,0,0,1,2.09,1.86A2.08,2.08,0,0,1,366,326.51Z"/><path class="cls-14" d="M366.4,316.06a2,2,0,0,1-1.64,1.07l-13.5.8A2,2,0,0,1,351,314l13.5-.8a2,2,0,0,1,2.08,1.85A1.84,1.84,0,0,1,366.4,316.06Z"/><path class="cls-14" d="M349.74,314.66a1.73,1.73,0,0,1,.66,2h0c-.09.23-2.22,5.82-6.87,7.31-5,1.6-9.49.37-10.52-2.85s1.92-6.85,6.89-8.45c4.65-1.49,9.63,1.81,9.84,2Zm-13.45,5.45c.31.94,2.93,1.66,6.18.61a6.17,6.17,0,0,0,2.68-1.9,1.74,1.74,0,0,0-.91-2.83,6.19,6.19,0,0,0-3.28,0C337.7,317.05,336,319.17,336.29,320.11Z"/><path class="cls-14" d="M351.79,314a1.73,1.73,0,0,1-2,.65h0c-.24-.08-5.83-2.22-7.32-6.87-1.59-5-.37-9.49,2.85-10.52s6.86,1.93,8.45,6.89c1.49,4.65-1.8,9.64-1.94,9.85Zm-5.45-13.45c-.94.3-1.67,2.92-.62,6.18a6.16,6.16,0,0,0,1.91,2.67,1.73,1.73,0,0,0,2.82-.91,6.09,6.09,0,0,0,0-3.28C349.4,302,347.28,300.25,346.34,300.55Z"/><path class="cls-3" d="M406,417.35h10a0,0,0,0,1,0,0v5a5,5,0,0,1-5,5h0a5,5,0,0,1-5-5v-5A0,0,0,0,1,406,417.35Z" transform="translate(-152.46 594.96) rotate(-62.81)"/><path class="cls-3" d="M417.67,399.63h10a0,0,0,0,1,0,0v5a5,5,0,0,1-5,5h0a5,5,0,0,1-5-5v-5A0,0,0,0,1,417.67,399.63Z" transform="translate(-130.37 595.7) rotate(-62.81)"/><path class="cls-3" d="M428.58,383h10a0,0,0,0,1,0,0v5a5,5,0,0,1-5,5h0a5,5,0,0,1-5-5v-5A0,0,0,0,1,428.58,383Z" transform="translate(-109.69 596.4) rotate(-62.81)"/><path class="cls-3" d="M460.1,325.15h10a0,0,0,0,1,0,0v5a5,5,0,0,1-5,5h0a5,5,0,0,1-5-5v-5A0,0,0,0,1,460.1,325.15Z" transform="translate(-41.07 592.99) rotate(-62.81)"/><path class="cls-3" d="M467.06,311.59h10a0,0,0,0,1,0,0v5a5,5,0,0,1-5,5h0a5,5,0,0,1-5-5v-5A0,0,0,0,1,467.06,311.59Z" transform="translate(-25.23 591.82) rotate(-62.81)"/><path class="cls-15" d="M463.19,289a15.5,15.5,0,0,1,6.7,20.87l-11.52,22.42a10.34,10.34,0,0,1-5.6,5,13,13,0,0,0-8.43,10.57,91.61,91.61,0,0,1-9.35,30l-30.7,46.68a14.41,14.41,0,0,1-18.63,4.9c-8.71-5.6-10.38-18.59-4.1-26.73a42.84,42.84,0,0,0,7.77-17.48c2.57-10.89,2.92-48.35,3.7-60a21.19,21.19,0,0,1,11.24-16.91A49.7,49.7,0,0,0,415,301c6.08-5.5,11.9-12.7,11.57-21.37a5.7,5.7,0,0,1,8.31-5.17l8.58,4.4Z"/><path class="cls-11" d="M463.19,289a15.5,15.5,0,0,1,6.7,20.87l-11.52,22.42a10.34,10.34,0,0,1-5.6,5,13,13,0,0,0-8.43,10.57,91.61,91.61,0,0,1-9.35,30l-30.7,46.68a14.41,14.41,0,0,1-18.63,4.9A86.91,86.91,0,0,0,407,406.47l19.4-30.39q4.41-6.91,8.13-14.25l19-37.51A90.78,90.78,0,0,0,463.19,289Z"/><path class="cls-16" d="M434.85,274.45l8.58,4.4C441,295,440.52,308.41,428.9,321.23a90.37,90.37,0,0,0-20.43,39.33c-7.15,31.23-7.57,36.64-29,61.54a19.29,19.29,0,0,1,2.08-19.44,42.84,42.84,0,0,0,7.77-17.48,109.29,109.29,0,0,0,1.87-16.05l1.83-44a21.19,21.19,0,0,1,11.24-16.91A49.7,49.7,0,0,0,415,301c6.08-5.5,11.9-12.7,11.57-21.37A5.7,5.7,0,0,1,434.85,274.45Z"/><path class="cls-4" d="M434.85,274.45l-2.26,11.41a26.56,26.56,0,0,1-6.66,13c-9.56,10.82-18.57,17.67-32.24,22.62h0a21.19,21.19,0,0,1,10.59-13.21A49.7,49.7,0,0,0,415,301a48.27,48.27,0,0,0,7.81-8.87,21.48,21.48,0,0,0,3.76-12.5A5.7,5.7,0,0,1,434.85,274.45Z"/><path class="cls-3" d="M455.31,285h0l-10.85,25a17.83,17.83,0,0,0-1.2,10.22l3.22,18-6.19,12.2-7.58-23.74a27.57,27.57,0,0,1-.6-14.54l8.09-34.93,3.23,1.65Z"/><path class="cls-4" d="M440.2,277.2l3.23,1.65c-2.28,14.87-2.83,27.45-12,39.38a27.31,27.31,0,0,1,.7-6.1Z"/><path class="cls-11" d="M406.92,359.93a4.46,4.46,0,1,1-6.45,3.27,4.72,4.72,0,0,1,.44-1.33,4.47,4.47,0,0,1,5.54-2.14Z"/><path class="cls-13" d="M406.45,359.73a4.4,4.4,0,0,1-.43,1.33,4.47,4.47,0,0,1-5.55,2.14,4.72,4.72,0,0,1,.44-1.33A4.47,4.47,0,0,1,406.45,359.73Z"/><path class="cls-11" d="M407.35,349.54a4.46,4.46,0,1,1-6.44,3.26,4.16,4.16,0,0,1,.44-1.33,4.46,4.46,0,0,1,5.54-2.14A3.82,3.82,0,0,1,407.35,349.54Z"/><path class="cls-13" d="M406.89,349.33a4.34,4.34,0,0,1-.44,1.33,4.46,4.46,0,0,1-5.54,2.14,4.16,4.16,0,0,1,.44-1.33A4.46,4.46,0,0,1,406.89,349.33Z"/><path class="cls-11" d="M407.78,339.37a4.45,4.45,0,1,1-.47-.21A4.84,4.84,0,0,1,407.78,339.37Z"/><path class="cls-13" d="M407.31,339.16a4.31,4.31,0,0,1-.43,1.33,4.45,4.45,0,0,1-5.55,2.14,4.48,4.48,0,0,1,6-3.47Z"/><path class="cls-11" d="M408.21,328.92a4.5,4.5,0,1,1-.46-.2A4.58,4.58,0,0,1,408.21,328.92Z"/><path class="cls-13" d="M407.75,328.72a4.72,4.72,0,0,1-.44,1.33,4.47,4.47,0,0,1-5.54,2.14,4.43,4.43,0,0,1,6-3.47Z"/><path class="cls-14" d="M406.64,364.8a2,2,0,0,1-1.64,1.08l-13.5.8a2,2,0,1,1-.23-3.95l13.49-.8a2,2,0,0,1,2.09,1.86A2,2,0,0,1,406.64,364.8Z"/><path class="cls-14" d="M407.07,354.41a2,2,0,0,1-1.64,1.07l-13.49.8a2,2,0,0,1-2.09-1.86,2,2,0,0,1,1.85-2.08l13.5-.8a2,2,0,0,1,1.87,2.87Z"/><path class="cls-14" d="M407.5,344.24a2,2,0,0,1-1.64,1.07l-13.5.8a2,2,0,0,1-.24-3.94l13.5-.8a2,2,0,0,1,2.09,1.85A2.06,2.06,0,0,1,407.5,344.24Z"/><path class="cls-14" d="M407.93,333.79a2,2,0,0,1-1.64,1.07l-13.5.8a2,2,0,0,1-.23-3.94l13.5-.8a2,2,0,0,1,2.08,1.85A1.84,1.84,0,0,1,407.93,333.79Z"/><path class="cls-14" d="M391.28,332.39a1.73,1.73,0,0,1,.65,2h0c-.09.24-2.22,5.82-6.87,7.31-5,1.6-9.49.37-10.52-2.85s1.93-6.85,6.89-8.45c4.65-1.49,9.64,1.81,9.85,1.95Zm-13.45,5.45c.3.94,2.92,1.66,6.17.62a6.21,6.21,0,0,0,2.68-1.91,1.73,1.73,0,0,0-.91-2.82,6.09,6.09,0,0,0-3.28,0C379.23,334.78,377.52,336.9,377.83,337.84Z"/><path class="cls-14" d="M393.32,331.73a1.73,1.73,0,0,1-2,.65h0c-.24-.08-5.82-2.22-7.32-6.86-1.59-5-.37-9.49,2.85-10.53s6.86,1.93,8.45,6.9c1.5,4.64-1.8,9.63-1.94,9.84Zm-5.45-13.45c-.94.3-1.67,2.92-.62,6.18a6.1,6.1,0,0,0,1.91,2.67,1.73,1.73,0,0,0,2.82-.91,6.09,6.09,0,0,0,0-3.28C390.93,319.68,388.81,318,387.87,318.28Z"/><path class="cls-14" d="M393.56,323.48a1.6,1.6,0,0,1-1.55-1.21l-21.64-88.79a1.42,1.42,0,0,0-1.44-1.16h0a1.41,1.41,0,0,0-1.43,1.11l-13.39,72.25a1.59,1.59,0,0,1-3.13-.58l13.41-72.36a4.59,4.59,0,0,1,4.54-3.6h0a4.58,4.58,0,0,1,4.53,3.6l21.64,88.77a1.58,1.58,0,0,1-1.16,1.92A1.73,1.73,0,0,1,393.56,323.48Z"/></svg>