<svg id="_50" data-name="50" xmlns="http://www.w3.org/2000/svg" viewBox="0 0 512 512"><defs><style>.cls-1{fill:#29a3fb;}.cls-2{fill:#4fcae8;}.cls-3{fill:#daab42;}.cls-4{fill:#f9c744;}.cls-5{fill:#fad98f;}.cls-6{fill:#334353;}.cls-7{fill:#3f5d77;}.cls-8{fill:#3e4e60;}.cls-9{fill:#3f6c8e;}.cls-10{fill:#fff;}.cls-11{fill:#e9465e;}.cls-12{fill:#ee6781;}.cls-13{fill:#c0405c;}.cls-14{fill:#f4829b;}.cls-15{fill:#efb732;}.cls-16{fill:#ea792e;}.cls-17{fill:#fbcb74;}</style></defs><title>50-soccer-icons</title><circle class="cls-1" cx="256" cy="256" r="256"/><circle class="cls-2" cx="256" cy="256" r="205.72"/><rect class="cls-3" x="172.35" y="126.04" width="57.67" height="43.7"/><path class="cls-4" d="M290.49,126V377a20.59,20.59,0,0,1-20.59,20.59H132.48A20.59,20.59,0,0,1,111.89,377V126h60.47c-1.65,19.46,14.16,35,33.27,32.17C221.07,155.8,231.35,141.81,230,126Z"/><path class="cls-5" d="M290.49,126V377a20.59,20.59,0,0,1-20.59,20.59H201.19v-239a28.68,28.68,0,0,0,4.44-.35C221.07,155.8,231.35,141.81,230,126Z"/><path class="cls-6" d="M290.49,377a20.59,20.59,0,0,1-20.59,20.59H132.48A20.59,20.59,0,0,1,111.89,377Z"/><path class="cls-6" d="M156.85,271.62h0a7.6,7.6,0,0,1,7.6,7.6V377a0,0,0,0,1,0,0H149.25a0,0,0,0,1,0,0V279.22a7.6,7.6,0,0,1,7.6-7.6Z"/><path class="cls-7" d="M245.53,271.62h0a7.6,7.6,0,0,1,7.6,7.6V377a0,0,0,0,1,0,0H237.94a0,0,0,0,1,0,0V279.22a7.6,7.6,0,0,1,7.6-7.6Z"/><path class="cls-7" d="M290.49,377a20.59,20.59,0,0,1-20.59,20.59H201.19V377Z"/><path class="cls-6" d="M172.35,126v3.73a28.84,28.84,0,0,0,57.68,0V126l21.12,21.12a6.7,6.7,0,0,1-4.74,11.45H238.2a19.82,19.82,0,0,0-14,5.79L209,179.56a11.26,11.26,0,0,1-15.91,0L177.9,164.37a19.79,19.79,0,0,0-13.8-5.79l-8.19-.08a6.7,6.7,0,0,1-4.68-11.44Z"/><path class="cls-7" d="M246.41,158.56h-8.22a19.77,19.77,0,0,0-14,5.79L209,179.56a11.3,11.3,0,0,1-7.81,3.3V158.51a28.14,28.14,0,0,0,4.44-.35c15.44-2.37,25.73-16.35,24.39-32.17l21.13,21.12A6.71,6.71,0,0,1,246.41,158.56Z"/><path class="cls-4" d="M290.49,126h9.87a28,28,0,0,1,19.78,8.19l55.69,55.69a10.19,10.19,0,0,1,0,14.4l-47.27,47.27a10.19,10.19,0,0,1-14.4,0l-23.35-23.35Z"/><path class="cls-7" d="M375.82,204.27l-47.27,47.26a10.16,10.16,0,0,1-14.39,0l-7-7,61.67-61.66,7,7A10.18,10.18,0,0,1,375.82,204.27Z"/><path class="cls-3" d="M111.89,126H102a28,28,0,0,0-19.78,8.19L26.56,189.87a10.18,10.18,0,0,0,0,14.4l47.27,47.27a10.18,10.18,0,0,0,14.39,0l23.35-23.35Z"/><path class="cls-6" d="M26.56,204.27l47.27,47.26a10.18,10.18,0,0,0,14.4,0l7-7L33.57,182.86l-7,7A10.19,10.19,0,0,0,26.56,204.27Z"/><path class="cls-8" d="M405.23,195.24a10.76,10.76,0,1,0,15.22,0A10.77,10.77,0,0,0,405.23,195.24Zm3.13,3.13a6.34,6.34,0,1,1,0,9A6.34,6.34,0,0,1,408.36,198.37Z"/><path class="cls-7" d="M438.06,228.07v53.29a7.09,7.09,0,0,1-7.09,7.08h-9a7.08,7.08,0,0,1-7.09-7.08V253.19c-.69.06-1.39.09-2.09.09a25.22,25.22,0,1,1,25.22-25.21Z"/><circle class="cls-8" cx="412.84" cy="227.66" r="18.78"/><path class="cls-6" d="M430,232h0a5.6,5.6,0,0,1,5.6,5.6v10.44a0,0,0,0,1,0,0h-11.2a0,0,0,0,1,0,0V237.62A5.6,5.6,0,0,1,430,232Z" transform="translate(189.99 670.08) rotate(-90)"/><path class="cls-6" d="M420.35,277.82h7.74a4.5,4.5,0,0,1,4.5,4.5v0a4.5,4.5,0,0,1-4.5,4.5h-7.74a0,0,0,0,1,0,0v-9A0,0,0,0,1,420.35,277.82Z" transform="translate(144.15 708.8) rotate(-90)"/><rect class="cls-9" x="420.03" y="261.56" width="28.97" height="7.09" rx="3.54" transform="translate(169.41 699.62) rotate(-90)"/><path class="cls-10" d="M412.84,199a1.5,1.5,0,0,0,0-3c-16,0-29-24.37-29-54.32,0-30.34,0-54.31,29-54.31s29,24,29,54.31c0,22.26-7.19,42.05-18.32,50.43a1.5,1.5,0,0,0,1.81,2.4c11.85-8.93,19.51-29.66,19.51-52.83,0-30.75,0-57.31-32-57.31s-32,26.56-32,57.31C380.8,173.3,395.17,199,412.84,199Z"/><path class="cls-11" d="M441.83,325.36l-20.22,75.46a5,5,0,0,1-.61,1.39h0a5.05,5.05,0,0,1-4,2.33,5.19,5.19,0,0,1-1.51-.17l-51.94-13.92a4.64,4.64,0,0,1-1.38-.61,5,5,0,0,1-2.33-4h0a4.9,4.9,0,0,1,.17-1.51l20.22-75.46a4.82,4.82,0,0,1,.61-1.39,5,5,0,0,1,4-2.32,4.89,4.89,0,0,1,1.51.16l51.93,13.92a4.76,4.76,0,0,1,1.4.61,5,5,0,0,1,2.32,4A5.19,5.19,0,0,1,441.83,325.36Z"/><path class="cls-12" d="M441.83,325.36l-20.22,75.46a5,5,0,0,1-.61,1.39h0a3.52,3.52,0,1,1-6.17-3.21l20.22-75.46a3.52,3.52,0,1,1,6.95.31A5.19,5.19,0,0,1,441.83,325.36Z"/><path class="cls-13" d="M417.29,397.58l-50-13.39L387,310.67a3.52,3.52,0,1,0-6.17-3.21,4.82,4.82,0,0,0-.61,1.39L360,384.31a4.9,4.9,0,0,0-.17,1.51h0a5,5,0,0,0,2.33,4,4.64,4.64,0,0,0,1.38.61l51.94,13.92a5.19,5.19,0,0,0,1.51.17,5.05,5.05,0,0,0,4-2.33h0A5,5,0,0,0,417.29,397.58Z"/><path class="cls-14" d="M442,323.85a5,5,0,0,1-5.53,2.15l-51.94-13.91a3.52,3.52,0,1,1,.31-6.95,4.89,4.89,0,0,1,1.51.16l51.93,13.92a4.76,4.76,0,0,1,1.4.61A5,5,0,0,1,442,323.85Z"/><path class="cls-15" d="M369.43,308.85l20.22,75.46a4.89,4.89,0,0,1,.16,1.51h0a5,5,0,0,1-2.33,4,4.59,4.59,0,0,1-1.39.61l-51.93,13.92a4.89,4.89,0,0,1-1.51.16,5,5,0,0,1-4-2.32h0a4.7,4.7,0,0,1-.61-1.39l-20.22-75.46a4.87,4.87,0,0,1-.17-1.51,5,5,0,0,1,2.32-4,4.82,4.82,0,0,1,1.39-.61l51.94-13.92a4.86,4.86,0,0,1,1.51-.16,5,5,0,0,1,4,2.32A5.11,5.11,0,0,1,369.43,308.85Z"/><path class="cls-4" d="M369.43,308.85l20.22,75.46a4.89,4.89,0,0,1,.16,1.51h0a3.52,3.52,0,1,1-7,.31l-20.22-75.46a3.52,3.52,0,1,1,6.18-3.21A5.11,5.11,0,0,1,369.43,308.85Z"/><path class="cls-16" d="M384.28,383.67l-50,13.39-19.7-73.52a3.52,3.52,0,1,0-6.95.31,4.87,4.87,0,0,0,.17,1.51L328,400.82a4.7,4.7,0,0,0,.61,1.39h0a5,5,0,0,0,4,2.32,4.89,4.89,0,0,0,1.51-.16l51.93-13.92a4.59,4.59,0,0,0,1.39-.61,5,5,0,0,0,2.33-4h0A5,5,0,0,0,384.28,383.67Z"/><path class="cls-17" d="M368.82,307.46a5,5,0,0,1-3.72,4.63L313.17,326a3.52,3.52,0,1,1-3.21-6.17,4.82,4.82,0,0,1,1.39-.61l51.94-13.92a4.86,4.86,0,0,1,1.51-.16A5,5,0,0,1,368.82,307.46Z"/></svg>