<svg id="_50" data-name="50" xmlns="http://www.w3.org/2000/svg" viewBox="0 0 512 512"><defs><style>.cls-1{fill:#fa80a4;}.cls-2{fill:#334353;}.cls-3{fill:#3f5d77;}.cls-4{fill:#22bce0;}.cls-5{fill:#f4e6f4;}.cls-6{fill:#fff;}.cls-7{fill:#528f66;}.cls-8{fill:#53b976;}.cls-9{fill:#ebd9ea;}.cls-10{fill:#c1b7d3;}.cls-11{fill:#e9465e;}.cls-12{fill:#ee6781;}</style></defs><title>50-soccer-icons</title><circle class="cls-1" cx="256" cy="256" r="256"/><path class="cls-2" d="M359.8,450a9.44,9.44,0,0,1-8.59,5.53c-23.75,0-66.85,0-90.34-34.7a2.69,2.69,0,0,0-4.43,0c-23.49,34.69-66.59,34.7-90.33,34.7a9.42,9.42,0,0,1-8.59-5.52,9.12,9.12,0,0,1-.84-4.57,9.66,9.66,0,0,1,9.74-8.81c30.56,0,61.66-2.5,77.26-31.13a9.46,9.46,0,0,1,8.24-4.92H265.4a9.45,9.45,0,0,1,8.23,4.92c15.6,28.63,46.7,31.12,77.26,31.13a9.65,9.65,0,0,1,9.74,8.81A9.18,9.18,0,0,1,359.8,450Z"/><path class="cls-3" d="M243.18,424.32a16.21,16.21,0,0,0-10.72,4.11c-16.92,15-41.65,15.95-66,16a9.85,9.85,0,0,0-8.9,5.57,9.42,9.42,0,0,0,8.59,5.52c22.9,0,63.81,0,87.77-31.16Z"/><path class="cls-3" d="M350.89,444.39c-24.39,0-49.12-1-66-16a16.21,16.21,0,0,0-10.72-4.11h-10.7c24,31.14,64.87,31.16,87.78,31.16A9.44,9.44,0,0,0,359.8,450,9.89,9.89,0,0,0,350.89,444.39Z"/><rect class="cls-2" x="86.05" y="192.94" width="339.91" height="222.81" rx="21.99"/><rect class="cls-3" x="86.05" y="192.94" width="339.91" height="212.47" rx="21.99"/><rect class="cls-4" x="96.38" y="203.28" width="319.23" height="202.13" rx="9.12"/><path class="cls-5" d="M159.44,221.64H352.56a13.12,13.12,0,0,1,13.11,13.11V373.94a13.12,13.12,0,0,1-13.11,13.11H159.44a13.12,13.12,0,0,1-13.11-13.11V234.75A13.12,13.12,0,0,1,159.44,221.64Z"/><path class="cls-6" d="M159.44,221.64H352.56a13.12,13.12,0,0,1,13.11,13.11v69.6H146.33v-69.6A13.12,13.12,0,0,1,159.44,221.64Z"/><path class="cls-7" d="M171.67,233.88H340.33A13.1,13.1,0,0,1,353.43,247V361.7a13.1,13.1,0,0,1-13.1,13.11H171.67a13.1,13.1,0,0,1-13.1-13.11V247A13.1,13.1,0,0,1,171.67,233.88Z"/><path class="cls-8" d="M171.67,233.88H340.33A13.1,13.1,0,0,1,353.43,247v57.36H158.57V247A13.1,13.1,0,0,1,171.67,233.88Z"/><path class="cls-5" d="M169.27,254.87v98.95a10.31,10.31,0,0,0,10.29,10.29H332.43a10.31,10.31,0,0,0,10.3-10.3V254.87a10.31,10.31,0,0,0-10.29-10.29H179.56A10.31,10.31,0,0,0,169.27,254.87Zm3.06,70.44V283.39h17.23a2.11,2.11,0,0,1,2.11,2.11v37.7a2.12,2.12,0,0,1-2.11,2.11Zm7.23,35.74a7.25,7.25,0,0,1-7.23-7.23v-8.26a17.1,17.1,0,0,1,15.49,15.49Zm160.11-7.24a7.25,7.25,0,0,1-7.24,7.24h-8.25a17.1,17.1,0,0,1,15.49-15.49Zm0-70.42v41.92H322.44a2.12,2.12,0,0,1-2.11-2.11V285.5a2.11,2.11,0,0,1,2.11-2.11Zm-7.23-35.75a7.25,7.25,0,0,1,7.23,7.23v8.26a17.1,17.1,0,0,1-15.49-15.49Zm-11.33,0a20.19,20.19,0,0,0,18.56,18.56v14.13H322.44a5.18,5.18,0,0,0-5.17,5.17v37.7a5.17,5.17,0,0,0,5.17,5.16h17.23v14.13a20.19,20.19,0,0,0-18.56,18.56H257.53V324a19.74,19.74,0,0,0,0-39.37v-37Zm-66.64,51.21a5.7,5.7,0,0,0,0,11V321a16.69,16.69,0,0,1,0-33.24Zm3.06,11a5.7,5.7,0,0,0,0-11V287.73a16.69,16.69,0,0,1,0,33.24Zm-3.06-62.2v37a19.74,19.74,0,0,0,0,39.37v37H190.89a20.19,20.19,0,0,0-18.56-18.56V328.36h17.23a5.17,5.17,0,0,0,5.17-5.16V285.5a5.18,5.18,0,0,0-5.17-5.17H172.33V266.2a20.19,20.19,0,0,0,18.56-18.56Zm-66.65,0a17.1,17.1,0,0,1-15.49,15.49v-8.26a7.25,7.25,0,0,1,7.23-7.23Z"/><path class="cls-6" d="M169.27,254.87v49.48h3.06v-21h17.23a2.1,2.1,0,0,1,2.1,2.11v18.85h3.06V285.5a5.17,5.17,0,0,0-5.16-5.17H172.33V266.2a20.18,20.18,0,0,0,18.56-18.56h63.58v37a19.77,19.77,0,0,0-18.22,19.69h3.06a16.72,16.72,0,0,1,15.16-16.63v11.13a5.72,5.72,0,0,0-4.18,5.5h11.42a5.72,5.72,0,0,0-4.18-5.5V287.72a16.72,16.72,0,0,1,15.16,16.63h3.06a19.77,19.77,0,0,0-18.22-19.69v-37h63.58a20.18,20.18,0,0,0,18.56,18.56v14.13H322.44a5.17,5.17,0,0,0-5.16,5.17v18.85h3.06V285.5a2.1,2.1,0,0,1,2.1-2.11h17.23v21h3.06V254.87a10.31,10.31,0,0,0-10.29-10.29H179.56A10.31,10.31,0,0,0,169.27,254.87Zm163.17-7.23a7.24,7.24,0,0,1,7.23,7.23v8.26a17.1,17.1,0,0,1-15.49-15.49Zm-144.62,0a17.1,17.1,0,0,1-15.49,15.49v-8.26a7.24,7.24,0,0,1,7.23-7.23Z"/><g id="Speech-bubble"><path class="cls-9" d="M271,214.5a12.37,12.37,0,0,0,10.38-5.61l40-61.09c8.45-14.08-11.18-27-20.74-13.57l-40,61.09C255.24,203.37,261.4,214.65,271,214.5Z"/><path class="cls-9" d="M363.1,43.14v77.4a47.24,47.24,0,0,1-47.25,47.25H196.15a47.24,47.24,0,0,1-47.25-47.25V43.14a47,47,0,0,1,5.54-22.2C216.49-6.79,295.52-6.81,357.57,21A47,47,0,0,1,363.1,43.14Z"/><path class="cls-6" d="M363.1,43.14v77.4a47.1,47.1,0,0,1-9.91,29,47,47,0,0,1-9.92-29V43.14A46.88,46.88,0,0,1,350.51,18c2.37.94,4.73,1.91,7.06,2.93A47,47,0,0,1,363.1,43.14Z"/><path class="cls-10" d="M168.73,43.14v77.4a47.1,47.1,0,0,1-9.91,29,47,47,0,0,1-9.92-29V43.14a47,47,0,0,1,5.54-22.2c2.33-1,4.69-2,7.06-2.92A47,47,0,0,1,168.73,43.14Z"/></g><path class="cls-11" d="M186.08,106.32c-8-10-8-38.95,0-48.95,7.19-11.23,27.56-11.23,34.75,0q6,8.41,6,24.43t-6,24.47C213.65,117.56,193.28,117.56,186.08,106.32Zm26.38-6.46c3.75-6.43,3.76-29.76,0-36.12-3.27-7.49-14.76-7.48-18,0-3.77,6.44-3.75,29.63,0,36.08C197.71,107.45,209.2,107.45,212.46,99.86Z"/><path class="cls-12" d="M331.93,109.86c0,3.25-1.85,4.88-5.53,4.88h-35a4.82,4.82,0,0,1-5.15-5,7,7,0,0,1,2.12-5c4.46-5.29,24.09-24.48,26.65-30.34,6-12.47-3.31-19.23-15.1-14.55a36.39,36.39,0,0,0-7.13,3.92c-2,1.46-4.69,2.36-6.4,0C281.81,57,291.45,53,296.85,50.89c19.66-6.86,38.68,5,29.28,26.33-3,7.09-18.5,21.65-24,27.94H326.4C330.08,105.16,331.93,106.73,331.93,109.86Z"/><path class="cls-11" d="M260.07,91.35A5.94,5.94,0,0,0,256,89.64,5.85,5.85,0,0,0,252,99.55a6,6,0,0,0,4.06,1.71A5.85,5.85,0,0,0,260.07,91.35Zm0-27.24A6,6,0,0,0,256,62.44,5.77,5.77,0,0,0,252,72.26,5.94,5.94,0,0,0,256,74,5.81,5.81,0,0,0,260.07,64.11Z"/><path class="cls-12" d="M260.07,91.35a5.85,5.85,0,0,1-4.06,9.91V89.64A5.94,5.94,0,0,1,260.07,91.35Z"/><path class="cls-12" d="M256,74V62.44a6,6,0,0,1,4.06,1.67A5.81,5.81,0,0,1,256,74Z"/></svg>