<svg id="_50" data-name="50" xmlns="http://www.w3.org/2000/svg" viewBox="0 0 512 512"><defs><style>.cls-1{fill:#e9465e;}.cls-2{fill:#ea7589;}.cls-3{fill:#fbd9a3;}.cls-4{fill:#faefdc;}.cls-5{fill:#fbcb74;}.cls-6{fill:#deb36f;}.cls-7{fill:#f39e22;}.cls-8{fill:#3f6c8e;}.cls-9{fill:#c1b7d3;}.cls-10{fill:#f4e6f4;}.cls-11{fill:#746087;}.cls-12{fill:#c2aacf;}.cls-13{fill:#3e4e60;}.cls-14{fill:#fff;}</style></defs><title>50-soccer-icons</title><circle class="cls-1" cx="256" cy="256" r="256"/><path class="cls-2" d="M428.33,192.29a4.86,4.86,0,0,0,4.94-3.56l1.81-6.74a4.82,4.82,0,0,0-3.41-5.9l-339.61-91a4.82,4.82,0,0,0-5.9,3.41l-1.81,6.74a4.87,4.87,0,0,0,2.5,5.55,17.64,17.64,0,0,1-8.91,33.26A4.85,4.85,0,0,0,73,137.61l-2.47,9.19A4.87,4.87,0,0,0,73,152.36a17.64,17.64,0,0,1-8.92,33.26,4.85,4.85,0,0,0-4.94,3.56l-2.46,9.19a4.85,4.85,0,0,0,2.5,5.56,17.64,17.64,0,0,1-8.91,33.26,4.87,4.87,0,0,0-5,3.56l-1.8,6.74a4.81,4.81,0,0,0,3.4,5.9l339.62,91a4.82,4.82,0,0,0,5.9-3.41l1.8-6.74a4.84,4.84,0,0,0-2.5-5.55,17.64,17.64,0,0,1,8.91-33.26,4.88,4.88,0,0,0,4.95-3.56l2.46-9.2a4.85,4.85,0,0,0-2.5-5.55,17.64,17.64,0,0,1,8.91-33.26,4.88,4.88,0,0,0,4.95-3.56l2.46-9.2a4.85,4.85,0,0,0-2.5-5.55,17.64,17.64,0,0,1,8.91-33.26Z"/><rect class="cls-3" x="147.19" y="178.84" width="249.61" height="174.24"/><rect class="cls-4" x="271.98" y="178.84" width="124.82" height="174.24"/><path class="cls-5" d="M435,319.35a17.65,17.65,0,0,1,13.78-17.22,4.86,4.86,0,0,0,3.86-4.72v-9.52a4.84,4.84,0,0,0-3.86-4.71,17.65,17.65,0,0,1,0-34.44,4.86,4.86,0,0,0,3.86-4.72V234.5a4.86,4.86,0,0,0-3.86-4.71,17.65,17.65,0,0,1,0-34.44,4.86,4.86,0,0,0,3.86-4.72v-7a4.82,4.82,0,0,0-4.82-4.82h-51V353.08h51a4.82,4.82,0,0,0,4.82-4.82v-7a4.84,4.84,0,0,0-3.86-4.71A17.65,17.65,0,0,1,435,319.35Z"/><path class="cls-6" d="M109,319.35a17.65,17.65,0,0,0-13.79-17.22,4.86,4.86,0,0,1-3.85-4.72v-9.52a4.84,4.84,0,0,1,3.85-4.71,17.65,17.65,0,0,0,0-34.44A4.86,4.86,0,0,1,91.38,244V234.5a4.86,4.86,0,0,1,3.85-4.71,17.65,17.65,0,0,0,0-34.44,4.86,4.86,0,0,1-3.85-4.72v-7a4.82,4.82,0,0,1,4.82-4.82h51V353.08h-51a4.82,4.82,0,0,1-4.82-4.82v-7a4.84,4.84,0,0,1,3.85-4.71A17.65,17.65,0,0,0,109,319.35Z"/><path class="cls-7" d="M396.8,342.33a4.74,4.74,0,0,1-4.73-4.74V326.24a4.73,4.73,0,1,1,9.46,0v11.35A4.74,4.74,0,0,1,396.8,342.33Zm0-34.07a4.74,4.74,0,0,1-4.73-4.74V292.17a4.73,4.73,0,1,1,9.46,0v11.35A4.74,4.74,0,0,1,396.8,308.26Zm0-34.08a4.73,4.73,0,0,1-4.73-4.73V258.09a4.73,4.73,0,1,1,9.46,0v11.36A4.73,4.73,0,0,1,396.8,274.18Zm0-34.07a4.73,4.73,0,0,1-4.73-4.73V224a4.73,4.73,0,1,1,9.46,0v11.36A4.73,4.73,0,0,1,396.8,240.11Zm0-34.07a4.73,4.73,0,0,1-4.73-4.73V190a4.73,4.73,0,1,1,9.46,0v11.36A4.73,4.73,0,0,1,396.8,206Z"/><rect class="cls-8" x="314.57" y="261.25" width="63.51" height="7.73" rx="3.86"/><rect class="cls-8" x="314.57" y="244.01" width="63.51" height="7.73" rx="3.86"/><rect class="cls-8" x="314.57" y="225.08" width="63.51" height="7.73" rx="3.86"/><rect class="cls-8" x="314.57" y="206.15" width="63.51" height="7.73" rx="3.86"/><rect class="cls-8" x="314.57" y="280.18" width="63.51" height="7.73" rx="3.86"/><rect class="cls-8" x="314.57" y="299.11" width="63.51" height="7.73" rx="3.86"/><rect class="cls-8" x="314.57" y="318.03" width="63.51" height="7.73" rx="3.86"/><circle class="cls-9" cx="235.97" cy="265.97" r="63.79"/><path class="cls-10" d="M285,225.16a63.75,63.75,0,0,0-49-23c-2,0-3.91.09-5.83.27a63.64,63.64,0,0,0-9.69,15h0A63.78,63.78,0,0,0,278.38,308c2,0,3.91-.09,5.83-.27a64,64,0,0,0,6.66-9.23,63.37,63.37,0,0,0,7.55-19.41,64.25,64.25,0,0,0,1.35-13.1A63.57,63.57,0,0,0,285,225.16Z"/><path class="cls-11" d="M236,207a58.95,58.95,0,1,1-41.67,17.26A58.55,58.55,0,0,1,236,207m0-4.86a63.8,63.8,0,1,0,63.8,63.8,63.8,63.8,0,0,0-63.8-63.8Z"/><path class="cls-12" d="M299.72,263.5a63.77,63.77,0,0,0-69.58-61.06,63.71,63.71,0,0,0-4.22,5.44c56.82-9.1,91.78,59.23,51.41,100.09,1.62-1.64,4.62-.05,6.88-.25A63.78,63.78,0,0,0,299.72,263.5Z"/><path class="cls-11" d="M208.92,262.81a2.8,2.8,0,0,1-.85-.14l-10.47-3.43a2.73,2.73,0,1,1,1.7-5.18l10.47,3.42a2.73,2.73,0,0,1-.85,5.33Z"/><path class="cls-12" d="M236,243.11a2.72,2.72,0,0,1-2.73-2.72V227.3a2.73,2.73,0,0,1,5.45,0v13.09A2.72,2.72,0,0,1,236,243.11Z"/><path class="cls-12" d="M263,262.76a2.73,2.73,0,0,1-.81-5.33l10.52-3.28a2.73,2.73,0,0,1,1.62,5.21l-10.52,3.28A2.84,2.84,0,0,1,263,262.76Z"/><path class="cls-12" d="M257.18,301a2.73,2.73,0,0,1-2.24-1.17l-4.52-6.47a2.73,2.73,0,1,1,4.47-3.12l4.52,6.46a2.73,2.73,0,0,1-.67,3.8A2.68,2.68,0,0,1,257.18,301Z"/><path class="cls-11" d="M214.58,300.91a2.72,2.72,0,0,1-2.17-4.37l4.77-6.3a2.73,2.73,0,1,1,4.35,3.29l-4.77,6.3A2.72,2.72,0,0,1,214.58,300.91Z"/><path class="cls-13" d="M227.6,329.22a63.81,63.81,0,0,1-46.41-30.55l30-1.38a6,6,0,0,1,5.86,3.85Z"/><path class="cls-13" d="M196.49,259.83l-22.94,19.35a63.91,63.91,0,0,1,13.32-53.93L198.17,253A6,6,0,0,1,196.49,259.83Z"/><path class="cls-13" d="M299.77,266a64.25,64.25,0,0,1-1.35,13.1l-23-19.31a6,6,0,0,1-1.69-6.8L285,225.16A63.57,63.57,0,0,1,299.77,266Z"/><path class="cls-8" d="M299.77,266a64.25,64.25,0,0,1-1.35,13.1l-23-19.31a6,6,0,0,1-1.69-6.8L285,225.16A63.57,63.57,0,0,1,299.77,266Z"/><path class="cls-13" d="M232.47,241.52,211.1,257.05a6,6,0,0,0-2.17,6.66l8.17,25.13a6,6,0,0,0,5.66,4.12h26.42a6,6,0,0,0,5.67-4.12L263,263.71a6,6,0,0,0-2.16-6.66l-21.37-15.53A6,6,0,0,0,232.47,241.52Z"/><path class="cls-8" d="M263,263.72l-8.16,25.12a6,6,0,0,1-5.67,4.12H237.26a63.71,63.71,0,0,1-21.93-39l17.14-12.45a6,6,0,0,1,7,0l21.37,15.53A6,6,0,0,1,263,263.72Z"/><path class="cls-13" d="M290.87,298.48a64,64,0,0,1-46.3,30.71l9.67-25.94.81-2.17a6,6,0,0,1,5.84-3.88Z"/><path class="cls-8" d="M290.87,298.48a64,64,0,0,1-6.66,9.23c-1.92.18-3.87.27-5.83.27a63.57,63.57,0,0,1-24.14-4.73l.81-2.18a6,6,0,0,1,5.84-3.87Z"/><path class="cls-13" d="M263.75,208.53l-24.27,17.64a6,6,0,0,1-7,0l-12-8.74h0l-12.26-8.9a63.34,63.34,0,0,1,21.95-6.09c1.92-.18,3.87-.27,5.83-.27A63.39,63.39,0,0,1,263.75,208.53Z"/><path class="cls-8" d="M263.75,208.53l-24.27,17.63a6,6,0,0,1-7,0l-12-8.73h0a63.64,63.64,0,0,1,9.69-15c1.92-.18,3.87-.27,5.83-.27A63.39,63.39,0,0,1,263.75,208.53Z"/><circle class="cls-14" cx="260.28" cy="232.63" r="13.04"/></svg>