<svg id="_50" data-name="50" xmlns="http://www.w3.org/2000/svg" viewBox="0 0 512 512"><defs><style>.cls-1{fill:#6c7ed5;}.cls-2{fill:#57409b;}.cls-3{fill:#6052a3;}.cls-4{fill:#7063ce;}.cls-5{fill:#f9c744;}.cls-6{fill:#fad98f;}.cls-7{fill:#ea792e;}.cls-8{fill:#f39e22;}.cls-9{fill:#c44a1a;}.cls-10{fill:#dd5e26;}.cls-11{fill:#fbcb74;}</style></defs><title>50-soccer-icons</title><circle class="cls-1" cx="256" cy="256" r="256"/><path class="cls-2" d="M154.64,255.07H313.27L241.1,100.55a57.43,57.43,0,0,0-52-33.12h-85.5a23.27,23.27,0,0,0-21.09,33.12Z"/><path class="cls-3" d="M191.21,255.07H154.64L82.47,100.55a23.27,23.27,0,0,1,21.09-33.12h0Z"/><path class="cls-3" d="M313.27,255.07H276.71L189.06,67.43h0a57.43,57.43,0,0,1,52,33.12Z"/><path class="cls-3" d="M357.36,255.07H198.73L270.9,100.55a57.43,57.43,0,0,1,52-33.12h85.5a23.27,23.27,0,0,1,21.09,33.12Z"/><path class="cls-4" d="M320.79,255.07h36.57l72.17-154.52a23.27,23.27,0,0,0-21.09-33.12h0Z"/><path class="cls-4" d="M198.73,255.07h36.56L322.94,67.43h0a57.43,57.43,0,0,0-52,33.12Z"/><circle class="cls-5" cx="256" cy="345.89" r="136.1"/><path class="cls-6" d="M256,482a136.1,136.1,0,1,0,0-272.2Z"/><path class="cls-7" d="M256,473A127.09,127.09,0,1,1,383.09,345.89C383.09,416,326.07,473,256,473Zm0-245.75A118.67,118.67,0,1,0,374.67,345.89,118.8,118.8,0,0,0,256,227.22Z"/><path class="cls-8" d="M256,473v-8.41a118.67,118.67,0,1,0,0-237.34V218.8A127.24,127.24,0,0,1,383.09,345.89C383.09,416,326.07,473,256,473Z"/><circle class="cls-7" cx="256" cy="345.89" r="99.67"/><path class="cls-8" d="M256,445.55a99.67,99.67,0,1,0,0-199.33Z"/><path class="cls-8" d="M301.43,345.89A45.43,45.43,0,0,1,256,391.32h0a45.44,45.44,0,0,1,0-90.87h0A45.43,45.43,0,0,1,301.43,345.89Z"/><path class="cls-5" d="M301.43,345.89A45.43,45.43,0,0,1,256,391.32h0V300.45h0A45.43,45.43,0,0,1,301.43,345.89Z"/><path class="cls-9" d="M300.48,355.22a45.65,45.65,0,0,0-9.56-38.4h0A45.48,45.48,0,0,0,275.78,305h0a45.77,45.77,0,0,0-39.58,0h0A45.74,45.74,0,0,0,221,316.88h0a45.63,45.63,0,0,0-9.49,38.41h0A45,45,0,0,0,217,369.18h0A45.67,45.67,0,0,0,250,390.93h0a45,45,0,0,0,12.1,0h0a45.65,45.65,0,0,0,33-21.87h0a45.11,45.11,0,0,0,5.38-13.83Zm-14.8-39a42.13,42.13,0,0,1,3.75,4.3l-6.52,16.12a4.45,4.45,0,0,0-.22.77,2.25,2.25,0,0,0-.52.08l-7.49,2.33a2.39,2.39,0,0,0-.43.2,4.8,4.8,0,0,0-.53-.47l-15.22-11a3.62,3.62,0,0,0-.62-.37c.09-.32.09-9.88,0-10.2a5.63,5.63,0,0,0,.62-.37l14.08-10.23A41.78,41.78,0,0,1,285.68,316.2Zm-59.36,0a41.78,41.78,0,0,1,13.1-8.89l5.53,4h0l8.55,6.22a4.76,4.76,0,0,0,.6.36c-.1.35-.1,9.86,0,10.21-.1-.05-16.47,11.84-16.37,11.91a2.32,2.32,0,0,0-.39-.18l-7.46-2.44a2.06,2.06,0,0,0-.6-.08,4.88,4.88,0,0,0-.2-.65l-6.56-16.11A43.29,43.29,0,0,1,226.32,316.2Zm-11.74,36.53,13.3-11.21a4.49,4.49,0,0,0,.53-.54c.3.14,7.91,2.68,8.17,2.64,0,.35,6.08,19.08,6.29,19.27a3.33,3.33,0,0,0-.25.28l-3.4,4.49a1.79,1.79,0,0,0-.28.55,4.15,4.15,0,0,0-.61,0L221,369A41.61,41.61,0,0,1,214.58,352.73ZM256,387.86a42.88,42.88,0,0,1-7.37-.65l-6.13-16.28a4.54,4.54,0,0,0-.37-.73,1.84,1.84,0,0,0,.19-.2l3.4-4.48a2.3,2.3,0,0,0,.25-.46,4.21,4.21,0,0,0,.62.05h18.82a3.91,3.91,0,0,0,.68-.06,1.54,1.54,0,0,0,.2.38l3.22,4.6a2.1,2.1,0,0,0,.31.35c-.41.79-5.8,15.53-6.31,16.8A41.54,41.54,0,0,1,256,387.86Zm35.13-19-17.39-.74a4.75,4.75,0,0,0-.84.06c.24.17-3.43-5-3.43-5a1.78,1.78,0,0,0-.32-.35c.07.16,6.39-19.31,6.27-19.26.38,0,7.89-2.38,8.25-2.56a4.57,4.57,0,0,0,.44.44l13.32,11.19A41.53,41.53,0,0,1,291.13,368.87Z"/><path class="cls-10" d="M301.39,344c-.79-24.12-21.34-43.78-45.4-43.58v64.66c.21,0,10.24.06,10.09-.06s3.42,4.95,3.43,5a2.1,2.1,0,0,0,.31.35c-.41.79-5.8,15.53-6.31,16.81a42.66,42.66,0,0,1-7.52.67v3.46A45.55,45.55,0,0,0,295.09,369h0A45.35,45.35,0,0,0,301.39,344ZM258.5,328.47a5.63,5.63,0,0,0-.62-.37c.09-.32.09-9.87,0-10.19a5.63,5.63,0,0,0,.62-.37l14.07-10.24a42.14,42.14,0,0,1,16.86,13.2l-6.53,16.12a5.56,5.56,0,0,0-.22.77,2.26,2.26,0,0,0-.51.08l-7.49,2.33a2.11,2.11,0,0,0-.43.2,4.73,4.73,0,0,0-.53-.46Zm32.63,40.41-17.38-.75a4.51,4.51,0,0,0-.83.06c0-.14-3.45-5-3.45-5a1.78,1.78,0,0,0-.32-.35c.08.16,6.39-19.3,6.27-19.26.38,0,7.89-2.38,8.25-2.55a4.47,4.47,0,0,0,.44.43l13.32,11.18A41.62,41.62,0,0,1,291.13,368.88Z"/><path class="cls-5" d="M306.84,412.24a1.58,1.58,0,0,1-1.24-.05,1.62,1.62,0,0,1-.78-2.15L327.24,362a27.47,27.47,0,0,0,.92-21.11l-21.59-59.31a1.62,1.62,0,0,1,3-1.11l21.59,59.31a30.63,30.63,0,0,1-1,23.58l-22.42,48.08A1.61,1.61,0,0,1,306.84,412.24Z"/><path class="cls-11" d="M320.25,375l-1.54.56a5.52,5.52,0,0,1-7.39-4.88l-.71-13A2.43,2.43,0,0,1,315,356.1l7.79,10.38A5.52,5.52,0,0,1,320.25,375Z"/><path class="cls-11" d="M328.29,327.41l-1.26-.59a4.67,4.67,0,0,1-1.51-7.35l7.34-8.19a2.06,2.06,0,0,1,3.58,1.67l-1.55,10.89A4.67,4.67,0,0,1,328.29,327.41Z"/><path class="cls-11" d="M318.87,301.69l-1.12-.52a4.15,4.15,0,0,1-1.34-6.52l6.52-7.27a1.83,1.83,0,0,1,3.17,1.48l-1.38,9.66A4.13,4.13,0,0,1,318.87,301.69Z"/><path class="cls-11" d="M310.81,286.67l-1.16.42a4.14,4.14,0,0,1-5.55-3.67l-.53-9.74a1.83,1.83,0,0,1,3.29-1.2l5.85,7.81A4.14,4.14,0,0,1,310.81,286.67Z"/><path class="cls-11" d="M318.33,315.55l-.59,1.26a4.67,4.67,0,0,1-7.35,1.5l-8.2-7.34a2.07,2.07,0,0,1,1.67-3.58L314.75,309A4.67,4.67,0,0,1,318.33,315.55Z"/><path class="cls-11" d="M327.81,344.08l-.87,1.13a4.77,4.77,0,0,1-7.67-.14l-6.53-9.16a2.11,2.11,0,0,1,2.46-3.2l10.52,4A4.78,4.78,0,0,1,327.81,344.08Z"/><path class="cls-11" d="M318.31,393.29l-.56-1.54a5.52,5.52,0,0,1,4.88-7.39l13-.71a2.44,2.44,0,0,1,1.6,4.38l-10.39,7.79A5.51,5.51,0,0,1,318.31,393.29Z"/><path class="cls-11" d="M333.82,360.68l-1-1.18a5.14,5.14,0,0,1,2-8L346,346.84a2.26,2.26,0,0,1,2.76,3.34l-6.7,10.07A5.14,5.14,0,0,1,333.82,360.68Z"/><path class="cls-8" d="M205.16,412.24a1.55,1.55,0,0,0,1.23-.05,1.63,1.63,0,0,0,.79-2.15L184.76,362a27.42,27.42,0,0,1-.92-21.11l21.58-59.31a1.62,1.62,0,0,0-3-1.11L180.8,339.75a30.63,30.63,0,0,0,1,23.58l22.42,48.08A1.58,1.58,0,0,0,205.16,412.24Z"/><path class="cls-5" d="M191.75,375l1.54.56a5.52,5.52,0,0,0,7.39-4.88l.71-13A2.43,2.43,0,0,0,197,356.1l-7.79,10.38A5.51,5.51,0,0,0,191.75,375Z"/><path class="cls-5" d="M183.71,327.41l1.26-.59a4.67,4.67,0,0,0,1.51-7.35l-7.35-8.19a2.06,2.06,0,0,0-3.57,1.67l1.55,10.89A4.67,4.67,0,0,0,183.71,327.41Z"/><path class="cls-5" d="M193.13,301.69l1.12-.52a4.14,4.14,0,0,0,1.33-6.52l-6.51-7.27a1.83,1.83,0,0,0-3.17,1.48l1.38,9.66A4.13,4.13,0,0,0,193.13,301.69Z"/><path class="cls-5" d="M201.18,286.67l1.16.42a4.15,4.15,0,0,0,5.56-3.67l.53-9.74a1.83,1.83,0,0,0-3.29-1.2l-5.85,7.81A4.14,4.14,0,0,0,201.18,286.67Z"/><path class="cls-5" d="M193.67,315.55l.59,1.26a4.67,4.67,0,0,0,7.35,1.5L209.8,311a2.06,2.06,0,0,0-1.66-3.58L197.24,309A4.67,4.67,0,0,0,193.67,315.55Z"/><path class="cls-5" d="M184.19,344.08l.87,1.13a4.77,4.77,0,0,0,7.67-.14l6.53-9.16a2.11,2.11,0,0,0-2.47-3.2l-10.51,4A4.77,4.77,0,0,0,184.19,344.08Z"/><path class="cls-5" d="M193.68,393.29l.56-1.54a5.51,5.51,0,0,0-4.88-7.39l-13-.71a2.44,2.44,0,0,0-1.59,4.38l10.38,7.79A5.51,5.51,0,0,0,193.68,393.29Z"/><path class="cls-5" d="M178.17,360.68l1-1.18a5.14,5.14,0,0,0-2-8L166,346.84a2.26,2.26,0,0,0-2.76,3.34l6.69,10.07A5.14,5.14,0,0,0,178.17,360.68Z"/><path class="cls-9" d="M275.63,267l-8.72,6.33a3.72,3.72,0,0,0-1.35,4.16l3.33,10.24a1.29,1.29,0,0,1-2,1.45l-8.71-6.33a3.73,3.73,0,0,0-4.38,0l-8.71,6.33a1.29,1.29,0,0,1-2-1.45l3.32-10.24a3.71,3.71,0,0,0-1.35-4.16L236.37,267a1.3,1.3,0,0,1,.76-2.35H247.9a3.72,3.72,0,0,0,3.54-2.57l3.33-10.24a1.29,1.29,0,0,1,2.46,0l3.33,10.24a3.7,3.7,0,0,0,3.53,2.57h10.78A1.3,1.3,0,0,1,275.63,267Z"/><path class="cls-7" d="M275.63,267l-8.72,6.33a3.72,3.72,0,0,0-1.35,4.16l3.33,10.24a1.29,1.29,0,0,1-2,1.45l-8.71-6.33a3.67,3.67,0,0,0-2.19-.71v-31.2a1.27,1.27,0,0,1,1.23.9l3.33,10.24a3.7,3.7,0,0,0,3.53,2.57h10.78A1.3,1.3,0,0,1,275.63,267Z"/><path class="cls-7" d="M236.37,424.78l8.71-6.33a3.71,3.71,0,0,0,1.35-4.16l-3.32-10.24a1.29,1.29,0,0,1,2-1.45l8.71,6.33a3.73,3.73,0,0,0,4.38,0l8.71-6.33a1.29,1.29,0,0,1,2,1.45l-3.33,10.24a3.72,3.72,0,0,0,1.35,4.16l8.72,6.33a1.3,1.3,0,0,1-.76,2.35H264.09a3.7,3.7,0,0,0-3.53,2.57l-3.33,10.24a1.29,1.29,0,0,1-2.46,0l-3.33-10.24a3.72,3.72,0,0,0-3.54-2.57H237.13A1.3,1.3,0,0,1,236.37,424.78Z"/><path class="cls-9" d="M236.37,424.78l8.71-6.33a3.71,3.71,0,0,0,1.35-4.16l-3.32-10.24a1.29,1.29,0,0,1,2-1.45l8.71,6.33a3.67,3.67,0,0,0,2.19.71v31.2a1.27,1.27,0,0,1-1.23-.9l-3.33-10.24a3.72,3.72,0,0,0-3.54-2.57H237.13A1.3,1.3,0,0,1,236.37,424.78Z"/></svg>