<svg id="_50" data-name="50" xmlns="http://www.w3.org/2000/svg" viewBox="0 0 512 512"><defs><style>.cls-1{fill:#fb8406;}.cls-2{fill:#c2aacf;}.cls-3{fill:#decee5;}.cls-4{fill:#f4e6f4;}.cls-5{fill:#f9c744;}.cls-6{fill:#fad98f;}.cls-7{fill:#faefdc;}.cls-8{fill:#9175a7;}.cls-9{fill:#746087;}.cls-10{fill:#c1b7d3;}.cls-11{fill:#3e4e60;}.cls-12{fill:#3f6c8e;}.cls-13{fill:#fff;}.cls-14{fill:#f39e22;}</style></defs><title>50-soccer-icons</title><circle class="cls-1" cx="256" cy="256" r="256"/><path class="cls-2" d="M415.48,129.7a11.15,11.15,0,0,1-11.15,11.14H107.67A11.13,11.13,0,0,1,96.52,129.7a10.91,10.91,0,0,1,.89-4.35,11.11,11.11,0,0,1,10.26-6.8H404.33a11.13,11.13,0,0,1,7.89,3.27,11.23,11.23,0,0,1,3.26,7.88Z"/><path class="cls-3" d="M414.59,125.35a11.14,11.14,0,0,1-10.26,6.79H107.67a11.09,11.09,0,0,1-10.26-6.79,11.11,11.11,0,0,1,10.26-6.8H404.33a11.13,11.13,0,0,1,7.89,3.27A10.91,10.91,0,0,1,414.59,125.35Z"/><rect class="cls-4" x="225.63" y="118.55" width="127.6" height="13.59" rx="6.8"/><rect class="cls-5" x="85.9" y="104.76" width="21.24" height="49.88" rx="6.79"/><path class="cls-6" d="M107.14,111.55v22.51a6.79,6.79,0,0,1-6.79,6.78H92.69a6.79,6.79,0,0,1-6.79-6.78V111.55a6.79,6.79,0,0,1,6.79-6.79h7.66A6.79,6.79,0,0,1,107.14,111.55Z"/><rect class="cls-7" x="96.52" y="111.55" width="10.62" height="22.51" rx="5.31"/><rect class="cls-5" x="403.97" y="104.76" width="21.24" height="49.88" rx="6.79"/><path class="cls-6" d="M425.21,111.55v22.51a6.79,6.79,0,0,1-6.79,6.78h-7.66a6.79,6.79,0,0,1-6.79-6.78V111.55a6.79,6.79,0,0,1,6.79-6.79h7.66A6.79,6.79,0,0,1,425.21,111.55Z"/><rect class="cls-7" x="414.59" y="111.55" width="10.62" height="22.51" rx="5.31"/><path class="cls-8" d="M394.33,112.05a3.47,3.47,0,0,1-1.62-.4L256,40,119.29,111.65a3.5,3.5,0,0,1-3.25-6.2L256,32.07l140,73.38a3.5,3.5,0,0,1-1.63,6.6Z"/><path class="cls-2" d="M272.06,36A16.07,16.07,0,1,1,256,20,16,16,0,0,1,272.06,36Z"/><path class="cls-3" d="M272.06,36a16,16,0,0,1-1.46,6.7,16.07,16.07,0,0,1-21.3-21.3A16.07,16.07,0,0,1,272.06,36Z"/><path class="cls-8" d="M404,140.84v222a29.75,29.75,0,0,1-14.26,25.41L273.75,459a35,35,0,0,1-36.39,0l-116-70.76a29.75,29.75,0,0,1-14.26-25.41v-222Z"/><path class="cls-9" d="M404,335.63v27.2a29.75,29.75,0,0,1-14.26,25.41L273.75,459a35,35,0,0,1-36.39,0l-116-70.76a29.75,29.75,0,0,1-14.26-25.41v-27.2l128.27,78.26a38.67,38.67,0,0,0,40.29,0Z"/><circle class="cls-10" cx="256" cy="305.27" r="80.32"/><path class="cls-4" d="M317.74,253.89A80.15,80.15,0,0,0,256,224.94q-3.72,0-7.34.33a80.59,80.59,0,0,0-12.21,18.88h0a80.29,80.29,0,0,0,72.94,114c2.48,0,4.92-.11,7.34-.33a80,80,0,0,0,17.9-36.06,81.58,81.58,0,0,0,1.69-16.5A80,80,0,0,0,317.74,253.89Z"/><path class="cls-9" d="M256,231.06a74.21,74.21,0,1,1-52.48,21.73A73.69,73.69,0,0,1,256,231.06m0-6.12a80.33,80.33,0,1,0,80.32,80.33A80.33,80.33,0,0,0,256,224.94Z"/><path class="cls-2" d="M336.26,302.16a80.28,80.28,0,0,0-87.61-76.88,80.26,80.26,0,0,0-5.31,6.85c71.54-11.46,115.56,74.57,64.73,126,2-2.06,5.81-.06,8.66-.32A80.22,80.22,0,0,0,336.26,302.16Z"/><path class="cls-9" d="M221.93,301.29a3.56,3.56,0,0,1-1.06-.17l-13.19-4.32a3.44,3.44,0,1,1,2.14-6.53L223,294.59a3.43,3.43,0,0,1-1.07,6.7Z"/><path class="cls-2" d="M256,276.49a3.44,3.44,0,0,1-3.44-3.43V256.58a3.44,3.44,0,0,1,6.87,0v16.48A3.44,3.44,0,0,1,256,276.49Z"/><path class="cls-2" d="M290,301.23a3.44,3.44,0,0,1-1-6.72l13.24-4.12a3.43,3.43,0,1,1,2,6.56l-13.24,4.12A3.29,3.29,0,0,1,290,301.23Z"/><path class="cls-2" d="M282.7,349.42a3.44,3.44,0,0,1-2.82-1.46l-5.7-8.15a3.43,3.43,0,1,1,5.63-3.93l5.7,8.14a3.44,3.44,0,0,1-2.81,5.4Z"/><path class="cls-9" d="M229.07,349.27a3.44,3.44,0,0,1-2.74-5.51l6-7.93a3.43,3.43,0,1,1,5.48,4.14l-6,7.94A3.45,3.45,0,0,1,229.07,349.27Z"/><path class="cls-11" d="M245.45,384.91A80.36,80.36,0,0,1,187,346.45l37.74-1.75a7.51,7.51,0,0,1,7.37,4.85Z"/><path class="cls-11" d="M206.29,297.54,177.4,321.9A80.41,80.41,0,0,1,194.17,254l14.23,35A7.51,7.51,0,0,1,206.29,297.54Z"/><path class="cls-11" d="M336.32,305.27a81.58,81.58,0,0,1-1.69,16.5l-28.94-24.31a7.51,7.51,0,0,1-2.12-8.56l14.17-35A80,80,0,0,1,336.32,305.27Z"/><path class="cls-12" d="M336.32,305.27a81.58,81.58,0,0,1-1.69,16.5l-28.94-24.31a7.51,7.51,0,0,1-2.12-8.56l14.17-35A80,80,0,0,1,336.32,305.27Z"/><path class="cls-11" d="M251.58,274.49,224.68,294a7.5,7.5,0,0,0-2.73,8.39l10.28,31.64a7.49,7.49,0,0,0,7.14,5.18h33.26a7.49,7.49,0,0,0,7.13-5.18L290,302.43a7.49,7.49,0,0,0-2.72-8.39l-26.91-19.55A7.52,7.52,0,0,0,251.58,274.49Z"/><path class="cls-12" d="M290,302.43l-10.28,31.63a7.49,7.49,0,0,1-7.13,5.19h-15A80.21,80.21,0,0,1,230,290.17l21.58-15.68a7.5,7.5,0,0,1,8.82,0L287.32,294A7.49,7.49,0,0,1,290,302.43Z"/><path class="cls-11" d="M325.12,346.21a80.59,80.59,0,0,1-58.3,38.66L279,352.21l1-2.74a7.5,7.5,0,0,1,7.35-4.87Z"/><path class="cls-12" d="M325.12,346.21a80.39,80.39,0,0,1-8.39,11.62c-2.42.22-4.86.33-7.34.33a80.08,80.08,0,0,1-30.4-6l1-2.74a7.5,7.5,0,0,1,7.35-4.87Z"/><path class="cls-11" d="M291,232.94l-30.57,22.21a7.52,7.52,0,0,1-8.83,0l-15.13-11h0L221,232.94a80,80,0,0,1,27.64-7.67q3.61-.33,7.34-.33A80.1,80.1,0,0,1,291,232.94Z"/><path class="cls-12" d="M291,232.94l-30.57,22.21a7.49,7.49,0,0,1-8.82,0l-15.14-11h0a80.59,80.59,0,0,1,12.21-18.88q3.61-.33,7.34-.33A80.1,80.1,0,0,1,291,232.94Z"/><circle class="cls-13" cx="286.61" cy="263.29" r="16.42"/><path class="cls-5" d="M280.64,169,269.7,177a4.69,4.69,0,0,0-1.7,5.22l4.18,12.86a1.62,1.62,0,0,1-2.49,1.82l-10.94-8a4.69,4.69,0,0,0-5.5,0l-10.94,8a1.62,1.62,0,0,1-2.49-1.82L244,182.19a4.69,4.69,0,0,0-1.7-5.22L231.36,169a1.63,1.63,0,0,1,1-2.94h13.52a4.67,4.67,0,0,0,4.44-3.22L254.46,150a1.61,1.61,0,0,1,3.08,0l4.18,12.86a4.67,4.67,0,0,0,4.44,3.22h13.52A1.63,1.63,0,0,1,280.64,169Z"/><path class="cls-6" d="M280.64,169,269.7,177a4.69,4.69,0,0,0-1.7,5.22l4.18,12.86a1.62,1.62,0,0,1-2.49,1.82l-10.94-8A4.65,4.65,0,0,0,256,188V148.87a1.59,1.59,0,0,1,1.54,1.13l4.18,12.86a4.67,4.67,0,0,0,4.44,3.22h13.52A1.63,1.63,0,0,1,280.64,169Z"/><path class="cls-5" d="M350.51,185.09,339.57,193a4.67,4.67,0,0,0-1.7,5.22l4.18,12.86a1.63,1.63,0,0,1-2.5,1.82L328.61,205a4.68,4.68,0,0,0-5.49,0l-10.94,7.95a1.63,1.63,0,0,1-2.5-1.82l4.18-12.86a4.66,4.66,0,0,0-1.7-5.22l-10.93-7.95a1.62,1.62,0,0,1,.95-2.94h13.53a4.65,4.65,0,0,0,4.43-3.22l4.18-12.86a1.61,1.61,0,0,1,1.55-1.13,1.59,1.59,0,0,1,1.54,1.13l4.18,12.86a4.67,4.67,0,0,0,4.44,3.22h13.52A1.63,1.63,0,0,1,350.51,185.09Z"/><path class="cls-6" d="M350.51,185.09,339.57,193a4.67,4.67,0,0,0-1.7,5.22l4.18,12.86a1.63,1.63,0,0,1-2.5,1.82L328.61,205a4.6,4.6,0,0,0-2.74-.89V164.94a1.59,1.59,0,0,1,1.54,1.13l4.18,12.86a4.67,4.67,0,0,0,4.44,3.22h13.52A1.63,1.63,0,0,1,350.51,185.09Z"/><path class="cls-5" d="M210.77,185.09,199.84,193a4.66,4.66,0,0,0-1.7,5.22l4.18,12.86a1.63,1.63,0,0,1-2.5,1.82L188.88,205a4.68,4.68,0,0,0-5.49,0l-10.94,7.95a1.63,1.63,0,0,1-2.5-1.82l4.18-12.86a4.67,4.67,0,0,0-1.7-5.22l-10.94-7.95a1.63,1.63,0,0,1,1-2.94H176a4.67,4.67,0,0,0,4.44-3.22l4.18-12.86a1.59,1.59,0,0,1,1.54-1.13,1.61,1.61,0,0,1,1.55,1.13l4.18,12.86a4.65,4.65,0,0,0,4.43,3.22h13.53A1.62,1.62,0,0,1,210.77,185.09Z"/><path class="cls-6" d="M210.77,185.09,199.84,193a4.66,4.66,0,0,0-1.7,5.22l4.18,12.86a1.63,1.63,0,0,1-2.5,1.82L188.88,205a4.63,4.63,0,0,0-2.75-.89V164.94a1.61,1.61,0,0,1,1.55,1.13l4.18,12.86a4.65,4.65,0,0,0,4.43,3.22h13.53A1.62,1.62,0,0,1,210.77,185.09Z"/><path class="cls-6" d="M332.82,362.51a1.68,1.68,0,0,1-1.19-2.86l38.91-38.91a28.44,28.44,0,0,0,8.38-20.25V235a1.68,1.68,0,0,1,3.36,0v65.47a31.78,31.78,0,0,1-9.37,22.62L334,362A1.65,1.65,0,0,1,332.82,362.51Z"/><path class="cls-5" d="M359.11,330.93h-1.7a5.71,5.71,0,0,1-5.47-7.37l3.9-12.89a2.53,2.53,0,0,1,4.84,0l3.9,12.89A5.71,5.71,0,0,1,359.11,330.93Z"/><path class="cls-5" d="M383.82,287.43l-1-1a4.84,4.84,0,0,1,1.14-7.7L394,273.33a2.14,2.14,0,0,1,2.9,2.9l-5.38,10.06A4.84,4.84,0,0,1,383.82,287.43Z"/><path class="cls-5" d="M383.76,259l-.91-.9a4.3,4.3,0,0,1,1-6.83l8.93-4.78a1.9,1.9,0,0,1,2.56,2.57L390.59,258A4.3,4.3,0,0,1,383.76,259Z"/><path class="cls-5" d="M381.24,241.52H380a4.3,4.3,0,0,1-4.11-5.55l2.94-9.69a1.9,1.9,0,0,1,3.63,0l2.94,9.69A4.31,4.31,0,0,1,381.24,241.52Z"/><path class="cls-5" d="M378.32,272.34l-1,1a4.85,4.85,0,0,1-7.7-1.15l-5.38-10.06a2.13,2.13,0,0,1,2.89-2.89l10.07,5.37A4.86,4.86,0,0,1,378.32,272.34Z"/><path class="cls-5" d="M377.44,303.51l-1.25.79a5,5,0,0,1-7.43-2.86l-3.11-11.24a2.19,2.19,0,0,1,3.54-2.24l8.83,7.62A5,5,0,0,1,377.44,303.51Z"/><path class="cls-5" d="M350.73,348.11v-1.7a5.72,5.72,0,0,1,7.37-5.48L371,344.84a2.52,2.52,0,0,1,0,4.83l-12.89,3.91A5.71,5.71,0,0,1,350.73,348.11Z"/><path class="cls-5" d="M377.41,321.82l-.53-1.49a5.33,5.33,0,0,1,4.78-7.1l12.53-.58a2.35,2.35,0,0,1,1.5,4.24l-10.09,7.44A5.34,5.34,0,0,1,377.41,321.82Z"/><path class="cls-5" d="M179.18,362.51a1.68,1.68,0,0,0,1.19-2.86l-38.91-38.91a28.44,28.44,0,0,1-8.38-20.25V235a1.68,1.68,0,0,0-3.36,0v65.47a31.78,31.78,0,0,0,9.37,22.62L178,362A1.65,1.65,0,0,0,179.18,362.51Z"/><path class="cls-14" d="M152.89,330.93h1.7a5.71,5.71,0,0,0,5.47-7.37l-3.9-12.89a2.53,2.53,0,0,0-4.84,0l-3.9,12.89A5.71,5.71,0,0,0,152.89,330.93Z"/><path class="cls-14" d="M128.18,287.43l1-1a4.84,4.84,0,0,0-1.14-7.7L118,273.33a2.14,2.14,0,0,0-2.9,2.9l5.38,10.06A4.84,4.84,0,0,0,128.18,287.43Z"/><path class="cls-14" d="M128.24,259l.91-.9a4.3,4.3,0,0,0-1-6.83l-8.93-4.78a1.9,1.9,0,0,0-2.56,2.57l4.77,8.93A4.3,4.3,0,0,0,128.24,259Z"/><path class="cls-14" d="M130.76,241.52H132a4.3,4.3,0,0,0,4.11-5.55l-2.94-9.69a1.9,1.9,0,0,0-3.63,0L126.64,236A4.31,4.31,0,0,0,130.76,241.52Z"/><path class="cls-14" d="M133.68,272.34l1,1a4.85,4.85,0,0,0,7.7-1.15l5.38-10.06a2.13,2.13,0,0,0-2.89-2.89l-10.07,5.37A4.86,4.86,0,0,0,133.68,272.34Z"/><path class="cls-14" d="M134.56,303.51l1.25.79a5,5,0,0,0,7.43-2.86l3.11-11.24a2.19,2.19,0,0,0-3.54-2.24L134,295.58A5,5,0,0,0,134.56,303.51Z"/><path class="cls-14" d="M161.27,348.11v-1.7a5.72,5.72,0,0,0-7.37-5.48L141,344.84a2.52,2.52,0,0,0,0,4.83l12.89,3.91A5.71,5.71,0,0,0,161.27,348.11Z"/><path class="cls-14" d="M134.59,321.82l.53-1.49a5.33,5.33,0,0,0-4.78-7.1l-12.53-.58a2.35,2.35,0,0,0-1.5,4.24l10.09,7.44A5.34,5.34,0,0,0,134.59,321.82Z"/><path class="cls-5" d="M269.75,500.24a5,5,0,0,1-5-5V460a5,5,0,0,1,10,0v35.24A5,5,0,0,1,269.75,500.24Z"/><path class="cls-5" d="M292.94,486.09a5,5,0,0,1-5-5V445.85a5,5,0,0,1,10,0v35.24A5,5,0,0,1,292.94,486.09Z"/><path class="cls-5" d="M316.13,471.93a5,5,0,0,1-5-5V431.7a5,5,0,1,1,10,0v35.23A5,5,0,0,1,316.13,471.93Z"/><path class="cls-5" d="M339.33,457.78a5,5,0,0,1-5-5V417.54a5,5,0,0,1,10,0v35.24A5,5,0,0,1,339.33,457.78Z"/><path class="cls-5" d="M362.52,443.63a5,5,0,0,1-5-5V403.39a5,5,0,0,1,10,0v35.24A5,5,0,0,1,362.52,443.63Z"/><path class="cls-5" d="M385.71,429.48a5,5,0,0,1-5-5V389.24a5,5,0,0,1,10,0v35.24A5,5,0,0,1,385.71,429.48Z"/><path class="cls-5" d="M241.36,500.24a5,5,0,0,1-5-5V460a5,5,0,0,1,10,0v35.24A5,5,0,0,1,241.36,500.24Z"/><path class="cls-5" d="M218.17,486.09a5,5,0,0,1-5-5V445.85a5,5,0,0,1,10,0v35.24A5,5,0,0,1,218.17,486.09Z"/><path class="cls-5" d="M195,471.93a5,5,0,0,1-5-5V431.7a5,5,0,0,1,10,0v35.23A5,5,0,0,1,195,471.93Z"/><path class="cls-5" d="M171.78,457.78a5,5,0,0,1-5-5V417.54a5,5,0,0,1,10,0v35.24A5,5,0,0,1,171.78,457.78Z"/><path class="cls-5" d="M148.59,443.63a5,5,0,0,1-5-5V403.39a5,5,0,0,1,10,0v35.24A5,5,0,0,1,148.59,443.63Z"/><path class="cls-5" d="M125.4,429.48a5,5,0,0,1-5-5V389.24a5,5,0,0,1,10,0v35.24A5,5,0,0,1,125.4,429.48Z"/></svg>