<svg id="_50" data-name="50" xmlns="http://www.w3.org/2000/svg" viewBox="0 0 512 512"><defs><style>.cls-1{fill:#f39e22;}.cls-2{fill:#f9c744;}.cls-3{fill:#ebd9ea;}.cls-4{fill:#fff;}.cls-5{fill:#3e4e60;}.cls-6{fill:#3f5d77;}.cls-7{fill:#334353;}.cls-8{fill:#3f6c8e;}</style></defs><title>50-soccer-icons</title><circle class="cls-1" cx="256" cy="256" r="256"/><circle class="cls-2" cx="256" cy="256" r="172.15"/><path class="cls-3" d="M136.72,129.83l25.44,40.45L168.92,181a3.91,3.91,0,0,1-6.07,4.85L141.36,164.4a3.9,3.9,0,0,0-6.41,1.38l-5.25,13.91a3.92,3.92,0,0,1-6.44,1.37l-39.9-40.18a3.9,3.9,0,0,1-.88-4.13l6.4-17a3.91,3.91,0,0,1,6.42-1.38l24.06,24a3.91,3.91,0,0,0,6.42-1.38l4-10.51A3.91,3.91,0,0,1,136.72,129.83Z"/><path class="cls-4" d="M136.72,129.83l25.44,40.45a3.8,3.8,0,0,1-5.49,0l-21.49-21.46a3.9,3.9,0,0,0-6.41,1.38l-5.25,13.91a3.92,3.92,0,0,1-6.44,1.37L84.16,132.3l4.72-12.52a3.91,3.91,0,0,1,6.42-1.38l24.06,24a3.91,3.91,0,0,0,6.42-1.38l4-10.51A3.91,3.91,0,0,1,136.72,129.83Z"/><path class="cls-3" d="M206.29,109.43,195.68,156l-2.82,12.37a3.9,3.9,0,0,1-7.71-.87l0-30.38a3.91,3.91,0,0,0-5.52-3.55l-13.54,6.12a3.91,3.91,0,0,1-5.52-3.58l.2-56.62A3.9,3.9,0,0,1,163,76l16.53-7.47a3.91,3.91,0,0,1,5.52,3.56l0,34a3.91,3.91,0,0,0,5.51,3.56L200.86,105A3.91,3.91,0,0,1,206.29,109.43Z"/><path class="cls-4" d="M206.29,109.43,195.68,156a3.81,3.81,0,0,1-3.86-3.91l0-30.37a3.91,3.91,0,0,0-5.52-3.56l-13.54,6.12a3.91,3.91,0,0,1-5.52-3.58L167.38,74l12.19-5.51a3.91,3.91,0,0,1,5.52,3.56l0,34a3.91,3.91,0,0,0,5.51,3.56L200.86,105A3.91,3.91,0,0,1,206.29,109.43Z"/><path class="cls-5" d="M315.47,132.83a31,31,0,1,0,31,31A31,31,0,0,0,315.47,132.83Zm0,49.29a18.26,18.26,0,1,1,18.27-18.26A18.26,18.26,0,0,1,315.47,182.12Z"/><path class="cls-6" d="M212.62,163.86,103.94,272.54a20.44,20.44,0,0,0,0,28.9L122.2,319.7a20.44,20.44,0,0,0,28.9,0l57.44-57.44c1.29,1.52,2.64,3,4.08,4.46a72.73,72.73,0,1,0,0-102.86Z"/><circle class="cls-5" cx="264.87" cy="214.46" r="54.16"/><path class="cls-7" d="M188.39,181.52h32.3a0,0,0,0,1,0,0v30.12a16.15,16.15,0,0,1-16.15,16.15h0a16.15,16.15,0,0,1-16.15-16.15V181.52A0,0,0,0,1,188.39,181.52Z" transform="translate(-84.8 204.57) rotate(-45)"/><path class="cls-7" d="M107.94,285.16h22.32a13,13,0,0,1,13,13v0a13,13,0,0,1-13,13H107.94a0,0,0,0,1,0,0v-26a0,0,0,0,1,0,0Z" transform="translate(-174.03 176.13) rotate(-45)"/><rect class="cls-8" x="102.53" y="236.4" width="83.56" height="20.43" rx="10.22" transform="translate(-132.12 174.27) rotate(-45)"/><path class="cls-4" d="M313,443.85c-32,0-57.35-16.37-70.94-46.55l-.09-.22c-7.73-20.66-3.52-39.38,12.87-57.21,14-15.23,35.28-28.14,55.86-40.62,32.77-19.87,63.73-38.64,65.56-64.74,1.36-19.37-13.56-41.53-45.63-67.75a3.75,3.75,0,0,1,4.75-5.8c34.09,27.87,49.91,52.1,48.36,74.08-2.1,30-36.19,50.64-69.15,70.62-41.37,25.09-80.46,48.8-65.64,88.68,14.5,32.08,43.8,46.86,80.4,40.57C381.15,426,440.5,374.39,446.11,306.55c5.94-72-16.11-110.61-35.66-130.31-21.17-21.32-45.83-27.59-60.53-26.49a3.75,3.75,0,1,1-.56-7.48c16.27-1.22,43.44,5.55,66.41,28.69,20.66,20.81,44,61.34,37.81,136.2-2.7,32.65-17.78,64.72-42.47,90.31-22.79,23.61-52.12,39.95-80.47,44.83A104.24,104.24,0,0,1,313,443.85Z"/></svg>