<svg id="_50" data-name="50" xmlns="http://www.w3.org/2000/svg" viewBox="0 0 512 512"><defs><style>.cls-1{fill:#fa80a4;}.cls-2{fill:#ebd9ea;}.cls-3{fill:#fff;}.cls-4{fill:#c2aacf;}.cls-5{fill:#dd5e26;}.cls-6{fill:#daab42;}.cls-7{fill:#f9c744;}.cls-8{fill:#ea792e;}</style></defs><title>50-soccer-icons</title><circle class="cls-1" cx="256" cy="256" r="256"/><path class="cls-2" d="M143.73,128.59v280a17.94,17.94,0,1,1-35.88,0v-280a17.94,17.94,0,1,1,35.88,0Z"/><path class="cls-3" d="M143.73,128.59v280a17.94,17.94,0,0,1-17.94,17.94V110.65a17.92,17.92,0,0,1,17.94,17.94Z"/><path class="cls-4" d="M166.26,110.65a17.92,17.92,0,0,1-17.94,17.94H103.26a17.94,17.94,0,1,1,0-35.88h45.06A17.94,17.94,0,0,1,166.26,110.65Z"/><path class="cls-2" d="M166.26,110.65a17.92,17.92,0,0,1-17.94,17.94H125.79V92.71h22.53A17.94,17.94,0,0,1,166.26,110.65Z"/><path class="cls-5" d="M433.65,166.16c-67.43,0-73.34-9.46-73.34-9.46V350.32c0,12.2,6.16,22.53,14.43,24.2,10.47,2.12,28.39,4.06,58.91,4.06Z"/><path class="cls-6" d="M433.65,305.52c-67.43,0-73.34-9.46-73.34-9.46v-72s5.91,9.46,73.34,9.46Z"/><path class="cls-7" d="M143.73,341c172.79,0,216.66,9.46,216.66,9.46V157.05c0-11.39-12.13-21-28.36-22.5-29.76-2.69-86.78-6-188.3-6Z"/><path class="cls-8" d="M360.39,206.11v76.3s-24.37-5.26-108.33-7.93v-76.3C336,200.85,360.39,206.11,360.39,206.11Z"/><path class="cls-8" d="M252.06,130.12v68.06c-28.68-.92-64.33-1.53-108.33-1.53V128.59C187.73,128.59,223.37,129.21,252.06,130.12Z"/><path class="cls-8" d="M252.06,274.48v68.06c-28.68-.92-64.33-1.53-108.33-1.53V273C187.73,273,223.38,273.56,252.06,274.48Z"/></svg>