<svg id="_50" data-name="50" xmlns="http://www.w3.org/2000/svg" viewBox="0 0 512 512"><defs><style>.cls-1{fill:#f39e22;}.cls-2{fill:#f4e6f4;}.cls-3{fill:#a583bb;}.cls-4{fill:#c2aacf;}.cls-5{fill:#decee5;}.cls-6{fill:#c1b7d3;}.cls-7{fill:#746087;}.cls-8{fill:#3e4e60;}.cls-9{fill:#3f6c8e;}.cls-10{fill:#fff;}.cls-11{fill:#fad98f;}</style></defs><title>50-soccer-icons</title><circle class="cls-1" cx="256" cy="256" r="256"/><path class="cls-2" d="M511.14,277.07q.35-4.08.54-8.19H490.46V254.6a4.1,4.1,0,0,0-8.19,0v14.28H457.58V254.6a4.09,4.09,0,1,0-8.18,0v14.28H424.7V254.6a4.1,4.1,0,0,0-8.19,0v14.28H391.82V254.6a4.09,4.09,0,1,0-8.18,0v14.28h-24.7V254.6a4.09,4.09,0,1,0-8.18,0v14.28h-63a4.1,4.1,0,0,0,0,8.19h63v27.28a4.09,4.09,0,1,0,8.18,0V277.07h24.7v46.39H346.69V322a4.1,4.1,0,1,0-8.19,0v1.45H313.81V289.14a4.1,4.1,0,1,0-8.19,0v34.32H287.76a4.1,4.1,0,0,0,0,8.19h17.86V378H287.76a4.1,4.1,0,0,0,0,8.19h17.86v46.39H287.76a4.1,4.1,0,0,0,0,8.19h17.86v46.38H287.76a4.1,4.1,0,0,0,0,8.19h17.86v11.82q4.13-.81,8.19-1.75V495.37H338.5v3c2.75-.93,5.48-1.92,8.19-2.94v-.1a189.67,189.67,0,0,0,19.38-8.19H346.69V440.8h24.69v43.78q4.14-2.08,8.18-4.33V440.8h53.6q4.17-4,8.17-8.19H379.56V386.22h36.95V395a4.1,4.1,0,1,0,8.19,0v-8.77h24.7v37.5q4.22-4.85,8.18-9.9v-27.6h18.86c1.6-2.69,3.15-5.43,4.65-8.19H457.58V331.65h24.69v44.18q4.39-8.26,8.19-16.9V331.65h10.17c.84-2.71,1.64-5.44,2.38-8.19H490.46V277.07Zm-94.63,0v46.39H391.82V277.07Zm-78,210.11H313.81V440.8H338.5Zm0-54.57H313.81V386.22H338.5Zm0-54.58H313.81V331.65H338.5Zm32.88,54.58H346.69V386.22h24.69ZM416.51,378H379.56v-20.7a4.09,4.09,0,0,0-8.18,0V378H346.69V331.65h36.95v5.63a4.09,4.09,0,0,0,8.18,0v-5.63h24.69Zm32.89,0H424.7V331.65h24.7Zm0-54.57H424.7V277.07h24.7Zm32.87,0H457.58V277.07h24.69Z"/><path class="cls-3" d="M430.18,434.86v8.75a258,258,0,0,1-32.74,25.8c-.23-12.44.79-40-1.23-51.84a119.27,119.27,0,0,0-29.28-62.76c-8.29-9-22.53-22.63-31.07-31.35-21.83-21.81-47.78-47.76-69.57-69.54C251.63,238,273.36,216,289.46,230.78c26.33,26.35,56.73,56.71,83,83,2.41,2.39,10.64,10.66,12.88,12.88A152.31,152.31,0,0,1,430.18,434.86Z"/><path class="cls-4" d="M408.73,416.82v44.64q-5.53,4.13-11.29,8c-.29-15.63,1.2-43-2.28-58a118.89,118.89,0,0,0-23.78-51.32c-5.39-7.13-18.33-19.26-24.69-25.79C321,308.6,292,279.59,266.29,253.92,251.63,238,273.36,216,289.46,230.78c18.81,18.86,42.6,42.57,61.3,61.29l21.74,21.74q3.79,4.71,7.2,9.65A163.5,163.5,0,0,1,408.73,416.82Z"/><path class="cls-3" d="M512,254.6H312.78a25.5,25.5,0,0,0-25.49,25.48v230a258.08,258.08,0,0,1-51.84,1.08V280.08a77.4,77.4,0,0,1,77.33-77.33H506.45A255.37,255.37,0,0,1,512,254.6Z"/><path class="cls-4" d="M510.68,229.79H290.81a22.06,22.06,0,0,0-2.31.11,26.86,26.86,0,0,0-24.08,21.77,25.77,25.77,0,0,0-.48,5V511.88a257.5,257.5,0,0,1-28.49-.7V280.08a77.4,77.4,0,0,1,77.33-77.33H506.45A255.44,255.44,0,0,1,510.68,229.79Z"/><path class="cls-5" d="M263.94,339.22V511.88a257.5,257.5,0,0,1-28.49-.7v-172a14.25,14.25,0,0,1,28.49,0Z"/><circle class="cls-6" cx="121.88" cy="166.25" r="66.35"/><path class="cls-2" d="M172.88,123.8a66.21,66.21,0,0,0-51-23.9q-3.07,0-6.06.27a66.42,66.42,0,0,0-10.09,15.6h0A66.33,66.33,0,0,0,166,209.94c2.05,0,4.07-.1,6.06-.28a66.36,66.36,0,0,0,.84-85.86Z"/><path class="cls-7" d="M121.88,105a61.29,61.29,0,1,1-43.35,18,60.88,60.88,0,0,1,43.35-18m0-5a66.35,66.35,0,1,0,66.34,66.35A66.34,66.34,0,0,0,121.88,99.9Z"/><path class="cls-4" d="M188.17,163.68a66.32,66.32,0,0,0-72.36-63.51,66.83,66.83,0,0,0-4.39,5.66c59.1-9.46,95.46,61.6,53.47,104.1,1.68-1.71,4.8-.05,7.15-.27A66.21,66.21,0,0,0,188.17,163.68Z"/><path class="cls-7" d="M93.74,163a3,3,0,0,1-.88-.14L82,159.25a2.84,2.84,0,1,1,1.76-5.39l10.89,3.56a2.84,2.84,0,0,1-.88,5.54Z"/><path class="cls-4" d="M121.86,142.48a2.84,2.84,0,0,1-2.84-2.84V126a2.84,2.84,0,0,1,5.68,0v13.61A2.84,2.84,0,0,1,121.86,142.48Z"/><path class="cls-4" d="M150,162.91a2.84,2.84,0,0,1-.84-5.55l10.93-3.4a2.84,2.84,0,0,1,1.69,5.42l-10.94,3.4A2.72,2.72,0,0,1,150,162.91Z"/><path class="cls-4" d="M143.93,202.72a2.85,2.85,0,0,1-2.33-1.21l-4.7-6.73a2.84,2.84,0,1,1,4.65-3.25l4.7,6.72a2.85,2.85,0,0,1-.69,4A2.9,2.9,0,0,1,143.93,202.72Z"/><path class="cls-7" d="M99.63,202.59a2.88,2.88,0,0,1-1.71-.57,2.85,2.85,0,0,1-.55-4l5-6.55a2.83,2.83,0,0,1,4.52,3.42l-5,6.56A2.86,2.86,0,0,1,99.63,202.59Z"/><path class="cls-8" d="M113.17,232A66.38,66.38,0,0,1,64.9,200.26l31.17-1.44a6.2,6.2,0,0,1,6.09,4Z"/><path class="cls-8" d="M80.82,159.87,57,180A66.4,66.4,0,0,1,70.81,123.9l11.75,28.89A6.21,6.21,0,0,1,80.82,159.87Z"/><path class="cls-8" d="M188.22,166.25a66.45,66.45,0,0,1-1.4,13.62l-23.89-20.08a6.18,6.18,0,0,1-1.76-7.07l11.71-28.92A66.13,66.13,0,0,1,188.22,166.25Z"/><path class="cls-9" d="M188.22,166.25a66.45,66.45,0,0,1-1.4,13.62l-23.89-20.08a6.18,6.18,0,0,1-1.76-7.07l11.71-28.92A66.13,66.13,0,0,1,188.22,166.25Z"/><path class="cls-8" d="M118.23,140.82,96,157a6.19,6.19,0,0,0-2.26,6.93L102.24,190a6.2,6.2,0,0,0,5.9,4.29h27.47a6.2,6.2,0,0,0,5.9-4.29L150,163.9a6.2,6.2,0,0,0-2.25-6.93l-22.23-16.15A6.2,6.2,0,0,0,118.23,140.82Z"/><path class="cls-9" d="M150,163.9,141.51,190a6.19,6.19,0,0,1-5.9,4.28H123.22a66.2,66.2,0,0,1-22.81-40.54l17.82-13a6.2,6.2,0,0,1,7.29,0L147.75,157A6.2,6.2,0,0,1,150,163.9Z"/><path class="cls-8" d="M179,200.06A66.57,66.57,0,0,1,130.82,232l10.05-27,.85-2.26a6.2,6.2,0,0,1,6.07-4Z"/><path class="cls-9" d="M179,200.06a65.8,65.8,0,0,1-6.93,9.6c-2,.18-4,.28-6.06.28A66.18,66.18,0,0,1,140.87,205l.85-2.26a6.19,6.19,0,0,1,6.07-4Z"/><path class="cls-8" d="M150.77,106.5l-25.25,18.35a6.2,6.2,0,0,1-7.29,0l-12.5-9.08h0L93,106.5a66.16,66.16,0,0,1,22.84-6.33q3-.27,6.06-.27A66.13,66.13,0,0,1,150.77,106.5Z"/><path class="cls-9" d="M150.77,106.5l-25.25,18.35a6.2,6.2,0,0,1-7.29,0l-12.5-9.08h0a66.42,66.42,0,0,1,10.09-15.6q3-.27,6.06-.27A66.13,66.13,0,0,1,150.77,106.5Z"/><circle class="cls-10" cx="147.16" cy="131.58" r="13.56"/><path class="cls-11" d="M184.68,106a2.84,2.84,0,0,0,2.35,3.25,65.54,65.54,0,0,1,54.22,75,2.84,2.84,0,0,0,5.6.91,71.22,71.22,0,0,0-58.92-81.54A2.83,2.83,0,0,0,184.68,106Z"/><path class="cls-11" d="M146.8,91.57a2.85,2.85,0,0,0,3.64,3.16,82,82,0,0,1,102.49,53.92,2.83,2.83,0,1,0,5.41-1.68A87.64,87.64,0,0,0,148.76,89.32,2.84,2.84,0,0,0,146.8,91.57Z"/><path class="cls-11" d="M233.55,250.08h0a2.83,2.83,0,0,1-3.78.71l-25.83-17.08a2.83,2.83,0,0,1-.76-4.08h0a2.82,2.82,0,0,1,3.78-.7L232.79,246A2.82,2.82,0,0,1,233.55,250.08Z"/><path class="cls-11" d="M239.78,225.86h0a2.82,2.82,0,0,1-3.73-.92l-16.44-26.25a2.82,2.82,0,0,1,1-4h0a2.82,2.82,0,0,1,3.73.92l16.44,26.25A2.82,2.82,0,0,1,239.78,225.86Z"/></svg>