<svg id="_50" data-name="50" xmlns="http://www.w3.org/2000/svg" viewBox="0 0 512 512"><defs><style>.cls-1{fill:#22bce0;}.cls-2{fill:#53b976;}.cls-3{fill:#ebd9ea;}.cls-4{fill:#fff;}.cls-5{fill:#c2aacf;}.cls-6{fill:#c0405c;}.cls-7{fill:#e9465e;}.cls-8{fill:#9acdae;}.cls-9{fill:#c3ead0;}</style></defs><title>50-soccer-icons</title><circle class="cls-1" cx="256" cy="256" r="256"/><path class="cls-2" d="M512,256c0,141.38-114.62,256-256,256S0,397.38,0,256a257.72,257.72,0,0,1,3.9-44.75H508.1A257.72,257.72,0,0,1,512,256Z"/><path class="cls-3" d="M203,34.76V266.54a5.2,5.2,0,0,1-4.57,5.27,5,5,0,0,1-5.47-5V35a5.2,5.2,0,0,1,5.2-5.26,5,5,0,0,1,4.84,5Z"/><path class="cls-4" d="M203,34.76v232a5,5,0,0,1-5,5,.06.06,0,0,1-.06-.06v-242a5,5,0,0,1,5,5Z"/><path class="cls-5" d="M209.33,29.74a5,5,0,0,1-5,5H191.7a5,5,0,1,1,0-10h12.61A5,5,0,0,1,209.33,29.74Z"/><path class="cls-3" d="M209.33,29.74a5,5,0,0,1-5,5H198v-10h6.31A5,5,0,0,1,209.33,29.74Z"/><path class="cls-6" d="M342.18,52.79v102c-14.65,0-47.25-.94-52.28-1.95-4-.8-6.92-5.76-6.92-11.62V48.25A396.49,396.49,0,0,0,342.18,52.79Z"/><path class="cls-7" d="M283,48.42v92.83s-6.71-1.44-27.46-2.7c-16-1-16.4-1.84-52.54-1.84v-102c36.14,0,36.52.86,52.54,1.84,5.58.33,10.15.68,13.84,1C277.19,38.32,283,43,283,48.42Z"/><path class="cls-8" d="M473,279.45H216.08a30.64,30.64,0,0,0-30.6,30.6V471a7.5,7.5,0,0,0,15,0V406.74A120.21,120.21,0,0,0,312.77,294.45H473a7.5,7.5,0,0,0,0-15ZM257.8,369.52a104.46,104.46,0,0,1-57.32,22.19V310.05a15.62,15.62,0,0,1,15.6-15.6h81.66A104.89,104.89,0,0,1,257.8,369.52Z"/><path class="cls-9" d="M480.46,287a7.5,7.5,0,0,1-7.5,7.5H312.77a119.74,119.74,0,0,1-36.4,78.74q-9.42-1.63-18.57-3.67a104.89,104.89,0,0,0,39.94-75.07H216.08a15.62,15.62,0,0,0-15.6,15.6V351.8q-7.68-3.1-15-6.54V310.05a30.64,30.64,0,0,1,30.6-30.6H473A7.5,7.5,0,0,1,480.46,287Z"/></svg>