<svg id="_50" data-name="50" xmlns="http://www.w3.org/2000/svg" viewBox="0 0 512 512"><defs><style>.cls-1{fill:#4fcae8;}.cls-2{fill:#ebd9ea;}.cls-3{fill:#fff;}.cls-4{fill:#c2aacf;}.cls-5{fill:#dd5e26;}.cls-6{fill:#daab42;}.cls-7{fill:#ea792e;}.cls-8{fill:#f9c744;}</style></defs><title>50-soccer-icons</title><circle class="cls-1" cx="256" cy="256" r="256"/><path class="cls-2" d="M143.73,128.59v280a17.94,17.94,0,1,1-35.88,0v-280a17.94,17.94,0,1,1,35.88,0Z"/><path class="cls-3" d="M143.73,128.59v280a17.94,17.94,0,0,1-17.94,17.94V110.65a17.92,17.92,0,0,1,17.94,17.94Z"/><path class="cls-4" d="M166.26,110.65a17.92,17.92,0,0,1-17.94,17.94H103.26a17.94,17.94,0,1,1,0-35.88h45.06A17.94,17.94,0,0,1,166.26,110.65Z"/><path class="cls-2" d="M166.26,110.65a17.92,17.92,0,0,1-17.94,17.94H125.79V92.71h22.53A17.94,17.94,0,0,1,166.26,110.65Z"/><path class="cls-5" d="M433.65,166.16V378.58c-30.52,0-98.44-1.94-108.91-4.06-8.27-1.67-14.43-12-14.43-24.2V156.7A826.15,826.15,0,0,0,433.65,166.16Z"/><path class="cls-6" d="M433.65,166.16v114c-30.52,0-98.44-1.94-108.91-4.06-8.27-1.68-14.43-12-14.43-24.2V156.7A826.15,826.15,0,0,0,433.65,166.16Z"/><path class="cls-7" d="M310.39,157.05V350.47s-14-3-57.2-5.64c-33.37-2-34.18-3.82-109.46-3.82V128.59c75.28,0,76.09,1.8,109.46,3.83,11.63.7,21.15,1.43,28.84,2.13C298.26,136,310.39,145.66,310.39,157.05Z"/><path class="cls-8" d="M310.39,254.66v95.81s-14-3-57.2-5.64c-33.37-2-34.18-3.82-109.46-3.82V226.2c75.28,0,76.09,1.8,109.46,3.83,11.63.7,21.15,1.44,28.84,2.13C298.26,233.63,310.39,243.27,310.39,254.66Z"/></svg>