<svg id="_50" data-name="50" xmlns="http://www.w3.org/2000/svg" viewBox="0 0 512 512"><defs><style>.cls-1{fill:#29a3fb;}.cls-2{fill:#cde6f6;}.cls-3{fill:#83d5ef;}.cls-4{fill:#c1b7d3;}.cls-5{fill:#f4e6f4;}.cls-6{fill:#746087;}.cls-7{fill:#c2aacf;}.cls-8{fill:#3e4e60;}.cls-9{fill:#3f6c8e;}.cls-10{fill:#fff;}.cls-11{fill:#f39e22;}.cls-12{fill:#f9c744;}</style></defs><title>50-soccer-icons</title><circle class="cls-1" cx="256" cy="256" r="256"/><path class="cls-2" d="M388.28,428.65a4.2,4.2,0,0,1-5.25-5.73l58.32-125.08a71.35,71.35,0,0,0,2.4-54.92L387.59,88.61a4.2,4.2,0,1,1,7.9-2.88L451.66,240A79.7,79.7,0,0,1,449,301.39L390.65,426.48A4.16,4.16,0,0,1,388.28,428.65Z"/><path class="cls-3" d="M423.17,331.67l-4,1.46a14.34,14.34,0,0,1-19.22-12.7l-1.85-33.72a6.33,6.33,0,0,1,11.39-4.14l20.26,27A14.35,14.35,0,0,1,423.17,331.67Z"/><path class="cls-3" d="M444.08,207.94l-3.28-1.53a12.16,12.16,0,0,1-3.91-19.14L456,166a5.37,5.37,0,0,1,9.31,4.34l-4.05,28.34A12.16,12.16,0,0,1,444.08,207.94Z"/><path class="cls-3" d="M419.57,141l-2.91-1.35a10.79,10.79,0,0,1-3.47-17l16.95-18.91a4.76,4.76,0,0,1,8.26,3.85l-3.59,25.14A10.79,10.79,0,0,1,419.57,141Z"/><path class="cls-3" d="M398.62,101.93l-3,1.09a10.77,10.77,0,0,1-14.45-9.54l-1.39-25.36A4.76,4.76,0,0,1,388.32,65l15.24,20.31A10.79,10.79,0,0,1,398.62,101.93Z"/><path class="cls-3" d="M418.17,177.07l-1.53,3.28a12.15,12.15,0,0,1-19.13,3.91l-21.32-19.1a5.37,5.37,0,0,1,4.34-9.31l28.34,4.05A12.15,12.15,0,0,1,418.17,177.07Z"/><path class="cls-3" d="M442.83,251.31l-2.26,2.93a12.42,12.42,0,0,1-19.95-.37l-17-23.83a5.49,5.49,0,0,1,6.41-8.31l27.36,10.38A12.41,12.41,0,0,1,442.83,251.31Z"/><path class="cls-3" d="M418.14,379.34l-1.47-4a14.35,14.35,0,0,1,12.7-19.23l33.72-1.84a6.33,6.33,0,0,1,4.15,11.38l-27,20.27A14.33,14.33,0,0,1,418.14,379.34Z"/><path class="cls-3" d="M458.49,294.49,456,291.42a13.36,13.36,0,0,1,5.17-20.84l29-12.1a5.89,5.89,0,0,1,7.18,8.7l-17.42,26.21A13.37,13.37,0,0,1,458.49,294.49Z"/><path class="cls-2" d="M123.72,428.65a4.2,4.2,0,0,0,5.25-5.73L70.65,297.84a71.35,71.35,0,0,1-2.4-54.92L124.41,88.61a4.2,4.2,0,1,0-7.9-2.88L60.34,240A79.7,79.7,0,0,0,63,301.39l58.33,125.09A4.16,4.16,0,0,0,123.72,428.65Z"/><path class="cls-3" d="M88.83,331.67l4,1.46a14.34,14.34,0,0,0,19.22-12.7l1.85-33.72a6.33,6.33,0,0,0-11.39-4.14l-20.26,27A14.35,14.35,0,0,0,88.83,331.67Z"/><path class="cls-3" d="M67.92,207.94l3.28-1.53a12.16,12.16,0,0,0,3.91-19.14L56,166a5.37,5.37,0,0,0-9.31,4.34l4,28.34A12.16,12.16,0,0,0,67.92,207.94Z"/><path class="cls-3" d="M92.43,141l2.91-1.35a10.79,10.79,0,0,0,3.47-17l-17-18.91a4.76,4.76,0,0,0-8.26,3.85l3.59,25.14A10.79,10.79,0,0,0,92.43,141Z"/><path class="cls-3" d="M113.38,101.93l3,1.09a10.77,10.77,0,0,0,14.45-9.54l1.39-25.36A4.76,4.76,0,0,0,123.68,65L108.44,85.32A10.79,10.79,0,0,0,113.38,101.93Z"/><path class="cls-3" d="M93.83,177.07l1.53,3.28a12.15,12.15,0,0,0,19.13,3.91l21.32-19.1a5.37,5.37,0,0,0-4.34-9.31l-28.34,4.05A12.15,12.15,0,0,0,93.83,177.07Z"/><path class="cls-3" d="M69.17,251.31l2.26,2.93a12.42,12.42,0,0,0,19.95-.37l17-23.83a5.49,5.49,0,0,0-6.41-8.31L74.6,232.11A12.41,12.41,0,0,0,69.17,251.31Z"/><path class="cls-3" d="M93.86,379.34l1.47-4a14.35,14.35,0,0,0-12.7-19.23l-33.72-1.84a6.33,6.33,0,0,0-4.15,11.38l27,20.27A14.33,14.33,0,0,0,93.86,379.34Z"/><path class="cls-3" d="M53.51,294.49,56,291.42a13.36,13.36,0,0,0-5.17-20.84l-29-12.1a5.89,5.89,0,0,0-7.18,8.7l17.42,26.21A13.37,13.37,0,0,0,53.51,294.49Z"/><circle class="cls-4" cx="255.99" cy="256.02" r="124.68"/><path class="cls-5" d="M351.83,176.26A124.42,124.42,0,0,0,256,131.34q-5.76,0-11.39.51a124.61,124.61,0,0,0-18.94,29.31h0a124.62,124.62,0,0,0,113.22,177c3.84,0,7.63-.17,11.39-.51A124.15,124.15,0,0,0,380.68,256,124.2,124.2,0,0,0,351.83,176.26Z"/><path class="cls-6" d="M256,140.82a115.2,115.2,0,1,1-81.45,33.74A114.49,114.49,0,0,1,256,140.82m0-9.48A124.68,124.68,0,1,0,380.68,256,124.68,124.68,0,0,0,256,131.34Z"/><path class="cls-7" d="M380.58,251.2a124.1,124.1,0,0,0-12.87-50.6C345.13,154.73,295.5,127,244.59,131.85a124.79,124.79,0,0,0-8.24,10.64c111-17.78,179.38,115.75,100.47,195.61,3.16-3.2,9-.08,13.45-.49A124.52,124.52,0,0,0,380.58,251.2Z"/><path class="cls-6" d="M203.12,249.84a5.34,5.34,0,0,1-1.66-.27L181,242.88a5.33,5.33,0,0,1,3.31-10.14l20.47,6.7a5.33,5.33,0,0,1-1.66,10.4Z"/><path class="cls-7" d="M256,211.35a5.33,5.33,0,0,1-5.33-5.33V180.45a5.34,5.34,0,0,1,10.67,0V206A5.34,5.34,0,0,1,256,211.35Z"/><path class="cls-7" d="M308.84,249.75a5.33,5.33,0,0,1-1.58-10.42l20.55-6.4A5.33,5.33,0,0,1,331,243.11l-20.55,6.4A5.48,5.48,0,0,1,308.84,249.75Z"/><path class="cls-7" d="M297.44,324.56a5.3,5.3,0,0,1-4.37-2.28l-8.85-12.64a5.33,5.33,0,0,1,8.74-6.11l8.85,12.64a5.33,5.33,0,0,1-4.37,8.39Z"/><path class="cls-6" d="M214.19,324.32a5.33,5.33,0,0,1-4.24-8.55l9.32-12.32a5.33,5.33,0,1,1,8.5,6.44l-9.32,12.32A5.35,5.35,0,0,1,214.19,324.32Z"/><path class="cls-8" d="M239.63,379.64a124.76,124.76,0,0,1-90.71-59.7l58.59-2.71a11.65,11.65,0,0,1,11.43,7.53Z"/><path class="cls-8" d="M178.83,244,134,281.83a124.89,124.89,0,0,1,26-105.4l22.09,54.3A11.65,11.65,0,0,1,178.83,244Z"/><path class="cls-8" d="M380.68,256a125.63,125.63,0,0,1-2.63,25.61L333.14,243.9a11.65,11.65,0,0,1-3.31-13.29l22-54.35A124.2,124.2,0,0,1,380.68,256Z"/><path class="cls-9" d="M380.68,256a125.63,125.63,0,0,1-2.63,25.61L333.14,243.9a11.65,11.65,0,0,1-3.31-13.29l22-54.35A124.2,124.2,0,0,1,380.68,256Z"/><path class="cls-8" d="M249.15,208.24l-41.77,30.35a11.65,11.65,0,0,0-4.23,13l15.95,49.1a11.65,11.65,0,0,0,11.08,8h51.63a11.65,11.65,0,0,0,11.08-8l15.95-49.1a11.66,11.66,0,0,0-4.23-13l-41.77-30.35A11.66,11.66,0,0,0,249.15,208.24Z"/><path class="cls-9" d="M308.84,251.62l-15.95,49.1a11.65,11.65,0,0,1-11.08,8h-23.3a124.54,124.54,0,0,1-42.86-76.19l33.5-24.34a11.66,11.66,0,0,1,13.69,0l41.77,30.35A11.66,11.66,0,0,1,308.84,251.62Z"/><path class="cls-8" d="M363.29,319.57a125,125,0,0,1-90.5,60l18.9-50.69,1.59-4.25a11.64,11.64,0,0,1,11.41-7.57Z"/><path class="cls-9" d="M363.29,319.57a125.49,125.49,0,0,1-13,18c-3.76.34-7.55.51-11.39.51a124.49,124.49,0,0,1-47.19-9.23l1.59-4.26a11.66,11.66,0,0,1,11.41-7.56Z"/><path class="cls-8" d="M310.29,143.75l-47.45,34.48a11.66,11.66,0,0,1-13.69,0l-23.49-17.07h0l-24-17.41a124.09,124.09,0,0,1,42.9-11.9q5.63-.51,11.39-.51A124.26,124.26,0,0,1,310.29,143.75Z"/><path class="cls-9" d="M310.29,143.75l-47.45,34.48a11.65,11.65,0,0,1-13.69,0l-23.49-17.07h0a124.61,124.61,0,0,1,18.94-29.31q5.63-.51,11.39-.51A124.26,124.26,0,0,1,310.29,143.75Z"/><circle class="cls-10" cx="303.51" cy="190.87" r="25.49"/><path class="cls-11" d="M286.9,50,273.18,60a5.87,5.87,0,0,0-2.13,6.55l5.24,16.13a2,2,0,0,1-3.13,2.27l-13.72-10a5.84,5.84,0,0,0-6.88,0l-13.72,10a2,2,0,0,1-3.13-2.27L241,66.5A5.87,5.87,0,0,0,238.82,60L225.1,50a2,2,0,0,1,1.2-3.69h17a5.84,5.84,0,0,0,5.56-4l5.24-16.13a2,2,0,0,1,3.88,0l5.24,16.13a5.84,5.84,0,0,0,5.56,4h17A2,2,0,0,1,286.9,50Z"/><path class="cls-12" d="M286.9,50,273.18,60a5.87,5.87,0,0,0-2.13,6.55l5.24,16.13a2,2,0,0,1-3.13,2.27l-13.72-10A5.8,5.8,0,0,0,256,73.82V24.72a2,2,0,0,1,1.94,1.41l5.24,16.13a5.84,5.84,0,0,0,5.56,4h17A2,2,0,0,1,286.9,50Z"/><path class="cls-11" d="M356.9,80,343.18,90a5.87,5.87,0,0,0-2.13,6.55l5.24,16.13a2,2,0,0,1-3.13,2.27l-13.72-10a5.84,5.84,0,0,0-6.88,0l-13.72,10a2,2,0,0,1-3.13-2.27L311,96.5A5.87,5.87,0,0,0,308.82,90L295.1,80a2,2,0,0,1,1.2-3.69h17a5.84,5.84,0,0,0,5.56-4l5.24-16.13a2,2,0,0,1,3.88,0l5.24,16.13a5.84,5.84,0,0,0,5.56,4h17A2,2,0,0,1,356.9,80Z"/><path class="cls-12" d="M356.9,80,343.18,90a5.87,5.87,0,0,0-2.13,6.55l5.24,16.13a2,2,0,0,1-3.13,2.27l-13.72-10a5.8,5.8,0,0,0-3.44-1.12V54.72a2,2,0,0,1,1.94,1.41l5.24,16.13a5.84,5.84,0,0,0,5.56,4h17A2,2,0,0,1,356.9,80Z"/><path class="cls-11" d="M216.9,80,203.18,90a5.87,5.87,0,0,0-2.13,6.55l5.24,16.13a2,2,0,0,1-3.13,2.27l-13.72-10a5.84,5.84,0,0,0-6.88,0l-13.72,10a2,2,0,0,1-3.13-2.27L171,96.5A5.87,5.87,0,0,0,168.82,90L155.1,80a2,2,0,0,1,1.2-3.69h17a5.84,5.84,0,0,0,5.56-4l5.24-16.13a2,2,0,0,1,3.88,0l5.24,16.13a5.84,5.84,0,0,0,5.56,4h17A2,2,0,0,1,216.9,80Z"/><path class="cls-12" d="M216.9,80,203.18,90a5.87,5.87,0,0,0-2.13,6.55l5.24,16.13a2,2,0,0,1-3.13,2.27l-13.72-10a5.8,5.8,0,0,0-3.44-1.12V54.72a2,2,0,0,1,1.94,1.41l5.24,16.13a5.84,5.84,0,0,0,5.56,4h17A2,2,0,0,1,216.9,80Z"/><path class="cls-11" d="M225.1,462l13.72-10A5.87,5.87,0,0,0,241,445.5l-5.24-16.13a2,2,0,0,1,3.13-2.27l13.72,10a5.84,5.84,0,0,0,6.88,0l13.72-10a2,2,0,0,1,3.13,2.27l-5.24,16.13a5.87,5.87,0,0,0,2.13,6.55l13.72,10a2,2,0,0,1-1.2,3.69h-17a5.84,5.84,0,0,0-5.56,4l-5.24,16.13a2,2,0,0,1-3.88,0l-5.24-16.13a5.84,5.84,0,0,0-5.56-4h-17A2,2,0,0,1,225.1,462Z"/><path class="cls-12" d="M225.1,462l13.72-10A5.87,5.87,0,0,0,241,445.5l-5.24-16.13a2,2,0,0,1,3.13-2.27l13.72,10a5.8,5.8,0,0,0,3.44,1.12v49.1a2,2,0,0,1-1.94-1.41l-5.24-16.13a5.84,5.84,0,0,0-5.56-4h-17A2,2,0,0,1,225.1,462Z"/><path class="cls-11" d="M155.1,432l13.72-10A5.87,5.87,0,0,0,171,415.5l-5.24-16.13a2,2,0,0,1,3.13-2.27l13.72,10a5.84,5.84,0,0,0,6.88,0l13.72-10a2,2,0,0,1,3.13,2.27l-5.24,16.13a5.87,5.87,0,0,0,2.13,6.55l13.72,10a2,2,0,0,1-1.2,3.69h-17a5.84,5.84,0,0,0-5.56,4l-5.24,16.13a2,2,0,0,1-3.88,0l-5.24-16.13a5.84,5.84,0,0,0-5.56-4h-17A2,2,0,0,1,155.1,432Z"/><path class="cls-12" d="M155.1,432l13.72-10A5.87,5.87,0,0,0,171,415.5l-5.24-16.13a2,2,0,0,1,3.13-2.27l13.72,10a5.8,5.8,0,0,0,3.44,1.12v49.1a2,2,0,0,1-1.94-1.41l-5.24-16.13a5.84,5.84,0,0,0-5.56-4h-17A2,2,0,0,1,155.1,432Z"/><path class="cls-11" d="M295.1,432l13.72-10A5.87,5.87,0,0,0,311,415.5l-5.24-16.13a2,2,0,0,1,3.13-2.27l13.72,10a5.84,5.84,0,0,0,6.88,0l13.72-10a2,2,0,0,1,3.13,2.27l-5.24,16.13a5.87,5.87,0,0,0,2.13,6.55l13.72,10a2,2,0,0,1-1.2,3.69h-17a5.84,5.84,0,0,0-5.56,4l-5.24,16.13a2,2,0,0,1-3.88,0l-5.24-16.13a5.84,5.84,0,0,0-5.56-4h-17A2,2,0,0,1,295.1,432Z"/><path class="cls-12" d="M295.1,432l13.72-10A5.87,5.87,0,0,0,311,415.5l-5.24-16.13a2,2,0,0,1,3.13-2.27l13.72,10a5.8,5.8,0,0,0,3.44,1.12v49.1a2,2,0,0,1-1.94-1.41l-5.24-16.13a5.84,5.84,0,0,0-5.56-4h-17A2,2,0,0,1,295.1,432Z"/></svg>