<svg id="_50" data-name="50" xmlns="http://www.w3.org/2000/svg" viewBox="0 0 512 512"><defs><style>.cls-1{fill:#fa80a4;}.cls-2{fill:#f9c744;}.cls-3{fill:#fbcb74;}.cls-4{fill:#f5b890;}.cls-5{fill:#d48d77;}.cls-6{fill:#fad98f;}.cls-7{fill:#334353;}.cls-8{fill:#7063ce;}.cls-9{fill:#6052a3;}.cls-10{fill:#c17e62;}.cls-11{fill:#eea47d;}.cls-12{fill:#3e4e60;}.cls-13{fill:#3f5d77;}.cls-14{fill:#ebd9ea;}.cls-15{fill:#fff;}.cls-16{fill:#c2aacf;}.cls-17{fill:#dd5e26;}.cls-18{fill:#daab42;}.cls-19{fill:#ea792e;}</style></defs><title>50-soccer-icons</title><circle class="cls-1" cx="256" cy="256" r="256"/><path class="cls-2" d="M360.21,200.19c0,27.11-4.78,60.72-12.52,75.15-9.41,17.58-35.4,50-42.36,54.66a13.81,13.81,0,1,1-15.47-22.89c14.54-9.84,28.95-36.34,33.48-44.81,4.86-9.08,9.24-38.26,9.24-62.11a13.84,13.84,0,0,1,19.2-12.73h0A13.83,13.83,0,0,1,360.21,200.19Z"/><path class="cls-3" d="M352.88,192.86c0,27.12-4.78,60.72-12.51,75.16C331,285.59,305,318,298,322.67a13.76,13.76,0,0,1-7.72,2.37,14,14,0,0,1-5.41-1.1,13.81,13.81,0,0,1,5-16.83c14.54-9.84,28.95-36.34,33.48-44.81,4.86-9.08,9.24-38.26,9.24-62.11a13.84,13.84,0,0,1,19.2-12.73h0A13.85,13.85,0,0,1,352.88,192.86Z"/><path class="cls-4" d="M327.52,198.26a13.3,13.3,0,0,0,9.39,3.89h17.54a14,14,0,0,0,9.67-3.81l.35-.34a14.11,14.11,0,0,0,4.16-10v-26a4.08,4.08,0,0,0-4.06-4.06h-2.16a4.08,4.08,0,0,0-4.06,4.06V150.12a4.06,4.06,0,0,0-4.06-4.06h-2.16a4.06,4.06,0,0,0-4.06,4.06v-6.41a4.06,4.06,0,0,0-4.06-4.06h-2.15a4.06,4.06,0,0,0-4.06,4.06v5.79a4.07,4.07,0,0,0-4.07-4.06h-2.15a4.06,4.06,0,0,0-4.06,4.06v26.75l-6.12-6.12a6.13,6.13,0,0,0-8.69,0l-2.31,2.3a6.14,6.14,0,0,0,0,8.69l17.12,17.12Z"/><path class="cls-5" d="M335.64,169.83V149.5a4.06,4.06,0,0,0-4.06-4.06h2.16a4.06,4.06,0,0,1,4.06,4.06V172S335.64,171,335.64,169.83Z"/><path class="cls-5" d="M356.19,170.45V150.12a4.06,4.06,0,0,0-4.06-4.06h2.16a4.06,4.06,0,0,1,4.06,4.06V172.6S356.19,171.64,356.19,170.45Z"/><path class="cls-5" d="M345.92,167.59V143.71a4.06,4.06,0,0,0-4.06-4.06H344a4.06,4.06,0,0,1,4.06,4.06v26S345.92,168.78,345.92,167.59Z"/><path class="cls-5" d="M321.4,170.12l6.12,6.13v4.65l-8.46-8.47a6.13,6.13,0,0,0-8.66,0l2.3-2.3A6.15,6.15,0,0,1,321.4,170.12Z"/><path class="cls-5" d="M354.47,202.13a14,14,0,0,0,9.46-3.63l.09-.08.12-.1h0a14.14,14.14,0,0,0,4.5-10.36v-26a4.06,4.06,0,0,0-4.06-4.06h-2.15a4.06,4.06,0,0,1,4.06,4.06v23.55c.09,4.3-3.12,9.19-7.16,11a8.57,8.57,0,0,0-4.7,5.1Z"/><path class="cls-2" d="M310.76,473.89V339.05A37.07,37.07,0,0,0,273.68,302H248.2a37.07,37.07,0,0,0-37.08,37.08V473.89Z"/><path class="cls-6" d="M234.85,339.05A37.07,37.07,0,0,1,271.93,302h1.75a37.07,37.07,0,0,1,37.08,37.08V473.89H235.12Z"/><path class="cls-7" d="M230.1,394.38h0a4.76,4.76,0,0,1,4.76,4.76v40.91a0,0,0,0,1,0,0h-9.52a0,0,0,0,1,0,0V399.14A4.76,4.76,0,0,1,230.1,394.38Z"/><path class="cls-7" d="M291.78,394.38h0a4.76,4.76,0,0,1,4.76,4.76v40.91a0,0,0,0,1,0,0H287a0,0,0,0,1,0,0V399.14A4.76,4.76,0,0,1,291.78,394.38Z"/><path class="cls-7" d="M247.66,324.08l8.67,8.67a6.42,6.42,0,0,0,9.08,0l8.69-8.68a11.27,11.27,0,0,1,8-3.31h4.69a3.83,3.83,0,0,0,2.71-6.53L277.4,302.15H244.48l-12,12a3.83,3.83,0,0,0,2.67,6.54l4.68,0A11.31,11.31,0,0,1,247.66,324.08Z"/><path class="cls-8" d="M310.76,477.93V440.05H211.12v37.88h0v30.14q11.69,2.08,23.73,3.06,7.07.58,14.23.78V494H272.8v17.49a254.73,254.73,0,0,0,38-5.32v-28.2Z"/><path class="cls-9" d="M234.85,440.05v71.08q-12-1-23.73-3.06v-68Z"/><path class="cls-2" d="M154.65,196.2c0,27.11,4.78,60.72,12.52,75.16,9.41,17.57,35.4,49.94,42.36,54.65A13.81,13.81,0,1,0,225,303.12c-14.54-9.84-28.95-36.34-33.48-44.81-4.86-9.07-9.24-38.26-9.24-62.11a13.84,13.84,0,0,0-19.2-12.73h0A13.83,13.83,0,0,0,154.65,196.2Z"/><path class="cls-3" d="M162,188.87c0,27.12,4.78,60.73,12.51,75.16,9.41,17.57,35.41,50,42.37,54.65A13.8,13.8,0,0,0,230,320a13.81,13.81,0,0,0-5-16.83c-14.54-9.84-28.95-36.34-33.48-44.81-4.86-9.07-9.24-38.26-9.24-62.11a13.84,13.84,0,0,0-19.2-12.73h0A13.85,13.85,0,0,0,162,188.87Z"/><path class="cls-4" d="M187.34,194.26l17.12-17.13a6.14,6.14,0,0,0,0-8.69l-2.31-2.3a6.14,6.14,0,0,0-8.69,0l-6.12,6.12V145.51a4.06,4.06,0,0,0-4.06-4.06h-2.15a4.08,4.08,0,0,0-4.07,4.06v-5.79a4.06,4.06,0,0,0-4.06-4.06h-2.15a4.07,4.07,0,0,0-4.06,4.06v6.41a4.06,4.06,0,0,0-4.06-4.06h-2.16a4.06,4.06,0,0,0-4.06,4.06V158a4.06,4.06,0,0,0-4.06-4.06h-2.16a4.07,4.07,0,0,0-4.06,4.06v26a14.11,14.11,0,0,0,4.16,10c.11.12.23.23.35.34a14.06,14.06,0,0,0,9.67,3.81H178a13.26,13.26,0,0,0,9.39-3.89Z"/><path class="cls-5" d="M179.22,165.84V145.52a4.06,4.06,0,0,1,4.06-4.06h-2.16a4.06,4.06,0,0,0-4.06,4.06V168S179.22,167,179.22,165.84Z"/><path class="cls-5" d="M158.67,166.46V146.13a4.06,4.06,0,0,1,4.06-4.06h-2.16a4.06,4.06,0,0,0-4.06,4.06v22.49S158.67,167.65,158.67,166.46Z"/><path class="cls-5" d="M168.94,163.6V139.72a4.06,4.06,0,0,1,4.06-4.06h-2.15a4.06,4.06,0,0,0-4.06,4.06v26S168.94,164.79,168.94,163.6Z"/><path class="cls-5" d="M193.46,166.14l-6.12,6.12v4.65l8.46-8.47a6.13,6.13,0,0,1,8.66,0l-2.3-2.3A6.16,6.16,0,0,0,193.46,166.14Z"/><path class="cls-5" d="M160.39,198.14a14,14,0,0,1-9.46-3.63l-.09-.08-.12-.1h0a14.14,14.14,0,0,1-4.5-10.36v-26a4.06,4.06,0,0,1,4.06-4.06h2.15a4.06,4.06,0,0,0-4.06,4.06v23.55c-.09,4.3,3.12,9.19,7.16,11a8.56,8.56,0,0,1,4.7,5.11Z"/><path class="cls-4" d="M277.4,286.4v17.88a16.46,16.46,0,1,1-32.92,0V286.4Z"/><path class="cls-5" d="M244.48,286.4v17.88a16.44,16.44,0,0,0,8.1,14.18V299.35a48.26,48.26,0,0,0,18.62,3.71,50.46,50.46,0,0,0,6.2-.39V286.4Z"/><path class="cls-5" d="M214.6,207.15h8.16a0,0,0,0,1,0,0V232.7a0,0,0,0,1,0,0H214.6a12.77,12.77,0,0,1-12.77-12.77v0a12.77,12.77,0,0,1,12.77-12.77Z"/><path class="cls-10" d="M214.19,214.44h8.58a0,0,0,0,1,0,0v11a0,0,0,0,1,0,0h-8.58a5.48,5.48,0,0,1-5.48-5.48v0a5.48,5.48,0,0,1,5.48-5.48Z"/><path class="cls-5" d="M332.41,207.15H336a0,0,0,0,1,0,0V232.7a0,0,0,0,1,0,0h-3.58a12.77,12.77,0,0,1-12.77-12.77v0A12.77,12.77,0,0,1,332.41,207.15Z" transform="translate(655.63 439.85) rotate(-180)"/><path class="cls-10" d="M325.12,214.44h4a0,0,0,0,1,0,0v11a0,0,0,0,1,0,0h-4a5.48,5.48,0,0,1-5.48-5.48v0a5.48,5.48,0,0,1,5.48-5.48Z" transform="translate(648.75 439.85) rotate(180)"/><path class="cls-5" d="M319.64,178.72V246a48.44,48.44,0,0,1-96.88,0V178.72a26.55,26.55,0,0,1,26.56-26.54H293.1a26,26,0,0,1,7.41,1.06A26.52,26.52,0,0,1,319.64,178.72Z"/><path class="cls-4" d="M319.64,178.72V246a48.43,48.43,0,0,1-37.58,47.2A48.43,48.43,0,0,1,244.48,246V220.26a68.09,68.09,0,0,1,56-67A26.52,26.52,0,0,1,319.64,178.72Z"/><rect class="cls-11" x="267.68" y="223.31" width="24.56" height="14.69" rx="7.34"/><rect class="cls-7" x="262.7" y="252.38" width="19.06" height="11.4" rx="5.7" transform="translate(530.31 -14.15) rotate(90)"/><rect class="cls-11" x="271.2" y="152.18" width="12.39" height="76.11"/><rect class="cls-7" x="251.35" y="194.58" width="13.42" height="25.13" rx="6.71"/><rect class="cls-7" x="290.03" y="194.58" width="13.42" height="25.13" rx="6.71"/><path class="cls-12" d="M222.77,232.7H214.6a12.77,12.77,0,0,1-4.07-.68v3.41a12.26,12.26,0,0,0,12.26,12.26Z"/><path class="cls-12" d="M222.77,207.12H214.6a12.77,12.77,0,0,0-3.87.66h-.2V174.37a28.08,28.08,0,0,1,28.08-28.08H271.2v7a16.57,16.57,0,0,1-16.57,16.58h0A10.14,10.14,0,0,0,244.48,180V186a21.13,21.13,0,0,1-21.14,21.14l-.57,0Z"/><path class="cls-13" d="M325.31,159.59h0a6.31,6.31,0,0,0,6.31,6.32h0a6.34,6.34,0,0,0,4.1-1.51l7.54-6.44a4.14,4.14,0,0,1,6.82,3.15V170a22.56,22.56,0,0,1-22.56,22.56h0a19.49,19.49,0,0,1-13.81-5.72l-8-8a30.62,30.62,0,0,0-21.66-9h-34.4a11.8,11.8,0,0,1-11.8-11.8h0a11.79,11.79,0,0,1,11.8-11.79H312A13.31,13.31,0,0,1,325.31,159.59Z"/><path class="cls-14" d="M315.94,145H166.48a6.54,6.54,0,1,0,0,13.07H315.94a6.54,6.54,0,1,0,0-13.07Z"/><path class="cls-15" d="M315.94,145H166.48a6.54,6.54,0,0,0-6.54,6.54H322.48a6.54,6.54,0,0,0-6.54-6.54Z"/><path class="cls-16" d="M322.48,136.77a6.54,6.54,0,0,0-6.54,6.53v16.42a6.54,6.54,0,0,0,13.08,0V143.3A6.53,6.53,0,0,0,322.48,136.77Z"/><path class="cls-14" d="M322.48,136.77a6.54,6.54,0,0,0-6.54,6.53v8.21H329V143.3A6.53,6.53,0,0,0,322.48,136.77Z"/><path class="cls-17" d="M302.26,39.36H224.88c0,11.12.7,35.86,1.47,39.67.61,3,4.38,5.26,8.82,5.26H305.7A301.52,301.52,0,0,1,302.26,39.36Z"/><path class="cls-18" d="M302.26,39.36H260.71c0,11.12.71,35.86,1.48,39.67.61,3,4.37,5.26,8.82,5.26H305.7A301.52,301.52,0,0,1,302.26,39.36Z"/><path class="cls-19" d="M305.58,84.26H235.12s1.09,5.09,2,20.84c.74,12.16,1.39,12.45,1.39,39.87h77.38c0-27.42-.65-27.71-1.39-39.87-.26-4.24-.52-7.71-.78-10.51C313.24,88.68,309.73,84.26,305.58,84.26Z"/><path class="cls-2" d="M270,84.26h-34.9s1.09,5.09,2,20.84c.74,12.16,1.39,12.45,1.39,39.87h41.83c0-27.42-.66-27.71-1.4-39.87-.25-4.24-.52-7.71-.77-10.51C277.68,88.68,274.17,84.26,270,84.26Z"/></svg>