<svg id="_50" data-name="50" xmlns="http://www.w3.org/2000/svg" viewBox="0 0 512 512"><defs><style>.cls-1{fill:#e2a427;}.cls-2{fill:#f9c744;}.cls-3{fill:#fbcb74;}.cls-4{fill:#f5b890;}.cls-5{fill:#d48d77;}.cls-6{fill:#e9465e;}.cls-7{fill:#ee6781;}.cls-8{fill:#c0405c;}.cls-9{fill:#f4829b;}.cls-10{fill:#f3c3b1;}.cls-11{fill:#fad98f;}.cls-12{fill:#3e4e60;}.cls-13{fill:#3f5d77;}.cls-14{fill:#334353;}.cls-15{fill:#c17e62;}.cls-16{fill:#eea47d;}.cls-17{fill:#3f6c8e;}.cls-18{fill:#ebd9ea;}.cls-19{fill:#fff;}</style></defs><title>50-soccer-icons</title><circle class="cls-1" cx="256" cy="256" r="256"/><path class="cls-2" d="M217.19,320.77c34,46.46,59.46,67.23,83.15,67.23,40.67-.88,51.2-50.53,61.38-93.85l-12.67-2.9-24.58-5.64c-4.1,17.82-8.55,36.33-14.05,49.47a65.54,65.54,0,0,1-4.49,9,9,9,0,0,1-12.11,3c-7.7-4.51-22.15-16.58-45.77-48.86L231,310.7Z"/><path class="cls-3" d="M231,310.7c27.42,42.34,48.35,61.37,67.87,61.37,31.56-.8,42-41.16,50.22-80.82l-24.58-5.64c-4.1,17.82-8.55,36.33-14.05,49.47a65.54,65.54,0,0,1-4.49,9,9,9,0,0,1-12.11,3c-7.7-4.51-22.15-16.58-45.77-48.86Z"/><path class="cls-4" d="M320,289.47a18.4,18.4,0,0,0,5.39,13l17.16,17.16a19.46,19.46,0,0,0,13.19,5.73h.67a19.57,19.57,0,0,0,13.88-5.74l25.47-25.48a5.62,5.62,0,0,0,0-7.94l-2.11-2.11a5.62,5.62,0,0,0-7.94,0l11.56-11.56a5.63,5.63,0,0,0,0-8l-2.11-2.11a5.63,5.63,0,0,0-7.95,0l6.27-6.26a5.63,5.63,0,0,0,0-8l-2.11-2.11a5.62,5.62,0,0,0-7.94,0l-5.67,5.67a5.63,5.63,0,0,0,0-8l-2.11-2.11a5.62,5.62,0,0,0-7.94,0l-26.17,26.17V256a8.49,8.49,0,0,0-8.5-8.5h-4.51a8.49,8.49,0,0,0-8.5,8.5v33.5Z"/><path class="cls-5" d="M355.81,269.61l.42-.43,19.46-19.46a5.6,5.6,0,0,0,0-7.94h0l2.11,2.1a5.61,5.61,0,0,1,0,8l-22,22S354.64,270.77,355.81,269.61Z"/><path class="cls-5" d="M375.31,290.32l.43-.43,19.46-19.46a5.62,5.62,0,0,0,0-7.94h0l2.1,2.11a5.6,5.6,0,0,1,0,7.94l-22,22S374.14,291.48,375.31,290.32Z"/><path class="cls-5" d="M368.05,277.47l.43-.43,22.93-22.93a5.61,5.61,0,0,0,0-8h0l2.11,2.11a5.61,5.61,0,0,1,0,8l-25.47,25.47S366.89,278.63,368.05,277.47Z"/><path class="cls-5" d="M341.58,256v12L337,272.49V255.92a8.47,8.47,0,0,0-8.46-8.47h4.51A8.51,8.51,0,0,1,341.58,256Z"/><path class="cls-5" d="M342.62,319.63a19.53,19.53,0,0,0,12.82,5.7h.16l.22,0h0a19.55,19.55,0,0,0,14.55-5.73l25.47-25.47a5.62,5.62,0,0,0,0-7.94l-2.11-2.11h0a5.63,5.63,0,0,1,0,7.95L370.79,315l-.1.11c-4.12,4.29-12.05,5.93-17.8,3.79a11.89,11.89,0,0,0-9.6.4Z"/><path class="cls-6" d="M454,192.55,424.59,302.32a6.92,6.92,0,0,1-.88,2h0a7.32,7.32,0,0,1-5.85,3.37,7,7,0,0,1-2.2-.24l-75.55-20.24a7.31,7.31,0,0,1-5.4-6.74h0a7.51,7.51,0,0,1,.24-2.19l29.42-109.77a7.26,7.26,0,0,1,6.74-5.4,7.19,7.19,0,0,1,2.19.24l75.55,20.24a7.28,7.28,0,0,1,5.4,6.75A7.47,7.47,0,0,1,454,192.55Z"/><path class="cls-7" d="M454,192.55,424.59,302.32a6.92,6.92,0,0,1-.88,2h0a7.32,7.32,0,0,1-5.85,3.37,7.28,7.28,0,0,1-3.13-8L444.14,189.9a5.12,5.12,0,1,1,10.11.46A7.47,7.47,0,0,1,454,192.55Z"/><path class="cls-8" d="M418.3,297.61l-72.72-19.49,28.66-107a7.32,7.32,0,0,0-3.13-8,7.26,7.26,0,0,0-6.74,5.4L335,278.3a7.51,7.51,0,0,0-.24,2.19h0a7.31,7.31,0,0,0,5.4,6.74l75.55,20.24a7,7,0,0,0,2.2.24,7.32,7.32,0,0,0,5.85-3.37h0A7.31,7.31,0,0,0,418.3,297.61Z"/><path class="cls-9" d="M454.25,190.36a7.29,7.29,0,0,1-8,3.12l-75.55-20.24a7.31,7.31,0,0,1-5.41-6.73,7.33,7.33,0,0,1,5.86-3.38,7.19,7.19,0,0,1,2.19.24l75.55,20.24a7.28,7.28,0,0,1,5.4,6.75Z"/><path class="cls-5" d="M353.54,252.48v3.33a11.1,11.1,0,0,1-9.85,11l-6,.68a7.36,7.36,0,0,1-7.35-7.36v-12.7h18.19a5,5,0,0,1,5,4.4A4.23,4.23,0,0,1,353.54,252.48Z"/><path class="cls-4" d="M353.49,251.85a11.08,11.08,0,0,1-9.8,10l-6,.69a7.37,7.37,0,0,1-7.35-7.36v-7.77h18.19a5,5,0,0,1,5,4.4Z"/><path class="cls-10" d="M348.38,247.45a2.38,2.38,0,0,1,1.94,3.6,7.47,7.47,0,0,1-5.6,3.66l-4,.46a4.92,4.92,0,0,1-4.92-4.92v-2.8h12.61Z"/><path class="cls-2" d="M263.06,331.21V511.9q-3.53.11-7.06.1a254.89,254.89,0,0,1-133.06-37.26V331.21a52.14,52.14,0,0,1,52.14-52.15h35.84A52.14,52.14,0,0,1,263.06,331.21Z"/><path class="cls-11" d="M263.06,331.21V511.9q-3.53.11-7.06.1a255,255,0,0,1-99.7-20.15V331.21a52.15,52.15,0,0,1,52.15-52.15h2.47A52.14,52.14,0,0,1,263.06,331.21Z"/><path class="cls-12" d="M263.06,473.26V511.9q-3.53.11-7.06.1a254.89,254.89,0,0,1-133.06-37.26v-1.48Z"/><path class="cls-13" d="M263.06,473.26V511.9q-3.53.11-7.06.1a255,255,0,0,1-99.7-20.15V473.26Z"/><path class="cls-14" d="M149.63,409h0a6.69,6.69,0,0,1,6.69,6.69v57.54a0,0,0,0,1,0,0H142.94a0,0,0,0,1,0,0V415.72A6.69,6.69,0,0,1,149.63,409Z"/><path class="cls-14" d="M236.37,409h0a6.69,6.69,0,0,1,6.69,6.69v57.54a0,0,0,0,1,0,0H229.67a0,0,0,0,1,0,0V415.72A6.69,6.69,0,0,1,236.37,409Z"/><path class="cls-14" d="M174.33,310.16l12.19,12.2a9,9,0,0,0,12.77,0l12.21-12.21a15.89,15.89,0,0,1,11.23-4.66h6.6a5.38,5.38,0,0,0,3.81-9.19l-17-17h-46.3l-16.94,16.94a5.38,5.38,0,0,0,3.75,9.19l6.58.06A15.93,15.93,0,0,1,174.33,310.16Z"/><path class="cls-4" d="M216.15,257.17v25.14a23.15,23.15,0,1,1-46.3,0V257.17Z"/><path class="cls-5" d="M169.85,257.17v25.14a23.14,23.14,0,0,0,11.39,19.95V275.38a67.88,67.88,0,0,0,26.19,5.22,71.51,71.51,0,0,0,8.72-.54V257.17Z"/><path class="cls-5" d="M127.83,145.72h11.48a0,0,0,0,1,0,0v35.93a0,0,0,0,1,0,0H127.83a18,18,0,0,1-18-18v0a18,18,0,0,1,18-18Z"/><path class="cls-15" d="M127.25,156h12.06a0,0,0,0,1,0,0v15.42a0,0,0,0,1,0,0H127.25a7.71,7.71,0,0,1-7.71-7.71v0A7.71,7.71,0,0,1,127.25,156Z"/><path class="cls-5" d="M293.51,145.72h5a0,0,0,0,1,0,0v35.93a0,0,0,0,1,0,0h-5a18,18,0,0,1-18-18v0A18,18,0,0,1,293.51,145.72Z" transform="translate(574.09 327.37) rotate(-180)"/><path class="cls-15" d="M283.26,156h5.61a0,0,0,0,1,0,0v15.42a0,0,0,0,1,0,0h-5.61a7.71,7.71,0,0,1-7.71-7.71v0A7.71,7.71,0,0,1,283.26,156Z" transform="translate(564.41 327.37) rotate(180)"/><path class="cls-5" d="M275.55,105.73v94.63a68.12,68.12,0,0,1-136.24,0V105.73a37.33,37.33,0,0,1,37.34-37.32h61.58a36.59,36.59,0,0,1,10.41,1.49A37.31,37.31,0,0,1,275.55,105.73Z"/><path class="cls-4" d="M275.55,105.73v94.63a68.12,68.12,0,0,1-52.85,66.39,68.12,68.12,0,0,1-52.85-66.39v-36.2A95.76,95.76,0,0,1,248.64,69.9,37.31,37.31,0,0,1,275.55,105.73Z"/><rect class="cls-16" x="202.48" y="168.44" width="34.54" height="20.65" rx="10.33"/><rect class="cls-14" x="195.47" y="209.33" width="26.8" height="16.03" rx="8.01" transform="translate(426.22 8.47) rotate(90)"/><rect class="cls-16" x="207.43" y="68.41" width="17.42" height="107.04"/><rect class="cls-14" x="179.51" y="128.04" width="18.88" height="35.35" rx="9.44"/><rect class="cls-14" x="233.9" y="128.04" width="18.88" height="35.35" rx="9.44"/><path class="cls-12" d="M139.32,181.65H127.83a18.12,18.12,0,0,1-5.73-1v4.78a17.25,17.25,0,0,0,17.25,17.25Z"/><path class="cls-12" d="M139.32,145.68H127.83a17.54,17.54,0,0,0-5.44.93h-.29v-47a39.49,39.49,0,0,1,39.49-39.49h45.84V70A23.31,23.31,0,0,1,184.12,93.3h0a14.27,14.27,0,0,0-14.27,14.27V116a29.73,29.73,0,0,1-29.73,29.73l-.8,0Z"/><path class="cls-13" d="M283.52,78.84h0a8.89,8.89,0,0,0,8.88,8.88h0a8.88,8.88,0,0,0,5.76-2.12l10.61-9.06A5.82,5.82,0,0,1,318.36,81V93.49a31.73,31.73,0,0,1-31.73,31.73h0a27.48,27.48,0,0,1-19.42-8L256,105.92A43.08,43.08,0,0,0,225.5,93.3H177.12a16.59,16.59,0,0,1-16.59-16.59h0a16.58,16.58,0,0,1,16.59-16.58h87.69A18.71,18.71,0,0,1,283.52,78.84Z"/><path class="cls-3" d="M236.14,288.94v101.9a20.74,20.74,0,0,1-20.75,20.76H215a42.18,42.18,0,0,1-29.42-12.37l-41-40.94a22.37,22.37,0,0,1,28.74-34.07,21.27,21.27,0,0,1,2.88,2.44l21.68,21.68V303A14.09,14.09,0,0,1,212,288.94Z"/><path class="cls-2" d="M144.74,326.51a22.38,22.38,0,0,0-.14,31.78l41,40.94A42.18,42.18,0,0,0,215,411.6V288.94h-3A14.09,14.09,0,0,0,197.9,303V365a6.59,6.59,0,0,1-11.25,4.66l-13-13Z"/><path class="cls-13" d="M267.25,205.76h-52.8a7,7,0,0,0-7,7v8.88a7,7,0,0,0,7,7h27.91q-.09,1-.09,2.07a25,25,0,1,0,25-25Z"/><circle class="cls-12" cx="267.66" cy="230.75" r="18.61"/><path class="cls-14" d="M249.84,205.76h11.1a0,0,0,0,1,0,0v10.35a5.55,5.55,0,0,1-5.55,5.55h0a5.55,5.55,0,0,1-5.55-5.55V205.76A0,0,0,0,1,249.84,205.76Z"/><path class="cls-14" d="M207.43,212.78h7.67a4.46,4.46,0,0,1,4.46,4.46v0a4.46,4.46,0,0,1-4.46,4.46h-7.67a0,0,0,0,1,0,0v-8.92A0,0,0,0,1,207.43,212.78Z"/><rect class="cls-17" x="216.2" y="205.76" width="28.71" height="7.02" rx="3.51"/><path class="cls-4" d="M197.91,288.49a18.39,18.39,0,0,0,5.38,13l17.16,17.16a19.49,19.49,0,0,0,13.19,5.73h.67a19.57,19.57,0,0,0,13.88-5.74l25.48-25.48a5.62,5.62,0,0,0,0-7.94l-2.11-2.11a5.63,5.63,0,0,0-7.95,0l11.56-11.56a5.63,5.63,0,0,0,0-7.95l-2.11-2.11a5.62,5.62,0,0,0-7.94,0l6.26-6.27a5.62,5.62,0,0,0,0-7.94l-2.1-2.11a5.63,5.63,0,0,0-7.95,0l-5.67,5.66a5.62,5.62,0,0,0,0-7.94l-2.1-2.11a5.63,5.63,0,0,0-7.95,0L219.44,267V255a8.49,8.49,0,0,0-8.5-8.5h-4.51a8.49,8.49,0,0,0-8.5,8.5v33.5Z"/><path class="cls-5" d="M233.67,268.63l.43-.43,19.46-19.46a5.63,5.63,0,0,0,0-8h0l2.1,2.11a5.61,5.61,0,0,1,0,7.95l-22,22S232.51,269.79,233.67,268.63Z"/><path class="cls-5" d="M253.17,289.34l.43-.43,19.46-19.46a5.63,5.63,0,0,0,0-7.95h0l2.11,2.11a5.63,5.63,0,0,1,0,7.95l-22,22S252,290.5,253.17,289.34Z"/><path class="cls-5" d="M245.91,276.49l.43-.43,22.94-22.93a5.63,5.63,0,0,0,0-7.95h0l2.1,2.11a5.6,5.6,0,0,1,0,7.94L245.91,280.7S244.75,277.65,245.91,276.49Z"/><path class="cls-5" d="M219.44,255v12l-4.54,4.55V254.94a8.47,8.47,0,0,0-8.47-8.47h4.51A8.5,8.5,0,0,1,219.44,255Z"/><path class="cls-5" d="M220.49,318.65a19.48,19.48,0,0,0,12.81,5.7h.16l.22,0v0a19.54,19.54,0,0,0,14.54-5.72l25.47-25.47a5.62,5.62,0,0,0,0-7.94l-2.11-2.11h0a5.62,5.62,0,0,1,0,7.94L248.66,314l-.11.11c-4.12,4.28-12,5.93-17.8,3.79a11.82,11.82,0,0,0-9.59.4Z"/><rect class="cls-10" x="244.97" y="241.31" width="6.99" height="9.17" rx="2.79" transform="translate(-101.1 247.71) rotate(-45)"/><rect class="cls-10" x="201.61" y="250.56" width="13.29" height="10.13" rx="4.05"/><rect class="cls-10" x="261.83" y="246.17" width="6.99" height="9.17" rx="2.79" transform="translate(-99.6 261.05) rotate(-45)"/><rect class="cls-10" x="265.49" y="262.93" width="6.99" height="9.17" rx="2.79" transform="translate(-110.38 268.55) rotate(-45)"/><rect class="cls-10" x="264.29" y="284.41" width="6.99" height="9.17" rx="2.79" transform="translate(-125.92 274) rotate(-45)"/><path class="cls-18" d="M332.53,187.56l-25.68,16.16L300,208a2.49,2.49,0,0,1-3.08-3.86l13.63-13.64a2.48,2.48,0,0,0-.88-4.07l-8.83-3.33A2.49,2.49,0,0,1,300,179l25.5-25.32a2.47,2.47,0,0,1,2.63-.56l10.77,4.06a2.49,2.49,0,0,1,.88,4.08l-15.26,15.27a2.48,2.48,0,0,0,.88,4.07l6.67,2.52A2.48,2.48,0,0,1,332.53,187.56Z"/><path class="cls-19" d="M332.53,187.56l-25.68,16.16a2.43,2.43,0,0,1,0-3.49l13.63-13.64a2.48,2.48,0,0,0-.88-4.07l-8.83-3.33a2.49,2.49,0,0,1-.87-4.09l21-20.9,8,3a2.49,2.49,0,0,1,.88,4.08l-15.26,15.27a2.48,2.48,0,0,0,.88,4.07l6.67,2.52A2.48,2.48,0,0,1,332.53,187.56Z"/><path class="cls-18" d="M345.48,231.72,315.9,225l-7.85-1.79a2.48,2.48,0,0,1,.55-4.89h19.28a2.49,2.49,0,0,0,2.26-3.51l-3.89-8.59a2.49,2.49,0,0,1,2.28-3.51l35.94.13a2.47,2.47,0,0,1,2.25,1.45l4.74,10.5a2.48,2.48,0,0,1-2.26,3.5H347.61a2.48,2.48,0,0,0-2.26,3.5l2.94,6.5A2.48,2.48,0,0,1,345.48,231.72Z"/><path class="cls-19" d="M345.48,231.72,315.9,225a2.42,2.42,0,0,1,2.48-2.45h19.28a2.48,2.48,0,0,0,2.26-3.5l-3.89-8.6a2.48,2.48,0,0,1,2.28-3.5L368,207l3.5,7.74a2.48,2.48,0,0,1-2.26,3.5H347.61a2.48,2.48,0,0,0-2.26,3.5l2.94,6.5A2.48,2.48,0,0,1,345.48,231.72Z"/></svg>