<svg id="_50" data-name="50" xmlns="http://www.w3.org/2000/svg" viewBox="0 0 512 512"><defs><style>.cls-1{fill:#e9465e;}.cls-2{fill:#f4829b;}.cls-3{fill:#ebd9ea;}.cls-4{fill:#9175a7;}.cls-5{fill:#f4e6f4;}.cls-6{fill:#ee6781;}.cls-7{fill:#f0dae2;}.cls-8{fill:#c2aacf;}.cls-9{fill:#f9f2f9;}.cls-10{fill:#fff;}.cls-11{fill:#a583bb;}</style></defs><title>50-soccer-icons</title><circle class="cls-1" cx="256" cy="256" r="256"/><path class="cls-2" d="M195.15,414.1h21.93a0,0,0,0,1,0,0v11a11,11,0,0,1-11,11h0a11,11,0,0,1-11-11v-11A0,0,0,0,1,195.15,414.1Z" transform="translate(-266.16 414.2) rotate(-62.81)"/><path class="cls-2" d="M220.81,375.1h21.93a0,0,0,0,1,0,0v11a11,11,0,0,1-11,11h0a11,11,0,0,1-11-11v-11A0,0,0,0,1,220.81,375.1Z" transform="translate(-217.53 415.84) rotate(-62.81)"/><path class="cls-2" d="M244.82,338.59h21.93a0,0,0,0,1,0,0v11a11,11,0,0,1-11,11h0a11,11,0,0,1-11-11v-11A0,0,0,0,1,244.82,338.59Z" transform="translate(-172.02 417.37) rotate(-62.81)"/><path class="cls-2" d="M314.19,211.17h21.93a0,0,0,0,1,0,0v11a11,11,0,0,1-11,11h0a11,11,0,0,1-11-11v-11A0,0,0,0,1,314.19,211.17Z" transform="translate(-21 409.87) rotate(-62.81)"/><path class="cls-2" d="M329.52,181.33h21.93a0,0,0,0,1,0,0v11a11,11,0,0,1-11,11h0a11,11,0,0,1-11-11v-11a0,0,0,0,1,0,0Z" transform="translate(13.87 407.3) rotate(-62.81)"/><path class="cls-3" d="M321,131.59a34.13,34.13,0,0,1,14.75,45.94l-25.35,49.35a22.76,22.76,0,0,1-12.34,10.94,28.77,28.77,0,0,0-18.55,23.26,201.62,201.62,0,0,1-20.58,66L191.36,429.81a31.72,31.72,0,0,1-41,10.78c-19.17-12.32-22.83-40.91-9-58.82a94.38,94.38,0,0,0,17.09-38.48c5.65-24,6.43-106.42,8.15-132.1A46.65,46.65,0,0,1,191.31,174a109.31,109.31,0,0,0,23.56-16c13.38-12.11,26.19-28,25.45-47a12.56,12.56,0,0,1,18.3-11.4l18.88,9.7Z"/><path class="cls-4" d="M321,131.59a34.13,34.13,0,0,1,14.75,45.94l-25.35,49.35a22.76,22.76,0,0,1-12.34,10.94,28.77,28.77,0,0,0-18.55,23.26,201.62,201.62,0,0,1-20.58,66L191.36,429.81a31.72,31.72,0,0,1-41,10.78,191.48,191.48,0,0,0,46.9-50.45l42.68-66.88q9.72-15.22,17.91-31.37l41.9-82.55A199.6,199.6,0,0,0,321,131.59Z"/><path class="cls-5" d="M258.62,99.57l18.88,9.7c-5.43,35.47-6.4,65.05-32,93.26a198.73,198.73,0,0,0-45,86.57c-15.73,68.74-16.67,80.64-63.8,135.45a42.39,42.39,0,0,1,4.58-42.78,94.38,94.38,0,0,0,17.09-38.48A239.31,239.31,0,0,0,162.55,308l4-96.78A46.65,46.65,0,0,1,191.31,174a109.67,109.67,0,0,0,23.56-16c13.38-12.11,26.19-28,25.45-47A12.56,12.56,0,0,1,258.62,99.57Z"/><path class="cls-2" d="M258.62,99.57l-5,25.13A58.34,58.34,0,0,1,239,153.26c-21,23.81-40.85,38.89-70.95,49.79h0A46.62,46.62,0,0,1,191.31,174a109.31,109.31,0,0,0,23.56-16,107.07,107.07,0,0,0,17.19-19.52A47.14,47.14,0,0,0,240.32,111,12.56,12.56,0,0,1,258.62,99.57Z"/><path class="cls-6" d="M303.65,122.69h0l-23.89,55a39.16,39.16,0,0,0-2.63,22.49l7.07,39.74-13.62,26.85L253.9,214.51a60.69,60.69,0,0,1-1.3-32l17.8-76.88,7.1,3.65Z"/><path class="cls-2" d="M270.4,105.62l7.1,3.65c-5,32.72-6.22,60.42-26.45,86.66a59.78,59.78,0,0,1,1.55-13.43Z"/><path class="cls-4" d="M197.14,287.73A9.82,9.82,0,1,1,183,294.91a10.13,10.13,0,0,1,1-2.94,9.84,9.84,0,0,1,12.2-4.7A7.77,7.77,0,0,1,197.14,287.73Z"/><path class="cls-7" d="M196.12,287.27A9.81,9.81,0,0,1,183,294.91a10.13,10.13,0,0,1,1-2.94A9.84,9.84,0,0,1,196.12,287.27Z"/><path class="cls-4" d="M198.1,264.84a9.84,9.84,0,1,1-1-.45A10.2,10.2,0,0,1,198.1,264.84Z"/><path class="cls-7" d="M197.08,264.39a9.42,9.42,0,0,1-1,2.93,9.83,9.83,0,0,1-12.2,4.71,9.81,9.81,0,0,1,13.16-7.64Z"/><path class="cls-4" d="M199,242.46a9.82,9.82,0,1,1-14.19,7.19,10.13,10.13,0,0,1,1-2.94A9.81,9.81,0,0,1,198,242,10.37,10.37,0,0,1,199,242.46Z"/><path class="cls-7" d="M198,242a9.66,9.66,0,0,1-.95,2.93,9.83,9.83,0,0,1-12.21,4.71,10.13,10.13,0,0,1,1-2.94A9.81,9.81,0,0,1,198,242Z"/><path class="cls-4" d="M200,219.47a9.82,9.82,0,1,1-14.18,7.19,9.39,9.39,0,0,1,1-2.94A9.81,9.81,0,0,1,199,219,10.37,10.37,0,0,1,200,219.47Z"/><path class="cls-7" d="M199,219a9.34,9.34,0,0,1-1,2.92,9.83,9.83,0,0,1-12.2,4.72,9.39,9.39,0,0,1,1-2.94A9.81,9.81,0,0,1,199,219Z"/><path class="cls-8" d="M196.53,298.45a4.34,4.34,0,0,1-3.61,2.35l-29.71,1.76a4.34,4.34,0,1,1-.51-8.67l29.7-1.76a4.34,4.34,0,0,1,4.6,4.08A4.45,4.45,0,0,1,196.53,298.45Z"/><path class="cls-8" d="M197.48,275.56a4.37,4.37,0,0,1-3.61,2.36l-29.7,1.76a4.35,4.35,0,1,1-.52-8.68l29.71-1.76a4.35,4.35,0,0,1,4.59,4.08A4.23,4.23,0,0,1,197.48,275.56Z"/><path class="cls-8" d="M198.42,253.18a4.34,4.34,0,0,1-3.61,2.35l-29.71,1.76a4.34,4.34,0,1,1-.51-8.67l29.7-1.76a4.35,4.35,0,0,1,4.6,4.08A4.45,4.45,0,0,1,198.42,253.18Z"/><path class="cls-8" d="M199.37,230.19a4.34,4.34,0,0,1-3.61,2.35l-29.7,1.76a4.34,4.34,0,1,1-.52-8.67l29.71-1.76a4.33,4.33,0,0,1,4.59,4.08A4.25,4.25,0,0,1,199.37,230.19Z"/><path class="cls-8" d="M162.72,227.1a3.81,3.81,0,0,1,1.44,4.49h0c-.2.52-4.89,12.82-15.12,16.1-10.93,3.51-20.89.81-23.17-6.27s4.25-15.09,15.18-18.6c10.22-3.29,21.2,4,21.67,4.28Zm-29.61,12c.67,2.07,6.43,3.67,13.6,1.36a13.47,13.47,0,0,0,5.88-4.19,3.82,3.82,0,0,0-2-6.22,13.61,13.61,0,0,0-7.22,0C136.2,232.36,132.45,237,133.11,239.09Z"/><path class="cls-8" d="M167.21,225.65a3.8,3.8,0,0,1-4.49,1.44h0c-.52-.19-12.81-4.89-16.1-15.12-3.51-10.93-.81-20.89,6.28-23.16S168,193.05,171.49,204c3.29,10.23-4,21.21-4.28,21.67Zm-12-29.6c-2.07.66-3.66,6.42-1.36,13.6a13.59,13.59,0,0,0,4.19,5.88,3.82,3.82,0,0,0,6.22-2,13.41,13.41,0,0,0,0-7.22C162,199.13,157.29,195.38,155.22,196.05Z"/><path class="cls-2" d="M286.56,453.12h21.93a0,0,0,0,1,0,0v11a11,11,0,0,1-11,11h0a11,11,0,0,1-11-11v-11A0,0,0,0,1,286.56,453.12Z" transform="translate(-251.23 516.7) rotate(-62.81)"/><path class="cls-2" d="M312.21,414.12h21.93a0,0,0,0,1,0,0v11a11,11,0,0,1-11,11h0a11,11,0,0,1-11-11v-11A0,0,0,0,1,312.21,414.12Z" transform="translate(-202.6 518.34) rotate(-62.81)"/><path class="cls-2" d="M336.22,377.62h21.93a0,0,0,0,1,0,0v11a11,11,0,0,1-11,11h0a11,11,0,0,1-11-11v-11A0,0,0,0,1,336.22,377.62Z" transform="translate(-157.09 519.87) rotate(-62.81)"/><path class="cls-2" d="M405.6,250.19h21.93a0,0,0,0,1,0,0v11a11,11,0,0,1-11,11h0a11,11,0,0,1-11-11v-11a0,0,0,0,1,0,0Z" transform="translate(-6.07 512.37) rotate(-62.81)"/><path class="cls-2" d="M420.92,220.35h21.93a0,0,0,0,1,0,0v11a11,11,0,0,1-11,11h0a11,11,0,0,1-11-11v-11a0,0,0,0,1,0,0Z" transform="translate(28.8 509.8) rotate(-62.81)"/><path class="cls-9" d="M412.39,170.62a34.12,34.12,0,0,1,14.76,45.93L401.8,265.9a22.72,22.72,0,0,1-12.34,10.94,28.76,28.76,0,0,0-18.55,23.26,201.47,201.47,0,0,1-20.58,66L282.76,468.83a31.72,31.72,0,0,1-41,10.79c-19.18-12.33-22.83-40.91-9-58.83a94.46,94.46,0,0,0,17.09-38.48c5.65-24,6.43-106.41,8.15-132.1A46.6,46.6,0,0,1,282.71,213a109.67,109.67,0,0,0,23.56-16c13.39-12.11,26.2-28,25.46-47A12.56,12.56,0,0,1,350,138.6l18.88,9.69Z"/><path class="cls-4" d="M412.39,170.62a34.12,34.12,0,0,1,14.76,45.93L401.8,265.9a22.72,22.72,0,0,1-12.34,10.94,28.76,28.76,0,0,0-18.55,23.26,201.47,201.47,0,0,1-20.58,66L282.76,468.83a31.72,31.72,0,0,1-41,10.79,191.43,191.43,0,0,0,46.89-50.45l42.69-66.89q9.72-15.22,17.9-31.37l41.9-82.55a199.62,199.62,0,0,0,21.25-77.74Z"/><path class="cls-10" d="M350,138.6l18.88,9.69c-5.43,35.48-6.41,65.05-32,93.27A198.71,198.71,0,0,0,292,328.13c-15.74,68.74-16.67,80.64-63.81,135.45a42.39,42.39,0,0,1,4.59-42.79,94.46,94.46,0,0,0,17.09-38.48A240.37,240.37,0,0,0,254,347l4-96.79A46.6,46.6,0,0,1,282.71,213a109.67,109.67,0,0,0,23.56-16c13.39-12.11,26.2-28,25.46-47A12.56,12.56,0,0,1,350,138.6Z"/><path class="cls-2" d="M350,138.6l-5,25.13a58.25,58.25,0,0,1-14.66,28.55c-21,23.82-40.86,38.9-71,49.8h0A46.63,46.63,0,0,1,282.71,213a109.67,109.67,0,0,0,23.56-16,107.18,107.18,0,0,0,17.2-19.53A47.28,47.28,0,0,0,331.73,150,12.56,12.56,0,0,1,350,138.6Z"/><path class="cls-6" d="M395.06,161.72h0l-23.88,55a39.28,39.28,0,0,0-2.64,22.5l7.08,39.73L362,305.8l-16.69-52.27a60.54,60.54,0,0,1-1.31-32l17.8-76.88,7.11,3.64Z"/><path class="cls-2" d="M361.8,144.65l7.11,3.64c-5,32.72-6.22,60.42-26.46,86.67A60.88,60.88,0,0,1,344,221.53Z"/><path class="cls-4" d="M288.55,326.75a9.84,9.84,0,1,1-1-.45Q288,326.5,288.55,326.75Z"/><path class="cls-7" d="M287.53,326.3a10.13,10.13,0,0,1-1,2.94,9.84,9.84,0,0,1-12.2,4.7,9.81,9.81,0,0,1,13.16-7.64Z"/><path class="cls-4" d="M289.51,303.87a9.82,9.82,0,1,1-14.18,7.19,9.39,9.39,0,0,1,1-2.94,9.8,9.8,0,0,1,12.19-4.7A10.37,10.37,0,0,1,289.51,303.87Z"/><path class="cls-7" d="M288.48,303.42a9.39,9.39,0,0,1-1,2.93,9.83,9.83,0,0,1-12.2,4.71,9.39,9.39,0,0,1,1-2.94A9.8,9.8,0,0,1,288.48,303.42Z"/><path class="cls-4" d="M290.44,281.49a9.82,9.82,0,1,1-14.18,7.18,9.69,9.69,0,0,1,1-2.93,9.82,9.82,0,0,1,12.2-4.71A9.16,9.16,0,0,1,290.44,281.49Z"/><path class="cls-7" d="M289.42,281a9.33,9.33,0,0,1-1,2.93,9.81,9.81,0,0,1-12.2,4.71,9.69,9.69,0,0,1,1-2.93A9.82,9.82,0,0,1,289.42,281Z"/><path class="cls-4" d="M291.4,258.49a9.82,9.82,0,1,1-14.19,7.19,10.13,10.13,0,0,1,1-2.94,9.83,9.83,0,0,1,12.2-4.7A10.37,10.37,0,0,1,291.4,258.49Z"/><path class="cls-7" d="M290.37,258a10,10,0,0,1-.95,2.93,9.84,9.84,0,0,1-12.21,4.71,10.13,10.13,0,0,1,1-2.94A9.83,9.83,0,0,1,290.37,258Z"/><path class="cls-8" d="M287.93,337.47a4.37,4.37,0,0,1-3.61,2.36l-29.7,1.76a4.35,4.35,0,0,1-.52-8.68l29.71-1.76a4.35,4.35,0,0,1,4.59,4.08A4.23,4.23,0,0,1,287.93,337.47Z"/><path class="cls-8" d="M288.89,314.59a4.34,4.34,0,0,1-3.61,2.35l-29.71,1.76a4.34,4.34,0,0,1-.51-8.67l29.71-1.76a4.35,4.35,0,0,1,4.12,6.32Z"/><path class="cls-8" d="M289.82,292.2a4.37,4.37,0,0,1-3.61,2.36l-29.7,1.76a4.35,4.35,0,0,1-.52-8.68l29.71-1.76a4.35,4.35,0,0,1,4.12,6.32Z"/><path class="cls-8" d="M290.78,269.21a4.37,4.37,0,0,1-3.61,2.36l-29.71,1.76a4.35,4.35,0,0,1-.51-8.68l29.7-1.76a4.35,4.35,0,0,1,4.13,6.32Z"/><path class="cls-8" d="M254.12,266.13a3.79,3.79,0,0,1,1.44,4.48h0c-.19.53-4.89,12.82-15.11,16.11-10.93,3.51-20.89.81-23.17-6.28s4.25-15.08,15.17-18.59c10.23-3.29,21.21,4,21.67,4.28Zm-29.6,12c.66,2.07,6.43,3.67,13.6,1.37a13.55,13.55,0,0,0,5.88-4.2,3.81,3.81,0,0,0-2-6.21,13.51,13.51,0,0,0-7.22,0C227.61,271.39,223.85,276.05,224.52,278.11Z"/><path class="cls-8" d="M258.62,264.67a3.81,3.81,0,0,1-4.49,1.45h0c-.52-.2-12.82-4.9-16.1-15.12-3.51-10.93-.82-20.89,6.27-23.17s15.09,4.25,18.6,15.18c3.28,10.22-4,21.2-4.28,21.66Zm-12-29.6c-2.07.66-3.67,6.43-1.36,13.6a13.39,13.39,0,0,0,4.19,5.88,3.82,3.82,0,0,0,6.22-2,13.61,13.61,0,0,0,0-7.22C253.35,238.16,248.7,234.41,246.63,235.07Z"/><path class="cls-8" d="M259.14,246.51a3.5,3.5,0,0,1-3.39-2.67L208.11,48.42a3.13,3.13,0,0,0-3.17-2.54h0a3.1,3.1,0,0,0-3.15,2.44l-29.46,159a3.5,3.5,0,0,1-6.89-1.27L195,46.8a10.07,10.07,0,0,1,10-7.92h0a10.07,10.07,0,0,1,10,7.92l47.63,195.38a3.51,3.51,0,0,1-2.57,4.23A3.44,3.44,0,0,1,259.14,246.51Z"/><path class="cls-4" d="M214.12,53.44a8.89,8.89,0,1,1-12.36-8.17,8.72,8.72,0,0,1,3.47-.71A8.88,8.88,0,0,1,214.12,53.44Z"/><path class="cls-11" d="M214.12,53.44a8.83,8.83,0,0,1-.94,4,8.76,8.76,0,0,1-3.48.71,8.87,8.87,0,0,1-7.94-12.85,8.72,8.72,0,0,1,3.47-.71A8.88,8.88,0,0,1,214.12,53.44Z"/></svg>