<svg id="_50" data-name="50" xmlns="http://www.w3.org/2000/svg" viewBox="0 0 512 512"><defs><style>.cls-1{fill:#efb732;}.cls-2{fill:#53b976;}.cls-3{fill:#c1b7d3;}.cls-4{fill:#f4e6f4;}.cls-5{fill:#746087;}.cls-6{fill:#c2aacf;}.cls-7{fill:#3e4e60;}.cls-8{fill:#3f6c8e;}.cls-9{fill:#fff;}.cls-10{fill:#f4829b;}.cls-11{fill:#f9f2f9;}.cls-12{fill:#9175a7;}.cls-13{fill:#ee6781;}</style></defs><title>50-soccer-icons</title><circle class="cls-1" cx="256" cy="256" r="256"/><path class="cls-2" d="M479.25,381.37a256.08,256.08,0,0,1-446.5,0Z"/><circle class="cls-3" cx="260.43" cy="354.18" r="129.53"/><path class="cls-4" d="M360,271.32a129.24,129.24,0,0,0-99.57-46.67c-4,0-7.94.17-11.83.53a129.35,129.35,0,0,0-19.68,30.45h0A129.49,129.49,0,0,0,346.54,439.48q6,0,11.84-.53a131,131,0,0,0,13.52-18.74,128.76,128.76,0,0,0,15.33-39.42A130.33,130.33,0,0,0,390,354.18,129,129,0,0,0,360,271.32Z"/><path class="cls-5" d="M260.43,234.5a119.69,119.69,0,1,1-84.62,35.06,118.88,118.88,0,0,1,84.62-35.06Zm0-9.85A129.53,129.53,0,1,0,390,354.18,129.53,129.53,0,0,0,260.43,224.65Z"/><path class="cls-6" d="M389.87,349.17a128.88,128.88,0,0,0-13.37-52.56C353,249,301.48,220.1,248.59,225.18a130.94,130.94,0,0,0-8.57,11c115.37-18.47,186.37,120.26,104.39,203.23,3.28-3.33,9.38-.09,14-.51A129.41,129.41,0,0,0,389.87,349.17Z"/><path class="cls-5" d="M205.5,347.76a5.43,5.43,0,0,1-1.72-.28l-21.26-7A5.54,5.54,0,0,1,186,330L207.23,337a5.54,5.54,0,0,1-1.73,10.81Z"/><path class="cls-6" d="M260.4,307.78a5.55,5.55,0,0,1-5.54-5.54V275.67a5.54,5.54,0,1,1,11.08,0v26.57A5.55,5.55,0,0,1,260.4,307.78Z"/><path class="cls-6" d="M315.34,347.67a5.54,5.54,0,0,1-1.65-10.83L335,330.19a5.54,5.54,0,1,1,3.3,10.58L317,347.42A5.6,5.6,0,0,1,315.34,347.67Z"/><path class="cls-6" d="M303.49,425.39A5.54,5.54,0,0,1,299,423l-9.19-13.13a5.54,5.54,0,1,1,9.08-6.35L308,416.67a5.55,5.55,0,0,1-4.54,8.72Z"/><path class="cls-5" d="M217,425.14a5.55,5.55,0,0,1-4.42-8.89l9.69-12.79a5.54,5.54,0,0,1,8.84,6.69l-9.69,12.79A5.54,5.54,0,0,1,217,425.14Z"/><path class="cls-7" d="M243.43,482.61a129.62,129.62,0,0,1-94.23-62l60.86-2.81a12.08,12.08,0,0,1,11.88,7.82Z"/><path class="cls-7" d="M180.27,341.72,133.69,381a129.68,129.68,0,0,1,27-109.5l23,56.41A12.1,12.1,0,0,1,180.27,341.72Z"/><path class="cls-7" d="M390,354.18a130.33,130.33,0,0,1-2.74,26.61l-46.65-39.2a12.1,12.1,0,0,1-3.43-13.81L360,271.32A129,129,0,0,1,390,354.18Z"/><path class="cls-8" d="M390,354.18a130.33,130.33,0,0,1-2.74,26.61l-46.65-39.2a12.1,12.1,0,0,1-3.43-13.81L360,271.32A129,129,0,0,1,390,354.18Z"/><path class="cls-7" d="M253.32,304.55l-43.39,31.52a12.11,12.11,0,0,0-4.4,13.54l16.58,51A12.09,12.09,0,0,0,233.62,409h53.63a12.09,12.09,0,0,0,11.51-8.36l16.58-51a12.12,12.12,0,0,0-4.4-13.54l-43.39-31.52A12.11,12.11,0,0,0,253.32,304.55Z"/><path class="cls-8" d="M315.34,349.61l-16.58,51A12.1,12.1,0,0,1,287.25,409h-24.2a129.38,129.38,0,0,1-44.53-79.15l34.8-25.29a12.11,12.11,0,0,1,14.23,0l43.39,31.54A12.1,12.1,0,0,1,315.34,349.61Z"/><path class="cls-7" d="M371.9,420.21A131,131,0,0,1,358.38,439a129.33,129.33,0,0,1-80.49,43.6l19.63-52.67,1.65-4.41A12.1,12.1,0,0,1,311,417.6Z"/><path class="cls-8" d="M371.9,420.21A131,131,0,0,1,358.38,439q-5.85.53-11.84.53a129.35,129.35,0,0,1-49-9.6l1.65-4.41A12.08,12.08,0,0,1,311,417.61Z"/><path class="cls-7" d="M316.84,237.54l-49.29,35.82a12.11,12.11,0,0,1-14.23,0l-24.4-17.73h0L204,237.54a128.74,128.74,0,0,1,44.57-12.36c3.89-.36,7.85-.53,11.83-.53A129,129,0,0,1,316.84,237.54Z"/><path class="cls-8" d="M316.84,237.54l-49.29,35.82a12.1,12.1,0,0,1-14.23,0l-24.4-17.73h0a129.35,129.35,0,0,1,19.68-30.45c3.89-.36,7.85-.53,11.83-.53A129,129,0,0,1,316.84,237.54Z"/><circle class="cls-9" cx="309.8" cy="286.49" r="26.48"/><path class="cls-10" d="M104.43,285.13h21.93a0,0,0,0,1,0,0v11a11,11,0,0,1-11,11h0a11,11,0,0,1-11-11v-11a0,0,0,0,1,0,0Z" transform="translate(-72.7 39.96) rotate(-15)"/><path class="cls-10" d="M150.56,277.94h21.93a0,0,0,0,1,0,0v11a11,11,0,0,1-11,11h0a11,11,0,0,1-11-11v-11A0,0,0,0,1,150.56,277.94Z" transform="translate(-69.27 51.65) rotate(-15)"/><path class="cls-10" d="M193.73,271.22h21.93a0,0,0,0,1,0,0v11a11,11,0,0,1-11,11h0a11,11,0,0,1-11-11v-11A0,0,0,0,1,193.73,271.22Z" transform="matrix(0.97, -0.26, 0.26, 0.97, -66.06, 62.59)"/><path class="cls-10" d="M334.73,237.05h21.93a0,0,0,0,1,0,0v11a11,11,0,0,1-11,11h0a11,11,0,0,1-11-11v-11A0,0,0,0,1,334.73,237.05Z" transform="matrix(0.97, -0.26, 0.26, 0.97, -52.41, 97.92)"/><path class="cls-10" d="M367.14,228.37h21.93a0,0,0,0,1,0,0v11a11,11,0,0,1-11,11h0a11,11,0,0,1-11-11v-11a0,0,0,0,1,0,0Z" transform="translate(-49.06 106.01) rotate(-15)"/><path class="cls-7" d="M382.25,118.22,337.4,134.27a41.6,41.6,0,0,1-32-1.65l-38-18.23A141.56,141.56,0,0,0,255.68,58L231,1.21Q243.35,0,256,0A254.81,254.81,0,0,1,367.45,25.48l.1,2A416.64,416.64,0,0,0,382.25,118.22Z"/><path class="cls-11" d="M410,184.13a34.1,34.1,0,0,1-24.13,41.77l-53.58,14.36a22.77,22.77,0,0,1-16.4-1.79,28.77,28.77,0,0,0-29.69,1.87,201.76,201.76,0,0,1-62.72,29.08L102,288.34A31.72,31.72,0,0,1,66.44,265.2c-3.75-22.48,15-44.39,37.53-46.18a94.4,94.4,0,0,0,40-13.18c21.55-11.9,83.17-66.69,103.36-82.67a46.63,46.63,0,0,1,44.18-6.68,109.58,109.58,0,0,0,27.65,6.74c18,1.78,38.32.63,51.94-12.73a12.57,12.57,0,0,1,20.74,5.91l5.49,20.5Z"/><path class="cls-12" d="M410,184.13a34.1,34.1,0,0,1-24.13,41.77l-53.58,14.36a22.77,22.77,0,0,1-16.4-1.79,28.75,28.75,0,0,0-29.69,1.87,201.76,201.76,0,0,1-62.72,29.08L102,288.34A31.72,31.72,0,0,1,66.44,265.2a191.37,191.37,0,0,0,68.87.87l78.22-13.29q17.82-3,35.27-7.8l89.31-24.39A199.93,199.93,0,0,0,375.9,206,200.37,200.37,0,0,0,410,184.13Z"/><path class="cls-9" d="M391.83,116.41l5.49,20.5c-29.93,19.8-52.5,38.94-90.58,38.94a198.74,198.74,0,0,0-94.33,24.82c-61.51,34.5-70.95,41.8-143.22,43.69A42.41,42.41,0,0,1,104,219a94.4,94.4,0,0,0,40-13.18,239.63,239.63,0,0,0,28.94-20.66l74.42-62a46.63,46.63,0,0,1,44.18-6.68,109.58,109.58,0,0,0,27.65,6.74c18,1.79,38.32.63,51.94-12.73A12.57,12.57,0,0,1,391.83,116.41Z"/><path class="cls-10" d="M391.83,116.41l-22,13.19a58.33,58.33,0,0,1-31,8.31c-31.77.41-56.26-4.15-84.55-19.14h0a46.64,46.64,0,0,1,37.19-2.27,109.58,109.58,0,0,0,27.65,6.74,107.32,107.32,0,0,0,26-.37,47.18,47.18,0,0,0,25.93-12.36A12.57,12.57,0,0,1,391.83,116.41Z"/><path class="cls-13" d="M404.94,165.3h0l-56.78,19.23a39.25,39.25,0,0,0-18.44,13.15L305,229.62l-29,7.94L303.5,190.1a60.47,60.47,0,0,1,22.84-22.46l68.91-38.44,2.07,7.71Z"/><path class="cls-10" d="M395.25,129.2l2.07,7.71c-27.61,18.26-48.94,36-82,38.6a60.48,60.48,0,0,1,11-7.87Z"/><path class="cls-12" d="M211.13,197.21a9.82,9.82,0,1,1-.35-1.06C210.91,196.5,211,196.85,211.13,197.21Z"/><path class="cls-6" d="M210.78,196.15a9.83,9.83,0,0,1-14.5-4.62,9.82,9.82,0,0,1,14.5,4.62Z"/><path class="cls-12" d="M228.73,182.56a9.82,9.82,0,1,1-14.85-5.68,9.63,9.63,0,0,1,2.82-1.27,9.83,9.83,0,0,1,11.67,5.88A9.6,9.6,0,0,1,228.73,182.56Z"/><path class="cls-6" d="M228.37,181.49a9.06,9.06,0,0,1-2.81,1.26,9.83,9.83,0,0,1-11.68-5.87,9.63,9.63,0,0,1,2.82-1.27A9.83,9.83,0,0,1,228.37,181.49Z"/><path class="cls-12" d="M245.94,168.22a9.88,9.88,0,1,1-.36-1.07A9.6,9.6,0,0,1,245.94,168.22Z"/><path class="cls-6" d="M245.58,167.15a9,9,0,0,1-2.81,1.26,9.81,9.81,0,0,1-11.68-5.87,9.78,9.78,0,0,1,14.49,4.61Z"/><path class="cls-12" d="M263.61,153.48a9.82,9.82,0,1,1-.35-1.06A8.22,8.22,0,0,1,263.61,153.48Z"/><path class="cls-6" d="M263.26,152.42a9.8,9.8,0,0,1-14.49-4.62,9.81,9.81,0,0,1,14.49,4.62Z"/><path class="cls-4" d="M202.77,204a4.32,4.32,0,0,1-4.17-1.09L177.35,182a4.34,4.34,0,1,1,6.08-6.2l21.25,20.83a4.33,4.33,0,0,1,.07,6.14A4.26,4.26,0,0,1,202.77,204Z"/><path class="cls-4" d="M220.37,189.3a4.35,4.35,0,0,1-4.17-1.1L195,167.37a4.34,4.34,0,0,1,6.08-6.2L222.28,182a4.34,4.34,0,0,1-1.91,7.3Z"/><path class="cls-4" d="M237.58,175a4.32,4.32,0,0,1-4.17-1.09L212.16,153a4.34,4.34,0,1,1,6.08-6.2l21.25,20.82a4.33,4.33,0,0,1-1.91,7.3Z"/><path class="cls-4" d="M255.26,160.22a4.32,4.32,0,0,1-4.17-1.09L229.84,138.3a4.34,4.34,0,0,1,6.08-6.2l21.25,20.82a4.35,4.35,0,0,1,.06,6.15A4.27,4.27,0,0,1,255.26,160.22Z"/><path class="cls-4" d="M232.93,131a3.8,3.8,0,0,1-2.36,4.08h0c-.52.21-12.78,5-22.08-.38-9.94-5.74-14.63-14.94-10.91-21.38s14-7,24-1.25c9.3,5.37,11.3,18.38,11.38,18.93Zm-28.76-13.88c-1.09,1.88,1.6,7.22,8.12,11a13.58,13.58,0,0,0,7.05,1.54,3.82,3.82,0,0,0,3.27-5.65,13.51,13.51,0,0,0-4.86-5.34C211.22,114.88,205.25,115.23,204.17,117.11Z"/><path class="cls-4" d="M237,133.35a3.82,3.82,0,0,1-4.08-2.36h0c-.21-.52-5-12.78.39-22.08,5.74-10,14.93-14.64,21.38-10.91s7,14,1.24,24c-5.37,9.3-18.38,11.3-18.93,11.38Zm13.89-28.77c-1.88-1.08-7.23,1.6-11,8.13a13.54,13.54,0,0,0-1.54,7.05A3.82,3.82,0,0,0,244,123a13.64,13.64,0,0,0,5.34-4.86C253.13,111.64,252.79,105.67,250.91,104.58Z"/></svg>