<svg id="_50" data-name="50" xmlns="http://www.w3.org/2000/svg" viewBox="0 0 512 512"><defs><style>.cls-1{fill:#53b976;}.cls-2{fill:#6052a3;}.cls-3{fill:#7063ce;}.cls-4{fill:#ea792e;}.cls-5{fill:#dd5e26;}.cls-6{fill:#f5b890;}.cls-7{fill:#d48d77;}.cls-8{fill:#f4829b;}.cls-9{fill:#f9f2f9;}.cls-10{fill:#9175a7;}.cls-11{fill:#fff;}.cls-12{fill:#c2aacf;}.cls-13{fill:#f9c744;}.cls-14{fill:#c17e62;}.cls-15{fill:#b26e2b;}.cls-16{fill:#eea47d;}.cls-17{fill:#334353;}.cls-18{fill:#dd8c29;}.cls-19{fill:#c1b7d3;}.cls-20{fill:#f4e6f4;}.cls-21{fill:#746087;}.cls-22{fill:#3e4e60;}.cls-23{fill:#3f6c8e;}.cls-24{fill:#9acdae;}</style></defs><title>50-soccer-icons</title><circle class="cls-1" cx="256" cy="256" r="256"/><path class="cls-2" d="M339.82,296.11v20.66a15.4,15.4,0,0,1-15.39,15.39H259.56a15.39,15.39,0,0,1-15.39-15.39V296.11Z"/><path class="cls-3" d="M317.05,296.11v36.05H259.56a15.39,15.39,0,0,1-15.39-15.39V296.11Z"/><path class="cls-4" d="M335.77,356.23l45,45A16.68,16.68,0,0,1,383,422.06a16.93,16.93,0,0,1-2.22,2.75,16.7,16.7,0,0,1-23.6,0l-45-45a16.68,16.68,0,0,1,0-23.6,16.62,16.62,0,0,1,11.8-4.89A16.64,16.64,0,0,1,335.77,356.23Z"/><path class="cls-5" d="M335.77,356.23l45,45A16.68,16.68,0,0,1,383,422.06L314.91,354a16.69,16.69,0,0,1,20.86,2.22Z"/><path class="cls-6" d="M339.52,319.13v47.78a16.67,16.67,0,0,1-13.17,16.32,16.92,16.92,0,0,1-3.51.37,16.69,16.69,0,0,1-16.69-16.69V319.13a16.7,16.7,0,0,1,16.69-16.7,16.92,16.92,0,0,1,3.51.37,16.69,16.69,0,0,1,13.17,16.33Z"/><path class="cls-7" d="M339.52,319.13v47.78a16.67,16.67,0,0,1-13.17,16.32V302.8a16.69,16.69,0,0,1,13.17,16.33Z"/><path class="cls-8" d="M348.92,484.45a3.1,3.1,0,0,1-4.38.19l-2.29-2.09,4.18-4.58,2.29,2.09A3.11,3.11,0,0,1,348.92,484.45Z"/><path class="cls-8" d="M358.82,475.7a3.09,3.09,0,0,1-4.38.2l-2.3-2.09,4.19-4.58,2.29,2.09A3.11,3.11,0,0,1,358.82,475.7Z"/><path class="cls-8" d="M368.08,467.52a3.11,3.11,0,0,1-4.38.2l-2.29-2.09,4.18-4.59,2.29,2.1A3.09,3.09,0,0,1,368.08,467.52Z"/><path class="cls-8" d="M396.48,437.88a3.09,3.09,0,0,1-4.38.2L389.81,436l4.18-4.58,2.29,2.09A3.1,3.1,0,0,1,396.48,437.88Z"/><path class="cls-8" d="M402.88,430.87a3.09,3.09,0,0,1-4.38.2L396.21,429l4.18-4.58,2.29,2.09A3.1,3.1,0,0,1,402.88,430.87Z"/><path class="cls-9" d="M380.36,400.94a7.46,7.46,0,0,1,9.34.6l10.2,9.34a9.65,9.65,0,0,1,.59,13.63l-10.6,11.58a6.47,6.47,0,0,1-4.19,2.06,8.14,8.14,0,0,0-6.8,5,57.26,57.26,0,0,1-10.54,16.48l-26.11,23a9,9,0,0,1-12-.12c-4.31-4.79-3.17-12.87,1.94-16.72a26.74,26.74,0,0,0,7.53-9.23c3-5.52,8.51-24.38,11.3-33a7.48,7.48,0,0,1,2.8-3.81Z"/><path class="cls-10" d="M399.9,410.88a9.65,9.65,0,0,1,.59,13.63l-10.6,11.58a6.47,6.47,0,0,1-4.19,2.06,8.14,8.14,0,0,0-6.8,5,57.26,57.26,0,0,1-10.54,16.48l-26.11,23a9,9,0,0,1-12-.12,54.24,54.24,0,0,0,16.57-10.26l16.64-15.07a100.5,100.5,0,0,0,7.23-7.22l17.6-19.4a56.74,56.74,0,0,0,11.61-19.62Z"/><path class="cls-11" d="M389.69,401.54c-2.28,5.08-4.2,10.37-7.31,14.94A28.46,28.46,0,0,1,374,424.6c-25.3,16.8-17.82,35.64-46.26,52.46a12,12,0,0,1,4.44-11.33,26.8,26.8,0,0,0,7.55-9.23c3.28-6.05,9-26.27,11.32-33.05a7.5,7.5,0,0,1,2.81-3.83l26.5-18.68A7.46,7.46,0,0,1,389.69,401.54Z"/><path class="cls-12" d="M351.65,427.7c-1-5.82-4.64-9.7-8.41-9s-5.84,5.55-4.81,11.36a12,12,0,0,0,4.22,6.75l0,.05a12.08,12.08,0,0,0-7.79-1.66c-5.81,1-9.69,4.64-9,8.41s5.55,5.84,11.37,4.82c4-.71,6.83-4.13,8.09-6a4.38,4.38,0,0,0,.52,0h11.4a3.71,3.71,0,0,0,0-7.41h-7A11.74,11.74,0,0,0,351.65,427.7Zm-11.88,15.12a6.91,6.91,0,0,1-3.28,1.73c-3.82.67-6.64-.55-6.84-1.65-.18-2.17,6-5.17,9.54-3.39A2,2,0,0,1,339.77,442.82Zm7.54-10.76a2,2,0,0,1-3.31.58,6.93,6.93,0,0,1-1.72-3.29c-.68-3.81.54-6.64,1.64-6.83C346.1,422.34,349.09,428.54,347.31,432.06Z"/><path class="cls-2" d="M349.5,329.09v5.44a7.41,7.41,0,0,1-7.41,7.41H303.58a7.4,7.4,0,0,1-7.4-7.41v-5.44a27.4,27.4,0,0,1,20.87-26.59,25.13,25.13,0,0,1,5.79-.67,26.2,26.2,0,0,1,18.85,8.11A27.57,27.57,0,0,1,349.5,329.09Z"/><path class="cls-3" d="M317.05,302.5v39.44H303.58a7.4,7.4,0,0,1-7.4-7.41v-5.44A27.4,27.4,0,0,1,317.05,302.5Z"/><path class="cls-5" d="M339.82,296.11V206.05a35.6,35.6,0,0,0-35.59-35.61H279.76a35.6,35.6,0,0,0-35.6,35.61v90.06Z"/><path class="cls-4" d="M244.16,296.11V206.05a35.6,35.6,0,0,1,35.6-35.61h1.68a35.61,35.61,0,0,1,35.61,35.61v90.06Z"/><path class="cls-13" d="M314.33,230l-5.11,3.77a6.68,6.68,0,0,1-8,0L296.16,230a6.71,6.71,0,0,1-2.72-5.39V208.8a4.37,4.37,0,0,1,4.38-4.37h14.85a4.37,4.37,0,0,1,4.38,4.37v15.85A6.71,6.71,0,0,1,314.33,230Z"/><path class="cls-5" d="M322,197.27A11.46,11.46,0,0,1,332,184.14c31.7-3.81,50.64-.92,60.88,9.31,19.2,20.06.32,49.11-15.67,74.93l-7.52-4.71-14.59-9.14c6.62-10.59,13.41-21.67,17.1-30.67a43.43,43.43,0,0,0,2.15-6.5,6.1,6.1,0,0,0-4.42-7.3c-5.35-1.4-16.37-2.46-38.44.46a7.43,7.43,0,0,1-8.33-6.22l-1.09-7Z"/><path class="cls-4" d="M323.11,204.29a7.43,7.43,0,0,1,5.95-8.44c29.36-5.6,46.6-4.18,55.35,4.56,14.85,15.62.42,40.16-14.77,63.26l-14.59-9.14c6.62-10.59,13.41-21.67,17.1-30.67a43.43,43.43,0,0,0,2.15-6.5,6.1,6.1,0,0,0-4.42-7.3c-5.35-1.4-16.38-2.46-38.46.46a7.43,7.43,0,0,1-8.31-6.23Z"/><path class="cls-6" d="M354.78,250.54l-16.17,16.17a5.8,5.8,0,0,0,0,8.21l2.18,2.17a5.8,5.8,0,0,0,8.21,0l5.78-5.78v25.27a3.83,3.83,0,0,0,3.83,3.83h2a3.84,3.84,0,0,0,3.84-3.83v5.47a3.83,3.83,0,0,0,3.83,3.83h2a3.84,3.84,0,0,0,3.83-3.83V296a3.84,3.84,0,0,0,3.84,3.83h2A3.84,3.84,0,0,0,383.9,296V284.83a3.85,3.85,0,0,0,3.84,3.84h2a3.85,3.85,0,0,0,3.84-3.84V260.24a13.36,13.36,0,0,0-3.93-9.47c-.1-.11-.22-.22-.33-.32a13.27,13.27,0,0,0-9.13-3.6H363.65a12.56,12.56,0,0,0-8.87,3.67Z"/><path class="cls-7" d="M362.45,277.38v19.19a3.84,3.84,0,0,1-3.83,3.84h2a3.84,3.84,0,0,0,3.84-3.83V275.34S362.45,276.25,362.45,277.38Z"/><path class="cls-7" d="M381.86,276.79V296a3.83,3.83,0,0,1-3.83,3.84h2A3.84,3.84,0,0,0,383.9,296V274.76S381.86,275.67,381.86,276.79Z"/><path class="cls-7" d="M372.16,279.49v22.56a3.84,3.84,0,0,1-3.84,3.83h2a3.82,3.82,0,0,0,3.83-3.83V277.46S372.16,278.37,372.16,279.49Z"/><path class="cls-7" d="M349,277.1l5.78-5.79v-4.39l-8,8a5.77,5.77,0,0,1-8.17,0l2.18,2.18A5.82,5.82,0,0,0,349,277.1Z"/><path class="cls-7" d="M380.23,246.87a13.28,13.28,0,0,1,8.94,3.43l.09.07.11.1h0a13.33,13.33,0,0,1,4.26,9.78v24.59a3.83,3.83,0,0,1-3.83,3.84h-2a3.84,3.84,0,0,0,3.84-3.84V262.6c.08-4.06-2.95-8.67-6.76-10.42a8.12,8.12,0,0,1-4.44-4.82Z"/><path class="cls-6" d="M276.19,155.5v17.16a15.81,15.81,0,1,0,31.61,0V155.5Z"/><path class="cls-7" d="M307.8,155.5v17.16A15.79,15.79,0,0,1,300,186.28V167.93a46.23,46.23,0,0,1-17.88,3.57,48.48,48.48,0,0,1-5.95-.38V155.5Z"/><path class="cls-7" d="M340.91,79.41h7.84a0,0,0,0,1,0,0v24.53a0,0,0,0,1,0,0h-7.84a12.26,12.26,0,0,1-12.26-12.26v0A12.26,12.26,0,0,1,340.91,79.41Z" transform="translate(677.39 183.36) rotate(-180)"/><path class="cls-14" d="M333.9,86.42h8.23a0,0,0,0,1,0,0V96.94a0,0,0,0,1,0,0H333.9a5.26,5.26,0,0,1-5.26-5.26v0a5.26,5.26,0,0,1,5.26-5.26Z" transform="translate(670.78 183.36) rotate(180)"/><path class="cls-7" d="M232.21,79.41h3.43a0,0,0,0,1,0,0v24.53a0,0,0,0,1,0,0h-3.43a12.26,12.26,0,0,1-12.26-12.26v0A12.26,12.26,0,0,1,232.21,79.41Z"/><path class="cls-14" d="M231.81,86.42h3.83a0,0,0,0,1,0,0V96.94a0,0,0,0,1,0,0h-3.83a5.26,5.26,0,0,1-5.26-5.26v0A5.26,5.26,0,0,1,231.81,86.42Z"/><path class="cls-15" d="M244.67,79.41v7.91a18.14,18.14,0,0,1-18.14-18.14V32.31h18.14Z"/><path class="cls-7" d="M235.64,52.12v64.6a46.51,46.51,0,0,0,93,0V52.12a25.49,25.49,0,0,0-25.5-25.48h-42a25.46,25.46,0,0,0-25.48,25.48Z"/><path class="cls-6" d="M235.64,52.12v64.6A46.48,46.48,0,0,0,271.72,162a46.51,46.51,0,0,0,36.08-45.32V92A65.39,65.39,0,0,0,254,27.65,25.47,25.47,0,0,0,235.64,52.12Z"/><rect class="cls-16" x="261.94" y="94.93" width="23.58" height="14.1" rx="7.05" transform="translate(547.46 203.95) rotate(-180)"/><rect class="cls-16" x="270.25" y="26.64" width="11.89" height="73.08" transform="translate(552.39 126.35) rotate(-180)"/><rect class="cls-17" x="288.32" y="67.35" width="12.89" height="24.13" rx="6.44" transform="translate(589.52 158.83) rotate(180)"/><rect class="cls-17" x="251.18" y="67.35" width="12.89" height="24.13" rx="6.44" transform="translate(515.25 158.83) rotate(180)"/><path class="cls-14" d="M280.46,135a20.26,20.26,0,0,0,20.24-20.24,3.83,3.83,0,1,0-7.65,0,12.61,12.61,0,0,1-12.59,12.59,3.83,3.83,0,1,0,0,7.65Z"/><path class="cls-15" d="M328.64,103.94h7.84a12.06,12.06,0,0,0,3.91-.65v3.27a11.77,11.77,0,0,1-11.77,11.78Z"/><path class="cls-15" d="M328.64,79.39h7.84a12.09,12.09,0,0,1,3.72.63h.19V47.94a27,27,0,0,0-27-27H282.14v6.74a15.91,15.91,0,0,0,15.91,15.91h0a9.74,9.74,0,0,1,9.75,9.74v5.72a20.29,20.29,0,0,0,20.29,20.3l.55,0Z"/><rect class="cls-18" x="221.78" y="20.98" width="89.51" height="22.65" rx="11.32"/><path class="cls-4" d="M226.87,295.33l-45,45a16.7,16.7,0,0,1-20.85,2.22,16.51,16.51,0,0,1-2.75-2.22,16.7,16.7,0,0,1,0-23.6l45-45a16.68,16.68,0,0,1,23.6,0,16.86,16.86,0,0,1,2.22,2.74,16.68,16.68,0,0,1-2.23,20.86Z"/><path class="cls-5" d="M226.87,295.33l-45,45a16.7,16.7,0,0,1-20.85,2.22l68-68.06a16.68,16.68,0,0,1-2.23,20.86Z"/><path class="cls-6" d="M237.76,328.82,204,295a16.67,16.67,0,0,1-2.22-20.85,16.35,16.35,0,0,1,2.22-2.74,16.67,16.67,0,0,1,23.59,0l33.8,33.79a16.68,16.68,0,0,1,0,23.6,16.35,16.35,0,0,1-2.74,2.22,16.69,16.69,0,0,1-20.86-2.22Z"/><path class="cls-7" d="M237.76,328.82,204,295a16.67,16.67,0,0,1-2.22-20.85L258.62,331a16.69,16.69,0,0,1-20.86-2.22Z"/><path class="cls-8" d="M98.66,308.48a3.11,3.11,0,0,1-.2-4.39l2.09-2.29,4.58,4.19L103,308.28A3.11,3.11,0,0,1,98.66,308.48Z"/><path class="cls-8" d="M107.4,318.38a3.12,3.12,0,0,1-.2-4.39l2.1-2.29,4.58,4.19-2.09,2.29A3.12,3.12,0,0,1,107.4,318.38Z"/><path class="cls-8" d="M115.59,327.64a3.09,3.09,0,0,1-.2-4.38l2.09-2.29,4.58,4.18L120,327.44A3.1,3.1,0,0,1,115.59,327.64Z"/><path class="cls-8" d="M145.22,356a3.11,3.11,0,0,1-.19-4.39l2.09-2.29,4.58,4.19-2.09,2.29A3.12,3.12,0,0,1,145.22,356Z"/><path class="cls-8" d="M152.23,362.44a3.12,3.12,0,0,1-.2-4.39l2.1-2.29,4.58,4.19-2.09,2.29A3.12,3.12,0,0,1,152.23,362.44Z"/><path class="cls-9" d="M182.17,339.92a7.45,7.45,0,0,1-.6,9.33l-9.34,10.2a9.66,9.66,0,0,1-13.64.6L147,349.44a6.46,6.46,0,0,1-2.07-4.18,8.11,8.11,0,0,0-5-6.8,57.08,57.08,0,0,1-16.47-10.54l-23-26.12a9,9,0,0,1,.12-12c4.8-4.31,12.87-3.18,16.73,1.93a26.71,26.71,0,0,0,9.22,7.54c5.53,3,24.39,8.5,33.05,11.3a7.47,7.47,0,0,1,3.81,2.8Z"/><path class="cls-10" d="M172.23,359.45a9.66,9.66,0,0,1-13.64.6L147,349.44a6.46,6.46,0,0,1-2.07-4.18,8.13,8.13,0,0,0-5-6.8,57.08,57.08,0,0,1-16.47-10.54l-23-26.12a9,9,0,0,1,.12-12,53.92,53.92,0,0,0,10.27,16.56L126,323q3.44,3.8,7.22,7.23l19.4,17.6a56.43,56.43,0,0,0,19.63,11.6Z"/><path class="cls-11" d="M181.57,349.25c-5.09-2.28-10.37-4.2-14.95-7.31a28.55,28.55,0,0,1-8.11-8.38c-16.81-25.3-35.64-17.82-52.46-46.26a12,12,0,0,1,11.33,4.44,26.71,26.71,0,0,0,9.22,7.54c6.06,3.28,26.28,9,33.06,11.33a7.48,7.48,0,0,1,3.83,2.81l18.67,26.5A7.44,7.44,0,0,1,181.57,349.25Z"/><path class="cls-12" d="M155.41,311.21c5.81-1,9.69-4.64,9-8.41S158.89,297,153.07,298a12.11,12.11,0,0,0-6.74,4.23l-.06,0a12.08,12.08,0,0,0,1.67-7.79c-1-5.82-4.65-9.7-8.42-9s-5.84,5.55-4.81,11.36c.71,4,4.12,6.84,6,8.1a3,3,0,0,0,0,.52v11.4a3.71,3.71,0,0,0,7.41,0v-7A11.73,11.73,0,0,0,155.41,311.21Zm-15.13-11.88a6.93,6.93,0,0,1-1.72-3.29c-.68-3.81.54-6.64,1.64-6.83,2.18-.18,5.17,6,3.39,9.54A2,2,0,0,1,140.28,299.33Zm10.77,7.54a2,2,0,0,1-.58-3.31,7,7,0,0,1,3.28-1.73c3.82-.67,6.64.55,6.84,1.65C160.77,305.66,154.56,308.65,151.05,306.87Z"/><path class="cls-3" d="M219.81,314.5,247,287.27a7.41,7.41,0,0,1,10.47,0l3.85,3.85c10.41,10.41,10.84,27.72.43,38.13h0c-10.41,10.41-27.72,10-38.13-.43L219.81,325A7.41,7.41,0,0,1,219.81,314.5Z"/><circle class="cls-19" cx="126.78" cy="164.33" r="45.97"/><path class="cls-20" d="M162.12,134.92a45.9,45.9,0,0,0-35.34-16.57c-1.41,0-2.82.07-4.2.19a45.79,45.79,0,0,0-7,10.81h0a46,46,0,0,0,41.74,65.25c1.42,0,2.82-.06,4.2-.19a45.9,45.9,0,0,0,10.25-20.64,46.65,46.65,0,0,0,1-9.44A45.79,45.79,0,0,0,162.12,134.92Z"/><path class="cls-21" d="M126.78,121.85a42.47,42.47,0,1,1-30,12.44,42.22,42.22,0,0,1,30-12.44m0-3.5a46,46,0,1,0,46,46,46,46,0,0,0-46-46Z"/><path class="cls-12" d="M172.72,162.55a46,46,0,0,0-50.14-44,46.11,46.11,0,0,0-3,3.92c40.94-6.55,66.14,42.69,37,72.13,1.17-1.18,3.33,0,5-.18A45.93,45.93,0,0,0,172.72,162.55Z"/><path class="cls-21" d="M107.29,162.05a1.91,1.91,0,0,1-.62-.1l-7.54-2.47a2,2,0,0,1,1.22-3.74l7.55,2.47a2,2,0,0,1-.61,3.84Z"/><path class="cls-12" d="M126.77,147.86a2,2,0,0,1-2-2v-9.43a2,2,0,0,1,3.94,0v9.43A2,2,0,0,1,126.77,147.86Z"/><path class="cls-12" d="M146.27,162a2,2,0,0,1-.59-3.85l7.58-2.36a2,2,0,0,1,1.17,3.76l-7.58,2.36A2,2,0,0,1,146.27,162Z"/><path class="cls-12" d="M142.06,189.6a2,2,0,0,1-1.61-.84l-3.26-4.66a2,2,0,1,1,3.22-2.26l3.26,4.67a2,2,0,0,1-1.61,3.09Z"/><path class="cls-21" d="M111.37,189.51a2,2,0,0,1-1.57-3.15l3.44-4.54a2,2,0,0,1,3.14,2.37l-3.44,4.54A2,2,0,0,1,111.37,189.51Z"/><path class="cls-22" d="M120.75,209.91a46,46,0,0,1-33.45-22l21.6-1a4.29,4.29,0,0,1,4.22,2.77Z"/><path class="cls-22" d="M98.33,159.9,81.8,173.84A46,46,0,0,1,91.39,135l8.15,20A4.3,4.3,0,0,1,98.33,159.9Z"/><path class="cls-22" d="M172.76,164.33a46.65,46.65,0,0,1-1,9.44l-16.56-13.91A4.29,4.29,0,0,1,154,155l8.11-20A45.79,45.79,0,0,1,172.76,164.33Z"/><path class="cls-23" d="M172.76,164.33a46.65,46.65,0,0,1-1,9.44l-16.56-13.91A4.29,4.29,0,0,1,154,155l8.11-20A45.79,45.79,0,0,1,172.76,164.33Z"/><path class="cls-22" d="M124.26,146.71l-15.4,11.19a4.3,4.3,0,0,0-1.57,4.8l5.89,18.11a4.29,4.29,0,0,0,4.08,3h19a4.31,4.31,0,0,0,4.09-3l5.88-18.11a4.31,4.31,0,0,0-1.56-4.8l-15.4-11.19A4.31,4.31,0,0,0,124.26,146.71Z"/><path class="cls-23" d="M146.27,162.7l-5.89,18.11a4.29,4.29,0,0,1-4.08,3h-8.59a45.9,45.9,0,0,1-15.8-28.1l12.35-9a4.31,4.31,0,0,1,5,0l15.4,11.19A4.31,4.31,0,0,1,146.27,162.7Z"/><path class="cls-22" d="M166.34,187.76A46.12,46.12,0,0,1,133,209.89l7-18.7.59-1.56a4.29,4.29,0,0,1,4.21-2.79Z"/><path class="cls-23" d="M166.34,187.76a45.68,45.68,0,0,1-4.8,6.65c-1.38.13-2.78.19-4.2.19a45.81,45.81,0,0,1-17.4-3.41l.59-1.56a4.29,4.29,0,0,1,4.21-2.79Z"/><path class="cls-22" d="M146.8,122.93l-17.49,12.71a4.28,4.28,0,0,1-5,0l-8.66-6.29h0l-8.84-6.42a45.77,45.77,0,0,1,15.82-4.39c1.38-.12,2.79-.19,4.2-.19A45.8,45.8,0,0,1,146.8,122.93Z"/><path class="cls-23" d="M146.8,122.93l-17.49,12.71a4.29,4.29,0,0,1-5,0l-8.66-6.29h0a45.79,45.79,0,0,1,7-10.81c1.38-.12,2.79-.19,4.2-.19A45.8,45.8,0,0,1,146.8,122.93Z"/><circle class="cls-11" cx="144.3" cy="140.3" r="9.4"/><path class="cls-24" d="M185.51,149.86a2,2,0,0,0,.4,2.76,45.65,45.65,0,0,1,9.35,63.8,2,2,0,1,0,3.17,2.36,49.6,49.6,0,0,0-10.16-69.32A2,2,0,0,0,185.51,149.86Z"/><path class="cls-24" d="M166.76,128.76a1.91,1.91,0,0,0-.36.82,2,2,0,0,0,1.59,2.3,57.1,57.1,0,0,1,46,66.28,2,2,0,1,0,3.88.71A61.06,61.06,0,0,0,168.69,128,2,2,0,0,0,166.76,128.76Z"/><path class="cls-24" d="M186.05,269.87h0a2,2,0,0,1-2.63.49l-18-11.89a2,2,0,0,1-.53-2.84h0a2,2,0,0,1,2.63-.49l18,11.9A2,2,0,0,1,186.05,269.87Z"/><path class="cls-24" d="M190.39,253h0a2,2,0,0,1-2.59-.64l-11.45-18.28a2,2,0,0,1,.7-2.81h0a2,2,0,0,1,2.59.65l11.45,18.28A2,2,0,0,1,190.39,253Z"/></svg>